<?xml version="1.0" encoding="UTF-8"?>
<svg id="Layer_2" data-name="Layer 2" xmlns="http://www.w3.org/2000/svg" viewBox="0 0 571.05 188.96">
  <g id="Layer_1-2" data-name="Layer 1">
    <g>
      <g>
        <g>
          <polygon points="208.96 111.62 217.56 111.62 217.56 96.27 237.43 96.27 237.43 88.62 217.56 88.62 217.56 80.25 242.85 80.25 242.85 72.54 208.96 72.54 208.96 111.62" fill="#fff"/>
          <polygon points="254.45 95.88 273.88 95.88 273.88 88.23 254.45 88.23 254.45 80.25 280.02 80.25 280.02 72.54 245.85 72.54 245.85 111.62 280.25 111.62 280.25 103.92 254.45 103.92 254.45 95.88" fill="#fff"/>
          <g>
            <rect x="291.85" y="80.53" width="21.27" height="23.12" fill="none"/>
            <path d="M283.25,72.54v39.08h32.61l5.86-5.86v-27.36l-5.86-5.86h-32.61ZM313.12,103.64h-21.27v-23.12h21.27v23.12Z" fill="#fff"/>
          </g>
          <polygon points="333.32 95.88 352.75 95.88 352.75 88.23 333.32 88.23 333.32 80.25 358.89 80.25 358.89 72.54 324.72 72.54 324.72 111.62 359.12 111.62 359.12 103.92 333.32 103.92 333.32 95.88" fill="#fff"/>
          <g>
            <rect x="370.72" y="80.3" width="19.26" height="9.32" fill="none"/>
            <path d="M392.72,97.39l5.86-5.86v-13.12l-5.86-5.86h-30.6v39.08h8.6v-14.24h12.84l7.43,14.24h9.1l-7.48-14.24h.11ZM389.98,89.63h-19.26v-9.32h19.26v9.32Z" fill="#fff"/>
          </g>
          <g>
            <polygon points="419 97.11 433.3 97.11 426.15 81.75 419 97.11" fill="none"/>
            <path d="M422.24,72.54l-19.15,39.08h9.16l3.18-6.81h21.44l3.18,6.81h9.38l-19.09-39.08h-8.1ZM419,97.11l7.15-15.36,7.15,15.36h-14.29Z" fill="#fff"/>
          </g>
          <polygon points="438.43 80.53 453.12 80.53 453.12 111.62 461.71 111.62 461.71 80.53 476.34 80.53 476.34 72.54 438.43 72.54 438.43 80.53" fill="#fff"/>
          <rect x="479.34" y="72.54" width="8.6" height="39.08" fill="#fff"/>
          <g>
            <rect x="499.54" y="80.53" width="21.66" height="23.12" fill="none"/>
            <path d="M496.81,72.54l-5.86,5.86v27.36l5.86,5.86h27.14l5.86-5.86v-27.36l-5.86-5.86h-27.14ZM521.21,103.64h-21.66v-23.12h21.66v23.12Z" fill="#fff"/>
          </g>
          <polygon points="562.84 72.54 562.84 98.5 540.84 72.54 532.8 72.54 532.8 111.62 541.01 111.62 541.01 85.61 563.12 111.62 571.05 111.62 571.05 72.54 562.84 72.54" fill="#fff"/>
        </g>
        <g>
          <g>
            <polygon points="342.07 31.45 342.07 23.47 361.73 23.47 361.73 27.88 370.33 27.88 370.33 21.79 364.46 15.93 339.34 15.93 333.47 21.79 333.47 33.63 339 39.16 361.95 39.16 361.95 47.48 341.85 47.48 341.85 42.79 333.25 42.79 333.25 49.15 339.11 55.01 364.69 55.01 370.55 49.15 370.55 36.98 365.02 31.45 342.07 31.45" fill="#fff"/>
            <g>
              <rect x="382.15" y="23.69" width="19.26" height="9.55" fill="none"/>
              <path d="M373.55,15.93v39.08h8.6v-14.01h22l5.86-5.86v-13.35l-5.86-5.86h-30.6ZM401.42,33.24h-19.26v-9.55h19.26v9.55Z" fill="#fff"/>
            </g>
            <g>
              <rect x="421.61" y="23.91" width="21.66" height="23.12" fill="none"/>
              <path d="M418.87,15.93l-5.86,5.86v27.36l5.86,5.86h27.14l5.86-5.86v-27.36l-5.86-5.86h-27.14ZM443.27,47.03h-21.66v-23.12h21.66v23.12Z" fill="#fff"/>
            </g>
            <g>
              <rect x="463.47" y="23.69" width="19.26" height="9.32" fill="none"/>
              <path d="M485.47,40.78l5.86-5.86v-13.12l-5.86-5.86h-30.6v39.08h8.6v-14.24h12.84l7.43,14.24h9.1l-7.48-14.24h.11ZM482.73,33.01h-19.26v-9.32h19.26v9.32Z" fill="#fff"/>
            </g>
            <polygon points="493.84 23.91 508.53 23.91 508.53 55.01 517.12 55.01 517.12 23.91 531.75 23.91 531.75 15.93 493.84 15.93 493.84 23.91" fill="#fff"/>
            <polygon points="565.52 31.45 542.57 31.45 542.57 23.47 562.23 23.47 562.23 27.88 570.83 27.88 570.83 21.79 564.96 15.93 539.83 15.93 533.98 21.79 533.98 33.63 539.5 39.16 562.45 39.16 562.45 47.48 542.35 47.48 542.35 42.79 533.75 42.79 533.75 49.15 539.61 55.01 565.19 55.01 571.05 49.15 571.05 36.98 565.52 31.45" fill="#fff"/>
          </g>
          <g>
            <polygon points="262.58 38.02 262.58 38.02 262.58 38.02 262.58 38.02" fill="none"/>
            <polygon points="263.39 34.73 263.39 34.73 263.39 34.73 263.39 34.73" fill="none"/>
            <polygon points="262.59 37.17 262.59 37.17 262.59 37.17 262.59 37.17" fill="none"/>
            <path d="M252.01,47.81h14.46v-14.62h-14.46v14.62ZM252.71,44.48s.02.06.03.09c.17.11.32.2.49.29-.14-.25-.17-.52-.16-.71-.1-.18-.03-.32.02-.36.05-.05.13-.06.2-.03.1.05.2.18.19.34,0,.07-.03.12-.07.16,0,.07,0,.14.01.21,0,.11.01.13.02.2h0s0,0,0,0c.02.09.04.23.1.34l.52.21c-.17-.23-.24-.51-.24-.72-.11-.17-.07-.31-.02-.37.05-.06.12-.08.2-.06.1.03.21.15.22.31,0,.07-.01.13-.05.18.01.07.02.14.03.21q.02.1.04.2h0c.03.1.07.24.13.34l.55.13c-.19-.21-.29-.49-.32-.7-.13-.16-.1-.32-.05-.39.05-.06.12-.09.2-.07.12.03.21.15.24.28.02.11-.02.17-.04.2.02.06.04.12.06.2.04.13.04.14.06.2h0c.05.14.1.25.17.33l.57.05c-.05-.05-.1-.1-.15-.16-.09-.11-.2-.34-.25-.53-.14-.14-.13-.31-.08-.39.04-.07.11-.11.2-.09.12.02.22.12.26.25.03.1,0,.17-.01.2.03.07.05.14.08.21q.04.1.08.2h0c.05.09.11.22.2.32h.02s.01.03.01.03v-.03s.01.04.01.04v-.04s.01.04.01.04v-.04s.01,0,.01,0l.02.04v-.04s.01.04.01.04v-.04s.02.04.02.04v-.04s.02.04.02.04v-.04s.01.04.01.04v-.04s.02.04.02.04h0s-.01-.04-.01-.04h.01s0,0,0,0h.01s.06,0,.06,0h0c.12,0,.24,0,.35-.02-.24-.16-.4-.43-.47-.64-.16-.12-.17-.3-.13-.39.04-.08.1-.13.19-.12.12,0,.23.09.28.22.04.1.02.18,0,.21.03.06.06.12.1.19.01.03.04.08.1.19h0c.08.14.16.24.23.3.2-.03.39-.06.59-.11-.07-.03-.13-.08-.19-.13-.1-.08-.27-.29-.36-.48-.17-.1-.19-.28-.16-.37.03-.09.1-.14.18-.15.12,0,.24.07.3.19.05.1.04.17.03.21.04.06.08.13.12.19.06.1.08.12.12.18h0c.09.13.17.22.26.27.2-.05.39-.12.58-.19-.28-.1-.49-.34-.61-.55-.18-.08-.22-.26-.2-.36.02-.09.08-.16.17-.18.11-.02.24.04.31.16.06.09.05.17.05.21.05.06.1.12.14.18.02.03.07.08.14.16h0c.1.12.2.2.29.25.19-.08.38-.17.57-.27-.28-.07-.53-.29-.66-.48-.2-.06-.26-.23-.25-.34,0-.1.07-.18.16-.2.11-.03.24.01.33.12.07.09.07.17.07.21.06.06.11.12.16.17.08.08.1.11.16.15h0c.11.11.21.18.31.22.18-.11.37-.23.54-.35-.29-.04-.56-.23-.72-.41-.2-.04-.28-.21-.28-.31,0-.1.05-.19.14-.23.11-.05.24-.01.34.08.08.08.09.16.09.2.06.05.12.1.18.15q.09.07.17.14h0c.1.07.22.14.33.18.17-.13.35-.28.51-.43-.3,0-.59-.16-.76-.33-.2-.01-.3-.17-.31-.28-.01-.11.03-.2.12-.25.1-.06.24-.04.34.05.09.07.11.16.11.2.06.04.12.08.19.12.03.02.07.05.18.12h0c.13.08.25.13.35.15.16-.16.32-.34.47-.51-.33.04-.64-.11-.81-.23,0,0,0,0-.01,0-.19,0-.29-.15-.32-.25-.02-.11.01-.21.1-.27.1-.07.23-.07.34,0,.09.06.12.14.13.18.07.04.14.08.21.11q.09.05.2.1h0c.14.06.26.09.36.1.03-.04.06-.07.09-.11h0c.04-.06.09-.12.13-.18-.03-.08-.1-.18-.2-.31h0q-.07-.08-.16-.16c-.05-.05-.11-.1-.17-.16,0,0,0,0-.01,0-.18,0-.28-.13-.31-.21-.04-.11-.02-.22.06-.29.09-.08.22-.09.33-.04.09.04.15.12.18.22.17.12.41.36.47.67.13-.19.25-.39.36-.59-.04-.08-.12-.18-.24-.28h0s-.07-.06-.17-.15c-.06-.04-.13-.09-.19-.14-.18.02-.3-.1-.34-.17-.05-.1-.04-.21.03-.29.08-.09.2-.12.32-.07.1.03.16.1.2.19.19.11.45.33.54.61.1-.2.19-.41.27-.62-.05-.08-.14-.16-.27-.26h0c-.1-.08-.15-.1-.18-.12-.07-.05-.14-.09-.19-.12-.2.05-.33-.08-.38-.16-.05-.09-.05-.2.01-.27.07-.09.18-.13.3-.1.1.02.17.08.22.17.19.09.48.27.61.55.07-.21.14-.42.19-.63-.06-.08-.16-.15-.3-.23q-.1-.05-.2-.1c-.07-.03-.14-.06-.21-.1-.18.06-.33-.05-.38-.12-.06-.09-.07-.19-.02-.27.05-.09.17-.14.29-.13.1.01.18.06.24.15.21.07.51.23.67.48.05-.21.08-.42.11-.63-.07-.07-.18-.13-.32-.2-.09-.04-.19-.07-.21-.08-.08-.03-.15-.05-.21-.08-.18.09-.34-.01-.4-.08-.07-.08-.09-.18-.05-.27.04-.1.15-.15.27-.15.1,0,.18.04.25.12.2.05.52.16.71.41.02-.21.03-.42.03-.63-.08-.05-.18-.11-.34-.16h0c-.1-.03-.11-.03-.21-.06-.07-.01-.15-.03-.23-.05-.16.1-.33.02-.39-.04-.08-.07-.11-.17-.08-.26.03-.1.13-.16.24-.17.1,0,.19.02.26.09.22.03.54.12.75.33,0-.21-.02-.41-.04-.62-.09-.05-.2-.09-.35-.13h0s0,0,0,0c-.07-.02-.09-.02-.21-.04-.07,0-.15-.02-.23-.03-.15.11-.32.05-.39,0-.09-.06-.13-.16-.11-.25.02-.1.11-.17.22-.19.1-.02.19,0,.27.07.21,0,.54.06.77.25-.02-.13-.05-.27-.07-.4l.04-.02h-.04s0,0,0,0l-.04-.19c-.09-.04-.21-.07-.37-.09h0c-.08,0-.09,0-.21-.02-.08,0-.16,0-.22-.01-.13.13-.31.09-.39.05-.1-.05-.15-.14-.14-.24,0-.1.08-.18.19-.21.09-.03.19-.01.28.04.2-.01.52,0,.78.16l-.18-.54v-.03c-.1-.03-.21-.05-.38-.05h0c-.06,0-.07,0-.22,0-.07,0-.15.01-.23.02-.11.13-.29.11-.37.08-.11-.04-.17-.13-.17-.22,0-.09.06-.18.16-.22.09-.04.18-.03.28.01.17-.03.5-.05.79.08l-.25-.5-.02-.03s-.17-.03-.37-.01h0s0,0,0,0c-.08,0-.08,0-.21.03-.08.01-.15.02-.21.03-.06.09-.16.13-.26.13-.04,0-.08,0-.12-.02-.1-.04-.17-.11-.18-.2,0-.08.04-.15.11-.2h1.76c-.07.05-.13.1-.17.15l.29.58c.12-.25.4-.37.52-.41.01-.04.04-.1.12-.12.1-.03.3.01.41.22,0,.02.02.04.02.06.03.1,0,.18-.06.23-.04.03-.08.04-.13.04s-.1-.02-.15-.04c-.06.02-.12.05-.18.07-.12.05-.13.05-.17.07h0c-.1.06-.19.11-.25.17l.21.61c.16-.25.45-.34.58-.37.02-.04.05-.09.14-.11.11-.03.3.04.38.26,0,.02,0,.02,0,.03.02.11,0,.21-.08.26-.03.02-.07.03-.12.03-.06,0-.12-.02-.18-.06-.05.02-.11.03-.18.06-.09.03-.1.03-.18.05h0c-.12.05-.22.1-.28.15h0s-.01,0-.01,0c0,0,0,0-.01.01h0s-.01,0-.01,0h0s.04,0,.04,0l-.04.02h.04s.01.04.01.04l-.04.02h.04s0,.01,0,.01l-.04.03h.04s0,.02,0,.02l-.04.02h.04s0,.03,0,.03c.03.14.06.28.08.43.16-.2.41-.3.64-.33.02-.03.07-.09.16-.1.12-.02.3.07.35.3v.03c.01.11-.03.21-.12.25-.03.02-.06.02-.1.02-.06,0-.13-.03-.19-.07-.06.01-.13.02-.2.04-.1.02-.14.03-.19.04h0s0,0,0,0c-.13.03-.23.07-.3.12.02.22.04.44.05.66.22-.22.55-.26.68-.27.03-.03.08-.09.17-.09.12,0,.3.09.32.33h0s0,.03,0,.03c0,.12-.07.21-.16.24-.03,0-.05.01-.08.01-.07,0-.14-.03-.2-.09-.07,0-.14.01-.21.02q-.09,0-.2.03h0s0,0,0,0c-.14.03-.25.06-.32.1,0,.22-.01.45-.04.67.25-.2.58-.21.72-.21.03-.03.09-.08.18-.08.07,0,.14.04.19.09.04.05.1.13.09.27h0s0,.03,0,.03c-.02.12-.09.21-.2.23-.02,0-.04,0-.06,0-.08,0-.15-.04-.21-.12-.06,0-.12,0-.21,0,0,0-.11,0-.21,0h0s0,0,0,0c-.13.01-.25.03-.33.07-.03.22-.07.45-.12.67.28-.18.6-.16.76-.14.03-.03.1-.07.19-.06.07,0,.13.05.18.11.04.05.08.14.06.28-.03.14-.12.23-.23.25-.01,0-.02,0-.04,0-.08,0-.16-.05-.22-.13-.07,0-.14-.01-.22-.02q-.09,0-.21-.01h-.01c-.14,0-.26.01-.35.04-.06.22-.13.45-.2.66.3-.15.64-.11.78-.08.04-.02.11-.06.2-.04.07.01.13.06.17.12.03.06.07.15.03.29-.05.14-.16.23-.27.23,0,0,0,0,0,0-.09,0-.18-.06-.23-.16-.06,0-.13-.02-.21-.03-.03,0-.07-.01-.2-.03h0c-.15-.02-.27-.02-.36,0-.09.22-.18.44-.29.65.32-.12.65-.05.8,0,.04-.02.12-.05.21-.03.07.02.12.07.16.14.03.06.05.16,0,.29-.07.13-.18.21-.29.21,0,0-.01,0-.02,0-.09,0-.17-.07-.21-.17-.06-.01-.13-.03-.21-.06-.11-.03-.15-.04-.21-.05h0c-.15-.03-.27-.04-.36-.03-.11.21-.24.42-.37.62.35-.09.68.02.81.07.04-.02.13-.04.21,0,.06.03.12.08.14.15.02.06.03.16-.04.3-.08.11-.19.18-.29.18-.02,0-.03,0-.05,0-.09-.02-.16-.09-.19-.19-.06-.02-.13-.05-.21-.08q-.09-.03-.2-.07h0c-.16-.04-.28-.06-.37-.06h0c-.04.05-.07.1-.11.15h0s-.03.03-.03.03c0,0,0,0,0,0l-.02.03h0s-.04.06-.06.08c.03.1.09.2.17.32h0q.08.11.13.17s.1.1.14.16c.04,0,.1,0,.16.03.06.03.1.1.11.17.01.06,0,.16-.09.28-.02.02-.03.04-.05.05-.07.06-.15.08-.23.08-.05,0-.09-.01-.13-.03-.09-.05-.13-.14-.12-.25-.15-.17-.27-.43-.27-.43-.02-.07-.05-.17-.05-.29-.04.05-.08.09-.12.14h0s0,0,0,0c-.12.13-.24.26-.37.39.02.09.07.2.14.33h0c.07.12.09.15.11.18.04.07.08.12.12.17.04,0,.1,0,.17.05.06.04.09.11.1.18,0,.06-.01.16-.12.26-.02.01-.04.03-.05.04-.06.04-.13.06-.2.06s-.12-.02-.17-.05c-.08-.06-.11-.14-.09-.25-.13-.17-.22-.43-.23-.47-.02-.09-.02-.17-.02-.26-.04.04-.08.08-.12.11h.03s-.04,0-.04,0c-.13.11-.26.22-.4.33.01.09.05.19.11.33h0q.05.11.1.19c.04.06.07.12.11.18.04,0,.1.02.15.07.05.05.08.12.08.19,0,.06-.03.15-.14.23-.02.01-.04.03-.06.03-.05.02-.1.03-.16.03-.08,0-.16-.03-.21-.07-.07-.06-.09-.15-.06-.24-.11-.18-.18-.44-.18-.48,0-.09,0-.17,0-.25-.19.13-.38.26-.57.37,0,.09.03.2.08.33.02.05.03.09.08.19.03.06.06.12.09.18.04,0,.1.03.14.08.05.05.07.12.06.19,0,.06-.04.14-.16.21-.02,0-.04.02-.06.02-.04.01-.08.02-.12.02-.1,0-.19-.04-.25-.11-.06-.07-.07-.15-.03-.23-.1-.19-.14-.44-.14-.47,0-.09.01-.18.03-.26-.2.11-.4.2-.6.29,0,.08,0,.19.04.32h0s0,.01,0,.01c.03.1.05.16.06.18.03.06.05.13.07.19.03.01.09.04.13.09.05.06.06.13.05.19-.01.05-.06.13-.18.18h-.03s-.07.02-.1.02c-.11,0-.22-.05-.28-.13-.05-.07-.06-.15-.02-.23-.07-.18-.09-.43-.09-.51,0-.07.02-.14.05-.2-.2.08-.41.15-.62.21-.01.08-.01.18.01.31.01.06.02.09.04.19.02.06.04.12.05.19.03.02.09.05.12.11.04.06.05.13.03.19-.02.05-.07.12-.2.15h-.03s-.03,0-.05,0c-.13,0-.26-.07-.32-.17-.04-.07-.03-.15.01-.22-.06-.18-.06-.41-.04-.5.01-.07.04-.13.07-.19-.21.05-.42.09-.63.12-.02.08-.03.18-.02.3h0s0,.01,0,.01c.01.11.02.14.02.17.01.07.02.13.03.18.03.02.09.06.12.12.03.06.04.13,0,.19-.02.05-.08.1-.21.12h-.01s-.01,0-.02,0h0c-.15,0-.31-.09-.35-.21-.03-.07-.01-.14.04-.2-.04-.18-.02-.4,0-.48.02-.06.05-.12.08-.17-.13.01-.26.02-.38.03h0s-.06,0-.06,0h-.03s0,0,0,0h-.07s-.01-.04-.01-.04v.04s-.07,0-.07,0h0s-.04.13-.05.28h0c0,.1,0,.1,0,.18,0,.06.01.12.02.18.03.02.07.06.1.13.03.06.02.13,0,.18-.03.04-.08.09-.2.09,0,0,0,0-.01,0h-.01s-.01,0-.02,0c-.16-.02-.3-.13-.33-.26-.02-.07,0-.13.05-.17-.03-.16,0-.39.12-.56.01-.02.03-.03.04-.04l-.56-.04h-.08s-.05.13-.07.24h0s0,0,0,0c0,.04,0,.05,0,.17,0,.07,0,.12,0,.17.03.02.07.07.09.14.02.06.01.13-.02.17-.02.03-.07.06-.16.06-.02,0-.04,0-.07,0-.02,0-.04-.01-.06-.02-.15-.05-.27-.18-.27-.3,0-.06.02-.1.07-.13,0-.16.03-.37.17-.52.01-.01.03-.02.04-.04l-.55-.12-.06-.02c-.04.06-.07.14-.09.23h0c-.01.09-.02.09-.02.16,0,.05,0,.11-.02.16.02.03.06.08.07.14.02.06,0,.12-.04.16-.02.02-.06.04-.11.04-.03,0-.07,0-.12-.02-.02,0-.04-.02-.06-.03-.15-.08-.25-.22-.24-.33,0-.05.03-.09.08-.11,0-.08.02-.17.06-.25.04-.1.11-.18.19-.23l-.53-.2-.06-.03s-.07.12-.1.2h0s-.02.05-.04.15c0,.05-.02.1-.03.15.02.03.05.08.06.14.01.06,0,.12-.05.14-.02.01-.04.02-.08.02s-.09-.01-.15-.04c-.03-.02-.06-.04-.1-.07-.12-.11-.18-.24-.15-.34.01-.04.04-.07.09-.08.01-.08.04-.16.08-.23.05-.08.12-.14.2-.18-.19-.1-.35-.19-.52-.31v-.41Z" fill="none"/>
            <polygon points="299.29 26.78 297.5 26.78 298.4 28.63 299.29 26.78" fill="none"/>
            <polygon points="256.18 45.62 256.18 45.62 256.18 45.63 256.18 45.62" fill="none"/>
            <polygon points="260.33 44.22 260.33 44.22 260.33 44.22 260.33 44.22" fill="none"/>
            <polygon points="296.1 29.08 297.14 31.24 298.18 29.08 297.14 26.93 296.1 29.08" fill="none"/>
            <polygon points="296.77 26.78 294.99 26.78 295.88 28.63 296.77 26.78" fill="none"/>
            <polygon points="286.71 26.78 284.93 26.78 285.82 28.63 286.71 26.78" fill="none"/>
            <polygon points="289.23 26.78 287.45 26.78 288.34 28.63 289.23 26.78" fill="none"/>
            <polygon points="263.76 35.86 263.76 35.86 263.76 35.86 263.76 35.86" fill="none"/>
            <polygon points="263.79 35.97 263.79 35.97 263.79 35.97 263.79 35.97" fill="none"/>
            <polygon points="294.26 26.78 292.47 26.78 293.37 28.63 294.26 26.78" fill="none"/>
            <polygon points="291.74 26.78 289.96 26.78 290.85 28.63 291.74 26.78" fill="none"/>
            <polygon points="253.07 45.9 253.07 45.9 253.06 45.9 253.07 45.9" fill="none"/>
            <polygon points="288.34 29.54 287.3 31.69 288.34 33.85 289.38 31.69 288.34 29.54" fill="none"/>
            <polygon points="294.63 31.24 295.66 29.08 294.62 26.93 293.59 29.08 294.63 31.24" fill="none"/>
            <polygon points="289.6 31.24 290.63 29.08 289.59 26.93 288.56 29.08 289.6 31.24" fill="none"/>
            <polygon points="292.11 31.24 293.15 29.08 292.11 26.93 291.07 29.08 292.11 31.24" fill="none"/>
            <polygon points="287.08 26.93 286.04 29.08 287.08 31.24 288.12 29.08 287.08 26.93" fill="none"/>
            <polygon points="292.34 36.92 293.38 39.07 294.42 36.92 293.38 34.76 292.34 36.92" fill="none"/>
            <polygon points="294.85 31.69 295.89 33.85 296.92 31.69 295.88 29.54 294.85 31.69" fill="none"/>
            <polygon points="291.09 39.53 292.13 41.68 293.16 39.53 292.12 37.37 291.09 39.53" fill="none"/>
            <polygon points="293.59 34.31 294.63 36.46 295.67 34.31 294.63 32.15 293.59 34.31" fill="none"/>
            <polygon points="293.37 33.85 294.41 31.69 293.37 29.54 292.33 31.69 293.37 33.85" fill="none"/>
            <polygon points="290.86 34.76 289.82 36.92 290.87 39.07 291.9 36.92 290.86 34.76" fill="none"/>
            <polygon points="291.08 34.31 292.12 36.46 293.16 34.31 292.11 32.15 291.08 34.31" fill="none"/>
            <polygon points="290.86 33.85 291.9 31.69 290.85 29.54 289.82 31.69 290.86 33.85" fill="none"/>
            <polygon points="289.6 32.15 288.56 34.31 289.61 36.46 290.64 34.31 289.6 32.15" fill="none"/>
            <polygon points="226.02 33.89 226.84 33.89 226.84 33.11 228.11 33.11 228.11 32.3 226.84 32.3 226.84 31.27 228.11 31.27 228.11 30.45 226.84 30.45 226.84 29.43 228.11 29.43 228.11 28.61 226.84 28.61 226.84 27.58 228.11 27.58 228.11 26.77 226.84 26.77 226.84 25.99 226.02 25.99 226.02 26.77 224.75 26.77 224.75 27.58 226.02 27.58 226.02 28.61 224.75 28.61 224.75 29.43 226.02 29.43 226.02 30.45 224.75 30.45 224.75 31.27 226.02 31.27 226.02 32.3 224.75 32.3 224.75 33.11 226.02 33.11 226.02 33.89" fill="#3f8e2d"/>
            <path d="M253.04,45.38c-.04.07-.07.16-.08.23-.04.01-.07.04-.09.08-.03.09.03.23.15.34.04.04.07.05.1.07.06.03.11.04.15.04s.06-.01.08-.02c.04-.03.06-.08.05-.14,0-.06-.04-.11-.06-.14.01-.05.02-.1.03-.15.02-.1.03-.11.04-.14h0c.03-.08.07-.15.1-.2l.06.03.53.2c-.08.05-.15.13-.19.23-.04.08-.05.17-.06.25-.05.02-.08.06-.08.11-.01.11.09.26.24.33.02,0,.04.02.06.03.05.02.08.02.12.02.06,0,.09-.02.11-.04.04-.04.05-.09.04-.16-.02-.06-.05-.11-.07-.14,0-.05.01-.11.02-.16,0-.07,0-.07.02-.16h0c.02-.09.05-.18.09-.23l.06.02.55.12s-.03.02-.04.04c-.14.15-.18.36-.17.52-.05.03-.07.08-.07.13,0,.12.12.25.27.3.02,0,.04.01.06.02.03,0,.05,0,.07,0,.08,0,.13-.03.16-.06.04-.04.04-.11.02-.17-.02-.07-.07-.11-.09-.14,0-.05,0-.1,0-.17,0-.12,0-.13,0-.17h0s0,0,0,0c.01-.11.03-.19.07-.25h.08s.56.05.56.05c-.01.01-.03.03-.04.04-.13.18-.15.4-.12.56-.05.05-.07.11-.05.17.03.12.18.24.33.26,0,0,.01,0,.02,0h.01s0,0,.01,0c.12,0,.18-.05.2-.09.03-.05.04-.12,0-.18-.03-.06-.07-.1-.1-.13,0-.06,0-.12-.02-.18,0-.07,0-.08,0-.18h0c0-.15.02-.23.05-.29h0s.07.01.07.01v-.04s.01.04.01.04h.07s0,0,0,0h.03s.06,0,.06,0h0c.13,0,.26-.02.38-.03-.03.05-.06.11-.08.17-.03.08-.05.3,0,.48-.05.06-.06.13-.04.2.05.12.2.21.35.21h0s.01,0,.02,0h.01c.13-.02.18-.07.21-.12.03-.06.03-.12,0-.19-.04-.06-.09-.1-.12-.12,0-.05-.02-.11-.03-.18,0-.03-.01-.06-.02-.17h0s0-.01,0-.01c-.01-.12,0-.22.02-.3.21-.03.42-.07.63-.12-.03.06-.05.12-.07.19-.02.09-.02.31.04.5-.05.07-.05.15-.01.22.06.1.19.17.32.17.02,0,.03,0,.05,0h.03c.13-.04.18-.11.2-.16.02-.06.01-.13-.03-.19-.04-.06-.09-.09-.12-.11-.01-.06-.03-.13-.05-.19-.02-.1-.03-.13-.04-.19-.02-.13-.03-.23-.01-.31.21-.06.42-.13.62-.21-.02.06-.04.13-.05.2,0,.08.01.33.09.51-.04.08-.04.16.02.23.06.08.17.13.28.13.03,0,.07,0,.1-.01h.03c.12-.06.17-.13.18-.19.02-.06,0-.13-.05-.19-.04-.05-.1-.08-.13-.09-.02-.06-.05-.13-.07-.19,0-.02-.03-.07-.06-.18h0s0-.01,0-.01c-.04-.13-.05-.24-.04-.32.2-.09.4-.18.6-.29-.02.08-.03.16-.03.26,0,.03.04.28.14.47-.03.08-.02.17.03.23.06.07.15.11.25.11.04,0,.08,0,.12-.02.02,0,.04-.02.06-.02.12-.07.15-.15.16-.21,0-.07-.01-.14-.06-.19-.05-.05-.11-.07-.14-.08-.03-.06-.06-.12-.09-.18-.05-.1-.06-.13-.08-.19-.05-.13-.07-.24-.08-.33.2-.11.39-.24.57-.37-.01.08-.02.17,0,.25,0,.04.07.3.18.48-.03.09,0,.18.06.24.05.05.13.07.21.07.05,0,.11-.01.16-.03.02,0,.04-.02.06-.03.11-.08.14-.17.14-.23,0-.07-.03-.14-.08-.19-.05-.05-.11-.06-.15-.07-.03-.06-.07-.12-.11-.18q-.04-.08-.1-.18h0c-.06-.14-.1-.25-.11-.33.14-.11.27-.22.4-.33h.04s-.03,0-.03,0c.04-.04.08-.08.12-.11,0,.08,0,.17.02.26,0,.04.1.3.23.47-.02.1.01.19.09.25.05.03.11.05.17.05.07,0,.13-.02.2-.06.02-.01.04-.03.05-.04.1-.1.12-.19.12-.26,0-.07-.04-.14-.1-.18-.06-.04-.13-.05-.17-.05-.03-.05-.07-.11-.12-.17-.02-.03-.04-.05-.11-.17h0c-.08-.14-.12-.25-.14-.34.13-.13.25-.26.37-.39h0s0,0,0,0c.04-.05.08-.09.12-.14,0,.12.03.22.05.29,0,0,.12.26.27.43,0,.11.03.2.12.25.04.02.09.03.13.03.08,0,.16-.03.23-.08.02-.01.03-.03.05-.05.09-.12.1-.22.09-.28-.01-.07-.06-.13-.11-.17-.06-.04-.12-.04-.16-.03-.04-.06-.09-.11-.14-.16q-.05-.06-.13-.17h0c-.08-.12-.14-.23-.17-.32.02-.03.04-.06.06-.08h0s.02-.03.02-.03c0,0,0,0,0,0l.03-.03h0c.04-.05.07-.1.11-.15h0c.09,0,.21.02.37.06h0q.12.04.2.07c.07.03.14.06.21.08.03.1.1.17.19.19.02,0,.03,0,.05,0,.11,0,.21-.06.29-.18.08-.13.07-.23.04-.3-.02-.07-.08-.13-.14-.15-.09-.04-.17,0-.21,0-.12-.05-.45-.17-.81-.07.13-.2.26-.41.37-.62.09-.01.22,0,.36.03h0c.06.01.09.02.21.05.08.02.15.04.21.06.04.1.12.16.21.17,0,0,.01,0,.02,0,.11,0,.22-.08.29-.21.06-.14.04-.23,0-.29-.03-.07-.09-.12-.16-.14-.09-.03-.17,0-.21.03-.15-.05-.48-.12-.8,0,.1-.21.2-.43.29-.65.09-.02.22-.02.36,0h0c.13.02.17.02.2.03.08.01.15.03.21.03.05.1.14.16.23.16,0,0,0,0,0,0,.11,0,.22-.09.27-.23.04-.14,0-.24-.03-.29-.04-.06-.1-.11-.17-.12-.09-.02-.17.02-.2.04-.14-.03-.48-.08-.78.08.08-.22.14-.44.2-.66.09-.03.21-.04.35-.04h.01q.12,0,.21.01c.08,0,.15.02.22.02.06.08.14.13.22.13.01,0,.02,0,.04,0,.11-.02.2-.11.23-.25.02-.14-.02-.23-.06-.28-.05-.06-.11-.1-.18-.11-.09-.01-.16.03-.19.06-.15-.02-.48-.03-.76.14.05-.22.09-.45.12-.67.08-.04.2-.06.33-.07h0s0,0,0,0c.1,0,.2,0,.21,0,.08,0,.15,0,.21,0,.06.07.14.12.21.12.02,0,.04,0,.06,0,.1-.03.18-.11.2-.23,0,0,0-.02,0-.02h0c0-.15-.05-.24-.09-.29-.05-.05-.12-.09-.19-.09-.09,0-.15.05-.18.08-.14,0-.47,0-.72.21.02-.22.03-.45.04-.67.07-.04.18-.07.32-.1h0s0,0,0,0q.11-.02.2-.03c.07,0,.14,0,.21-.02.06.06.13.09.2.09.03,0,.05,0,.08-.01.09-.04.15-.13.16-.24,0,0,0-.01,0-.02h0c-.02-.25-.2-.35-.32-.35-.09,0-.14.06-.17.09-.14,0-.46.05-.68.27,0-.22-.02-.44-.05-.66.07-.05.17-.09.3-.12h0s0,0,0,0c.06-.02.09-.02.19-.04.07-.01.14-.02.2-.04.06.05.13.07.19.07.03,0,.07,0,.1-.02.08-.04.13-.14.12-.25v-.03c-.06-.23-.24-.32-.36-.3-.09.01-.13.07-.16.1-.23.03-.48.13-.64.33-.02-.15-.05-.3-.08-.43v-.04s-.05.01-.05.01h0l.04-.02v-.03s-.05,0-.05,0l.04-.03h0s-.04-.01-.04-.01l.04-.02v-.05s-.05.01-.05.01h0l.04-.02h-.04s0,0,0,0h.01s0,0,0,0c0,0,0,0,.01-.01h.01s0,0,0,0c.06-.05.16-.1.28-.15h0c.07-.03.09-.03.18-.06.07-.02.13-.04.18-.06.06.04.12.06.18.06.04,0,.08-.01.12-.03.08-.05.11-.15.08-.26,0,0,0-.02,0-.03-.08-.22-.27-.29-.38-.26-.09.02-.12.08-.14.11-.13.03-.42.13-.58.37l-.21-.61c.06-.06.15-.11.25-.17h0s.05-.03.17-.08c.06-.02.13-.04.18-.07.05.03.11.04.15.04s.09-.01.13-.04c.06-.05.09-.14.06-.23,0-.02-.01-.04-.02-.06-.11-.21-.3-.25-.41-.22-.08.03-.11.09-.12.12-.12.04-.39.16-.52.41l-.29-.58s.09-.1.17-.15h-1.76c-.07.05-.12.12-.11.2,0,.09.07.17.18.2.04.01.08.02.12.02.1,0,.21-.04.26-.13.06,0,.13-.02.21-.03.12-.02.12-.02.21-.03h0s0,0,0,0c.2-.02.33,0,.37.01l.02.03.25.5c-.29-.14-.61-.11-.79-.08-.1-.04-.19-.05-.28-.01-.1.04-.16.12-.16.22,0,.1.07.18.17.22.08.03.26.05.37-.08.07,0,.15-.01.23-.02.14,0,.15,0,.22,0h0c.17,0,.29.03.37.05v.03s.19.54.19.54c-.26-.16-.59-.18-.78-.16-.09-.05-.18-.07-.28-.04-.11.03-.18.11-.19.21,0,.09.05.19.14.24.08.04.26.08.39-.05.06,0,.14,0,.22.01.12,0,.13,0,.21.01h0c.16.02.28.05.37.09l.04.19h0s.04,0,.04,0l-.04.02c.03.13.05.26.07.4-.24-.19-.57-.24-.77-.25-.08-.06-.17-.08-.27-.07-.11.02-.2.09-.22.19-.02.09.02.19.11.25.07.05.24.11.39,0,.08.01.16.02.23.03.12.02.15.02.21.04h0s0,0,0,0c.15.03.26.07.35.13.02.2.04.41.04.62-.21-.21-.53-.3-.75-.33-.08-.07-.16-.1-.26-.09-.12,0-.21.08-.24.17-.03.09,0,.19.08.26.07.06.23.13.39.04.08.02.16.04.23.05.11.03.11.03.21.06h0c.16.06.27.11.34.17,0,.21-.01.42-.03.63-.19-.25-.51-.36-.71-.41-.07-.08-.15-.12-.25-.12-.12,0-.22.05-.27.15-.04.09-.02.19.05.27.06.07.22.16.4.08.06.02.13.05.21.08.02,0,.12.04.21.08.15.06.25.13.32.2-.03.21-.07.42-.11.63-.16-.25-.46-.41-.67-.48-.06-.08-.14-.13-.24-.15-.12-.02-.23.03-.29.13-.05.08-.04.19.02.27.05.07.2.18.38.12.07.04.15.07.21.1q.1.05.2.1c.14.08.24.15.3.23-.05.21-.12.42-.19.63-.13-.28-.42-.46-.61-.55-.05-.09-.12-.15-.22-.17-.12-.03-.24,0-.3.1-.06.08-.06.18-.01.27.04.08.18.21.38.16.06.04.12.08.19.12.03.02.07.04.18.12h0c.13.1.22.18.27.26-.08.21-.18.41-.27.62-.09-.28-.35-.5-.54-.61-.04-.1-.1-.16-.2-.19-.12-.04-.25-.02-.32.07-.07.08-.08.19-.03.29.04.08.15.2.34.17.06.05.13.1.19.14.11.08.12.1.17.14h0c.12.11.19.2.24.29-.11.2-.23.4-.36.59-.06-.31-.3-.54-.47-.67-.02-.1-.08-.17-.18-.22-.12-.05-.25-.04-.33.04-.08.07-.1.18-.06.29.03.08.13.21.31.21,0,0,0,0,.01,0,.06.06.12.11.17.16q.08.08.16.16h0c.11.14.17.23.2.31-.04.06-.09.12-.13.18h0s-.06.08-.09.11c-.1,0-.22-.04-.36-.1h0q-.11-.05-.2-.1c-.06-.04-.13-.08-.21-.11-.01-.04-.04-.12-.13-.18-.11-.07-.24-.07-.34,0-.09.06-.13.16-.1.27.02.1.13.25.32.25,0,0,0,0,.01,0,.17.12.48.27.81.23-.15.18-.31.35-.47.51-.1-.02-.22-.07-.35-.14h0c-.11-.07-.15-.1-.18-.12-.07-.05-.13-.09-.19-.12,0-.04-.02-.13-.11-.2-.1-.08-.24-.1-.34-.05-.09.05-.14.14-.12.25.01.11.11.27.31.28.18.16.46.33.76.33-.16.15-.34.29-.51.43-.12-.04-.23-.11-.33-.18h0q-.09-.07-.17-.14c-.05-.05-.11-.1-.18-.15,0-.04-.02-.12-.09-.2-.1-.1-.23-.13-.34-.08-.09.04-.14.12-.14.23,0,.11.08.28.28.31.16.18.42.37.72.41-.18.12-.36.24-.54.35-.09-.04-.2-.11-.31-.21h0c-.05-.05-.08-.08-.16-.16-.05-.05-.1-.11-.16-.17,0-.04,0-.12-.07-.21-.09-.11-.21-.16-.33-.12-.09.03-.15.1-.16.2,0,.1.05.28.25.34.14.19.38.41.66.48-.19.1-.38.19-.57.27-.09-.05-.19-.13-.29-.24h0c-.07-.09-.11-.14-.14-.17-.04-.06-.09-.12-.14-.18,0-.04,0-.12-.05-.21-.07-.12-.2-.18-.31-.16-.09.02-.15.08-.17.18-.02.1.02.28.2.36.12.2.33.44.61.55-.19.07-.39.14-.58.19-.08-.06-.17-.15-.26-.26h0c-.04-.07-.06-.09-.12-.19-.04-.06-.08-.13-.12-.19,0-.04.02-.11-.03-.21-.06-.12-.18-.2-.3-.19-.09,0-.16.06-.18.15-.03.09,0,.27.16.37.09.18.26.4.36.48.06.05.12.09.19.13-.19.04-.39.08-.59.11-.08-.07-.15-.17-.23-.3h0c-.06-.11-.08-.16-.1-.19-.04-.08-.07-.14-.1-.19.01-.03.04-.11,0-.21-.05-.13-.16-.22-.28-.22-.09,0-.16.04-.19.12-.04.09-.04.26.13.39.07.21.23.48.47.64-.12.01-.24.02-.35.02h0s-.06,0-.06,0h0s-.01,0-.01,0h0s0,0,0,0h-.01s.01.04.01.04h0s-.02-.04-.02-.04v.04s-.01-.04-.01-.04v.04s-.02-.04-.02-.04v.04s-.02-.04-.02-.04v.04s-.01-.04-.01-.04v.04s-.02-.04-.02-.04h-.01s0,.04,0,.04v-.04s-.01.04-.01.04v-.04s-.01.03-.01.03v-.03s-.03,0-.03,0c-.09-.09-.15-.22-.2-.31h0q-.04-.1-.08-.2c-.02-.07-.05-.14-.08-.21.02-.03.04-.1.01-.2-.04-.13-.14-.24-.26-.25-.08-.01-.15.02-.2.09-.05.08-.06.25.08.39.05.19.16.42.25.53.05.06.1.11.15.16l-.57-.05c-.06-.08-.12-.19-.17-.32h0c-.02-.07-.03-.08-.06-.21-.02-.08-.04-.14-.06-.2.02-.03.05-.09.04-.2-.02-.14-.12-.25-.24-.28-.08-.02-.15,0-.2.07-.06.07-.09.23.05.39.03.21.13.49.32.7l-.55-.13c-.07-.11-.11-.24-.13-.34h0q-.02-.11-.04-.21c-.01-.07-.02-.14-.03-.21.04-.05.06-.11.05-.18-.01-.16-.12-.28-.22-.31-.08-.02-.15,0-.2.06-.05.06-.09.2.02.37,0,.2.07.49.24.72l-.52-.21c-.06-.12-.08-.25-.1-.34h0s0,0,0,0c-.01-.06-.01-.08-.02-.2,0-.07,0-.14-.01-.21.04-.04.07-.09.07-.16,0-.16-.09-.3-.19-.34-.07-.03-.14-.02-.2.03-.05.05-.12.18-.02.36-.01.19.02.47.16.71-.17-.09-.32-.18-.49-.29-.01-.03-.02-.06-.03-.09v.41c.18.11.33.21.52.31-.08.04-.15.1-.2.18ZM253.07,45.9s0,0,0,0c0,0,0,0,0,0h0ZM263.79,35.97h0s0,0,0,0h0ZM263.77,35.9h0,0ZM263.76,35.86h0s0,0,0,0h0ZM263.76,35.82h0,0ZM263.39,34.73s0,0,0,0h0s0,0,0,0ZM263.51,35.97h0,0ZM263.52,36.01h0,0ZM262.59,37.17s0,0,0,0h0s0,0,0,0ZM262.58,38.02s0,0,0,0h0s0,0,0,0ZM260.33,44.22h0s0,0,0,0h0ZM256.18,45.62h0s0,0,0,0h0Z" fill="#ba0c2f"/>
            <polygon points="280.89 65.06 289.71 65.06 309.52 25.99 300.7 25.99 292.11 44.13 283.45 25.99 274.58 25.99 287.64 52.17 284.05 59.03 275.92 59.03 272.83 65.06 280.89 65.06" fill="#fff"/>
            <polygon points="271.08 59.03 268 65.06 268.79 65.06 271.87 59.03 271.08 59.03" fill="#fff"/>
            <polygon points="268.45 59.03 265.29 65.06 267.18 65.06 270.26 59.03 268.45 59.03" fill="#fff"/>
            <polygon points="272.01 65.06 275.09 59.03 274.3 59.03 271.22 65.06 272.01 65.06" fill="#fff"/>
            <polygon points="273.48 59.03 272.69 59.03 269.61 65.06 270.4 65.06 273.48 59.03" fill="#fff"/>
            <polygon points="271.08 59.03 270.26 59.03 270.26 59.03 267.18 65.06 267.18 65.06 268 65.06 268 65.06 271.08 59.03 271.08 59.03" fill="#658dc6"/>
            <polygon points="272.69 59.03 271.87 59.03 271.87 59.03 268.79 65.06 268.79 65.06 269.61 65.06 269.61 65.06 272.69 59.03 272.69 59.03" fill="#658dc6"/>
            <polygon points="270.4 65.06 271.22 65.06 271.22 65.06 274.3 59.03 274.3 59.03 273.48 59.03 273.48 59.03 270.4 65.06 270.4 65.06" fill="#658dc6"/>
            <polygon points="272.01 65.06 272.83 65.06 272.83 65.06 275.92 59.03 275.92 59.03 275.09 59.03 275.09 59.03 272.01 65.06 272.01 65.06" fill="#658dc6"/>
            <polygon points="224.08 65.06 243.9 25.99 235.08 25.99 226.48 44.13 217.83 25.99 208.96 25.99 222.02 52.17 215.26 65.06 224.08 65.06" fill="#fff"/>
            <path d="M274.56,49.88v-18.75l-5.13-5.13h-20.37l-5.14,5.13v18.75l5.14,5.14h20.37l5.13-5.14ZM266.47,47.81h-14.46v-14.62h14.46v14.62Z" fill="#fff"/>
            <path d="M284.49,26.78l1.11,2.3.22.45,1.04,2.16.22.45,1.04,2.16.22.45,1.04,2.16.22.45,1.04,2.16.22.45,1.04,2.16.22.45.22-.45,1.04-2.16.22-.45,1.04-2.16.22-.45,1.04-2.16.22-.45,1.04-2.16.22-.45,1.04-2.16.22-.45,1.11-2.3.16-.33.22-.46h-.22s0,0,0,0h-15.55s-.22,0-.22,0l.22.45.16.34ZM286.04,29.08l1.04-2.16,1.04,2.16-1.04,2.16-1.04-2.16ZM287.3,31.69l1.04-2.16,1.04,2.16-1.04,2.16-1.04-2.16ZM289.59,26.93l1.04,2.16-1.04,2.16-1.04-2.16,1.04-2.16ZM292.11,26.93l1.04,2.16-1.04,2.16-1.04-2.16,1.04-2.16ZM294.62,26.93l1.04,2.16-1.04,2.16-1.04-2.16,1.04-2.16ZM294.41,31.69l-1.04,2.16-1.04-2.16,1.04-2.16,1.04,2.16ZM293.16,34.31l-1.04,2.16-1.04-2.16,1.04-2.16,1.04,2.16ZM291.9,31.69l-1.04,2.16-1.04-2.16,1.04-2.16,1.04,2.16ZM288.56,34.31l1.04-2.16,1.04,2.16-1.04,2.16-1.04-2.16ZM289.82,36.92l1.04-2.16,1.04,2.16-1.04,2.16-1.04-2.16ZM292.13,41.68l-1.04-2.16,1.04-2.16,1.04,2.16-1.04,2.16ZM293.38,39.07l-1.04-2.16,1.04-2.16,1.04,2.16-1.04,2.16ZM294.63,36.46l-1.04-2.16,1.04-2.16,1.04,2.16-1.04,2.16ZM295.89,33.85l-1.04-2.16,1.04-2.16,1.04,2.16-1.04,2.16ZM297.14,31.24l-1.04-2.16,1.04-2.16,1.04,2.16-1.04,2.16ZM299.29,26.78l-.89,1.85-.89-1.85h1.78ZM296.77,26.78l-.89,1.85-.89-1.85h1.78ZM294.26,26.78l-.89,1.85-.89-1.85h1.78ZM291.74,26.78l-.89,1.85-.89-1.85h1.78ZM289.23,26.78l-.89,1.85-.89-1.85h1.78ZM286.71,26.78l-.89,1.85-.89-1.85h1.78Z" fill="#ff671f"/>
          </g>
        </g>
        <g>
          <g>
            <path d="M208.96,162.25v-27.36l5.86-5.86h26.36l5.86,5.86v9.1h-8.6v-6.98h-20.89v23.12h20.89v-6.98h8.6v9.1l-5.86,5.86h-26.36l-5.86-5.86Z" fill="#fff"/>
            <path d="M250.04,162.25v-33.23h8.6v31.11h20.44v-31.11h8.6v33.23l-5.86,5.86h-25.91l-5.86-5.86Z" fill="#fff"/>
            <path d="M290.68,129.02h30.6l5.86,5.86v13.35l-5.86,5.86h-22v14.02h-8.6v-39.09ZM318.55,146.33v-9.55h-19.27v9.55h19.27Z" fill="#fff"/>
          </g>
          <path d="M354.19,124.11h7.48v48.92h-7.48v-48.92Z" fill="#fff"/>
          <g>
            <path d="M388.72,153.31l28.26-12.96v-3.91h-19.55v7.65h-8.6v-9.21l5.86-5.86h25.02l5.86,5.86v10.11l-28.26,12.96v2.74h19.83v-7.65h8.6v15.08h-37.03v-14.8Z" fill="#fff"/>
            <path d="M428.75,162.25v-7.71h8.6v6.2h18.43v-10h-21.56l-4.91-4.91v-16.81h34.34v7.37h-25.74v6.98h20.83l5.64,5.64v13.24l-5.86,5.86h-23.9l-5.86-5.86Z" fill="#fff"/>
            <path d="M467.38,147.39h23.96v7.26h-23.96v-7.26Z" fill="#fff"/>
            <path d="M494.34,153.31l28.26-12.96v-3.91h-19.55v7.65h-8.6v-9.21l5.86-5.86h25.02l5.86,5.86v10.11l-28.26,12.96v2.74h19.83v-7.65h8.6v15.08h-37.03v-14.8Z" fill="#fff"/>
            <path d="M534.36,162.25v-27.36l5.86-5.86h24.74l5.86,5.86v6.87h-8.6v-5.36h-19.27v8.32h22.45l5.64,5.64v11.89l-5.86,5.86h-24.96l-5.86-5.86ZM562.45,160.74v-8.66h-19.49v8.66h19.49Z" fill="#fff"/>
          </g>
        </g>
      </g>
      <g>
        <path d="M18.31,94.48c0,13.88,7.31,26.48,19,33.47.79-12.36,5.54-24.02,13.62-33.47-8.08-9.44-12.83-21.11-13.62-33.47-11.69,6.98-19,19.59-19,33.47Z" fill="none"/>
        <path d="M57.31,55.48c-.59,0-1.18.03-1.77.06-.03.6-.06,1.19-.06,1.77,0,9.37,3.32,18.26,9.38,25.32,3.84-2.33,7.93-4.19,12.21-5.56,1.37-4.29,3.23-8.37,5.56-12.21-7.07-6.06-15.95-9.38-25.32-9.38Z" fill="none"/>
        <path d="M94.48,18.31c-13.88,0-26.48,7.3-33.46,19,12.36.79,24.02,5.54,33.46,13.62,9.44-8.08,21.11-12.83,33.46-13.62-6.98-11.69-19.59-19-33.46-19Z" fill="none"/>
        <path d="M124.1,82.63c6.06-7.07,9.38-15.95,9.38-25.32,0-.59-.03-1.18-.06-1.77-.6-.03-1.19-.06-1.77-.06-9.37,0-18.25,3.32-25.32,9.38,2.33,3.84,4.19,7.93,5.56,12.21,4.29,1.37,8.37,3.23,12.21,5.56Z" fill="none"/>
        <path d="M146.12,146.12h0c-.98.28-1.98.52-2.98.74,1-.22,2-.47,2.98-.74Z" fill="none"/>
        <path d="M64.85,106.33c-6.06,7.07-9.38,15.95-9.38,25.32,0,.59.03,1.18.06,1.77.6.03,1.19.06,1.77.06,9.37,0,18.25-3.32,25.32-9.38-2.33-3.84-4.19-7.93-5.56-12.21-4.29-1.37-8.37-3.23-12.21-5.56Z" fill="none"/>
        <path d="M94.48,170.65c13.88,0,26.48-7.31,33.46-19-12.36-.79-24.02-5.54-33.46-13.62-9.44,8.08-21.11,12.83-33.46,13.62,6.98,11.69,19.59,19,33.46,19Z" fill="none"/>
        <path d="M133.42,133.42c.03-.6.06-1.19.06-1.77,0-9.37-3.32-18.26-9.38-25.32-3.84,2.33-7.93,4.19-12.21,5.56-1.37,4.29-3.23,8.37-5.56,12.21,7.07,6.06,15.95,9.38,25.32,9.38.59,0,1.18-.03,1.77-.06Z" fill="none"/>
        <path d="M170.65,94.48c0-13.88-7.31-26.48-19-33.47-.79,12.36-5.54,24.02-13.62,33.47,8.08,9.44,12.83,21.11,13.62,33.47,11.69-6.98,19-19.59,19-33.47Z" fill="none"/>
        <path d="M92.7,92.7c-.03.6-.06,1.19-.06,1.77s.03,1.18.06,1.77c.6.03,1.19.06,1.77.06s1.18-.03,1.77-.06c.03-.6.06-1.19.06-1.77s-.03-1.18-.06-1.77c-.6-.03-1.19-.06-1.77-.06s-1.18.03-1.77.06Z" fill="none"/>
        <path d="M74.5,98.2c-.26.16-.53.32-.79.48-1.16.73-2.28,1.52-3.35,2.37-1.02.8-1.99,1.65-2.92,2.55,2.68,1.57,5.51,2.92,8.46,4.01-.33-1.42-.63-2.84-.85-4.28-.22-1.4-.37-2.82-.48-4.23-.02-.3-.04-.6-.06-.9Z" fill="#3f8e2d"/>
        <path d="M58.83,86.84c.96-.77,1.93-1.5,2.93-2.2-6.2-7.41-9.94-16.94-9.94-27.34,0-.48.03-.95.05-1.42-1.24.17-2.47.41-3.68.7-1.24.3-2.47.65-3.68,1.07-.74.26-1.48.53-2.2.83-.49.2-.95.44-1.42.66.42,12.39,5.07,23.71,12.53,32.6.85-.88,1.74-1.72,2.65-2.54.9-.82,1.82-1.6,2.77-2.36Z" fill="#3f8e2d"/>
        <path d="M52.69,37.39c.75-.06,1.51-.13,2.26-.16.59-.02,1.26-.04,1.95-.05,7.2-13.39,21.33-22.53,37.57-22.53s30.37,9.14,37.57,22.53c.33.61.64,1.23.94,1.86.29.61.59,1.22.86,1.85.51,1.21.94,2.46,1.33,3.72.39,1.24.72,2.51,1,3.8.26,1.23.49,2.47.64,3.73.07.62.12,1.24.17,1.86.05.62.08,1.23.1,1.86.02.48.05.96.05,1.45,0,10.39-3.74,19.92-9.94,27.33-.39.47-.8.94-1.21,1.39-.42.46-.84.91-1.28,1.35-.89.89-1.83,1.73-2.8,2.54-.98.82-2,1.6-3.05,2.34-1.13.79-2.29,1.55-3.5,2.23-.25.14-.52.27-.77.41-.39.21-.79.43-1.19.63-.22.11-.45.22-.67.32-.47.23-.95.44-1.43.65-.14.06-.28.13-.42.19-1.21.51-2.46.94-3.72,1.33-1.24.39-2.51.72-3.8,1-1.23.26-2.47.49-3.73.64-.62.07-1.24.12-1.87.17-.61.05-1.23.08-1.86.1-.48.02-.96.05-1.45.05s-.95-.03-1.42-.05c.17,1.24.41,2.47.7,3.68.3,1.24.65,2.47,1.06,3.68,0,0,0,.02,0,.03.21.61.44,1.21.68,1.8.05.12.09.25.14.37.2.47.42.95.65,1.42.13,0,.25,0,.38,0,1.06-.04,2.11-.12,3.15-.22.32-.03.64-.09.96-.12,1.36-.16,2.71-.38,4.04-.64.38-.07.76-.13,1.14-.22,1-.22,2-.47,2.98-.75.7-.2,1.39-.41,2.08-.63.71-.23,1.41-.47,2.11-.73,0,0,0,0,0,0,2.93-1.09,5.74-2.43,8.4-4,.54-.32,1.08-.64,1.61-.98.53-.33,1.05-.67,1.56-1.02,1.02-.7,1.99-1.44,2.96-2.2.96-.76,1.89-1.55,2.79-2.37.9-.82,1.79-1.66,2.64-2.54.42-.44.83-.9,1.24-1.35.41-.46.81-.92,1.2-1.39,7.47-8.89,12.11-20.21,12.53-32.6.02-.61.05-1.22.05-1.84,0-.05,0-.11,0-.16,0-.68-.02-1.36-.05-2.04-.06-1.39-.19-2.76-.35-4.11-.33-2.79-.86-5.52-1.6-8.16-.2-.7-.41-1.39-.63-2.08-.23-.71-.48-1.41-.73-2.11-7.6-20.41-27.26-34.98-50.28-34.98s-42.74,14.62-50.31,35.07c2.8-.66,5.66-1.11,8.53-1.34Z" fill="#3f8e2d"/>
        <path d="M144.79,150.23c-2.8.66-5.66,1.11-8.53,1.34-.75.06-1.51.13-2.26.16-.59.02-1.26.04-1.95.05-7.2,13.39-21.33,22.53-37.57,22.53s-30.37-9.14-37.57-22.53c-.33-.61-.64-1.23-.94-1.86-.29-.61-.59-1.22-.86-1.85-.51-1.21-.94-2.46-1.33-3.72-.39-1.24-.72-2.51-1-3.8-.26-1.23-.49-2.47-.64-3.73-.07-.62-.12-1.24-.17-1.87-.05-.61-.08-1.23-.1-1.86-.02-.48-.05-.96-.05-1.45,0-10.39,3.74-19.92,9.94-27.33.39-.47.8-.94,1.21-1.39.42-.46.84-.91,1.28-1.35.89-.89,1.83-1.73,2.8-2.54.98-.82,2-1.6,3.05-2.34,1.13-.79,2.29-1.55,3.5-2.23.25-.14.52-.27.77-.41.39-.21.79-.43,1.19-.63.22-.11.45-.22.67-.32.47-.23.95-.44,1.43-.65.14-.06.28-.13.42-.19,1.21-.51,2.46-.94,3.72-1.33,1.24-.39,2.51-.72,3.8-1,1.23-.26,2.47-.49,3.73-.64.62-.07,1.24-.12,1.87-.17.61-.05,1.23-.08,1.86-.1.48-.02.96-.05,1.45-.05s.95.03,1.42.05c-.17-1.24-.41-2.47-.7-3.68-.3-1.24-.65-2.47-1.06-3.68,0,0,0-.02,0-.03-.21-.61-.44-1.21-.68-1.8-.05-.12-.09-.25-.14-.37-.2-.47-.42-.95-.65-1.42-.13,0-.25,0-.38,0-1.39.06-2.76.19-4.11.35-1.36.16-2.71.38-4.04.64-1.39.27-2.77.58-4.12.96-.7.2-1.39.41-2.08.63-.71.23-1.41.47-2.11.73-2.93,1.09-5.74,2.44-8.41,4-.54.32-1.08.64-1.61.98-.53.33-1.05.67-1.56,1.02-1.02.7-1.99,1.44-2.96,2.2-.96.76-1.89,1.55-2.79,2.37-.9.82-1.79,1.66-2.64,2.54-.42.44-.83.9-1.24,1.35-.41.46-.81.92-1.2,1.39-7.47,8.89-12.11,20.21-12.53,32.6-.02.61-.05,1.22-.05,1.84,0,.05,0,.11,0,.16,0,.68.02,1.36.05,2.04.06,1.39.19,2.76.35,4.11.33,2.79.86,5.52,1.6,8.16.2.7.41,1.39.63,2.08.23.71.48,1.41.73,2.11,7.6,20.41,27.26,34.98,50.28,34.98s42.74-14.62,50.31-35.07Z" fill="#ff671f"/>
        <path d="M148.08,129.81c-.42-12.39-5.07-23.71-12.53-32.6-.85.88-1.74,1.72-2.65,2.54-.9.82-1.82,1.6-2.77,2.36-.96.77-1.93,1.5-2.93,2.2,6.2,7.41,9.94,16.94,9.94,27.34,0,.48-.03.95-.05,1.42,1.24-.17,2.47-.41,3.68-.7,1.24-.3,2.47-.65,3.68-1.07.74-.26,1.48-.53,2.2-.83.49-.2.95-.44,1.42-.66Z" fill="#ff671f"/>
        <path d="M114.46,90.75c.26-.16.53-.32.79-.48,1.16-.73,2.28-1.52,3.35-2.37,1.02-.8,1.99-1.65,2.92-2.55-2.68-1.57-5.51-2.92-8.46-4.01.33,1.42.63,2.84.85,4.28.22,1.4.37,2.82.48,4.23.02.3.04.6.06.9Z" fill="#ff671f"/>
        <path d="M89.85,74.56c.3-.02.6-.04.9-.06-.16-.26-.32-.53-.48-.79-.73-1.16-1.52-2.28-2.37-3.35-.8-1.02-1.65-1.99-2.55-2.92-1.57,2.68-2.92,5.51-4.01,8.47,1.42-.33,2.84-.63,4.28-.85,1.4-.22,2.82-.37,4.23-.48Z" fill="#658dc6"/>
        <path d="M150.23,44.17c.66,2.8,1.11,5.66,1.34,8.53.06.75.13,1.51.16,2.26.02.58.04,1.26.05,1.95,13.39,7.2,22.53,21.33,22.53,37.58s-9.14,30.37-22.53,37.58c-.61.33-1.23.64-1.86.94-.61.29-1.22.59-1.85.86-1.21.51-2.46.94-3.72,1.33-1.24.39-2.51.72-3.8,1-1.23.26-2.47.49-3.73.64-.62.07-1.24.12-1.87.17-.61.05-1.23.08-1.86.1-.48.02-.96.05-1.45.05-10.39,0-19.92-3.74-27.32-9.94-.47-.39-.94-.8-1.39-1.21-.46-.42-.91-.84-1.35-1.28-.89-.89-1.73-1.83-2.54-2.8-.82-.98-1.6-2-2.34-3.05-.79-1.13-1.55-2.29-2.23-3.5-.14-.25-.27-.52-.41-.77-.21-.39-.43-.79-.63-1.19-.11-.22-.22-.45-.32-.67-.23-.47-.44-.95-.65-1.43-.06-.14-.13-.28-.19-.42-.51-1.21-.94-2.46-1.33-3.72-.39-1.24-.72-2.51-1-3.8-.26-1.23-.49-2.47-.64-3.73-.07-.62-.12-1.24-.17-1.87-.05-.61-.08-1.23-.1-1.86-.02-.48-.05-.96-.05-1.45s.03-.95.05-1.42c-1.24.17-2.47.41-3.68.7-1.24.3-2.47.65-3.68,1.06,0,0-.02,0-.03,0-.61.21-1.21.44-1.8.68-.12.05-.25.09-.37.14-.47.2-.95.42-1.42.65,0,.13,0,.25,0,.38.06,1.39.19,2.76.35,4.11.16,1.36.38,2.71.64,4.04.27,1.39.58,2.77.96,4.12.2.7.41,1.39.63,2.08.23.71.47,1.41.73,2.11,1.09,2.93,2.44,5.74,4,8.41.32.54.64,1.08.98,1.61.33.53.67,1.05,1.02,1.56.52.76,1.06,1.5,1.62,2.23.19.25.39.48.58.72.76.96,1.55,1.89,2.37,2.79.82.9,1.66,1.79,2.54,2.64.44.42.9.83,1.35,1.24.46.41.92.81,1.39,1.2,8.89,7.47,20.21,12.11,32.6,12.53.61.02,1.22.05,1.84.05.05,0,.11,0,.16,0,.68,0,1.36-.02,2.04-.05,1.39-.06,2.76-.19,4.11-.35.72-.08,1.43-.16,2.14-.28,1.02-.16,2.04-.36,3.04-.58,1-.22,2-.47,2.98-.74.7-.2,1.39-.41,2.08-.63.71-.23,1.41-.48,2.11-.73,20.41-7.6,34.99-27.26,34.99-50.28s-14.62-42.74-35.07-50.31Z" fill="#658dc6"/>
        <path d="M149.06,39.9C141.52,16.31,119.37,0,94.48,0s-47.04,16.31-54.58,39.9C16.31,47.44,0,69.59,0,94.48s16.31,47.04,39.9,54.58c7.54,23.59,29.69,39.9,54.58,39.9s47.04-16.31,54.58-39.9c23.59-7.54,39.9-29.69,39.9-54.58s-16.31-47.04-39.9-54.58ZM150.31,144.76c-.7.26-1.4.5-2.11.73-.69.22-1.38.43-2.08.63h0c-.98.28-1.98.52-2.98.74-1,.22-2.02.41-3.04.58-.71.11-1.42.19-2.14.28-1.36.16-2.73.29-4.11.35-.68.03-1.36.05-2.04.05-.05,0-.11,0-.16,0-.62,0-1.22-.02-1.84-.05-12.39-.42-23.71-5.06-32.6-12.53-.47-.39-.93-.79-1.39-1.2-.45-.41-.91-.82-1.35-1.24-.88-.85-1.72-1.73-2.54-2.64-.82-.9-1.61-1.83-2.37-2.79-.19-.24-.4-.48-.58-.72-.56-.73-1.1-1.47-1.62-2.23-.35-.51-.69-1.04-1.02-1.56-.34-.53-.66-1.07-.98-1.61-1.56-2.67-2.91-5.48-4-8.41-.26-.7-.5-1.4-.73-2.11-.22-.69-.43-1.38-.63-2.08-.38-1.35-.69-2.73-.96-4.12-.26-1.33-.48-2.68-.64-4.04-.16-1.36-.29-2.73-.35-4.11,0-.13,0-.25,0-.38.47-.22.95-.45,1.42-.65.12-.05.25-.09.37-.14.6-.24,1.2-.47,1.8-.68,0,0,.02,0,.03,0,1.2-.42,2.43-.77,3.68-1.06,1.21-.29,2.44-.53,3.68-.7-.02.47-.05.94-.05,1.42s.03.96.05,1.45c.02.62.05,1.24.1,1.86.05.62.1,1.25.17,1.87.15,1.26.38,2.51.64,3.73.27,1.29.61,2.56,1,3.8.39,1.26.82,2.51,1.33,3.72.06.14.13.28.19.42.21.48.43.96.65,1.43.11.22.21.45.32.67.2.4.42.79.63,1.19.14.26.26.52.41.77.68,1.21,1.44,2.36,2.23,3.5.73,1.05,1.51,2.07,2.34,3.05.81.96,1.65,1.91,2.54,2.8.44.44.89.86,1.35,1.28.45.41.92.82,1.39,1.21,7.41,6.2,16.94,9.94,27.32,9.94.49,0,.96-.03,1.45-.05.62-.02,1.24-.05,1.86-.1.62-.05,1.25-.1,1.87-.17,1.26-.15,2.51-.38,3.73-.64,1.29-.27,2.56-.61,3.8-1,1.26-.39,2.51-.82,3.72-1.33.63-.26,1.24-.56,1.85-.86.63-.3,1.25-.61,1.86-.94,13.39-7.2,22.53-21.33,22.53-37.58s-9.14-30.37-22.53-37.58c0-.69-.03-1.36-.05-1.95-.03-.76-.1-1.51-.16-2.26-.23-2.87-.68-5.72-1.34-8.53,20.45,7.57,35.07,27.26,35.07,50.31s-14.58,42.69-34.99,50.28ZM44.2,150.31c-.26-.7-.5-1.4-.73-2.11-.22-.69-.43-1.38-.63-2.08-.74-2.64-1.27-5.37-1.6-8.16-.16-1.36-.29-2.73-.35-4.11-.03-.68-.05-1.36-.05-2.04,0-.05,0-.11,0-.16,0-.62.02-1.22.05-1.84.42-12.39,5.06-23.71,12.53-32.6.39-.47.79-.93,1.2-1.39.41-.45.82-.91,1.24-1.35.85-.88,1.73-1.72,2.64-2.54.9-.82,1.83-1.61,2.79-2.37.96-.76,1.94-1.5,2.96-2.2.51-.35,1.04-.69,1.56-1.02.53-.34,1.07-.66,1.61-.98,2.67-1.56,5.48-2.91,8.41-4,.7-.26,1.4-.5,2.11-.73.69-.22,1.38-.43,2.08-.63,1.35-.38,2.73-.69,4.12-.96,1.33-.26,2.68-.48,4.04-.64,1.36-.16,2.73-.29,4.11-.35.13,0,.25,0,.38,0,.22.47.45.95.65,1.42.05.12.09.25.14.37.24.6.47,1.2.68,1.8,0,0,0,.02,0,.03.42,1.2.77,2.43,1.06,3.68.29,1.21.53,2.44.7,3.68-.47-.02-.94-.05-1.42-.05s-.96.03-1.45.05c-.62.02-1.24.05-1.86.1-.62.05-1.25.1-1.87.17-1.26.15-2.51.38-3.73.64-1.29.27-2.56.61-3.8,1-1.26.39-2.51.82-3.72,1.33-.14.06-.28.13-.42.19-.48.21-.96.43-1.43.65-.22.11-.45.21-.67.32-.4.2-.79.42-1.19.63-.26.14-.52.26-.77.41-1.21.68-2.36,1.44-3.5,2.23-1.05.73-2.07,1.51-3.05,2.34-.96.81-1.91,1.65-2.8,2.54-.44.44-.86.89-1.28,1.35-.41.45-.82.92-1.21,1.39-6.2,7.41-9.94,16.94-9.94,27.33,0,.49.03.96.05,1.45.02.62.05,1.24.1,1.86.05.62.1,1.25.17,1.87.15,1.26.38,2.51.64,3.73.27,1.29.61,2.56,1,3.8.39,1.26.82,2.51,1.33,3.72.26.63.56,1.24.86,1.85.3.63.61,1.25.94,1.86,7.2,13.39,21.33,22.53,37.57,22.53s30.37-9.14,37.57-22.53c.69,0,1.36-.03,1.95-.05.76-.03,1.51-.1,2.26-.16,2.87-.23,5.72-.68,8.53-1.34-7.57,20.45-27.26,35.07-50.31,35.07s-42.69-14.58-50.28-34.98ZM3.66,94.48c0-23.02,14.58-42.69,34.99-50.28.7-.26,1.4-.5,2.11-.73.69-.22,1.38-.43,2.08-.63,2.64-.74,5.37-1.27,8.16-1.6,1.36-.16,2.73-.29,4.11-.35.68-.03,1.36-.05,2.04-.05.05,0,.11,0,.16,0,.62,0,1.22.02,1.84.05,12.39.42,23.71,5.06,32.6,12.53.47.39.93.79,1.39,1.2.45.41.91.82,1.35,1.24.88.85,1.72,1.73,2.54,2.64.82.9,1.61,1.83,2.37,2.79.76.96,1.5,1.94,2.2,2.96.35.51.69,1.04,1.02,1.56.34.53.66,1.07.98,1.61,1.56,2.67,2.91,5.48,4,8.41.26.7.5,1.4.73,2.11.22.69.43,1.38.63,2.08.38,1.35.69,2.73.96,4.12.26,1.33.48,2.68.64,4.04.16,1.36.29,2.73.35,4.11,0,.13,0,.25,0,.38-.47.22-.95.45-1.42.65-.12.05-.25.09-.37.14-.6.24-1.2.47-1.8.68,0,0-.02,0-.03,0-1.2.42-2.43.77-3.68,1.06-1.21.29-2.44.53-3.68.7.02-.47.05-.94.05-1.42s-.03-.96-.05-1.45c-.02-.62-.05-1.24-.1-1.86-.05-.62-.1-1.25-.17-1.87-.15-1.26-.38-2.51-.64-3.73-.15-.68-.29-1.37-.47-2.04-.16-.59-.35-1.17-.53-1.76-.11-.34-.19-.69-.31-1.02-.31-.91-.65-1.81-1.02-2.7-.06-.14-.13-.28-.19-.42-.21-.48-.43-.96-.65-1.43-.11-.22-.21-.45-.32-.67-.2-.4-.42-.79-.63-1.19-.14-.26-.26-.52-.41-.77-.68-1.21-1.44-2.36-2.23-3.5-.73-1.05-1.51-2.07-2.34-3.05-.81-.96-1.65-1.91-2.54-2.8-.44-.44-.89-.86-1.35-1.28-.45-.41-.92-.82-1.39-1.21-7.41-6.2-16.94-9.94-27.32-9.94-.49,0-.96.03-1.45.05-.62.02-1.24.05-1.86.1-.62.05-1.25.1-1.87.17-1.26.15-2.51.38-3.73.64-1.29.27-2.56.61-3.8,1-1.26.39-2.51.82-3.72,1.33-.63.26-1.24.56-1.85.86-.63.3-1.25.61-1.86.94-13.39,7.2-22.53,21.33-22.53,37.58s9.14,30.37,22.53,37.58c0,.69.03,1.36.05,1.95.03.76.1,1.51.16,2.26.23,2.87.68,5.72,1.34,8.53-20.45-7.57-35.07-27.26-35.07-50.31ZM94.48,3.66c23.02,0,42.69,14.58,50.28,34.98.26.7.5,1.4.73,2.11.22.69.43,1.38.63,2.08.74,2.64,1.27,5.37,1.6,8.16.16,1.36.29,2.73.35,4.11.03.68.05,1.36.05,2.04,0,.05,0,.11,0,.16,0,.62-.02,1.22-.05,1.84-.42,12.39-5.06,23.71-12.53,32.6-.39.47-.79.93-1.2,1.39-.41.45-.82.91-1.24,1.35-.85.88-1.73,1.72-2.64,2.54-.9.82-1.83,1.61-2.79,2.37-.96.76-1.94,1.5-2.96,2.2-.51.35-1.04.69-1.56,1.02-.53.34-1.07.66-1.61.98-2.66,1.56-5.47,2.91-8.4,4,0,0,0,0,0,0-.7.26-1.4.5-2.11.73-.69.22-1.38.43-2.08.63-.98.28-1.98.52-2.98.75-.37.08-.76.14-1.14.22-1.33.26-2.68.48-4.04.64-.32.04-.64.09-.96.12-1.04.1-2.09.18-3.15.22-.13,0-.25,0-.38,0-.22-.47-.45-.95-.65-1.42-.05-.12-.09-.25-.14-.37-.24-.6-.47-1.2-.68-1.8,0,0,0-.02,0-.03-.42-1.2-.77-2.43-1.06-3.68-.29-1.21-.53-2.44-.7-3.68.47.02.94.05,1.42.05s.96-.03,1.45-.05c.62-.02,1.24-.05,1.86-.1.62-.05,1.25-.1,1.87-.17,1.26-.15,2.51-.38,3.73-.64,1.29-.27,2.56-.61,3.8-1,1.26-.39,2.51-.82,3.72-1.33.14-.06.28-.13.42-.19.48-.21.96-.43,1.43-.65.22-.11.45-.21.67-.32.4-.2.79-.42,1.19-.63.26-.14.52-.26.77-.41,1.21-.68,2.36-1.44,3.5-2.23,1.05-.73,2.07-1.51,3.05-2.34.96-.81,1.91-1.65,2.8-2.54.44-.44.86-.89,1.28-1.35.41-.45.82-.92,1.21-1.39,6.2-7.41,9.94-16.94,9.94-27.33,0-.49-.03-.96-.05-1.45-.02-.62-.05-1.24-.1-1.86-.05-.62-.1-1.25-.17-1.86-.15-1.26-.38-2.51-.64-3.73-.27-1.29-.61-2.56-1-3.8-.39-1.26-.82-2.51-1.33-3.72-.26-.63-.56-1.24-.86-1.85-.3-.63-.61-1.25-.94-1.86-7.2-13.39-21.33-22.53-37.57-22.53s-30.37,9.14-37.57,22.53c-.69,0-1.36.03-1.95.05-.76.03-1.51.1-2.26.16-2.87.23-5.72.68-8.53,1.34C51.74,18.28,71.43,3.66,94.48,3.66ZM75.9,107.62c-2.95-1.09-5.78-2.44-8.46-4.01.93-.9,1.9-1.75,2.92-2.55,1.07-.85,2.19-1.64,3.35-2.37.26-.16.52-.32.79-.48.02.3.04.6.06.9.11,1.42.26,2.83.48,4.23.22,1.44.52,2.86.85,4.28ZM94.48,138.03c9.44,8.08,21.11,12.83,33.46,13.62-6.98,11.69-19.59,19-33.46,19s-26.48-7.31-33.46-19c12.36-.79,24.02-5.54,33.46-13.62ZM59.14,148.08c-.22-.47-.46-.94-.66-1.42-.3-.72-.57-1.46-.83-2.2-.42-1.2-.77-2.43-1.07-3.68-.29-1.21-.53-2.44-.7-3.68.47.02.94.05,1.42.05,10.39,0,19.93-3.74,27.33-9.94.7,1,1.44,1.98,2.2,2.93.76.95,1.54,1.87,2.36,2.77.82.9,1.66,1.79,2.54,2.65-8.89,7.47-20.21,12.11-32.6,12.53ZM57.31,133.48c-.59,0-1.18-.03-1.77-.06-.03-.6-.06-1.19-.06-1.77,0-9.37,3.32-18.26,9.38-25.32,3.84,2.33,7.93,4.19,12.21,5.56,1.37,4.29,3.23,8.37,5.56,12.21-7.07,6.06-15.95,9.38-25.32,9.38ZM64.85,82.63c-6.06-7.07-9.38-15.95-9.38-25.32,0-.59.03-1.18.06-1.77.6-.03,1.19-.06,1.77-.06,9.37,0,18.25,3.32,25.32,9.38-2.33,3.84-4.19,7.93-5.56,12.21-4.29,1.37-8.37,3.23-12.21,5.56ZM50.92,94.48c-8.08,9.44-12.83,21.11-13.62,33.47-11.69-6.98-19-19.59-19-33.47s7.31-26.48,19-33.47c.79,12.36,5.54,24.02,13.62,33.47ZM40.88,59.14c.47-.22.94-.46,1.42-.66.72-.3,1.46-.57,2.2-.83,1.2-.42,2.43-.77,3.68-1.07,1.21-.29,2.44-.53,3.68-.7-.02.47-.05.94-.05,1.42,0,10.39,3.74,19.93,9.94,27.34-1,.7-1.98,1.44-2.93,2.2-.95.76-1.87,1.54-2.77,2.36-.9.82-1.79,1.66-2.65,2.54-7.47-8.89-12.11-20.21-12.53-32.6ZM85.35,67.43c.9.93,1.75,1.9,2.55,2.92.85,1.07,1.64,2.19,2.37,3.35.16.26.32.52.48.79-.3.02-.6.04-.9.06-1.42.11-2.83.26-4.23.48-1.44.23-2.86.52-4.28.85,1.09-2.95,2.44-5.78,4.01-8.47ZM113.06,81.34c2.95,1.09,5.78,2.44,8.46,4.01-.93.9-1.9,1.75-2.92,2.55-1.07.85-2.19,1.64-3.35,2.37-.26.16-.52.32-.79.48-.02-.3-.04-.6-.06-.9-.11-1.42-.26-2.83-.48-4.23-.22-1.44-.52-2.86-.85-4.28ZM94.48,50.92c-9.44-8.08-21.11-12.83-33.46-13.62,6.98-11.69,19.59-19,33.46-19s26.48,7.3,33.46,19c-12.36.79-24.02,5.54-33.46,13.62ZM129.81,40.88c.22.47.46.94.66,1.42.3.72.57,1.46.83,2.2.42,1.2.77,2.43,1.07,3.68.29,1.21.53,2.44.7,3.68-.47-.02-.94-.05-1.42-.05-10.39,0-19.93,3.74-27.33,9.94-.7-1-1.44-1.98-2.2-2.93-.76-.95-1.54-1.87-2.36-2.77-.82-.9-1.66-1.79-2.54-2.65,8.89-7.47,20.21-12.11,32.6-12.53ZM131.65,55.48c.59,0,1.18.03,1.77.06.03.6.06,1.19.06,1.77,0,9.37-3.32,18.26-9.38,25.32-3.84-2.33-7.93-4.19-12.21-5.56-1.37-4.29-3.23-8.37-5.56-12.21,7.07-6.06,15.95-9.38,25.32-9.38ZM96.31,94.48c0,.59-.03,1.18-.06,1.77-.6.03-1.19.06-1.77.06s-1.18-.03-1.77-.06c-.03-.6-.06-1.19-.06-1.77s.03-1.18.06-1.77c.6-.03,1.19-.06,1.77-.06s1.18.03,1.77.06c.03.6.06,1.19.06,1.77ZM144.45,131.31c-1.2.42-2.43.77-3.68,1.07-1.21.29-2.44.53-3.68.7.02-.47.05-.94.05-1.42,0-10.39-3.74-19.93-9.94-27.34,1-.7,1.98-1.44,2.93-2.2.95-.76,1.87-1.54,2.77-2.36.9-.82,1.79-1.66,2.65-2.54,7.47,8.89,12.11,20.21,12.53,32.6-.47.22-.94.46-1.42.66-.72.3-1.46.57-2.2.83ZM98.2,114.46c.3-.02.6-.04.9-.06,1.42-.11,2.83-.26,4.23-.48,1.44-.23,2.86-.52,4.28-.85-1.09,2.95-2.44,5.78-4.01,8.47-.9-.93-1.75-1.9-2.55-2.92-.85-1.07-1.64-2.19-2.37-3.35-.16-.26-.32-.52-.48-.79ZM111.89,111.89c4.29-1.37,8.37-3.23,12.21-5.56,6.06,7.07,9.38,15.95,9.38,25.32,0,.59-.03,1.18-.06,1.77-.6.03-1.19.06-1.77.06-9.37,0-18.25-3.32-25.32-9.38,2.33-3.84,4.19-7.93,5.56-12.21ZM138.03,94.48c8.08-9.44,12.83-21.11,13.62-33.47,11.69,6.98,19,19.59,19,33.47s-7.31,26.48-19,33.47c-.79-12.36-5.54-24.02-13.62-33.47Z" fill="#fff"/>
        <path d="M102.11,58.83c.77.96,1.5,1.93,2.2,2.93,7.41-6.2,16.94-9.94,27.33-9.94.48,0,.95.03,1.42.05-.17-1.24-.41-2.47-.7-3.68-.3-1.24-.65-2.47-1.07-3.68-.26-.74-.53-1.48-.83-2.2-.2-.49-.44-.95-.66-1.42-12.39.42-23.71,5.07-32.6,12.53.88.85,1.72,1.74,2.54,2.65.82.9,1.6,1.82,2.36,2.77Z" fill="#658dc6"/>
        <path d="M86.84,130.13c-.77-.96-1.5-1.93-2.2-2.93-7.41,6.2-16.94,9.94-27.33,9.94-.48,0-.95-.03-1.42-.05.17,1.24.41,2.47.7,3.68.3,1.24.65,2.47,1.07,3.68.26.74.53,1.48.83,2.2.2.49.44.95.66,1.42,12.39-.42,23.71-5.07,32.6-12.53-.88-.85-1.72-1.74-2.54-2.65-.82-.9-1.6-1.82-2.36-2.77Z" fill="#ba0c2f"/>
        <path d="M103.61,121.52c1.57-2.68,2.92-5.51,4.01-8.47-1.42.33-2.84.63-4.28.85-1.4.22-2.82.37-4.23.48-.3.02-.6.04-.9.06.16.26.32.53.48.79.73,1.16,1.52,2.28,2.37,3.35.8,1.02,1.65,1.99,2.55,2.92Z" fill="#ba0c2f"/>
        <path d="M100.79,110.55c1.36-.16,2.71-.38,4.04-.64.38-.07.76-.13,1.14-.22-.37.08-.76.14-1.14.22-1.33.26-2.68.48-4.04.64Z" fill="#ba0c2f"/>
        <path d="M37.23,134c-.02-.59-.04-1.26-.05-1.95-13.39-7.2-22.53-21.33-22.53-37.58s9.14-30.37,22.53-37.58c.61-.33,1.23-.64,1.86-.94.61-.29,1.22-.59,1.85-.86,1.21-.51,2.46-.94,3.72-1.33,1.24-.39,2.51-.72,3.8-1,1.23-.26,2.47-.49,3.73-.64.62-.07,1.24-.12,1.87-.17.61-.05,1.23-.08,1.86-.1.48-.02.96-.05,1.45-.05,10.39,0,19.92,3.74,27.32,9.94.47.39.94.8,1.39,1.21.46.42.91.84,1.35,1.28.89.89,1.73,1.83,2.54,2.8.82.98,1.6,2,2.34,3.05.79,1.13,1.55,2.29,2.23,3.5.14.25.27.52.41.77.21.39.43.79.63,1.19.11.22.22.45.32.67.23.47.44.95.65,1.43.06.14.13.28.19.42.37.88.71,1.78,1.02,2.7.11.34.2.68.31,1.02.18.58.37,1.16.53,1.76.18.67.32,1.36.47,2.04.26,1.23.49,2.47.64,3.73.07.62.12,1.24.17,1.87.05.61.08,1.23.1,1.86.02.48.05.96.05,1.45s-.03.95-.05,1.42c1.24-.17,2.47-.41,3.68-.7,1.24-.3,2.47-.65,3.68-1.06,0,0,.02,0,.03,0,.61-.21,1.21-.44,1.8-.68.12-.05.25-.09.37-.14.47-.2.95-.42,1.42-.65,0-.13,0-.25,0-.38-.06-1.39-.19-2.76-.35-4.11-.16-1.36-.38-2.71-.64-4.04-.27-1.39-.58-2.77-.96-4.12-.2-.7-.41-1.39-.63-2.08-.23-.71-.47-1.41-.73-2.11-1.09-2.93-2.44-5.74-4-8.41-.32-.54-.64-1.08-.98-1.61-.33-.53-.67-1.05-1.02-1.56-.7-1.02-1.44-1.99-2.2-2.96-.76-.96-1.55-1.89-2.37-2.79-.82-.9-1.66-1.79-2.54-2.64-.44-.42-.9-.83-1.35-1.24-.46-.41-.92-.81-1.39-1.2-8.89-7.47-20.21-12.11-32.6-12.53-.61-.02-1.22-.05-1.84-.05-.05,0-.11,0-.16,0-.68,0-1.36.02-2.04.05-1.39.06-2.76.19-4.11.35-2.79.33-5.52.86-8.16,1.6-.7.2-1.39.41-2.08.63-.71.23-1.41.48-2.11.73C18.24,51.79,3.66,71.46,3.66,94.48s14.62,42.74,35.07,50.31c-.66-2.8-1.11-5.66-1.34-8.53-.06-.75-.13-1.51-.16-2.26Z" fill="#ba0c2f"/>
      </g>
    </g>
  </g>
</svg>