<?xml version="1.0" encoding="UTF-8"?>
<svg id="Layer_2" data-name="Layer 2" xmlns="http://www.w3.org/2000/svg" viewBox="0 0 187.72 288.88">
  <g id="Layer_1-2" data-name="Layer 1">
    <g>
      <g>
        <path d="M123.29,82.09c6.02-7.02,9.32-15.84,9.32-25.16,0-.58-.03-1.17-.06-1.76-.59-.03-1.18-.06-1.76-.06-9.31,0-18.14,3.29-25.15,9.32,2.31,3.81,4.17,7.88,5.52,12.13,4.26,1.36,8.32,3.21,12.13,5.52Z" fill="none"/>
        <path d="M93.86,18.19c-13.79,0-26.31,7.26-33.25,18.87,12.28.79,23.86,5.5,33.25,13.53,9.38-8.03,20.97-12.74,33.25-13.53-6.94-11.62-19.46-18.87-33.25-18.87Z" fill="none"/>
        <path d="M92.1,92.1c-.03.59-.06,1.18-.06,1.76s.03,1.17.06,1.76c.59.03,1.18.06,1.76.06s1.17-.03,1.76-.06c.03-.59.06-1.18.06-1.76s-.03-1.17-.06-1.76c-.59-.03-1.18-.06-1.76-.06s-1.17.03-1.76.06Z" fill="none"/>
        <path d="M18.19,93.86c0,13.79,7.26,26.31,18.87,33.25.79-12.28,5.5-23.86,13.53-33.25-8.03-9.38-12.74-20.97-13.53-33.25-11.62,6.94-18.87,19.46-18.87,33.25Z" fill="none"/>
        <path d="M64.43,105.63c-6.02,7.02-9.32,15.84-9.32,25.16,0,.58.03,1.17.06,1.76.59.03,1.18.06,1.76.06,9.31,0,18.14-3.29,25.15-9.32-2.31-3.81-4.16-7.88-5.52-12.13-4.26-1.36-8.32-3.21-12.13-5.52Z" fill="none"/>
        <path d="M93.86,169.54c13.79,0,26.31-7.26,33.25-18.87-12.27-.79-23.86-5.5-33.25-13.53-9.38,8.03-20.97,12.74-33.25,13.53,6.94,11.62,19.46,18.87,33.25,18.87Z" fill="none"/>
        <path d="M55.17,55.17c-.03.59-.06,1.18-.06,1.76,0,9.31,3.29,18.14,9.32,25.16,3.81-2.31,7.88-4.16,12.13-5.52,1.36-4.26,3.21-8.32,5.52-12.13-7.02-6.02-15.84-9.32-25.15-9.32-.58,0-1.17.03-1.76.06Z" fill="none"/>
        <path d="M150.66,127.11c11.62-6.94,18.87-19.46,18.87-33.25s-7.26-26.31-18.87-33.25c-.79,12.28-5.5,23.86-13.53,33.25,8.03,9.38,12.74,20.97,13.53,33.25Z" fill="none"/>
        <path d="M111.16,111.16c-1.36,4.26-3.21,8.32-5.52,12.13,7.02,6.02,15.84,9.32,25.15,9.32.58,0,1.17-.03,1.76-.06.03-.59.06-1.18.06-1.76,0-9.31-3.29-18.14-9.32-25.16-3.81,2.31-7.87,4.16-12.13,5.52Z" fill="none"/>
        <path d="M145.17,145.17h0c-.98.27-1.96.52-2.96.74,1-.22,1.98-.47,2.96-.74Z" fill="none"/>
        <path d="M74.07,98.46c-.02-.3-.04-.6-.06-.9-.26.16-.52.31-.78.48-1.15.73-2.27,1.51-3.33,2.36-1.01.8-1.98,1.64-2.9,2.53,2.67,1.56,5.48,2.9,8.41,3.99-.33-1.41-.63-2.82-.85-4.25-.22-1.4-.37-2.8-.48-4.21Z" fill="#3f8e2d"/>
        <path d="M47.86,56.22c-1.24.3-2.46.64-3.65,1.06-.74.26-1.47.53-2.19.83-.48.2-.94.44-1.41.65.42,12.31,5.03,23.56,12.45,32.39.85-.87,1.73-1.71,2.63-2.53.89-.81,1.81-1.59,2.75-2.34.95-.76,1.92-1.49,2.91-2.19-6.16-7.36-9.88-16.83-9.88-27.16,0-.47.03-.94.05-1.41-1.24.17-2.46.41-3.66.7Z" fill="#3f8e2d"/>
        <path d="M54.6,36.99c.58-.02,1.25-.04,1.93-.05,7.16-13.3,21.19-22.38,37.33-22.38s30.17,9.08,37.33,22.38c.33.61.64,1.22.93,1.85.29.61.59,1.22.85,1.84.5,1.2.93,2.44,1.32,3.69.38,1.24.72,2.49.99,3.77.26,1.22.49,2.45.64,3.71.07.61.12,1.23.17,1.85.05.61.08,1.23.1,1.84.02.48.05.95.05,1.44,0,10.32-3.72,19.79-9.87,27.15-.39.47-.79.93-1.2,1.38-.41.45-.83.9-1.27,1.34-.88.89-1.82,1.72-2.78,2.53-.97.82-1.98,1.59-3.03,2.32-1.12.79-2.27,1.54-3.47,2.22-.25.14-.51.27-.77.4-.39.21-.78.42-1.18.62-.22.11-.44.21-.67.32-.47.22-.94.44-1.42.65-.14.06-.28.13-.42.19-1.2.5-2.44.93-3.69,1.32-1.24.39-2.49.72-3.77.99-1.22.26-2.45.49-3.71.64-.61.07-1.23.12-1.85.17-.61.05-1.23.08-1.84.1-.48.02-.95.05-1.44.05s-.94-.03-1.41-.05c.17,1.24.41,2.46.7,3.66.3,1.24.64,2.46,1.06,3.65,0,0,0,.02,0,.02.21.6.44,1.2.68,1.79.05.12.09.25.14.37.2.47.42.94.64,1.41.12,0,.25,0,.38,0,1.05-.04,2.1-.12,3.13-.22.32-.03.64-.09.96-.12,1.36-.16,2.7-.37,4.02-.63.38-.07.76-.13,1.13-.21,1-.22,1.98-.47,2.96-.74.69-.19,1.38-.4,2.07-.63.7-.23,1.4-.47,2.09-.73,0,0,0,0,0,0,2.91-1.08,5.7-2.42,8.34-3.97.54-.32,1.07-.64,1.6-.97.52-.33,1.04-.67,1.55-1.02,1.01-.69,1.98-1.43,2.94-2.19.95-.75,1.88-1.54,2.77-2.35.9-.82,1.78-1.65,2.62-2.52.42-.44.83-.89,1.23-1.34.41-.45.8-.91,1.2-1.38,7.42-8.83,12.03-20.08,12.45-32.38.02-.61.05-1.21.05-1.82,0-.05,0-.11,0-.16,0-.68-.02-1.35-.05-2.03-.06-1.38-.18-2.74-.34-4.09-.33-2.77-.85-5.48-1.59-8.11-.19-.69-.4-1.38-.63-2.06-.23-.7-.47-1.4-.73-2.09-7.55-20.27-27.08-34.76-49.95-34.76s-42.46,14.52-49.98,34.84c2.79-.66,5.62-1.1,8.47-1.33.75-.06,1.5-.13,2.25-.16Z" fill="#3f8e2d"/>
        <path d="M133.12,150.74c-.58.02-1.25.04-1.93.05-7.16,13.31-21.19,22.38-37.33,22.38s-30.17-9.08-37.33-22.38c-.33-.61-.64-1.22-.93-1.85-.29-.61-.59-1.21-.85-1.84-.5-1.2-.93-2.44-1.32-3.69-.38-1.24-.72-2.49-.99-3.77-.26-1.22-.49-2.45-.64-3.71-.07-.61-.12-1.23-.17-1.85-.05-.61-.08-1.23-.1-1.84-.02-.48-.05-.95-.05-1.44,0-10.32,3.72-19.79,9.87-27.15.39-.47.79-.93,1.2-1.38.41-.45.83-.9,1.27-1.34.88-.89,1.82-1.72,2.78-2.53.97-.82,1.98-1.59,3.03-2.32,1.12-.79,2.27-1.54,3.47-2.22.25-.14.51-.27.77-.4.39-.21.78-.42,1.18-.62.22-.11.44-.21.67-.32.47-.22.94-.44,1.42-.65.14-.06.28-.13.42-.19,1.2-.5,2.44-.93,3.69-1.32,1.24-.39,2.49-.72,3.77-.99,1.22-.26,2.45-.49,3.71-.64.61-.07,1.23-.12,1.85-.17.61-.05,1.23-.08,1.84-.1.48-.02.95-.05,1.44-.05s.94.03,1.41.05c-.17-1.24-.41-2.46-.7-3.66-.3-1.24-.64-2.46-1.06-3.65,0,0,0-.02,0-.02-.21-.6-.44-1.2-.68-1.79-.05-.12-.09-.25-.14-.37-.2-.47-.42-.94-.64-1.41-.12,0-.25,0-.38,0-1.38.06-2.74.18-4.09.34-1.36.16-2.7.37-4.02.63-1.38.27-2.75.58-4.09.95-.69.19-1.38.4-2.06.63-.7.23-1.4.47-2.09.73-2.91,1.08-5.71,2.42-8.35,3.97-.54.32-1.07.64-1.6.97-.52.33-1.04.67-1.55,1.02-1.01.69-1.98,1.43-2.94,2.19-.95.75-1.88,1.54-2.77,2.35-.9.82-1.78,1.65-2.62,2.52-.42.44-.83.89-1.23,1.34-.41.45-.8.91-1.2,1.38-7.42,8.83-12.03,20.08-12.45,32.38-.02.61-.05,1.21-.05,1.82,0,.05,0,.11,0,.16,0,.68.02,1.35.05,2.03.06,1.38.18,2.74.34,4.09.33,2.77.85,5.48,1.59,8.11.19.69.4,1.38.63,2.07.23.7.47,1.4.73,2.09,7.55,20.27,27.08,34.76,49.95,34.76s42.46-14.52,49.98-34.84c-2.79.66-5.62,1.1-8.47,1.33-.75.06-1.5.13-2.25.16Z" fill="#ff671f"/>
        <path d="M139.86,131.51c1.24-.3,2.46-.64,3.65-1.06.74-.26,1.47-.53,2.19-.83.48-.2.94-.44,1.41-.65-.42-12.31-5.03-23.56-12.45-32.39-.85.87-1.73,1.71-2.63,2.53-.89.81-1.81,1.59-2.75,2.34-.95.76-1.92,1.49-2.91,2.19,6.16,7.36,9.88,16.83,9.88,27.16,0,.47-.03.94-.05,1.41,1.24-.17,2.46-.41,3.66-.7Z" fill="#ff671f"/>
        <path d="M113.65,89.26c.02.3.04.6.06.9.26-.16.52-.31.78-.48,1.15-.73,2.27-1.51,3.33-2.35,1.01-.8,1.98-1.64,2.9-2.53-2.67-1.56-5.48-2.9-8.41-3.99.33,1.41.63,2.82.85,4.25.22,1.4.37,2.8.48,4.21Z" fill="#ff671f"/>
        <path d="M89.26,74.07c.3-.02.6-.04.9-.06-.16-.26-.31-.53-.48-.78-.73-1.15-1.51-2.27-2.35-3.33-.8-1.01-1.64-1.98-2.53-2.9-1.56,2.67-2.9,5.48-3.99,8.41,1.41-.33,2.82-.63,4.25-.85,1.39-.22,2.8-.37,4.21-.48Z" fill="#658dc6"/>
        <path d="M150.73,54.6c.02.58.04,1.25.05,1.93,13.31,7.16,22.39,21.19,22.39,37.33s-9.08,30.17-22.39,37.33c-.61.33-1.22.64-1.85.93-.61.29-1.22.59-1.84.85-1.2.5-2.44.93-3.69,1.32-1.24.39-2.49.72-3.77.99-1.22.26-2.45.49-3.71.64-.61.07-1.23.12-1.85.17-.61.05-1.23.08-1.84.1-.48.02-.95.05-1.44.05-10.32,0-19.79-3.72-27.15-9.87-.47-.39-.93-.79-1.38-1.2-.45-.41-.9-.83-1.34-1.27-.89-.88-1.72-1.82-2.53-2.78-.82-.97-1.59-1.98-2.32-3.03-.79-1.12-1.54-2.27-2.22-3.47-.14-.25-.27-.51-.4-.77-.21-.39-.42-.78-.62-1.18-.11-.22-.21-.44-.32-.67-.22-.47-.44-.94-.65-1.42-.06-.14-.13-.28-.19-.42-.5-1.2-.93-2.44-1.32-3.69-.38-1.24-.72-2.49-.99-3.77-.26-1.22-.48-2.45-.64-3.71-.07-.61-.12-1.23-.17-1.85-.05-.61-.08-1.23-.1-1.84-.02-.48-.05-.95-.05-1.44s.03-.94.05-1.41c-1.24.17-2.46.41-3.66.7-1.24.3-2.46.64-3.65,1.06,0,0-.02,0-.03,0-.6.21-1.2.44-1.79.68-.12.05-.25.09-.37.14-.47.2-.94.42-1.41.64,0,.12,0,.25,0,.38.06,1.38.18,2.74.34,4.09.16,1.36.37,2.7.63,4.02.27,1.38.58,2.75.95,4.09.19.69.4,1.38.63,2.07.23.7.47,1.4.73,2.09,1.08,2.91,2.42,5.71,3.97,8.35.32.54.64,1.07.97,1.6.33.52.67,1.04,1.02,1.55.52.75,1.05,1.49,1.61,2.22.19.24.39.48.58.72.75.95,1.54,1.88,2.35,2.77.82.9,1.65,1.78,2.52,2.62.44.42.89.83,1.34,1.23.45.41.91.8,1.38,1.2,8.83,7.42,20.08,12.03,32.38,12.45.61.02,1.21.05,1.82.05.05,0,.11,0,.16,0,.68,0,1.35-.02,2.03-.05,1.38-.06,2.74-.18,4.09-.34.71-.08,1.42-.16,2.12-.28,1.02-.16,2.02-.35,3.02-.57,1-.22,1.98-.47,2.96-.74.69-.19,1.38-.4,2.06-.63.7-.23,1.4-.47,2.09-.73,20.27-7.55,34.76-27.08,34.76-49.95s-14.52-42.46-34.84-49.98c.66,2.79,1.1,5.62,1.33,8.47.06.75.13,1.5.16,2.25Z" fill="#658dc6"/>
        <path d="M39.64,148.09c7.49,23.44,29.5,39.64,54.22,39.64s46.74-16.2,54.22-39.64c23.44-7.49,39.64-29.5,39.64-54.22s-16.2-46.74-39.64-54.22C140.6,16.2,118.59,0,93.86,0s-46.73,16.2-54.22,39.64C16.2,47.13,0,69.13,0,93.86s16.2,46.74,39.64,54.22ZM61.36,84.09c-.99.69-1.96,1.43-2.91,2.19-.94.75-1.86,1.53-2.75,2.34-.9.82-1.78,1.65-2.63,2.53-7.42-8.83-12.04-20.08-12.45-32.39.47-.22.93-.45,1.41-.65.72-.3,1.45-.57,2.19-.83,1.2-.42,2.42-.76,3.65-1.06,1.2-.29,2.43-.52,3.66-.7-.02.47-.05.94-.05,1.41,0,10.33,3.72,19.8,9.88,27.16ZM76.56,76.56c-4.26,1.36-8.32,3.21-12.13,5.52-6.02-7.02-9.32-15.84-9.32-25.16,0-.58.03-1.17.06-1.76.59-.03,1.18-.06,1.76-.06,9.31,0,18.14,3.29,25.15,9.32-2.31,3.81-4.16,7.88-5.52,12.13ZM84.79,66.99c.89.92,1.74,1.89,2.53,2.9.84,1.07,1.63,2.18,2.35,3.33.16.26.32.52.48.78-.3.02-.6.04-.9.06-1.41.11-2.81.26-4.21.48-1.43.22-2.84.52-4.25.85,1.08-2.93,2.43-5.74,3.99-8.41ZM50.59,93.86c-8.03,9.38-12.74,20.97-13.53,33.25-11.62-6.94-18.87-19.46-18.87-33.25s7.26-26.31,18.87-33.25c.79,12.28,5.5,23.86,13.53,33.25ZM93.86,184.08c-22.87,0-42.41-14.48-49.95-34.76-.26-.69-.5-1.39-.73-2.09-.22-.68-.43-1.37-.63-2.07-.74-2.63-1.26-5.34-1.59-8.11-.16-1.35-.29-2.71-.34-4.09-.03-.67-.05-1.35-.05-2.03,0-.05,0-.11,0-.16,0-.61.02-1.22.05-1.82.42-12.31,5.03-23.55,12.45-32.38.39-.47.79-.93,1.2-1.38.41-.45.81-.9,1.23-1.34.84-.87,1.72-1.71,2.62-2.52.9-.82,1.82-1.6,2.77-2.35.96-.76,1.93-1.49,2.94-2.19.51-.35,1.03-.69,1.55-1.02.53-.33,1.06-.66,1.6-.97,2.65-1.55,5.44-2.89,8.35-3.97.69-.26,1.39-.5,2.09-.73.68-.22,1.37-.43,2.06-.63,1.34-.38,2.71-.68,4.09-.95,1.32-.26,2.66-.47,4.02-.63,1.35-.16,2.71-.29,4.09-.34.12,0,.25,0,.38,0,.22.47.45.94.64,1.41.05.12.09.25.14.37.24.59.47,1.19.68,1.79,0,0,0,.02,0,.02.42,1.2.76,2.42,1.06,3.65.29,1.2.52,2.43.7,3.66-.47-.02-.94-.05-1.41-.05s-.96.03-1.44.05c-.62.02-1.23.05-1.84.1-.62.05-1.24.1-1.85.17-1.26.15-2.49.38-3.71.64-1.28.27-2.54.6-3.77.99-1.25.39-2.49.82-3.69,1.32-.14.06-.28.13-.42.19-.48.21-.95.42-1.42.65-.22.11-.45.21-.67.32-.4.2-.79.41-1.18.62-.25.14-.51.26-.77.4-1.2.68-2.35,1.43-3.47,2.22-1.04.73-2.06,1.5-3.03,2.32-.96.81-1.89,1.64-2.78,2.53-.43.44-.85.88-1.27,1.34-.41.45-.81.91-1.2,1.38-6.16,7.36-9.87,16.82-9.87,27.15,0,.48.03.96.05,1.44.02.62.05,1.23.1,1.84.05.62.1,1.24.17,1.85.15,1.26.38,2.49.64,3.71.27,1.28.6,2.54.99,3.77.39,1.25.82,2.49,1.32,3.69.26.63.56,1.23.85,1.84.3.62.61,1.24.93,1.85,7.16,13.31,21.19,22.38,37.33,22.38s30.17-9.08,37.33-22.38c.68,0,1.35-.03,1.93-.05.75-.03,1.5-.1,2.25-.16,2.85-.23,5.69-.67,8.47-1.33-7.52,20.31-27.08,34.84-49.98,34.84ZM95.62,92.1c.03.59.06,1.18.06,1.76s-.03,1.17-.06,1.76c-.59.03-1.18.06-1.76.06s-1.17-.03-1.76-.06c-.03-.59-.06-1.18-.06-1.76s.03-1.17.06-1.76c.59-.03,1.18-.06,1.76-.06s1.17.03,1.76.06ZM58.76,147.11c-.22-.47-.45-.93-.66-1.41-.3-.72-.57-1.45-.83-2.19-.42-1.2-.76-2.42-1.06-3.65-.29-1.2-.52-2.43-.7-3.66.47.02.94.05,1.41.05,10.33,0,19.8-3.72,27.16-9.88.69.99,1.43,1.96,2.19,2.91.75.94,1.53,1.86,2.34,2.75.82.9,1.65,1.78,2.53,2.63-8.83,7.42-20.08,12.04-32.39,12.45ZM93.86,137.13c9.38,8.03,20.97,12.74,33.25,13.53-6.94,11.62-19.46,18.87-33.25,18.87s-26.31-7.26-33.25-18.87c12.28-.79,23.86-5.5,33.25-13.53ZM56.93,132.61c-.58,0-1.17-.03-1.76-.06-.03-.59-.06-1.18-.06-1.76,0-9.31,3.29-18.14,9.32-25.16,3.81,2.31,7.88,4.16,12.13,5.52,1.36,4.26,3.21,8.32,5.52,12.13-7.02,6.02-15.84,9.32-25.15,9.32ZM66.99,102.93c.92-.89,1.89-1.74,2.9-2.53,1.07-.84,2.18-1.63,3.33-2.36.26-.16.52-.32.78-.48.02.3.04.6.06.9.11,1.41.26,2.81.48,4.21.22,1.43.52,2.84.85,4.25-2.93-1.08-5.74-2.42-8.41-3.99ZM184.08,93.86c0,22.87-14.48,42.41-34.76,49.95-.69.26-1.39.5-2.09.73-.68.22-1.37.43-2.06.63h0c-.98.27-1.96.52-2.96.74-1,.22-2,.41-3.02.57-.7.11-1.41.19-2.12.28-1.35.16-2.71.29-4.09.34-.67.03-1.35.05-2.03.05-.05,0-.11,0-.16,0-.61,0-1.22-.02-1.82-.05-12.31-.42-23.55-5.03-32.38-12.45-.47-.39-.93-.79-1.38-1.2-.45-.41-.9-.81-1.34-1.23-.87-.84-1.71-1.72-2.52-2.62-.82-.9-1.6-1.82-2.35-2.77-.19-.24-.39-.47-.58-.72-.55-.72-1.09-1.46-1.61-2.22-.35-.51-.69-1.03-1.02-1.55-.33-.53-.66-1.06-.97-1.6-1.55-2.65-2.89-5.44-3.97-8.35-.26-.69-.5-1.39-.73-2.09-.22-.68-.43-1.37-.63-2.07-.38-1.34-.68-2.71-.95-4.09-.26-1.32-.47-2.66-.63-4.02-.16-1.35-.29-2.71-.34-4.09,0-.12,0-.25,0-.38.47-.22.94-.45,1.41-.64.12-.05.25-.09.37-.14.59-.24,1.19-.47,1.79-.68,0,0,.02,0,.03,0,1.2-.42,2.42-.76,3.65-1.06,1.2-.29,2.43-.52,3.66-.7-.02.47-.05.94-.05,1.41s.03.96.05,1.44c.02.62.05,1.23.1,1.84.05.62.1,1.24.17,1.85.15,1.26.38,2.49.64,3.71.27,1.28.6,2.54.99,3.77.39,1.25.82,2.49,1.32,3.69.06.14.13.28.19.42.21.48.42.95.65,1.42.11.22.21.45.32.67.2.4.41.79.62,1.18.14.25.26.51.4.77.68,1.2,1.43,2.35,2.22,3.47.73,1.04,1.5,2.06,2.32,3.03.81.96,1.64,1.89,2.53,2.78.44.43.88.85,1.34,1.27.45.41.91.81,1.38,1.2,7.36,6.16,16.82,9.87,27.15,9.87.48,0,.96-.03,1.44-.05.62-.02,1.23-.05,1.84-.1.62-.05,1.24-.1,1.85-.17,1.26-.15,2.49-.38,3.71-.64,1.28-.27,2.54-.6,3.77-.99,1.25-.39,2.49-.82,3.69-1.32.63-.26,1.23-.56,1.84-.85.62-.3,1.24-.61,1.85-.93,13.31-7.16,22.39-21.19,22.39-37.33s-9.08-30.17-22.39-37.33c0-.68-.03-1.35-.05-1.93-.03-.75-.1-1.5-.16-2.25-.23-2.85-.67-5.69-1.33-8.47,20.31,7.52,34.84,27.08,34.84,49.98ZM126.36,103.63c.99-.69,1.96-1.43,2.91-2.19.94-.75,1.86-1.53,2.75-2.34.9-.82,1.78-1.65,2.63-2.53,7.42,8.83,12.04,20.08,12.45,32.39-.47.22-.93.45-1.41.65-.72.3-1.45.57-2.19.83-1.2.42-2.42.76-3.65,1.06-1.21.29-2.43.52-3.66.7.02-.47.05-.94.05-1.41,0-10.33-3.72-19.8-9.88-27.16ZM132.61,130.79c0,.58-.03,1.17-.06,1.76-.59.03-1.18.06-1.76.06-9.31,0-18.14-3.29-25.15-9.32,2.31-3.81,4.17-7.88,5.52-12.13,4.26-1.36,8.32-3.21,12.13-5.52,6.02,7.02,9.32,15.84,9.32,25.16ZM102.93,120.73c-.89-.92-1.74-1.89-2.53-2.9-.84-1.07-1.63-2.18-2.36-3.33-.16-.26-.32-.52-.48-.78.3-.02.6-.04.9-.06,1.41-.11,2.81-.26,4.21-.48,1.43-.22,2.84-.52,4.25-.85-1.08,2.93-2.43,5.74-3.99,8.41ZM150.66,60.61c11.62,6.94,18.87,19.46,18.87,33.25s-7.26,26.31-18.87,33.25c-.79-12.28-5.5-23.86-13.53-33.25,8.03-9.38,12.74-20.97,13.53-33.25ZM93.86,3.64c22.87,0,42.41,14.48,49.95,34.76.26.69.5,1.39.73,2.09.22.68.43,1.37.63,2.06.74,2.63,1.26,5.34,1.59,8.11.16,1.35.29,2.71.34,4.09.03.67.05,1.35.05,2.03,0,.05,0,.11,0,.16,0,.61-.02,1.22-.05,1.82-.42,12.31-5.03,23.55-12.45,32.38-.39.47-.79.93-1.2,1.38-.41.45-.81.9-1.23,1.34-.84.87-1.72,1.71-2.62,2.52-.9.82-1.82,1.6-2.77,2.35-.96.76-1.93,1.49-2.94,2.19-.51.35-1.03.69-1.55,1.02-.53.33-1.06.66-1.6.97-2.65,1.55-5.43,2.89-8.34,3.97,0,0,0,0,0,0-.69.26-1.39.5-2.09.73-.68.22-1.37.43-2.07.63-.98.27-1.96.52-2.96.74-.37.08-.75.14-1.13.21-1.32.26-2.66.47-4.02.63-.32.04-.63.09-.96.12-1.04.1-2.08.18-3.13.22-.12,0-.25,0-.38,0-.22-.47-.45-.94-.64-1.41-.05-.12-.09-.25-.14-.37-.24-.59-.47-1.19-.68-1.79,0,0,0-.02,0-.02-.42-1.2-.76-2.42-1.06-3.65-.29-1.2-.52-2.43-.7-3.66.47.02.94.05,1.41.05s.96-.03,1.44-.05c.62-.02,1.23-.05,1.84-.1.62-.05,1.24-.1,1.85-.17,1.26-.15,2.49-.38,3.71-.64,1.28-.27,2.54-.6,3.77-.99,1.25-.39,2.49-.82,3.69-1.32.14-.06.28-.13.42-.19.48-.21.95-.42,1.42-.65.22-.11.45-.21.67-.32.4-.2.79-.41,1.18-.62.25-.14.51-.26.77-.4,1.2-.68,2.35-1.43,3.47-2.22,1.04-.73,2.06-1.5,3.03-2.32.96-.81,1.89-1.64,2.78-2.53.43-.44.85-.88,1.27-1.34.41-.45.81-.91,1.2-1.38,6.16-7.36,9.87-16.82,9.87-27.15,0-.48-.03-.96-.05-1.44-.02-.62-.05-1.23-.1-1.84-.05-.62-.1-1.24-.17-1.85-.15-1.26-.38-2.49-.64-3.71-.27-1.28-.6-2.54-.99-3.77-.39-1.25-.82-2.49-1.32-3.69-.26-.63-.56-1.23-.85-1.84-.3-.62-.61-1.24-.93-1.85-7.16-13.3-21.19-22.38-37.33-22.38s-30.17,9.08-37.33,22.38c-.68,0-1.35.03-1.93.05-.75.03-1.5.1-2.25.16-2.85.23-5.69.67-8.47,1.33C51.4,18.16,70.96,3.64,93.86,3.64ZM128.97,40.61c.22.47.45.93.65,1.41.3.72.57,1.45.83,2.19.42,1.2.76,2.42,1.06,3.65.29,1.2.52,2.43.7,3.66-.47-.02-.94-.05-1.41-.05-10.33,0-19.8,3.72-27.16,9.88-.69-.99-1.43-1.96-2.19-2.91-.75-.94-1.53-1.86-2.34-2.75-.82-.9-1.65-1.78-2.53-2.63,8.83-7.42,20.08-12.04,32.39-12.45ZM93.86,50.59c-9.38-8.03-20.97-12.74-33.25-13.53,6.94-11.62,19.46-18.87,33.25-18.87s26.31,7.26,33.25,18.87c-12.28.79-23.86,5.5-33.25,13.53ZM130.79,55.11c.58,0,1.17.03,1.76.06.03.59.06,1.18.06,1.76,0,9.31-3.29,18.14-9.32,25.16-3.81-2.31-7.87-4.16-12.13-5.52-1.36-4.26-3.21-8.32-5.52-12.13,7.02-6.02,15.84-9.32,25.15-9.32ZM120.73,84.79c-.92.89-1.89,1.74-2.9,2.53-1.07.84-2.18,1.63-3.33,2.35-.26.16-.52.32-.78.48-.02-.3-.04-.6-.06-.9-.11-1.41-.26-2.81-.48-4.21-.22-1.43-.52-2.84-.85-4.25,2.93,1.08,5.74,2.42,8.41,3.99ZM38.39,43.91c.69-.26,1.39-.5,2.09-.73.68-.22,1.37-.43,2.07-.63,2.63-.74,5.34-1.26,8.11-1.59,1.35-.16,2.71-.29,4.09-.34.67-.03,1.35-.05,2.03-.05.05,0,.11,0,.16,0,.61,0,1.22.02,1.82.05,12.31.42,23.55,5.03,32.38,12.45.47.39.93.79,1.38,1.2.45.41.9.81,1.34,1.23.87.84,1.71,1.72,2.52,2.62.82.9,1.6,1.82,2.35,2.77.76.96,1.5,1.93,2.19,2.94.35.51.69,1.03,1.02,1.55.33.53.66,1.06.97,1.6,1.55,2.65,2.89,5.44,3.97,8.35.26.69.5,1.39.73,2.09.22.68.43,1.37.63,2.06.38,1.34.68,2.71.95,4.09.26,1.32.47,2.66.63,4.02.16,1.35.29,2.71.34,4.09,0,.12,0,.25,0,.38-.47.22-.94.45-1.41.64-.12.05-.25.09-.37.14-.59.24-1.19.47-1.79.68,0,0-.02,0-.03,0-1.2.42-2.42.76-3.65,1.06-1.21.29-2.43.52-3.66.7.02-.47.05-.94.05-1.41s-.03-.96-.05-1.44c-.02-.62-.05-1.23-.1-1.84-.05-.62-.1-1.24-.17-1.85-.15-1.26-.38-2.49-.64-3.71-.14-.68-.29-1.36-.46-2.03-.16-.59-.35-1.17-.53-1.74-.11-.34-.19-.68-.31-1.02-.31-.91-.65-1.8-1.01-2.68-.06-.14-.13-.28-.19-.42-.21-.48-.42-.95-.65-1.42-.11-.22-.21-.45-.32-.67-.2-.4-.41-.79-.62-1.18-.14-.25-.26-.51-.4-.77-.68-1.2-1.43-2.35-2.22-3.47-.73-1.04-1.5-2.06-2.32-3.03-.81-.96-1.64-1.89-2.53-2.78-.44-.43-.88-.85-1.34-1.27-.45-.41-.91-.81-1.38-1.2-7.36-6.16-16.82-9.87-27.15-9.87-.48,0-.96.03-1.44.05-.62.02-1.23.05-1.84.1-.62.05-1.24.1-1.85.17-1.26.15-2.49.38-3.71.64-1.28.27-2.54.6-3.77.99-1.25.39-2.49.82-3.69,1.32-.63.26-1.23.56-1.84.85-.62.3-1.24.61-1.85.93-13.3,7.16-22.38,21.19-22.38,37.33s9.08,30.17,22.38,37.33c0,.68.03,1.35.05,1.93.03.75.1,1.5.16,2.25.23,2.85.67,5.69,1.33,8.47-20.31-7.52-34.84-27.08-34.84-49.98s14.48-42.41,34.76-49.95Z" fill="#fff"/>
        <path d="M101.44,58.44c.76.95,1.5,1.92,2.19,2.91,7.36-6.16,16.83-9.88,27.16-9.88.47,0,.94.03,1.41.05-.17-1.24-.41-2.46-.7-3.66-.3-1.24-.64-2.46-1.06-3.65-.26-.74-.53-1.47-.83-2.19-.2-.48-.44-.94-.65-1.41-12.31.42-23.56,5.03-32.39,12.45.87.85,1.71,1.73,2.53,2.63.81.89,1.59,1.81,2.34,2.75Z" fill="#658dc6"/>
        <path d="M86.28,129.28c-.76-.95-1.49-1.92-2.19-2.91-7.36,6.16-16.83,9.88-27.16,9.88-.47,0-.94-.03-1.41-.05.17,1.24.41,2.46.7,3.66.3,1.24.64,2.46,1.06,3.65.26.74.53,1.47.83,2.19.2.48.44.94.66,1.41,12.31-.42,23.56-5.03,32.39-12.45-.87-.85-1.71-1.73-2.53-2.63-.81-.89-1.59-1.81-2.34-2.75Z" fill="#ba0c2f"/>
        <path d="M98.46,113.65c-.3.02-.6.04-.9.06.16.26.32.53.48.78.73,1.15,1.51,2.27,2.36,3.33.8,1.01,1.64,1.98,2.53,2.9,1.56-2.67,2.9-5.48,3.99-8.41-1.41.33-2.82.63-4.25.85-1.4.22-2.8.37-4.21.48Z" fill="#ba0c2f"/>
        <path d="M100.13,109.83c1.36-.16,2.7-.37,4.02-.63.38-.07.76-.13,1.13-.21-.37.08-.75.14-1.13.21-1.32.26-2.66.47-4.02.63Z" fill="#ba0c2f"/>
        <path d="M38.47,143.84c-.66-2.79-1.1-5.62-1.33-8.47-.06-.75-.13-1.5-.16-2.25-.02-.58-.04-1.25-.05-1.93-13.3-7.16-22.38-21.19-22.38-37.33s9.08-30.17,22.38-37.33c.61-.33,1.22-.64,1.85-.93.61-.29,1.22-.59,1.84-.85,1.2-.5,2.44-.93,3.69-1.32,1.24-.39,2.49-.72,3.77-.99,1.22-.26,2.45-.49,3.71-.64.61-.07,1.23-.12,1.85-.17.61-.05,1.23-.08,1.84-.1.48-.02.95-.05,1.44-.05,10.32,0,19.79,3.72,27.15,9.87.47.39.93.79,1.38,1.2.45.41.9.83,1.34,1.27.89.88,1.72,1.82,2.53,2.78.82.97,1.59,1.98,2.32,3.03.79,1.12,1.54,2.27,2.22,3.47.14.25.27.51.4.77.21.39.42.78.62,1.18.11.22.21.44.32.67.22.47.44.94.65,1.42.06.14.13.28.19.42.37.88.71,1.77,1.01,2.68.11.33.2.68.31,1.02.18.58.37,1.16.53,1.74.18.67.32,1.35.46,2.03.26,1.22.49,2.45.64,3.71.07.61.12,1.23.17,1.85.05.61.08,1.23.1,1.84.02.48.05.95.05,1.44s-.03.94-.05,1.41c1.24-.17,2.46-.41,3.66-.7,1.24-.3,2.46-.64,3.65-1.06,0,0,.02,0,.03,0,.6-.21,1.2-.44,1.79-.68.12-.05.25-.09.37-.14.47-.2.94-.42,1.41-.64,0-.12,0-.25,0-.38-.06-1.38-.18-2.74-.34-4.09-.16-1.36-.37-2.7-.63-4.02-.27-1.38-.58-2.75-.95-4.09-.19-.69-.4-1.38-.63-2.06-.23-.7-.47-1.4-.73-2.09-1.08-2.91-2.42-5.71-3.97-8.35-.32-.54-.64-1.07-.97-1.6-.33-.52-.67-1.04-1.02-1.55-.69-1.01-1.43-1.98-2.19-2.94-.75-.95-1.54-1.88-2.35-2.77-.82-.9-1.65-1.78-2.52-2.62-.44-.42-.89-.83-1.34-1.23-.45-.41-.91-.8-1.38-1.2-8.83-7.42-20.08-12.03-32.38-12.45-.61-.02-1.21-.05-1.82-.05-.05,0-.11,0-.16,0-.68,0-1.35.02-2.03.05-1.38.06-2.74.18-4.09.34-2.77.33-5.48.85-8.11,1.59-.69.19-1.38.4-2.07.63-.7.23-1.4.47-2.09.73C18.12,51.45,3.64,70.99,3.64,93.86s14.52,42.46,34.84,49.98Z" fill="#ba0c2f"/>
      </g>
      <g>
        <g>
          <polygon points="0 257.06 4.46 257.06 4.46 249.11 14.75 249.11 14.75 245.14 4.46 245.14 4.46 240.81 17.56 240.81 17.56 236.81 0 236.81 0 257.06"/>
          <polygon points="23.57 248.9 33.64 248.9 33.64 244.94 23.57 244.94 23.57 240.81 36.82 240.81 36.82 236.81 19.11 236.81 19.11 257.06 36.94 257.06 36.94 253.07 23.57 253.07 23.57 248.9"/>
          <g>
            <rect x="42.95" y="240.95" width="11.02" height="11.98" fill="none"/>
            <path d="M38.49,236.81v20.25h16.9l3.04-3.04v-14.18l-3.04-3.04h-16.9ZM53.97,252.93h-11.02v-11.98h11.02v11.98Z"/>
          </g>
          <polygon points="64.43 248.9 74.5 248.9 74.5 244.94 64.43 244.94 64.43 240.81 77.68 240.81 77.68 236.81 59.98 236.81 59.98 257.06 77.8 257.06 77.8 253.07 64.43 253.07 64.43 248.9"/>
          <g>
            <rect x="83.81" y="240.83" width="9.98" height="4.83" fill="none"/>
            <path d="M95.21,249.69l3.04-3.04v-6.8l-3.04-3.04h-15.85v20.25h4.46v-7.38h6.65l3.85,7.38h4.72l-3.88-7.38h.06ZM93.79,245.66h-9.98v-4.83h9.98v4.83Z"/>
          </g>
          <g>
            <polygon points="108.83 249.54 116.23 249.54 112.53 241.59 108.83 249.54" fill="none"/>
            <path d="M110.5,236.81l-9.92,20.25h4.75l1.65-3.53h11.11l1.65,3.53h4.86l-9.89-20.25h-4.2ZM108.83,249.54l3.7-7.96,3.7,7.96h-7.41Z"/>
          </g>
          <polygon points="118.89 240.95 126.5 240.95 126.5 257.06 130.95 257.06 130.95 240.95 138.53 240.95 138.53 236.81 118.89 236.81 118.89 240.95"/>
          <rect x="140.09" y="236.81" width="4.45" height="20.25"/>
          <g>
            <rect x="150.55" y="240.95" width="11.22" height="11.98" fill="none"/>
            <path d="M149.13,236.81l-3.04,3.04v14.18l3.04,3.04h14.06l3.04-3.04v-14.18l-3.04-3.04h-14.06ZM161.78,252.93h-11.22v-11.98h11.22v11.98Z"/>
          </g>
          <polygon points="183.35 236.81 183.35 250.26 171.95 236.81 167.78 236.81 167.78 257.06 172.04 257.06 172.04 243.58 183.49 257.06 187.6 257.06 187.6 236.81 183.35 236.81"/>
        </g>
        <g>
          <g>
            <polygon points="68.97 215.53 68.97 211.39 79.15 211.39 79.15 213.67 83.61 213.67 83.61 210.52 80.57 207.48 67.55 207.48 64.51 210.52 64.51 216.65 67.38 219.52 79.27 219.52 79.27 223.83 68.85 223.83 68.85 221.4 64.4 221.4 64.4 224.69 67.43 227.73 80.68 227.73 83.72 224.69 83.72 218.39 80.86 215.53 68.97 215.53"/>
            <g>
              <rect x="89.73" y="211.5" width="9.98" height="4.95" fill="none"/>
              <path d="M85.28,207.48v20.25h4.46v-7.26h11.4l3.04-3.04v-6.91l-3.04-3.04h-15.85ZM99.71,216.45h-9.98v-4.95h9.98v4.95Z"/>
            </g>
            <g>
              <rect x="110.18" y="211.62" width="11.22" height="11.98" fill="none"/>
              <path d="M108.76,207.48l-3.04,3.04v14.18l3.04,3.04h14.06l3.04-3.04v-14.18l-3.04-3.04h-14.06ZM121.4,223.6h-11.22v-11.98h11.22v11.98Z"/>
            </g>
            <g>
              <rect x="131.86" y="211.5" width="9.98" height="4.83" fill="none"/>
              <path d="M143.26,220.36l3.04-3.04v-6.8l-3.04-3.04h-15.85v20.25h4.46v-7.38h6.65l3.85,7.38h4.72l-3.88-7.38h.06ZM141.84,216.33h-9.98v-4.83h9.98v4.83Z"/>
            </g>
            <polygon points="147.6 211.62 155.21 211.62 155.21 227.73 159.66 227.73 159.66 211.62 167.24 211.62 167.24 207.48 147.6 207.48 147.6 211.62"/>
            <polygon points="184.74 215.53 172.85 215.53 172.85 211.39 183.03 211.39 183.03 213.67 187.49 213.67 187.49 210.52 184.45 207.48 171.43 207.48 168.39 210.52 168.39 216.65 171.26 219.52 183.14 219.52 183.14 223.83 172.73 223.83 172.73 221.4 168.28 221.4 168.28 224.69 171.31 227.73 184.56 227.73 187.6 224.69 187.6 218.39 184.74 215.53"/>
          </g>
          <g>
            <polygon points="27.78 218.93 27.78 218.93 27.78 218.93 27.78 218.93" fill="none"/>
            <polygon points="28.2 217.22 28.2 217.22 28.2 217.22 28.2 217.22" fill="none"/>
            <polygon points="27.79 218.49 27.79 218.49 27.79 218.49 27.79 218.49" fill="none"/>
            <path d="M22.31,224h7.49v-7.58h-7.49v7.58ZM22.67,222.28s0,.03.01.05c.09.06.16.1.25.15-.07-.13-.09-.27-.08-.37-.05-.1-.02-.16,0-.19.03-.03.07-.03.1-.01.05.02.1.09.1.18,0,.04-.01.06-.04.08,0,.04,0,.07,0,.11,0,.06,0,.07.01.1h0s0,0,0,0c0,.05.02.12.05.18l.27.11c-.09-.12-.12-.26-.12-.37-.06-.09-.03-.16-.01-.19.03-.03.06-.04.1-.03.05.02.11.08.11.16,0,.04,0,.07-.03.09,0,.04.01.07.02.11q0,.05.02.1h0c.01.05.04.12.07.18l.29.07c-.1-.11-.15-.26-.17-.36-.07-.08-.05-.17-.02-.2.03-.03.06-.04.1-.03.06.02.11.08.12.15,0,.05,0,.09-.02.1,0,.03.02.06.03.1.02.07.02.07.03.1h0c.02.07.05.13.09.17l.3.03s-.05-.05-.08-.08c-.04-.06-.1-.17-.13-.27-.08-.07-.07-.16-.04-.2.02-.04.06-.05.1-.05.06,0,.12.06.13.13.01.05,0,.09,0,.1.01.04.03.07.04.11t.04.1h0s.06.12.1.16h0s0,.02,0,.02v-.02s0,.02,0,.02v-.02s0,.02,0,.02v-.02s0,0,0,0v.02s0-.02,0-.02v.02s0-.02,0-.02v.02s0-.02,0-.02v.02s0-.02,0-.02v.02s0-.02,0-.02v.02s0,0,0,0v-.02s0,0,0,0h0s0,0,0,0h0s.03,0,.03,0h0c.06,0,.12,0,.18-.01-.12-.08-.21-.22-.24-.33-.09-.06-.09-.15-.07-.2.02-.04.05-.06.1-.06.06,0,.12.05.15.12.02.05,0,.09,0,.11.02.03.03.06.05.1,0,.02.02.04.05.1h0c.04.07.08.12.12.16.1-.01.2-.03.3-.06-.03-.02-.07-.04-.1-.06-.05-.04-.14-.15-.18-.25-.09-.05-.1-.14-.08-.19.01-.05.05-.07.09-.08.06,0,.12.03.16.1.02.05.02.09.01.11.02.03.04.07.06.1.03.05.04.06.06.09h0c.04.06.09.11.13.14.1-.03.2-.06.3-.1-.14-.05-.26-.18-.32-.28-.1-.04-.12-.13-.11-.19,0-.05.04-.08.09-.09.06-.01.12.02.16.08.03.05.03.09.03.11.02.03.05.06.07.1.01.02.03.04.07.08h0c.05.06.1.1.15.13.1-.04.2-.09.29-.14-.15-.04-.27-.15-.34-.25-.1-.03-.13-.12-.13-.18,0-.05.04-.09.08-.11.06-.02.13,0,.17.06.04.04.04.09.04.11.03.03.06.06.08.09.04.04.05.06.08.08h0c.06.05.11.09.16.11.1-.06.19-.12.28-.18-.15-.02-.29-.12-.37-.21-.1-.02-.14-.11-.14-.16,0-.05.03-.1.07-.12.06-.02.12,0,.17.04.04.04.05.08.05.1.03.03.06.05.09.08t.09.07h0c.05.03.11.07.17.09.09-.07.18-.14.26-.22-.16,0-.3-.08-.4-.17-.11,0-.15-.09-.16-.15,0-.06.02-.1.06-.13.05-.03.12-.02.18.02.05.04.06.08.06.1.03.02.06.04.1.06.02.01.04.03.09.06h0c.07.04.13.07.18.08.08-.08.17-.17.25-.27-.17.02-.33-.05-.42-.12,0,0,0,0,0,0-.1,0-.15-.08-.16-.13-.01-.06,0-.11.05-.14.05-.04.12-.03.18,0,.05.03.06.07.07.09.04.02.07.04.11.06t.1.05h0c.07.03.14.05.19.05.02-.02.03-.04.04-.06h0s.04-.06.07-.09c-.02-.04-.05-.09-.11-.16h0s-.04-.04-.08-.08c-.03-.02-.06-.05-.09-.08,0,0,0,0,0,0-.09,0-.14-.07-.16-.11-.02-.06,0-.11.03-.15.04-.04.11-.05.17-.02.05.02.08.06.09.11.09.06.21.19.24.35.07-.1.13-.2.18-.31-.02-.04-.06-.09-.12-.15h0s-.03-.03-.09-.08c-.03-.02-.06-.05-.1-.07-.09.01-.15-.05-.17-.09-.03-.05-.02-.11.01-.15.04-.05.1-.06.17-.04.05.02.08.05.1.1.1.06.23.17.28.32.05-.1.1-.21.14-.32-.03-.04-.07-.08-.14-.13h0c-.05-.04-.08-.05-.09-.06-.04-.02-.07-.04-.1-.06-.1.03-.17-.04-.19-.08-.03-.05-.02-.1,0-.14.03-.05.09-.06.16-.05.05.01.09.04.11.09.1.04.25.14.32.28.04-.11.07-.22.1-.33-.03-.04-.08-.08-.16-.12q-.05-.03-.1-.05s-.07-.03-.11-.05c-.1.03-.17-.03-.2-.06-.03-.04-.04-.1-.01-.14.03-.05.09-.07.15-.06.05,0,.09.03.12.08.11.04.26.12.35.25.02-.11.04-.22.06-.33-.04-.04-.09-.07-.17-.1-.05-.02-.1-.04-.11-.04-.04-.02-.08-.03-.11-.04-.09.05-.17,0-.21-.04-.04-.04-.05-.09-.03-.14.02-.05.08-.08.14-.08.05,0,.1.02.13.06.1.02.27.08.37.21,0-.11.02-.22.02-.33-.04-.03-.09-.05-.18-.09h0c-.05-.02-.06-.02-.11-.03-.04,0-.08-.02-.12-.03-.08.05-.17,0-.2-.02-.04-.04-.06-.09-.04-.13.02-.05.07-.09.13-.09.05,0,.1.01.13.05.11.01.28.06.39.17,0-.11-.01-.21-.02-.32-.04-.03-.1-.05-.18-.07h0s0,0,0,0c-.04,0-.05,0-.11-.02-.04,0-.08,0-.12-.01-.08.06-.16.03-.2,0-.05-.03-.07-.08-.06-.13.01-.05.05-.09.11-.1.05,0,.1,0,.14.03.11,0,.28.03.4.13-.01-.07-.02-.14-.04-.21h.02s-.02,0-.02,0h0s-.02-.1-.02-.1c-.05-.02-.11-.04-.19-.05h0s-.05,0-.11,0c-.04,0-.08,0-.12,0-.07.07-.16.04-.2.02-.05-.03-.08-.07-.07-.12,0-.05.04-.09.1-.11.05-.01.1,0,.14.02.1,0,.27,0,.41.09l-.09-.28v-.02c-.05-.01-.11-.02-.2-.03h0s-.04,0-.11,0c-.04,0-.08,0-.12,0-.06.07-.15.06-.19.04-.05-.02-.09-.07-.09-.11,0-.05.03-.09.08-.11.05-.02.09-.02.14,0,.09-.01.26-.03.41.04l-.13-.26h0s-.09-.03-.19-.02h0s0,0,0,0c-.04,0-.04,0-.11.01-.04,0-.08.01-.11.02-.03.05-.08.07-.14.07-.02,0-.04,0-.06-.01-.05-.02-.09-.06-.09-.11,0-.04.02-.08.06-.1h.91s-.07.05-.09.08l.15.3c.06-.13.2-.19.27-.21,0-.02.02-.05.06-.06.05-.02.15,0,.21.11,0,0,0,.02.01.03.01.05,0,.09-.03.12-.02.01-.04.02-.07.02s-.05,0-.08-.02c-.03.01-.06.02-.09.03-.06.02-.07.03-.09.04h0s-.1.06-.13.09l.11.32c.08-.13.23-.18.3-.19,0-.02.03-.05.07-.06.06-.01.16.02.2.14,0,0,0,.01,0,.02.01.06,0,.11-.04.13-.02.01-.04.02-.06.02-.03,0-.06-.01-.09-.03-.03,0-.06.02-.1.03-.05.01-.05.02-.09.03h0c-.06.03-.11.05-.15.08h0s0,0,0,0c0,0,0,0,0,0h0s0,0,0,0h0s.02,0,.02,0h-.02s0,.01,0,.01h.02s0,.02,0,.02h-.02s.02.01.02.01h0s-.02.02-.02.02h.02s0,.01,0,.01h-.02s.02,0,.02,0v.02c.02.07.03.15.05.22.08-.1.21-.15.33-.17.01-.02.03-.05.08-.05.06,0,.16.03.18.16v.02c0,.06-.02.11-.06.13-.02,0-.03.01-.05.01-.03,0-.07-.01-.1-.04-.03,0-.07.01-.1.02-.05.01-.07.01-.1.02h0s0,0,0,0c-.07.02-.12.04-.15.06.01.11.02.23.02.34.12-.11.28-.14.35-.14.01-.02.04-.04.09-.05.06,0,.15.05.16.17h0s0,.01,0,.02c0,.06-.03.11-.08.13-.01,0-.03,0-.04,0-.04,0-.07-.02-.1-.05-.03,0-.07,0-.11,0t-.1.01h0s0,0,0,0c-.07.02-.13.03-.17.05,0,.12,0,.23-.02.35.13-.1.3-.11.38-.11.02-.02.05-.04.09-.04.03,0,.07.02.1.05.02.02.05.07.05.14h0s0,.01,0,.02c-.01.06-.05.11-.1.12,0,0-.02,0-.03,0-.04,0-.08-.02-.11-.06-.03,0-.06,0-.11,0,0,0-.06,0-.11,0h0s0,0,0,0c-.07,0-.13.02-.17.04-.02.12-.04.23-.06.35.14-.09.31-.08.39-.07.02-.01.05-.04.1-.03.03,0,.07.03.09.06.02.03.04.07.03.15-.02.07-.06.12-.12.13,0,0-.01,0-.02,0-.04,0-.08-.02-.11-.07-.04,0-.07,0-.11-.01t-.11,0h0c-.07,0-.13,0-.18.02-.03.12-.07.23-.1.34.16-.08.33-.06.4-.04.02-.01.06-.03.11-.02.03,0,.07.03.09.06.02.03.03.08.01.15-.03.07-.08.12-.14.12,0,0,0,0,0,0-.05,0-.09-.03-.12-.08-.03,0-.06,0-.11-.02-.02,0-.04,0-.1-.02h0c-.08,0-.14,0-.19,0-.04.11-.09.23-.15.34.17-.06.34-.03.41,0,.02-.01.06-.03.11-.01.03.01.06.04.08.07.01.03.03.08,0,.15-.04.07-.09.11-.15.11,0,0,0,0-.01,0-.05,0-.09-.04-.11-.09-.03,0-.07-.02-.11-.03-.06-.02-.08-.02-.11-.03h0c-.08-.02-.14-.02-.19-.02-.06.11-.12.22-.19.32.18-.05.35.01.42.04.02,0,.07-.02.11,0,.03.01.06.04.07.08.01.03.02.09-.02.15-.04.06-.1.09-.15.09,0,0-.02,0-.03,0-.05,0-.08-.05-.1-.1-.03-.01-.07-.02-.11-.04t-.11-.04h0c-.08-.02-.14-.03-.19-.03h0s-.04.05-.06.08h0s-.01.02-.01.02c0,0,0,0,0,0v.02s-.01,0-.01,0c-.01.01-.02.03-.03.04.02.05.05.1.09.17h0q.04.06.07.09s.05.05.07.08c.02,0,.05,0,.08.02.03.02.05.05.06.09,0,.03,0,.09-.05.15,0,0-.02.02-.03.02-.04.03-.08.04-.12.04-.02,0-.05,0-.07-.02-.04-.02-.07-.07-.06-.13-.08-.09-.14-.22-.14-.22-.01-.04-.03-.09-.03-.15-.02.02-.04.05-.06.07h0s0,0,0,0c-.06.07-.13.14-.19.2,0,.05.03.1.07.17h0c.04.06.05.08.06.09.02.03.04.06.06.09.02,0,.05,0,.09.03.03.02.05.06.05.09,0,.03,0,.08-.06.13,0,0-.02.02-.03.02-.03.02-.07.03-.1.03s-.06,0-.09-.03c-.04-.03-.06-.07-.05-.13-.07-.09-.11-.22-.12-.25,0-.05-.01-.09-.01-.13-.02.02-.04.04-.06.06h.01s-.02,0-.02,0c-.07.06-.14.12-.21.17,0,.04.03.1.06.17h0q.03.06.05.1s.04.06.05.09c.02,0,.05.01.08.03.03.02.04.06.04.1,0,.03-.01.08-.07.12,0,0-.02.01-.03.02-.03.01-.05.02-.08.02-.04,0-.08-.01-.11-.04-.04-.03-.05-.08-.03-.13-.06-.09-.09-.23-.1-.25,0-.05,0-.09,0-.13-.1.07-.2.13-.3.19,0,.05.01.1.04.17,0,.03.02.04.04.1.02.03.03.06.05.1.02,0,.05.02.07.04.03.03.04.06.03.1,0,.03-.02.07-.08.11-.01,0-.02.01-.03.01-.02,0-.04,0-.06,0-.05,0-.1-.02-.13-.06-.03-.03-.04-.08-.02-.12-.05-.1-.07-.23-.07-.24,0-.05,0-.09.02-.13-.1.05-.21.11-.31.15,0,.04,0,.1.02.17h0s0,0,0,0c.02.05.03.08.03.09.01.03.03.07.04.1.02,0,.05.02.07.05.02.03.03.07.02.1,0,.03-.03.07-.09.09h-.02s-.03.01-.05.01c-.06,0-.11-.02-.15-.07-.03-.04-.03-.08,0-.12-.04-.09-.05-.22-.04-.26,0-.04.01-.07.03-.1-.11.04-.21.08-.32.11,0,.04,0,.1,0,.16,0,.03,0,.05.02.1,0,.03.02.06.03.1.02,0,.04.03.06.05.02.03.03.07.01.1,0,.03-.04.06-.1.08h-.02s-.02,0-.03,0c-.07,0-.14-.03-.17-.09-.02-.04-.02-.08,0-.11-.03-.09-.03-.21-.02-.26,0-.03.02-.07.04-.1-.11.03-.22.05-.33.06-.01.04-.01.09,0,.15h0s0,0,0,0c0,.06,0,.07.01.09,0,.04.01.07.01.09.02,0,.04.03.06.06.02.03.02.07,0,.1-.01.02-.04.05-.11.06h0s0,0-.01,0h0c-.08,0-.16-.05-.18-.11-.01-.04,0-.07.02-.1-.02-.09,0-.21,0-.25.01-.03.03-.06.04-.09-.07,0-.13.01-.2.01h0s-.03,0-.03,0h-.02s0,0,0,0h-.04s0-.02,0-.02v.02s-.04,0-.04,0h0s-.02.07-.02.15h0c0,.05,0,.05,0,.09,0,.03,0,.06,0,.09.01.01.04.03.05.06.01.03.01.07,0,.09-.01.02-.04.05-.11.05,0,0,0,0,0,0h0s0,0-.01,0c-.08-.01-.16-.07-.17-.13,0-.03,0-.07.03-.09-.01-.08,0-.2.06-.29,0,0,.01-.01.02-.02l-.29-.02h-.04s-.03.07-.03.12h0s0,0,0,0c0,.02,0,.03,0,.09,0,.03,0,.06,0,.09.01.01.04.04.05.07.01.03,0,.07-.01.09-.01.02-.04.03-.08.03-.01,0-.02,0-.04,0-.01,0-.02,0-.03,0-.08-.03-.14-.1-.14-.16,0-.03.01-.05.03-.07,0-.08.02-.19.09-.27,0,0,.01-.01.02-.02l-.29-.06h-.03s-.03.06-.05.11h0s0,.05-.01.08c0,.03,0,.06,0,.08.01.01.03.04.04.07,0,.03,0,.06-.02.08-.01.01-.03.02-.06.02-.02,0-.04,0-.06-.01,0,0-.02,0-.03-.01-.08-.04-.13-.12-.12-.17,0-.03.02-.05.04-.06,0-.04.01-.09.03-.13.02-.05.06-.09.1-.12l-.27-.11h-.03s-.04.05-.05.09h0s0,.02-.02.08c0,.03,0,.05-.02.08.01.02.03.04.03.07,0,.03,0,.06-.02.07,0,0-.02.01-.04.01s-.05,0-.08-.02c-.02,0-.03-.02-.05-.04-.06-.06-.09-.13-.08-.17,0-.02.02-.04.05-.04,0-.04.02-.08.04-.12.03-.04.06-.07.1-.09-.1-.05-.18-.1-.27-.16v-.21Z" fill="none"/>
            <polygon points="46.8 213.1 45.88 213.1 46.34 214.06 46.8 213.1" fill="none"/>
            <polygon points="24.47 222.87 24.47 222.87 24.47 222.87 24.47 222.87" fill="none"/>
            <polygon points="26.62 222.14 26.62 222.14 26.62 222.14 26.62 222.14" fill="none"/>
            <polygon points="45.15 214.3 45.69 215.42 46.23 214.3 45.69 213.18 45.15 214.3" fill="none"/>
            <polygon points="45.5 213.1 44.57 213.1 45.04 214.06 45.5 213.1" fill="none"/>
            <polygon points="40.28 213.1 39.36 213.1 39.82 214.06 40.28 213.1" fill="none"/>
            <polygon points="41.59 213.1 40.67 213.1 41.13 214.06 41.59 213.1" fill="none"/>
            <polygon points="28.4 217.81 28.4 217.81 28.4 217.81 28.4 217.81" fill="none"/>
            <polygon points="28.41 217.87 28.41 217.87 28.41 217.87 28.41 217.87" fill="none"/>
            <polygon points="44.19 213.1 43.27 213.1 43.73 214.06 44.19 213.1" fill="none"/>
            <polygon points="42.89 213.1 41.97 213.1 42.43 214.06 42.89 213.1" fill="none"/>
            <polygon points="22.85 223.01 22.85 223.01 22.85 223.01 22.85 223.01" fill="none"/>
            <polygon points="41.13 214.53 40.59 215.65 41.13 216.77 41.67 215.65 41.13 214.53" fill="none"/>
            <polygon points="44.39 215.42 44.92 214.3 44.38 213.18 43.85 214.3 44.39 215.42" fill="none"/>
            <polygon points="41.78 215.42 42.32 214.3 41.78 213.18 41.24 214.3 41.78 215.42" fill="none"/>
            <polygon points="43.08 215.42 43.62 214.3 43.08 213.18 42.54 214.3 43.08 215.42" fill="none"/>
            <polygon points="40.48 213.18 39.94 214.3 40.48 215.42 41.01 214.3 40.48 213.18" fill="none"/>
            <polygon points="43.2 218.36 43.74 219.47 44.28 218.36 43.74 217.24 43.2 218.36" fill="none"/>
            <polygon points="44.5 215.65 45.04 216.77 45.58 215.65 45.04 214.53 44.5 215.65" fill="none"/>
            <polygon points="42.55 219.71 43.09 220.83 43.63 219.71 43.09 218.59 42.55 219.71" fill="none"/>
            <polygon points="43.85 217 44.39 218.12 44.93 217 44.39 215.89 43.85 217" fill="none"/>
            <polygon points="43.74 216.77 44.27 215.65 43.73 214.53 43.2 215.65 43.74 216.77" fill="none"/>
            <polygon points="42.43 217.24 41.9 218.36 42.44 219.47 42.97 218.36 42.43 217.24" fill="none"/>
            <polygon points="42.55 217 43.09 218.12 43.62 217 43.08 215.89 42.55 217" fill="none"/>
            <polygon points="42.43 216.77 42.97 215.65 42.43 214.53 41.89 215.65 42.43 216.77" fill="none"/>
            <polygon points="41.78 215.89 41.24 217 41.78 218.12 42.32 217 41.78 215.89" fill="none"/>
            <polygon points="8.84 216.79 9.26 216.79 9.26 216.39 9.92 216.39 9.92 215.96 9.26 215.96 9.26 215.43 9.92 215.43 9.92 215.01 9.26 215.01 9.26 214.48 9.92 214.48 9.92 214.05 9.26 214.05 9.26 213.52 9.92 213.52 9.92 213.1 9.26 213.1 9.26 212.7 8.84 212.7 8.84 213.1 8.18 213.1 8.18 213.52 8.84 213.52 8.84 214.05 8.18 214.05 8.18 214.48 8.84 214.48 8.84 215.01 8.18 215.01 8.18 215.43 8.84 215.43 8.84 215.96 8.18 215.96 8.18 216.39 8.84 216.39 8.84 216.79" fill="#3f8e2d"/>
            <path d="M22.84,222.74s-.04.08-.04.12c-.02,0-.04.02-.05.04-.02.05.02.12.08.17.02.02.04.03.05.04.03.02.06.02.08.02s.03,0,.04-.01c.02-.02.03-.04.02-.07,0-.03-.02-.06-.03-.07,0-.02.01-.05.02-.08.01-.05.01-.06.02-.07h0s.03-.08.05-.1h.03s.27.12.27.12c-.04.03-.08.07-.1.12-.02.04-.03.09-.03.13-.02.01-.04.03-.04.06,0,.06.05.13.12.17,0,0,.02,0,.03.01.02,0,.04.01.06.01.03,0,.05,0,.06-.02.02-.02.03-.05.02-.08,0-.03-.03-.06-.04-.07,0-.03,0-.06,0-.08,0-.03,0-.04.01-.08h0s.03-.09.05-.12h.03s.29.07.29.07c0,0-.01.01-.02.02-.07.08-.09.19-.09.27-.02.02-.04.04-.03.07,0,.06.06.13.14.16,0,0,.02,0,.03,0,.01,0,.03,0,.04,0,.04,0,.07-.02.08-.03.02-.02.02-.05.01-.09-.01-.03-.04-.06-.05-.07,0-.02,0-.05,0-.09,0-.06,0-.07,0-.09h0s0,0,0,0c0-.06.02-.1.03-.13h.04s.29.03.29.03c0,0-.01.01-.02.02-.07.09-.08.21-.06.29-.03.02-.04.06-.03.09.02.06.09.12.17.13,0,0,0,0,.01,0h0s0,0,0,0c.06,0,.09-.02.11-.05.02-.03.02-.06,0-.09-.01-.03-.04-.05-.05-.06,0-.03,0-.06,0-.09,0-.04,0-.04,0-.09h0c0-.08.01-.12.02-.15h0s.04,0,.04,0v-.02s0,.02,0,.02h.04s0,0,0,0h.02s.03,0,.03,0h0c.07,0,.13,0,.2-.02-.02.03-.03.05-.04.09-.01.04-.02.15,0,.25-.03.03-.03.07-.02.1.02.06.1.11.18.11h0s0,0,.01,0h0c.07,0,.1-.04.11-.06.01-.03.01-.06,0-.1-.02-.03-.05-.05-.06-.06,0-.03,0-.06-.01-.09,0-.01,0-.03-.01-.09h0s0,0,0,0c0-.06,0-.11,0-.15.11-.02.22-.04.33-.06-.02.03-.03.06-.04.1,0,.04,0,.16.02.26-.02.04-.03.08,0,.11.03.05.1.09.17.09,0,0,.02,0,.03,0h.02c.07-.02.09-.05.1-.08.01-.03,0-.07-.01-.1-.02-.03-.05-.05-.06-.05,0-.03-.02-.07-.03-.1-.01-.05-.02-.07-.02-.1-.01-.07-.01-.12,0-.16.11-.03.22-.07.32-.11-.01.03-.02.07-.03.1,0,.04,0,.17.04.26-.02.04-.02.08,0,.12.03.04.09.07.15.07.02,0,.03,0,.05,0h.02c.06-.03.09-.07.09-.1,0-.03,0-.07-.02-.1-.02-.03-.05-.04-.07-.05,0-.03-.02-.07-.04-.1,0-.01-.01-.04-.03-.09h0s0,0,0,0c-.02-.07-.03-.12-.02-.17.11-.04.21-.1.31-.15-.01.04-.02.09-.02.13,0,.02.02.15.07.24-.02.04-.01.09.02.12.03.04.08.06.13.06.02,0,.04,0,.06,0,0,0,.02,0,.03-.01.06-.03.08-.08.08-.11,0-.03,0-.07-.03-.1-.03-.03-.06-.04-.07-.04-.01-.03-.03-.06-.05-.1-.02-.05-.03-.07-.04-.1-.03-.07-.04-.12-.04-.17.1-.06.2-.12.3-.19,0,.04,0,.09,0,.13,0,.02.04.15.1.25-.01.05,0,.09.03.13.03.03.07.04.11.04.03,0,.06,0,.08-.02,0,0,.02-.01.03-.02.06-.04.07-.09.07-.12,0-.04-.01-.07-.04-.1-.03-.02-.06-.03-.08-.03-.02-.03-.04-.06-.05-.09t-.05-.09h0c-.03-.07-.05-.13-.06-.17.07-.05.14-.11.21-.17h.02s-.01,0-.01,0c.02-.02.04-.04.06-.06,0,.04,0,.09.01.13,0,.02.05.16.12.25,0,.05,0,.1.05.13.03.02.06.03.09.03.03,0,.07,0,.1-.03,0,0,.02-.01.03-.02.05-.05.06-.1.06-.13,0-.04-.02-.07-.05-.09-.03-.02-.07-.03-.09-.03-.02-.03-.04-.06-.06-.09,0-.01-.02-.03-.06-.09h0c-.04-.07-.06-.13-.07-.17.07-.07.13-.13.19-.2h0s0,0,0,0c.02-.02.04-.05.06-.07,0,.06.01.11.03.15,0,0,.06.14.14.22,0,.06.02.1.06.13.02.01.04.02.07.02.04,0,.08-.02.12-.04,0,0,.02-.02.03-.02.05-.06.05-.11.05-.15,0-.04-.03-.07-.06-.09-.03-.02-.06-.02-.08-.02-.02-.03-.05-.06-.07-.08t-.07-.09h0c-.04-.06-.07-.12-.09-.17.01-.01.02-.03.03-.04h0s.01-.02.01-.02c0,0,0,0,0,0v-.02s.01,0,.01,0c.02-.03.04-.05.06-.08h0s.11.01.19.03h0q.06.02.11.04s.07.03.11.04c.01.05.05.09.1.1,0,0,.02,0,.03,0,.05,0,.11-.03.15-.09.04-.07.03-.12.02-.15-.01-.04-.04-.07-.07-.08-.05-.02-.09,0-.11,0-.06-.03-.24-.09-.42-.04.07-.1.13-.21.19-.32.05,0,.11,0,.19.01h0s.05.01.11.03c.04.01.08.02.11.03.02.05.06.09.11.09,0,0,0,0,.01,0,.06,0,.11-.04.15-.11.03-.07.02-.12,0-.15-.02-.03-.05-.06-.08-.07-.05-.01-.09,0-.11.01-.08-.02-.25-.06-.41,0,.05-.11.1-.22.15-.34.05-.01.11-.01.19,0h0c.07,0,.09.01.1.02.04,0,.08.01.11.02.03.05.07.08.12.08,0,0,0,0,0,0,.06,0,.11-.05.14-.12.02-.07,0-.12-.01-.15-.02-.03-.05-.06-.09-.06-.05-.01-.09.01-.11.02-.07-.02-.25-.04-.4.04.04-.11.07-.23.1-.34.05-.01.11-.02.18-.02h0q.06,0,.11,0s.08,0,.11.01c.03.04.07.07.11.07,0,0,.01,0,.02,0,.06,0,.1-.06.12-.13.01-.07-.01-.12-.03-.15-.02-.03-.06-.05-.09-.06-.05,0-.08.02-.1.03-.08-.01-.25-.02-.39.07.03-.12.05-.23.06-.35.04-.02.1-.03.17-.04h0s0,0,0,0c.05,0,.11,0,.11,0,.04,0,.08,0,.11,0,.03.04.07.06.11.06,0,0,.02,0,.03,0,.05-.01.09-.06.1-.12,0,0,0,0,0-.01h0c0-.08-.02-.12-.05-.15-.03-.03-.06-.05-.1-.05-.05,0-.08.02-.09.04-.07,0-.24,0-.38.11.01-.12.02-.23.02-.35.04-.02.09-.03.17-.05h0s0,0,0,0q.06,0,.1-.01s.07,0,.11,0c.03.03.07.05.1.05.01,0,.03,0,.04,0,.05-.02.08-.07.08-.13,0,0,0,0,0-.01h0c-.01-.13-.1-.18-.16-.18-.05,0-.07.03-.09.05-.07,0-.24.03-.35.14,0-.11-.01-.23-.02-.34.04-.02.09-.05.15-.06h0s0,0,0,0c.03,0,.05-.01.1-.02.04,0,.07-.01.1-.02.03.02.07.04.1.04.02,0,.04,0,.05-.01.04-.02.07-.07.06-.13v-.02c-.03-.12-.12-.16-.18-.16-.05,0-.07.04-.08.05-.12.01-.25.07-.33.17-.01-.08-.03-.15-.04-.22v-.02s-.03,0-.03,0h.02s0-.03,0-.03h-.02s.02,0,.02,0h0s-.02,0-.02,0h.02s0-.03,0-.03h-.02s0,0,0,0h.02s-.02,0-.02,0h0s0,0,0,0h0s0,0,0,0h0s0,0,0,0c.03-.03.08-.05.15-.08h0s.05-.02.09-.03c.04-.01.07-.02.1-.03.03.02.06.03.09.03.02,0,.04,0,.06-.02.04-.03.06-.08.04-.13,0,0,0,0,0-.02-.04-.12-.14-.15-.2-.14-.04.01-.06.04-.07.06-.07.02-.22.06-.3.19l-.11-.32s.08-.06.13-.09h0s.03-.01.09-.04c.03-.01.07-.02.09-.03.03.01.05.02.08.02s.05,0,.07-.02c.03-.03.05-.07.03-.12,0,0,0-.02-.01-.03-.06-.11-.16-.13-.21-.11-.04.01-.06.04-.06.06-.06.02-.2.08-.27.21l-.15-.3s.05-.05.09-.08h-.91s-.06.06-.06.1c0,.05.04.09.09.11.02,0,.04.01.06.01.05,0,.11-.02.14-.07.03,0,.07-.01.11-.02.06,0,.06,0,.11-.01h0s0,0,0,0c.11,0,.17,0,.19,0h0s.13.28.13.28c-.15-.07-.32-.06-.41-.04-.05-.02-.1-.02-.14,0-.05.02-.09.06-.08.11,0,.05.03.09.09.11.04.02.13.03.19-.04.04,0,.08,0,.12,0,.07,0,.08,0,.11,0h0c.09,0,.15.01.19.03v.02s.1.28.1.28c-.14-.08-.3-.09-.41-.09-.05-.03-.09-.03-.14-.02-.06.02-.09.06-.1.11,0,.05.02.1.07.12.04.02.13.04.2-.02.03,0,.07,0,.12,0,.06,0,.07,0,.11,0h0c.08,0,.14.03.19.05l.02.1h0s.02,0,.02,0h-.02c.01.08.03.15.04.22-.12-.1-.29-.13-.4-.13-.04-.03-.09-.04-.14-.03-.06.01-.1.05-.11.1-.01.05.01.1.06.13.04.03.13.06.2,0,.04,0,.08.01.12.01.06,0,.08.01.11.02h0s0,0,0,0c.08.02.14.04.18.07.01.1.02.21.02.32-.11-.11-.27-.16-.39-.17-.04-.04-.08-.05-.13-.05-.06,0-.11.04-.13.09-.02.05,0,.1.04.13.03.03.12.07.2.02.04.01.08.02.12.03.06.01.06.01.11.03h0c.08.03.14.06.18.09,0,.11,0,.22-.02.33-.1-.13-.26-.19-.37-.21-.03-.04-.08-.06-.13-.06-.06,0-.12.03-.14.08-.02.05-.01.1.03.14.03.03.11.08.21.04.03.01.07.03.11.04,0,0,.06.02.11.04.08.03.13.07.17.1-.01.11-.03.22-.06.33-.08-.13-.24-.21-.35-.25-.03-.04-.07-.07-.12-.08-.06,0-.12.02-.15.06-.03.04-.02.1.01.14.03.04.1.1.2.06.04.02.08.04.11.05q.05.03.1.05c.07.04.12.08.16.12-.03.11-.06.22-.1.33-.07-.15-.22-.24-.32-.28-.02-.05-.06-.08-.11-.09-.06-.01-.12,0-.16.05-.03.04-.03.09,0,.14.02.04.09.11.19.08.03.02.06.04.1.06.02,0,.04.02.09.06h0c.07.05.11.1.14.14-.04.11-.09.21-.14.32-.05-.15-.18-.26-.28-.32-.02-.05-.05-.08-.1-.1-.06-.02-.13,0-.17.04-.04.04-.04.1-.01.15.02.04.08.1.17.09.03.03.07.05.1.07.06.04.06.05.09.07h0c.06.06.1.1.12.15-.06.1-.12.21-.18.31-.03-.16-.16-.28-.24-.35-.01-.05-.04-.09-.09-.11-.06-.03-.13-.02-.17.02-.04.04-.05.09-.03.15.02.04.07.11.16.11,0,0,0,0,0,0,.03.03.06.06.09.08t.08.08h0c.06.07.09.12.11.16-.02.03-.04.06-.07.09h0s-.03.04-.04.06c-.05,0-.11-.02-.19-.05h0q-.06-.03-.1-.05s-.07-.04-.11-.06c0-.02-.02-.06-.07-.09-.06-.04-.13-.04-.18,0-.05.03-.07.08-.05.14.01.05.06.13.16.13,0,0,0,0,0,0,.09.06.25.14.42.12-.08.09-.16.18-.25.27-.05,0-.11-.03-.18-.07h0c-.06-.04-.08-.05-.09-.06-.04-.02-.07-.05-.1-.06,0-.02-.01-.07-.06-.1-.05-.04-.12-.05-.18-.02-.05.03-.07.07-.06.13,0,.06.05.14.16.15.09.09.24.17.4.17-.09.08-.17.15-.26.22-.06-.02-.12-.06-.17-.09h0s-.05-.04-.09-.07c-.03-.03-.06-.05-.09-.08,0-.02,0-.06-.05-.1-.05-.05-.12-.07-.17-.04-.05.02-.07.06-.07.12,0,.06.04.14.14.16.08.09.22.19.37.21-.09.06-.19.13-.28.18-.05-.02-.1-.06-.16-.11h0s-.04-.04-.08-.08c-.02-.03-.05-.06-.08-.09,0-.02,0-.06-.04-.11-.04-.06-.11-.08-.17-.06-.05.01-.08.05-.08.11,0,.05.03.14.13.18.07.1.2.21.34.25-.1.05-.19.1-.29.14-.05-.03-.1-.07-.15-.13h0s-.06-.07-.07-.09c-.02-.03-.05-.06-.07-.1,0-.02,0-.06-.03-.11-.04-.06-.1-.09-.16-.08-.05,0-.08.04-.09.09-.01.05.01.14.11.19.06.11.17.23.32.28-.1.04-.2.07-.3.1-.04-.03-.09-.08-.13-.14h0s-.03-.05-.06-.1c-.02-.03-.04-.07-.06-.1,0-.02.01-.06-.01-.11-.03-.06-.09-.1-.16-.1-.05,0-.08.03-.09.08-.02.05,0,.14.08.19.05.1.13.2.18.25.03.03.06.05.1.06-.1.02-.2.04-.3.06-.04-.03-.08-.09-.12-.15h0c-.03-.06-.04-.08-.05-.1-.02-.04-.04-.07-.05-.1,0-.02.02-.06,0-.11-.03-.07-.08-.11-.15-.12-.05,0-.08.02-.1.06-.02.05-.02.14.07.2.04.11.12.25.24.33-.06,0-.12,0-.18.01h0s-.03,0-.03,0h0s0,0,0,0h0s0,0,0,0h0s0,.02,0,.02h0s0-.02,0-.02v.02s0-.02,0-.02v.02s0-.02,0-.02v.02s0-.02,0-.02v.02s0-.02,0-.02v.02s0-.02,0-.02h0s0,.02,0,.02v-.02s0,.02,0,.02v-.02s0,.02,0,.02v-.02s-.02,0-.02,0c-.04-.05-.08-.12-.1-.16h0q-.02-.05-.04-.1s-.03-.07-.04-.11c0-.02.02-.05,0-.1-.02-.07-.07-.12-.13-.13-.04,0-.08.01-.1.05-.02.04-.03.13.04.2.03.1.08.22.13.27.02.03.05.06.08.08l-.3-.03s-.06-.1-.09-.17h0s-.01-.04-.03-.11c-.01-.04-.02-.07-.03-.1,0-.01.03-.05.02-.1-.01-.07-.06-.13-.12-.15-.04-.01-.08,0-.1.03-.03.04-.05.12.02.2.01.11.06.26.17.36l-.29-.07c-.03-.06-.06-.13-.07-.18h0q-.01-.06-.02-.11s-.01-.07-.02-.11c.02-.02.03-.06.03-.09,0-.08-.06-.15-.11-.16-.04-.01-.08,0-.1.03-.02.03-.05.1.01.19,0,.11.04.25.12.37l-.27-.11c-.03-.06-.04-.13-.05-.18h0s0,0,0,0c0-.03,0-.04-.01-.1,0-.03,0-.07,0-.11.02-.02.03-.05.04-.08,0-.08-.05-.15-.1-.18-.04-.02-.07-.01-.1.01-.03.02-.06.09,0,.19,0,.1.01.24.08.37-.09-.05-.17-.09-.25-.15,0-.02-.01-.03-.01-.05v.21c.09.06.17.11.27.16-.04.02-.08.05-.1.09ZM22.85,223.01s0,0,0,0c0,0,0,0,0,0h0ZM28.41,217.87h0s0,0,0,0h0ZM28.4,217.83h0,0ZM28.4,217.81h0s0,0,0,0h0ZM28.39,217.79h0,0ZM28.2,217.22s0,0,0,0h0s0,0,0,0ZM28.27,217.86h0,0ZM28.27,217.88h0,0ZM27.79,218.49s0,0,0,0h0s0,0,0,0ZM27.78,218.93s0,0,0,0h0s0,0,0,0ZM26.62,222.14h0s0,0,0,0h0ZM24.47,222.87h0s0,0,0,0h0Z" fill="#ba0c2f"/>
            <polygon points="37.27 232.94 41.84 232.94 52.1 212.7 47.53 212.7 43.08 222.09 38.6 212.7 34 212.7 40.77 226.26 38.9 229.82 34.69 229.82 33.09 232.94 37.27 232.94"/>
            <polygon points="32.19 229.82 30.59 232.94 31 232.94 32.6 229.82 32.19 229.82"/>
            <polygon points="30.82 229.82 29.19 232.94 30.16 232.94 31.76 229.82 30.82 229.82"/>
            <polygon points="32.67 232.94 34.27 229.82 33.86 229.82 32.26 232.94 32.67 232.94"/>
            <polygon points="33.43 229.82 33.02 229.82 31.42 232.94 31.83 232.94 33.43 229.82"/>
            <polygon points="32.19 229.82 31.76 229.82 31.76 229.82 30.16 232.94 30.16 232.94 30.59 232.94 30.59 232.94 32.19 229.82 32.19 229.82" fill="#658dc6"/>
            <polygon points="33.02 229.82 32.6 229.82 32.6 229.82 31 232.94 31 232.94 31.42 232.94 31.42 232.94 33.02 229.82 33.02 229.82" fill="#658dc6"/>
            <polygon points="31.83 232.94 32.26 232.94 32.26 232.94 33.86 229.82 33.86 229.82 33.43 229.82 33.43 229.82 31.83 232.94 31.83 232.94" fill="#658dc6"/>
            <polygon points="32.67 232.94 33.09 232.94 33.09 232.94 34.69 229.82 34.69 229.82 34.27 229.82 34.27 229.82 32.67 232.94 32.67 232.94" fill="#658dc6"/>
            <polygon points="7.84 232.94 18.1 212.7 13.53 212.7 9.08 222.09 4.6 212.7 0 212.7 6.77 226.26 3.27 232.94 7.84 232.94"/>
            <path d="M33.99,225.07v-9.72l-2.66-2.66h-10.56l-2.66,2.66v9.72l2.66,2.66h10.56l2.66-2.66ZM29.8,224h-7.49v-7.58h7.49v7.58Z"/>
            <path d="M39.14,213.1l.58,1.19.11.24.54,1.12.11.24.54,1.12.11.24.54,1.12.11.24.54,1.12.11.24.54,1.12.11.24.11-.24.54-1.12.11-.24.54-1.12.11-.24.54-1.12.11-.24.54-1.12.11-.24.54-1.12.11-.24.57-1.19.08-.17.11-.24h-.11s0,0,0,0h-8.06s-.11,0-.11,0l.11.23.08.17ZM39.94,214.3l.54-1.12.54,1.12-.54,1.12-.54-1.12ZM40.59,215.65l.54-1.12.54,1.12-.54,1.12-.54-1.12ZM41.78,213.18l.54,1.12-.54,1.12-.54-1.12.54-1.12ZM43.08,213.18l.54,1.12-.54,1.12-.54-1.12.54-1.12ZM44.38,213.18l.54,1.12-.54,1.12-.54-1.12.54-1.12ZM44.27,215.65l-.54,1.12-.54-1.12.54-1.12.54,1.12ZM43.62,217l-.54,1.12-.54-1.12.54-1.12.54,1.12ZM42.97,215.65l-.54,1.12-.54-1.12.54-1.12.54,1.12ZM41.24,217l.54-1.12.54,1.12-.54,1.12-.54-1.12ZM41.9,218.36l.54-1.12.54,1.12-.54,1.12-.54-1.12ZM43.09,220.83l-.54-1.12.54-1.12.54,1.12-.54,1.12ZM43.74,219.47l-.54-1.12.54-1.12.54,1.12-.54,1.12ZM44.39,218.12l-.54-1.12.54-1.12.54,1.12-.54,1.12ZM45.04,216.77l-.54-1.12.54-1.12.54,1.12-.54,1.12ZM45.69,215.42l-.54-1.12.54-1.12.54,1.12-.54,1.12ZM46.8,213.1l-.46.96-.46-.96h.92ZM45.5,213.1l-.46.96-.46-.96h.92ZM44.19,213.1l-.46.96-.46-.96h.92ZM42.89,213.1l-.46.96-.46-.96h.92ZM41.59,213.1l-.46.96-.46-.96h.92ZM40.28,213.1l-.46.96-.46-.96h.92Z" fill="#ff671f"/>
          </g>
        </g>
        <g>
          <g>
            <g>
              <path d="M0,283.29v-14.18l3.04-3.04h13.66l3.04,3.04v4.72h-4.46v-3.62H4.46v11.98h10.82v-3.62h4.46v4.72l-3.04,3.04H3.04l-3.04-3.04Z"/>
              <path d="M21.29,283.29v-17.22h4.46v16.12h10.59v-16.12h4.46v17.22l-3.04,3.04h-13.42l-3.04-3.04Z"/>
              <path d="M42.34,266.08h15.86l3.04,3.04v6.92l-3.04,3.04h-11.4v7.26h-4.46v-20.25ZM56.78,275.04v-4.95h-9.98v4.95h9.98Z"/>
            </g>
            <path d="M75.25,263.53h3.88v25.35h-3.88v-25.35Z"/>
          </g>
          <g>
            <path d="M91.4,278.61l14.68-6.73v-2.03h-10.15v3.97h-4.47v-4.79l3.05-3.05h13l3.05,3.05v5.25l-14.68,6.73v1.42h10.3v-3.97h4.47v7.83h-19.23v-7.69Z"/>
            <path d="M112.61,283.26v-14.21l3.05-3.05h12.85l3.05,3.05v3.57h-4.47v-2.78h-10.01v4.32h11.66l2.93,2.93v6.18l-3.05,3.05h-12.97l-3.05-3.05ZM127.2,282.47v-4.5h-10.12v4.5h10.12Z"/>
            <path d="M133.64,275.54h12.44v3.77h-12.44v-3.77Z"/>
            <path d="M148.06,278.61l14.68-6.73v-2.03h-10.15v3.97h-4.47v-4.79l3.05-3.05h13l3.05,3.05v5.25l-14.68,6.73v1.42h10.3v-3.97h4.47v7.83h-19.23v-7.69Z"/>
            <path d="M182.61,270h-13.34v-4h18.33v3.57l-9.86,16.74h-4.87l9.75-16.3Z"/>
          </g>
        </g>
      </g>
    </g>
  </g>
</svg>