<?xml version="1.0" encoding="UTF-8"?>
<svg id="Layer_2" data-name="Layer 2" xmlns="http://www.w3.org/2000/svg" viewBox="0 0 699.25 314.76">
  <g id="Layer_1-2" data-name="Layer 1">
    <g>
      <g>
        <g>
          <path d="M289.4,6h42.15v138.49h-42.15V6Z" fill="#353a3d" stroke="#fff" stroke-miterlimit="10" stroke-width="12"/>
          <path d="M367.67,6h42.15v138.49h-42.15V6Z" fill="#353a3d" stroke="#fff" stroke-miterlimit="10" stroke-width="12"/>
        </g>
        <rect x="6" y="144.5" width="687.25" height="73.92" rx="20.6" ry="20.6" fill="#95a2ac" stroke="#fff" stroke-miterlimit="10" stroke-width="12"/>
        <g>
          <g>
            <path d="M58.57,188.56c.12,2.74.42,3.39,1.84,3.93.89.36,4.28.59,8.09.59,13.98,0,15.64-.42,15.64-3.69,0-1.61-.77-2.8-2.02-3.21q-1.31-.42-7.55-.48h-10.94c-7.32,0-10.35-.42-12.91-1.72-2.85-1.49-4.16-4.64-4.16-10.05,0-7.14,2.02-10.17,7.73-11.54,3.21-.83,7.85-1.13,16.54-1.13,13.92,0,17.13.36,19.98,2.2,2.74,1.84,3.63,4.28,3.63,10.23h-11.78c0-3.45-1.19-3.92-8.98-3.92-3.87,0-9.04.12-10.94.24-3.21.24-4.28,1.07-4.28,3.33,0,1.67.83,2.74,2.56,3.15.71.18.95.24,4.88.3h11.24c1.07,0,6.42.18,8.45.3,7.55.36,10.53,3.69,10.53,11.66,0,7.32-2.14,10.53-7.97,11.78-2.97.65-8.86,1.01-17.49,1.01-13.74,0-16.77-.3-20.28-2.08-2.44-1.19-3.69-4.22-3.69-8.92,0-.36,0-1.13.06-1.96h11.84Z" fill="#353a3d" stroke="#fff" stroke-miterlimit="10" stroke-width="12"/>
            <path d="M117.45,161.56v19.63c0,4.34,0,4.46.18,5.53.59,4.46,2.56,5.35,11.6,5.35s11.54-.24,13.03-1.37c1.19-.89,1.78-2.62,1.84-5.65q.06-.89.06-5.29v-18.2h12.07v20.82c.12,9.81-.71,12.73-4.22,15.88-2.85,2.2-6.42,3.15-11.6,3.21-1.84.06-2.91.06-5.29.06l-4.52.06c-11.18-.06-13.38-.18-16.3-.95-7.2-2.2-9.1-5.95-8.92-17.72v-21.35h12.07Z" fill="#353a3d" stroke="#fff" stroke-miterlimit="10" stroke-width="12"/>
            <path d="M166.22,161.56h30.33c7.67,0,9.64.24,12.13,1.49,3.98,1.96,5.47,5.59,5.47,13.09s-1.37,11.48-4.64,13.5c-2.32,1.43-5,1.84-11.9,1.84h-19.39v9.75h-12.01v-39.67ZM195.79,181.84c4.94,0,6.36-1.07,6.36-4.82,0-4.76-1.19-5.83-6.36-5.83h-17.55v10.65h17.55Z" fill="#353a3d" stroke="#fff" stroke-miterlimit="10" stroke-width="12"/>
            <path d="M222.73,161.56h30.33c7.67,0,9.64.24,12.13,1.49,3.98,1.96,5.47,5.59,5.47,13.09s-1.37,11.48-4.64,13.5c-2.32,1.43-5,1.84-11.9,1.84h-19.39v9.75h-12.01v-39.67ZM252.29,181.84c4.94,0,6.36-1.07,6.36-4.82,0-4.76-1.19-5.83-6.36-5.83h-17.55v10.65h17.55Z" fill="#353a3d" stroke="#fff" stroke-miterlimit="10" stroke-width="12"/>
            <path d="M323.18,161.56v8.98h-32.06v6.84h30.22v7.85h-30.22v7.02h32.48v8.98h-44.37v-39.67h43.95Z" fill="#353a3d" stroke="#fff" stroke-miterlimit="10" stroke-width="12"/>
            <path d="M332.52,161.56h34.2c7.02,0,10.11.59,12.37,2.5,2.32,1.84,3.39,5.23,3.39,10.59,0,7.38-1.78,10.29-6.84,11.42,4.94.83,6.42,2.91,6.3,8.92v6.25h-12.25v-4.94c-.06-4.28-1.25-5.17-6.66-5.06h-18.5v9.99h-12.01v-39.67ZM363.39,181.54c5.83,0,6.96-.71,6.96-4.64,0-2.56-.24-3.63-1.01-4.46-.89-.95-1.9-1.13-5.53-1.13h-19.27v10.23h18.85Z" fill="#353a3d" stroke="#fff" stroke-miterlimit="10" stroke-width="12"/>
            <path d="M407.28,161.56h35.81c4.58,0,7.08.42,9.16,1.43,3.21,1.67,4.52,4.34,4.52,9.4s-1.78,7.85-5.53,8.57c5.35,1.01,7.14,3.33,7.14,9.1,0,5-1.43,8.15-4.58,9.81-1.84.95-4.46,1.37-9.04,1.37h-37.47v-39.67ZM439.34,177.38c2.32,0,3.15-.12,3.93-.48.95-.54,1.55-1.61,1.55-2.97,0-1.61-.77-2.8-2.08-3.27-.77-.24-1.37-.3-3.69-.3h-19.98v7.02h20.28ZM440.65,192.43c2.44,0,2.91-.06,3.69-.3,1.19-.42,1.9-1.61,1.9-3.27s-.71-2.92-2.02-3.39c-.71-.24-1.19-.3-3.87-.3h-21.29v7.26h21.59Z" fill="#353a3d" stroke="#fff" stroke-miterlimit="10" stroke-width="12"/>
            <path d="M510.83,161.73c6.13,1.13,9.1,4.28,9.93,10.65.24,1.61.36,4.82.36,9.64,0,9.58-1.01,13.44-4.4,16.24-2.38,2.02-5.71,2.97-11.48,3.21-2.14.12-7.44.18-11.3.18-9.46,0-14.27-.18-16.65-.65-4.4-.77-6.96-2.44-8.45-5.35-1.55-2.92-1.9-5.83-1.9-14.51,0-6.66.12-8.33.83-11,1.13-4.22,3.45-6.48,7.91-7.79,3.33-.95,6.96-1.19,17.43-1.19,11.42,0,14.93.12,17.72.59ZM481.21,172.26c-1.61,1.25-2.08,3.21-2.08,8.92s.48,7.97,1.96,9.22c1.61,1.31,3.57,1.55,12.67,1.55,10.41,0,12.55-.36,13.92-2.26,1.13-1.43,1.43-3.45,1.43-8.74,0-9.99-.18-10.11-15.05-10.11-8.86,0-11.3.3-12.85,1.43Z" fill="#353a3d" stroke="#fff" stroke-miterlimit="10" stroke-width="12"/>
            <path d="M538.79,161.56l11.54,30.21,10.23-30.21h14.57l9.93,30.21,11.9-30.21h12.25l-16.42,39.67h-16.18l-8.8-28.55-9.22,28.55h-16.06l-16-39.67h12.25Z" fill="#353a3d" stroke="#fff" stroke-miterlimit="10" stroke-width="12"/>
            <path d="M616.88,161.56h12.07v29.86h27.3v9.81h-39.38v-39.67Z" fill="#353a3d" stroke="#fff" stroke-miterlimit="10" stroke-width="12"/>
          </g>
          <g>
            <path d="M58.14,188.56c.12,2.74.42,3.39,1.84,3.93.89.36,4.28.59,8.09.59,13.98,0,15.64-.42,15.64-3.69,0-1.61-.77-2.8-2.02-3.21q-1.31-.42-7.55-.48h-10.94c-7.32,0-10.35-.42-12.91-1.72-2.85-1.49-4.16-4.64-4.16-10.05,0-7.14,2.02-10.17,7.73-11.54,3.21-.83,7.85-1.13,16.54-1.13,13.92,0,17.13.36,19.98,2.2,2.74,1.84,3.63,4.28,3.63,10.23h-11.78c0-3.45-1.19-3.92-8.98-3.92-3.87,0-9.04.12-10.94.24-3.21.24-4.28,1.07-4.28,3.33,0,1.67.83,2.74,2.56,3.15.71.18.95.24,4.88.3h11.24c1.07,0,6.42.18,8.45.3,7.55.36,10.53,3.69,10.53,11.66,0,7.32-2.14,10.53-7.97,11.78-2.97.65-8.86,1.01-17.49,1.01-13.74,0-16.77-.3-20.28-2.08-2.44-1.19-3.69-4.22-3.69-8.92,0-.36,0-1.13.06-1.96h11.84Z" fill="#353a3d" stroke="#fff" stroke-miterlimit="10" stroke-width="12"/>
            <path d="M117.02,161.56v19.63c0,4.34,0,4.46.18,5.53.59,4.46,2.56,5.35,11.6,5.35s11.54-.24,13.03-1.37c1.19-.89,1.78-2.62,1.84-5.65q.06-.89.06-5.29v-18.2h12.07v20.82c.12,9.81-.71,12.73-4.22,15.88-2.85,2.2-6.42,3.15-11.6,3.21-1.84.06-2.91.06-5.29.06l-4.52.06c-11.18-.06-13.38-.18-16.3-.95-7.2-2.2-9.1-5.95-8.92-17.72v-21.35h12.07Z" fill="#353a3d" stroke="#fff" stroke-miterlimit="10" stroke-width="12"/>
            <path d="M165.8,161.56h30.33c7.67,0,9.64.24,12.13,1.49,3.98,1.96,5.47,5.59,5.47,13.09s-1.37,11.48-4.64,13.5c-2.32,1.43-5,1.84-11.9,1.84h-19.39v9.75h-12.01v-39.67ZM195.36,181.84c4.94,0,6.36-1.07,6.36-4.82,0-4.76-1.19-5.83-6.36-5.83h-17.55v10.65h17.55Z" fill="#353a3d" stroke="#fff" stroke-miterlimit="10" stroke-width="12"/>
            <path d="M222.3,161.56h30.33c7.67,0,9.64.24,12.13,1.49,3.98,1.96,5.47,5.59,5.47,13.09s-1.37,11.48-4.64,13.5c-2.32,1.43-5,1.84-11.9,1.84h-19.39v9.75h-12.01v-39.67ZM251.86,181.84c4.94,0,6.36-1.07,6.36-4.82,0-4.76-1.19-5.83-6.36-5.83h-17.55v10.65h17.55Z" fill="#353a3d" stroke="#fff" stroke-miterlimit="10" stroke-width="12"/>
            <path d="M322.75,161.56v8.98h-32.06v6.84h30.22v7.85h-30.22v7.02h32.48v8.98h-44.37v-39.67h43.95Z" fill="#353a3d" stroke="#fff" stroke-miterlimit="10" stroke-width="12"/>
            <path d="M332.09,161.56h34.2c7.02,0,10.11.59,12.37,2.5,2.32,1.84,3.39,5.23,3.39,10.59,0,7.38-1.78,10.29-6.84,11.42,4.94.83,6.42,2.91,6.3,8.92v6.25h-12.25v-4.94c-.06-4.28-1.25-5.17-6.66-5.06h-18.5v9.99h-12.01v-39.67ZM362.96,181.54c5.83,0,6.96-.71,6.96-4.64,0-2.56-.24-3.63-1.01-4.46-.89-.95-1.9-1.13-5.53-1.13h-19.27v10.23h18.85Z" fill="#353a3d" stroke="#fff" stroke-miterlimit="10" stroke-width="12"/>
            <path d="M406.85,161.56h35.81c4.58,0,7.08.42,9.16,1.43,3.21,1.67,4.52,4.34,4.52,9.4s-1.78,7.85-5.53,8.57c5.35,1.01,7.14,3.33,7.14,9.1,0,5-1.43,8.15-4.58,9.81-1.84.95-4.46,1.37-9.04,1.37h-37.47v-39.67ZM438.91,177.38c2.32,0,3.15-.12,3.93-.48.95-.54,1.55-1.61,1.55-2.97,0-1.61-.77-2.8-2.08-3.27-.77-.24-1.37-.3-3.69-.3h-19.98v7.02h20.28ZM440.22,192.43c2.44,0,2.91-.06,3.69-.3,1.19-.42,1.9-1.61,1.9-3.27s-.71-2.92-2.02-3.39c-.71-.24-1.19-.3-3.87-.3h-21.29v7.26h21.59Z" fill="#353a3d" stroke="#fff" stroke-miterlimit="10" stroke-width="12"/>
            <path d="M510.4,161.73c6.13,1.13,9.1,4.28,9.93,10.65.24,1.61.36,4.82.36,9.64,0,9.58-1.01,13.44-4.4,16.24-2.38,2.02-5.71,2.97-11.48,3.21-2.14.12-7.44.18-11.3.18-9.46,0-14.27-.18-16.65-.65-4.4-.77-6.96-2.44-8.45-5.35-1.55-2.92-1.9-5.83-1.9-14.51,0-6.66.12-8.33.83-11,1.13-4.22,3.45-6.48,7.91-7.79,3.33-.95,6.96-1.19,17.43-1.19,11.42,0,14.93.12,17.72.59ZM480.78,172.26c-1.61,1.25-2.08,3.21-2.08,8.92s.48,7.97,1.96,9.22c1.61,1.31,3.57,1.55,12.67,1.55,10.41,0,12.55-.36,13.92-2.26,1.13-1.43,1.43-3.45,1.43-8.74,0-9.99-.18-10.11-15.05-10.11-8.86,0-11.3.3-12.85,1.43Z" fill="#353a3d" stroke="#fff" stroke-miterlimit="10" stroke-width="12"/>
            <path d="M538.36,161.56l11.54,30.21,10.23-30.21h14.57l9.93,30.21,11.9-30.21h12.25l-16.42,39.67h-16.18l-8.8-28.55-9.22,28.55h-16.06l-16-39.67h12.25Z" fill="#353a3d" stroke="#fff" stroke-miterlimit="10" stroke-width="12"/>
            <path d="M616.45,161.56h12.07v29.86h27.3v9.81h-39.38v-39.67Z" fill="#353a3d" stroke="#fff" stroke-miterlimit="10" stroke-width="12"/>
          </g>
        </g>
      </g>
      <g>
        <g>
          <g>
            <path d="M289.41,6h42.15v138.49h-42.15V6Z" fill="#353a3d"/>
            <path d="M367.69,6h42.15v138.49h-42.15V6Z" fill="#353a3d"/>
          </g>
          <rect x="6" y="144.5" width="687.25" height="73.92" rx="20.6" ry="20.6" fill="#95a2ac" stroke="#353a3d" stroke-miterlimit="10" stroke-width="4.98"/>
          <g>
            <g>
              <path d="M58.58,188.56c.12,2.74.42,3.39,1.84,3.93.89.36,4.28.59,8.09.59,13.98,0,15.64-.42,15.64-3.69,0-1.61-.77-2.8-2.02-3.21q-1.31-.42-7.55-.48h-10.94c-7.32,0-10.35-.42-12.91-1.72-2.85-1.49-4.16-4.64-4.16-10.05,0-7.14,2.02-10.17,7.73-11.54,3.21-.83,7.85-1.13,16.54-1.13,13.92,0,17.13.36,19.98,2.2,2.74,1.84,3.63,4.28,3.63,10.23h-11.78c0-3.45-1.19-3.92-8.98-3.92-3.87,0-9.04.12-10.94.24-3.21.24-4.28,1.07-4.28,3.33,0,1.67.83,2.74,2.56,3.15.71.18.95.24,4.88.3h11.24c1.07,0,6.42.18,8.45.3,7.55.36,10.53,3.69,10.53,11.66,0,7.32-2.14,10.53-7.97,11.78-2.97.65-8.86,1.01-17.49,1.01-13.74,0-16.77-.3-20.28-2.08-2.44-1.19-3.69-4.22-3.69-8.92,0-.36,0-1.13.06-1.96h11.84Z" fill="#353a3d"/>
              <path d="M117.47,161.56v19.63c0,4.34,0,4.46.18,5.53.59,4.46,2.56,5.35,11.6,5.35s11.54-.24,13.03-1.37c1.19-.89,1.78-2.62,1.84-5.65q.06-.89.06-5.29v-18.2h12.07v20.82c.12,9.81-.71,12.73-4.22,15.88-2.85,2.2-6.42,3.15-11.6,3.21-1.84.06-2.91.06-5.29.06l-4.52.06c-11.18-.06-13.38-.18-16.3-.95-7.2-2.2-9.1-5.95-8.92-17.72v-21.35h12.07Z" fill="#353a3d"/>
              <path d="M166.24,161.56h30.33c7.67,0,9.64.24,12.13,1.49,3.98,1.96,5.47,5.59,5.47,13.09s-1.37,11.48-4.64,13.5c-2.32,1.43-5,1.84-11.9,1.84h-19.39v9.75h-12.01v-39.67ZM195.8,181.84c4.94,0,6.36-1.07,6.36-4.82,0-4.76-1.19-5.83-6.36-5.83h-17.55v10.65h17.55Z" fill="#353a3d"/>
              <path d="M222.74,161.56h30.33c7.67,0,9.64.24,12.13,1.49,3.99,1.96,5.47,5.59,5.47,13.09s-1.37,11.48-4.64,13.5c-2.32,1.43-5,1.84-11.9,1.84h-19.39v9.75h-12.01v-39.67ZM252.3,181.84c4.94,0,6.36-1.07,6.36-4.82,0-4.76-1.19-5.83-6.36-5.83h-17.55v10.65h17.55Z" fill="#353a3d"/>
              <path d="M323.2,161.56v8.98h-32.06v6.84h30.21v7.85h-30.21v7.02h32.48v8.98h-44.37v-39.67h43.95Z" fill="#353a3d"/>
              <path d="M332.53,161.56h34.2c7.02,0,10.11.59,12.37,2.5,2.32,1.84,3.39,5.23,3.39,10.59,0,7.38-1.78,10.29-6.84,11.42,4.94.83,6.42,2.91,6.3,8.92v6.25h-12.25v-4.94c-.06-4.28-1.25-5.17-6.66-5.06h-18.5v9.99h-12.01v-39.67ZM363.4,181.54c5.83,0,6.96-.71,6.96-4.64,0-2.56-.24-3.63-1.01-4.46-.89-.95-1.9-1.13-5.53-1.13h-19.27v10.23h18.85Z" fill="#353a3d"/>
              <path d="M407.29,161.56h35.81c4.58,0,7.08.42,9.16,1.43,3.21,1.67,4.52,4.34,4.52,9.4s-1.79,7.85-5.53,8.57c5.35,1.01,7.14,3.33,7.14,9.1,0,5-1.43,8.15-4.58,9.81-1.84.95-4.46,1.37-9.04,1.37h-37.47v-39.67ZM439.35,177.38c2.32,0,3.15-.12,3.93-.48.95-.54,1.55-1.61,1.55-2.97,0-1.61-.77-2.8-2.08-3.27-.77-.24-1.37-.3-3.69-.3h-19.99v7.02h20.28ZM440.66,192.43c2.44,0,2.91-.06,3.69-.3,1.19-.42,1.9-1.61,1.9-3.27s-.71-2.92-2.02-3.39c-.71-.24-1.19-.3-3.87-.3h-21.29v7.26h21.59Z" fill="#353a3d"/>
              <path d="M510.85,161.73c6.13,1.13,9.1,4.28,9.93,10.65.24,1.61.36,4.82.36,9.64,0,9.58-1.01,13.44-4.4,16.24-2.38,2.02-5.71,2.97-11.48,3.21-2.14.12-7.43.18-11.3.18-9.46,0-14.28-.18-16.65-.65-4.4-.77-6.96-2.44-8.45-5.35-1.55-2.92-1.9-5.83-1.9-14.51,0-6.66.12-8.33.83-11,1.13-4.22,3.45-6.48,7.91-7.79,3.33-.95,6.96-1.19,17.43-1.19,11.42,0,14.93.12,17.72.59ZM481.23,172.26c-1.61,1.25-2.08,3.21-2.08,8.92s.48,7.97,1.96,9.22c1.61,1.31,3.57,1.55,12.67,1.55,10.41,0,12.55-.36,13.92-2.26,1.13-1.43,1.43-3.45,1.43-8.74,0-9.99-.18-10.11-15.05-10.11-8.86,0-11.3.3-12.85,1.43Z" fill="#353a3d"/>
              <path d="M538.8,161.56l11.54,30.21,10.23-30.21h14.57l9.93,30.21,11.9-30.21h12.25l-16.42,39.67h-16.18l-8.8-28.55-9.22,28.55h-16.06l-16-39.67h12.25Z" fill="#353a3d"/>
              <path d="M616.89,161.56h12.07v29.86h27.3v9.81h-39.38v-39.67Z" fill="#353a3d"/>
            </g>
            <g>
              <path d="M58.15,188.56c.12,2.74.42,3.39,1.84,3.93.89.36,4.28.59,8.09.59,13.98,0,15.64-.42,15.64-3.69,0-1.61-.77-2.8-2.02-3.21q-1.31-.42-7.55-.48h-10.94c-7.32,0-10.35-.42-12.91-1.72-2.85-1.49-4.16-4.64-4.16-10.05,0-7.14,2.02-10.17,7.73-11.54,3.21-.83,7.85-1.13,16.54-1.13,13.92,0,17.13.36,19.98,2.2,2.74,1.84,3.63,4.28,3.63,10.23h-11.78c0-3.45-1.19-3.92-8.98-3.92-3.87,0-9.04.12-10.94.24-3.21.24-4.28,1.07-4.28,3.33,0,1.67.83,2.74,2.56,3.15.71.18.95.24,4.88.3h11.24c1.07,0,6.42.18,8.45.3,7.55.36,10.53,3.69,10.53,11.66,0,7.32-2.14,10.53-7.97,11.78-2.97.65-8.86,1.01-17.49,1.01-13.74,0-16.77-.3-20.28-2.08-2.44-1.19-3.69-4.22-3.69-8.92,0-.36,0-1.13.06-1.96h11.84Z" fill="#353a3d"/>
              <path d="M117.04,161.56v19.63c0,4.34,0,4.46.18,5.53.59,4.46,2.56,5.35,11.6,5.35s11.54-.24,13.03-1.37c1.19-.89,1.78-2.62,1.84-5.65q.06-.89.06-5.29v-18.2h12.07v20.82c.12,9.81-.71,12.73-4.22,15.88-2.85,2.2-6.42,3.15-11.6,3.21-1.84.06-2.91.06-5.29.06l-4.52.06c-11.18-.06-13.38-.18-16.3-.95-7.2-2.2-9.1-5.95-8.92-17.72v-21.35h12.07Z" fill="#353a3d"/>
              <path d="M165.81,161.56h30.33c7.67,0,9.64.24,12.13,1.49,3.98,1.96,5.47,5.59,5.47,13.09s-1.37,11.48-4.64,13.5c-2.32,1.43-5,1.84-11.9,1.84h-19.39v9.75h-12.01v-39.67ZM195.37,181.84c4.94,0,6.36-1.07,6.36-4.82,0-4.76-1.19-5.83-6.36-5.83h-17.55v10.65h17.55Z" fill="#353a3d"/>
              <path d="M222.31,161.56h30.33c7.67,0,9.64.24,12.13,1.49,3.99,1.96,5.47,5.59,5.47,13.09s-1.37,11.48-4.64,13.5c-2.32,1.43-5,1.84-11.9,1.84h-19.39v9.75h-12.01v-39.67ZM251.87,181.84c4.94,0,6.36-1.07,6.36-4.82,0-4.76-1.19-5.83-6.36-5.83h-17.55v10.65h17.55Z" fill="#353a3d"/>
              <path d="M322.77,161.56v8.98h-32.06v6.84h30.21v7.85h-30.21v7.02h32.48v8.98h-44.37v-39.67h43.95Z" fill="#353a3d"/>
              <path d="M332.1,161.56h34.2c7.02,0,10.11.59,12.37,2.5,2.32,1.84,3.39,5.23,3.39,10.59,0,7.38-1.78,10.29-6.84,11.42,4.94.83,6.42,2.91,6.3,8.92v6.25h-12.25v-4.94c-.06-4.28-1.25-5.17-6.66-5.06h-18.5v9.99h-12.01v-39.67ZM362.97,181.54c5.83,0,6.96-.71,6.96-4.64,0-2.56-.24-3.63-1.01-4.46-.89-.95-1.9-1.13-5.53-1.13h-19.27v10.23h18.85Z" fill="#353a3d"/>
              <path d="M406.86,161.56h35.81c4.58,0,7.08.42,9.16,1.43,3.21,1.67,4.52,4.34,4.52,9.4s-1.79,7.85-5.53,8.57c5.35,1.01,7.14,3.33,7.14,9.1,0,5-1.43,8.15-4.58,9.81-1.84.95-4.46,1.37-9.04,1.37h-37.47v-39.67ZM438.92,177.38c2.32,0,3.15-.12,3.93-.48.95-.54,1.55-1.61,1.55-2.97,0-1.61-.77-2.8-2.08-3.27-.77-.24-1.37-.3-3.69-.3h-19.99v7.02h20.28ZM440.23,192.43c2.44,0,2.91-.06,3.69-.3,1.19-.42,1.9-1.61,1.9-3.27s-.71-2.92-2.02-3.39c-.71-.24-1.19-.3-3.87-.3h-21.29v7.26h21.59Z" fill="#353a3d"/>
              <path d="M510.42,161.73c6.13,1.13,9.1,4.28,9.93,10.65.24,1.61.36,4.82.36,9.64,0,9.58-1.01,13.44-4.4,16.24-2.38,2.02-5.71,2.97-11.48,3.21-2.14.12-7.43.18-11.3.18-9.46,0-14.28-.18-16.65-.65-4.4-.77-6.96-2.44-8.45-5.35-1.55-2.92-1.9-5.83-1.9-14.51,0-6.66.12-8.33.83-11,1.13-4.22,3.45-6.48,7.91-7.79,3.33-.95,6.96-1.19,17.43-1.19,11.42,0,14.93.12,17.72.59ZM480.8,172.26c-1.61,1.25-2.08,3.21-2.08,8.92s.48,7.97,1.96,9.22c1.61,1.31,3.57,1.55,12.67,1.55,10.41,0,12.55-.36,13.92-2.26,1.13-1.43,1.43-3.45,1.43-8.74,0-9.99-.18-10.11-15.05-10.11-8.86,0-11.3.3-12.85,1.43Z" fill="#353a3d"/>
              <path d="M538.37,161.56l11.54,30.21,10.23-30.21h14.57l9.93,30.21,11.9-30.21h12.25l-16.42,39.67h-16.18l-8.8-28.55-9.22,28.55h-16.06l-16-39.67h12.25Z" fill="#353a3d"/>
              <path d="M616.46,161.56h12.07v29.86h27.3v9.81h-39.38v-39.67Z" fill="#353a3d"/>
            </g>
          </g>
        </g>
        <g>
          <g>
            <path d="M302.01,236.88h95.25c2.63,0,4.76,2.13,4.76,4.76v67.28c0,2.63-2.13,4.76-4.76,4.76h-95.25c-2.63,0-4.76-2.13-4.76-4.76v-67.28c0-2.63,2.13-4.76,4.76-4.76Z"/>
            <path d="M397.26,237.96c2.02,0,3.67,1.65,3.67,3.67v67.28c0,2.02-1.65,3.67-3.67,3.67h-95.25c-2.02,0-3.67-1.65-3.67-3.67v-67.28c0-2.02,1.65-3.67,3.67-3.67h95.25M397.26,235.79h-95.25c-3.22,0-5.84,2.62-5.84,5.84v67.28c0,3.22,2.62,5.84,5.84,5.84h95.25c3.22,0,5.84-2.62,5.84-5.84v-67.28c0-3.22-2.62-5.84-5.84-5.84h0Z" fill="#fff"/>
          </g>
          <g>
            <path d="M311.63,288.41h7.62v1.73h-5.68v1.88h4.47v1.72h-4.47v3.45h-1.93v-8.79Z" fill="#468943"/>
            <path d="M320.47,295.88v-6.15l1.32-1.32h6.1l1.32,1.32v6.15l-1.32,1.32h-6.1l-1.32-1.32ZM327.27,295.4v-5.2h-4.87v5.2h4.87Z" fill="#468943"/>
            <path d="M331.26,295.88v-6.15l1.32-1.32h6.1l1.32,1.32v6.15l-1.32,1.32h-6.1l-1.32-1.32ZM338.06,295.4v-5.2h-4.87v5.2h4.87Z" fill="#468943"/>
            <path d="M344.54,290.2h-3.3v-1.79h8.52v1.79h-3.29v6.99h-1.93v-6.99Z" fill="#468943"/>
            <path d="M351.22,288.41h7.13l1.26,1.26v2.26l-1.02.83,1.02.83v2.36l-1.26,1.26h-7.13v-8.79ZM357.67,291.91v-1.83h-4.52v1.83h4.52ZM357.67,295.52v-1.95h-4.52v1.95h4.52Z" fill="#468943"/>
            <path d="M364.8,288.41h1.82l4.29,8.79h-2.11l-.72-1.53h-4.82l-.72,1.53h-2.06l4.31-8.79ZM367.28,293.93l-1.61-3.45-1.61,3.45h3.21Z" fill="#468943"/>
            <path d="M372.15,288.41h1.93v7.02h5.52v1.77h-7.46v-8.79Z" fill="#468943"/>
            <path d="M380.99,288.41h1.93v7.02h5.52v1.77h-7.46v-8.79Z" fill="#468943"/>
            <path d="M321.05,299.34h1.93v7.02h5.52v1.77h-7.46v-8.79Z" fill="#468943"/>
            <path d="M329.89,299.34h7.68v1.73h-5.75v1.79h4.37v1.72h-4.37v1.81h5.8v1.73h-7.73v-8.79Z" fill="#468943"/>
            <path d="M342.69,299.34h1.82l4.29,8.79h-2.11l-.72-1.53h-4.82l-.72,1.53h-2.06l4.31-8.79ZM345.18,304.87l-1.61-3.45-1.61,3.45h3.21Z" fill="#468943"/>
            <path d="M349.68,306.81v-6.15l1.32-1.32h6.04l1.32,1.32v1.57h-1.93v-1.13h-4.81v5.27h4.81v-1.58h-2.8v-1.63h4.73v3.65l-1.32,1.32h-6.04l-1.32-1.32Z" fill="#468943"/>
            <path d="M360.38,306.81v-7.47h1.93v6.99h4.59v-6.99h1.93v7.47l-1.32,1.32h-5.82l-1.32-1.32Z" fill="#468943"/>
            <path d="M370.96,299.34h7.68v1.73h-5.75v1.79h4.37v1.72h-4.37v1.81h5.8v1.73h-7.73v-8.79Z" fill="#468943"/>
          </g>
          <g>
            <g>
              <rect x="354.26" y="280.7" width="2.83" height="3.08" fill="none"/>
              <polygon points="372.73 282.91 374.64 282.91 373.68 280.86 372.73 282.91" fill="none"/>
              <rect x="385.64" y="280.7" width="2.88" height="3.08" fill="none"/>
              <rect x="316.91" y="280.7" width="2.88" height="3.08" fill="none"/>
              <polygon points="304.9 281.7 304.9 280.64 307.52 280.64 307.52 281.23 308.66 281.23 308.66 280.42 307.88 279.64 304.54 279.64 303.76 280.42 303.76 281.99 304.5 282.73 307.55 282.73 307.55 283.84 304.87 283.84 304.87 283.21 303.73 283.21 303.73 284.06 304.51 284.84 307.91 284.84 308.69 284.06 308.69 282.44 307.96 281.7 304.9 281.7" fill="#fff"/>
              <path d="M309.88,279.64v5.2h1.14v-1.86h2.93l.78-.78v-1.78l-.78-.78h-4.07ZM313.59,281.94h-2.56v-1.27h2.56v1.27Z" fill="#fff"/>
              <path d="M316.54,279.64l-.78.78v3.64l.78.78h3.61l.78-.78v-3.64l-.78-.78h-3.61ZM319.79,283.78h-2.88v-3.08h2.88v3.08Z" fill="#fff"/>
              <path d="M326.25,282.94l.78-.78v-1.75l-.78-.78h-4.07v5.2h1.14v-1.89h1.71l.99,1.89h1.21l-1-1.89h.02ZM325.88,281.91h-2.56v-1.24h2.56v1.24Z" fill="#fff"/>
              <polygon points="327.77 280.7 329.72 280.7 329.72 284.84 330.86 284.84 330.86 280.7 332.81 280.7 332.81 279.64 327.77 279.64 327.77 280.7" fill="#fff"/>
              <polygon points="334.69 281.7 334.69 280.64 337.3 280.64 337.3 281.23 338.45 281.23 338.45 280.42 337.67 279.64 334.32 279.64 333.54 280.42 333.54 281.99 334.28 282.73 337.33 282.73 337.33 283.84 334.66 283.84 334.66 283.21 333.51 283.21 333.51 284.06 334.29 284.84 337.7 284.84 338.48 284.06 338.48 282.44 337.74 281.7 334.69 281.7" fill="#fff"/>
              <polygon points="342.19 284.84 343.33 284.84 343.33 282.8 345.98 282.8 345.98 281.78 343.33 281.78 343.33 280.66 346.7 280.66 346.7 279.64 342.19 279.64 342.19 284.84" fill="#fff"/>
              <polygon points="348.67 282.74 351.26 282.74 351.26 281.73 348.67 281.73 348.67 280.66 352.08 280.66 352.08 279.64 347.53 279.64 347.53 284.84 352.11 284.84 352.11 283.81 348.67 283.81 348.67 282.74" fill="#fff"/>
              <path d="M353.12,279.64v5.2h4.34l.78-.78v-3.64l-.78-.78h-4.34ZM357.09,283.78h-2.83v-3.08h2.83v3.08Z" fill="#fff"/>
              <polygon points="360.63 282.74 363.21 282.74 363.21 281.73 360.63 281.73 360.63 280.66 364.03 280.66 364.03 279.64 359.48 279.64 359.48 284.84 364.06 284.84 364.06 283.81 360.63 283.81 360.63 282.74" fill="#fff"/>
              <path d="M369.14,282.94l.78-.78v-1.75l-.78-.78h-4.07v5.2h1.14v-1.89h1.71l.99,1.89h1.21l-1-1.89h.02ZM368.78,281.91h-2.56v-1.24h2.56v1.24Z" fill="#fff"/>
              <path d="M373.16,279.64l-2.55,5.2h1.22l.42-.91h2.85l.42.91h1.25l-2.54-5.2h-1.08ZM372.73,282.91l.95-2.04.95,2.04h-1.9Z" fill="#fff"/>
              <polygon points="376.18 280.7 378.13 280.7 378.13 284.84 379.27 284.84 379.27 280.7 381.22 280.7 381.22 279.64 376.18 279.64 376.18 280.7" fill="#fff"/>
              <rect x="382.1" y="279.64" width="1.14" height="5.2" fill="#fff"/>
              <path d="M385.28,279.64l-.78.78v3.64l.78.78h3.61l.78-.78v-3.64l-.78-.78h-3.61ZM388.53,283.78h-2.88v-3.08h2.88v3.08Z" fill="#fff"/>
              <polygon points="394.91 279.64 394.91 283.09 391.98 279.64 390.91 279.64 390.91 284.84 392.01 284.84 392.01 281.38 394.95 284.84 396 284.84 396 279.64 394.91 279.64" fill="#fff"/>
            </g>
            <g>
              <g>
                <rect x="319.39" y="241.53" width=".75" height="7.24" fill="#468943"/>
                <g>
                  <rect x="319.39" y="246.15" width=".75" height="3.09" transform="translate(72.07 567.45) rotate(-90)" fill="#468943"/>
                  <rect x="319.39" y="244.45" width=".75" height="3.09" transform="translate(73.76 565.76) rotate(-90)" fill="#468943"/>
                  <rect x="319.39" y="242.76" width=".75" height="3.09" transform="translate(75.45 564.07) rotate(-90)" fill="#468943"/>
                  <rect x="319.39" y="241.07" width=".75" height="3.09" transform="translate(77.15 562.38) rotate(-90)" fill="#468943"/>
                </g>
              </g>
              <polygon points="354.02 250.58 354.02 250.58 354.02 250.58 354.02 250.58" fill="none"/>
              <polygon points="344.2 259.8 344.2 259.8 344.2 259.79 344.2 259.8" fill="none"/>
              <polygon points="354.01 250.55 354.01 250.55 354.01 250.55 354.01 250.55" fill="none"/>
              <polygon points="354.04 250.69 354.04 250.69 354.04 250.69 354.04 250.69" fill="none"/>
              <polygon points="354.04 250.67 354.04 250.67 354.04 250.67 354.04 250.67" fill="none"/>
              <polygon points="354.03 250.62 354.03 250.62 354.03 250.62 354.03 250.62" fill="none"/>
              <polygon points="352.94 251.79 352.94 251.79 352.94 251.79 352.94 251.79" fill="none"/>
              <polygon points="353.8 250.72 353.8 250.72 353.8 250.72 353.8 250.72" fill="none"/>
              <polygon points="352.93 252.56 352.93 252.56 352.93 252.56 352.93 252.56" fill="none"/>
              <polygon points="350.87 258.25 350.87 258.25 350.87 258.25 350.87 258.25" fill="none"/>
              <path d="M343.24,261.55h13.26v-13.42h-13.26v13.42ZM343.88,258.5s.02.06.03.08c.15.1.29.18.45.27-.13-.23-.16-.48-.15-.65-.09-.17-.03-.29.02-.33.05-.05.12-.05.18-.02.09.04.18.16.17.31,0,.06-.02.11-.06.15,0,.06,0,.13.01.19,0,.1.01.12.02.18h0s0,0,0,0c.02.09.04.21.09.32l.48.2c-.15-.21-.22-.47-.22-.66-.1-.15-.06-.28-.02-.34.05-.06.11-.08.18-.05.09.03.19.14.2.29,0,.06-.01.12-.05.16.01.06.02.13.03.19q.02.09.04.18h0c.03.09.06.22.12.32l.51.12c-.18-.19-.27-.45-.29-.65-.12-.14-.09-.29-.04-.36.04-.06.11-.08.18-.06.11.03.19.13.22.26.02.1-.02.15-.03.18.02.05.03.11.05.19.03.12.04.13.06.18h0c.04.13.1.23.15.31l.52.05s-.09-.09-.14-.14c-.08-.1-.18-.31-.23-.48-.13-.13-.12-.28-.08-.35.04-.07.1-.1.18-.09.11.01.2.11.24.23.02.09,0,.15-.01.18.03.06.05.13.07.19q.04.09.08.18h0c.04.09.1.2.18.29h.02s.01.03.01.03v-.03s.01.04.01.04v-.04s.01.04.01.04v-.04s0,0,0,0v.04s.01-.04.01-.04v.04s.01-.04.01-.04l.02.04v-.04s.02.04.02.04v-.04s.01.04.01.04h0v-.04s.02.04.02.04h0s-.01-.04-.01-.04h0s0,0,0,0h.01s.06,0,.06,0h0c.11,0,.22,0,.33-.02-.22-.15-.37-.39-.43-.59-.15-.11-.15-.27-.12-.35.03-.07.09-.11.18-.11.11,0,.21.09.26.2.04.1.02.16,0,.19.03.05.06.11.09.18.01.03.03.07.09.17h0c.07.13.14.22.21.28.18-.03.36-.06.54-.1-.06-.03-.12-.07-.17-.12-.09-.08-.24-.27-.33-.44-.16-.1-.18-.25-.15-.34.02-.08.09-.13.17-.14.11,0,.22.06.28.18.04.09.03.16.03.19.04.06.08.12.11.18.06.09.07.11.11.16h0c.08.11.16.2.24.25.18-.05.36-.11.53-.17-.25-.1-.45-.31-.56-.5-.17-.08-.21-.24-.19-.33.02-.09.08-.15.16-.16.1-.02.22.04.29.14.05.08.05.16.05.19.04.05.09.11.13.17.02.03.06.08.13.15h0c.09.11.18.19.26.23.18-.07.35-.16.52-.25-.26-.07-.48-.26-.61-.44-.18-.05-.23-.22-.23-.31,0-.09.06-.16.15-.19.1-.03.22.01.3.11.06.08.07.15.07.19.05.05.1.11.15.16.08.08.1.1.14.14h0c.1.1.2.16.28.2.17-.1.34-.21.5-.32-.27-.03-.51-.21-.66-.37-.19-.03-.26-.19-.26-.29,0-.1.05-.17.13-.21.1-.04.22-.01.31.08.07.07.08.15.08.18.06.05.11.1.16.14q.08.07.16.13h0c.09.06.2.13.3.17.16-.12.32-.26.47-.39-.28,0-.54-.15-.7-.3-.19-.01-.27-.16-.28-.26-.01-.1.03-.19.11-.23.09-.05.22-.03.31.04.08.07.1.15.11.18.05.03.11.07.17.11.03.02.07.05.17.11h0c.12.07.23.12.32.13.15-.15.3-.31.44-.47-.3.04-.59-.1-.74-.21,0,0,0,0-.01,0-.18,0-.27-.13-.29-.23-.02-.1.01-.19.09-.25.09-.06.21-.06.31,0,.09.06.11.13.12.17.07.03.13.07.19.1q.09.04.18.09h0c.13.06.24.09.33.09.03-.03.05-.07.08-.1h0c.04-.05.08-.11.12-.16-.03-.07-.09-.16-.19-.28h0q-.07-.08-.14-.15s-.1-.09-.16-.15c0,0,0,0,0,0-.16,0-.25-.12-.28-.19-.04-.1-.02-.2.06-.27.08-.07.2-.09.31-.04.08.04.14.11.16.2.15.11.38.33.43.61.12-.18.23-.36.33-.54-.04-.08-.11-.16-.22-.26h0s-.06-.06-.16-.13c-.05-.04-.11-.08-.17-.13-.17.02-.27-.09-.31-.16-.05-.09-.04-.2.02-.27.07-.08.18-.11.3-.07.09.03.15.09.18.18.18.1.41.3.5.56.09-.19.18-.37.25-.57-.05-.07-.13-.15-.25-.24h0c-.1-.07-.14-.09-.16-.11-.07-.04-.13-.08-.18-.11-.18.05-.3-.07-.34-.14-.05-.08-.04-.18.01-.25.06-.08.17-.11.28-.09.09.02.16.07.2.16.17.08.44.24.56.5.07-.19.13-.38.18-.58-.06-.07-.15-.14-.28-.21q-.09-.05-.18-.09c-.06-.03-.13-.06-.2-.09-.17.06-.3-.05-.35-.11-.06-.08-.06-.17-.02-.25.05-.09.15-.13.26-.12.09.01.16.06.22.13.19.07.47.21.61.44.04-.19.08-.39.1-.58-.07-.06-.16-.12-.3-.18-.09-.04-.17-.07-.19-.07-.07-.03-.14-.05-.2-.07-.16.08-.31,0-.36-.07-.07-.07-.09-.16-.05-.25.04-.09.14-.14.24-.14.09,0,.17.04.23.11.18.04.48.15.65.37.02-.19.03-.39.03-.58-.07-.05-.17-.1-.31-.15h0c-.1-.03-.1-.03-.2-.05-.06-.01-.14-.03-.21-.05-.15.09-.3.02-.36-.04-.08-.06-.1-.15-.08-.24.03-.09.12-.15.22-.16.09,0,.17.02.24.08.2.02.49.11.69.3,0-.19-.02-.38-.04-.57-.08-.05-.18-.09-.32-.12h0s0,0,0,0c-.06-.01-.09-.02-.2-.03-.07,0-.14-.01-.21-.03-.13.1-.29.05-.36,0-.08-.06-.12-.14-.1-.23.02-.09.1-.16.2-.18.09-.02.17,0,.25.06.19,0,.49.05.71.23-.02-.12-.04-.25-.07-.37l.03-.02h0s-.04,0-.04,0h0s-.04-.17-.04-.17c-.08-.04-.19-.07-.34-.08h0c-.07,0-.08,0-.19-.01-.08,0-.15,0-.2-.01-.12.12-.29.08-.36.04-.09-.05-.14-.13-.13-.22,0-.09.08-.16.18-.19.09-.02.17-.01.25.04.18-.01.48,0,.72.15l-.16-.49v-.03c-.09-.03-.2-.04-.35-.05h0c-.06,0-.07,0-.2,0-.07,0-.14.01-.21.02-.1.12-.27.1-.34.07-.1-.04-.16-.12-.16-.2,0-.09.06-.16.15-.2.08-.03.17-.03.25,0,.16-.03.46-.05.72.07l-.23-.46v-.03c-.06,0-.17-.03-.36-.01h0s0,0,0,0c-.07,0-.08,0-.19.02-.07.01-.14.02-.2.03-.05.08-.15.12-.24.12-.04,0-.08,0-.11-.02-.09-.03-.16-.1-.16-.19,0-.07.03-.14.1-.18h1.61c-.07.05-.12.09-.15.13l.27.53c.11-.23.36-.34.48-.38.01-.03.04-.09.11-.11.1-.03.27.01.37.2,0,.02.02.04.02.05.02.09,0,.17-.06.21-.03.03-.07.04-.12.04s-.09-.01-.14-.04c-.05.02-.11.04-.17.06-.11.04-.12.05-.15.07h0c-.09.05-.17.1-.23.15l.19.56c.15-.23.41-.31.53-.34.02-.03.05-.09.13-.11.1-.02.28.04.35.24,0,.02,0,.02,0,.03.02.1,0,.19-.08.24-.03.02-.07.03-.11.03-.05,0-.11-.02-.16-.05-.05.01-.1.03-.17.05-.08.02-.09.03-.16.05h0c-.11.04-.2.09-.26.14h0s0,0,0,0c0,0,0,0-.01,0h0s-.01,0-.01,0h0s.04,0,.04,0l-.03.02s0,0,0,0h.04s.01.03.01.03l-.04.02h.04s0,0,0,0l-.03.02h.04s0,.02,0,.02l-.03.02h0s.04,0,.04,0v.04c.04.13.06.26.08.4.15-.18.38-.27.58-.3.02-.03.06-.08.14-.1.11-.02.28.06.32.27v.03c.01.1-.03.19-.11.23-.03.01-.06.02-.09.02-.06,0-.12-.02-.17-.07-.05.01-.12.02-.19.03-.09.02-.12.02-.17.04h0s0,0,0,0c-.12.03-.21.07-.27.11.02.2.04.4.04.61.21-.2.5-.24.63-.25.02-.03.07-.08.16-.08.11,0,.27.09.29.31h0s0,.02,0,.03c0,.11-.06.19-.15.22-.02,0-.05.01-.07.01-.06,0-.13-.03-.18-.08-.06,0-.13.01-.19.02q-.08,0-.18.02h0s0,0,0,0c-.13.03-.23.05-.29.09,0,.2-.01.41-.03.62.23-.18.53-.2.67-.19.03-.03.09-.07.17-.07.06,0,.13.03.17.08.04.04.09.12.09.25h0s0,.02,0,.03c-.02.11-.09.19-.18.21-.02,0-.03,0-.05,0-.07,0-.14-.04-.2-.11-.05,0-.11,0-.19,0,0,0-.1,0-.19,0h0s0,0,0,0c-.12,0-.23.03-.3.06-.03.21-.06.41-.11.62.25-.16.55-.15.69-.13.03-.02.09-.07.18-.06.06,0,.12.04.17.1.04.05.08.13.06.26-.03.13-.11.21-.21.23-.01,0-.02,0-.03,0-.08,0-.15-.04-.2-.12-.06,0-.13-.01-.2-.02q-.08,0-.19,0h0c-.13,0-.24,0-.32.04-.05.2-.12.41-.19.61.28-.14.58-.1.72-.07.03-.02.1-.06.19-.04.06.01.12.06.15.11.03.05.06.14.02.27-.05.13-.14.21-.25.21,0,0,0,0,0,0-.09,0-.16-.05-.21-.14-.05,0-.11-.02-.19-.03-.03,0-.06-.01-.19-.03h0c-.14-.02-.25-.01-.33,0-.08.2-.17.4-.26.59.29-.11.59-.05.73,0,.04-.02.11-.05.19-.02.06.02.11.07.14.13.03.05.05.15,0,.27-.06.12-.16.19-.26.19,0,0-.01,0-.02,0-.09,0-.16-.07-.2-.16-.06-.01-.12-.03-.2-.05-.1-.03-.13-.04-.19-.05h0c-.13-.03-.25-.04-.33-.03-.1.19-.22.38-.34.57.32-.09.63.02.74.07.04-.02.12-.04.2,0,.06.02.11.08.13.14.02.06.03.15-.04.27-.07.1-.17.16-.27.16-.02,0-.03,0-.05,0-.09-.02-.15-.08-.17-.17-.06-.02-.12-.04-.19-.07q-.08-.03-.19-.06h0c-.15-.04-.25-.06-.34-.06h0s-.07.09-.1.14h0s-.02.03-.02.03c0,0,0,0,0,0l-.02.03h0s-.04.05-.06.08c.03.09.08.18.16.29h0q.07.1.12.16s.09.1.13.15c.03,0,.09,0,.15.03.05.03.09.09.1.15.01.06,0,.15-.08.26-.01.02-.03.03-.05.04-.06.05-.14.08-.21.08-.04,0-.09-.01-.12-.03-.08-.04-.12-.13-.11-.23-.14-.15-.25-.4-.25-.4-.02-.06-.04-.16-.05-.26-.04.04-.07.09-.11.13h0s0,0,0,0c-.11.12-.22.24-.34.36.02.08.06.18.13.3h0c.07.11.08.14.1.16.04.06.08.11.11.16.03,0,.1,0,.15.05.05.04.08.1.09.16,0,.06-.01.14-.11.24-.02.01-.03.03-.05.04-.06.04-.12.05-.18.05s-.11-.02-.16-.05c-.07-.05-.1-.13-.08-.23-.12-.16-.2-.4-.21-.44-.02-.08-.02-.16-.02-.24-.04.03-.08.07-.11.1h.03s-.04,0-.04,0c-.12.1-.24.21-.37.3.01.08.05.18.1.3h0q.05.1.09.17c.03.05.07.11.1.16.03,0,.09.02.14.06.05.04.08.11.07.17,0,.05-.03.14-.13.21-.02.01-.04.02-.05.03-.05.02-.1.03-.14.03-.07,0-.14-.02-.19-.07-.06-.06-.08-.14-.06-.22-.11-.17-.16-.4-.17-.44,0-.08,0-.16,0-.23-.17.12-.35.24-.53.34,0,.08.02.18.07.3.02.05.03.08.07.17.03.06.06.11.08.17.03,0,.09.03.13.07.05.05.07.11.06.17,0,.05-.04.13-.15.19-.02,0-.04.02-.06.02-.04.01-.07.02-.11.02-.09,0-.17-.04-.23-.1-.05-.06-.06-.14-.03-.21-.09-.17-.12-.4-.12-.43,0-.08,0-.16.03-.23-.18.1-.37.19-.55.27,0,.08,0,.17.04.3h0s0,.01,0,.01c.03.09.05.14.05.16.02.06.05.12.06.17.03.01.08.04.12.09.04.05.06.12.04.18-.01.05-.05.12-.16.16h-.03s-.06.02-.09.02c-.1,0-.2-.04-.26-.12-.05-.06-.05-.14-.01-.21-.07-.17-.09-.39-.08-.47,0-.07.02-.13.04-.18-.19.07-.38.13-.57.19-.01.07-.01.17.01.29,0,.05.02.08.04.17.02.05.04.11.05.17.03.02.08.05.11.1.04.06.05.12.02.17-.02.05-.06.11-.18.14h-.03s-.03,0-.05,0c-.12,0-.24-.06-.29-.15-.04-.07-.03-.14.01-.2-.05-.17-.05-.38-.04-.46.01-.06.03-.12.06-.17-.19.05-.39.08-.58.11-.02.07-.03.16-.01.27h0s0,.01,0,.01c.01.1.02.13.02.16.01.07.02.12.02.17.03.02.08.05.11.11.03.06.04.12,0,.17-.02.04-.07.1-.19.11h-.01s-.01,0-.02,0h0c-.14,0-.28-.08-.32-.19-.03-.06-.01-.13.03-.18-.03-.17-.02-.37,0-.44.02-.06.05-.11.08-.15-.12.01-.24.02-.35.02h0s-.05,0-.05,0h-.03s0,0,0,0h-.06s-.01-.04-.01-.04v.04s-.07,0-.07,0h0s-.03.12-.04.26h0c0,.09,0,.09,0,.16,0,.05.01.11.02.16.03.02.07.06.09.11.03.06.02.12,0,.17-.02.04-.08.08-.19.08,0,0,0,0,0,0h-.01s-.01,0-.02,0c-.14-.02-.28-.12-.3-.24-.01-.06,0-.12.05-.16-.02-.15,0-.36.11-.52.01-.01.02-.03.04-.04l-.51-.04h-.07s-.05.12-.06.22h0s0,0,0,0c0,.04,0,.05,0,.15,0,.06,0,.11,0,.15.02.02.07.07.09.13.02.06.01.12-.02.16-.02.03-.07.06-.14.06-.02,0-.04,0-.06,0-.02,0-.04,0-.05-.02-.14-.05-.25-.17-.25-.28,0-.05.02-.1.06-.12,0-.14.03-.34.16-.47.01-.01.02-.02.04-.03l-.51-.11-.06-.02c-.03.05-.06.13-.08.21h0c-.01.08-.01.08-.02.14,0,.05,0,.1-.01.15.02.03.05.07.07.13.01.06,0,.11-.03.15-.02.02-.05.04-.1.04-.03,0-.06,0-.11-.02-.02,0-.04-.02-.05-.02-.13-.07-.23-.2-.22-.31,0-.05.03-.08.08-.1,0-.07.02-.16.05-.23.04-.09.1-.17.17-.21l-.49-.19-.05-.03s-.07.11-.1.18h0s-.01.04-.04.14c0,.05-.02.09-.03.14.02.03.05.08.06.13,0,.06,0,.11-.04.13-.02.01-.04.02-.08.02s-.08-.01-.14-.04c-.03-.02-.05-.03-.09-.07-.11-.1-.17-.22-.14-.31.01-.04.04-.06.08-.07.01-.07.04-.15.08-.21.05-.08.11-.13.18-.16-.17-.09-.32-.18-.48-.28v-.38Z" fill="none"/>
              <polygon points="353.67 249.54 353.67 249.54 353.67 249.54 353.67 249.54" fill="none"/>
              <polygon points="353.79 250.68 353.79 250.68 353.79 250.68 353.79 250.68" fill="none"/>
              <polygon points="347.06 259.54 347.06 259.54 347.06 259.55 347.06 259.54" fill="none"/>
              <path d="M344.18,259.32c-.04.07-.06.14-.08.21-.04.01-.07.04-.08.07-.03.08.03.21.14.31.04.03.06.05.09.07.06.03.1.04.14.04s.06-.01.08-.02c.04-.03.05-.08.04-.13,0-.05-.04-.1-.06-.13.01-.04.02-.09.03-.14.02-.09.03-.1.04-.13h0c.03-.07.06-.14.1-.18l.05.03.49.19c-.08.05-.14.12-.17.21-.03.08-.05.16-.05.23-.04.02-.07.06-.08.1,0,.1.09.24.22.31.01,0,.03.02.05.02.04.01.08.02.11.02.05,0,.08-.02.1-.04.04-.03.05-.09.03-.15-.01-.06-.05-.1-.07-.13,0-.05.01-.1.01-.15,0-.06,0-.06.02-.14h0c.02-.08.05-.16.08-.21l.06.02.51.11s-.02.02-.04.03c-.13.14-.17.33-.16.47-.04.03-.06.07-.06.12,0,.11.11.23.25.28.02,0,.04.01.05.02.02,0,.05,0,.06,0,.08,0,.12-.03.14-.06.03-.04.04-.1.02-.16-.02-.06-.06-.1-.09-.13,0-.04,0-.09,0-.15,0-.11,0-.12,0-.15h0s0,0,0,0c.01-.1.03-.17.06-.23h.07s.51.05.51.05c-.01.01-.03.02-.04.04-.12.16-.14.37-.11.52-.05.04-.06.1-.05.16.03.11.16.22.3.24,0,0,.01,0,.02,0h.01s0,0,0,0c.11,0,.16-.04.19-.08.03-.05.03-.11,0-.17-.02-.06-.07-.09-.09-.11,0-.05,0-.11-.02-.16,0-.07,0-.07,0-.16h0c0-.14.02-.22.04-.27h0s.07.01.07.01v-.04s.01.04.01.04h.06s0,0,0,0h.03s.05,0,.05,0h0c.12,0,.23-.02.35-.03-.03.05-.06.1-.08.15-.02.07-.04.27,0,.44-.05.05-.06.12-.03.18.04.11.18.19.32.19h0s.01,0,.02,0h.01c.12-.01.17-.07.19-.11.03-.05.02-.11,0-.17-.03-.06-.08-.09-.11-.11,0-.05-.01-.1-.02-.17,0-.02-.01-.05-.02-.16h0s0-.01,0-.01c-.01-.11,0-.2.01-.27.19-.03.39-.07.58-.11-.03.05-.05.11-.06.17-.02.08-.02.29.04.46-.04.06-.05.13-.01.2.05.09.17.15.29.15.02,0,.03,0,.05,0h.03c.12-.04.16-.1.18-.14.02-.06.01-.12-.02-.17-.03-.05-.08-.08-.11-.1-.01-.06-.03-.12-.05-.17-.02-.09-.03-.12-.04-.17-.02-.12-.02-.21-.01-.29.19-.05.38-.12.57-.19-.02.06-.04.12-.04.18,0,.08.01.3.08.47-.04.07-.03.15.01.21.05.07.15.12.26.12.03,0,.06,0,.09-.01h.03c.11-.05.15-.12.16-.17.02-.06,0-.12-.04-.18-.04-.05-.09-.07-.12-.09-.02-.06-.04-.12-.06-.17,0-.02-.02-.07-.05-.16h0s0-.01,0-.01c-.03-.12-.05-.22-.04-.3.19-.08.37-.17.55-.27-.02.07-.03.15-.03.23,0,.03.04.26.12.43-.03.07-.02.15.03.21.05.06.14.1.23.1.04,0,.07,0,.11-.02.02,0,.04-.01.06-.02.11-.06.14-.14.15-.19,0-.06-.01-.13-.06-.17-.04-.05-.1-.07-.13-.07-.02-.06-.05-.11-.08-.17-.04-.09-.06-.12-.07-.17-.05-.12-.07-.22-.07-.3.18-.11.36-.22.53-.34-.01.07-.02.15,0,.23,0,.04.06.27.17.44-.02.09,0,.17.06.22.05.05.12.07.19.07.05,0,.1-.01.14-.03.02,0,.04-.02.05-.03.1-.08.12-.16.13-.21,0-.06-.02-.13-.07-.17-.05-.04-.1-.06-.14-.06-.03-.06-.06-.11-.1-.16q-.04-.07-.09-.17h0c-.05-.13-.09-.23-.1-.3.12-.1.25-.2.37-.3h.04s-.03,0-.03,0c.04-.03.08-.07.11-.1,0,.08,0,.16.02.24,0,.04.09.27.21.44-.02.09.01.17.08.23.04.03.1.05.16.05.06,0,.12-.02.18-.05.02,0,.03-.02.05-.04.1-.09.11-.18.11-.24,0-.07-.04-.13-.09-.16-.06-.04-.12-.05-.15-.05-.03-.05-.06-.1-.11-.16-.02-.02-.03-.05-.1-.15h0c-.07-.13-.11-.23-.13-.31.12-.12.23-.23.34-.36h0s0,0,0,0c.04-.04.07-.09.11-.13,0,.11.03.2.05.26,0,0,.11.24.25.4,0,.1.03.18.11.23.04.02.08.03.12.03.07,0,.15-.03.21-.08.01-.01.03-.03.05-.04.09-.11.09-.2.08-.26-.01-.06-.05-.12-.1-.15-.06-.03-.11-.03-.15-.03-.04-.05-.09-.1-.13-.15q-.05-.06-.12-.15h0c-.08-.11-.13-.21-.16-.3.02-.03.04-.05.06-.08h0s.02-.03.02-.03c0,0,0,0,0,0l.02-.03h0s.07-.09.1-.14h0c.09,0,.19.02.34.06h0q.11.04.19.06c.07.03.13.05.19.07.03.09.09.16.17.17.02,0,.03,0,.05,0,.1,0,.2-.06.27-.16.07-.12.06-.21.04-.27-.02-.06-.07-.12-.13-.14-.08-.03-.16,0-.2,0-.11-.05-.42-.15-.74-.07.12-.19.24-.38.34-.57.09,0,.2,0,.33.02h0c.05.01.08.02.19.05.07.02.14.04.2.05.04.09.11.15.2.16,0,0,.01,0,.02,0,.1,0,.2-.07.26-.19.05-.12.03-.22,0-.27-.03-.06-.08-.11-.14-.13-.08-.03-.16,0-.19.02-.14-.04-.44-.11-.73,0,.1-.19.18-.39.26-.59.09-.02.2-.02.33,0h0c.12.02.16.02.19.03.08.01.14.02.19.03.05.09.12.14.21.14,0,0,0,0,0,0,.11,0,.2-.08.25-.21.04-.13,0-.22-.02-.27-.04-.06-.09-.1-.15-.11-.09-.02-.15.02-.19.04-.13-.03-.44-.07-.72.07.07-.2.13-.41.19-.61.08-.03.19-.04.32-.04h0q.11,0,.19.01c.07,0,.14.02.2.02.05.07.12.12.2.12.01,0,.02,0,.03,0,.1-.02.18-.1.21-.23.02-.13-.02-.21-.06-.26-.04-.05-.1-.09-.17-.1-.09-.01-.15.03-.18.06-.14-.02-.44-.03-.69.13.04-.2.08-.41.11-.62.08-.03.18-.05.3-.06h0s0,0,0,0c.09,0,.19,0,.19,0,.07,0,.14,0,.19,0,.06.07.13.11.2.11.02,0,.03,0,.05,0,.09-.02.16-.11.18-.21,0,0,0-.01,0-.02h0c0-.14-.04-.22-.09-.26-.05-.05-.11-.08-.17-.08-.08,0-.14.04-.17.07-.13,0-.43,0-.67.19.02-.2.03-.41.03-.62.07-.04.16-.06.29-.09h0s0,0,0,0q.1-.02.18-.02c.07,0,.13,0,.19-.02.06.05.12.08.18.08.02,0,.05,0,.07-.01.09-.03.14-.12.15-.22,0,0,0-.01,0-.02h0c-.02-.23-.18-.32-.29-.32-.08,0-.13.05-.16.08-.13,0-.42.05-.63.25,0-.2-.02-.41-.04-.61.06-.04.16-.08.27-.11h0s0,0,0,0c.05-.01.08-.02.17-.04.07,0,.13-.02.19-.03.06.04.12.07.17.07.03,0,.06,0,.09-.02.08-.04.12-.13.11-.23v-.03c-.05-.21-.22-.29-.33-.27-.08.01-.12.06-.14.1-.21.03-.44.12-.58.3-.02-.14-.05-.27-.07-.4v-.04s-.05,0-.05,0h0s.03-.02.03-.02v-.03s-.04,0-.04,0l.03-.02h0s-.04,0-.04,0l.04-.02v-.04s-.05,0-.05,0c0,0,0,0,0,0l.03-.02h-.04s0,0,0,0h.01s0,0,0,0c0,0,0,0,.01,0h0s0,0,0,0c.06-.05.14-.09.26-.13h0c.07-.03.08-.03.16-.05.07-.02.12-.04.17-.05.06.04.11.05.16.05.04,0,.08-.01.11-.03.07-.05.1-.14.08-.24,0,0,0-.01,0-.03-.07-.2-.25-.26-.35-.24-.08.02-.11.07-.13.11-.12.03-.39.11-.53.34l-.19-.56c.05-.05.14-.1.23-.15h0s.04-.03.15-.07c.06-.02.12-.04.17-.06.05.02.1.04.14.04s.09-.01.12-.04c.06-.05.08-.13.06-.21,0-.02-.01-.04-.02-.05-.1-.19-.28-.23-.37-.2-.07.02-.1.08-.11.11-.11.04-.36.15-.48.38l-.27-.53s.09-.09.15-.13h-1.61c-.07.04-.11.11-.1.18,0,.08.07.15.16.19.03.01.07.02.11.02.09,0,.19-.04.24-.12.06,0,.12-.02.2-.03.11-.02.11-.02.19-.02h0s0,0,0,0c.19-.02.3,0,.34.01v.03s.24.46.24.46c-.26-.12-.56-.1-.72-.07-.09-.04-.17-.04-.25,0-.09.04-.15.11-.15.2,0,.09.06.17.16.2.07.03.24.05.34-.07.07,0,.14,0,.21-.02.13,0,.14,0,.2,0h0c.16,0,.26.02.34.05v.03s.17.49.17.49c-.24-.15-.54-.16-.72-.15-.08-.05-.17-.06-.25-.04-.1.03-.17.1-.18.19,0,.09.04.17.13.22.07.04.24.08.36-.04.06,0,.13,0,.2.01.11,0,.12,0,.19.01h0c.15.02.26.04.34.08l.04.17h0s.04,0,.04,0h0s-.03.02-.03.02c.03.12.05.24.07.37-.22-.18-.52-.22-.71-.23-.08-.06-.16-.08-.25-.06-.11.02-.18.09-.2.18-.02.09.02.17.1.23.07.04.22.1.36,0,.07.01.15.02.21.03.11.02.13.02.2.03h0s0,0,0,0c.14.03.24.07.32.12.02.19.03.38.04.57-.19-.19-.49-.28-.69-.3-.07-.06-.15-.09-.24-.08-.11,0-.2.07-.22.16-.03.08,0,.17.08.24.06.05.21.12.36.04.07.02.14.03.21.05.1.03.1.03.2.05h0c.15.05.25.1.31.15,0,.19-.01.38-.03.58-.18-.23-.47-.33-.65-.37-.06-.07-.14-.11-.23-.11-.11,0-.2.05-.24.14-.04.08-.02.17.05.25.06.06.2.15.36.07.06.02.12.05.2.07.02,0,.11.04.19.07.13.06.23.12.3.18-.03.19-.06.39-.1.58-.15-.23-.42-.38-.61-.44-.05-.08-.13-.12-.22-.13-.11-.01-.21.03-.26.12-.05.08-.04.17.02.25.05.06.18.17.35.11.07.03.14.06.2.09q.09.05.18.09c.13.07.22.14.28.21-.05.19-.11.39-.18.58-.12-.26-.39-.42-.56-.5-.04-.08-.11-.14-.2-.16-.11-.03-.22,0-.28.09-.05.07-.06.17-.01.25.04.07.16.19.34.14.05.03.11.07.18.11.03.02.07.04.16.11h0c.12.09.2.17.25.24-.08.19-.16.38-.25.57-.09-.26-.32-.46-.5-.56-.03-.09-.09-.15-.18-.18-.11-.04-.23-.01-.3.07-.06.07-.07.18-.02.27.04.07.14.18.31.16.06.05.12.09.17.13.1.08.11.09.16.13h0c.11.1.18.19.22.26-.1.19-.21.37-.33.54-.05-.28-.28-.5-.43-.61-.02-.09-.08-.16-.16-.2-.11-.05-.23-.04-.31.04-.07.07-.09.17-.06.27.03.07.12.19.28.19,0,0,0,0,0,0,.05.05.11.1.16.15q.08.07.14.15h0c.1.12.16.21.19.28-.04.05-.08.11-.12.16h0s-.05.07-.08.1c-.09,0-.2-.03-.33-.09h0q-.1-.05-.18-.09c-.06-.03-.12-.07-.19-.1-.01-.04-.04-.11-.12-.17-.1-.06-.22-.07-.31,0-.08.06-.12.15-.09.25.02.09.11.23.29.23,0,0,0,0,.01,0,.15.11.44.25.74.21-.14.16-.28.32-.44.47-.09-.02-.2-.06-.32-.13h0c-.1-.06-.14-.09-.17-.11-.06-.04-.12-.08-.17-.11,0-.03-.02-.12-.11-.18-.09-.08-.22-.09-.31-.04-.08.04-.12.13-.11.23.01.1.1.25.28.26.16.15.42.3.7.3-.15.14-.31.27-.47.39-.11-.03-.21-.1-.3-.16h0q-.08-.06-.16-.13s-.11-.09-.16-.14c0-.04-.01-.11-.08-.18-.09-.09-.21-.12-.31-.08-.08.03-.13.11-.13.21,0,.1.07.25.26.29.15.16.39.34.66.37-.16.11-.33.22-.5.32-.09-.04-.18-.1-.28-.19h0c-.05-.05-.07-.07-.14-.15-.04-.05-.09-.1-.15-.16,0-.04,0-.11-.07-.19-.08-.1-.2-.14-.3-.11-.08.02-.14.09-.15.19,0,.1.05.26.23.31.13.18.35.37.61.44-.17.09-.35.17-.52.25-.08-.04-.17-.12-.26-.22h0c-.06-.08-.1-.13-.13-.15-.04-.06-.08-.11-.13-.17,0-.04,0-.11-.05-.19-.07-.11-.18-.16-.29-.14-.08.02-.14.08-.16.16-.02.09.02.25.19.33.11.19.31.4.56.5-.18.07-.36.12-.53.17-.08-.05-.16-.14-.24-.24h0c-.04-.06-.05-.08-.11-.17-.03-.06-.07-.12-.11-.18,0-.03.02-.1-.03-.19-.06-.11-.17-.18-.28-.18-.08,0-.14.06-.17.14-.03.09,0,.24.15.34.08.17.23.36.33.44.06.05.11.08.17.12-.18.04-.36.07-.54.1-.07-.06-.14-.15-.21-.27h0c-.06-.11-.08-.15-.09-.18-.04-.07-.06-.13-.09-.18.01-.03.03-.1,0-.19-.05-.12-.15-.2-.26-.2-.08,0-.14.04-.18.11-.04.08-.03.24.12.35.07.2.21.44.43.59-.11.01-.22.02-.33.02h0s-.06,0-.06,0h0s-.01,0-.01,0h0s0,0,0,0h0s.01.04.01.04h0s-.02-.04-.02-.04v.04h0v-.04s-.01.04-.01.04l-.02-.04v.04s-.02-.04-.02-.04v.04s-.01-.04-.01-.04v.04s-.01-.04-.01-.04h0s0,.04,0,.04v-.04s-.01.04-.01.04v-.04s-.01.03-.01.03v-.03s-.03,0-.03,0c-.08-.09-.14-.2-.18-.29h0q-.04-.1-.08-.18c-.02-.06-.04-.13-.07-.19.01-.03.04-.09.01-.18-.03-.12-.13-.22-.24-.23-.08-.01-.14.02-.18.09-.04.07-.06.23.08.35.05.18.15.38.23.48.04.05.09.1.14.14l-.52-.05c-.06-.07-.11-.18-.15-.3h0c-.02-.07-.02-.08-.06-.19-.02-.07-.04-.13-.05-.19.02-.03.05-.08.03-.18-.02-.13-.11-.23-.22-.26-.07-.02-.14,0-.18.06-.05.07-.08.21.04.36.02.19.11.45.29.65l-.51-.12c-.06-.1-.1-.22-.12-.31h0q-.02-.1-.04-.19c0-.06-.02-.13-.03-.19.03-.04.05-.1.05-.16,0-.15-.11-.26-.2-.29-.07-.02-.14,0-.18.05-.04.05-.09.18.02.34,0,.19.07.45.22.66l-.48-.2c-.05-.11-.08-.23-.09-.32h0s0,0,0,0c0-.06-.01-.08-.02-.18,0-.06,0-.13-.01-.19.04-.04.06-.09.06-.15,0-.15-.08-.27-.17-.31-.07-.03-.13-.02-.18.02-.05.04-.11.16-.02.33-.01.17.02.43.15.65-.16-.08-.29-.17-.45-.27-.01-.03-.02-.06-.03-.08v.38c.16.1.31.19.48.28-.07.03-.13.09-.18.16ZM344.2,259.8s0,0,0,0c0,0,0,0,0,0h0ZM354.04,250.69h0s0,0,0,0h0ZM354.04,250.67h0s0,0,0,0h0ZM354.03,250.62h0s0,0,0,0h0ZM354.02,250.58h0s0,0,0,0h0ZM354.01,250.55h0s0,0,0,0h0ZM353.67,249.54s0,0,0,0h0s0,0,0,0ZM353.79,250.68h0s0,0,0,0h0ZM353.8,250.72h0s0,0,0,0h0ZM352.94,251.79s0,0,0,0h0s0,0,0,0ZM352.93,252.56s0,0,0,0h0s0,0,0,0ZM350.87,258.25s0,0,0,0c0,0,0,0,0,0h0ZM347.06,259.54h0s0,0,0,0h0Z" fill="#b02127" stroke="#b02127" stroke-linejoin="round" stroke-width=".08"/>
              <polygon points="369.73 277.38 377.82 277.38 396 241.53 387.91 241.53 380.02 258.17 372.09 241.53 363.95 241.53 375.93 265.55 372.63 271.85 365.17 271.85 362.34 277.38 369.73 277.38" fill="#fff"/>
              <polygon points="360.73 271.85 357.9 277.38 358.63 277.38 361.46 271.85 360.73 271.85" fill="#fff"/>
              <polygon points="358.31 271.85 355.42 277.38 357.15 277.38 359.98 271.85 358.31 271.85" fill="#fff"/>
              <polygon points="361.59 277.38 364.42 271.85 363.69 271.85 360.86 277.38 361.59 277.38" fill="#fff"/>
              <polygon points="362.94 271.85 362.21 271.85 359.38 277.38 360.11 277.38 362.94 271.85" fill="#fff"/>
              <polygon points="360.73 271.85 359.98 271.85 359.98 271.85 357.15 277.38 357.15 277.38 357.9 277.38 357.9 277.38 360.73 271.85 360.73 271.85" fill="#538cc9"/>
              <polygon points="362.21 271.85 361.46 271.85 361.46 271.85 358.63 277.38 358.63 277.38 359.38 277.38 359.38 277.38 362.21 271.85 362.21 271.85" fill="#538cc9"/>
              <polygon points="360.11 277.38 360.86 277.38 360.86 277.38 363.69 271.85 363.69 271.85 362.94 271.85 362.94 271.85 360.11 277.38 360.11 277.38" fill="#538cc9"/>
              <polygon points="361.59 277.38 362.34 277.38 362.34 277.38 365.17 271.85 365.17 271.85 364.42 271.85 364.42 271.85 361.59 277.38 361.59 277.38" fill="#538cc9"/>
              <polygon points="317.61 277.38 335.79 241.53 327.7 241.53 319.81 258.17 311.87 241.53 303.73 241.53 315.71 265.55 309.52 277.38 317.61 277.38" fill="#fff"/>
              <path d="M363.92,263.45v-17.21l-4.71-4.71h-18.69l-4.71,4.71v17.21l4.71,4.71h18.69l4.71-4.71ZM356.5,261.55h-13.26v-13.42h13.26v13.42Z" fill="#fff"/>
              <g>
                <polygon points="375.41 242.39 374.46 244.37 375.42 246.35 376.37 244.37 375.41 242.39" fill="none"/>
                <polygon points="376.57 244.78 375.62 246.76 376.57 248.74 377.52 246.76 376.57 244.78" fill="none"/>
                <polygon points="377.72 247.18 376.77 249.16 377.73 251.14 378.68 249.16 377.72 247.18" fill="none"/>
                <polygon points="382 242.25 380.36 242.25 381.18 243.95 382 242.25" fill="none"/>
                <polygon points="379.69 242.25 378.06 242.25 378.87 243.95 379.69 242.25" fill="none"/>
                <polygon points="377.38 242.25 375.75 242.25 376.57 243.95 377.38 242.25" fill="none"/>
                <polygon points="379.09 253.95 380.04 255.93 380.99 253.95 380.04 251.97 379.09 253.95" fill="none"/>
                <polygon points="381.39 249.16 382.34 251.14 383.29 249.16 382.34 247.18 381.39 249.16" fill="none"/>
                <polygon points="382.54 246.76 383.5 248.74 384.45 246.76 383.49 244.78 382.54 246.76" fill="none"/>
                <polygon points="380.24 251.55 381.19 253.53 382.14 251.55 381.19 249.57 380.24 251.55" fill="none"/>
                <polygon points="383.69 244.37 384.65 246.35 385.6 244.37 384.64 242.39 383.69 244.37" fill="none"/>
                <polygon points="384.3 242.25 382.67 242.25 383.49 243.95 384.3 242.25" fill="none"/>
                <polygon points="378.88 249.57 377.93 251.55 378.89 253.53 379.84 251.55 378.88 249.57" fill="none"/>
                <polygon points="373.44 242.25 374.26 243.95 375.07 242.25 373.44 242.25" fill="none"/>
                <polygon points="386.61 242.25 384.98 242.25 385.8 243.95 386.61 242.25" fill="none"/>
                <polygon points="383.29 244.37 382.33 242.39 381.38 244.37 382.34 246.35 383.29 244.37" fill="none"/>
                <polygon points="380.98 244.37 380.03 242.39 379.08 244.37 380.03 246.35 380.98 244.37" fill="none"/>
                <polygon points="378.67 244.37 377.72 242.39 376.77 244.37 377.72 246.35 378.67 244.37" fill="none"/>
                <polygon points="380.23 246.76 381.19 248.74 382.14 246.76 381.18 244.78 380.23 246.76" fill="none"/>
                <polygon points="379.08 249.16 380.04 251.14 380.99 249.16 380.03 247.18 379.08 249.16" fill="none"/>
                <polygon points="378.88 244.78 377.92 246.76 378.88 248.74 379.83 246.76 378.88 244.78" fill="none"/>
                <polygon points="372.89 241.53 372.89 241.53 372.89 241.53 372.89 241.53" fill="#ee6730"/>
                <polygon points="387.16 241.53 387.16 241.53 387.16 241.53 387.16 241.53" fill="#ee6730"/>
                <polygon points="375.07 242.25 375.25 241.89 375.41 241.97 375.57 241.89 375.75 242.25 377.38 242.25 377.55 241.89 377.72 241.97 377.88 241.89 378.06 242.25 379.69 242.25 379.86 241.89 380.03 241.97 380.19 241.89 380.36 242.25 382 242.25 382.17 241.89 382.33 241.97 382.5 241.89 382.67 242.25 384.3 242.25 384.48 241.89 384.64 241.97 384.8 241.89 384.98 242.25 386.61 242.25 386.96 241.53 373.09 241.53 373.44 242.25 375.07 242.25" fill="#ee6730"/>
                <polygon points="385.6 244.37 384.65 246.35 384.85 246.76 385.8 244.78 385.6 244.37" fill="#ee6730"/>
                <polygon points="380.04 255.93 380.24 256.34 381.19 254.37 380.99 253.95 380.04 255.93" fill="#ee6730"/>
                <polygon points="382.34 251.14 382.55 251.55 383.5 249.57 383.29 249.16 382.34 251.14" fill="#ee6730"/>
                <polygon points="387.36 241.53 387.16 241.53 387.16 241.95 387.36 241.53" fill="#ee6730"/>
                <polygon points="383.5 248.74 383.7 249.16 384.65 247.18 384.45 246.76 383.5 248.74" fill="#ee6730"/>
                <polygon points="381.19 253.53 381.39 253.95 382.35 251.97 382.14 251.55 381.19 253.53" fill="#ee6730"/>
                <polygon points="385.8 243.95 386 244.37 387.01 242.25 386.61 242.25 385.8 243.95" fill="#ee6730"/>
                <polygon points="387.01 242.25 387.16 241.95 387.16 241.53 387.16 241.53 386.96 241.53 386.61 242.25 387.01 242.25" fill="#ee6730"/>
                <polygon points="382.34 246.35 382.54 246.76 383.49 244.78 383.29 244.37 382.34 246.35" fill="#ee6730"/>
                <polygon points="380.04 251.14 380.24 251.55 381.19 249.57 380.99 249.16 380.04 251.14" fill="#ee6730"/>
                <polygon points="383.69 244.37 384.64 242.39 384.58 242.25 384.3 242.25 383.49 243.95 383.69 244.37" fill="#ee6730"/>
                <polygon points="381.19 248.74 381.39 249.16 382.34 247.18 382.14 246.76 381.19 248.74" fill="#ee6730"/>
                <polygon points="379.84 251.55 378.89 253.53 379.09 253.95 380.04 251.97 379.84 251.55" fill="#ee6730"/>
                <polygon points="384.48 242.05 384.64 241.97 384.48 241.89 384.3 242.25 384.58 242.25 384.48 242.05" fill="#ee6730"/>
                <polygon points="380.23 246.76 381.18 244.78 380.98 244.37 380.03 246.35 380.23 246.76" fill="#ee6730"/>
                <polygon points="379.83 246.76 378.88 248.74 379.08 249.16 380.03 247.18 379.83 246.76" fill="#ee6730"/>
                <polygon points="381.38 244.37 382.33 242.39 382.27 242.25 382 242.25 381.18 243.95 381.38 244.37" fill="#ee6730"/>
                <polygon points="378.68 249.16 377.73 251.14 377.93 251.55 378.88 249.57 378.68 249.16" fill="#ee6730"/>
                <polygon points="382.17 242.05 382.33 241.97 382.17 241.89 382 242.25 382.27 242.25 382.17 242.05" fill="#ee6730"/>
                <polygon points="379.08 244.37 380.03 242.39 379.96 242.25 379.69 242.25 378.87 243.95 379.08 244.37" fill="#ee6730"/>
                <polygon points="377.92 246.76 378.88 244.78 378.67 244.37 377.72 246.35 377.92 246.76" fill="#ee6730"/>
                <polygon points="377.52 246.76 376.57 248.74 376.77 249.16 377.72 247.18 377.52 246.76" fill="#ee6730"/>
                <polygon points="379.86 242.05 380.03 241.97 379.86 241.89 379.69 242.25 379.96 242.25 379.86 242.05" fill="#ee6730"/>
                <polygon points="376.77 244.37 377.72 242.39 377.65 242.25 377.38 242.25 376.57 243.95 376.77 244.37" fill="#ee6730"/>
                <polygon points="376.37 244.37 375.42 246.35 375.62 246.76 376.57 244.78 376.37 244.37" fill="#ee6730"/>
                <polygon points="377.56 242.05 377.72 241.97 377.55 241.89 377.38 242.25 377.65 242.25 377.56 242.05" fill="#ee6730"/>
                <polygon points="375.35 242.25 375.07 242.25 374.26 243.95 374.46 244.37 375.41 242.39 375.35 242.25" fill="#ee6730"/>
                <polygon points="375.25 242.05 375.41 241.97 375.25 241.89 375.07 242.25 375.35 242.25 375.25 242.05" fill="#ee6730"/>
                <polygon points="377.93 251.55 377.73 251.97 378.69 253.95 378.89 253.53 377.93 251.55" fill="#ee6730"/>
                <polygon points="379.09 253.95 378.89 254.37 379.84 256.35 380.04 255.93 379.09 253.95" fill="#ee6730"/>
                <polygon points="372.69 241.53 372.89 241.95 372.89 241.53 372.69 241.53" fill="#ee6730"/>
                <polygon points="374.46 244.37 374.26 244.78 375.22 246.76 375.42 246.35 374.46 244.37" fill="#ee6730"/>
                <polygon points="376.77 249.16 376.57 249.57 377.53 251.55 377.73 251.14 376.77 249.16" fill="#ee6730"/>
                <polygon points="373.44 242.25 373.04 242.25 374.06 244.37 374.26 243.95 373.44 242.25" fill="#ee6730"/>
                <polygon points="375.62 246.76 375.42 247.18 376.37 249.16 376.57 248.74 375.62 246.76" fill="#ee6730"/>
                <polygon points="373.09 241.53 372.89 241.53 372.89 241.53 372.89 241.95 373.04 242.25 373.44 242.25 373.09 241.53" fill="#ee6730"/>
                <polygon points="379.84 256.35 380.04 256.76 380.24 256.34 380.04 255.93 379.84 256.35" fill="#ee6730"/>
                <polygon points="378.89 253.53 378.69 253.95 378.89 254.37 379.09 253.95 378.89 253.53" fill="#ee6730"/>
                <polygon points="377.73 251.14 377.53 251.55 377.73 251.97 377.93 251.55 377.73 251.14" fill="#ee6730"/>
                <polygon points="376.57 248.74 376.37 249.16 376.57 249.57 376.77 249.16 376.57 248.74" fill="#ee6730"/>
                <polygon points="375.42 246.35 375.22 246.76 375.42 247.18 375.62 246.76 375.42 246.35" fill="#ee6730"/>
                <polygon points="374.26 243.95 374.06 244.37 374.26 244.78 374.46 244.37 374.26 243.95" fill="#ee6730"/>
                <polygon points="377.92 246.76 377.72 247.18 378.68 249.16 378.88 248.74 377.92 246.76" fill="#ee6730"/>
                <polygon points="376.77 244.37 376.57 244.78 377.52 246.76 377.72 246.35 376.77 244.37" fill="#ee6730"/>
                <polygon points="380.04 251.97 380.99 253.95 381.19 253.53 380.24 251.55 380.04 251.97" fill="#ee6730"/>
                <polygon points="375.41 242.39 376.37 244.37 376.57 243.95 375.75 242.25 375.48 242.25 375.41 242.39" fill="#ee6730"/>
                <polygon points="379.08 249.16 378.88 249.57 379.84 251.55 380.04 251.14 379.08 249.16" fill="#ee6730"/>
                <polygon points="375.48 242.25 375.75 242.25 375.57 241.89 375.41 241.97 375.57 242.05 375.48 242.25" fill="#ee6730"/>
                <polygon points="380.99 253.95 381.19 254.37 381.39 253.95 381.19 253.53 380.99 253.95" fill="#ee6730"/>
                <polygon points="379.84 251.55 380.04 251.97 380.24 251.55 380.04 251.14 379.84 251.55" fill="#ee6730"/>
                <polygon points="378.88 248.74 378.68 249.16 378.88 249.57 379.08 249.16 378.88 248.74" fill="#ee6730"/>
                <polygon points="377.72 246.35 377.52 246.76 377.72 247.18 377.92 246.76 377.72 246.35" fill="#ee6730"/>
                <polygon points="376.57 243.95 376.37 244.37 376.57 244.78 376.77 244.37 376.57 243.95" fill="#ee6730"/>
                <polygon points="375.35 242.25 375.41 242.39 375.48 242.25 375.35 242.25" fill="#ee6730"/>
                <polygon points="375.35 242.25 375.48 242.25 375.57 242.05 375.41 241.97 375.25 242.05 375.35 242.25" fill="#ee6730"/>
                <polygon points="380.03 247.18 380.99 249.16 381.19 248.74 380.23 246.76 380.03 247.18" fill="#ee6730"/>
                <polygon points="381.19 249.57 382.14 251.55 382.34 251.14 381.39 249.16 381.19 249.57" fill="#ee6730"/>
                <polygon points="377.72 242.39 378.67 244.37 378.87 243.95 378.06 242.25 377.78 242.25 377.72 242.39" fill="#ee6730"/>
                <polygon points="379.83 246.76 380.03 246.35 379.08 244.37 378.88 244.78 379.83 246.76" fill="#ee6730"/>
                <polygon points="377.78 242.25 378.06 242.25 377.88 241.89 377.72 241.97 377.88 242.05 377.78 242.25" fill="#ee6730"/>
                <polygon points="382.14 251.55 382.35 251.97 382.55 251.55 382.34 251.14 382.14 251.55" fill="#ee6730"/>
                <polygon points="380.99 249.16 381.19 249.57 381.39 249.16 381.19 248.74 380.99 249.16" fill="#ee6730"/>
                <polygon points="380.23 246.76 380.03 246.35 379.83 246.76 380.03 247.18 380.23 246.76" fill="#ee6730"/>
                <polygon points="379.08 244.37 378.87 243.95 378.67 244.37 378.88 244.78 379.08 244.37" fill="#ee6730"/>
                <polygon points="377.65 242.25 377.72 242.39 377.78 242.25 377.65 242.25" fill="#ee6730"/>
                <polygon points="377.65 242.25 377.78 242.25 377.88 242.05 377.72 241.97 377.56 242.05 377.65 242.25" fill="#ee6730"/>
                <polygon points="380.03 242.39 380.98 244.37 381.18 243.95 380.36 242.25 380.09 242.25 380.03 242.39" fill="#ee6730"/>
                <polygon points="382.34 247.18 383.29 249.16 383.5 248.74 382.54 246.76 382.34 247.18" fill="#ee6730"/>
                <polygon points="382.14 246.76 382.34 246.35 381.38 244.37 381.18 244.78 382.14 246.76" fill="#ee6730"/>
                <polygon points="380.09 242.25 380.36 242.25 380.19 241.89 380.03 241.97 380.19 242.05 380.09 242.25" fill="#ee6730"/>
                <polygon points="383.29 249.16 383.5 249.57 383.7 249.16 383.5 248.74 383.29 249.16" fill="#ee6730"/>
                <polygon points="382.14 246.76 382.34 247.18 382.54 246.76 382.34 246.35 382.14 246.76" fill="#ee6730"/>
                <polygon points="381.38 244.37 381.18 243.95 380.98 244.37 381.18 244.78 381.38 244.37" fill="#ee6730"/>
                <polygon points="379.96 242.25 380.03 242.39 380.09 242.25 379.96 242.25" fill="#ee6730"/>
                <polygon points="379.96 242.25 380.09 242.25 380.19 242.05 380.03 241.97 379.86 242.05 379.96 242.25" fill="#ee6730"/>
                <polygon points="383.49 244.78 384.45 246.76 384.65 246.35 383.69 244.37 383.49 244.78" fill="#ee6730"/>
                <polygon points="382.33 242.39 383.29 244.37 383.49 243.95 382.67 242.25 382.4 242.25 382.33 242.39" fill="#ee6730"/>
                <polygon points="382.4 242.25 382.67 242.25 382.5 241.89 382.33 241.97 382.5 242.05 382.4 242.25" fill="#ee6730"/>
                <polygon points="384.45 246.76 384.65 247.18 384.85 246.76 384.65 246.35 384.45 246.76" fill="#ee6730"/>
                <polygon points="383.29 244.37 383.49 244.78 383.69 244.37 383.49 243.95 383.29 244.37" fill="#ee6730"/>
                <polygon points="382.27 242.25 382.33 242.39 382.4 242.25 382.27 242.25" fill="#ee6730"/>
                <polygon points="382.27 242.25 382.4 242.25 382.5 242.05 382.33 241.97 382.17 242.05 382.27 242.25" fill="#ee6730"/>
                <polygon points="384.98 242.25 384.71 242.25 384.64 242.39 385.6 244.37 385.8 243.95 384.98 242.25" fill="#ee6730"/>
                <polygon points="384.71 242.25 384.98 242.25 384.8 241.89 384.64 241.97 384.8 242.05 384.71 242.25" fill="#ee6730"/>
                <polygon points="385.6 244.37 385.8 244.78 386 244.37 385.8 243.95 385.6 244.37" fill="#ee6730"/>
                <polygon points="384.64 242.39 384.71 242.25 384.58 242.25 384.64 242.39" fill="#ee6730"/>
                <polygon points="384.58 242.25 384.71 242.25 384.8 242.05 384.64 241.97 384.48 242.05 384.58 242.25" fill="#ee6730"/>
              </g>
            </g>
          </g>
        </g>
      </g>
    </g>
  </g>
</svg>