<?xml version="1.0" encoding="UTF-8"?>
<svg id="Layer_2" data-name="Layer 2" xmlns="http://www.w3.org/2000/svg" viewBox="0 0 559.68 300">
  <g id="Layer_1-2" data-name="Layer 1">
    <g>
      <g>
        <path d="M117.63,164.28c0,1.27-.39,2.01-1.18,2.25s-2.82.36-6.08.36c-.84,0-3.21-.08-7.1-.24-7.78-.31-13.15-.47-16.1-.47-3.47,0-6.53.08-9.15.24-5.26.31-8.84.47-10.73.47-2.84,0-4.26-.79-4.26-2.37s3-2.44,9-2.6c1.47,0,2.58-.16,3.32-.47,1.68-.31,2.53-1.26,2.53-2.84,0-.79-.63-4.1-1.89-9.94l-3.32-15.39c-.63-3.47-2-9.86-4.1-19.17h-15.15c-4.42-.15-9.1-.08-14.04.24-.95,3.16-2.74,10.26-5.37,21.3l-3.47,15.39c-.53,2.37-.79,4.26-.79,5.68,0,2.69,1.16,4.42,3.47,5.21.53.16,3.1.47,7.73.95,1.47.15,2.21.82,2.21,2.01,0,1.34-.95,2.01-2.84,2.01H12.21c-1.47,0-2.21-.79-2.21-2.37,0-.95,1.63-1.57,4.89-1.89,4.21-.31,6.89-1.5,8.05-3.55,1.15-2.05,3.05-8.68,5.68-19.88,2-7.89,4.89-19.57,8.68-35.04L56.4,25.33c.95-3.47,2.26-8.91,3.95-16.33,1.15-5.36,2.05-8.05,2.68-8.05s1.79,3.63,3.47,10.89c2.1,9.31,11.36,46.08,27.77,110.31,2.1,8.21,4.21,16.57,6.32,25.09,1.79,7.26,3.57,11.68,5.36,13.26,1.37,1.26,4.63,1.81,9.79,1.66,1.26,0,1.89.71,1.89,2.13ZM67.45,108.89c-.1-.47-.47-1.97-1.09-4.5-4.23-18.29-7.3-31.15-9.2-38.56-.51-2.06-1.21-5.08-2.11-9.05l-1.06-4.2c-1.89,6.78-4.19,16.17-6.92,28.15-3.04,13.41-5.24,22.8-6.6,28.16h26.98Z" fill="#004b41"/>
        <path d="M161.35,165.11c0,1.18-1.99,1.77-5.98,1.77-.94,0-3.88-.16-8.81-.47-2.52-.15-4.98-.24-7.39-.24s-6.61.16-12.89.47l-4.72.24c-2.31.15-3.46-.39-3.46-1.65s1.21-1.81,3.63-1.66c3.68.16,5.81-.39,6.39-1.65.58-1.26.87-5.98.87-14.18V23.18c0-5.36-.38-8.54-1.12-9.57-.75-1.03-2.93-1.54-6.56-1.54-2.67,0-4-.58-4-1.76,0-1.34,1.36-2.09,4.08-2.26,11.73-.63,21.31-3.31,28.74-8.05v142.03c0,10.73.18,17.01.55,18.82.37,1.81,1.66,2.64,3.87,2.49h4.73c1.37,0,2.05.59,2.05,1.78Z" fill="#004b41"/>
        <path d="M205.85,165.11c0,1.18-1.99,1.77-5.98,1.77-.94,0-3.88-.16-8.81-.47-2.52-.15-4.98-.24-7.39-.24s-6.61.16-12.89.47l-4.72.24c-2.31.15-3.46-.39-3.46-1.65s1.21-1.81,3.63-1.66c3.68.16,5.81-.39,6.39-1.65.58-1.26.87-5.98.87-14.18V23.18c0-5.36-.38-8.54-1.12-9.57-.75-1.03-2.93-1.54-6.56-1.54-2.67,0-4-.58-4-1.76,0-1.34,1.36-2.09,4.08-2.26,11.73-.63,21.31-3.31,28.74-8.05v142.03c0,10.73.18,17.01.55,18.82.37,1.81,1.66,2.64,3.87,2.49h4.73c1.37,0,2.05.59,2.05,1.78Z" fill="#004b41"/>
        <path d="M278.76,154.12c0,1.28-.84,3.05-2.53,5.29-4.52,6.25-10.1,9.37-16.73,9.37-4.32,0-7.44-1.36-9.39-4.08-1.95-2.71-3.24-7.59-3.87-14.62-4.73,12.94-11.2,19.41-19.41,19.41-4.52,0-8.18-2.13-10.97-6.39-2.79-4.26-4.18-9.78-4.18-16.57,0-19.89,11.36-31.64,34.09-35.27v-4.97c0-15.78-.37-25.48-1.1-29.12l-.16-1.18c-1.47-7.89-5.21-11.84-11.21-11.84-3.47,0-6.26,1.5-8.36,4.5s-3.16,5.92-3.16,8.76c0,1.58,1.26,2.53,3.79,2.84,3.79.47,5.68,3.95,5.68,10.42,0,3.47-.76,6.35-2.29,8.64-1.53,2.29-3.5,3.43-5.92,3.43-3.05,0-5.55-1.38-7.5-4.14-1.95-2.76-2.92-6.27-2.92-10.53,0-6.78,2.26-12.94,6.78-18.46,4.52-5.52,10.47-8.29,17.83-8.29,10.94,0,18.57,2.92,22.88,8.76,3.47,4.89,5.21,13.41,5.21,25.57v40.48c0,7.89.05,12.47.16,13.73.52,6.63,2.05,9.94,4.58,9.94,1.79,0,4-1.89,6.63-5.68.53-.79.95-1.18,1.26-1.18.53,0,.79.4.79,1.2ZM245.77,125.93v-11.6c-10.21,3-15.31,11.68-15.31,26.04,0,11.05,2.53,16.57,7.58,16.57,2.84,0,4.84-2.37,6-7.1,1.16-4.73,1.74-12.7,1.74-23.91Z" fill="#004b41"/>
        <path d="M402.32,165.7c0,1.42-.79,1.98-2.37,1.67h-35.19c-1.47,0-2.21-.48-2.21-1.43,0-.79,1.23-1.27,3.7-1.43,3.11-.16,4.67-1.59,4.67-4.29v-53.18c0-16.37-.37-26.23-1.11-29.57-1.06-4.61-3.71-6.92-7.95-6.92-3.92,0-7,2.54-9.22,7.61-.95,2.06-1.48,4.36-1.59,6.9-.21,3.02-.32,11.18-.32,24.5v45.19c0,4.76.29,7.54.87,8.33.58.79,2.55,1.19,5.92,1.19.95,0,1.42.4,1.42,1.19,0,1.27-.58,1.91-1.74,1.91-1.05,0-1.89-.08-2.53-.24l-30.61-.47c-.95,0-1.42-.47-1.42-1.42s1.26-1.42,3.79-1.42c1.89,0,3-.4,3.32-1.19l.31-2.38v-58.13c0-14.87-.58-23.85-1.74-26.93-1.16-3.09-3.53-4.63-7.1-4.63-4.32,0-7.52,2.7-9.63,8.09-.74,2.06-1.18,4.16-1.34,6.31s-.24,8.37-.24,18.67v47.11c0,7.3.29,11.3.87,12.02.58.71,2.03,1.07,4.34,1.07h2.37c1.05,0,1.58.44,1.58,1.31,0,1.02-.47,1.53-1.42,1.53h-10.42c-8.42.19-12.89.33-13.41.42-5.05.19-8.79.29-11.2.29h-2.21c-1.37,0-2.05-.63-2.05-1.9,0-1.1.47-1.65,1.42-1.65l3.63.95c1.79.16,3.26-.48,4.42-1.91.84-1.11,1.26-4.44,1.26-9.99v-39.27c0-22.05-.21-33.87-.63-35.46-.84-1.43-4.1-2.14-9.79-2.14-1.47,0-2.21-.55-2.21-1.66,0-1.26.68-1.89,2.05-1.89,10.52-.31,19.89-3.79,28.09-10.42.95-.79,1.63-1.18,2.05-1.18.53,0,.79.63.79,1.89,0,2.37-.05,4.34-.16,5.92v9.94c4.83-11.84,11.97-17.76,21.42-17.76,10.61,0,16.85,6.47,18.75,19.41,2.41-6.95,5.35-11.93,8.82-14.92,3.46-2.99,8.03-4.49,13.7-4.49,13.33,0,20,11.1,20,33.29v58.49c0,5.07.13,8.16.4,9.27.26,1.11,1.13,1.75,2.6,1.91,2.1.32,4,.47,5.68.47,1.05,0,1.58.48,1.58,1.43Z" fill="#004b41"/>
        <path d="M475.39,154.12c0,1.28-.84,3.05-2.53,5.29-4.52,6.25-10.1,9.37-16.73,9.37-4.32,0-7.44-1.36-9.39-4.08-1.95-2.71-3.24-7.59-3.87-14.62-4.73,12.94-11.2,19.41-19.41,19.41-4.52,0-8.18-2.13-10.97-6.39-2.79-4.26-4.18-9.78-4.18-16.57,0-19.89,11.36-31.64,34.09-35.27v-4.97c0-15.78-.37-25.48-1.1-29.12l-.16-1.18c-1.47-7.89-5.21-11.84-11.21-11.84-3.47,0-6.26,1.5-8.36,4.5-2.1,3-3.16,5.92-3.16,8.76,0,1.58,1.26,2.53,3.79,2.84,3.79.47,5.68,3.95,5.68,10.42,0,3.47-.76,6.35-2.29,8.64-1.53,2.29-3.5,3.43-5.92,3.43-3.05,0-5.55-1.38-7.5-4.14-1.95-2.76-2.92-6.27-2.92-10.53,0-6.78,2.26-12.94,6.78-18.46,4.52-5.52,10.47-8.29,17.83-8.29,10.94,0,18.57,2.92,22.88,8.76,3.47,4.89,5.21,13.41,5.21,25.57v40.48c0,7.89.05,12.47.16,13.73.52,6.63,2.05,9.94,4.58,9.94,1.79,0,4-1.89,6.63-5.68.53-.79.95-1.18,1.26-1.18.53,0,.79.4.79,1.2ZM442.41,125.93v-11.6c-10.21,3-15.31,11.68-15.31,26.04,0,11.05,2.53,16.57,7.58,16.57,2.84,0,4.84-2.37,6-7.1,1.16-4.73,1.74-12.7,1.74-23.91Z" fill="#004b41"/>
        <path d="M558.24,165.23c0,1.27-1.32,1.89-3.94,1.89h-33.77c-1.47,0-2.21-.59-2.21-1.77,0-1.03.62-1.55,1.86-1.55h1.24c2.68,0,4.26-.52,4.73-1.55.46-1.03.7-4.56.7-10.59v-45.92c0-16.97-.72-27.12-2.17-30.45-1.24-2.86-3.47-4.28-6.68-4.28s-5.85,1.5-7.92,4.49c-2.07,2.99-3.11,6.77-3.11,11.33v71.55c.21,1.89.65,3.11,1.34,3.66.68.55,2.39.91,5.13,1.06.84,0,1.26.47,1.26,1.42s-.37,1.5-1.1,1.65c-.74.15-3.37.23-7.89.23s-8.26.08-11.2.24c-5.79.31-11.68.47-17.67.47-1.26,0-1.89-.55-1.89-1.65,0-1.26,1.6-1.89,4.81-1.89s5.07-.94,5.6-2.83l.47-3.3v-54.3c0-15.27-.11-23.22-.32-23.85-.31-2.36-1.74-3.54-4.26-3.54h-5.37c-1.69,0-2.53-.51-2.53-1.55s.63-1.62,1.88-1.77c11.73-.79,21.1-4.5,28.12-11.13.84-.63,1.41-.95,1.73-.95.84,0,1.26,1.26,1.26,3.79v13.49c5.58-10.89,12.73-16.33,21.46-16.33s14.94,4.73,17.67,14.2c1.15,3.95,1.87,8.37,2.13,13.26.26,4.89.4,14.99.4,30.3v34.32c0,4.89.26,7.77.79,8.64.53.87,2.24,1.3,5.13,1.3s4.34.63,4.34,1.89Z" fill="#004b41"/>
      </g>
      <g>
        <path d="M71.06,296.25c0,.84-.26,1.33-.78,1.48-.52.16-1.86.24-4.01.24-.56,0-2.12-.06-4.69-.16-5.14-.21-8.68-.31-10.63-.31-2.29,0-4.31.05-6.04.15-3.47.21-5.83.31-7.08.31-1.88,0-2.81-.52-2.81-1.56s1.98-1.61,5.94-1.72c.97,0,1.7-.1,2.19-.31,1.11-.21,1.67-.83,1.67-1.88,0-.52-.42-2.71-1.25-6.56l-2.19-10.16c-.42-2.29-1.32-6.51-2.71-12.66h-10c-2.92-.1-6.01-.05-9.27.16-.63,2.09-1.81,6.77-3.54,14.07l-2.29,10.16c-.35,1.56-.52,2.81-.52,3.75,0,1.77.76,2.92,2.29,3.44.35.11,2.05.31,5.11.63.97.1,1.46.54,1.46,1.33,0,.89-.63,1.33-1.88,1.33H1.46c-.98,0-1.46-.52-1.46-1.56,0-.62,1.08-1.04,3.23-1.25,2.78-.21,4.54-.99,5.31-2.34.76-1.35,2.01-5.73,3.75-13.13,1.32-5.21,3.23-12.92,5.73-23.13l12.61-52.04c.63-2.29,1.49-5.88,2.6-10.78.77-3.54,1.36-5.31,1.77-5.31s1.18,2.4,2.29,7.19c1.39,6.15,7.5,30.42,18.34,72.83,1.39,5.42,2.78,10.94,4.17,16.56,1.18,4.79,2.36,7.71,3.54,8.75.9.84,3.06,1.2,6.46,1.09.83,0,1.25.47,1.25,1.41ZM37.92,259.68c-.07-.31-.31-1.3-.72-2.97-2.79-12.08-4.82-20.56-6.08-25.46-.33-1.36-.8-3.35-1.39-5.98l-.7-2.77c-1.25,4.48-2.77,10.68-4.57,18.59-2.01,8.85-3.46,15.05-4.36,18.59h17.81Z" fill="#80684b"/>
        <path d="M106.37,287.81c0,1.15-.67,2.66-1.99,4.53-3.43,4.9-8.15,7.34-14.17,7.34-5.53,0-9.17-2.03-10.92-6.1-.7-1.56-1.11-3.02-1.21-4.38-.11-1.35-.16-4.85-.16-10.47v-7.5c.14-1.98.21-4.06.21-6.25l-.21-3.28v-25.32c0-1.88-.17-2.97-.52-3.28-.35-.31-1.39-.47-3.12-.47-2.09,0-3.12-.41-3.12-1.25,0-.63.38-1.04,1.14-1.25,6.53-.31,12.15-5.63,16.88-15.94.63-1.46,1.11-2.19,1.46-2.19.42,0,.63.73.63,2.19-.07,8.96.17,13.86.73,14.69.56.84,2.26,1.25,5.1,1.25s4.96-.21,6.15-.63c.14-.1.28-.16.42-.16.28,0,.42.33.42.98,0,1.53-.45,2.29-1.34,2.29-2.82.11-5.96.16-9.4.16h-1.45v3.26c0,27.78.14,44.06.42,48.82.63,6.01,2.61,9.02,5.92,9.02,1.48,0,3.38-1.56,5.71-4.69,1.12-1.46,1.83-2.19,2.11-2.19.21,0,.32.26.32.78Z" fill="#80684b"/>
        <path d="M158.78,297.34c0,.63-.31.94-.94.94.07,0-.63,0-2.09,0h-6.25c-5.98,0-9.66-.16-11.04-.47h-1.67l-2.5.47c-.9.1-1.36-.29-1.36-1.18,0-.67.17-1.01.52-1.01h2.4c1.53.11,2.4-.52,2.61-1.88.14-.83.21-6.04.21-15.63v-23.28c0-9.69-.31-15.42-.93-17.19-.89-2.71-2.62-4.06-5.17-4.06-2.69,0-4.76,1.83-6.2,5.5-.69,1.78-1.03,5.6-1.03,11.47v42.87c-.07,1.57,1.36,2.36,4.29,2.36.61,0,.92.32.92.94,0,.73-.45,1.1-1.36,1.1h-.83c-.56-.31-1.39-.47-2.5-.47h-4.58l-5.84.16-6.15.31h-3.12c-1.04,0-1.56-.31-1.56-.94,0-.31.07-.52.21-.63.14-.1.45-.16.94-.16,2.64,0,4.2-.16,4.69-.47.48-.31.8-1.51.94-3.6.07-1.25.11-7.5.11-18.75v-57.35c0-11.25-.16-17.74-.47-19.46s-1.79-2.58-4.43-2.58c-2.01,0-3.02-.31-3.02-.94s1.17-1.04,3.52-1.25c5.32-.52,10.34-1.88,15.03-4.06.9-.42,1.56-.63,1.97-.63.56,0,.83,2.92.83,8.75v43.13c2.01-4.27,3.98-7.19,5.88-8.75,1.91-1.56,4.5-2.34,7.76-2.34,6.88,0,11.18,4.17,12.92,12.5.62,2.71.94,7.09.94,13.13v36.41c0,2.71.29,4.38.89,5,.59.63,2.06.94,4.43.94.7,0,1.04.37,1.04,1.09Z" fill="#80684b"/>
        <path d="M188.68,296.8c0,.78-1.32,1.17-3.95,1.17-.62,0-2.56-.11-5.81-.31-1.66-.1-3.29-.15-4.88-.15s-4.36.1-8.51.31l-3.11.16c-1.53.1-2.29-.26-2.29-1.09s.8-1.2,2.4-1.09c2.43.1,3.84-.26,4.22-1.09.38-.83.58-3.95.58-9.36v-82.24c0-3.54-.25-5.64-.74-6.32-.49-.68-1.94-1.02-4.33-1.02-1.76,0-2.64-.39-2.64-1.16,0-.88.9-1.38,2.7-1.49,7.74-.42,14.07-2.19,18.98-5.31v93.77c0,7.09.12,11.23.36,12.43.24,1.2,1.09,1.74,2.55,1.64h3.12c.9,0,1.36.39,1.36,1.17Z" fill="#80684b"/>
        <path d="M232.96,278.75c0,2.29-.9,5.31-2.71,9.06-3.89,8.03-8.96,12.03-15.21,12.03-7.02,0-12.78-3.33-17.3-10-4.51-6.67-6.77-15.21-6.77-25.63s2.19-18.73,6.56-25.55c4.38-6.82,9.83-10.24,16.36-10.24,4.44,0,8.23,1.46,11.35,4.38,3.47,3.23,5.73,7.87,6.77,13.91.28,1.88.48,4.12.62,6.72-1.6.28-8.02.49-19.27.63-1.74,0-3.93.11-6.57.31-.21,3.73-.31,6.9-.31,9.49,0,12.14,1.7,20.76,5.1,25.84,2.01,3.01,4.48,4.51,7.4,4.51,2.43,0,4.77-1.25,7.03-3.75,2.26-2.5,3.97-5.73,5.16-9.69.56-1.98,1-2.97,1.36-2.97.28,0,.42.31.42.94ZM219.83,251.4c.07-7.96-.31-13.5-1.14-16.6-.84-3.1-2.29-4.65-4.38-4.65-4.24,0-6.67,7.09-7.29,21.25h12.81Z" fill="#80684b"/>
        <path d="M270.36,287.81c0,1.15-.67,2.66-1.99,4.53-3.43,4.9-8.15,7.34-14.17,7.34-5.53,0-9.17-2.03-10.92-6.1-.7-1.56-1.11-3.02-1.21-4.38-.11-1.35-.16-4.85-.16-10.47v-7.5c.14-1.98.21-4.06.21-6.25l-.21-3.28v-25.32c0-1.88-.17-2.97-.52-3.28-.35-.31-1.39-.47-3.12-.47-2.09,0-3.12-.41-3.12-1.25,0-.63.38-1.04,1.14-1.25,6.53-.31,12.15-5.63,16.88-15.94.63-1.46,1.11-2.19,1.46-2.19.42,0,.63.73.63,2.19-.07,8.96.17,13.86.73,14.69.56.84,2.26,1.25,5.1,1.25s4.96-.21,6.15-.63c.14-.1.28-.16.42-.16.28,0,.42.33.42.98,0,1.53-.45,2.29-1.34,2.29-2.82.11-5.96.16-9.4.16h-1.45v3.26c0,27.78.14,44.06.42,48.82.63,6.01,2.61,9.02,5.92,9.02,1.48,0,3.38-1.56,5.71-4.69,1.12-1.46,1.83-2.19,2.11-2.19.21,0,.32.26.32.78Z" fill="#80684b"/>
        <path d="M297.45,296.88c0,.73-.31,1.09-.93,1.09h-26.26c-.83,0-1.25-.33-1.25-1,0-.5.8-.79,2.4-.87,2.36-.1,3.75-.5,4.17-1.18.42-.68.63-2.75.63-6.21v-45.08c0-3.98-.23-6.36-.68-7.15-.45-.79-1.82-1.18-4.12-1.18-1.46,0-2.31-.05-2.55-.16-.25-.1-.36-.47-.36-1.09,0-.73.52-1.09,1.56-1.09,7.64-.1,14.17-1.88,19.59-5.31.14,1.25.31,4.69.52,10.31v49.23c0,4.27.26,6.77.78,7.5.52.73,2.31,1.1,5.37,1.1.76,0,1.14.36,1.14,1.09ZM290.16,197.79c0,2.92-.68,5.42-2.03,7.5-1.35,2.09-2.98,3.13-4.9,3.13s-3.66-.99-5.01-2.97c-1.35-1.98-2.02-4.48-2.02-7.5s.67-5.31,2.02-7.19c1.35-1.87,3.09-2.81,5.22-2.81,1.92,0,3.51.94,4.79,2.81,1.28,1.88,1.92,4.22,1.92,7.03Z" fill="#80684b"/>
        <path d="M339.85,244.36c0,2.5-.49,4.53-1.46,6.09-.98,1.56-2.23,2.34-3.75,2.34-3.68,0-5.52-2.45-5.52-7.34,0-1.25.22-2.73.67-4.45.45-1.72.68-2.94.68-3.67,0-1.98-.5-3.67-1.51-5.08-1.01-1.41-2.24-2.11-3.7-2.11-6.32,0-9.48,10.58-9.48,31.73,0,12.09,1.39,20.73,4.17,25.94,2.15,3.96,4.79,5.94,7.92,5.94s6.6-3.18,10-9.53c.42-.83.8-1.25,1.14-1.25.28,0,.42.31.42.94,0,1.98-1.25,4.74-3.75,8.28-3.61,5.11-7.95,7.66-13.02,7.66-6.25,0-11.58-3.36-16-10.08-4.41-6.72-6.61-14.87-6.61-24.46,0-10.42,2.33-19.2,6.98-26.34,4.65-7.13,10.39-10.7,17.19-10.7,4.38,0,8.08,1.56,11.1,4.69,3.02,3.12,4.53,6.93,4.53,11.41Z" fill="#80684b"/>
        <path d="M418.41,263.59l-.11,2.66c0,.52-.17,3.8-.52,9.85-.28,4.58-.42,8.13-.42,10.63,0,3.13.03,5.73.11,7.82.07.73.1,1.62.1,2.66,0,1.14-.17,1.72-.52,1.72s-.73-.52-1.14-1.56c-1.53-3.75-3.16-6.2-4.9-7.34-5.21,6.67-10.8,10-16.78,10-9.1,0-17.12-5.1-24.07-15.31-7.36-10.84-11.04-24.48-11.04-40.95s3.32-29.25,9.95-39.93c6.63-10.68,14.91-16.02,24.85-16.02,4.59,0,8.68,1.56,12.29,4.69,2.09,1.77,3.61,2.66,4.59,2.66,1.46,0,2.81-.99,4.06-2.97.9-1.46,1.46-2.19,1.67-2.19.28,0,.42.36.42,1.09,0,.31-.04.78-.11,1.41-.42,3.54-.62,7.92-.62,13.13,0,.52.03,2.66.1,6.41v10.79c0,1.87-.35,2.81-1.04,2.81-.56,0-1.11-2.03-1.67-6.1-2.5-18.75-8.23-28.13-17.19-28.13-7.08,0-12.23,6.88-15.42,20.63-2.23,9.38-3.33,20.63-3.33,33.76,0,19.48,2.64,33.76,7.91,42.82,2.78,4.79,6.43,7.19,10.94,7.19,9.79,0,16.22-9.79,19.27-29.38.49-3.23,1.04-4.85,1.67-4.85.69,0,1,.68.94,2.03Z" fill="#80684b"/>
        <path d="M451.54,296.8c0,.78-1.32,1.17-3.95,1.17-.62,0-2.56-.11-5.81-.31-1.66-.1-3.29-.15-4.88-.15s-4.36.1-8.51.31l-3.11.16c-1.53.1-2.29-.26-2.29-1.09s.8-1.2,2.4-1.09c2.43.1,3.84-.26,4.22-1.09.38-.83.58-3.95.58-9.36v-82.24c0-3.54-.25-5.64-.74-6.32-.49-.68-1.94-1.02-4.33-1.02-1.76,0-2.64-.39-2.64-1.16,0-.88.9-1.38,2.7-1.49,7.74-.42,14.07-2.19,18.98-5.31v93.77c0,7.09.12,11.23.36,12.43.24,1.2,1.09,1.74,2.55,1.64h3.12c.9,0,1.36.39,1.36,1.17Z" fill="#80684b"/>
        <path d="M509.25,292.81c0,.84-.59,1.3-1.77,1.41-6.32.31-10.7.81-13.13,1.49-2.43.68-4.51,1.9-6.25,3.67-.42.42-.8.63-1.14.63-.28,0-.42-.42-.42-1.25v-6.72c0-.94-.04-1.77-.11-2.5-4.34,6.98-9.06,10.47-14.16,10.47-4.55,0-8.14-2.19-10.76-6.58-1.65-2.72-2.48-7.73-2.48-15.04v-40.73c0-2.29-.22-3.71-.67-4.23-.45-.52-1.7-.84-3.75-.94-1.78-.1-2.67-.52-2.67-1.25,0-.83.49-1.25,1.46-1.25h1.14c1.04,0,2.62.08,4.74.24,2.12.15,3.56.23,4.32.23.14,0,.85-.08,2.14-.23,1.28-.16,3.18-.24,5.68-.24h1.98v16.96c0,8.06-.07,13.98-.21,17.74-.14,3.77-.21,5.39-.21,4.87,0,10.99.47,17.85,1.41,20.57.94,2.72,2.41,4.08,4.43,4.08,2.29,0,4.44-1.93,6.46-5.8.62-1.15.99-2.32,1.09-3.53.1-1.2.16-4.15.16-8.85v-26.95c0-7.62-.07-12.22-.21-13.79-.14-1.98-.99-2.98-2.56-2.98h-2.87c-.96,0-1.44-.42-1.44-1.25,0-.63,1.87-.94,5.6-.94,3.25,0,8.4-.05,15.45-.16v50.79c0,4.9.07,7.79.21,8.67.14.89.66,1.48,1.56,1.8.62.21,2.5.31,5.63.31.9,0,1.35.42,1.35,1.25Z" fill="#80684b"/>
        <path d="M559.68,262.02c0,13.13-3.47,23.29-10.42,30.47-4.79,4.9-9.79,7.34-15,7.34-1.95,0-4.76-.94-8.44-2.81-1.95-1.04-3.44-1.56-4.48-1.56-1.87,0-3.79,1.04-5.73,3.13-.42.41-.73.63-.94.63-.48,0-.76-.31-.83-.94-.07-.63-.11-2.5-.11-5.63v-91.74c0-2.71-.33-4.48-.98-5.31-.65-.83-2.07-1.25-4.27-1.25-1.85,0-2.78-.36-2.78-1.09s.42-1.09,1.27-1.09c7.89,0,14.76-1.3,20.61-3.91l.11,2.5v46.1c2.77-5.73,6.61-8.6,11.53-8.6,5.95,0,10.85,3.15,14.69,9.46,3.84,6.3,5.76,14.4,5.76,24.3ZM544.16,262.65c0-20.21-2.81-30.32-8.44-30.32-3.12,0-5.42,2.19-6.88,6.56-.56,1.67-.89,3.62-.99,5.86-.1,2.24-.16,8.62-.16,19.15v9.53c0,9.8.44,16.28,1.31,19.46.86,3.18,2.62,4.77,5.26,4.77,3.61,0,6.16-2.66,7.66-7.97,1.49-5.31,2.24-14.32,2.24-27.04Z" fill="#80684b"/>
      </g>
    </g>
  </g>
</svg>