<?xml version="1.0" encoding="UTF-8"?>
<svg id="Layer_2" data-name="Layer 2" xmlns="http://www.w3.org/2000/svg" viewBox="0 0 344.28 100">
  <g id="Layer_1-2" data-name="Layer 1">
    <g>
      <g>
        <g>
          <path d="M108.72,8.98c.62,3.54,4.22,9.7,6.14,12.62l1.5,2.28c2.03,3.08,3.66,6.28,5.4,9.39-1.35-6.33-4.83-11.29-8.38-16.13-2.1-2.89-2.58-5.21-4.67-8.17Z" fill="#80684b"/>
          <path d="M39.5,45.1c1.55.37,3.15-.16,5.11-.19l7.88-.13c3.25-.38,6.3-.74,9.22-2.01-8.15,1.19-14.59.03-22.2,2.33Z" fill="#80684b"/>
          <path d="M123.31,52.66c-4.44-2.47-8.6-3.38-12.61-5.34l-5.78-2.82c-1.37-.67-2.57-2.31-4.37-2.16.91,2.63,1.19,6.33-.99,8.28-1.25,1.13-3.01,1.72-3.46,3.63h31.07c.09-.02.18-.04.27-.07l-4.13-1.52Z" fill="#80684b"/>
          <path d="M240.15,7.48c.27,1.66.52,2.92.42,4.56l-.38,6.11c-.43,7.01-2.59,8.71-5.9,14.28-6.14,5.3-2.38,9.18-7.86,11.58-1.41.61-2.7,1.5-3.79,2.53l-2.81,2.68c6.37-1.67,5.73-3.63,13.05-6.59,1.01-.41,1.88-1.19,2.95-1.52l5.99-1.83c3.7-1.13,14.52-9.68,14.83-9.83.98-.48,2.26-.69,3.11-1.35l7.18-5.61,6.05-3.66c2.74-1.65,5.13-3.58,7.85-5.27,6.47-4.02,6.23-6.35,11.74-6.59l11.17-6.85h.96s-13.12,0-13.12,0c-.17,3.07-2.36,4-4.45,5.61l-7.05,5.41c-.11-3.97-.14-7.33-.68-11.02h-8.15c-.12,1.25-.13,2.22-.35,3.24-2.2,10.21-1.37,4.03-4.68,11.78-.72,1.69-1.43,3.43-1.88,5.16-5.18,1.29-3.51,5.71-10.55,7.41-1.09-.57-2.04-2.17-2.5-3.35l-1.7-4.39c-.15-.38-.69-.99-.54-1.29l.55-1.11c-1.63-2.62-2.29-8.63-2.05-11.9l.41-5.56h-7.45v.12c-.05,2.58-.73,4.93-.35,7.24Z" fill="#80684b"/>
          <path d="M89.96,20.26c.35-5.64-2.37-10.99-4.22-16.2-.47-1.32-.55-2.87-1.28-3.93.55,7.41,4.01,13.31,5.5,20.12Z" fill="#80684b"/>
          <path d="M61.11,52.08c-5.9,1.88-12.18.87-18.34.04-.6-.23-1.78-1.12-2.43-1.14l-8.25-.34c-2.15-.09-4.03.81-6.33-.18,1.29-1.42,2.65-2.28,4.3-3.12,2.45-1.24,1.21-3.24,6.23-5.31l9.82-4.06c2.94-1.21,4.89-4.33,8.08-5.27,6.63-1.96,13.64-2.46,20.5-1.67,1.82.21,3.17,2.08,5.18,1.28l-6.26-4.31c-4.79-3.3-9.72-3.63-12.2-6.15l-3.88-3.93c-2.8-2.83-8.08-3.62-9.54-4.6-2.18-1.48-4.27-2.83-6.16-4.7-1.31-1.29-2.97-2.05-4.81-2.39L27.23.12H0v54.13h96.1l-35.5-.02c.44,0,.75-2.07.51-2.14Z" fill="#80684b"/>
          <path d="M89.95,48.52c1.29-.55,2.83-.46,3.9-1.53-7.25.95-13.09,4.76-19.96,6.55,2.96,0,5.8-.64,8.51-1.79l7.54-3.22Z" fill="#80684b"/>
          <path d="M51.92,6.69c1.16.34,3.35.13,4.3.95,2.55,2.18,4.94,4.04,7.73,5.81,2.76,1.75,5.18,3.76,8.01,5.42l5.72,3.35c2.61,1.52,4.51,3.88,7.13,5.58.9.58,2.23.86,3.14,1.35.41.22,11.41,9.06,15.22,10.14l5.5,1.56c1.27.36,2.22,1.37,3.45,1.81,6.78,2.44,6.26,4.79,12.98,6.6-1.69-1.63-3.3-3.26-5.24-4.55-1.89-1.26-4.74-1.99-5.11-4.57-.48-3.32-2.17-5.4-4.34-7.82-1.26-1.41-2.33-3.65-3.53-5.48-2.16-3.29-2.46-7.03-2.7-10.73-.16-2.42-.59-5.06-.08-7.35.35-1.55.51-2.65.33-4.23l-.49-4.4h-7.47c.82,8.9.93,7.12-.61,15.71-.06.33-1.03,1.01-.89,1.31l.6,1.35c-1.59,2.56-2.44,8.57-5.11,8.91-6.96-2.11-4.61-5.78-10.3-7.3-.16-.77-.35-1.88-.59-2.41l-2.35-5.25c-.87-1.93-2.29-3.3-2.77-5.45-.52-2.29-1.02-4.43-1.26-6.86h-31.93c3.53,2.43,6.99,4.5,10.67,6.57Z" fill="#80684b"/>
          <path d="M254.3,40.9c3.1-.52,6.07.02,9.36.53l-5.59-5.05c-.21-.19-1.42-.06-1.41.19v1.09c-2.05.96-3.9,1.75-5.93,3.27,1.29.3,2.3.18,3.58-.03Z" fill="#80684b"/>
          <path d="M253.68,47.31c1.07,1.07,2.61.98,3.9,1.53l7.54,3.22c2.71,1.16,5.56,1.79,8.52,1.79-6.87-1.78-12.71-5.59-19.96-6.54Z" fill="#80684b"/>
          <path d="M300.08,45.01c1.85.24,3.37,1.04,5.04.4-7.85-2.15-14-1.21-22.19-2.31,3.84,1.57,7.8,1.9,12.04,1.95,1.66.02,3.54-.25,5.11-.05Z" fill="#80684b"/>
          <path d="M258.86,4.34l-2.85,7.69c-1.02,2.76-1.51,5.64-1.38,8.59,1.45-6.94,4.97-12.97,5.56-20.25-1.02,1.12-.85,2.66-1.34,3.97Z" fill="#80684b"/>
          <path d="M317.57.12l-10.22,6.35c-2.03.55-3.74,1.55-5.26,2.96-1.82,1.68-3.76,2.96-5.8,4.37-.59.41-7.31,2.18-9.77,4.75l-3.45,3.6c-1.98,2.07-7.39,3.14-10.8,5.29-2.53,1.6-4.78,3.22-7.23,4.99,4.1.67,1.36-1.46,8.63-1.42,5.91.03,11.74.18,17.33,2.25,2.87,1.07,4.87,3.68,7.51,5.06,3.83,2,11.83,4.09,13.43,6.75,2.46,4.09,3.66,1.97,6.81,5.91-2.35.6-4.34-.03-6.57.04-13.37.42-8.02,1.51-12.31,1.83l-8.65.63c-2.59.19-4.95-.36-7.59-1.1-.3.17-.26,1.28.08,1.86h60.57V.12h-26.71Z" fill="#80684b"/>
          <path d="M90.53,40.69c1.05.21,2,.19,3.32-.12l-5.73-3.2c-.1-.5-.2-1-.33-1.3-.13-.3-1.23.05-1.48.27l-5.35,4.84c3.49-.63,6.32-1.15,9.57-.5Z" fill="#80684b"/>
          <path d="M216.4,51.46l-.21-5.83c-.06-1.88.08-4.08-.32-5.98-.49-2.38-.59-4.1-.19-6.3.99-5.54,1.89-11.02,4.54-16.06,1.46-2.77,4.26-4.48,6.13-6.95,2.42-3.18,3.72-7.04,6.23-10.23h-120.66c2.53,3.14,4.04,7.03,6.23,10.02,1.81,2.48,4.67,4.09,6.16,6.91,2.64,5.01,3.48,10.49,4.53,15.99.5,2.64.09,4.6-.33,7.18-.58,3.52-.13,7.21-.32,11.09,3.91,1.63,5.86,2.51,7.8,2.94h73c1.92-.44,3.95-1.28,7.41-2.79Z" fill="#80684b"/>
          <path d="M235.53,9.72c-1.14,1.69-1.92,3.39-2.9,5.11-3.03,5.33-8.53,11.13-9.78,18.52,1.94-3.59,3.65-6.73,5.79-9.96,2.11-3.19,6.27-9.87,6.89-13.67Z" fill="#80684b"/>
          <path d="M243.89,42.63c-1.89-.09-2.97,1.49-4.31,2.13l-5.54,2.66c-3.9,1.87-7.28,2.73-12.63,5.37-1.27.63-2.69.7-4.1,1.46h31.14c-1.36-4.5-6.64-.81-4.55-11.62Z" fill="#80684b"/>
          <path d="M280.07,11.14l7.05-5.41c2.09-1.6,4.28-2.54,4.45-5.61h-12.18c.55,3.69.57,7.05.68,11.02Z" fill="#004b41"/>
          <path d="M283.63,52.38c2.64.73,5,1.29,7.59,1.1l8.65-.63c4.29-.31-1.06-1.41,12.31-1.83,2.23-.07,4.22.56,6.57-.04-3.15-3.94-4.35-1.82-6.81-5.91-1.6-2.66-9.6-4.75-13.43-6.75-2.65-1.38-4.65-4-7.51-5.06-5.58-2.08-11.42-2.22-17.33-2.25-7.27-.04-4.54,2.1-8.63,1.42,2.45-1.77,4.7-3.39,7.23-4.99,3.41-2.16,8.82-3.22,10.8-5.29l3.45-3.6c2.46-2.57,9.18-4.34,9.77-4.75,2.04-1.42,3.98-2.69,5.8-4.37,1.53-1.41,3.24-2.41,5.26-2.96L317.57.12l.19-.12-13.06.12h-.96s-11.17,6.86-11.17,6.86c-5.51.25-5.27,2.57-11.74,6.59-2.71,1.69-5.11,3.61-7.85,5.27l-6.05,3.66-7.18,5.61c-.85.66-2.13.88-3.11,1.35-.31.15-11.13,8.71-14.83,9.83l-5.99,1.83c-1.06.32-1.94,1.11-2.95,1.52-7.32,2.95-6.68,4.91-13.05,6.59l2.81-2.68c1.09-1.04,2.38-1.92,3.79-2.53,5.48-2.4,1.72-6.27,7.86-11.58,3.31-5.57,5.47-7.27,5.9-14.28l.38-6.11c.1-1.64-.15-2.9-.42-4.56-.38-2.32.3-4.66.35-7.24v-.12h-7.92c-2.51,3.18-3.81,7.05-6.23,10.23-1.87,2.46-4.68,4.17-6.13,6.95-2.65,5.04-3.54,10.52-4.54,16.06-.4,2.2-.3,3.92.19,6.3.4,1.9.25,4.1.32,5.98l.21,5.83c-3.46,1.51-5.48,2.35-7.41,2.79h8.32c1.41-.75,2.83-.83,4.1-1.46,5.36-2.64,8.74-3.5,12.63-5.37l5.54-2.66c1.34-.64,2.42-2.23,4.31-2.13-2.09,10.81,3.19,7.12,4.55,11.62h35.27c-.34-.59-.38-1.7-.08-1.86ZM232.63,14.84c.98-1.73,1.76-3.42,2.9-5.11-.62,3.8-4.78,10.48-6.89,13.67-2.14,3.23-3.84,6.37-5.79,9.96,1.25-7.39,6.75-13.19,9.78-18.52ZM305.12,45.42c-1.67.64-3.19-.17-5.04-.4-1.57-.2-3.45.07-5.11.05-4.24-.05-8.2-.39-12.04-1.95,8.19,1.1,14.34.16,22.19,2.31ZM256.67,37.66v-1.09c-.02-.25,1.19-.38,1.4-.19l5.59,5.05c-3.29-.52-6.26-1.06-9.36-.53-1.27.22-2.29.33-3.58.03,2.03-1.52,3.88-2.31,5.94-3.27ZM265.12,52.06l-7.54-3.22c-1.29-.55-2.83-.46-3.9-1.53,7.25.95,13.09,4.76,19.96,6.54-2.96,0-5.8-.64-8.52-1.79Z" fill="#004b41"/>
          <path d="M247.54,5.68c-.24,3.27.42,9.28,2.05,11.9l-.55,1.11c-.15.3.39.9.54,1.29l1.7,4.39c.45,1.17,1.41,2.78,2.5,3.35,7.04-1.7,5.37-6.12,10.55-7.41.45-1.73,1.16-3.47,1.88-5.16,3.31-7.75,2.48-1.57,4.68-11.78.22-1.02.23-1.99.35-3.24h-23.29l-.41,5.56ZM254.64,20.62c-.14-2.96.35-5.83,1.38-8.59l2.85-7.69c.49-1.32.32-2.85,1.34-3.97-.6,7.29-4.12,13.31-5.56,20.25Z" fill="#004b41"/>
          <path d="M74.44,6.98c.48,2.15,1.9,3.51,2.77,5.45l2.35,5.25c.24.53.43,1.64.59,2.41,5.69,1.53,3.34,5.19,10.3,7.3,2.67-.33,3.51-6.35,5.11-8.91l-.6-1.35c-.13-.3.83-.97.89-1.31,1.54-8.58,1.43-6.81.61-15.71h-23.29c.24,2.43.75,4.57,1.26,6.86ZM85.74,4.07c1.86,5.21,4.57,10.55,4.22,16.2-1.49-6.81-4.95-12.71-5.5-20.12.73,1.05.81,2.61,1.28,3.93Z" fill="#004b41"/>
          <path d="M128.19,51.31c.19-3.88-.27-7.57.32-11.09.43-2.58.84-4.54.33-7.18-1.05-5.5-1.89-10.98-4.53-15.99-1.48-2.82-4.35-4.43-6.16-6.91-2.19-2.99-3.7-6.88-6.23-10.02h-7.99l.49,4.4c.18,1.58.02,2.68-.33,4.23-.51,2.29-.08,4.93.08,7.35.24,3.71.54,7.44,2.7,10.73,1.2,1.82,2.26,4.06,3.53,5.48,2.17,2.43,3.87,4.5,4.34,7.82.37,2.59,3.21,3.32,5.11,4.57,1.94,1.28,3.55,2.92,5.24,4.55-6.71-1.8-6.19-4.16-12.98-6.6-1.22-.44-2.18-1.45-3.45-1.81l-5.5-1.56c-3.81-1.08-14.81-9.93-15.22-10.14-.91-.49-2.24-.77-3.14-1.35-2.62-1.7-4.52-4.06-7.13-5.58l-5.72-3.35c-2.83-1.66-5.26-3.67-8.01-5.42-2.79-1.77-5.17-3.62-7.73-5.81-.95-.81-3.14-.61-4.3-.95-3.68-2.07-7.14-4.14-10.67-6.57h-14.01l9.8,6.11c1.84.34,3.5,1.1,4.81,2.39,1.89,1.87,3.98,3.22,6.16,4.7,1.46.99,6.74,1.77,9.54,4.6l3.88,3.93c2.48,2.51,7.41,2.85,12.2,6.15l6.26,4.31c-2.01.8-3.36-1.07-5.18-1.28-6.86-.79-13.87-.29-20.5,1.67-3.19.94-5.15,4.06-8.08,5.27l-9.82,4.06c-5.02,2.08-3.79,4.07-6.23,5.31-1.65.84-3.01,1.7-4.3,3.12,2.3.98,4.19.09,6.33.18l8.25.34c.66.03,1.83.92,2.43,1.14,6.15.83,12.44,1.84,18.34-.04.24.07-.06,2.14-.51,2.14l35.5.02c.44-1.91,2.2-2.5,3.46-3.63,2.17-1.95,1.9-5.65.99-8.28,1.8-.15,3,1.49,4.37,2.16l5.78,2.82c4.02,1.96,8.18,2.86,12.61,5.34l4.13,1.52c-.09.03-.18.04-.27.07h8.81c-1.93-.43-3.88-1.3-7.8-2.94ZM116.37,23.89l-1.5-2.28c-1.93-2.93-5.52-9.09-6.14-12.62,2.09,2.95,2.57,5.28,4.67,8.17,3.55,4.84,7.03,9.81,8.38,16.13-1.74-3.11-3.37-6.31-5.4-9.39ZM86.31,36.34c.25-.23,1.35-.57,1.48-.27.13.3.23.8.33,1.3l5.73,3.2c-1.32.31-2.27.33-3.32.12-3.25-.65-6.08-.14-9.57.5l5.35-4.84ZM52.49,44.78l-7.88.13c-1.95.03-3.56.56-5.11.19,7.61-2.31,14.05-1.15,22.2-2.33-2.92,1.27-5.97,1.63-9.22,2.01ZM73.89,53.53c6.86-1.78,12.71-5.59,19.96-6.55-1.07,1.07-2.61.98-3.9,1.53l-7.54,3.22c-2.71,1.16-5.56,1.79-8.51,1.79Z" fill="#004b41"/>
        </g>
        <g>
          <g>
            <path d="M153.47,52.27c-.26,0-.92-.02-2.14-.07-2.31-.09-3.91-.14-4.76-.14-1.01,0-1.91.02-2.68.07-1.6.1-2.66.14-3.24.14-1.82,0-2.02-1.02-2.02-1.45,0-1.44,2.3-1.5,3.41-1.53.49,0,.66-.06.71-.08l.08-.03.08-.02c.08-.01.12-.03.14-.04,0,0,0-.03,0-.07,0-.07-.05-.51-.55-2.8l-.99-4.58c-.18-.97-.53-2.64-1.09-5.12h-3.91c-.45-.02-.89-.02-1.34-.02-.73,0-1.49.02-2.27.06-.3,1.09-.78,3.04-1.44,5.8l-1.03,4.57c-.14.64-.22,1.16-.22,1.53,0,.55.2.73.53.84.04,0,.4.07,2.14.25.98.1,1.33.76,1.33,1.35,0,.65-.42,1.35-1.6,1.35h-8.36c-.86,0-1.41-.57-1.41-1.45,0-1.1,1.5-1.25,2.13-1.31.97-.07,1.61-.31,1.82-.68.17-.31.61-1.46,1.61-5.72.61-2.4,1.48-5.91,2.59-10.44l5.68-23.47c.28-1.04.68-2.66,1.17-4.85.48-2.23.77-2.98,1.53-2.98.7,0,.96.38,1.76,3.82.62,2.75,3.4,13.8,8.26,32.83.62,2.43,1.26,4.95,1.88,7.47.67,2.72,1.18,3.4,1.36,3.56.05.04.38.31,1.92.31.15,0,.31,0,.47,0h0c.82,0,1.34.54,1.34,1.38,0,1.01-.62,1.31-.89,1.39-.23.07-.64.14-2.03.14ZM139.73,33.5c-.03-.12-.06-.26-.1-.41-1.28-5.53-2.17-9.28-2.74-11.47-.07-.29-.15-.64-.25-1.05-.39,1.56-.82,3.38-1.3,5.46-.74,3.28-1.33,5.78-1.74,7.47h6.12Z" fill="#004b41"/>
            <path d="M139.37,2.11c.19,0,.53,1.08,1.03,3.24.63,2.77,3.38,13.72,8.27,32.84.63,2.44,1.25,4.93,1.88,7.47.53,2.16,1.06,3.48,1.6,3.95.36.33,1.17.5,2.42.5.16,0,.32,0,.49,0,.38,0,.56.21.56.63,0,.38-.12.6-.35.67-.24.07-.84.11-1.81.11-.25,0-.96-.02-2.11-.07-2.32-.09-3.92-.14-4.79-.14-1.03,0-1.94.02-2.73.07-1.57.09-2.63.14-3.19.14-.85,0-1.27-.23-1.27-.7s.89-.73,2.68-.78c.44,0,.77-.05.99-.14.5-.09.75-.38.75-.85,0-.23-.19-1.22-.56-2.96l-.99-4.58c-.19-1.03-.6-2.94-1.22-5.71h-4.51c-.44-.02-.88-.02-1.34-.02-.91,0-1.86.03-2.85.09-.28.94-.82,3.05-1.6,6.34l-1.03,4.58c-.16.7-.24,1.27-.24,1.69,0,.8.34,1.32,1.03,1.55.16.05.92.14,2.3.28.44.04.66.24.66.6,0,.4-.28.6-.85.6h-8.36c-.44,0-.66-.23-.66-.7,0-.28.49-.47,1.46-.56,1.25-.09,2.05-.45,2.4-1.06.34-.61.91-2.58,1.69-5.92.59-2.35,1.46-5.83,2.58-10.43l5.68-23.47c.28-1.03.67-2.65,1.17-4.86.34-1.6.61-2.4.8-2.4M132.65,34.25h8.03c-.03-.14-.14-.59-.33-1.34-1.26-5.45-2.17-9.27-2.74-11.48-.15-.61-.36-1.51-.63-2.69l-.31-1.25c-.56,2.02-1.25,4.81-2.06,8.38-.9,3.99-1.56,6.79-1.97,8.38M139.37.61c-1.49,0-1.83,1.58-2.27,3.58-.49,2.16-.88,3.78-1.16,4.78v.02s-.01.02-.01.02l-5.68,23.47c-1.11,4.53-1.98,8.04-2.58,10.42h0s0,.03,0,.03c-1.04,4.45-1.44,5.35-1.54,5.52h0s-.24.23-1.2.3h-.02s-.02,0-.02,0c-.7.07-2.81.27-2.81,2.06,0,1.3.89,2.21,2.16,2.21h8.36c1.62,0,2.35-1.05,2.35-2.1,0-.94-.62-1.95-2.01-2.09-1.27-.13-1.78-.2-1.98-.23,0-.03,0-.06,0-.11,0-.22.03-.63.2-1.36l1.03-4.58c.56-2.34.99-4.1,1.29-5.23.58-.02,1.14-.04,1.69-.04.43,0,.87,0,1.28.02h.03s.03,0,.03,0h3.31c.47,2.12.79,3.62.95,4.48v.02s0,.02,0,.02l.99,4.58c.23,1.08.36,1.73.44,2.13-.04,0-.09,0-.15,0h-.04c-1.24.03-4.14.11-4.14,2.28,0,.37.13,2.21,2.77,2.21.59,0,1.67-.05,3.28-.14.76-.05,1.65-.07,2.64-.07.84,0,2.43.05,4.73.14,1.26.05,1.91.07,2.17.07,1.39,0,1.9-.07,2.24-.17.34-.1,1.42-.55,1.42-2.11,0-1.26-.85-2.14-2.07-2.14h-.05c-.16,0-.31,0-.45,0-.95,0-1.34-.11-1.45-.15-.1-.12-.52-.77-1.11-3.16-.63-2.54-1.26-5.05-1.88-7.48-4.86-19.02-7.64-30.06-8.26-32.8-.68-2.94-1.02-4.41-2.5-4.41h0ZM134.57,32.75c.39-1.63.9-3.82,1.52-6.55.2-.87.39-1.69.57-2.46.53,2.17,1.24,5.18,2.13,9.01h-4.22Z" fill="#80684b"/>
          </g>
          <g>
            <path d="M185.32,52.27c-.26,0-.92-.02-2.14-.07-2.31-.09-3.91-.14-4.76-.14-1.01,0-1.91.02-2.68.07-1.6.1-2.66.14-3.24.14-1.82,0-2.02-1.02-2.02-1.45,0-1.44,2.3-1.5,3.41-1.53.49,0,.67-.06.71-.08l.08-.03.08-.02c.08-.01.12-.03.14-.04,0,0,0-.03,0-.07,0-.07-.05-.51-.55-2.8l-.99-4.58c-.18-.96-.54-2.68-1.09-5.12h-3.91c-.45-.02-.89-.02-1.34-.02-.73,0-1.49.02-2.27.06-.3,1.09-.79,3.04-1.44,5.8l-1.03,4.57c-.14.64-.22,1.16-.22,1.53,0,.55.2.73.53.84.04,0,.4.07,2.14.25.98.1,1.33.76,1.33,1.35,0,.65-.42,1.35-1.6,1.35h-8.36c-.86,0-1.41-.57-1.41-1.45,0-1.1,1.5-1.25,2.13-1.31.97-.07,1.61-.31,1.82-.68.17-.31.61-1.46,1.61-5.72.61-2.4,1.48-5.91,2.59-10.44l5.68-23.47c.28-1.04.68-2.66,1.17-4.85.48-2.23.77-2.98,1.53-2.98.7,0,.97.38,1.76,3.82.62,2.75,3.4,13.8,8.26,32.83.62,2.43,1.26,4.95,1.88,7.47.67,2.72,1.18,3.4,1.36,3.56.05.04.38.31,1.92.31.15,0,.31,0,.47,0h0c.82,0,1.34.54,1.34,1.38,0,1.01-.62,1.31-.89,1.39-.23.07-.64.14-2.03.14ZM171.59,33.5c-.03-.12-.06-.26-.1-.41-1.28-5.53-2.17-9.28-2.74-11.47-.07-.29-.15-.64-.25-1.05-.39,1.55-.82,3.38-1.3,5.46-.74,3.27-1.32,5.77-1.74,7.47h6.12Z" fill="#004b41"/>
            <path d="M171.22,2.11c.19,0,.53,1.08,1.03,3.24.63,2.77,3.38,13.72,8.27,32.84.63,2.44,1.25,4.93,1.88,7.47.53,2.16,1.06,3.48,1.6,3.95.36.33,1.17.5,2.42.5.16,0,.32,0,.49,0,.38,0,.56.21.56.63,0,.38-.12.6-.35.67-.24.07-.84.11-1.81.11-.25,0-.96-.02-2.11-.07-2.32-.09-3.92-.14-4.79-.14-1.03,0-1.94.02-2.73.07-1.57.09-2.63.14-3.19.14-.85,0-1.27-.23-1.27-.7s.89-.73,2.68-.78c.44,0,.77-.05.99-.14.5-.09.75-.38.75-.85,0-.23-.19-1.22-.56-2.96l-.99-4.58c-.19-1.03-.6-2.94-1.22-5.71h-4.51c-.44-.02-.88-.02-1.34-.02-.91,0-1.86.03-2.85.09-.28.94-.81,3.05-1.6,6.34l-1.03,4.58c-.16.7-.24,1.27-.24,1.69,0,.8.34,1.32,1.03,1.55.16.05.92.14,2.3.28.44.04.66.24.66.6,0,.4-.28.6-.85.6h-8.36c-.44,0-.66-.23-.66-.7,0-.28.49-.47,1.46-.56,1.25-.09,2.05-.45,2.4-1.06.34-.61.91-2.58,1.69-5.92.59-2.35,1.46-5.83,2.58-10.43l5.68-23.47c.28-1.03.67-2.65,1.17-4.86.34-1.6.61-2.4.8-2.4M164.51,34.25h8.03c-.03-.14-.14-.59-.33-1.34-1.26-5.45-2.17-9.27-2.74-11.48-.15-.61-.36-1.51-.63-2.69l-.31-1.25c-.56,2.02-1.25,4.81-2.06,8.38-.9,3.99-1.56,6.79-1.97,8.38M171.22.61c-1.49,0-1.83,1.58-2.27,3.58-.49,2.16-.88,3.78-1.16,4.78v.02s-.01.02-.01.02l-5.68,23.47c-1.11,4.53-1.98,8.04-2.58,10.42h0s0,.03,0,.03c-1.04,4.45-1.44,5.35-1.54,5.53h0s-.24.23-1.2.3h-.02s-.02,0-.02,0c-.7.07-2.81.27-2.81,2.06,0,1.3.89,2.21,2.16,2.21h8.36c1.62,0,2.35-1.05,2.35-2.1,0-.94-.62-1.95-2.01-2.09-1.27-.13-1.78-.2-1.98-.23,0-.03,0-.06,0-.11,0-.22.03-.63.2-1.36l1.03-4.58c.56-2.34.99-4.1,1.29-5.23.58-.02,1.14-.04,1.69-.04.43,0,.87,0,1.28.02h.03s.03,0,.03,0h3.31c.47,2.12.79,3.63.95,4.48v.02s0,.02,0,.02l.99,4.58c.23,1.08.36,1.73.44,2.13-.04,0-.09,0-.15,0h-.04c-1.24.03-4.14.11-4.14,2.28,0,.37.13,2.21,2.77,2.21.59,0,1.67-.05,3.28-.14.76-.05,1.65-.07,2.64-.07.84,0,2.43.05,4.73.14,1.26.05,1.91.07,2.17.07,1.39,0,1.9-.07,2.24-.17.34-.1,1.42-.55,1.42-2.11,0-1.26-.85-2.14-2.06-2.14h-.05c-.16,0-.31,0-.45,0-.95,0-1.34-.11-1.45-.15-.1-.12-.52-.77-1.11-3.16-.63-2.54-1.26-5.06-1.88-7.48-4.86-19.03-7.64-30.06-8.26-32.8-.68-2.94-1.02-4.41-2.5-4.41h0ZM166.42,32.75c.39-1.63.9-3.82,1.52-6.55.2-.87.39-1.69.57-2.46.53,2.17,1.24,5.18,2.13,9.01h-4.22Z" fill="#80684b"/>
          </g>
          <g>
            <path d="M204.53,53.18c-4.35,0-8.21-2.43-11.47-7.23-3.39-4.99-5.11-11.34-5.11-18.89s1.55-13.49,4.6-18.4c3.12-5.03,7.11-7.58,11.84-7.58,2.24,0,4.27.77,6.04,2.3,1.17,1,1.56,1.01,1.58,1.01.47,0,.91-.54,1.2-.99.57-.93.88-1.34,1.39-1.34.16,0,.94.06.94,1.24,0,.17-.02.39-.05.72-.18,1.57-.28,3.53-.28,5.84,0,.23.02,1.19.05,2.88v4.88c0,1.67-.66,2.02-1.22,2.02-.89,0-1.17-1-1.5-3.4-1.07-7.99-3.42-12.04-7.01-12.04-2.78,0-4.88,2.93-6.22,8.72-.99,4.15-1.48,9.22-1.48,15.05,0,8.61,1.17,14.98,3.47,18.93,1.12,1.93,2.52,2.87,4.28,2.87,3.97,0,6.64-4.24,7.95-12.61.22-1.48.51-2.82,1.49-2.82.31,0,.59.12.8.34.37.39.39.97.37,1.37l-.05,1.19c0,.13-.02.77-.24,4.45-.12,2.04-.19,3.64-.19,4.75,0,1.4.02,2.58.05,3.5.03.31.05.74.05,1.22,0,1.26-.54,1.53-.99,1.53-.74,0-1.07-.82-1.21-1.18-.53-1.3-1.02-2.06-1.42-2.51-2.35,2.78-4.93,4.18-7.65,4.18Z" fill="#004b41"/>
            <path d="M204.39,1.83c2.07,0,3.91.7,5.54,2.11.94.8,1.63,1.2,2.07,1.2.66,0,1.27-.45,1.83-1.34.41-.66.66-.99.75-.99.12,0,.19.17.19.49,0,.14-.02.35-.05.63-.19,1.6-.28,3.57-.28,5.92,0,.24.02,1.2.05,2.89v4.86c0,.85-.16,1.27-.47,1.27-.25,0-.5-.92-.75-2.75-1.13-8.46-3.71-12.69-7.75-12.69-3.19,0-5.51,3.1-6.95,9.3-1,4.23-1.5,9.3-1.5,15.22,0,8.79,1.19,15.22,3.57,19.31,1.25,2.16,2.9,3.24,4.93,3.24,4.42,0,7.31-4.42,8.69-13.25.22-1.46.47-2.18.75-2.18.31,0,.45.31.42.92l-.05,1.2c0,.24-.08,1.72-.23,4.44-.13,2.07-.19,3.66-.19,4.79,0,1.41.02,2.58.05,3.52.03.33.05.73.05,1.2,0,.52-.08.78-.23.78s-.33-.24-.52-.7c-.69-1.69-1.43-2.79-2.21-3.31-2.35,3.01-4.87,4.51-7.56,4.51-4.1,0-7.72-2.3-10.85-6.91-3.32-4.89-4.98-11.04-4.98-18.46s1.5-13.19,4.49-18.01c2.99-4.82,6.73-7.22,11.21-7.22M204.39.33c-5.01,0-9.21,2.67-12.48,7.93-3.13,5.03-4.71,11.36-4.71,18.8s1.76,14.19,5.24,19.31c3.41,5.02,7.48,7.56,12.09,7.56,2.71,0,5.26-1.26,7.6-3.74.23.39.5.91.79,1.61.16.4.66,1.64,1.91,1.64.41,0,1.74-.16,1.74-2.28,0-.49-.02-.92-.05-1.29-.03-.91-.04-2.06-.04-3.43,0-1.09.06-2.68.19-4.7.2-3.45.23-4.25.24-4.49l.05-1.18c.02-.29.06-1.23-.58-1.9-.35-.37-.83-.57-1.35-.57-1.72,0-2.03,2.08-2.24,3.46-1.24,7.94-3.66,11.97-7.21,11.97-.94,0-2.34-.26-3.63-2.49-2.24-3.84-3.37-10.08-3.37-18.56,0-5.78.49-10.78,1.46-14.88,1.26-5.41,3.1-8.15,5.49-8.15,3.15,0,5.26,3.83,6.26,11.38.28,2.09.55,4.05,2.24,4.05.59,0,1.97-.27,1.97-2.77v-4.86h0s0-.03,0-.03c-.04-2.18-.05-2.73-.05-2.86,0-2.28.09-4.21.27-5.74.04-.37.06-.61.06-.81,0-1.57-1.06-1.99-1.69-1.99-.98,0-1.46.79-2.03,1.7-.25.4-.43.55-.52.6-.15-.07-.5-.28-1.13-.81-1.89-1.64-4.09-2.47-6.52-2.47h0Z" fill="#80684b"/>
          </g>
        </g>
      </g>
      <g>
        <path d="M27,98.63c0,.3-.1.48-.28.54-.19.06-.68.09-1.46.09-.2,0-.77-.02-1.71-.06-1.88-.08-3.17-.11-3.88-.11-.84,0-1.57.02-2.2.06-1.27.08-2.13.11-2.58.11-.68,0-1.03-.19-1.03-.57s.72-.59,2.17-.63c.35,0,.62-.04.8-.11.4-.08.61-.3.61-.68,0-.19-.15-.99-.46-2.39l-.8-3.71c-.15-.84-.48-2.37-.99-4.62h-3.65c-1.06-.04-2.19-.02-3.38.06-.23.76-.66,2.47-1.29,5.13l-.84,3.71c-.13.57-.19,1.03-.19,1.37,0,.65.28,1.06.84,1.25.13.04.75.11,1.86.23.35.04.53.2.53.48,0,.32-.23.48-.68.48H1.61c-.35,0-.53-.19-.53-.57,0-.23.39-.38,1.18-.46,1.01-.08,1.66-.36,1.94-.86.28-.49.73-2.09,1.37-4.79.48-1.9,1.18-4.71,2.09-8.44l4.6-18.98c.23-.84.54-2.15.95-3.93.28-1.29.49-1.94.65-1.94s.43.87.84,2.62c.51,2.24,2.74,11.1,6.69,26.57.51,1.98,1.01,3.99,1.52,6.04.43,1.75.86,2.81,1.29,3.19.33.3,1.11.44,2.36.4.3,0,.46.17.46.51ZM14.91,85.29c-.02-.11-.11-.47-.26-1.08-1.02-4.41-1.76-7.5-2.22-9.29-.12-.5-.29-1.22-.51-2.18l-.25-1.01c-.45,1.63-1.01,3.89-1.67,6.78-.73,3.23-1.26,5.49-1.59,6.78h6.5Z" fill="#80684b"/>
        <path d="M37.53,98.83c0,.29-.48.43-1.44.43-.23,0-.93-.04-2.12-.11-.61-.04-1.2-.06-1.78-.06s-1.59.04-3.11.11l-1.14.06c-.56.04-.83-.09-.83-.4s.29-.44.87-.4c.89.04,1.4-.09,1.54-.4.14-.3.21-1.44.21-3.42v-30c0-1.29-.09-2.06-.27-2.3-.18-.25-.71-.37-1.58-.37-.64,0-.96-.14-.96-.42,0-.32.33-.5.98-.55,2.82-.15,5.13-.8,6.92-1.94v34.2c0,2.58.04,4.1.13,4.53.09.44.4.64.93.6h1.14c.33,0,.49.14.49.43Z" fill="#80684b"/>
        <path d="M48.24,98.83c0,.29-.48.43-1.44.43-.23,0-.93-.04-2.12-.11-.61-.04-1.2-.06-1.78-.06s-1.59.04-3.1.11l-1.14.06c-.56.04-.83-.09-.83-.4s.29-.44.87-.4c.89.04,1.4-.09,1.54-.4.14-.3.21-1.44.21-3.42v-30c0-1.29-.09-2.06-.27-2.3s-.71-.37-1.58-.37c-.64,0-.96-.14-.96-.42,0-.32.33-.5.98-.55,2.82-.15,5.13-.8,6.92-1.94v34.2c0,2.58.04,4.1.13,4.53.09.44.4.64.93.6h1.14c.33,0,.49.14.49.43Z" fill="#80684b"/>
        <path d="M65.8,96.19c0,.31-.2.73-.61,1.27-1.09,1.51-2.43,2.26-4.03,2.26-1.04,0-1.79-.33-2.26-.98-.47-.65-.78-1.83-.93-3.52-1.14,3.12-2.7,4.67-4.67,4.67-1.09,0-1.97-.51-2.64-1.54-.67-1.03-1.01-2.36-1.01-3.99,0-4.79,2.74-7.62,8.21-8.49v-1.2c0-3.8-.09-6.14-.27-7.01l-.04-.28c-.36-1.9-1.25-2.85-2.7-2.85-.84,0-1.51.36-2.01,1.08-.51.72-.76,1.43-.76,2.11,0,.38.3.61.91.68.91.11,1.37.95,1.37,2.51,0,.84-.18,1.53-.55,2.08-.37.55-.84.83-1.43.83-.73,0-1.34-.33-1.81-1-.47-.66-.7-1.51-.7-2.54,0-1.63.54-3.12,1.63-4.45,1.09-1.33,2.52-2,4.29-2,2.63,0,4.47.7,5.51,2.11.84,1.18,1.25,3.23,1.25,6.16v9.75c0,1.9.01,3,.04,3.31.13,1.6.49,2.39,1.1,2.39.43,0,.96-.46,1.6-1.37.13-.19.23-.29.3-.29.13,0,.19.1.19.29ZM57.86,89.4v-2.79c-2.46.72-3.69,2.81-3.69,6.27,0,2.66.61,3.99,1.82,3.99.68,0,1.16-.57,1.44-1.71.28-1.14.42-3.06.42-5.76Z" fill="#80684b"/>
        <path d="M95.56,98.97c0,.34-.19.48-.57.4h-8.47c-.36,0-.53-.11-.53-.34,0-.19.3-.31.89-.34.75-.04,1.12-.38,1.12-1.03v-12.81c0-3.94-.09-6.32-.27-7.12-.26-1.11-.89-1.67-1.92-1.67-.94,0-1.69.61-2.22,1.83-.23.5-.36,1.05-.38,1.66-.05.73-.08,2.69-.08,5.9v10.88c0,1.15.07,1.82.21,2.01s.61.29,1.43.29c.23,0,.34.1.34.29,0,.31-.14.46-.42.46-.25,0-.46-.02-.61-.06l-7.37-.11c-.23,0-.34-.11-.34-.34s.3-.34.91-.34c.46,0,.72-.1.8-.29l.08-.57v-14c0-3.58-.14-5.74-.42-6.49-.28-.74-.85-1.11-1.71-1.11-1.04,0-1.81.65-2.32,1.95-.18.5-.29,1-.32,1.52-.04.52-.06,2.01-.06,4.5v11.35c0,1.76.07,2.72.21,2.89.14.17.49.26,1.04.26h.57c.25,0,.38.1.38.32,0,.25-.11.37-.34.37h-2.51c-2.03.05-3.1.08-3.23.1-1.22.05-2.12.07-2.7.07h-.53c-.33,0-.49-.15-.49-.46,0-.27.11-.4.34-.4l.87.23c.43.04.78-.11,1.06-.46.2-.27.3-1.07.3-2.41v-9.46c0-5.31-.05-8.16-.15-8.54-.2-.34-.99-.52-2.36-.52-.35,0-.53-.13-.53-.4,0-.3.16-.46.49-.46,2.53-.08,4.79-.91,6.76-2.51.23-.19.39-.28.49-.28.13,0,.19.15.19.46,0,.57-.01,1.05-.04,1.42v2.39c1.16-2.85,2.88-4.28,5.16-4.28,2.55,0,4.06,1.56,4.51,4.67.58-1.67,1.29-2.87,2.12-3.59.83-.72,1.93-1.08,3.3-1.08,3.21,0,4.82,2.67,4.82,8.02v14.09c0,1.22.03,1.97.1,2.23.06.27.27.42.63.46.51.08.96.11,1.37.11.25,0,.38.11.38.34Z" fill="#80684b"/>
        <path d="M113.15,96.19c0,.31-.2.73-.61,1.27-1.09,1.51-2.43,2.26-4.03,2.26-1.04,0-1.79-.33-2.26-.98-.47-.65-.78-1.83-.93-3.52-1.14,3.12-2.7,4.67-4.67,4.67-1.09,0-1.97-.51-2.64-1.54-.67-1.03-1.01-2.36-1.01-3.99,0-4.79,2.74-7.62,8.21-8.49v-1.2c0-3.8-.09-6.14-.27-7.01l-.04-.28c-.36-1.9-1.25-2.85-2.7-2.85-.84,0-1.51.36-2.01,1.08-.51.72-.76,1.43-.76,2.11,0,.38.3.61.91.68.91.11,1.37.95,1.37,2.51,0,.84-.18,1.53-.55,2.08-.37.55-.84.83-1.43.83-.73,0-1.34-.33-1.81-1-.47-.66-.7-1.51-.7-2.54,0-1.63.54-3.12,1.63-4.45,1.09-1.33,2.52-2,4.29-2,2.63,0,4.47.7,5.51,2.11.84,1.18,1.25,3.23,1.25,6.16v9.75c0,1.9.01,3,.04,3.31.13,1.6.49,2.39,1.1,2.39.43,0,.96-.46,1.6-1.37.13-.19.23-.29.3-.29.13,0,.19.1.19.29ZM105.21,89.4v-2.79c-2.46.72-3.69,2.81-3.69,6.27,0,2.66.61,3.99,1.82,3.99.68,0,1.16-.57,1.44-1.71.28-1.14.42-3.06.42-5.76Z" fill="#80684b"/>
        <path d="M133.11,98.86c0,.3-.32.46-.95.46h-8.13c-.35,0-.53-.14-.53-.43,0-.25.15-.37.45-.37h.3c.65,0,1.03-.12,1.14-.37.11-.25.17-1.1.17-2.55v-11.06c0-4.09-.17-6.53-.52-7.33-.3-.69-.84-1.03-1.61-1.03s-1.41.36-1.91,1.08c-.5.72-.75,1.63-.75,2.73v17.23c.05.46.16.75.32.88.16.13.58.22,1.24.26.2,0,.3.11.3.34s-.09.36-.27.4c-.18.04-.81.06-1.9.06s-1.99.02-2.7.06c-1.39.08-2.81.11-4.26.11-.3,0-.46-.13-.46-.4,0-.3.39-.46,1.16-.46s1.22-.23,1.35-.68l.11-.8v-13.08c0-3.68-.03-5.59-.08-5.74-.08-.57-.42-.85-1.03-.85h-1.29c-.41,0-.61-.12-.61-.37s.15-.39.45-.43c2.82-.19,5.08-1.08,6.77-2.68.2-.15.34-.23.42-.23.2,0,.3.3.3.91v3.25c1.34-2.62,3.07-3.93,5.17-3.93s3.6,1.14,4.26,3.42c.28.95.45,2.01.51,3.19.06,1.18.1,3.61.1,7.3v8.27c0,1.18.06,1.87.19,2.08.13.21.54.31,1.24.31s1.04.15,1.04.46Z" fill="#80684b"/>
        <path d="M164.84,98.63c0,.3-.1.48-.28.54-.19.06-.68.09-1.46.09-.2,0-.77-.02-1.71-.06-1.88-.08-3.17-.11-3.88-.11-.84,0-1.57.02-2.2.06-1.27.08-2.13.11-2.58.11-.68,0-1.03-.19-1.03-.57s.72-.59,2.17-.63c.35,0,.62-.04.8-.11.4-.08.61-.3.61-.68,0-.19-.15-.99-.46-2.39l-.8-3.71c-.15-.84-.48-2.37-.99-4.62h-3.65c-1.06-.04-2.19-.02-3.38.06-.23.76-.66,2.47-1.29,5.13l-.84,3.71c-.13.57-.19,1.03-.19,1.37,0,.65.28,1.06.84,1.25.13.04.75.11,1.86.23.35.04.53.2.53.48,0,.32-.23.48-.68.48h-6.76c-.35,0-.53-.19-.53-.57,0-.23.39-.38,1.18-.46,1.01-.08,1.66-.36,1.94-.86.28-.49.73-2.09,1.37-4.79.48-1.9,1.18-4.71,2.09-8.44l4.6-18.98c.23-.84.54-2.15.95-3.93.28-1.29.49-1.94.65-1.94s.43.87.84,2.62c.51,2.24,2.74,11.1,6.69,26.57.51,1.98,1.01,3.99,1.52,6.04.43,1.75.86,2.81,1.29,3.19.33.3,1.11.44,2.36.4.3,0,.46.17.46.51ZM152.75,85.29c-.02-.11-.11-.47-.26-1.08-1.02-4.41-1.76-7.5-2.22-9.29-.12-.5-.29-1.22-.51-2.18l-.25-1.01c-.45,1.63-1.01,3.89-1.67,6.78-.73,3.23-1.26,5.49-1.59,6.78h6.5Z" fill="#80684b"/>
        <path d="M177.72,95.55c0,.42-.24.97-.73,1.65-1.25,1.79-2.97,2.68-5.17,2.68-2.02,0-3.34-.74-3.98-2.22-.26-.57-.4-1.1-.44-1.6-.04-.49-.06-1.77-.06-3.82v-2.74c.05-.72.08-1.48.08-2.28l-.08-1.2v-9.24c0-.68-.06-1.08-.19-1.2-.13-.11-.51-.17-1.14-.17-.76,0-1.14-.15-1.14-.46,0-.23.14-.38.42-.46,2.38-.11,4.43-2.05,6.16-5.81.23-.53.4-.8.53-.8.15,0,.23.27.23.8-.03,3.27.06,5.05.27,5.36.2.3.82.46,1.86.46s1.81-.08,2.24-.23c.05-.04.1-.06.15-.06.1,0,.15.12.15.36,0,.56-.16.84-.49.84-1.03.04-2.17.06-3.43.06h-.53v1.19c0,10.13.05,16.07.15,17.81.23,2.19.95,3.29,2.16,3.29.54,0,1.23-.57,2.08-1.71.41-.53.67-.8.77-.8.08,0,.12.1.12.29Z" fill="#80684b"/>
        <path d="M196.84,99.03c0,.23-.11.34-.34.34.02,0-.23,0-.76,0h-2.28c-2.18,0-3.52-.06-4.03-.17h-.61l-.91.17c-.33.04-.49-.11-.49-.43,0-.25.06-.37.19-.37h.87c.56.04.87-.19.95-.68.05-.3.08-2.2.08-5.7v-8.49c0-3.53-.11-5.62-.34-6.27-.33-.99-.96-1.48-1.89-1.48-.98,0-1.73.67-2.26,2-.25.65-.38,2.04-.38,4.18v15.64c-.03.57.5.86,1.56.86.22,0,.34.11.34.34,0,.27-.17.4-.49.4h-.3c-.2-.11-.51-.17-.91-.17h-1.67l-2.13.06-2.24.11h-1.14c-.38,0-.57-.11-.57-.34,0-.11.02-.19.08-.23.05-.04.16-.06.34-.06.96,0,1.53-.06,1.71-.17.18-.11.29-.55.34-1.31.02-.46.04-2.74.04-6.84v-20.92c0-4.1-.06-6.47-.17-7.1-.11-.63-.65-.94-1.61-.94-.74,0-1.1-.11-1.1-.34s.43-.38,1.29-.46c1.94-.19,3.77-.68,5.48-1.48.33-.15.57-.23.72-.23.2,0,.3,1.06.3,3.19v15.73c.73-1.56,1.45-2.62,2.15-3.19.7-.57,1.64-.86,2.83-.86,2.51,0,4.08,1.52,4.71,4.56.23.99.34,2.58.34,4.79v13.28c0,.99.11,1.6.32,1.82.22.23.75.34,1.62.34.25,0,.38.13.38.4Z" fill="#80684b"/>
        <path d="M207.75,98.83c0,.29-.48.43-1.44.43-.23,0-.93-.04-2.12-.11-.61-.04-1.2-.06-1.78-.06s-1.59.04-3.1.11l-1.14.06c-.56.04-.83-.09-.83-.4s.29-.44.87-.4c.89.04,1.4-.09,1.54-.4.14-.3.21-1.44.21-3.42v-30c0-1.29-.09-2.06-.27-2.3s-.71-.37-1.58-.37c-.64,0-.96-.14-.96-.42,0-.32.33-.5.98-.55,2.82-.15,5.13-.8,6.92-1.94v34.2c0,2.58.04,4.1.13,4.53.09.44.4.64.93.6h1.14c.33,0,.49.14.49.43Z" fill="#80684b"/>
        <path d="M223.9,92.25c0,.84-.33,1.94-.99,3.31-1.42,2.93-3.27,4.39-5.55,4.39-2.56,0-4.66-1.22-6.31-3.65-1.65-2.43-2.47-5.55-2.47-9.35s.8-6.83,2.39-9.32c1.6-2.49,3.58-3.73,5.97-3.73,1.62,0,3,.53,4.14,1.6,1.27,1.18,2.09,2.87,2.47,5.07.1.68.18,1.5.23,2.45-.58.1-2.93.18-7.03.23-.63,0-1.43.04-2.39.11-.08,1.36-.11,2.52-.11,3.46,0,4.43.62,7.57,1.86,9.43.73,1.1,1.63,1.65,2.7,1.65.89,0,1.74-.46,2.57-1.37.82-.91,1.45-2.09,1.88-3.53.2-.72.37-1.08.49-1.08.1,0,.15.11.15.34ZM219.11,82.27c.02-2.9-.11-4.92-.42-6.06-.3-1.13-.84-1.7-1.6-1.7-1.55,0-2.43,2.58-2.66,7.75h4.67Z" fill="#80684b"/>
        <path d="M237.54,95.55c0,.42-.24.97-.73,1.65-1.25,1.79-2.97,2.68-5.17,2.68-2.02,0-3.34-.74-3.98-2.22-.26-.57-.4-1.1-.44-1.6-.04-.49-.06-1.77-.06-3.82v-2.74c.05-.72.08-1.48.08-2.28l-.08-1.2v-9.24c0-.68-.06-1.08-.19-1.2-.13-.11-.51-.17-1.14-.17-.76,0-1.14-.15-1.14-.46,0-.23.14-.38.42-.46,2.38-.11,4.43-2.05,6.16-5.81.23-.53.4-.8.53-.8.15,0,.23.27.23.8-.03,3.27.06,5.05.27,5.36.2.3.82.46,1.86.46s1.81-.08,2.24-.23c.05-.04.1-.06.15-.06.1,0,.15.12.15.36,0,.56-.16.84-.49.84-1.03.04-2.17.06-3.43.06h-.53v1.19c0,10.13.05,16.07.15,17.81.23,2.19.95,3.29,2.16,3.29.54,0,1.23-.57,2.08-1.71.41-.53.67-.8.77-.8.08,0,.12.1.12.29Z" fill="#80684b"/>
        <path d="M247.42,98.86c0,.27-.11.4-.34.4h-9.58c-.3,0-.45-.12-.45-.37,0-.18.29-.29.87-.32.86-.04,1.37-.18,1.52-.43.15-.25.23-1,.23-2.26v-16.44c0-1.45-.08-2.32-.25-2.61-.17-.29-.67-.43-1.5-.43-.53,0-.84-.02-.93-.06-.09-.04-.13-.17-.13-.4,0-.27.19-.4.57-.4,2.79-.04,5.17-.68,7.14-1.94.05.46.11,1.71.19,3.76v17.96c0,1.56.1,2.47.28,2.74.19.27.84.4,1.96.4.28,0,.42.13.42.4ZM244.76,62.72c0,1.06-.25,1.98-.74,2.74-.49.76-1.09,1.14-1.79,1.14s-1.33-.36-1.83-1.08c-.49-.72-.74-1.63-.74-2.74s.25-1.94.74-2.62c.49-.68,1.13-1.03,1.91-1.03.7,0,1.28.34,1.75,1.03.47.68.7,1.54.7,2.57Z" fill="#80684b"/>
        <path d="M262.89,79.71c0,.91-.18,1.65-.53,2.22-.35.57-.81.86-1.37.86-1.34,0-2.01-.89-2.01-2.68,0-.46.08-1,.25-1.62.16-.63.25-1.07.25-1.34,0-.72-.18-1.34-.55-1.85-.37-.51-.82-.77-1.35-.77-2.31,0-3.46,3.86-3.46,11.57,0,4.41.51,7.56,1.52,9.46.78,1.44,1.75,2.17,2.89,2.17s2.41-1.16,3.65-3.48c.15-.3.29-.46.42-.46.1,0,.15.11.15.34,0,.72-.46,1.73-1.37,3.02-1.32,1.86-2.9,2.79-4.75,2.79-2.28,0-4.23-1.23-5.83-3.68-1.61-2.45-2.41-5.42-2.41-8.92,0-3.8.85-7,2.55-9.61,1.7-2.6,3.79-3.9,6.27-3.9,1.6,0,2.95.57,4.05,1.71,1.1,1.14,1.65,2.53,1.65,4.16Z" fill="#80684b"/>
        <path d="M291.54,86.72l-.04.97c0,.19-.06,1.39-.19,3.59-.1,1.67-.15,2.96-.15,3.88,0,1.14.01,2.09.04,2.85.02.27.04.59.04.97,0,.42-.06.63-.19.63s-.27-.19-.42-.57c-.56-1.37-1.15-2.26-1.79-2.68-1.9,2.43-3.94,3.65-6.12,3.65-3.32,0-6.25-1.86-8.78-5.59-2.69-3.95-4.03-8.93-4.03-14.94s1.21-10.67,3.63-14.57c2.42-3.9,5.44-5.84,9.06-5.84,1.67,0,3.17.57,4.48,1.71.76.65,1.32.97,1.67.97.53,0,1.03-.36,1.48-1.08.33-.53.53-.8.61-.8.1,0,.15.13.15.4,0,.11-.01.28-.04.51-.15,1.29-.23,2.89-.23,4.79,0,.19.01.97.04,2.34v3.93c0,.68-.13,1.03-.38,1.03-.2,0-.41-.74-.61-2.22-.91-6.84-3-10.26-6.27-10.26-2.58,0-4.46,2.51-5.62,7.52-.81,3.42-1.22,7.52-1.22,12.31,0,7.11.96,12.31,2.89,15.62,1.01,1.75,2.34,2.62,3.99,2.62,3.57,0,5.92-3.57,7.03-10.72.18-1.18.38-1.77.61-1.77.25,0,.37.25.34.74Z" fill="#80684b"/>
        <path d="M303.63,98.83c0,.29-.48.43-1.44.43-.23,0-.93-.04-2.12-.11-.61-.04-1.2-.06-1.78-.06s-1.59.04-3.1.11l-1.14.06c-.56.04-.83-.09-.83-.4s.29-.44.87-.4c.89.04,1.4-.09,1.54-.4.14-.3.21-1.44.21-3.42v-30c0-1.29-.09-2.06-.27-2.3-.18-.25-.71-.37-1.58-.37-.64,0-.96-.14-.96-.42,0-.32.33-.5.98-.55,2.82-.15,5.13-.8,6.92-1.94v34.2c0,2.58.04,4.1.13,4.53.09.44.4.64.93.6h1.14c.33,0,.49.14.49.43Z" fill="#80684b"/>
        <path d="M324.68,97.38c0,.3-.22.48-.65.51-2.31.11-3.9.29-4.79.54-.89.25-1.65.69-2.28,1.34-.15.15-.29.23-.42.23-.1,0-.15-.15-.15-.46v-2.45c0-.34-.01-.65-.04-.91-1.58,2.55-3.31,3.82-5.17,3.82-1.66,0-2.97-.8-3.92-2.4-.6-.99-.9-2.82-.9-5.49v-14.86c0-.84-.08-1.35-.24-1.54-.16-.19-.62-.3-1.37-.34-.65-.04-.97-.19-.97-.46,0-.3.18-.46.53-.46h.42c.38,0,.96.03,1.73.09.77.06,1.3.09,1.58.09.05,0,.31-.03.78-.09.47-.06,1.16-.09,2.07-.09h.72v6.19c0,2.94-.03,5.1-.08,6.47-.05,1.38-.08,1.97-.08,1.78,0,4.01.17,6.51.51,7.5.34.99.88,1.49,1.61,1.49.84,0,1.62-.7,2.36-2.11.23-.42.36-.85.4-1.29.04-.44.06-1.51.06-3.23v-9.83c0-2.78-.02-4.46-.07-5.03-.05-.72-.36-1.09-.94-1.09h-1.05c-.35,0-.52-.15-.52-.46,0-.23.68-.34,2.04-.34,1.19,0,3.06-.02,5.63-.06v18.53c0,1.79.02,2.84.08,3.16.05.32.24.54.57.66.23.08.91.11,2.05.11.33,0,.49.15.49.46Z" fill="#80684b"/>
        <path d="M343.08,86.15c0,4.79-1.27,8.49-3.8,11.12-1.75,1.79-3.57,2.68-5.47,2.68-.71,0-1.74-.34-3.08-1.03-.71-.38-1.25-.57-1.63-.57-.68,0-1.38.38-2.09,1.14-.15.15-.27.23-.34.23-.18,0-.28-.11-.3-.34-.03-.23-.04-.91-.04-2.05v-33.46c0-.99-.12-1.63-.36-1.94-.24-.3-.76-.46-1.56-.46-.68,0-1.01-.13-1.01-.4s.15-.4.46-.4c2.88,0,5.38-.47,7.52-1.43l.04.91v16.82c1.01-2.09,2.41-3.14,4.2-3.14,2.17,0,3.96,1.15,5.36,3.45,1.4,2.3,2.1,5.25,2.1,8.86ZM337.41,86.38c0-7.37-1.03-11.06-3.08-11.06-1.14,0-1.98.8-2.51,2.39-.2.61-.32,1.32-.36,2.14-.04.82-.06,3.15-.06,6.98v3.48c0,3.57.16,5.94.48,7.1.32,1.16.96,1.74,1.92,1.74,1.32,0,2.25-.97,2.79-2.91.54-1.94.82-5.22.82-9.86Z" fill="#80684b"/>
      </g>
    </g>
  </g>
</svg>