<?xml version="1.0" encoding="UTF-8"?>
<svg id="Layer_2" data-name="Layer 2" xmlns="http://www.w3.org/2000/svg" viewBox="0 0 154.57 319.68">
  <g id="Layer_1-2" data-name="Layer 1">
    <g>
      <rect width="154.57" height="319.68" fill="#004b41"/>
      <g>
        <path d="M39.3,117.86h13.95c-.07-.29-.15-.6-.23-.94-3.55-15.36-6.16-26.29-7.76-32.52-.15-.61-.32-1.31-.51-2.12-1.05,4.22-2.21,9.12-3.46,14.66-2.07,9.12-3.7,16.14-4.86,20.92h2.88Z" fill="none"/>
        <path d="M76.36,178.59h2.08c1.14-2.59,2.41-5.08,3.8-7.47-2.82-.1-5.14-.17-6.93-.21-.7,2.98-1.31,5.56-1.82,7.67h2.88Z" fill="none"/>
        <path d="M71.36,187.76c-.86,3.13-2.22,8.59-4.04,16.26l-2.93,12.98c-.4,1.82-.61,3.26-.61,4.29,0,1.4.46,1.86,1.26,2.16.26.05,1.36.23,5.57.66-.03-1.25-.11-2.46-.11-3.73,0-12.03,1.55-22.95,4.56-32.71-1.23.03-2.44.03-3.7.1Z" fill="none"/>
        <path d="M99.25,223.04l.25-.05c.1-.02.17-.04.23-.06,0,0,0-.01,0-.02-.01-.22-.15-1.4-1.32-6.89-.06,2.25-.1,4.54-.1,6.88,0,.13,0,.25,0,.37.43-.05.65-.12.7-.14l.24-.1Z" fill="none"/>
        <path d="M70.68,226.46c-3.76-.39-5.87-.64-6.3-.78-1.95-.67-2.93-2.13-2.93-4.4,0-1.2.22-2.8.67-4.8l2.93-12.99c2.22-9.32,3.73-15.32,4.53-17.98,2.15-.14,4.21-.2,6.24-.24.5-1.48,1.04-2.94,1.61-4.36h-6.93c.61-2.39,1.42-5.75,2.42-10.04.09-.38.18-.77.27-1.17.09-.39.18-.76.27-1.17.77-3.31,1.64-7.11,2.61-11.4,1.71-7.5,3.22-13.79,4.53-18.88.21-.81.41-1.58.61-2.33.21-.8.42-1.56.62-2.29.02-.09.05-.18.07-.26l.89,3.55c.57,2.52,1.05,4.58,1.44,6.19.74,2.96,1.49,5.92,2.22,8.88,1.27,5.14,2.33,7.67,3.04,8.92,4.7-5.25,9.95-8.89,15.71-10.89-7.23-28.49-11.47-45.51-12.72-51.04-1.42-6.13-2.4-9.19-2.93-9.19s-1.29,2.27-2.26,6.79c-1.42,6.26-2.53,10.86-3.33,13.79l-3.92,16.18-.59,2.42-.59,2.42-9,37.17-.28,1.17-.28,1.17-1.45,6c-3.2,13.06-5.64,22.91-7.33,29.57-2.22,9.46-3.82,15.05-4.79,16.78-.98,1.73-3.24,2.73-6.79,3-2.75.27-4.13.8-4.13,1.6,0,1.33.62,2,1.86,2h23.71c.2,0,.34-.03.51-.05-.08-1.11-.15-2.23-.21-3.37Z" fill="#80684b"/>
        <path d="M125.78,224.48c-1.51-1.33-3.02-5.06-4.53-11.19-1.78-7.19-3.56-14.25-5.33-21.18-2.57-10.07-4.93-19.33-7.09-27.8-2.56,3.98-4.7,9.63-6.41,16.99-1.77,7.47-2.97,16.04-3.59,25.55l1.64,7.63c1.06,4.93,1.6,7.73,1.6,8.39,0,1.33-.71,2.13-2.13,2.4-.39.17-.96.26-1.6.33-.36.03-.72.07-1.17.07-.01,0-.02,0-.03,0-.4.01-.76.03-1.13.05-4.29.21-6.46.92-6.46,2.15,0,1.33,1.2,2,3.6,2,.7,0,1.69-.03,2.94-.08.37-.02.75-.03,1.17-.05.37-.02.76-.04,1.17-.06,1.12-.06,2.37-.13,3.79-.21,2.22-.13,4.79-.2,7.73-.2,2.49,0,7.01.13,13.59.4,3.28.13,5.28.2,5.99.2,2.75,0,4.46-.1,5.13-.3.67-.2,1-.83,1-1.9,0-1.2-.53-1.8-1.6-1.8-.49.01-.95.02-1.4.02-3.55,0-5.83-.47-6.86-1.42Z" fill="#80684b"/>
        <path d="M145.66,242.61c-.78,0-1.47,2.02-2.08,6.05-3.82,24.45-11.84,36.67-24.06,36.67-5.64,0-10.19-2.99-13.66-8.97-5.72-9.83-8.96-24.58-9.71-44.23-1.28.05-2.29.08-3.01.08-5.5,0-5.93-3.32-5.93-4.33,0-3.81,5.31-4.36,8.77-4.5,0-.16,0-.32,0-.48,0-5.57.17-10.85.49-15.88.09-1.39.19-2.76.31-4.11.11-1.37.24-2.72.38-4.05.69-6.54,1.68-12.59,2.98-18.09,2.02-8.69,4.66-15.17,7.92-19.46.3-.4.61-.77.92-1.13.31-.36.63-.68.95-1,2.77-2.76,5.91-4.16,9.46-4.16,11.18,0,18.34,11.7,21.46,35.11.69,5.07,1.38,7.61,2.08,7.61.86,0,1.3-1.17,1.3-3.51v-13.46c-.09-4.68-.13-7.35-.13-8,0-6.5.26-11.96.78-16.39.09-.78.13-1.36.13-1.76,0-.91-.17-1.37-.52-1.37-.26,0-.96.91-2.08,2.73-1.56,2.47-3.25,3.71-5.07,3.71-1.22,0-3.12-1.1-5.72-3.32-4.51-3.9-9.62-5.85-15.35-5.85-2.87,0-5.61.37-8.26,1.08-.38.1-.75.21-1.12.32-.37.12-.74.24-1.11.37-5.3,1.88-10.14,5.26-14.51,10.13.76.2,2.07.4,4.31.4.42,0,.87,0,1.4-.02,2.35,0,3.93,1.66,3.93,4.13,0,3.01-1.86,3.89-2.66,4.13-.66.2-1.86.4-5.8.4-.28,0-.74,0-1.41-.03-.34-.01-.75-.02-1.21-.04-.37-.01-.76-.03-1.21-.04-.66-.02-1.41-.05-2.26-.09-.52-.02-1-.04-1.5-.06-1.42,2.35-2.69,4.82-3.86,7.37-.18.39-.37.77-.54,1.17-.17.39-.37.77-.54,1.17-.59,1.41-1.11,2.87-1.63,4.34-.14.39-.3.76-.43,1.16-.13.39-.25.78-.38,1.17-3.09,9.71-4.66,20.62-4.66,32.78,0,1.46.08,2.86.12,4.28.02.48.02.98.04,1.46.06,1.32.14,2.62.24,3.91.04.48.09.95.13,1.42,1.39,15.66,5.77,29.03,13.25,40.04,8.67,12.75,18.68,19.12,30.04,19.12,7.46,0,14.44-4.16,20.94-12.49,2.17,1.43,4.2,4.49,6.11,9.17.52,1.3,1,1.95,1.43,1.95s.65-.72.65-2.15c0-1.3-.04-2.4-.13-3.32-.09-2.6-.13-5.85-.13-9.75,0-3.12.17-7.54.52-13.27.43-7.54.65-11.64.65-12.29l.13-3.32c.09-1.69-.31-2.54-1.17-2.54Z" fill="#80684b"/>
        <path d="M77.63,126.58c-13.09-51.25-20.49-80.68-22.21-88.31-1.42-6.13-2.4-9.19-2.93-9.19s-1.29,2.27-2.26,6.79c-1.42,6.26-2.53,10.86-3.33,13.79l-16.12,66.54c-3.2,13.06-5.64,22.91-7.33,29.57-2.22,9.46-3.82,15.05-4.79,16.78-.98,1.73-3.24,2.73-6.79,3-2.75.27-4.13.8-4.13,1.6,0,1.33.62,2,1.86,2h23.71c1.6,0,2.4-.57,2.4-1.7,0-1-.62-1.57-1.87-1.7-3.91-.4-6.08-.67-6.53-.8-1.95-.67-2.93-2.13-2.93-4.4,0-1.2.22-2.8.67-4.8l2.93-12.99c2.22-9.32,3.73-15.32,4.53-17.98,2.79-.18,5.47-.27,8.06-.27,1.29,0,2.55.02,3.79.07h12.79c1.78,7.86,2.93,13.26,3.46,16.18l2.8,12.99c1.06,4.93,1.6,7.73,1.6,8.39,0,1.33-.71,2.13-2.13,2.4-.62.27-1.56.4-2.8.4-5.06.13-7.59.87-7.59,2.2s1.2,2,3.6,2c1.6,0,4.62-.14,9.06-.4.72-.04,1.5-.08,2.3-.11l10.19-42.06ZM46.76,120.2h-13.32c1.15-4.53,3.01-12.45,5.57-23.77,2.3-10.11,4.25-18.04,5.84-23.76l.89,3.55c.76,3.35,1.36,5.9,1.79,7.64,1.6,6.26,4.19,17.11,7.76,32.55.53,2.14.84,3.4.92,3.8h-9.46Z" fill="#80684b"/>
        <path d="M86.45,168.95c.6.02,1.11.04,1.62.06.44.02.83.03,1.21.05.43.02.86.03,1.21.04.95.03,1.61.05,1.96.05,2.75,0,4.46-.1,5.13-.3.67-.2,1-.83,1-1.9,0-1.2-.53-1.8-1.6-1.8-.49.01-.95.02-1.4.02-2.72,0-4.69-.28-5.93-.84-.13-.06-.21-.14-.33-.2-.21-.12-.45-.23-.61-.38-.02-.01-.03-.04-.05-.05-.25-.23-.51-.55-.76-.92-.05-.07-.1-.14-.15-.22-1.19-1.85-2.38-5.17-3.57-10-.74-2.97-1.47-5.91-2.21-8.84-.06-.23-.12-.46-.17-.69-1.05,4.22-2.2,9.11-3.46,14.64-.92,4.07-1.75,7.7-2.5,10.92,2,.04,4.57.13,7.72.25.44.02.9.03,1.36.05.45.02.89.03,1.36.05.06,0,.11,0,.17,0Z" fill="#80684b"/>
      </g>
    </g>
  </g>
</svg>