<?xml version="1.0" encoding="UTF-8"?>
<svg id="Layer_2" data-name="Layer 2" xmlns="http://www.w3.org/2000/svg" viewBox="0 0 159.59 300">
  <g id="Layer_1-2" data-name="Layer 1">
    <g>
      <path d="M36.21,101.84h16c-.08-.33-.17-.69-.27-1.08-4.08-17.62-7.07-30.16-8.9-37.3-.17-.7-.36-1.51-.58-2.43-1.2,4.84-2.53,10.46-3.97,16.81-2.37,10.46-4.24,18.51-5.58,24h3.3Z" fill="none"/>
      <path d="M78.73,171.51h2.38c1.31-2.97,2.77-5.83,4.36-8.56-3.24-.12-5.9-.2-7.95-.24-.8,3.42-1.5,6.38-2.09,8.8h3.3Z" fill="none"/>
      <path d="M72.99,182.02c-.99,3.6-2.54,9.86-4.64,18.65l-3.36,14.89c-.46,2.08-.7,3.74-.7,4.92,0,1.6.53,2.14,1.45,2.47.3.06,1.57.26,6.39.76-.04-1.43-.12-2.83-.12-4.28,0-13.8,1.78-26.32,5.23-37.53-1.41.03-2.79.04-4.25.11Z" fill="none"/>
      <path d="M104.99,222.49l.29-.05c.12-.02.2-.05.26-.07,0,0,0-.01,0-.02-.01-.25-.17-1.6-1.52-7.9-.07,2.58-.11,5.21-.11,7.9,0,.15,0,.28,0,.43.49-.06.74-.14.8-.16l.27-.12Z" fill="none"/>
      <path d="M72.21,226.42c-4.31-.44-6.73-.74-7.23-.89-2.24-.76-3.36-2.44-3.36-5.04,0-1.38.25-3.21.76-5.5l3.36-14.9c2.54-10.69,4.28-17.57,5.2-20.63,2.46-.16,4.84-.23,7.16-.27.58-1.7,1.19-3.37,1.85-5h-7.95c.7-2.74,1.63-6.6,2.77-11.52.1-.43.21-.89.31-1.34.1-.45.2-.87.31-1.34.88-3.8,1.88-8.16,2.99-13.08,1.96-8.61,3.69-15.82,5.2-21.66.24-.93.47-1.81.7-2.67.24-.92.48-1.79.71-2.63.03-.1.06-.21.08-.3l1.02,4.07c.66,2.89,1.21,5.26,1.65,7.1.85,3.4,1.7,6.8,2.54,10.19,1.45,5.9,2.67,8.8,3.48,10.24,5.4-6.02,11.42-10.2,18.02-12.49-8.29-32.68-13.16-52.21-14.6-58.55-1.63-7.03-2.75-10.54-3.36-10.54s-1.48,2.6-2.6,7.79c-1.63,7.19-2.91,12.46-3.82,15.82l-4.49,18.56-.67,2.78-.67,2.78-10.33,42.64-.33,1.35-.33,1.35-1.67,6.88c-3.67,14.98-6.47,26.29-8.4,33.92-2.55,10.85-4.38,17.27-5.5,19.25-1.12,1.99-3.72,3.13-7.79,3.44-3.16.31-4.74.92-4.74,1.83,0,1.53.71,2.29,2.14,2.29h27.2c.22,0,.39-.04.59-.06-.09-1.28-.18-2.56-.24-3.86Z" fill="#004b41"/>
      <path d="M135.42,224.15c-1.73-1.53-3.46-5.81-5.19-12.84-2.04-8.25-4.08-16.35-6.12-24.29-2.95-11.55-5.66-22.18-8.13-31.89-2.93,4.56-5.4,11.05-7.36,19.49-2.03,8.57-3.4,18.4-4.12,29.31l1.89,8.76c1.22,5.65,1.83,8.86,1.83,9.63,0,1.53-.82,2.45-2.45,2.75-.45.19-1.1.3-1.83.37-.42.04-.83.08-1.34.08-.01,0-.02,0-.04,0-.46.01-.88.04-1.3.06-4.92.24-7.41,1.06-7.41,2.46,0,1.53,1.38,2.29,4.13,2.29.8,0,1.94-.03,3.37-.09.42-.02.87-.04,1.34-.06.42-.02.87-.04,1.34-.07,1.29-.07,2.72-.15,4.34-.24,2.54-.15,5.5-.23,8.86-.23,2.85,0,8.05.15,15.59.46,3.77.15,6.06.23,6.88.23,3.16,0,5.12-.12,5.88-.34.76-.23,1.15-.95,1.15-2.18,0-1.38-.61-2.06-1.83-2.06-.56.02-1.09.03-1.6.03-4.07,0-6.69-.54-7.87-1.63Z" fill="#004b41"/>
      <path d="M158.23,244.95c-.9,0-1.69,2.31-2.39,6.94-4.38,28.05-13.58,42.07-27.6,42.07-6.47,0-11.69-3.43-15.67-10.29-6.57-11.28-10.28-28.19-11.14-50.73-1.46.06-2.62.09-3.45.09-6.31,0-6.8-3.8-6.8-4.97,0-4.38,6.09-5,10.06-5.16,0-.18,0-.36,0-.55,0-6.39.2-12.45.57-18.22.1-1.6.22-3.17.35-4.72.13-1.57.27-3.12.43-4.64.79-7.51,1.92-14.44,3.42-20.76,2.31-9.96,5.35-17.4,9.09-22.32.34-.45.7-.88,1.05-1.29.36-.41.72-.79,1.09-1.15,3.17-3.17,6.78-4.78,10.85-4.78,12.83,0,21.04,13.43,24.62,40.28.79,5.82,1.59,8.73,2.39,8.73.99,0,1.49-1.34,1.49-4.03v-15.44c-.1-5.37-.15-8.43-.15-9.18,0-7.46.3-13.72.9-18.8.1-.9.15-1.57.15-2.01,0-1.04-.2-1.57-.59-1.57-.3,0-1.1,1.04-2.39,3.13-1.79,2.84-3.73,4.25-5.82,4.25-1.39,0-3.58-1.27-6.56-3.8-5.17-4.48-11.04-6.71-17.61-6.71-3.29,0-6.44.43-9.48,1.24-.43.12-.86.24-1.29.37-.43.13-.85.28-1.27.42-6.08,2.15-11.63,6.03-16.64,11.62.87.23,2.38.46,4.94.46.49,0,.99,0,1.6-.03,2.7,0,4.51,1.91,4.51,4.74,0,3.45-2.13,4.47-3.06,4.74-.75.23-2.14.46-6.65.46-.32,0-.85-.01-1.62-.03-.39-.01-.86-.03-1.39-.05-.42-.01-.88-.03-1.39-.05-.76-.03-1.62-.06-2.6-.1-.6-.02-1.15-.05-1.72-.07-1.63,2.69-3.09,5.53-4.43,8.45-.2.45-.42.89-.62,1.34-.2.45-.43.88-.62,1.34-.68,1.62-1.27,3.3-1.87,4.98-.16.45-.34.88-.49,1.33-.15.44-.29.89-.43,1.34-3.55,11.13-5.34,23.65-5.34,37.6,0,1.67.09,3.28.14,4.91.02.56.02,1.12.05,1.67.07,1.51.16,3.01.28,4.49.04.55.1,1.09.15,1.63,1.6,17.96,6.62,33.3,15.2,45.93,9.94,14.62,21.43,21.93,34.46,21.93,8.55,0,16.56-4.77,24.02-14.32,2.48,1.64,4.82,5.15,7.01,10.52.59,1.49,1.14,2.24,1.64,2.24s.74-.82.74-2.46c0-1.49-.05-2.76-.15-3.8-.1-2.98-.15-6.71-.15-11.19,0-3.58.2-8.65.6-15.22.5-8.65.75-13.35.75-14.1l.15-3.8c.1-1.94-.35-2.91-1.34-2.91Z" fill="#004b41"/>
      <path d="M80.19,111.85c-15.01-58.79-23.51-92.56-25.48-101.3-1.63-7.03-2.75-10.54-3.36-10.54s-1.48,2.6-2.6,7.79c-1.63,7.19-2.91,12.46-3.82,15.82l-18.49,76.33c-3.67,14.98-6.47,26.29-8.4,33.92-2.55,10.85-4.38,17.27-5.5,19.25-1.12,1.99-3.72,3.13-7.79,3.44-3.16.31-4.74.92-4.74,1.83,0,1.53.71,2.29,2.14,2.29h27.2c1.83,0,2.75-.65,2.75-1.95,0-1.15-.71-1.81-2.14-1.95-4.48-.46-6.98-.76-7.49-.92-2.24-.76-3.36-2.44-3.36-5.04,0-1.38.25-3.21.76-5.5l3.36-14.9c2.54-10.69,4.28-17.57,5.2-20.63,3.2-.2,6.28-.3,9.25-.3,1.48,0,2.93.03,4.35.07h14.67c2.04,9.02,3.36,15.21,3.97,18.57l3.21,14.9c1.22,5.65,1.83,8.86,1.83,9.63,0,1.53-.82,2.45-2.45,2.75-.72.31-1.78.46-3.21.46-5.81.15-8.71,1-8.71,2.52s1.38,2.29,4.13,2.29c1.83,0,5.3-.15,10.39-.46.83-.05,1.72-.09,2.64-.12l11.69-48.25ZM44.77,104.52h-15.28c1.32-5.19,3.45-14.28,6.39-27.27,2.64-11.6,4.87-20.69,6.7-27.26l1.02,4.07c.88,3.85,1.56,6.77,2.05,8.76,1.84,7.18,4.81,19.62,8.91,37.34.61,2.45.96,3.9,1.06,4.36h-10.85Z" fill="#004b41"/>
      <path d="M90.31,160.45c.69.03,1.27.05,1.86.07.5.02.96.04,1.39.05.49.02.99.04,1.39.05,1.09.04,1.85.06,2.25.06,3.16,0,5.12-.12,5.88-.34.76-.23,1.15-.95,1.15-2.18,0-1.38-.61-2.06-1.83-2.06-.56.02-1.09.03-1.6.03-3.13,0-5.38-.33-6.8-.97-.15-.07-.24-.16-.37-.23-.24-.14-.52-.27-.7-.43-.02-.02-.04-.04-.06-.06-.29-.27-.58-.63-.87-1.05-.06-.08-.12-.17-.17-.25-1.36-2.12-2.73-5.93-4.09-11.47-.84-3.41-1.69-6.78-2.53-10.14-.07-.26-.13-.53-.2-.79-1.2,4.84-2.53,10.45-3.97,16.79-1.06,4.67-2.01,8.83-2.87,12.53,2.3.05,5.24.14,8.85.28.51.02,1.03.04,1.56.06.51.02,1.02.04,1.56.06.07,0,.13,0,.19,0Z" fill="#004b41"/>
    </g>
  </g>
</svg>