<?xml version="1.0" encoding="UTF-8"?>
<svg id="Layer_2" data-name="Layer 2" xmlns="http://www.w3.org/2000/svg" viewBox="0 0 684 82.09">
  <g id="Layer_1-2" data-name="Layer 1">
    <g>
      <path d="M51.84,79.35c0,.61-.19.97-.57,1.08-.38.11-1.36.17-2.93.17-.41,0-1.55-.04-3.42-.11-3.75-.15-6.33-.23-7.75-.23-1.67,0-3.14.04-4.41.11-2.53.15-4.26.23-5.17.23-1.37,0-2.05-.38-2.05-1.14s1.44-1.18,4.33-1.25c.71,0,1.24-.07,1.6-.23.81-.15,1.22-.61,1.22-1.37,0-.38-.3-1.98-.91-4.79l-1.6-7.41c-.3-1.67-.96-4.75-1.98-9.24h-7.3c-2.13-.07-4.38-.04-6.77.11-.46,1.52-1.32,4.94-2.58,10.26l-1.67,7.41c-.25,1.14-.38,2.05-.38,2.74,0,1.29.56,2.13,1.67,2.51.25.08,1.49.23,3.72.46.71.07,1.06.4,1.06.97,0,.65-.46.97-1.37.97H1.06c-.71,0-1.06-.38-1.06-1.14,0-.46.78-.76,2.36-.91,2.03-.15,3.32-.72,3.88-1.71.56-.99,1.47-4.18,2.74-9.58.96-3.8,2.36-9.42,4.18-16.87L22.35,12.43c.46-1.67,1.09-4.29,1.9-7.87.56-2.58.99-3.88,1.29-3.88s.86,1.75,1.67,5.24c1.01,4.49,5.47,22.2,13.37,53.13,1.01,3.95,2.03,7.98,3.04,12.08.86,3.5,1.72,5.63,2.58,6.38.66.61,2.23.87,4.71.8.61,0,.91.34.91,1.03ZM27.67,52.67c-.05-.23-.23-.95-.53-2.17-2.04-8.81-3.51-15-4.43-18.57-.24-.99-.58-2.45-1.02-4.36l-.51-2.02c-.91,3.27-2.02,7.79-3.33,13.56-1.47,6.46-2.53,10.98-3.18,13.56h13Z" fill="#80684b"/>
      <path d="M72.89,79.75c0,.57-.96.86-2.88.86-.45,0-1.87-.08-4.24-.23-1.21-.07-2.4-.11-3.56-.11s-3.18.08-6.21.23l-2.27.11c-1.11.07-1.67-.19-1.67-.8s.58-.87,1.75-.8c1.77.08,2.8-.19,3.08-.8.28-.61.42-2.88.42-6.83V11.39c0-2.58-.18-4.12-.54-4.61-.36-.49-1.41-.74-3.16-.74-1.29,0-1.93-.28-1.93-.85,0-.65.66-1.01,1.97-1.09,5.65-.3,10.26-1.6,13.84-3.88v68.41c0,5.17.09,8.19.27,9.06.18.87.8,1.27,1.86,1.2h2.28c.66,0,.99.28.99.86Z" fill="#80684b"/>
      <path d="M94.33,79.75c0,.57-.96.86-2.88.86-.46,0-1.87-.08-4.24-.23-1.21-.07-2.4-.11-3.56-.11s-3.18.08-6.21.23l-2.27.11c-1.11.07-1.67-.19-1.67-.8s.58-.87,1.75-.8c1.77.08,2.8-.19,3.08-.8.28-.61.42-2.88.42-6.83V11.39c0-2.58-.18-4.12-.54-4.61-.36-.49-1.41-.74-3.16-.74-1.29,0-1.93-.28-1.93-.85,0-.65.66-1.01,1.97-1.09,5.65-.3,10.26-1.6,13.84-3.88v68.41c0,5.17.09,8.19.27,9.06.18.87.8,1.27,1.86,1.2h2.28c.66,0,.99.28.99.86Z" fill="#80684b"/>
      <path d="M129.44,74.46c0,.62-.41,1.47-1.22,2.55-2.18,3.01-4.86,4.51-8.06,4.51-2.08,0-3.59-.66-4.52-1.96s-1.56-3.66-1.86-7.04c-2.28,6.23-5.4,9.35-9.35,9.35-2.18,0-3.94-1.03-5.28-3.08-1.34-2.05-2.01-4.71-2.01-7.98,0-9.58,5.47-15.24,16.42-16.99v-2.39c0-7.6-.18-12.27-.53-14.02l-.08-.57c-.71-3.8-2.51-5.7-5.4-5.7-1.67,0-3.02.72-4.03,2.17-1.01,1.44-1.52,2.85-1.52,4.22,0,.76.61,1.22,1.82,1.37,1.82.23,2.74,1.9,2.74,5.02,0,1.67-.37,3.06-1.1,4.16-.73,1.1-1.69,1.65-2.85,1.65-1.47,0-2.67-.66-3.61-2-.94-1.33-1.41-3.02-1.41-5.07,0-3.27,1.09-6.23,3.27-8.89,2.18-2.66,5.04-3.99,8.59-3.99,5.27,0,8.94,1.41,11.02,4.22,1.67,2.36,2.51,6.46,2.51,12.31v19.5c0,3.8.02,6.01.08,6.61.25,3.19.99,4.79,2.2,4.79.86,0,1.93-.91,3.19-2.74.25-.38.46-.57.61-.57.25,0,.38.19.38.58ZM113.56,60.88v-5.59c-4.92,1.44-7.37,5.63-7.37,12.54,0,5.32,1.22,7.98,3.65,7.98,1.37,0,2.33-1.14,2.89-3.42.56-2.28.84-6.12.84-11.52Z" fill="#80684b"/>
      <path d="M188.96,80.03c0,.69-.38.95-1.14.8h-16.95c-.71,0-1.06-.23-1.06-.69,0-.38.59-.61,1.78-.69,1.5-.07,2.25-.76,2.25-2.07v-25.61c0-7.88-.18-12.63-.54-14.24-.51-2.22-1.79-3.33-3.83-3.33-1.89,0-3.37,1.22-4.44,3.67-.46.99-.71,2.1-.77,3.32-.1,1.45-.15,5.39-.15,11.8v21.77c0,2.29.14,3.63.42,4.01s1.23.57,2.85.57c.46,0,.68.19.68.57,0,.61-.28.92-.84.92-.51,0-.91-.04-1.22-.11l-14.75-.23c-.46,0-.68-.23-.68-.69s.61-.69,1.82-.69c.91,0,1.44-.19,1.6-.57l.15-1.14v-28c0-7.16-.28-11.49-.84-12.97-.56-1.49-1.7-2.23-3.42-2.23-2.08,0-3.62,1.3-4.64,3.9-.36.99-.57,2.01-.65,3.04-.08,1.03-.11,4.03-.11,8.99v22.69c0,3.52.14,5.44.42,5.79.28.34.98.51,2.09.51h1.14c.51,0,.76.21.76.63,0,.49-.23.74-.68.74h-5.02c-4.06.09-6.21.16-6.46.2-2.43.09-4.23.14-5.4.14h-1.06c-.66,0-.99-.3-.99-.91,0-.53.23-.8.68-.8l1.75.46c.86.08,1.57-.23,2.13-.92.4-.53.61-2.14.61-4.81v-18.91c0-10.62-.1-16.31-.3-17.08-.41-.69-1.98-1.03-4.71-1.03-.71,0-1.06-.27-1.06-.8,0-.61.33-.91.99-.91,5.07-.15,9.58-1.82,13.53-5.02.46-.38.78-.57.99-.57.25,0,.38.3.38.91,0,1.14-.03,2.09-.08,2.85v4.79c2.33-5.7,5.77-8.55,10.32-8.55,5.11,0,8.12,3.12,9.03,9.35,1.16-3.35,2.58-5.75,4.25-7.19,1.67-1.44,3.87-2.16,6.6-2.16,6.42,0,9.63,5.34,9.63,16.03v28.17c0,2.44.06,3.93.19,4.47.13.53.54.84,1.25.92,1.01.15,1.92.23,2.74.23.51,0,.76.23.76.69Z" fill="#80684b"/>
      <path d="M224.15,74.46c0,.62-.41,1.47-1.22,2.55-2.18,3.01-4.86,4.51-8.06,4.51-2.08,0-3.59-.66-4.52-1.96-.94-1.31-1.56-3.66-1.86-7.04-2.28,6.23-5.4,9.35-9.35,9.35-2.18,0-3.94-1.03-5.28-3.08-1.34-2.05-2.01-4.71-2.01-7.98,0-9.58,5.47-15.24,16.42-16.99v-2.39c0-7.6-.18-12.27-.53-14.02l-.08-.57c-.71-3.8-2.51-5.7-5.4-5.7-1.67,0-3.02.72-4.03,2.17-1.01,1.44-1.52,2.85-1.52,4.22,0,.76.61,1.22,1.82,1.37,1.82.23,2.74,1.9,2.74,5.02,0,1.67-.37,3.06-1.1,4.16-.73,1.1-1.69,1.65-2.85,1.65-1.47,0-2.67-.66-3.61-2-.94-1.33-1.41-3.02-1.41-5.07,0-3.27,1.09-6.23,3.27-8.89,2.18-2.66,5.04-3.99,8.59-3.99,5.27,0,8.94,1.41,11.02,4.22,1.67,2.36,2.51,6.46,2.51,12.31v19.5c0,3.8.02,6.01.08,6.61.25,3.19.99,4.79,2.2,4.79.86,0,1.93-.91,3.19-2.74.25-.38.46-.57.61-.57.25,0,.38.19.38.58ZM208.26,60.88v-5.59c-4.92,1.44-7.37,5.63-7.37,12.54,0,5.32,1.22,7.98,3.65,7.98,1.37,0,2.33-1.14,2.89-3.42.56-2.28.84-6.12.84-11.52Z" fill="#80684b"/>
      <path d="M264.05,79.81c0,.61-.63.91-1.9.91h-16.27c-.71,0-1.06-.28-1.06-.85,0-.5.3-.74.9-.74h.6c1.29,0,2.05-.25,2.28-.75.22-.5.34-2.2.34-5.1v-22.12c0-8.17-.35-13.06-1.05-14.67-.6-1.38-1.67-2.06-3.22-2.06s-2.82.72-3.82,2.16c-1,1.44-1.5,3.26-1.5,5.46v34.46c.1.91.32,1.5.65,1.76.33.27,1.15.44,2.47.51.4,0,.61.23.61.68s-.18.72-.53.8c-.36.07-1.62.11-3.8.11s-3.98.04-5.4.11c-2.79.15-5.62.23-8.51.23-.61,0-.91-.27-.91-.8,0-.61.77-.91,2.32-.91s2.44-.45,2.7-1.36l.23-1.59v-26.16c0-7.35-.05-11.18-.15-11.49-.15-1.14-.84-1.71-2.05-1.71h-2.58c-.81,0-1.22-.25-1.22-.74s.3-.78.91-.85c5.65-.38,10.16-2.17,13.54-5.36.4-.3.68-.46.83-.46.4,0,.61.61.61,1.82v6.5c2.69-5.24,6.13-7.87,10.34-7.87s7.2,2.28,8.51,6.84c.56,1.9.9,4.03,1.03,6.38.13,2.36.19,7.22.19,14.59v16.53c0,2.36.13,3.74.38,4.16.25.42,1.08.63,2.47.63s2.09.3,2.09.91Z" fill="#80684b"/>
      <path d="M327.52,79.35c0,.61-.19.97-.57,1.08-.38.11-1.36.17-2.93.17-.41,0-1.55-.04-3.42-.11-3.75-.15-6.33-.23-7.75-.23-1.67,0-3.14.04-4.41.11-2.53.15-4.26.23-5.17.23-1.37,0-2.05-.38-2.05-1.14s1.44-1.18,4.33-1.25c.71,0,1.24-.07,1.6-.23.81-.15,1.22-.61,1.22-1.37,0-.38-.3-1.98-.91-4.79l-1.6-7.41c-.3-1.67-.96-4.75-1.98-9.24h-7.3c-2.13-.07-4.38-.04-6.77.11-.46,1.52-1.32,4.94-2.58,10.26l-1.67,7.41c-.25,1.14-.38,2.05-.38,2.74,0,1.29.56,2.13,1.67,2.51.25.08,1.49.23,3.72.46.71.07,1.06.4,1.06.97,0,.65-.46.97-1.37.97h-13.53c-.71,0-1.06-.38-1.06-1.14,0-.46.78-.76,2.36-.91,2.03-.15,3.32-.72,3.88-1.71.56-.99,1.47-4.18,2.74-9.58.96-3.8,2.36-9.42,4.18-16.87l9.2-37.97c.46-1.67,1.09-4.29,1.9-7.87.56-2.58.99-3.88,1.29-3.88s.86,1.75,1.67,5.24c1.01,4.49,5.47,22.2,13.37,53.13,1.01,3.95,2.03,7.98,3.04,12.08.86,3.5,1.72,5.63,2.58,6.38.66.61,2.23.87,4.71.8.61,0,.91.34.91,1.03ZM303.35,52.67c-.05-.23-.23-.95-.53-2.17-2.04-8.81-3.51-15-4.43-18.57-.24-.99-.58-2.45-1.02-4.36l-.51-2.02c-.91,3.27-2.02,7.79-3.33,13.56-1.47,6.46-2.53,10.98-3.18,13.56h13Z" fill="#80684b"/>
      <path d="M353.29,73.2c0,.84-.49,1.94-1.46,3.31-2.5,3.57-5.95,5.36-10.34,5.36-4.03,0-6.69-1.48-7.96-4.45-.51-1.14-.81-2.2-.88-3.19-.08-.99-.11-3.53-.11-7.64v-5.47c.1-1.44.15-2.96.15-4.56l-.15-2.39v-18.47c0-1.37-.13-2.17-.38-2.39-.25-.23-1.01-.34-2.28-.34-1.52,0-2.28-.3-2.28-.91,0-.46.28-.76.84-.91,4.76-.23,8.87-4.1,12.31-11.63.46-1.06.81-1.6,1.06-1.6.3,0,.46.53.46,1.6-.05,6.54.13,10.11.53,10.72.41.61,1.65.91,3.72.91s3.62-.15,4.48-.46c.1-.07.2-.11.3-.11.2,0,.3.24.3.72,0,1.11-.33,1.67-.98,1.67-2.06.08-4.35.12-6.86.12h-1.05v2.38c0,20.27.1,32.14.3,35.62.46,4.39,1.9,6.58,4.32,6.58,1.08,0,2.47-1.14,4.17-3.42.82-1.06,1.34-1.6,1.54-1.6.15,0,.23.19.23.57Z" fill="#80684b"/>
      <path d="M391.52,80.15c0,.46-.23.68-.68.68.05,0-.46,0-1.52,0h-4.56c-4.36,0-7.04-.11-8.06-.34h-1.22l-1.82.34c-.66.07-.99-.21-.99-.86,0-.49.13-.74.38-.74h1.75c1.11.08,1.75-.38,1.9-1.37.1-.61.15-4.41.15-11.4v-16.99c0-7.07-.23-11.25-.68-12.54-.65-1.98-1.91-2.96-3.77-2.96-1.96,0-3.47,1.34-4.52,4.01-.5,1.3-.75,4.09-.75,8.36v31.28c-.05,1.15.99,1.72,3.13,1.72.45,0,.67.23.67.69,0,.53-.33.8-.99.8h-.61c-.41-.23-1.01-.34-1.82-.34h-3.35l-4.26.11-4.48.23h-2.28c-.76,0-1.14-.23-1.14-.68,0-.23.05-.38.15-.46.1-.07.33-.11.68-.11,1.93,0,3.06-.11,3.42-.34.35-.23.58-1.1.68-2.62.05-.91.08-5.47.08-13.68V21.09c0-8.21-.11-12.94-.34-14.19-.23-1.25-1.31-1.88-3.23-1.88-1.47,0-2.2-.23-2.2-.68s.86-.76,2.57-.91c3.88-.38,7.54-1.37,10.97-2.96.66-.3,1.13-.46,1.44-.46.4,0,.61,2.13.61,6.38v31.47c1.47-3.12,2.9-5.24,4.3-6.38,1.39-1.14,3.28-1.71,5.66-1.71,5.02,0,8.16,3.04,9.43,9.12.46,1.98.68,5.17.68,9.58v26.57c0,1.98.22,3.19.65,3.65.43.46,1.51.68,3.23.68.51,0,.76.27.76.8Z" fill="#80684b"/>
      <path d="M413.33,79.75c0,.57-.96.86-2.88.86-.46,0-1.87-.08-4.24-.23-1.21-.07-2.4-.11-3.56-.11s-3.18.08-6.21.23l-2.27.11c-1.11.07-1.67-.19-1.67-.8s.58-.87,1.75-.8c1.77.08,2.8-.19,3.08-.8.28-.61.42-2.88.42-6.83V11.39c0-2.58-.18-4.12-.54-4.61s-1.41-.74-3.16-.74c-1.29,0-1.93-.28-1.93-.85,0-.65.66-1.01,1.97-1.09,5.65-.3,10.26-1.6,13.84-3.88v68.41c0,5.17.09,8.19.27,9.06.18.87.8,1.27,1.86,1.2h2.28c.66,0,.99.28.99.86Z" fill="#80684b"/>
      <path d="M445.64,66.58c0,1.67-.66,3.88-1.98,6.61-2.84,5.85-6.54,8.78-11.1,8.78-5.12,0-9.32-2.43-12.62-7.3-3.29-4.86-4.94-11.1-4.94-18.7s1.6-13.66,4.79-18.64c3.19-4.98,7.17-7.47,11.93-7.47,3.24,0,6,1.07,8.29,3.19,2.53,2.36,4.18,5.74,4.94,10.15.2,1.37.35,3,.46,4.9-1.17.2-5.85.36-14.06.46-1.27,0-2.86.08-4.79.23-.15,2.73-.23,5.03-.23,6.93,0,8.86,1.24,15.14,3.72,18.85,1.47,2.2,3.27,3.29,5.4,3.29,1.77,0,3.48-.91,5.13-2.74,1.65-1.82,2.9-4.18,3.76-7.07.41-1.44.73-2.17.99-2.17.2,0,.3.23.3.68ZM436.06,46.63c.05-5.81-.23-9.85-.84-12.11-.61-2.26-1.67-3.4-3.19-3.4-3.09,0-4.86,5.17-5.32,15.51h9.35Z" fill="#80684b"/>
      <path d="M472.92,73.2c0,.84-.49,1.94-1.46,3.31-2.5,3.57-5.95,5.36-10.34,5.36-4.03,0-6.69-1.48-7.96-4.45-.51-1.14-.81-2.2-.88-3.19-.08-.99-.11-3.53-.11-7.64v-5.47c.1-1.44.15-2.96.15-4.56l-.15-2.39v-18.47c0-1.37-.13-2.17-.38-2.39-.25-.23-1.01-.34-2.28-.34-1.52,0-2.28-.3-2.28-.91,0-.46.28-.76.84-.91,4.76-.23,8.87-4.1,12.31-11.63.46-1.06.81-1.6,1.06-1.6.3,0,.46.53.46,1.6-.05,6.54.13,10.11.53,10.72.41.61,1.65.91,3.72.91s3.62-.15,4.48-.46c.1-.07.2-.11.3-.11.2,0,.3.24.3.72,0,1.11-.33,1.67-.98,1.67-2.06.08-4.35.12-6.86.12h-1.05v2.38c0,20.27.1,32.14.3,35.62.46,4.39,1.9,6.58,4.32,6.58,1.08,0,2.47-1.14,4.17-3.42.82-1.06,1.34-1.6,1.54-1.6.15,0,.23.19.23.57Z" fill="#80684b"/>
      <path d="M492.68,79.81c0,.53-.23.8-.68.8h-19.16c-.61,0-.91-.24-.91-.73,0-.36.58-.58,1.75-.64,1.72-.07,2.74-.36,3.04-.86.3-.5.46-2.01.46-4.53v-32.89c0-2.9-.17-4.64-.49-5.21-.33-.57-1.33-.86-3-.86-1.06,0-1.69-.04-1.86-.11-.18-.07-.27-.34-.27-.8,0-.53.38-.8,1.14-.8,5.57-.07,10.34-1.37,14.29-3.88.1.91.23,3.42.38,7.53v35.91c0,3.12.19,4.94.57,5.47.38.53,1.68.8,3.91.8.56,0,.84.27.84.8ZM487.36,7.53c0,2.13-.49,3.95-1.48,5.47-.99,1.52-2.18,2.28-3.58,2.28s-2.67-.72-3.65-2.17c-.99-1.44-1.48-3.27-1.48-5.47s.49-3.88,1.48-5.24c.98-1.37,2.25-2.05,3.81-2.05,1.4,0,2.56.68,3.5,2.05.93,1.37,1.4,3.08,1.4,5.13Z" fill="#80684b"/>
      <path d="M523.62,41.5c0,1.82-.35,3.31-1.06,4.45-.71,1.14-1.62,1.71-2.74,1.71-2.69,0-4.03-1.78-4.03-5.36,0-.91.16-2,.49-3.25.33-1.25.49-2.15.49-2.68,0-1.44-.37-2.68-1.1-3.71-.74-1.03-1.63-1.54-2.7-1.54-4.61,0-6.92,7.72-6.92,23.14,0,8.82,1.01,15.13,3.04,18.93,1.57,2.89,3.5,4.33,5.78,4.33s4.81-2.32,7.3-6.95c.3-.61.58-.91.84-.91.2,0,.3.23.3.68,0,1.44-.91,3.46-2.74,6.04-2.64,3.73-5.8,5.59-9.5,5.59-4.56,0-8.45-2.45-11.67-7.35-3.22-4.9-4.83-10.85-4.83-17.84,0-7.6,1.7-14,5.09-19.21,3.39-5.21,7.58-7.81,12.54-7.81,3.19,0,5.89,1.14,8.09,3.42,2.2,2.28,3.31,5.06,3.31,8.32Z" fill="#80684b"/>
      <path d="M580.93,55.52l-.08,1.94c0,.38-.13,2.78-.38,7.18-.2,3.35-.3,5.93-.3,7.75,0,2.28.02,4.18.08,5.7.05.53.08,1.18.08,1.94,0,.84-.13,1.25-.38,1.25s-.53-.38-.84-1.14c-1.12-2.74-2.31-4.52-3.57-5.36-3.8,4.87-7.88,7.3-12.24,7.3-6.64,0-12.49-3.72-17.56-11.17-5.37-7.9-8.06-17.86-8.06-29.87s2.42-21.34,7.26-29.13c4.84-7.79,10.88-11.69,18.13-11.69,3.34,0,6.33,1.14,8.97,3.42,1.52,1.29,2.63,1.94,3.34,1.94,1.06,0,2.05-.72,2.96-2.17.66-1.06,1.06-1.6,1.22-1.6.2,0,.3.27.3.8,0,.23-.03.57-.08,1.03-.3,2.58-.46,5.78-.46,9.58,0,.38.02,1.94.08,4.67v7.87c0,1.37-.25,2.05-.76,2.05-.41,0-.81-1.48-1.22-4.45-1.82-13.68-6-20.52-12.54-20.52-5.17,0-8.92,5.02-11.25,15.05-1.62,6.84-2.43,15.05-2.43,24.63,0,14.21,1.93,24.63,5.78,31.24,2.03,3.5,4.69,5.24,7.98,5.24,7.14,0,11.83-7.14,14.06-21.43.35-2.36.76-3.53,1.22-3.53.51,0,.73.5.68,1.48Z" fill="#80684b"/>
      <path d="M605.1,79.75c0,.57-.96.86-2.88.86-.45,0-1.87-.08-4.24-.23-1.21-.07-2.4-.11-3.56-.11s-3.18.08-6.21.23l-2.27.11c-1.11.07-1.67-.19-1.67-.8s.58-.87,1.75-.8c1.77.08,2.8-.19,3.08-.8.28-.61.42-2.88.42-6.83V11.39c0-2.58-.18-4.12-.54-4.61-.36-.49-1.41-.74-3.16-.74-1.29,0-1.93-.28-1.93-.85,0-.65.66-1.01,1.97-1.09,5.65-.3,10.26-1.6,13.84-3.88v68.41c0,5.17.09,8.19.27,9.06.18.87.8,1.27,1.86,1.2h2.28c.66,0,.99.28.99.86Z" fill="#80684b"/>
      <path d="M647.21,76.85c0,.61-.43.95-1.29,1.03-4.61.23-7.8.59-9.58,1.08-1.77.5-3.29,1.39-4.56,2.68-.3.3-.58.46-.84.46-.2,0-.3-.3-.3-.91v-4.9c0-.68-.03-1.29-.08-1.82-3.17,5.09-6.61,7.64-10.34,7.64-3.32,0-5.93-1.6-7.85-4.8-1.21-1.98-1.81-5.64-1.81-10.97v-29.71c0-1.67-.16-2.7-.49-3.09-.33-.38-1.24-.61-2.73-.69-1.3-.07-1.95-.38-1.95-.91,0-.61.35-.91,1.06-.91h.84c.76,0,1.91.06,3.46.17,1.54.11,2.6.17,3.15.17.1,0,.62-.06,1.56-.17.94-.11,2.32-.17,4.14-.17h1.44v12.37c0,5.88-.05,10.2-.15,12.95-.1,2.75-.15,3.93-.15,3.55,0,8.02.34,13.02,1.03,15.01.68,1.99,1.76,2.98,3.23,2.98,1.67,0,3.24-1.41,4.71-4.23.46-.84.72-1.7.8-2.57.08-.88.11-3.03.11-6.46v-19.66c0-5.56-.05-8.91-.15-10.06-.1-1.45-.72-2.17-1.87-2.17h-2.1c-.7,0-1.05-.3-1.05-.91,0-.46,1.36-.68,4.08-.68,2.37,0,6.13-.04,11.27-.11v37.05c0,3.57.05,5.68.15,6.33.1.65.48,1.08,1.14,1.31.46.15,1.82.23,4.11.23.66,0,.99.3.99.91Z" fill="#80684b"/>
      <path d="M684,54.38c0,9.58-2.53,16.99-7.6,22.23-3.5,3.57-7.14,5.36-10.95,5.36-1.42,0-3.47-.68-6.16-2.05-1.42-.76-2.51-1.14-3.27-1.14-1.37,0-2.76.76-4.18,2.28-.3.3-.53.46-.68.46-.36,0-.56-.23-.61-.68-.05-.46-.08-1.82-.08-4.1V9.81c0-1.98-.24-3.27-.71-3.88-.48-.61-1.51-.91-3.11-.91-1.35,0-2.03-.27-2.03-.8s.31-.8.93-.8c5.76,0,10.77-.95,15.03-2.85l.08,1.82v33.63c2.02-4.18,4.82-6.27,8.41-6.27,4.34,0,7.92,2.3,10.72,6.9,2.8,4.6,4.2,10.51,4.2,17.73ZM672.67,54.84c0-14.75-2.05-22.12-6.16-22.12-2.28,0-3.95,1.6-5.02,4.79-.41,1.22-.65,2.64-.72,4.28-.08,1.64-.11,6.29-.11,13.97v6.95c0,7.15.32,11.88.95,14.19.63,2.32,1.91,3.48,3.84,3.48,2.63,0,4.5-1.94,5.59-5.82,1.09-3.88,1.63-10.45,1.63-19.72Z" fill="#80684b"/>
    </g>
  </g>
</svg>