<?xml version="1.0" encoding="UTF-8"?>
<svg id="Layer_2" data-name="Layer 2" xmlns="http://www.w3.org/2000/svg" viewBox="0 0 688.57 200">
  <g id="Layer_1-2" data-name="Layer 1">
    <g>
      <g>
        <g>
          <path d="M217.44,17.96c1.24,7.07,8.44,19.39,12.29,25.25l3.01,4.57c4.05,6.15,7.31,12.55,10.8,18.78-2.7-12.65-9.66-22.58-16.76-32.26-4.19-5.78-5.16-10.42-9.33-16.33Z" fill="#004b41"/>
          <path d="M79.01,90.2c3.1.73,6.31-.32,10.21-.39l15.76-.26c6.49-.75,12.59-1.48,18.44-4.02-16.3,2.37-29.18.05-44.41,4.67Z" fill="#004b41"/>
          <path d="M246.62,105.33c-8.87-4.94-17.19-6.75-25.22-10.67l-11.56-5.64c-2.75-1.34-5.15-4.62-8.75-4.33,1.82,5.26,2.37,12.65-1.97,16.56-2.51,2.25-6.03,3.44-6.91,7.25h62.14c.18-.04.36-.08.53-.13l-8.26-3.04Z" fill="#004b41"/>
          <path d="M480.3,14.96c.54,3.31,1.04,5.84.84,9.11l-.75,12.22c-.86,14.02-5.18,17.43-11.81,28.57-12.28,10.6-4.75,18.35-15.72,23.15-2.81,1.23-5.41,2.99-7.58,5.07l-5.63,5.36c12.75-3.35,11.47-7.27,26.11-13.17,2.02-.81,3.77-2.39,5.89-3.03l11.98-3.65c7.4-2.26,29.03-19.36,29.65-19.67,1.95-.95,4.53-1.38,6.22-2.71l14.36-11.22,12.11-7.31c5.48-3.31,10.27-7.17,15.7-10.54,12.94-8.04,12.46-12.69,23.48-13.19l22.34-13.7,1.91-.02h-26.25c-.34,6.13-4.71,8.01-8.9,11.22l-14.11,10.82c-.23-7.93-.27-14.66-1.37-22.04h-16.3c-.25,2.5-.26,4.44-.7,6.48-4.39,20.43-2.74,8.06-9.36,23.56-1.45,3.39-2.86,6.87-3.76,10.32-10.35,2.59-7.02,11.41-21.1,14.82-2.18-1.14-4.09-4.35-5-6.69l-3.39-8.78c-.3-.77-1.39-1.97-1.09-2.57l1.11-2.22c-3.27-5.25-4.59-17.27-4.11-23.8l.82-11.12h-14.9v.24c-.1,5.16-1.45,9.85-.7,14.49Z" fill="#004b41"/>
          <path d="M179.92,40.52c.7-11.29-4.73-21.98-8.44-32.39-.94-2.64-1.1-5.75-2.56-7.85,1.1,14.83,8.03,26.62,11,40.24Z" fill="#004b41"/>
          <path d="M122.23,104.16c-11.8,3.75-24.36,1.75-36.67.08-1.21-.45-3.55-2.23-4.87-2.29l-16.49-.68c-4.29-.18-8.06,1.62-12.66-.35,2.57-2.84,5.3-4.57,8.6-6.24,4.9-2.48,2.42-6.47,12.47-10.63l19.63-8.11c5.88-2.43,9.78-8.65,16.17-10.54,13.26-3.92,27.28-4.93,40.99-3.35,3.63.42,6.35,4.17,10.36,2.56l-12.51-8.62c-9.58-6.6-19.43-7.27-24.39-12.29l-7.76-7.86c-5.6-5.67-16.16-7.23-19.08-9.2-4.37-2.95-8.54-5.66-12.32-9.4-2.61-2.58-5.93-4.1-9.62-4.78L54.46.23H0v108.26h192.21l-70.99-.05c.88,0,1.49-4.15,1.01-4.29Z" fill="#004b41"/>
          <path d="M179.89,97.04c2.58-1.1,5.67-.93,7.8-3.06-14.5,1.9-26.18,9.52-39.91,13.09,5.92-.01,11.61-1.27,17.03-3.59l15.08-6.44Z" fill="#004b41"/>
          <path d="M103.83,13.38c2.32.68,6.69.27,8.59,1.89,5.11,4.37,9.87,8.08,15.45,11.62,5.51,3.5,10.36,7.52,16.02,10.84l11.45,6.69c5.21,3.05,9.02,7.76,14.26,11.16,1.79,1.16,4.46,1.72,6.28,2.7.81.44,22.81,18.13,30.44,20.29l11.01,3.12c2.54.72,4.45,2.74,6.9,3.62,13.56,4.87,12.52,9.59,25.95,13.19-3.39-3.26-6.6-6.52-10.48-9.09-3.79-2.51-9.47-3.98-10.21-9.15-.95-6.64-4.35-10.79-8.68-15.65-2.53-2.83-4.65-7.31-7.05-10.95-4.32-6.57-4.92-14.05-5.4-21.46-.31-4.84-1.18-10.13-.16-14.7.7-3.11,1.02-5.31.66-8.46l-.98-8.81h-14.95c1.65,17.8,1.87,14.25-1.22,31.42-.12.67-2.05,2.02-1.79,2.61l1.21,2.7c-3.19,5.11-4.88,17.15-10.22,17.81-13.92-4.23-9.22-11.56-20.59-14.61-.32-1.54-.71-3.75-1.19-4.82l-4.71-10.5c-1.73-3.87-4.57-6.6-5.54-10.89-1.03-4.57-2.04-8.86-2.52-13.72h-63.87c7.06,4.87,13.98,9.01,21.35,13.15Z" fill="#004b41"/>
          <path d="M508.61,81.81c6.2-1.04,12.13.03,18.71,1.07l-11.18-10.1c-.43-.39-2.84-.12-2.83.38l.03,2.18c-4.12,1.92-7.82,3.5-11.88,6.55,2.57.59,4.6.36,7.15-.07Z" fill="#004b41"/>
          <path d="M507.37,94.62c2.14,2.14,5.22,1.96,7.8,3.06l15.08,6.44c5.42,2.31,11.11,3.57,17.03,3.59-13.73-3.57-25.42-11.19-39.91-13.09Z" fill="#004b41"/>
          <path d="M600.16,90.03c3.7.47,6.74,2.08,10.08.8-15.7-4.29-28.01-2.43-44.38-4.62,7.68,3.13,15.61,3.8,24.08,3.91,3.32.04,7.08-.49,10.22-.09Z" fill="#004b41"/>
          <path d="M517.72,8.68l-5.69,15.38c-2.05,5.53-3.03,11.27-2.75,17.19,2.89-13.89,9.94-25.93,11.13-40.5-2.03,2.24-1.71,5.31-2.68,7.94Z" fill="#004b41"/>
          <path d="M635.15.23l-20.45,12.71c-4.05,1.09-7.47,3.09-10.53,5.92-3.64,3.36-7.51,5.91-11.6,8.74-1.18.82-14.62,4.35-19.54,9.49l-6.89,7.21c-3.96,4.14-14.78,6.27-21.6,10.59-5.06,3.21-9.56,6.43-14.46,9.98,8.19,1.34,2.73-2.92,17.27-2.85,11.82.06,23.49.35,34.65,4.51,5.73,2.13,9.73,7.36,15.03,10.13,7.66,4,23.66,8.18,26.86,13.5,4.92,8.19,7.32,3.94,13.62,11.82-4.7,1.2-8.67-.06-13.14.08-26.73.83-16.04,3.03-24.62,3.65l-17.31,1.26c-5.18.38-9.89-.73-15.18-2.19-.59.34-.51,2.55.16,3.73h121.14V.23h-53.42Z" fill="#004b41"/>
          <path d="M181.06,81.37c2.09.42,3.99.38,6.64-.24l-11.46-6.4c-.2-1-.4-2.01-.66-2.6-.25-.6-2.46.09-2.96.55l-10.7,9.68c6.98-1.27,12.63-2.29,19.13-.99Z" fill="#004b41"/>
          <path d="M432.79,102.92l-.41-11.66c-.13-3.76.16-8.16-.64-11.97-.99-4.75-1.17-8.19-.38-12.6,1.99-11.08,3.78-22.04,9.07-32.12,2.91-5.55,8.52-8.97,12.26-13.89,4.83-6.35,7.45-14.08,12.46-20.45h-241.32c5.07,6.29,8.09,14.06,12.46,20.05,3.63,4.97,9.35,8.18,12.32,13.82,5.28,10.03,6.97,20.98,9.06,31.99,1.01,5.29.19,9.2-.67,14.36-1.17,7.04-.25,14.41-.63,22.18,7.83,3.27,11.72,5.01,15.59,5.87h146.01c3.85-.88,7.91-2.57,14.82-5.58Z" fill="#004b41"/>
          <path d="M471.07,19.45c-2.28,3.38-3.84,6.77-5.8,10.23-6.06,10.67-17.06,22.26-19.56,37.04,3.89-7.19,7.3-13.46,11.57-19.92,4.22-6.38,12.54-19.75,13.78-27.35Z" fill="#004b41"/>
          <path d="M487.79,85.26c-3.78-.19-5.94,2.99-8.62,4.27l-11.09,5.32c-7.8,3.74-14.56,5.45-25.27,10.73-2.54,1.25-5.38,1.41-8.2,2.91h62.27c-2.72-8.99-13.28-1.62-9.1-23.23Z" fill="#004b41"/>
          <path d="M560.15,22.27l14.11-10.82c4.18-3.21,8.56-5.08,8.9-11.22h-24.37c1.09,7.38,1.14,14.1,1.37,22.04Z" fill="#80684b"/>
          <path d="M567.26,104.77c5.29,1.46,10,2.57,15.18,2.19l17.31-1.26c8.58-.62-2.11-2.82,24.62-3.65,4.46-.14,8.43,1.12,13.14-.08-6.3-7.89-8.7-3.64-13.62-11.82-3.2-5.33-19.21-9.5-26.86-13.5-5.3-2.77-9.29-8-15.03-10.13-11.16-4.15-22.84-4.45-34.65-4.51-14.54-.07-9.07,4.19-17.27,2.85,4.89-3.54,9.39-6.77,14.46-9.98,6.82-4.31,17.64-6.45,21.6-10.59l6.89-7.21c4.92-5.14,18.36-8.67,19.54-9.49,4.09-2.83,7.96-5.38,11.6-8.74,3.05-2.82,6.47-4.83,10.53-5.92L635.15.23l.37-.23-26.12.23-1.91.02-22.34,13.7c-11.02.5-10.55,5.15-23.48,13.19-5.43,3.37-10.21,7.23-15.7,10.54l-12.11,7.31-14.36,11.22c-1.7,1.33-4.27,1.76-6.22,2.71-.62.3-22.25,17.41-29.65,19.67l-11.98,3.65c-2.13.65-3.88,2.22-5.89,3.03-14.64,5.91-13.36,9.83-26.11,13.17l5.63-5.36c2.18-2.07,4.77-3.84,7.58-5.07,10.96-4.8,3.44-12.55,15.72-23.15,6.63-11.14,10.95-14.54,11.81-28.57l.75-12.22c.2-3.27-.3-5.8-.84-9.11-.75-4.64.6-9.33.71-14.49v-.24h-15.85c-5.01,6.37-7.63,14.1-12.46,20.45-3.74,4.92-9.35,8.34-12.26,13.89-5.29,10.08-7.08,21.04-9.07,32.12-.79,4.41-.61,7.85.38,12.6.79,3.81.51,8.2.64,11.97l.41,11.66c-6.91,3.01-10.97,4.7-14.82,5.58h16.64c2.81-1.5,5.65-1.66,8.2-2.91,10.71-5.28,17.47-7,25.27-10.73l11.09-5.32c2.68-1.28,4.84-4.46,8.62-4.27-4.18,21.62,6.38,14.24,9.1,23.23h70.54c-.68-1.18-.76-3.39-.16-3.73ZM465.27,29.67c1.96-3.45,3.53-6.84,5.8-10.23-1.24,7.6-9.56,20.97-13.78,27.35-4.28,6.47-7.69,12.73-11.57,19.92,2.5-14.78,13.49-26.38,19.56-37.04ZM610.24,90.83c-3.33,1.28-6.38-.33-10.08-.8-3.14-.4-6.9.13-10.22.09-8.47-.11-16.39-.78-24.08-3.91,16.37,2.19,28.68.33,44.38,4.62ZM513.34,75.33l-.03-2.18c0-.5,2.4-.77,2.83-.38l11.18,10.1c-6.58-1.03-12.52-2.11-18.71-1.07-2.55.43-4.58.66-7.15.07,4.05-3.05,7.76-4.62,11.88-6.55ZM530.25,104.12l-15.08-6.44c-2.58-1.1-5.67-.93-7.8-3.06,14.49,1.9,26.18,9.52,39.91,13.09-5.92-.01-11.61-1.27-17.03-3.59Z" fill="#80684b"/>
          <path d="M495.08,11.35c-.48,6.54.84,18.56,4.11,23.8l-1.11,2.22c-.3.6.79,1.8,1.09,2.57l3.39,8.78c.91,2.35,2.81,5.55,5,6.69,14.08-3.41,10.75-12.23,21.1-14.82.9-3.45,2.31-6.93,3.76-10.32,6.62-15.5,4.96-3.13,9.36-23.56.44-2.04.46-3.97.7-6.48h-46.59l-.82,11.12ZM509.27,41.24c-.28-5.91.71-11.66,2.75-17.19l5.69-15.38c.98-2.63.65-5.7,2.68-7.94-1.19,14.57-8.23,26.62-11.13,40.5Z" fill="#80684b"/>
          <path d="M148.88,13.96c.97,4.29,3.81,7.02,5.54,10.89l4.71,10.5c.48,1.06.87,3.28,1.19,4.82,11.37,3.05,6.67,10.38,20.59,14.61,5.34-.66,7.03-12.7,10.22-17.81l-1.21-2.7c-.27-.59,1.67-1.95,1.79-2.61,3.09-17.17,2.87-13.62,1.22-31.42h-46.57c.48,4.86,1.49,9.15,2.52,13.72ZM171.47,8.13c3.71,10.41,9.14,21.1,8.44,32.39-2.97-13.63-9.9-25.41-11-40.24,1.46,2.1,1.62,5.21,2.56,7.85Z" fill="#80684b"/>
          <path d="M256.38,102.62c.38-7.76-.54-15.14.63-22.18.86-5.16,1.68-9.07.67-14.36-2.09-11-3.78-21.96-9.06-31.99-2.97-5.64-8.69-8.85-12.32-13.82-4.37-5.99-7.39-13.76-12.46-20.05h-15.97l.98,8.81c.35,3.15.03,5.35-.66,8.46-1.02,4.58-.15,9.86.16,14.7.47,7.41,1.07,14.89,5.4,21.46,2.4,3.65,4.53,8.13,7.05,10.95,4.34,4.85,7.73,9,8.68,15.65.74,5.17,6.43,6.64,10.21,9.15,3.88,2.57,7.09,5.83,10.48,9.09-13.43-3.61-12.39-8.32-25.95-13.19-2.45-.88-4.36-2.9-6.9-3.62l-11.01-3.12c-7.62-2.16-29.62-19.85-30.44-20.29-1.82-.98-4.48-1.53-6.28-2.7-5.24-3.4-9.04-8.11-14.26-11.16l-11.45-6.69c-5.66-3.31-10.51-7.34-16.02-10.84-5.58-3.54-10.35-7.25-15.45-11.62-1.9-1.63-6.28-1.22-8.59-1.89-7.37-4.14-14.29-8.28-21.35-13.15h-28.03l19.61,12.22c3.69.68,7.01,2.2,9.62,4.78,3.78,3.73,7.95,6.45,12.32,9.4,2.92,1.97,13.48,3.54,19.08,9.2l7.76,7.86c4.96,5.03,14.81,5.7,24.39,12.29l12.51,8.62c-4.01,1.61-6.73-2.14-10.36-2.56-13.71-1.58-27.74-.57-40.99,3.35-6.39,1.89-10.29,8.11-16.17,10.54l-19.63,8.11c-10.05,4.15-7.57,8.14-12.47,10.63-3.3,1.67-6.03,3.4-8.6,6.24,4.61,1.97,8.37.17,12.66.35l16.49.68c1.32.05,3.66,1.84,4.87,2.29,12.31,1.67,24.87,3.68,36.67-.08.48.14-.13,4.29-1.01,4.29l70.99.05c.88-3.82,4.4-5,6.91-7.25,4.35-3.91,3.79-11.3,1.97-16.56,3.6-.29,6,2.99,8.75,4.33l11.56,5.64c8.03,3.92,16.35,5.73,25.22,10.67l8.26,3.04c-.18.05-.36.09-.53.13h17.62c-3.87-.86-7.77-2.61-15.59-5.87ZM232.73,47.77l-3.01-4.57c-3.85-5.86-11.05-18.17-12.29-25.25,4.18,5.91,5.14,10.56,9.33,16.33,7.1,9.69,14.05,19.61,16.76,32.26-3.48-6.23-6.75-12.62-10.8-18.78ZM172.62,72.68c.5-.45,2.71-1.15,2.96-.55.25.6.46,1.6.66,2.6l11.46,6.4c-2.65.62-4.54.66-6.64.24-6.5-1.3-12.16-.28-19.13.99l10.7-9.68ZM104.98,89.55l-15.76.26c-3.9.06-7.11,1.12-10.21.39,15.23-4.61,28.1-2.29,44.41-4.67-5.84,2.54-11.95,3.27-18.44,4.02ZM147.79,107.07c13.73-3.57,25.42-11.19,39.91-13.09-2.14,2.14-5.22,1.96-7.8,3.06l-15.08,6.44c-5.42,2.31-11.11,3.57-17.03,3.59Z" fill="#80684b"/>
        </g>
        <g>
          <g>
            <path d="M306.93,104.53c-.51,0-1.83-.04-4.29-.14-4.62-.19-7.82-.28-9.53-.28-2.01,0-3.82.05-5.36.14-3.2.19-5.32.28-6.48.28-3.64,0-4.04-2.04-4.04-2.91,0-2.87,4.6-2.99,6.82-3.05.98,0,1.33-.12,1.42-.16l.16-.07.17-.03c.16-.03.24-.07.27-.08,0-.01,0-.06,0-.13,0-.15-.1-1.03-1.09-5.6l-1.97-9.16c-.35-1.93-1.06-5.28-2.18-10.23h-7.82c-.91-.03-1.78-.05-2.67-.05-1.46,0-2.98.04-4.54.12-.6,2.18-1.57,6.07-2.88,11.6l-2.06,9.14c-.29,1.29-.43,2.32-.43,3.05,0,1.1.4,1.46,1.05,1.68.07.01.81.14,4.27.49,1.96.2,2.66,1.52,2.66,2.69,0,1.3-.84,2.7-3.19,2.7h-16.73c-1.71,0-2.82-1.14-2.82-2.91,0-2.2,2.99-2.5,4.27-2.62,1.94-.15,3.22-.63,3.63-1.36.35-.61,1.23-2.92,3.23-11.44,1.21-4.8,2.95-11.81,5.17-20.87l11.37-46.93c.57-2.08,1.35-5.33,2.34-9.7.96-4.47,1.54-5.96,3.06-5.96,1.4,0,1.93.75,3.53,7.64,1.24,5.51,6.8,27.59,16.53,65.65,1.25,4.87,2.52,9.9,3.76,14.95,1.34,5.44,2.35,6.8,2.73,7.13.09.09.77.63,3.84.63.3,0,.61,0,.94-.01h0c1.64,0,2.67,1.09,2.67,2.77,0,2.03-1.24,2.62-1.77,2.78-.45.14-1.29.27-4.05.27ZM279.47,67c-.06-.25-.13-.52-.2-.82-2.56-11.07-4.35-18.57-5.47-22.95-.14-.58-.31-1.28-.5-2.09-.78,3.11-1.64,6.76-2.59,10.93-1.49,6.56-2.65,11.57-3.48,14.93h12.24Z" fill="#80684b"/>
            <path d="M278.74,4.23c.38,0,1.06,2.16,2.07,6.48,1.25,5.55,6.76,27.44,16.53,65.68,1.25,4.89,2.51,9.87,3.76,14.94,1.06,4.32,2.13,6.95,3.19,7.89.72.67,2.33,1,4.84,1,.32,0,.65,0,.99-.02.75,0,1.13.42,1.13,1.27,0,.75-.24,1.2-.7,1.34-.47.14-1.68.21-3.62.21-.5,0-1.91-.05-4.23-.14-4.64-.19-7.83-.28-9.58-.28-2.07,0-3.88.05-5.45.14-3.13.19-5.26.28-6.39.28-1.69,0-2.54-.47-2.54-1.41s1.79-1.46,5.36-1.55c.88,0,1.53-.09,1.97-.28,1-.19,1.5-.75,1.5-1.69,0-.47-.38-2.44-1.13-5.92l-1.97-9.16c-.38-2.07-1.19-5.87-2.44-11.42h-9.02c-.87-.03-1.76-.05-2.67-.05-1.83,0-3.72.06-5.69.19-.56,1.88-1.63,6.11-3.2,12.69l-2.07,9.16c-.31,1.41-.47,2.54-.47,3.38,0,1.6.69,2.63,2.07,3.1.31.09,1.85.28,4.6.56.88.09,1.32.49,1.32,1.2,0,.8-.56,1.2-1.69,1.2h-16.73c-.88,0-1.32-.47-1.32-1.41,0-.56.97-.94,2.91-1.13,2.5-.19,4.1-.89,4.79-2.11.69-1.22,1.82-5.17,3.38-11.84,1.19-4.7,2.91-11.65,5.17-20.86l11.37-46.94c.56-2.07,1.35-5.31,2.35-9.73.69-3.19,1.22-4.79,1.6-4.79M265.3,68.5h16.07c-.06-.28-.28-1.17-.65-2.68-2.52-10.89-4.34-18.55-5.48-22.96-.3-1.23-.72-3.02-1.26-5.39l-.63-2.5c-1.12,4.04-2.5,9.63-4.12,16.76-1.81,7.99-3.12,13.57-3.93,16.77M278.74,1.23c-2.99,0-3.67,3.16-4.53,7.16-.98,4.32-1.76,7.55-2.31,9.57v.04s-.02.04-.02.04l-11.37,46.94c-2.22,9.06-3.96,16.07-5.16,20.83v.03s-.01.03-.01.03c-2.09,8.9-2.88,10.71-3.07,11.05h0s-.48.45-2.4.6h-.03s-.03,0-.03,0c-1.39.14-5.62.55-5.62,4.12,0,2.6,1.78,4.41,4.32,4.41h16.73c3.24,0,4.69-2.11,4.69-4.2,0-1.88-1.24-3.91-4.02-4.19-2.55-.26-3.56-.39-3.96-.45,0-.06-.01-.13-.01-.23,0-.43.07-1.25.4-2.73l2.07-9.15c1.11-4.68,1.98-8.19,2.58-10.46,1.15-.05,2.28-.07,3.38-.07.87,0,1.73.01,2.57.04h.05s.05,0,.05,0h6.62c.95,4.24,1.58,7.25,1.89,8.95v.05s.02.05.02.05l1.97,9.16c.47,2.16.73,3.46.88,4.25-.09,0-.18,0-.29,0h-.08c-2.48.07-8.28.22-8.28,4.55,0,.74.27,4.41,5.54,4.41,1.19,0,3.34-.09,6.57-.29,1.52-.09,3.29-.14,5.27-.14,1.68,0,4.87.09,9.46.28,2.52.1,3.82.14,4.35.14,2.78,0,3.8-.13,4.48-.34.67-.2,2.85-1.1,2.85-4.22,0-2.51-1.7-4.27-4.13-4.27h-.09c-.31.01-.61.02-.9.02-1.91,0-2.67-.22-2.89-.3-.2-.25-1.05-1.53-2.22-6.31-1.25-5.07-2.52-10.11-3.77-14.97-9.72-38.05-15.28-60.12-16.51-65.6-1.36-5.88-2.05-8.82-5-8.82h0ZM269.13,65.5c.78-3.26,1.8-7.64,3.03-13.1.39-1.73.77-3.37,1.14-4.92,1.06,4.33,2.49,10.36,4.26,18.02h-8.43Z" fill="#004b41"/>
          </g>
          <g>
            <path d="M370.64,104.53c-.51,0-1.83-.04-4.29-.14-4.62-.19-7.82-.28-9.53-.28-2.01,0-3.82.05-5.36.14-3.2.19-5.32.28-6.48.28-3.64,0-4.04-2.04-4.04-2.91,0-2.87,4.6-2.99,6.82-3.05.98,0,1.33-.12,1.42-.16l.15-.07.17-.03c.16-.03.24-.07.27-.08,0-.01,0-.06,0-.13,0-.15-.1-1.03-1.09-5.6l-1.97-9.16c-.35-1.93-1.08-5.35-2.18-10.23h-7.82c-.91-.03-1.78-.05-2.67-.05-1.46,0-2.98.04-4.54.12-.6,2.19-1.57,6.08-2.88,11.6l-2.06,9.14c-.29,1.29-.43,2.32-.43,3.05,0,1.1.4,1.46,1.05,1.68.07.01.81.14,4.27.49,1.96.2,2.66,1.52,2.66,2.69,0,1.3-.84,2.7-3.19,2.7h-16.73c-1.71,0-2.82-1.14-2.82-2.91,0-2.2,2.99-2.5,4.27-2.62,1.94-.15,3.22-.63,3.63-1.36.35-.61,1.23-2.92,3.23-11.44,1.21-4.8,2.95-11.81,5.17-20.87l11.37-46.93c.57-2.08,1.35-5.33,2.34-9.7.96-4.47,1.54-5.96,3.06-5.96,1.4,0,1.93.75,3.53,7.65,1.24,5.51,6.8,27.59,16.53,65.65,1.25,4.87,2.52,9.9,3.76,14.95,1.34,5.44,2.35,6.8,2.73,7.13.09.09.77.63,3.84.63.3,0,.61,0,.94-.01h0c1.64,0,2.67,1.09,2.67,2.77,0,2.02-1.24,2.62-1.77,2.78-.45.14-1.29.27-4.05.27ZM343.17,67c-.06-.25-.13-.52-.2-.82-2.56-11.07-4.35-18.57-5.47-22.95-.14-.58-.31-1.28-.5-2.09-.78,3.11-1.64,6.76-2.59,10.93-1.48,6.54-2.65,11.55-3.47,14.93h12.24Z" fill="#80684b"/>
            <path d="M342.45,4.23c.38,0,1.06,2.16,2.07,6.48,1.25,5.55,6.76,27.44,16.53,65.68,1.25,4.89,2.51,9.87,3.76,14.94,1.06,4.32,2.13,6.95,3.19,7.89.72.67,2.33,1,4.84,1,.32,0,.65,0,.99-.02.75,0,1.13.42,1.13,1.27,0,.75-.24,1.2-.7,1.34-.47.14-1.68.21-3.62.21-.5,0-1.91-.05-4.23-.14-4.64-.19-7.83-.28-9.58-.28-2.07,0-3.89.05-5.45.14-3.13.19-5.26.28-6.39.28-1.69,0-2.54-.47-2.54-1.41s1.79-1.46,5.36-1.55c.88,0,1.53-.09,1.97-.28,1-.19,1.5-.75,1.5-1.69,0-.47-.38-2.44-1.13-5.92l-1.97-9.16c-.38-2.07-1.19-5.87-2.44-11.42h-9.02c-.87-.03-1.76-.05-2.67-.05-1.83,0-3.72.06-5.69.19-.56,1.88-1.63,6.11-3.2,12.69l-2.07,9.16c-.31,1.41-.47,2.54-.47,3.38,0,1.6.69,2.63,2.07,3.1.31.09,1.85.28,4.6.56.88.09,1.32.49,1.32,1.2,0,.8-.56,1.2-1.69,1.2h-16.73c-.88,0-1.32-.47-1.32-1.41,0-.56.97-.94,2.91-1.13,2.5-.19,4.1-.89,4.79-2.11.69-1.22,1.82-5.17,3.38-11.84,1.19-4.7,2.91-11.65,5.17-20.86l11.37-46.94c.56-2.07,1.35-5.31,2.35-9.73.69-3.19,1.22-4.79,1.6-4.79M329.01,68.5h16.07c-.06-.28-.28-1.17-.65-2.68-2.52-10.89-4.34-18.55-5.48-22.96-.3-1.23-.72-3.02-1.26-5.39l-.63-2.5c-1.12,4.04-2.5,9.63-4.12,16.76-1.81,7.99-3.12,13.57-3.93,16.77M342.45,1.23c-2.99,0-3.67,3.16-4.53,7.16-.98,4.33-1.76,7.56-2.31,9.57v.04s-.02.04-.02.04l-11.37,46.94c-2.22,9.06-3.96,16.07-5.16,20.83v.03s-.01.03-.01.03c-2.09,8.9-2.88,10.71-3.07,11.05h0s-.48.45-2.4.6h-.03s-.03,0-.03,0c-1.39.14-5.62.55-5.62,4.12,0,2.6,1.78,4.41,4.32,4.41h16.73c3.24,0,4.69-2.11,4.69-4.2,0-1.88-1.24-3.91-4.02-4.19-2.55-.26-3.56-.39-3.96-.45,0-.06-.01-.13-.01-.23,0-.43.07-1.25.4-2.73l2.07-9.15c1.12-4.69,1.98-8.19,2.58-10.46,1.15-.05,2.28-.07,3.38-.07.87,0,1.73.01,2.57.04h.05s.05,0,.05,0h6.62c.95,4.25,1.58,7.25,1.89,8.95v.05s.02.05.02.05l1.97,9.16c.47,2.16.73,3.46.88,4.25-.09,0-.18,0-.29,0h-.08c-2.48.07-8.28.22-8.28,4.55,0,.74.27,4.41,5.54,4.41,1.19,0,3.34-.09,6.57-.29,1.52-.09,3.29-.14,5.27-.14,1.68,0,4.87.09,9.46.28,2.52.1,3.82.14,4.35.14,2.78,0,3.8-.13,4.48-.34.67-.2,2.85-1.1,2.85-4.22,0-2.51-1.7-4.27-4.13-4.27h-.09c-.31.01-.61.02-.9.02-1.91,0-2.67-.22-2.89-.3-.2-.25-1.05-1.53-2.22-6.31-1.26-5.08-2.52-10.12-3.77-14.97-9.72-38.06-15.28-60.13-16.51-65.6-1.36-5.88-2.05-8.82-5-8.82h0ZM332.84,65.5c.78-3.26,1.8-7.64,3.03-13.1.39-1.73.77-3.37,1.14-4.92,1.06,4.33,2.49,10.36,4.26,18.02h-8.43Z" fill="#004b41"/>
          </g>
          <g>
            <path d="M409.07,106.37c-8.7,0-16.42-4.87-22.95-14.47-6.78-9.98-10.22-22.69-10.22-37.77s3.09-26.98,9.2-36.8c6.25-10.06,14.21-15.16,23.69-15.16,4.48,0,8.55,1.55,12.07,4.59,2.34,1.99,3.12,2.03,3.15,2.03.95,0,1.83-1.08,2.4-1.98,1.15-1.85,1.76-2.67,2.77-2.67.31,0,1.88.12,1.88,2.49,0,.33-.03.79-.1,1.43-.37,3.14-.56,7.06-.56,11.68,0,.47.03,2.38.09,5.75v9.75c0,3.34-1.33,4.04-2.44,4.04-1.78,0-2.34-2-2.99-6.8-2.13-15.97-6.85-24.07-14.02-24.07-5.57,0-9.76,5.87-12.44,17.44-1.97,8.31-2.97,18.43-2.97,30.1,0,17.22,2.33,29.96,6.94,37.86,2.24,3.86,5.04,5.74,8.57,5.74,7.94,0,13.29-8.49,15.9-25.23.45-2.97,1.01-5.64,2.99-5.64.62,0,1.19.24,1.6.68.75.79.78,1.94.74,2.73l-.09,2.38c0,.26-.05,1.54-.47,8.91-.25,4.09-.37,7.28-.37,9.5,0,2.81.03,5.16.09,7,.06.63.09,1.48.09,2.45,0,2.52-1.07,3.05-1.97,3.05-1.49,0-2.15-1.65-2.43-2.35-1.06-2.6-2.04-4.13-2.84-5.03-4.71,5.55-9.85,8.37-15.31,8.37Z" fill="#80684b"/>
            <path d="M408.79,3.67c4.13,0,7.83,1.41,11.09,4.23,1.88,1.6,3.26,2.4,4.13,2.4,1.32,0,2.54-.89,3.66-2.68.81-1.31,1.32-1.97,1.5-1.97.25,0,.38.33.38.99,0,.28-.03.7-.09,1.27-.38,3.2-.56,7.14-.56,11.84,0,.47.03,2.4.09,5.78v9.73c0,1.69-.31,2.54-.94,2.54-.5,0-1-1.83-1.5-5.5-2.25-16.91-7.42-25.37-15.5-25.37-6.39,0-11.03,6.2-13.91,18.6-2.01,8.46-3.01,18.6-3.01,30.44,0,17.57,2.38,30.44,7.14,38.62,2.51,4.32,5.79,6.48,9.87,6.48,8.83,0,14.63-8.83,17.38-26.5.44-2.91.94-4.37,1.5-4.37.63,0,.91.61.85,1.83l-.09,2.4c0,.47-.16,3.43-.47,8.88-.25,4.14-.38,7.33-.38,9.58,0,2.82.03,5.17.09,7.05.06.66.09,1.46.09,2.4,0,1.03-.16,1.55-.47,1.55s-.66-.47-1.03-1.41c-1.38-3.38-2.85-5.59-4.42-6.62-4.7,6.01-9.74,9.02-15.13,9.02-8.21,0-15.44-4.6-21.71-13.81-6.64-9.77-9.96-22.08-9.96-36.93s2.99-26.38,8.97-36.01c5.98-9.63,13.45-14.45,22.41-14.45M408.79.66c-10.02,0-18.42,5.34-24.96,15.87-6.25,10.07-9.43,22.72-9.43,37.6s3.53,28.38,10.48,38.62c6.83,10.04,14.97,15.13,24.19,15.13,5.43,0,10.53-2.51,15.19-7.48.47.77,1,1.81,1.57,3.22.32.8,1.31,3.28,3.81,3.28.81,0,3.47-.33,3.47-4.55,0-.98-.03-1.84-.1-2.58-.06-1.82-.09-4.12-.09-6.86,0-2.19.12-5.35.37-9.4.4-6.9.47-8.51.47-8.99l.09-2.35c.03-.58.13-2.46-1.15-3.81-.7-.74-1.66-1.14-2.69-1.14-3.43,0-4.06,4.17-4.47,6.93-2.48,15.88-7.33,23.94-14.42,23.94-1.88,0-4.68-.52-7.27-4.99-4.47-7.68-6.74-20.16-6.74-37.11,0-11.55.98-21.56,2.93-29.75,2.51-10.82,6.21-16.3,10.99-16.3,6.3,0,10.51,7.66,12.53,22.76.57,4.17,1.11,8.1,4.48,8.1,1.19,0,3.94-.54,3.94-5.54v-9.78c-.08-4.37-.09-5.46-.09-5.72,0-4.56.18-8.42.54-11.49.08-.73.11-1.22.11-1.62,0-3.15-2.12-3.99-3.38-3.99-1.96,0-2.93,1.57-4.06,3.4-.5.79-.87,1.09-1.04,1.2-.31-.15-1.01-.56-2.26-1.63-3.79-3.28-8.18-4.94-13.03-4.94h0Z" fill="#004b41"/>
          </g>
        </g>
      </g>
      <g>
        <path d="M54,197.26c0,.61-.19.97-.57,1.08-.38.11-1.36.17-2.93.17-.41,0-1.55-.04-3.42-.11-3.75-.15-6.33-.23-7.75-.23-1.67,0-3.14.04-4.41.11-2.53.15-4.26.23-5.17.23-1.37,0-2.05-.38-2.05-1.14s1.44-1.18,4.33-1.25c.71,0,1.24-.07,1.6-.23.81-.15,1.22-.61,1.22-1.37,0-.38-.3-1.98-.91-4.79l-1.6-7.41c-.3-1.67-.96-4.75-1.98-9.24h-7.3c-2.13-.07-4.38-.04-6.77.11-.46,1.52-1.32,4.94-2.58,10.26l-1.67,7.41c-.25,1.14-.38,2.05-.38,2.74,0,1.29.56,2.13,1.67,2.51.25.08,1.49.23,3.72.46.71.07,1.06.4,1.06.97,0,.65-.46.97-1.37.97H3.22c-.71,0-1.06-.38-1.06-1.14,0-.46.78-.76,2.36-.91,2.03-.15,3.32-.72,3.88-1.71.56-.99,1.47-4.18,2.74-9.58.96-3.8,2.36-9.42,4.18-16.87l9.2-37.97c.46-1.67,1.09-4.29,1.9-7.87.56-2.58.99-3.88,1.29-3.88s.86,1.75,1.67,5.24c1.01,4.49,5.47,22.2,13.37,53.13,1.01,3.95,2.03,7.98,3.04,12.08.86,3.5,1.72,5.63,2.58,6.38.66.61,2.23.87,4.71.8.61,0,.91.34.91,1.03ZM29.83,170.58c-.05-.23-.23-.95-.53-2.17-2.04-8.81-3.51-15-4.43-18.57-.24-.99-.58-2.45-1.02-4.36l-.51-2.02c-.91,3.27-2.02,7.79-3.33,13.56-1.47,6.46-2.53,10.98-3.18,13.56h13Z" fill="#004b41"/>
        <path d="M75.05,197.66c0,.57-.96.86-2.88.86-.45,0-1.87-.08-4.24-.23-1.21-.07-2.4-.11-3.56-.11s-3.18.08-6.21.23l-2.27.11c-1.11.07-1.67-.19-1.67-.8s.58-.87,1.75-.8c1.77.08,2.8-.19,3.08-.8.28-.61.42-2.88.42-6.83v-59.99c0-2.58-.18-4.12-.54-4.61-.36-.49-1.41-.74-3.16-.74-1.29,0-1.93-.28-1.93-.85,0-.65.66-1.01,1.97-1.09,5.65-.3,10.26-1.6,13.84-3.88v68.41c0,5.17.09,8.19.27,9.06.18.87.8,1.27,1.86,1.2h2.28c.66,0,.99.28.99.86Z" fill="#004b41"/>
        <path d="M96.49,197.66c0,.57-.96.86-2.88.86-.46,0-1.87-.08-4.24-.23-1.21-.07-2.4-.11-3.56-.11s-3.18.08-6.21.23l-2.27.11c-1.11.07-1.67-.19-1.67-.8s.58-.87,1.75-.8c1.77.08,2.8-.19,3.08-.8.28-.61.42-2.88.42-6.83v-59.99c0-2.58-.18-4.12-.54-4.61-.36-.49-1.41-.74-3.16-.74-1.29,0-1.93-.28-1.93-.85,0-.65.66-1.01,1.97-1.09,5.65-.3,10.26-1.6,13.84-3.88v68.41c0,5.17.09,8.19.27,9.06.18.87.8,1.27,1.86,1.2h2.28c.66,0,.99.28.99.86Z" fill="#004b41"/>
        <path d="M131.6,192.37c0,.62-.41,1.47-1.22,2.55-2.18,3.01-4.86,4.51-8.06,4.51-2.08,0-3.59-.66-4.52-1.96s-1.56-3.66-1.86-7.04c-2.28,6.23-5.4,9.35-9.35,9.35-2.18,0-3.94-1.03-5.28-3.08-1.34-2.05-2.01-4.71-2.01-7.98,0-9.58,5.47-15.24,16.42-16.99v-2.39c0-7.6-.18-12.27-.53-14.02l-.08-.57c-.71-3.8-2.51-5.7-5.4-5.7-1.67,0-3.02.72-4.03,2.17-1.01,1.44-1.52,2.85-1.52,4.22,0,.76.61,1.22,1.82,1.37,1.82.23,2.74,1.9,2.74,5.02,0,1.67-.37,3.06-1.1,4.16-.73,1.1-1.69,1.65-2.85,1.65-1.47,0-2.67-.66-3.61-2-.94-1.33-1.41-3.02-1.41-5.07,0-3.27,1.09-6.23,3.27-8.89,2.18-2.66,5.04-3.99,8.59-3.99,5.27,0,8.94,1.41,11.02,4.22,1.67,2.36,2.51,6.46,2.51,12.31v19.5c0,3.8.02,6.01.08,6.61.25,3.19.99,4.79,2.2,4.79.86,0,1.93-.91,3.19-2.74.25-.38.46-.57.61-.57.25,0,.38.19.38.58ZM115.72,178.79v-5.59c-4.92,1.44-7.37,5.63-7.37,12.54,0,5.32,1.22,7.98,3.65,7.98,1.37,0,2.33-1.14,2.89-3.42.56-2.28.84-6.12.84-11.52Z" fill="#004b41"/>
        <path d="M191.12,197.94c0,.69-.38.95-1.14.8h-16.95c-.71,0-1.06-.23-1.06-.69,0-.38.59-.61,1.78-.69,1.5-.07,2.25-.76,2.25-2.07v-25.61c0-7.88-.18-12.63-.54-14.24-.51-2.22-1.79-3.33-3.83-3.33-1.89,0-3.37,1.22-4.44,3.67-.46.99-.71,2.1-.77,3.32-.1,1.45-.15,5.39-.15,11.8v21.77c0,2.29.14,3.63.42,4.01s1.23.57,2.85.57c.46,0,.68.19.68.57,0,.61-.28.92-.84.92-.51,0-.91-.04-1.22-.11l-14.75-.23c-.46,0-.68-.23-.68-.69s.61-.69,1.82-.69c.91,0,1.44-.19,1.6-.57l.15-1.14v-28c0-7.16-.28-11.49-.84-12.97-.56-1.49-1.7-2.23-3.42-2.23-2.08,0-3.62,1.3-4.64,3.9-.36.99-.57,2.01-.65,3.04-.08,1.03-.11,4.03-.11,8.99v22.69c0,3.52.14,5.44.42,5.79.28.34.98.51,2.09.51h1.14c.51,0,.76.21.76.63,0,.49-.23.74-.68.74h-5.02c-4.06.09-6.21.16-6.46.2-2.43.09-4.23.14-5.4.14h-1.06c-.66,0-.99-.3-.99-.91,0-.53.23-.8.68-.8l1.75.46c.86.08,1.57-.23,2.13-.92.4-.53.61-2.14.61-4.81v-18.91c0-10.62-.1-16.31-.3-17.08-.41-.69-1.98-1.03-4.71-1.03-.71,0-1.06-.27-1.06-.8,0-.61.33-.91.99-.91,5.07-.15,9.58-1.82,13.53-5.02.46-.38.78-.57.99-.57.25,0,.38.3.38.91,0,1.14-.03,2.09-.08,2.85v4.79c2.33-5.7,5.77-8.55,10.32-8.55,5.11,0,8.12,3.12,9.03,9.35,1.16-3.35,2.58-5.75,4.25-7.19,1.67-1.44,3.87-2.16,6.6-2.16,6.42,0,9.63,5.34,9.63,16.03v28.17c0,2.44.06,3.93.19,4.47.13.53.54.84,1.25.92,1.01.15,1.92.23,2.74.23.51,0,.76.23.76.69Z" fill="#004b41"/>
        <path d="M226.31,192.37c0,.62-.41,1.47-1.22,2.55-2.18,3.01-4.86,4.51-8.06,4.51-2.08,0-3.59-.66-4.52-1.96-.94-1.31-1.56-3.66-1.86-7.04-2.28,6.23-5.4,9.35-9.35,9.35-2.18,0-3.94-1.03-5.28-3.08-1.34-2.05-2.01-4.71-2.01-7.98,0-9.58,5.47-15.24,16.42-16.99v-2.39c0-7.6-.18-12.27-.53-14.02l-.08-.57c-.71-3.8-2.51-5.7-5.4-5.7-1.67,0-3.02.72-4.03,2.17-1.01,1.44-1.52,2.85-1.52,4.22,0,.76.61,1.22,1.82,1.37,1.82.23,2.74,1.9,2.74,5.02,0,1.67-.37,3.06-1.1,4.16-.73,1.1-1.69,1.65-2.85,1.65-1.47,0-2.67-.66-3.61-2-.94-1.33-1.41-3.02-1.41-5.07,0-3.27,1.09-6.23,3.27-8.89,2.18-2.66,5.04-3.99,8.59-3.99,5.27,0,8.94,1.41,11.02,4.22,1.67,2.36,2.51,6.46,2.51,12.31v19.5c0,3.8.02,6.01.08,6.61.25,3.19.99,4.79,2.2,4.79.86,0,1.93-.91,3.19-2.74.25-.38.46-.57.61-.57.25,0,.38.19.38.58ZM210.42,178.79v-5.59c-4.92,1.44-7.37,5.63-7.37,12.54,0,5.32,1.22,7.98,3.65,7.98,1.37,0,2.33-1.14,2.89-3.42.56-2.28.84-6.12.84-11.52Z" fill="#004b41"/>
        <path d="M266.21,197.72c0,.61-.63.91-1.9.91h-16.27c-.71,0-1.06-.28-1.06-.85,0-.5.3-.74.9-.74h.6c1.29,0,2.05-.25,2.28-.75.22-.5.34-2.2.34-5.1v-22.12c0-8.17-.35-13.06-1.05-14.67-.6-1.38-1.67-2.06-3.22-2.06s-2.82.72-3.82,2.16c-1,1.44-1.5,3.26-1.5,5.46v34.46c.1.91.32,1.5.65,1.76.33.27,1.15.44,2.47.51.4,0,.61.23.61.68s-.18.72-.53.8c-.36.07-1.62.11-3.8.11s-3.98.04-5.4.11c-2.79.15-5.62.23-8.51.23-.61,0-.91-.27-.91-.8,0-.61.77-.91,2.32-.91s2.44-.45,2.7-1.36l.23-1.59v-26.16c0-7.35-.05-11.18-.15-11.49-.15-1.14-.84-1.71-2.05-1.71h-2.58c-.81,0-1.22-.25-1.22-.74s.3-.78.91-.85c5.65-.38,10.16-2.17,13.54-5.36.4-.3.68-.46.83-.46.4,0,.61.61.61,1.82v6.5c2.69-5.24,6.13-7.87,10.34-7.87s7.2,2.28,8.51,6.84c.56,1.9.9,4.03,1.03,6.38.13,2.36.19,7.22.19,14.59v16.53c0,2.36.13,3.74.38,4.16.25.42,1.08.63,2.47.63s2.09.3,2.09.91Z" fill="#004b41"/>
        <path d="M329.68,197.26c0,.61-.19.97-.57,1.08-.38.11-1.36.17-2.93.17-.41,0-1.55-.04-3.42-.11-3.75-.15-6.33-.23-7.75-.23-1.67,0-3.14.04-4.41.11-2.53.15-4.26.23-5.17.23-1.37,0-2.05-.38-2.05-1.14s1.44-1.18,4.33-1.25c.71,0,1.24-.07,1.6-.23.81-.15,1.22-.61,1.22-1.37,0-.38-.3-1.98-.91-4.79l-1.6-7.41c-.3-1.67-.96-4.75-1.98-9.24h-7.3c-2.13-.07-4.38-.04-6.77.11-.46,1.52-1.32,4.94-2.58,10.26l-1.67,7.41c-.25,1.14-.38,2.05-.38,2.74,0,1.29.56,2.13,1.67,2.51.25.08,1.49.23,3.72.46.71.07,1.06.4,1.06.97,0,.65-.46.97-1.37.97h-13.53c-.71,0-1.06-.38-1.06-1.14,0-.46.78-.76,2.36-.91,2.03-.15,3.32-.72,3.88-1.71.56-.99,1.47-4.18,2.74-9.58.96-3.8,2.36-9.42,4.18-16.87l9.2-37.97c.46-1.67,1.09-4.29,1.9-7.87.56-2.58.99-3.88,1.29-3.88s.86,1.75,1.67,5.24c1.01,4.49,5.47,22.2,13.37,53.13,1.01,3.95,2.03,7.98,3.04,12.08.86,3.5,1.72,5.63,2.58,6.38.66.61,2.23.87,4.71.8.61,0,.91.34.91,1.03ZM305.51,170.58c-.05-.23-.23-.95-.53-2.17-2.04-8.81-3.51-15-4.43-18.57-.24-.99-.58-2.45-1.02-4.36l-.51-2.02c-.91,3.27-2.02,7.79-3.33,13.56-1.47,6.46-2.53,10.98-3.18,13.56h13Z" fill="#80684b"/>
        <path d="M355.45,191.11c0,.84-.49,1.94-1.46,3.31-2.5,3.57-5.95,5.36-10.34,5.36-4.03,0-6.69-1.48-7.96-4.45-.51-1.14-.81-2.2-.88-3.19-.08-.99-.11-3.53-.11-7.64v-5.47c.1-1.44.15-2.96.15-4.56l-.15-2.39v-18.47c0-1.37-.13-2.17-.38-2.39-.25-.23-1.01-.34-2.28-.34-1.52,0-2.28-.3-2.28-.91,0-.46.28-.76.84-.91,4.76-.23,8.87-4.1,12.31-11.63.46-1.06.81-1.6,1.06-1.6.3,0,.46.53.46,1.6-.05,6.54.13,10.11.53,10.72.41.61,1.65.91,3.72.91s3.62-.15,4.48-.46c.1-.07.2-.11.3-.11.2,0,.3.24.3.72,0,1.11-.33,1.67-.98,1.67-2.06.08-4.35.12-6.86.12h-1.05v2.38c0,20.27.1,32.14.3,35.62.46,4.39,1.9,6.58,4.32,6.58,1.08,0,2.47-1.14,4.17-3.42.82-1.06,1.34-1.6,1.54-1.6.15,0,.23.19.23.57Z" fill="#80684b"/>
        <path d="M393.68,198.06c0,.46-.23.68-.68.68.05,0-.46,0-1.52,0h-4.56c-4.36,0-7.04-.11-8.06-.34h-1.22l-1.82.34c-.66.07-.99-.21-.99-.86,0-.49.13-.74.38-.74h1.75c1.11.08,1.75-.38,1.9-1.37.1-.61.15-4.41.15-11.4v-16.99c0-7.07-.23-11.25-.68-12.54-.65-1.98-1.91-2.96-3.77-2.96-1.96,0-3.47,1.34-4.52,4.01-.5,1.3-.75,4.09-.75,8.36v31.28c-.05,1.15.99,1.72,3.13,1.72.45,0,.67.23.67.69,0,.53-.33.8-.99.8h-.61c-.41-.23-1.01-.34-1.82-.34h-3.35l-4.26.11-4.48.23h-2.28c-.76,0-1.14-.23-1.14-.68,0-.23.05-.38.15-.46.1-.07.33-.11.68-.11,1.93,0,3.06-.11,3.42-.34.35-.23.58-1.1.68-2.62.05-.91.08-5.47.08-13.68v-41.84c0-8.21-.11-12.94-.34-14.19-.23-1.25-1.31-1.88-3.23-1.88-1.47,0-2.2-.23-2.2-.68s.86-.76,2.57-.91c3.88-.38,7.54-1.37,10.97-2.96.66-.3,1.13-.46,1.44-.46.4,0,.61,2.13.61,6.38v31.47c1.47-3.12,2.9-5.24,4.3-6.38,1.39-1.14,3.28-1.71,5.66-1.71,5.02,0,8.16,3.04,9.43,9.12.46,1.98.68,5.17.68,9.58v26.57c0,1.98.22,3.19.65,3.65.43.46,1.51.68,3.23.68.51,0,.76.27.76.8Z" fill="#80684b"/>
        <path d="M415.49,197.66c0,.57-.96.86-2.88.86-.46,0-1.87-.08-4.24-.23-1.21-.07-2.4-.11-3.56-.11s-3.18.08-6.21.23l-2.27.11c-1.11.07-1.67-.19-1.67-.8s.58-.87,1.75-.8c1.77.08,2.8-.19,3.08-.8.28-.61.42-2.88.42-6.83v-59.99c0-2.58-.18-4.12-.54-4.61s-1.41-.74-3.16-.74c-1.29,0-1.93-.28-1.93-.85,0-.65.66-1.01,1.97-1.09,5.65-.3,10.26-1.6,13.84-3.88v68.41c0,5.17.09,8.19.27,9.06.18.87.8,1.27,1.86,1.2h2.28c.66,0,.99.28.99.86Z" fill="#80684b"/>
        <path d="M447.8,184.49c0,1.67-.66,3.88-1.98,6.61-2.84,5.85-6.54,8.78-11.1,8.78-5.12,0-9.32-2.43-12.62-7.3-3.29-4.86-4.94-11.1-4.94-18.7s1.6-13.66,4.79-18.64c3.19-4.98,7.17-7.47,11.93-7.47,3.24,0,6,1.07,8.29,3.19,2.53,2.36,4.18,5.74,4.94,10.15.2,1.37.35,3,.46,4.9-1.17.2-5.85.36-14.06.46-1.27,0-2.86.08-4.79.23-.15,2.73-.23,5.03-.23,6.93,0,8.86,1.24,15.14,3.72,18.85,1.47,2.2,3.27,3.29,5.4,3.29,1.77,0,3.48-.91,5.13-2.74,1.65-1.82,2.9-4.18,3.76-7.07.41-1.44.73-2.17.99-2.17.2,0,.3.23.3.68ZM438.22,164.54c.05-5.81-.23-9.85-.84-12.11-.61-2.26-1.67-3.4-3.19-3.4-3.09,0-4.86,5.17-5.32,15.51h9.35Z" fill="#80684b"/>
        <path d="M475.08,191.11c0,.84-.49,1.94-1.46,3.31-2.5,3.57-5.95,5.36-10.34,5.36-4.03,0-6.69-1.48-7.96-4.45-.51-1.14-.81-2.2-.88-3.19-.08-.99-.11-3.53-.11-7.64v-5.47c.1-1.44.15-2.96.15-4.56l-.15-2.39v-18.47c0-1.37-.13-2.17-.38-2.39-.25-.23-1.01-.34-2.28-.34-1.52,0-2.28-.3-2.28-.91,0-.46.28-.76.84-.91,4.76-.23,8.87-4.1,12.31-11.63.46-1.06.81-1.6,1.06-1.6.3,0,.46.53.46,1.6-.05,6.54.13,10.11.53,10.72.41.61,1.65.91,3.72.91s3.62-.15,4.48-.46c.1-.07.2-.11.3-.11.2,0,.3.24.3.72,0,1.11-.33,1.67-.98,1.67-2.06.08-4.35.12-6.86.12h-1.05v2.38c0,20.27.1,32.14.3,35.62.46,4.39,1.9,6.58,4.32,6.58,1.08,0,2.47-1.14,4.17-3.42.82-1.06,1.34-1.6,1.54-1.6.15,0,.23.19.23.57Z" fill="#80684b"/>
        <path d="M494.84,197.72c0,.53-.23.8-.68.8h-19.16c-.61,0-.91-.24-.91-.73,0-.36.58-.58,1.75-.64,1.72-.07,2.74-.36,3.04-.86.3-.5.46-2.01.46-4.53v-32.89c0-2.9-.17-4.64-.49-5.21-.33-.57-1.33-.86-3-.86-1.06,0-1.69-.04-1.86-.11-.18-.07-.27-.34-.27-.8,0-.53.38-.8,1.14-.8,5.57-.07,10.34-1.37,14.29-3.88.1.91.23,3.42.38,7.53v35.91c0,3.12.19,4.94.57,5.47.38.53,1.68.8,3.91.8.56,0,.84.27.84.8ZM489.52,125.44c0,2.13-.49,3.95-1.48,5.47-.99,1.52-2.18,2.28-3.58,2.28s-2.67-.72-3.65-2.17c-.99-1.44-1.48-3.27-1.48-5.47s.49-3.88,1.48-5.24c.98-1.37,2.25-2.05,3.81-2.05,1.4,0,2.56.68,3.5,2.05.93,1.37,1.4,3.08,1.4,5.13Z" fill="#80684b"/>
        <path d="M525.78,159.41c0,1.82-.35,3.31-1.06,4.45-.71,1.14-1.62,1.71-2.74,1.71-2.69,0-4.03-1.78-4.03-5.36,0-.91.16-2,.49-3.25.33-1.25.49-2.15.49-2.68,0-1.44-.37-2.68-1.1-3.71-.74-1.03-1.63-1.54-2.7-1.54-4.61,0-6.92,7.72-6.92,23.14,0,8.82,1.01,15.13,3.04,18.93,1.57,2.89,3.5,4.33,5.78,4.33s4.81-2.32,7.3-6.95c.3-.61.58-.91.84-.91.2,0,.3.23.3.68,0,1.44-.91,3.46-2.74,6.04-2.64,3.73-5.8,5.59-9.5,5.59-4.56,0-8.45-2.45-11.67-7.35-3.22-4.9-4.83-10.85-4.83-17.84,0-7.6,1.7-14,5.09-19.21,3.39-5.21,7.58-7.81,12.54-7.81,3.19,0,5.89,1.14,8.09,3.42,2.2,2.28,3.31,5.06,3.31,8.32Z" fill="#80684b"/>
        <path d="M583.09,173.43l-.08,1.94c0,.38-.13,2.78-.38,7.18-.2,3.35-.3,5.93-.3,7.75,0,2.28.02,4.18.08,5.7.05.53.08,1.18.08,1.94,0,.84-.13,1.25-.38,1.25s-.53-.38-.84-1.14c-1.12-2.74-2.31-4.52-3.57-5.36-3.8,4.87-7.88,7.3-12.24,7.3-6.64,0-12.49-3.72-17.56-11.17-5.37-7.9-8.06-17.86-8.06-29.87s2.42-21.34,7.26-29.13c4.84-7.79,10.88-11.69,18.13-11.69,3.34,0,6.33,1.14,8.97,3.42,1.52,1.29,2.63,1.94,3.34,1.94,1.06,0,2.05-.72,2.96-2.17.66-1.06,1.06-1.6,1.22-1.6.2,0,.3.27.3.8,0,.23-.03.57-.08,1.03-.3,2.58-.46,5.78-.46,9.58,0,.38.02,1.94.08,4.67v7.87c0,1.37-.25,2.05-.76,2.05-.41,0-.81-1.48-1.22-4.45-1.82-13.68-6-20.52-12.54-20.52-5.17,0-8.92,5.02-11.25,15.05-1.62,6.84-2.43,15.05-2.43,24.63,0,14.21,1.93,24.63,5.78,31.24,2.03,3.5,4.69,5.24,7.98,5.24,7.14,0,11.83-7.14,14.06-21.43.35-2.36.76-3.53,1.22-3.53.51,0,.73.5.68,1.48Z" fill="#80684b"/>
        <path d="M607.26,197.66c0,.57-.96.86-2.88.86-.45,0-1.87-.08-4.24-.23-1.21-.07-2.4-.11-3.56-.11s-3.18.08-6.21.23l-2.27.11c-1.11.07-1.67-.19-1.67-.8s.58-.87,1.75-.8c1.77.08,2.8-.19,3.08-.8.28-.61.42-2.88.42-6.83v-59.99c0-2.58-.18-4.12-.54-4.61-.36-.49-1.41-.74-3.16-.74-1.29,0-1.93-.28-1.93-.85,0-.65.66-1.01,1.97-1.09,5.65-.3,10.26-1.6,13.84-3.88v68.41c0,5.17.09,8.19.27,9.06.18.87.8,1.27,1.86,1.2h2.28c.66,0,.99.28.99.86Z" fill="#80684b"/>
        <path d="M649.37,194.76c0,.61-.43.95-1.29,1.03-4.61.23-7.8.59-9.58,1.08-1.77.5-3.29,1.39-4.56,2.68-.3.3-.58.46-.84.46-.2,0-.3-.3-.3-.91v-4.9c0-.68-.03-1.29-.08-1.82-3.17,5.09-6.61,7.64-10.34,7.64-3.32,0-5.93-1.6-7.85-4.8-1.21-1.98-1.81-5.64-1.81-10.97v-29.71c0-1.67-.16-2.7-.49-3.09-.33-.38-1.24-.61-2.73-.69-1.3-.07-1.95-.38-1.95-.91,0-.61.35-.91,1.06-.91h.84c.76,0,1.91.06,3.46.17,1.54.11,2.6.17,3.15.17.1,0,.62-.06,1.56-.17.94-.11,2.32-.17,4.14-.17h1.44v12.37c0,5.88-.05,10.2-.15,12.95-.1,2.75-.15,3.93-.15,3.55,0,8.02.34,13.02,1.03,15.01.68,1.99,1.76,2.98,3.23,2.98,1.67,0,3.24-1.41,4.71-4.23.46-.84.72-1.7.8-2.57.08-.88.11-3.03.11-6.46v-19.66c0-5.56-.05-8.91-.15-10.06-.1-1.45-.72-2.17-1.87-2.17h-2.1c-.7,0-1.05-.3-1.05-.91,0-.46,1.36-.68,4.08-.68,2.37,0,6.13-.04,11.27-.11v37.05c0,3.57.05,5.68.15,6.33.1.65.48,1.08,1.14,1.31.46.15,1.82.23,4.11.23.66,0,.99.3.99.91Z" fill="#80684b"/>
        <path d="M686.16,172.29c0,9.58-2.53,16.99-7.6,22.23-3.5,3.57-7.14,5.36-10.95,5.36-1.42,0-3.47-.68-6.16-2.05-1.42-.76-2.51-1.14-3.27-1.14-1.37,0-2.76.76-4.18,2.28-.3.3-.53.46-.68.46-.36,0-.56-.23-.61-.68-.05-.46-.08-1.82-.08-4.1v-66.93c0-1.98-.24-3.27-.71-3.88-.48-.61-1.51-.91-3.11-.91-1.35,0-2.03-.27-2.03-.8s.31-.8.93-.8c5.76,0,10.77-.95,15.03-2.85l.08,1.82v33.63c2.02-4.18,4.82-6.27,8.41-6.27,4.34,0,7.92,2.3,10.72,6.9,2.8,4.6,4.2,10.51,4.2,17.73ZM674.83,172.75c0-14.75-2.05-22.12-6.16-22.12-2.28,0-3.95,1.6-5.02,4.79-.41,1.22-.65,2.64-.72,4.28-.08,1.64-.11,6.29-.11,13.97v6.95c0,7.15.32,11.88.95,14.19.63,2.32,1.91,3.48,3.84,3.48,2.63,0,4.5-1.94,5.59-5.82,1.09-3.88,1.63-10.45,1.63-19.72Z" fill="#80684b"/>
      </g>
    </g>
  </g>
</svg>