<?xml version="1.0" encoding="UTF-8"?>
<svg id="Layer_2" data-name="Layer 2" xmlns="http://www.w3.org/2000/svg" viewBox="0 0 1331.55 240">
  <g id="Layer_1-2" data-name="Layer 1">
    <g>
      <path d="M131.11,98.73c.91,2,2.63,5.75,1.17,8.45-.84,1.55-7.73.73-8.76.66-1.39-.1-2.82.09-4.22.05-2.7-.07-24.61.63-27.31.55-5.89-.17-7.59-.39-9.52-5.34-1.92-4.93-2.39-4.06-4.33-8.97-1.39-3.49-3.13-10.39-5.7-11.61-1.68-.8-3.67.08-5.39.38-1.56.28-3.13-.03-4.68-.02-3.68.02-8.82.71-12.49.65-4.14-.07-9.23-.48-13.38-.2-2.52.17-6.62-.62-8.92,1.55-2.35,2.22-4.18,6.42-5.5,10.21-1.62,4.63-2.21,6.29-3.86,10.77-.67,1.81-.72,2.01-2.11,2.29-1.38.28-2.89.05-4.25-.14-1.74-.24-12.19.98-11.83-3.08.17-1.98,1.89-4.51,2.63-6.09.97-2.06,1.81-4.19,2.64-6.41,3.32-8.93,7.08-17.42,10.6-26.15,3.5-8.67,6.46-18,9.91-26.64,3.08-7.72,6.36-15.24,9.36-22.99,1.28-3.31,2.86-10.9,5.08-12.25,2.08-1.26,10.8-.47,12.96-.49,3.55-.03,6.36,1.14,9.82.24,3.18-.83,20.57.17,23.51-.23,6.91-.93,8,4.85,8.51,6.21,6.33,16.96,13.27,33.17,19.28,50.46,3.11,8.93,7.43,16.41,10.82,25.03,1.81,4.62,4,8.7,5.98,13.1h0ZM59.24,66.45c2-.72,8.87,1.6,7.19-4.25-1.38-4.82-3.63-9.55-5.38-13.99-2.31-5.86-5.58-15.26-7.92-21.09-.74-1.85-1.37-4.4-2.79-2.72-1.26,1.48-2.31,5.76-3.23,7.95-2.38,5.71-4.64,11.64-6.72,17.67-.95,2.75-6.36,14.18-4.03,16.05,1.14.92,3.25-.13,4.54-.08,1.98.08,3.94-.05,5.94-.25,1.92-.19,4.8-.25,6.71-.05,1.39.14,4.29,1.26,5.7.76h0Z" fill="#ed8453"/>
      <path d="M222.76,18.86c1.58,3.48,2.79,5.38-2.21,5.03-4.22-.29-8.4-.53-12.62-.7-2.58-.1-7.6-.98-9.02,1.63-.72,1.33-.2,4.06-.29,5.46-.13,2.01-.45,4.01-.58,6.02-.64,10.18.71,10.18-.13,20.65-.57,7.04-.52,10.51-.58,17.58-.04,5.15-.29,14.51-.48,19.63-.13,3.39.57,8.37-.04,11.64-.59,3.21-1.71,3.04-5.75,2.89-3.37-.13-7.24.27-10.62.16-4.26-.15-8.03-.77-12.24-.47-2.12.15-6.84.67-10.97.75-2.96.06-5.71.06-6.6-1.21-1.67-2.41-.81-8.7-.75-11.54.07-2.94.11-5.86.13-8.8.02-5.25.13-10.5.2-15.75.18-12.88.55-25.72-.08-38.62-.13-2.66.69-7.15-2.15-8-2.89-.87-7.16-.06-10.18.06-3.9.16-7.63.92-11.49,1.34-2.46.27-5.14,1.14-5.24-1.85-.11-3.19,2.32-7.55,3.27-10.52.8-2.49,1.27-5.55,2.73-7.75,3.06-4.61,13.76-2.69,18.79-2.87,14.73-.53,29.39,1.49,44.1,0,6.97-.71,15.1-1.16,22.05-.27,4.37.56,5.24,2.22,6.86,6.18,1.28,3.12,2.48,6.25,3.88,9.33h0Z" fill="#ed8453"/>
      <path d="M349.12,101.74c.1,1.74.87,4.07-.95,5.16-1.09.65-4.19.38-5.45.46-1.09.07-2.76.11-4.74.11-3.77,0-7.14.29-11.34.19-3.21-.07-8.22-.11-9.81-.13-5.37-.08-3.56-3.64-3.56-13.16,0-2.57-.36-9.47.01-14.05.51-6.18-.44-8.92-.44-10.46,0-5.32-3.18-3.73-15.47-3.58-13.49.16-18.51-1.74-18.17,3.48.17,2.63-.93,16.86.12,26.66.31,2.92,1.07,5.38.51,8.31-.5,2.6-1.53,2.47-4.25,2.53-5.04.12-10.06-.3-15.12-.12-5.24.18-10.46-.18-15.72.02-2.78.11-6.16.19-8.83-.84-2.26-.87-2.35-1.46-2.27-3.95.18-5.38-.39-11.1-.88-16.3-.41-4.32.13-11.07,0-14.77-.41-11.82-.36-20.86-.42-33.14-.03-5.22-.64-10.42-.72-15.63-.07-4.7.51-9.41.24-14.12-.1-1.74-.87-4.07.95-5.16,1.09-.65,3.66-.59,4.92-.67,4.78-.32,9.43.43,14.2.5,3.28.05,11.65-.95,18.14-.87,6.45.07,7.63,1.34,7.7,4.31.11,4.63-.39,7.66-.23,12.31.18,5.14.77,10.29.81,15.44.13,15.22-.4,13.1,16.15,13.06,13.86-.04,17.7,1.63,17.96-2.69.19-3.23-.36-6.2.04-9.71.33-2.9-.56-5.42-.48-8.76.1-4.16-.49-8.3-.44-12.46.12-10.32,1.83-10.33,4.55-10.4,5.04-.12,8.95-.19,14.21-.39,2.78-.11,12.12-.76,14.79.28,2.26.87,2.55,2.3,2.46,4.79-.2,6.03.35,14.73-.15,22.35-.5,7.8.21,15.87.35,22.71.21,9.68.42,16.93.42,17.64.03,5.22.64,11.42.72,16.63.07,4.7-.08,9.73.2,14.44h0Z" fill="#ed8453"/>
      <path d="M459.13,85.26c2.89.54-2.72,15.09-3.55,16.67-1.38,2.64-1.84,4.76-5,5.26-8.19,1.31-17.01-.69-25.26-.18-8.86.55-9.42.32-18.27.77-8.42.43-16.53,1.39-24.94.55-7.52-.75-2.61.65-10.12.24-1.07-.06-2.42-.27-3.48-.45-1.45-.24-1.84-2.03-1.84-2.03-.35-1.42-.14-3.17-.24-4.64-.26-3.97-.09-8-.53-11.96-1.71-15.38-.56-30.92-1.61-46.35-.42-6.17.17-12.26-.16-18.4-.2-3.73.51-7.52.27-11.29-.17-2.69-1.69-5.15-1.01-7.79.85-3.27,5.24-2.63,8.17-2.43,6.13-.3,12.67-.92,18.63-.06,3.55.51,7.2.6,10.79.53,1.97-.03,7.4-1.26,9.2-.14,1.7,1.06.69,4.48.8,6.25.23,3.59.2,7.24.63,10.83,1.58,13.27,0,26.88,1.3,40.24.7,7.2.84,8.89,1.17,16.1.12,2.61-1.27,8.4,1.54,9.75,2.31,1.11,6.82.15,9.35.11,7.1-.1,6.06.15,13.11-.34,3.82-.27,7.66.04,11.48-.19,3.13-.18,6.42-1.65,9.56-1.07h0Z" fill="#ed8453"/>
      <path d="M556.51,98.23c-.03,1.95.52,7.39-.43,8.97-1.32,2.2-4.19,1.02-6.24.9-3.25-.18-6.44.45-9.69.52-5.69.12-11.18-.84-16.86-.91-6.24-.08-6.74.85-13,.61-4.89-.19-10.19-.32-15.1-.13-5.74.22-11.48.2-17.27.2-5.37,0-8.07.76-9.15-1.69-1.17-2.66-.25-8.24-.21-11.05.06-5.13-.15-10.26.15-15.42.34-5.84.4-12.12.39-18,0-5.76.16-10.56.02-16.34-.3-11.78-.65-24.82.69-37.18.62-5.72,9.55-4.5,15.86-4.61,4.97-.09,12.13-.42,17.11-.17,13.42.68,5.94-.44,18.52.07,8.81.36,13.23-.57,21.97-.11,5.63.3,12.57-.57,11.22,6.99-.45,2.55-.04,6.03-.19,8.58-.2,3.45-1.33,4.27-4.57,4.16-12.1-.42-14.19-.06-25.94-.25-2.22-.04-7.4-.46-9.33.86-2.17,1.48-1.41,2.6-1.33,4.89.22,5.76-.33,8.73-.34,14.54,0,2.32-.67,3.3,1.58,4.05,2.16.72,2.41.29,8.09.24,9.19-.08,12.81-1.02,19.27-.97,5.53.04,7.73-.63,7.86,1.01.28,3.61-1.39,8.74-2.66,12.67-.89,2.76-1.08,5.56-4.18,6.22-2.91.62-8.36.06-11.4.24-1.78.1-3.57.11-5.35.13-2.5.03,1.01.09-.9.07-4.58-.06-3.14.15-6.89.24-.88.02-2.69-.19-3.57-.12-1.23.09-1.47.63-1.94,2.35-.42,1.52-.57,5.95-.56,7.55.01,1.56,0,3.13.04,4.7.1,5-.33,6.17,3.72,5.64,3.39-.45,2.92-.34,6.29-.48,3.32-.14,6.43.53,9.71.76,3.57.24,7.07-.71,10.66-.7,3.54,0,10.27-1.91,12.85,1.05,1.52,1.74,1.15,7.83,1.12,9.94h0Z" fill="#ed8453"/>
      <path d="M663.22,18.86c1.58,3.48,2.79,5.38-2.21,5.03-4.22-.29-8.4-.53-12.62-.7-2.58-.1-7.6-.98-9.02,1.63-.72,1.33-.2,4.06-.29,5.46-.13,2.01-.45,4.01-.58,6.02-.64,10.18.71,10.18-.13,20.65-.57,7.04-.52,10.51-.58,17.58-.04,5.15-.29,14.51-.48,19.63-.13,3.39.57,8.37-.04,11.64-.59,3.21-1.71,3.04-5.75,2.89-3.37-.13-7.24.27-10.62.16-4.26-.15-8.03-.77-12.24-.47-2.12.15-6.84.67-10.97.75-2.96.06-5.71.06-6.6-1.21-1.67-2.41-.81-8.7-.75-11.54.07-2.94.11-5.86.13-8.8.02-5.25.13-10.5.2-15.75.18-12.88.55-25.72-.08-38.62-.13-2.66.69-7.15-2.15-8-2.89-.87-7.16-.06-10.18.06-3.9.16-7.63.92-11.49,1.34-2.46.27-5.14,1.14-5.24-1.85-.11-3.19,2.32-7.55,3.27-10.52.8-2.49,1.27-5.55,2.73-7.75,3.06-4.61,13.76-2.69,18.79-2.87,14.73-.53,29.39,1.49,44.1,0,6.97-.71,15.1-1.16,22.05-.27,4.37.56,5.24,2.22,6.86,6.18,1.28,3.12,2.48,6.25,3.88,9.33h0Z" fill="#ed8453"/>
      <path d="M720.09,95.64c.31,2.91.99,6.89.42,9.82-.5,2.6-1.53,2.47-4.25,2.53-5.04.12-10.09-.96-15.15-.79-5.24.18-11.48.13-16.74.33-2.78.11-6.16.19-8.83-.84-2.26-.87-2-1.47-2.27-3.95-.43-3.9.36-7.22.16-10.81-.38-6.91.57-8.02-.25-15.76-.37-3.51.18-4.92-.36-10.6-.45-4.69.33-7.16.56-13.76.16-4.69-.25-9.38-.27-14.07-.03-5.22-.64-10.42-.72-15.63-.07-4.7.51-9.41.24-14.12-.1-1.74-.87-4.07.95-5.16,1.09-.65,3.75-.33,5.02-.41,4.78-.32,9.33.17,14.1.24,5.37.07,14.46-.24,19.84-.3,7.06-.08,5.45,1.68,5.77,9.1.22,5.14.51,17.25.81,22.38.31,5.2.72,10.42.45,15.64-.26,4.86.35,9.46.42,14.31.16,10.28-.97,21.59.12,31.85h0Z" fill="#ed8453"/>
      <path d="M827.2,72.54c2.24,2.65,4.2,5.58,6.47,8.23,2.61,3.06-1.59,7.26-3.25,9.9-2.15,3.39-4.7,5.85-7.79,8.34-6.35,5.12-13.75,8.14-21.59,9.98-15.84,3.71-37.34,2.25-49.42-9.95-10.17-10.26-18.48-22.71-19.58-37.66-1.13-15.3,3.07-32.85,13.92-43.9,5.08-5.18,13.84-10.32,20.62-12.74,6.79-2.42,13.16-4.16,20.38-4.59,6.93-.41,12.01-.12,18.56,2.73,7.17,3.12,13.82,6.09,18.9,12.42,2.74,3.41,12.01,12.03,10,17.2-1.08,2.78-6.71,3.72-9.15,4.95-3.69,1.87-6.99,4.05-8.75.82-1.89-3.46-3.76-6.89-7.06-9.17-3.77-2.6-9.55-5.7-13.03-4.99-11.74,2.39-15.01,7.56-18.11,15.11-1.85,4.51-1.85,8.77-1.85,14.73,0,5.46.46,11.64,1.85,14.96,4.12,9.85,10.43,14.86,19.66,16.29,4.15.64,8.05-2.2,12.58-4.11,3-1.26,6.43-6.87,9.2-8.7,3.4-2.24,4.31-3.58,7.47.15h0Z" fill="#ed8453"/>
      <path d="M979.6,72.54c2.24,2.65,4.2,5.58,6.47,8.23,2.61,3.06-1.59,7.26-3.25,9.9-2.15,3.39-4.7,5.85-7.79,8.34-6.35,5.12-13.75,8.14-21.59,9.98-15.84,3.71-37.34,2.25-49.42-9.95-10.17-10.26-18.48-22.71-19.58-37.66-1.13-15.3,3.07-32.85,13.92-43.9,5.08-5.18,13.84-10.32,20.62-12.74,6.79-2.42,13.16-4.16,20.38-4.59,6.93-.41,12.01-.12,18.56,2.73,7.17,3.12,13.82,6.09,18.9,12.42,2.74,3.41,12.01,12.03,10,17.2-1.08,2.78-6.71,3.72-9.15,4.95-3.69,1.87-6.99,4.05-8.75.82-1.89-3.46-3.76-6.89-7.06-9.17-3.77-2.6-9.55-5.7-13.03-4.99-11.74,2.39-15.01,7.56-18.11,15.11-1.85,4.51-1.85,8.77-1.85,14.73,0,5.46.46,11.64,1.85,14.96,4.12,9.85,10.43,14.86,19.66,16.29,4.15.64,8.05-2.2,12.58-4.11,3-1.26,6.43-6.87,9.2-8.7,3.4-2.24,4.31-3.58,7.47.15h0Z" fill="#f7ba61"/>
      <path d="M1093.24,85.26c2.89.54-2.72,15.09-3.55,16.67-1.38,2.64-1.84,4.76-5,5.26-8.19,1.31-17.01-.69-25.26-.18-8.86.55-9.42.32-18.27.77-8.42.43-16.53,1.39-24.94.55-7.52-.75-2.61.65-10.12.24-1.07-.06-2.42-.27-3.48-.45-1.45-.24-1.84-2.03-1.84-2.03-.35-1.42-.14-3.17-.24-4.64-.26-3.97-.09-8-.53-11.96-1.71-15.38-.56-30.92-1.61-46.35-.42-6.17.17-12.26-.16-18.4-.2-3.73.51-7.52.27-11.29-.17-2.69-1.69-5.15-1.01-7.79.85-3.27,5.24-2.63,8.17-2.43,6.13-.3,12.67-.92,18.63-.06,3.55.51,7.2.6,10.79.53,1.97-.03,7.4-1.26,9.2-.14,1.7,1.06.69,4.48.8,6.25.23,3.59.2,7.24.63,10.83,1.58,13.27,0,26.88,1.3,40.24.7,7.2.84,8.89,1.17,16.1.12,2.61-1.27,8.4,1.54,9.75,2.31,1.11,6.82.15,9.35.11,7.1-.1,6.06.15,13.11-.34,3.82-.27,7.66.04,11.48-.19,3.13-.18,6.42-1.65,9.56-1.07h0Z" fill="#f7ba61"/>
      <path d="M1201.9,35.5c.12,8.86.73,18.55-.11,27.58-1.81,19.41-7.76,31.2-13.32,37.13-8.33,8.9-23.5,9.55-32.43,9.55-10.93,0-27.28-1.83-34.76-6.01-19.26-10.76-19.49-31.86-21.6-48.37-1.47-11.47-2.3-44.54.84-52.17.79-1.92,11.13-.71,13.09-.87,2.55-.21,14.29-1.02,16.65-1.11,6.7-.25,17.27-1.04,17.43,3.61.21,6.02.03,9.87-.17,14.63-.22,5.16.78,10.63.5,15.75-.6,10.68.48,21.64,1.06,31.59.48,8.28-1.29,19.29,6.16,25.19,6.23,4.94,19.26,1.52,22.51-5.36,3.99-8.44,4.43-21.54,4.4-24.2-.06-4.58.46-11.16.1-15.13-.68-7.56-1.45-15.27-1.39-23.71.04-5.14-1.08-17.88,1.78-20.73,1.35-1.35,16.79-1.3,17.93,0,2.21,2.53.52,11.76.52,17.41,0,7.29.73,7.55.83,15.22h0Z" fill="#f7ba61"/>
      <path d="M1325.84,64.32c3.43,6.83,5.85,11.58,4.16,21.32-.86,4.97-3.57,9.62-7.83,13.47-8.89,8.02-25.97,9.25-51.15,9.25-7.37,0-11.89-.85-23.91-.71-12.97.15-26.29,1.29-27.85-2.77-1.79-4.63-1.42-15.02-1.58-20.01-.37-10.93-.64-21.36-1.06-32.18-.13-3.4-2.2-38.33.97-45.54,2.22-5.06,14.92-4.62,20.05-4.7,4.66-.06,7.26,1.34,12.44.74,3.68-.42,5.53-.3,9.34-.52,1.29-.07,2.72-.1,4.19-.1.79-.2,1.62-.26,2.44-.25,1.38.01,1.36.04,2.74.06,1.92.03-.24-.02,1.68.32,3.1.1,2.14.33,4.87.66,8.78,1.08,21.31-.42,31.3,4.12,8.72,3.97,15.51,13.69,16.16,18.81.75,5.88.86,12.78-3.76,18.24-2.81,3.32-10.03,6.28-9.06,6.65,6.84,2.62,12.84,7.1,15.87,13.13h0ZM1288.85,83.18c3.41-3.55,1.99-10.55,1.93-11.94-.13-2.82-2.47-5.69-6.61-7.98-3.12-1.72-6.33-1.68-11.7-1.97-1.84.05-7.02-.39-9.27.76-.91.43-.83,2.49-.48,4.58.5,2.92.82,7.54.68,10.63-.14,3.09-.87,10.1.47,10.91,2.41,1.44,8.98.08,13.28.16,5.63.1,9.16-2.47,11.7-5.13h0ZM1263.86,22.69c-2.16,1.94-.66,6.44-.67,10.19,0,.59-.88,11.97.84,12.1,2.03.16,1.4.87,5.97.61,3.97-.23,4.84-.18,8.61-.49,2.92-.24,5.22-1.81,6.46-3.35,2.23-2.76,1.8-10.59.32-13.3-3.26-5.96-6.13-6.85-12.16-6.67-6.23.18-7.22-1.03-9.38.91h0Z" fill="#f7ba61"/>
      <path d="M82.14,154.58c-1.27.06-2.06,2.55-1.65,7.93.19,2.55-.36,6.71.13,10.48.41,3.2-.15,4.71,2.61,4.74,2.09.03,18.31.26,20.29-.09,1.99-.36,3.74.38,4.57,0,1.18-.55,6.9-.27,8.86-.25,5.53.05,7.73-.64,7.86,1.02.28,3.64-1.87,8.72-3.14,12.67-.82,2.57-.96,6.72-3.38,7.48-1.21.38-5.51.76-9.47.46-4.12-.3-20.56.05-22.76-.19-1.66-.17-3.15-.19-3.86-.07-1.88.3-1.33,1.84-1.42,7.34-.03,2.07,0,6.08.31,11.21.29,4.73-.33,8.39-.46,11.93-.17,4.94,1.2,8.31-2.13,9.28-3.96,1.15-13.14.36-18.16.36-3.08,0-35.01-.3-37.19-.3-5.3,0-7.23.3-13.58.3-3.17,0-3.5-1.8-3.5-10.77,0-2.61.55-7.12.58-7.82.18-5.66-.1-6.49-.42-12.88-.33-6.6.6-8.87.46-15.53-.12-5.64-1.58-8.83-.63-14.99.67-4.36-.19-7.5.02-12.01.16-3.38-.28-9.72-.2-12.98.18-7.23-.96-17.12,6.8-17.14,12.55-.04,49.19,1.2,62.49.55,8.44-.41,37.01-.05,46.13-.55,6.91-.38,6.32,3.99,6.3,10.76-.02,5.05.72,6.99-2.85,8.11-1.71.54-4.97.28-8.72.28-1.82,0-5.06.79-8.3.62-4.62-.24-23.19-.08-25.58.03h0Z" fill="#00333f"/>
      <path d="M268.12,229.08c-.03,1.95.52,7.39-.43,8.97-1.32,2.2-4.19,1.02-6.24.9-3.25-.18-6.45.45-9.69.52-5.69.12-38.98-.84-44.66-.91-6.24-.08-6.74.85-13,.61-4.89-.19-10.19-.32-15.1-.13-5.74.22-25.38.2-31.17.2-5.37,0-8.07.76-9.15-1.69-1.17-2.66-.25-8.24-.21-11.06.06-5.13-.15-10.26.15-15.42.34-5.84.4-12.12.39-18,0-5.76.16-10.56.02-16.34-.3-11.78-.65-24.82.69-37.18.62-5.72,9.55-4.5,15.86-4.61,4.97-.09,26.03-.42,31.01-.17,13.42.68,5.94-.44,18.52.07,8.81.36,41.03-.57,49.77-.11,5.63.3,12.56-.57,11.22,6.99-.45,2.55-.04,6.03-.19,8.58-.2,3.45-1.33,4.27-4.58,4.16-12.1-.42-29.48-.06-41.23-.25-2.22-.04-7.4-.46-9.33.86-2.17,1.48-1.41,2.6-1.33,4.89.22,5.76-.33,8.73-.34,14.54,0,2.32-.67,3.3,1.58,4.05,2.16.72,2.41.29,8.09.24,9.19-.08,28.1-1.03,34.56-.97,5.53.05,7.73-.63,7.86,1.01.28,3.61-1.39,8.74-2.66,12.67-.89,2.76-1.08,5.56-4.18,6.22-2.91.62-8.36.06-11.4.24-1.78.1-3.57.11-5.35.13-2.5.03,1.01.09-.9.07-4.58-.06-18.43.15-22.18.24-.88.02-2.69-.19-3.58-.12-1.22.09-1.47.63-1.94,2.35-.42,1.52-.57,5.95-.56,7.55.01,1.56,0,3.13.04,4.7.1,5-.33,6.17,3.71,5.64,3.39-.45,2.92-.33,6.29-.48,3.32-.14,21.72.53,25,.76,3.57.24,7.07-.71,10.66-.7,3.54,0,10.27-1.91,12.85,1.05,1.53,1.74,1.15,7.83,1.12,9.94h0Z" fill="#00333f"/>
      <path d="M458.07,237.51c-.17,1.17-5.17.38-7.8.55-3.55.24-46.98-.15-51.22-.15s-4.79-.94-6.01-3.28c-3.76-7.25-7.66-20.18-11.88-29.69-1.58-3.56-2.08-3.36-4.39-3.27-.39.02-1.94,0-7.87-.49-8.2,0-16.86.5-17.44.52-1.58.05-1.59-.51-1.35,6.84.2,6.26,1.07,18.04.79,20.91-.9,9.18-.4,8.34-10.58,9.16-7.53.61-35.71.2-42.87-.14-1.67-.08-15.26,1.59-15.5-5-.37-10.17-.37-21.96-.72-29.21-.4-8.1-1.2-26.5-.33-29.88-.18-11.23-.75-20.44-.75-20.44,0,0-.92-11.52,1.07-15.66.64-1.33.87-3.82,2.29-4.14,4.69-1.08,11.02-.84,15.51-1.03,13.3-.56,37.15-.25,47.39-.27,10.83-.02,76.58-1.2,84.76,2.62,6.42,2.02,13.7,5.31,17.45,10.47,3.79,5.2,6.1,12.74,5.24,20.85-.52,4.86-2.75,10.19-4.91,14.6-3.47,7.06-6.87,9.6-9.6,10.9-3.96,1.9-2.41,2.32-.37,5.32,1.55,2.27,2.24,3.79,3.46,5.53,3.94,5.61,5.53,10.18,9.25,16.76,2.63,4.65,7.28,11.47,6.38,17.62ZM401.26,167.93c.15-7.52-1.31-10.15-2.98-12.81-2.37-3.78-6.55-3.92-10.07-4.21-1.95-.16-4.17.06-7.15-.03-3.53-.11-24.77.64-30.37.64-1.93,0-1.53,2.86-1.51,3.13.27,4.82-.28,4.02-.04,7.64.17,2.66-.32,2.57.11,8.81.31,4.54-.34,8.54.07,13.56.1,1.23,1.75.69,3.92.85,1.83.13,9.32.61,16.44.59,6.14-.02,12.07-.51,13.17-.61,2.35-.21,9.7-.18,10.95-.84,3.15-1.64,4.05-3.47,5.37-6.27,1.28-2.74,2.01-6.83,2.09-10.45h0Z" fill="#00333f"/>
      <path d="M646.91,237.51c-.17,1.17-5.17.38-7.8.55-3.55.24-46.98-.15-51.22-.15s-4.79-.94-6.01-3.28c-3.76-7.25-7.66-20.18-11.88-29.69-1.58-3.56-2.08-3.36-4.39-3.27-.39.02-1.94,0-7.87-.49-8.2,0-16.86.5-17.44.52-1.58.05-1.59-.51-1.35,6.84.2,6.26,1.07,18.04.79,20.91-.9,9.18-.4,8.34-10.58,9.16-7.53.61-35.71.2-42.87-.14-1.67-.08-15.26,1.59-15.5-5-.37-10.17-.37-21.96-.72-29.21-.4-8.1-1.2-26.5-.33-29.88-.18-11.23-.75-20.44-.75-20.44,0,0-.92-11.52,1.07-15.66.64-1.33.87-3.82,2.29-4.14,4.69-1.08,11.02-.84,15.51-1.03,13.3-.56,37.15-.25,47.39-.27,10.83-.02,76.58-1.2,84.76,2.62,6.42,2.02,13.7,5.31,17.45,10.47,3.79,5.2,6.1,12.74,5.24,20.85-.52,4.86-2.75,10.19-4.91,14.6-3.47,7.06-6.87,9.6-9.6,10.9-3.96,1.9-2.41,2.32-.37,5.32,1.55,2.27,2.24,3.79,3.46,5.53,3.94,5.61,5.53,10.18,9.25,16.76,2.63,4.65,7.28,11.47,6.38,17.62ZM590.1,167.93c.15-7.52-1.31-10.15-2.98-12.81-2.37-3.78-6.55-3.92-10.07-4.21-1.95-.16-4.17.06-7.15-.03-3.53-.11-24.77.64-30.37.64-1.93,0-1.53,2.86-1.51,3.13.27,4.82-.28,4.02-.04,7.64.17,2.66-.32,2.57.11,8.81.31,4.54-.34,8.54.07,13.56.1,1.23,1.75.69,3.92.85,1.83.13,9.32.61,16.44.59,6.14-.02,12.07-.51,13.17-.61,2.35-.21,9.7-.18,10.95-.84,3.15-1.64,4.05-3.47,5.37-6.27,1.28-2.74,2.01-6.83,2.09-10.45h0Z" fill="#00333f"/>
      <path d="M863.93,229.58c1.12,1.4,3.45,5.8,1.33,8.02-.92.97-2.69,1.09-5.76,1.09-1.43-.1-2.79.09-4.21.05-2.72-.07-59.14.63-61.87.55-5.94-.17-7.73-.39-11.37-5.34-3.63-4.93-3.79-4.06-7.44-8.97-2.6-3.49-6.73-10.39-9.72-11.61-1.96-.8-3.65.08-5.26.38-1.46.28-3.13-.03-4.69-.02-3.67.02-29.29.71-32.96.65-4.14-.07-26.44-.48-30.65-.2-2.56.17-6.49-.62-9.26,1.55-2.83,2.22-5.57,6.42-7.72,10.21-2.62,4.63-3.57,6.29-6.2,10.77-1.06,1.81-1.16,2.01-2.61,2.29-1.44.28-2.9.05-4.22-.14-1.68-.24-12.4.98-11.17-3.08.6-1.98,2.87-4.51,3.95-6.09,1.42-2.06,2.72-4.19,4.03-6.41,5.26-8.93,10.86-17.42,16.27-26.15,5.37-8.67,10.36-18,15.68-26.64,4.76-7.72,9.66-15.24,14.34-22.99,2-3.31,5.22-10.9,7.73-12.25,2.35-1.26,10.95-.47,13.12-.49,3.55-.03,6.83,1.14,9.99.24,2.89-.83,48.43.17,51.23-.23,6.58-.93,9.68,4.85,10.66,6.21,12.2,16.96,24.75,33.17,36.75,50.46,6.2,8.93,13.12,16.42,19.48,25.03,3.41,4.62,7.01,8.7,10.52,13.1h0ZM750.54,196.64c2.22-.15,6.59.74,3.85-3.48-3.05-4.82-7.32-9.32-10.62-13.77-4.34-5.86-11.87-14.81-15.81-20.8-2.07-2.29-3.22-5.57-6.52-5.7-1.93-.07-3.3,2.01-4.59,4.51-1.58,1.48-2.45,3.61-3.84,5.8-3.62,5.71-7.16,11.64-10.55,17.66-1.55,2.75-9.43,14.18-7.51,16.05.94.92,3.28-.13,4.55-.08,1.97.08,17.45-.05,19.44-.25,1.92-.19,21.69-.23,23.67-.03,1.44.14,6.68.58,7.92.07h0Z" fill="#00333f"/>
      <path d="M1026.23,182.1c-.28,5.45-.61,10.87-.81,16.26-.14,3.78-.21,7.55-.15,11.31.11,6.99.55,13.24.65,17.18.17,6.57,1,9.64-3.78,10.85-2.07.52-5.22.9-7.58.95-2.37.05-5.56-.39-8.27-.36-1.5.01-3.08.04-4.73.05-3.41.03-22.39.02-26.28-.2-2.33-.13-35.15.1-36.67-.51-3.62-1.46-6.05-5.08-10.78-10.78-2.24-2.7-5.05-6.99-8.87-10.98-1.73-1.81-3.37-3.31-4.75-4.81-4.91-5.33-4.47-2.84-8.16-7.93-2.21-3.05-5.38-5.62-8.74-9.78-3.74-4.64-2.88,4.94-3.02,7.14-.57,8.65.33,17.59.43,26.2.05,4.57.98,8.68-.38,10.58-.82,1.14-3.26.98-4.96,1.07-6.62.04-15.63.72-15.66-2.75-.1-13.65,1.96-33.91,1.11-47.09-.6-9.28.54-20.34-.57-30.27-.67-6.01-.47-12.82-.47-18.92s6.63-5.34,12.22-5.34c8-.52,50.4.26,56.07.5,4.14.17,6.67-.02,10.13,3.61,5.23,5.48,9.04,12.31,14.77,17.36,6.12,5.39,1.52,3.55,8.25,9.46,4.68,4.12,8.3,9.58,12.7,13.95,2.97,2.95,9.01,11.25,15.06,14.3,3.63,1.83,1.2-17.17,1.43-21.56.19-3.7.69-9.11.68-14.09-.01-4.85-.54-9.27-.62-13.3-.09-4.81-.15-6.64-.15-7.13,0-3.53,2.91-3.4,8.24-2.99,2.42.19,6.76.35,9.75.31,2.92-.03,4.31-.02,4.31,2.03,0,1.92-.29,5.75-.27,10.82.03,7.65.15,12.63.36,17.52.25,5.82-.18,11.61-.47,17.34h0Z" fill="#00333f"/>
      <path d="M1192.11,149.71c1.58,3.48,2.79,5.38-2.21,5.03-4.22-.29-8.4-.53-12.62-.7-2.58-.1-21.5-.98-22.92,1.63-.72,1.32-.2,4.06-.29,5.46-.13,2.01-.45,4.01-.58,6.02-.64,10.18.71,10.18-.13,20.65-.57,7.04-.52,10.51-.58,17.58-.04,5.15-.29,14.51-.48,19.63-.13,3.39.57,8.37-.04,11.64-.59,3.21-1.71,3.04-5.75,2.89-3.37-.13-7.24.27-10.62.16-4.26-.14-35.83-.77-40.04-.47-2.12.15-6.84.67-10.97.75-2.96.06-5.71.06-6.6-1.21-1.67-2.4-.81-8.7-.75-11.54.07-2.94.11-5.86.13-8.8.02-5.25.13-10.5.2-15.75.18-12.88.55-25.72-.08-38.62-.13-2.66.69-7.15-2.15-8-2.89-.87-21.06-.06-24.08.06-3.9.16-7.63.92-11.49,1.34-2.46.27-5.14,1.14-5.24-1.85-.11-3.19,2.32-7.55,3.27-10.52.8-2.49,1.27-5.55,2.73-7.75,3.06-4.61,41.61-2.16,46.59-2.87,14.59-2.1,29.39,1.49,44.1,0,6.97-.71,42.9-1.16,49.85-.27,4.37.56,5.24,2.23,6.86,6.18,1.28,3.12,2.48,6.25,3.88,9.33h0Z" fill="#00333f"/>
      <path d="M1331.42,229.08c-.03,1.95.52,7.39-.43,8.97-1.32,2.2-4.19,1.02-6.24.9-3.25-.18-6.45.45-9.69.52-5.69.12-38.98-.84-44.66-.91-6.24-.08-6.74.85-13,.61-4.89-.19-10.19-.32-15.1-.13-5.74.22-25.38.2-31.17.2-5.37,0-8.07.76-9.15-1.69-1.17-2.66-.25-8.24-.21-11.06.06-5.13-.15-10.26.15-15.42.34-5.84.4-12.12.39-18,0-5.76.16-10.56.02-16.34-.3-11.78-.65-24.82.69-37.18.62-5.72,9.55-4.5,15.86-4.61,4.97-.09,26.03-.42,31.01-.17,13.42.68,5.94-.44,18.52.07,8.81.36,41.03-.57,49.77-.11,5.63.3,12.56-.57,11.22,6.99-.45,2.55-.04,6.03-.19,8.58-.2,3.45-1.33,4.27-4.58,4.16-12.1-.42-29.48-.06-41.23-.25-2.22-.04-7.4-.46-9.33.86-2.17,1.48-1.41,2.6-1.33,4.89.22,5.76-.33,8.73-.34,14.54,0,2.32-.67,3.3,1.58,4.05,2.16.72,2.41.29,8.09.24,9.19-.08,28.1-1.03,34.56-.97,5.53.05,7.73-.63,7.86,1.01.28,3.61-1.39,8.74-2.66,12.67-.89,2.76-1.08,5.56-4.18,6.22-2.91.62-8.36.06-11.4.24-1.78.1-3.57.11-5.35.13-2.5.03,1.01.09-.9.07-4.58-.06-18.43.15-22.18.24-.88.02-2.69-.19-3.58-.12-1.22.09-1.47.63-1.94,2.35-.42,1.52-.57,5.95-.56,7.55.01,1.56,0,3.13.04,4.7.1,5-.33,6.17,3.71,5.64,3.39-.45,2.92-.33,6.29-.48,3.32-.14,21.72.53,25,.76,3.57.24,7.07-.71,10.66-.7,3.54,0,10.27-1.91,12.85,1.05,1.53,1.74,1.15,7.83,1.12,9.94h0Z" fill="#00333f"/>
    </g>
  </g>
</svg>