<?xml version="1.0" encoding="UTF-8"?>
<svg id="Layer_2" data-name="Layer 2" xmlns="http://www.w3.org/2000/svg" viewBox="0 0 213.56 300">
  <g id="Layer_1-2" data-name="Layer 1">
    <g>
      <g>
        <path d="M121.9,91.63c.84,1.86,2.44,5.34,1.09,7.85-.78,1.43-7.18.68-8.13.61-1.29-.1-2.62.08-3.92.05-2.5-.07-22.84.58-25.34.51-5.46-.15-7.05-.36-8.84-4.95-1.78-4.58-2.21-3.77-4.02-8.32-1.29-3.24-2.91-9.64-5.29-10.78-1.56-.75-3.41.07-5,.36-1.44.26-2.9-.02-4.34-.02-3.41.02-8.18.66-11.6.6-3.84-.07-8.57-.44-12.42-.18-2.34.16-6.15-.57-8.28,1.44-2.18,2.06-3.88,5.95-5.11,9.47-1.5,4.3-2.05,5.84-3.59,10-.62,1.68-.67,1.86-1.96,2.13-1.28.26-2.68.05-3.94-.13-1.61-.22-11.31.91-10.98-2.86.16-1.84,1.75-4.19,2.44-5.65.9-1.91,1.68-3.89,2.45-5.95,3.08-8.29,6.57-16.17,9.84-24.27,3.25-8.05,5.99-16.71,9.19-24.73,2.86-7.17,5.9-14.14,8.69-21.34,1.19-3.07,2.65-10.11,4.71-11.37,1.93-1.17,10.02-.44,12.03-.45,3.29-.03,5.9,1.06,9.12.22,2.95-.77,19.09.16,21.82-.21,6.41-.87,7.42,4.5,7.89,5.76,5.87,15.74,12.31,30.78,17.9,46.82,2.88,8.29,6.9,15.23,10.04,23.23,1.68,4.28,3.71,8.07,5.55,12.15h0ZM55.19,61.67c1.85-.67,8.23,1.49,6.67-3.95-1.28-4.47-3.37-8.86-5-12.99-2.14-5.44-5.17-14.17-7.35-19.57-.69-1.71-1.27-4.08-2.59-2.52-1.17,1.38-2.14,5.35-2.99,7.38-2.21,5.3-4.31,10.81-6.24,16.39-.88,2.55-5.9,13.16-3.74,14.9,1.06.85,3.02-.12,4.21-.08,1.84.08,3.66-.05,5.51-.23,1.78-.17,4.45-.23,6.22-.05,1.29.13,3.98,1.17,5.29.7h0Z" fill="#ed8453"/>
        <path d="M206.62,67.32c2.08,2.46,3.9,5.17,6,7.64,2.42,2.84-1.47,6.74-3.02,9.19-1.99,3.15-4.36,5.43-7.23,7.74-5.9,4.75-12.76,7.56-20.04,9.26-14.7,3.45-34.66,2.08-45.87-9.23-9.43-9.52-17.15-21.07-18.17-34.95-1.05-14.2,2.85-30.49,12.92-40.74,4.72-4.8,12.84-9.58,19.14-11.83,6.31-2.25,12.21-3.86,18.91-4.26,6.43-.38,11.15-.11,17.22,2.54,6.66,2.9,12.83,5.66,17.54,11.53,2.54,3.16,11.15,11.16,9.28,15.97-1,2.58-6.23,3.45-8.5,4.6-3.43,1.73-6.48,3.75-8.12.76-1.76-3.21-3.49-6.4-6.55-8.51-3.5-2.41-8.86-5.29-12.1-4.63-10.9,2.22-13.93,7.02-16.81,14.02-1.72,4.19-1.72,8.14-1.72,13.67,0,5.07.43,10.8,1.72,13.89,3.82,9.14,9.68,13.79,18.25,15.12,3.85.59,7.47-2.05,11.68-3.82,2.78-1.17,5.96-6.38,8.54-8.08,3.15-2.08,4-3.32,6.93.14h0Z" fill="#f7ba61"/>
      </g>
      <path d="M133.81,151.93c-2.22.11-3.61,4.47-2.9,13.89.34,4.47-.63,11.76.23,18.35.72,5.6-.26,8.24,4.58,8.31,3.66.05,32.07.46,35.53-.16,3.48-.62,6.55.67,8,0,2.07-.97,12.07-.46,15.51-.44,9.68.08,13.54-1.12,13.76,1.79.49,6.37-3.28,15.26-5.5,22.19-1.44,4.5-1.68,11.76-5.92,13.09-2.12.67-9.64,1.33-16.59.81-7.21-.53-36.01.08-39.86-.33-2.91-.31-5.51-.33-6.77-.13-3.29.53-2.34,3.22-2.48,12.84-.05,3.62,0,10.64.54,19.63.5,8.28-.59,14.69-.8,20.88-.3,8.64,2.1,14.55-3.73,16.25-6.94,2.02-23.01.63-31.79.63-5.39,0-61.3-.52-65.12-.52-9.28,0-12.66.52-23.79.52-5.56,0-6.13-3.15-6.13-18.85,0-4.57.97-12.46,1.01-13.7.32-9.91-.17-11.36-.73-22.55-.57-11.56,1.04-15.52.8-27.18-.2-9.88-2.77-15.45-1.1-26.24,1.18-7.64-.33-13.13.04-21.02.27-5.91-.49-17.01-.35-22.72.32-12.65-1.67-29.97,11.91-30.02,21.98-.06,86.14,2.1,109.42.96,14.77-.73,64.81-.09,80.78-.96,12.09-.66,11.06,6.98,11.02,18.83-.03,8.84,1.26,12.23-4.99,14.21-2.99.95-8.71.49-15.27.49-3.19,0-8.86,1.39-14.53,1.09-8.1-.42-40.61-.15-44.79.06h0Z" fill="#00333f"/>
    </g>
  </g>
</svg>