<?xml version="1.0" encoding="UTF-8"?>
<svg id="Layer_2" data-name="Layer 2" xmlns="http://www.w3.org/2000/svg" xmlns:xlink="http://www.w3.org/1999/xlink" viewBox="0 0 341.62 341.62">
  <defs>
    <clipPath id="clippath">
      <path d="M165.87,107.83c48.93-4,84.68,46.81,62.48,91.17-22.79,45.54-88.88,46.93-112.94,1.83-21.39-40.09,5.46-89.32,50.45-93Z" fill="#8dd3d9" stroke="#10153f" stroke-miterlimit="10" stroke-width=".11"/>
    </clipPath>
  </defs>
  <g id="Layer_1-2" data-name="Layer 1">
    <g>
      <g id="XriwrJ.tif">
        <g>
          <path d="M202.59,1.78l.06,32.6c15.12,3.35,29.09,9.34,42.54,16.82l23.32-22.47,44.41,44.32-22.46,22.57c8.16,13.29,14.6,27.69,18.05,42.97h31.34v63.11h-30.67c-1.77,4.77-2.83,9.99-4.51,14.9-3.43,10.01-8.34,19.29-13.38,28.54l21.16,22.44-43.41,43.59-1.11.22-21.87-21.45c-5.1,2.48-9.88,5.55-15.05,7.9-9.05,4.13-18.69,7.18-28.4,9.33v32.66h-62.45s-.66-.62-.66-.66v-32.22c-3.21-1.52-6.95-2.14-10.38-3.3-7.66-2.61-15.11-5.76-22.29-9.49-1.64-.85-7.4-4.78-8.58-4.66l-24.51,23.21-44.09-43.81,23.78-24.61c-7.37-12.95-13.41-26.66-16.8-41.24l-34.82-.04v-63.11c3.99-.58,33.19.94,34.21-.43.39-.53,2.2-8.43,2.74-10.06,1.92-5.75,4.22-11.55,6.8-17.03.97-2.07,7.1-12.83,7.01-13.73-.21-2.06-23.42-22.6-23.42-24.29l.43-.9,43.56-43.42c3.8,2.11,21.67,22.71,23.79,22.93,1.09.11,8.17-4.63,9.9-5.54,10.1-5.32,21.06-9.57,32.18-12.17l.04-33.5h63.55ZM188.91,16.34h-35.31v28.91c0,.59-7.99,1.89-9.27,2.2-17.86,4.25-34.08,11.8-48.76,22.75l-21.63-21.63c-8.23,8.48-17.09,16.55-24.9,25.31l21.55,21.75c-7.89,11.56-14.51,23.8-18.71,37.23-2.13,6.82-3.29,13.84-5.08,20.74h-30.45v34.87h30.67c.65,0,1.9,8.39,2.2,9.71,4.01,17.49,11.24,33.48,21.79,47.96l-21.8,21.77,24.79,24.68,22-21.04c16.95,12.54,36.73,21.2,57.72,24.26.26.08.76.38.76.57v28.91h35.31v-29.13c21.67-3.06,42.02-11.51,59.44-24.66l20.6,19.77,24.79-24.68-20.03-20.89c12.41-17.38,20.92-37.63,23.33-58.99h30.89v-35.31h-31.34c-3.1-20.82-11.88-40.35-24.21-57.23l19.38-19.32.37-1.26-23.1-24.17-.9-.43c-7.43,6.18-13.62,14.01-21.1,20.26-17.25-12.69-37.66-21.1-59-23.78v-29.13Z" fill="#10153f" stroke="#19b9ee" stroke-miterlimit="10" stroke-width="3.56"/>
          <path d="M188.91,16.34v29.13c21.34,2.68,41.75,11.08,59,23.78,7.49-6.25,13.67-14.08,21.1-20.26l.9.43,23.1,24.17-.37,1.26-19.38,19.32c12.33,16.88,21.11,36.41,24.21,57.23h31.34v35.31h-30.89c-2.41,21.37-10.92,41.61-23.33,58.99l20.03,20.89-24.79,24.68-20.6-19.77c-17.42,13.15-37.77,21.6-59.44,24.66v29.13h-35.31v-28.91c0-.19-.5-.49-.76-.57-21-3.06-40.78-11.72-57.72-24.26l-22,21.04-24.79-24.68,21.8-21.77c-10.55-14.47-17.78-30.47-21.79-47.96-.3-1.32-1.55-9.71-2.2-9.71h-30.67v-34.87h30.45c1.78-6.9,2.94-13.92,5.08-20.74,4.2-13.43,10.82-25.67,18.71-37.23l-21.55-21.75c7.81-8.76,16.67-16.83,24.9-25.31l21.63,21.63c14.69-10.96,30.9-18.5,48.76-22.75,1.28-.31,9.27-1.61,9.27-2.2v-28.91h35.31ZM166.31,93.27c-59.97,3.96-93.66,71.91-58.97,121.82,31.14,44.79,97.17,44.17,128.27-.44,37.23-53.42-5.31-125.6-69.3-121.38Z" fill="#19b9ee"/>
          <path d="M166.31,93.27c63.99-4.22,106.53,67.96,69.3,121.38-31.1,44.62-97.13,45.23-128.27.44-34.69-49.91-1-117.86,58.97-121.82ZM165.87,107.83c-44.99,3.68-71.84,52.91-50.45,93,24.06,45.1,90.15,43.71,112.94-1.83,22.2-44.36-13.55-95.17-62.48-91.17Z" fill="#10153f" stroke="#10153f" stroke-miterlimit="10" stroke-width=".23"/>
          <g>
            <path d="M165.87,107.83c48.93-4,84.68,46.81,62.48,91.17-22.79,45.54-88.88,46.93-112.94,1.83-21.39-40.09,5.46-89.32,50.45-93Z" fill="#8dd3d9"/>
            <g clip-path="url(#clippath)">
              <g>
                <g>
                  <path color-rendering="auto" d="M213.75,159.08c-.23-.15-.46-.29-.7-.43-2.03-1.17-4.4-2.03-6.42-2.11-2.26-.09-4.26.35-5.79,1.51-1.09-.63-1.72-.99-2.7-1.25-1.02-.27-2.2-.28-3-.24-.78-1.53-2.33-3.14-3.81-3.81-1.6-.73-3.01-1.03-4.36-.71-1.38.33-2.21,1.28-2.64,2.35-.29.73-.18,1.67.1,2.55.28.88.93,1.78,1.73,2.62.96.9,2.06,1.39,3.07,1.82-.03.87-.14,2.25.28,3.25.59,1.45,1.19,2.69,2.59,3.9,1.81,1.56,4.22,2.71,6.4,3.24,1.37.33,2.85.22,3.88-.06.69.63,1.48,1.15,2.28,1.63,1.99,1.21,3.98,1.95,6.04,2.19.66.08,1.97.12,2.57.06.64,1.27,1.38,2.54,2.52,3.59,1.2,1.12,2.83,2.36,4.48,2.96l9.99-2.14c.66-1.33.49-2.99-.09-4.7-.58-1.73-2.13-4.02-3.87-5.38-2.09-1.64-4.03-2.26-6.62-2.61-.26-1.32-.7-3.05-1.77-4.43-1.09-1.41-2.54-2.78-4.15-3.83h0Z" image-rendering="auto" shape-rendering="auto" fill="#8dd3d9"/>
                  <path d="M98.55,213.88l21.01-8.49,8.36,2.05,21.92-8.21,14.66,3.19,25.5-9.36,28.63,5.44,1.2-18.45c3.47-1.46,8.01-1.01,11.54-.91l2.01,22.17,4.27,35.14H100.68l-2.13-22.56Z" fill="#10153f" fill-rule="evenodd"/>
                  <path d="M220.77,180.81c1.83-.88,3.37-.72,5.06-.69l-.19,19.71-5.31-1.01.44-18.01Z" fill="#19b9ee" fill-rule="evenodd"/>
                  <path color-rendering="auto" d="M214,158.61c-.23-.15-.47-.3-.71-.43-2.06-1.19-4.47-2.05-6.52-2.12-2.3-.08-4.36.27-5.93,1.46-1.1-.63-1.91-.92-2.99-1.21-.88-.24-1.71-.27-2.53-.23-.23-.48-.54-.96-.91-1.41-.56-.68-1.25-1.28-2.08-1.79-.27-.17-.82-.5-1.11-.63-1.63-.72-3.19-.84-4.56-.5-1.41.34-2.26,1.32-2.7,2.41-.3.75-.19,1.71.09,2.61.28.9.8,1.87,1.61,2.72.97.91,2.03,1.66,3.06,2.09-.04.89.04,2.01.46,3.04.6,1.48,1.49,3.1,2.91,4.32,1.83,1.58,4.28,2.75,6.49,3.27,1.39.33,2.9.21,3.95-.08.7.64,1.45,1.23,2.26,1.73,2.02,1.23,4.36,2.02,6.45,2.26.67.08,1.3.07,1.91,0,.65,1.3,1.44,2.52,2.59,3.59,1.22,1.13,2.64,2.05,4.31,2.65l.49-.6c-1.68-.53-3.12-1.41-4.31-2.53-1.05-.99-1.68-2.02-2.26-3.24.72-.15,1.41-.37,2.08-.66l-1-1.17c-1.35.58-2.82.82-4.48.64-1.77-.19-3.74-.79-5.47-1.8-1.61-.94-3-2.29-4.1-3.69l-.84.22c.44.59.94,1.18,1.47,1.74-.98.18-2.43.21-3.66-.08-1.55-.37-3.23-1.15-4.56-2.21-1.43-1.14-2.56-2.64-3.23-4.08-.49-1.04-.65-1.99-.57-3.02.71.18,1.34.23,1.82.22l-.31-.69c-.69.06-1.47-.08-2.34-.44-.97-.41-1.92-1.08-2.64-1.83-.63-.66-1.05-1.46-1.29-2.19-.28-.87-.37-1.78-.08-2.47.4-.95,1.22-1.75,2.38-2.02.99-.23,2.3-.06,3.49.43,1.26.51,2.16,1.25,2.91,2.13.6.71.85,1.21,1.07,2.04.94-.2,2.09-.06,3.22.23,1.08.28,2.3.8,3.18,1.47,0,0,.42-.48.71-.65,1.44-.84,3.13-1.03,5.07-.93,1.78.09,3.83.82,5.59,1.85,1.72,1,3.27,2.45,4.4,3.94.96,1.27,1.5,2.57,1.82,3.99l.05.92s1.16.1,1.76.2c2.23.38,4.12,1.4,5.71,2.8,1.54,1.35,2.57,3.16,3.02,4.76.36,1.28.23,2.37-.33,3.49l1.59.92c.76-1.29.87-3.01.3-4.77-.56-1.72-1.67-3.64-3.5-5.14-2.07-1.7-4.34-2.85-6.98-3.19-.26-1.35-.97-3.02-2.05-4.42-1.11-1.44-2.57-2.83-4.2-3.89h0Z" image-rendering="auto" shape-rendering="auto" fill="#10153f"/>
                  <path color-rendering="auto" d="M184.42,139.07c-.23-.15-.46-.29-.7-.43-2.03-1.17-4.4-2.03-6.42-2.11-2.26-.09-4.26.35-5.79,1.51-1.09-.63-1.72-.99-2.7-1.25-1.02-.27-2.2-.28-3-.24-.78-1.53-2.33-3.14-3.81-3.81-1.6-.73-3.01-1.03-4.36-.71-1.38.33-2.21,1.28-2.64,2.35-.29.73-.18,1.67.1,2.55.28.88.93,1.78,1.73,2.62.96.9,2.06,1.39,3.07,1.82-.03.87-.14,2.25.28,3.25.59,1.45,1.19,2.69,2.59,3.9,1.81,1.56,4.22,2.71,6.4,3.24,1.37.33,2.85.22,3.88-.06.69.63,1.48,1.15,2.28,1.63,1.99,1.21,3.98,1.95,6.04,2.19.66.08,1.97.12,2.57.06.64,1.27,1.38,2.54,2.52,3.59,1.2,1.12,2.83,2.36,4.48,2.96l9.99-2.14c.66-1.33.49-2.99-.09-4.7-.58-1.73-2.13-4.02-3.87-5.38-2.09-1.64-4.03-2.26-6.62-2.61-.26-1.32-.7-3.05-1.77-4.43-1.09-1.41-2.54-2.78-4.15-3.83h0Z" image-rendering="auto" shape-rendering="auto" fill="#8dd3d9"/>
                  <path color-rendering="auto" d="M184.68,138.6c-.23-.15-.47-.3-.71-.43-2.06-1.19-4.47-2.05-6.52-2.12-2.3-.08-4.36.27-5.93,1.46-1.1-.63-1.91-.92-2.99-1.21-.88-.24-1.71-.27-2.53-.23-.23-.48-.54-.96-.91-1.41-.56-.68-1.25-1.28-2.08-1.79-.27-.17-.82-.5-1.11-.63-1.63-.72-3.19-.84-4.56-.5-1.41.34-2.26,1.32-2.7,2.41-.3.75-.19,1.71.09,2.61.28.9.8,1.87,1.61,2.72.97.91,2.03,1.66,3.06,2.09-.04.89.04,2.01.46,3.04.6,1.48,1.49,3.1,2.91,4.32,1.83,1.58,4.28,2.75,6.49,3.27,1.39.33,2.9.21,3.95-.08.7.64,1.45,1.23,2.26,1.73,2.02,1.23,4.36,2.02,6.45,2.26.67.08,1.3.07,1.91,0,.65,1.3,1.44,2.52,2.59,3.59,1.22,1.13,2.64,2.05,4.31,2.65l.49-.6c-1.68-.53-3.12-1.41-4.31-2.53-1.05-.99-1.68-2.02-2.26-3.24.72-.15,1.41-.37,2.08-.66l-1-1.17c-1.35.58-2.82.82-4.48.64-1.77-.19-3.74-.79-5.47-1.8-1.61-.94-3-2.29-4.1-3.69l-.84.22c.44.59.94,1.18,1.47,1.74-.98.18-2.43.21-3.66-.08-1.55-.37-3.23-1.15-4.56-2.21-1.43-1.14-2.56-2.64-3.23-4.08-.49-1.04-.65-1.99-.57-3.02.71.18,1.34.23,1.82.22l-.31-.69c-.69.06-1.47-.08-2.34-.44-.97-.41-1.92-1.08-2.64-1.83-.63-.66-1.05-1.46-1.29-2.19-.28-.87-.37-1.78-.08-2.47.4-.95,1.22-1.75,2.38-2.02.99-.23,2.3-.06,3.49.43,1.26.51,2.16,1.25,2.91,2.13.6.71.85,1.21,1.07,2.04.94-.2,2.09-.06,3.22.23,1.08.28,2.3.8,3.18,1.47,0,0,.42-.48.71-.65,1.44-.84,3.13-1.03,5.07-.93,1.78.09,3.83.82,5.59,1.85,1.72,1,3.27,2.45,4.4,3.94.96,1.27,1.5,2.57,1.82,3.99l.05.92s1.16.1,1.76.2c2.23.38,4.12,1.4,5.71,2.8,1.54,1.35,2.57,3.16,3.02,4.76.36,1.28.23,2.37-.33,3.49l1.59.92c.76-1.29.87-3.01.3-4.77-.56-1.72-1.67-3.64-3.5-5.14-2.07-1.7-4.34-2.85-6.98-3.19-.26-1.35-.97-3.02-2.05-4.42-1.11-1.44-2.57-2.83-4.2-3.89h0Z" image-rendering="auto" shape-rendering="auto" fill="#10153f"/>
                </g>
                <path color-rendering="auto" d="M192.51,155c-.23-.15-.46-.29-.7-.43-2.03-1.17-4.4-2.03-6.42-2.11-2.26-.09-4.26.35-5.79,1.51-1.09-.63-1.72-.99-2.7-1.25-1.02-.27-2.2-.28-3-.24-.78-1.53-2.33-3.14-3.81-3.81-1.6-.73-3.01-1.03-4.36-.71-1.38.33-2.21,1.28-2.64,2.35-.29.73-.18,1.67.1,2.55.28.88.93,1.78,1.73,2.62.96.9,2.06,1.39,3.07,1.82-.03.87-.14,2.25.28,3.25.59,1.45,1.19,2.69,2.59,3.9,1.81,1.56,4.22,2.71,6.4,3.24,1.37.33,2.85.22,3.88-.06.69.63,1.48,1.15,2.28,1.63,1.99,1.21,3.98,1.95,6.04,2.19.66.08,1.97.12,2.57.06.64,1.27,1.38,2.54,2.52,3.59,1.2,1.12,2.83,2.36,4.48,2.96l9.99-2.14c.66-1.33.49-2.99-.09-4.7-.58-1.73-2.13-4.02-3.87-5.38-2.09-1.64-4.03-2.26-6.62-2.61-.26-1.32-.7-3.05-1.77-4.43-1.09-1.41-2.54-2.78-4.15-3.83h0Z" image-rendering="auto" shape-rendering="auto" fill="#8dd3d9"/>
                <path d="M77.31,209.8l21.01-8.49,8.36,2.05,21.92-8.21,14.66,3.19,25.5-9.36,28.63,5.44,1.2-18.45c3.47-1.46,8.01-1.01,11.54-.91l2.01,22.17,4.27,35.14H79.44l-2.13-22.56Z" fill="#10153f" fill-rule="evenodd"/>
                <g>
                  <path d="M168.75,192.28l-40.16,12.12v-6.68l-30.28,9.44v-3.96l-19.65,7.02.29,12.43,89.81-2.04v-28.32ZM162.23,205.55v8.29l-33.64,1.73v-5.75l33.64-4.27ZM125.35,210.23v5.5l-27.04,1.39v-3.46l27.04-3.43ZM96.41,213.9v3.32l-15.17.78v-2.17l15.17-1.92Z" fill="#19b9ee" fill-rule="evenodd"/>
                  <path d="M199.53,176.73c1.83-.88,3.37-.72,5.06-.69l-.19,19.71-5.31-1.01.44-18.01Z" fill="#19b9ee" fill-rule="evenodd"/>
                </g>
                <path color-rendering="auto" d="M192.76,154.53c-.23-.15-.47-.3-.71-.43-2.06-1.19-4.47-2.05-6.52-2.12-2.3-.08-4.36.27-5.93,1.46-1.1-.63-1.91-.92-2.99-1.21-.88-.24-1.71-.27-2.53-.23-.23-.48-.54-.96-.91-1.41-.56-.68-1.25-1.28-2.08-1.79-.27-.17-.82-.5-1.11-.63-1.63-.72-3.19-.84-4.56-.5-1.41.34-2.26,1.32-2.7,2.41-.3.75-.19,1.71.09,2.61.28.9.8,1.87,1.61,2.72.97.91,2.03,1.66,3.06,2.09-.04.89.04,2.01.46,3.04.6,1.48,1.49,3.1,2.91,4.32,1.83,1.58,4.28,2.75,6.49,3.27,1.39.33,2.9.21,3.95-.08.7.64,1.45,1.23,2.26,1.73,2.02,1.23,4.36,2.02,6.45,2.26.67.08,1.3.07,1.91,0,.65,1.3,1.44,2.52,2.59,3.59,1.22,1.13,2.64,2.05,4.31,2.65l.49-.6c-1.68-.53-3.12-1.41-4.31-2.53-1.05-.99-1.68-2.02-2.26-3.24.72-.15,1.41-.37,2.08-.66l-1-1.17c-1.35.58-2.82.82-4.48.64-1.77-.19-3.74-.79-5.47-1.8-1.61-.94-3-2.29-4.1-3.69l-.84.22c.44.59.94,1.18,1.47,1.74-.98.18-2.43.21-3.66-.08-1.55-.37-3.23-1.15-4.56-2.21-1.43-1.14-2.56-2.64-3.23-4.08-.49-1.04-.65-1.99-.57-3.02.71.18,1.34.23,1.82.22l-.31-.69c-.69.06-1.47-.08-2.34-.44-.97-.41-1.92-1.08-2.64-1.83-.63-.66-1.05-1.46-1.29-2.19-.28-.87-.37-1.78-.08-2.47.4-.95,1.22-1.75,2.38-2.02.99-.23,2.3-.06,3.49.43,1.26.51,2.16,1.25,2.91,2.13.6.71.85,1.21,1.07,2.04.94-.2,2.09-.06,3.22.23,1.08.28,2.3.8,3.18,1.47,0,0,.42-.48.71-.65,1.44-.84,3.13-1.03,5.07-.93,1.78.09,3.83.82,5.59,1.85,1.72,1,3.27,2.45,4.4,3.94.96,1.27,1.5,2.57,1.82,3.99l.05.92s1.16.1,1.76.2c2.23.38,4.12,1.4,5.71,2.8,1.54,1.35,2.57,3.16,3.02,4.76.36,1.28.23,2.37-.33,3.49l1.59.92c.76-1.29.87-3.01.3-4.77-.56-1.72-1.67-3.64-3.5-5.14-2.07-1.7-4.34-2.85-6.98-3.19-.26-1.35-.97-3.02-2.05-4.42-1.11-1.44-2.57-2.83-4.2-3.89h0Z" image-rendering="auto" shape-rendering="auto" fill="#10153f"/>
                <path color-rendering="auto" d="M163.19,134.99c-.23-.15-.46-.29-.7-.43-2.03-1.17-4.4-2.03-6.42-2.11-2.26-.09-4.26.35-5.79,1.51-1.09-.63-1.72-.99-2.7-1.25-1.02-.27-2.2-.28-3-.24-.78-1.53-2.33-3.14-3.81-3.81-1.6-.73-3.01-1.03-4.36-.71-1.38.33-2.21,1.28-2.64,2.35-.29.73-.18,1.67.1,2.55.28.88.93,1.78,1.73,2.62.96.9,2.06,1.39,3.07,1.82-.03.87-.14,2.25.28,3.25.59,1.45,1.19,2.69,2.59,3.9,1.81,1.56,4.22,2.71,6.4,3.24,1.37.33,2.85.22,3.88-.06.69.63,1.48,1.15,2.28,1.63,1.99,1.21,3.98,1.95,6.04,2.19.66.08,1.97.12,2.57.06.64,1.27,1.38,2.54,2.52,3.59,1.2,1.12,2.83,2.36,4.48,2.96l9.99-2.14c.66-1.33.49-2.99-.09-4.7-.58-1.73-2.13-4.02-3.87-5.38-2.09-1.64-4.03-2.26-6.62-2.61-.26-1.32-.7-3.05-1.77-4.43-1.09-1.41-2.54-2.78-4.15-3.83h0Z" image-rendering="auto" shape-rendering="auto" fill="#8dd3d9"/>
                <path color-rendering="auto" d="M163.44,134.52c-.23-.15-.47-.3-.71-.43-2.06-1.19-4.47-2.05-6.52-2.12-2.3-.08-4.36.27-5.93,1.46-1.1-.63-1.91-.92-2.99-1.21-.88-.24-1.71-.27-2.53-.23-.23-.48-.54-.96-.91-1.41-.56-.68-1.25-1.28-2.08-1.79-.27-.17-.82-.5-1.11-.63-1.63-.72-3.19-.84-4.56-.5-1.41.34-2.26,1.32-2.7,2.41-.3.75-.19,1.71.09,2.61.28.9.8,1.87,1.61,2.72.97.91,2.03,1.66,3.06,2.09-.04.89.04,2.01.46,3.04.6,1.48,1.49,3.1,2.91,4.32,1.83,1.58,4.28,2.75,6.49,3.27,1.39.33,2.9.21,3.95-.08.7.64,1.45,1.23,2.26,1.73,2.02,1.23,4.36,2.02,6.45,2.26.67.08,1.3.07,1.91,0,.65,1.3,1.44,2.52,2.59,3.59,1.22,1.13,2.64,2.05,4.31,2.65l.49-.6c-1.68-.53-3.12-1.41-4.31-2.53-1.05-.99-1.68-2.02-2.26-3.24.72-.15,1.41-.37,2.08-.66l-1-1.17c-1.35.58-2.82.82-4.48.64-1.77-.19-3.74-.79-5.47-1.8-1.61-.94-3-2.29-4.1-3.69l-.84.22c.44.59.94,1.18,1.47,1.74-.98.18-2.43.21-3.66-.08-1.55-.37-3.23-1.15-4.56-2.21-1.43-1.14-2.56-2.64-3.23-4.08-.49-1.04-.65-1.99-.57-3.02.71.18,1.34.23,1.82.22l-.31-.69c-.69.06-1.47-.08-2.34-.44-.97-.41-1.92-1.08-2.64-1.83-.63-.66-1.05-1.46-1.29-2.19-.28-.87-.37-1.78-.08-2.47.4-.95,1.22-1.75,2.38-2.02.99-.23,2.3-.06,3.49.43,1.26.51,2.16,1.25,2.91,2.13.6.71.85,1.21,1.07,2.04.94-.2,2.09-.06,3.22.23,1.08.28,2.3.8,3.18,1.47,0,0,.42-.48.71-.65,1.44-.84,3.13-1.03,5.07-.93,1.78.09,3.83.82,5.59,1.85,1.72,1,3.27,2.45,4.4,3.94.96,1.27,1.5,2.57,1.82,3.99l.05.92s1.16.1,1.76.2c2.23.38,4.12,1.4,5.71,2.8,1.54,1.35,2.57,3.16,3.02,4.76.36,1.28.23,2.37-.33,3.49l1.59.92c.76-1.29.87-3.01.3-4.77-.56-1.72-1.67-3.64-3.5-5.14-2.07-1.7-4.34-2.85-6.98-3.19-.26-1.35-.97-3.02-2.05-4.42-1.11-1.44-2.57-2.83-4.2-3.89h0Z" image-rendering="auto" shape-rendering="auto" fill="#10153f"/>
                <g>
                  <path color-rendering="auto" d="M171.42,150.99c-.23-.15-.46-.29-.7-.43-2.03-1.17-4.4-2.03-6.42-2.11-2.26-.09-4.26.35-5.79,1.51-1.09-.63-1.72-.99-2.7-1.25-1.02-.27-2.2-.28-3-.24-.78-1.53-2.33-3.14-3.81-3.81-1.6-.73-3.01-1.03-4.36-.71-1.38.33-2.21,1.28-2.64,2.35-.29.73-.18,1.67.1,2.55.28.88.93,1.78,1.73,2.62.96.9,2.06,1.39,3.07,1.82-.03.87-.14,2.25.28,3.25.59,1.45,1.19,2.69,2.59,3.9,1.81,1.56,4.22,2.71,6.4,3.24,1.37.33,2.85.22,3.88-.06.69.63,1.48,1.15,2.28,1.63,1.99,1.21,3.98,1.95,6.04,2.19.66.08,1.97.12,2.57.06.64,1.27,1.38,2.54,2.52,3.59,1.2,1.12,2.83,2.36,4.48,2.96l9.99-2.14c.66-1.33.49-2.99-.09-4.7-.58-1.73-2.13-4.02-3.87-5.38-2.09-1.64-4.03-2.26-6.62-2.61-.26-1.32-.7-3.05-1.77-4.43-1.09-1.41-2.54-2.78-4.15-3.83h0Z" image-rendering="auto" shape-rendering="auto" fill="#8dd3d9"/>
                  <path d="M56.23,205.79l21.01-8.49,8.36,2.05,21.92-8.21,14.66,3.19,25.5-9.36,28.63,5.44,1.2-18.45c3.47-1.46,8.01-1.01,11.54-.91l2.01,22.17,4.27,35.14H58.36l-2.13-22.56Z" fill="#10153f" fill-rule="evenodd"/>
                  <g>
                    <path d="M147.66,188.27l-40.16,12.12v-6.68l-30.28,9.44v-3.96l-19.65,7.02.29,12.43,89.81-2.04v-28.32ZM141.14,201.54v8.29l-33.64,1.73v-5.75l33.64-4.27ZM104.26,206.22v5.5l-27.04,1.39v-3.46l27.04-3.43ZM75.32,209.89v3.32l-15.17.78v-2.17l15.17-1.92Z" fill="#19b9ee" fill-rule="evenodd"/>
                    <path d="M178.45,172.72c1.83-.88,3.37-.72,5.06-.69l-.19,19.71-5.31-1.01.44-18.01Z" fill="#19b9ee" fill-rule="evenodd"/>
                  </g>
                  <path color-rendering="auto" d="M171.68,150.51c-.23-.15-.47-.3-.71-.43-2.06-1.19-4.47-2.05-6.52-2.12-2.3-.08-4.36.27-5.93,1.46-1.1-.63-1.91-.92-2.99-1.21-.88-.24-1.71-.27-2.53-.23-.23-.48-.54-.96-.91-1.41-.56-.68-1.25-1.28-2.08-1.79-.27-.17-.82-.5-1.11-.63-1.63-.72-3.19-.84-4.56-.5-1.41.34-2.26,1.32-2.7,2.41-.3.75-.19,1.71.09,2.61.28.9.8,1.87,1.61,2.72.97.91,2.03,1.66,3.06,2.09-.04.89.04,2.01.46,3.04.6,1.48,1.49,3.1,2.91,4.32,1.83,1.58,4.28,2.75,6.49,3.27,1.39.33,2.9.21,3.95-.08.7.64,1.45,1.23,2.26,1.73,2.02,1.23,4.36,2.02,6.45,2.26.67.08,1.3.07,1.91,0,.65,1.3,1.44,2.52,2.59,3.59,1.22,1.13,2.64,2.05,4.31,2.65l.49-.6c-1.68-.53-3.12-1.41-4.31-2.53-1.05-.99-1.68-2.02-2.26-3.24.72-.15,1.41-.37,2.08-.66l-1-1.17c-1.35.58-2.82.82-4.48.64-1.77-.19-3.74-.79-5.47-1.8-1.61-.94-3-2.29-4.1-3.69l-.84.22c.44.59.94,1.18,1.47,1.74-.98.18-2.43.21-3.66-.08-1.55-.37-3.23-1.15-4.56-2.21-1.43-1.14-2.56-2.64-3.23-4.08-.49-1.04-.65-1.99-.57-3.02.71.18,1.34.23,1.82.22l-.31-.69c-.69.06-1.47-.08-2.34-.44-.97-.41-1.92-1.08-2.64-1.83-.63-.66-1.05-1.46-1.29-2.19-.28-.87-.37-1.78-.08-2.47.4-.95,1.22-1.75,2.38-2.02.99-.23,2.3-.06,3.49.43,1.26.51,2.16,1.25,2.91,2.13.6.71.85,1.21,1.07,2.04.94-.2,2.09-.06,3.22.23,1.08.28,2.3.8,3.18,1.47,0,0,.42-.48.71-.65,1.44-.84,3.13-1.03,5.07-.93,1.78.09,3.83.82,5.59,1.85,1.72,1,3.27,2.45,4.4,3.94.96,1.27,1.5,2.57,1.82,3.99l.05.92s1.16.1,1.76.2c2.23.38,4.12,1.4,5.71,2.8,1.54,1.35,2.57,3.16,3.02,4.76.36,1.28.23,2.37-.33,3.49l1.59.92c.76-1.29.87-3.01.3-4.77-.56-1.72-1.67-3.64-3.5-5.14-2.07-1.7-4.34-2.85-6.98-3.19-.26-1.35-.97-3.02-2.05-4.42-1.11-1.44-2.57-2.83-4.2-3.89h0Z" image-rendering="auto" shape-rendering="auto" fill="#10153f"/>
                  <path color-rendering="auto" d="M142.1,130.98c-.23-.15-.46-.29-.7-.43-2.03-1.17-4.4-2.03-6.42-2.11-2.26-.09-4.26.35-5.79,1.51-1.09-.63-1.72-.99-2.7-1.25-1.02-.27-2.2-.28-3-.24-.78-1.53-2.33-3.14-3.81-3.81-1.6-.73-3.01-1.03-4.36-.71-1.38.33-2.21,1.28-2.64,2.35-.29.73-.18,1.67.1,2.55.28.88.93,1.78,1.73,2.62.96.9,2.06,1.39,3.07,1.82-.03.87-.14,2.25.28,3.25.59,1.45,1.19,2.69,2.59,3.9,1.81,1.56,4.22,2.71,6.4,3.24,1.37.33,2.85.22,3.88-.06.69.63,1.48,1.15,2.28,1.63,1.99,1.21,3.98,1.95,6.04,2.19.66.08,1.97.12,2.57.06.64,1.27,1.38,2.54,2.52,3.59,1.2,1.12,2.83,2.36,4.48,2.96l9.99-2.14c.66-1.33.49-2.99-.09-4.7-.58-1.73-2.13-4.02-3.87-5.38-2.09-1.64-4.03-2.26-6.62-2.61-.26-1.32-.7-3.05-1.77-4.43-1.09-1.41-2.54-2.78-4.15-3.83h0Z" image-rendering="auto" shape-rendering="auto" fill="#8dd3d9"/>
                  <path color-rendering="auto" d="M142.36,130.51c-.23-.15-.47-.3-.71-.43-2.06-1.19-4.47-2.05-6.52-2.12-2.3-.08-4.36.27-5.93,1.46-1.1-.63-1.91-.92-2.99-1.21-.88-.24-1.71-.27-2.53-.23-.23-.48-.54-.96-.91-1.41-.56-.68-1.25-1.28-2.08-1.79-.27-.17-.82-.5-1.11-.63-1.63-.72-3.19-.84-4.56-.5-1.41.34-2.26,1.32-2.7,2.41-.3.75-.19,1.71.09,2.61.28.9.8,1.87,1.61,2.72.97.91,2.03,1.66,3.06,2.09-.04.89.04,2.01.46,3.04.6,1.48,1.49,3.1,2.91,4.32,1.83,1.58,4.28,2.75,6.49,3.27,1.39.33,2.9.21,3.95-.08.7.64,1.45,1.23,2.26,1.73,2.02,1.23,4.36,2.02,6.45,2.26.67.08,1.3.07,1.91,0,.65,1.3,1.44,2.52,2.59,3.59,1.22,1.13,2.64,2.05,4.31,2.65l.49-.6c-1.68-.53-3.12-1.41-4.31-2.53-1.05-.99-1.68-2.02-2.26-3.24.72-.15,1.41-.37,2.08-.66l-1-1.17c-1.35.58-2.82.82-4.48.64-1.77-.19-3.74-.79-5.47-1.8-1.61-.94-3-2.29-4.1-3.69l-.84.22c.44.59.94,1.18,1.47,1.74-.98.18-2.43.21-3.66-.08-1.55-.37-3.23-1.15-4.56-2.21-1.43-1.14-2.56-2.64-3.23-4.08-.49-1.04-.65-1.99-.57-3.02.71.18,1.34.23,1.82.22l-.31-.69c-.69.06-1.47-.08-2.34-.44-.97-.41-1.92-1.08-2.64-1.83-.63-.66-1.05-1.46-1.29-2.19-.28-.87-.37-1.78-.08-2.47.4-.95,1.22-1.75,2.38-2.02.99-.23,2.3-.06,3.49.43,1.26.51,2.16,1.25,2.91,2.13.6.71.85,1.21,1.07,2.04.94-.2,2.09-.06,3.22.23,1.08.28,2.3.8,3.18,1.47,0,0,.42-.48.71-.65,1.44-.84,3.13-1.03,5.07-.93,1.78.09,3.83.82,5.59,1.85,1.72,1,3.27,2.45,4.4,3.94.96,1.27,1.5,2.57,1.82,3.99l.05.92s1.16.1,1.76.2c2.23.38,4.12,1.4,5.71,2.8,1.54,1.35,2.57,3.16,3.02,4.76.36,1.28.23,2.37-.33,3.49l1.59.92c.76-1.29.87-3.01.3-4.77-.56-1.72-1.67-3.64-3.5-5.14-2.07-1.7-4.34-2.85-6.98-3.19-.26-1.35-.97-3.02-2.05-4.42-1.11-1.44-2.57-2.83-4.2-3.89h0Z" image-rendering="auto" shape-rendering="auto" fill="#10153f"/>
                </g>
                <g>
                  <path color-rendering="auto" d="M150.34,147.08c-.23-.15-.46-.29-.7-.43-2.03-1.17-4.4-2.03-6.42-2.11-2.26-.09-4.26.35-5.79,1.51-1.09-.63-1.72-.99-2.7-1.25-1.02-.27-2.2-.28-3-.24-.78-1.53-2.33-3.14-3.81-3.81-1.6-.73-3.01-1.03-4.36-.71-1.38.33-2.21,1.28-2.64,2.35-.29.73-.18,1.67.1,2.55.28.88.93,1.78,1.73,2.62.96.9,2.06,1.39,3.07,1.82-.03.87-.14,2.25.28,3.25.59,1.45,1.19,2.69,2.59,3.9,1.81,1.56,4.22,2.71,6.4,3.24,1.37.33,2.85.22,3.88-.06.69.63,1.48,1.15,2.28,1.63,1.99,1.21,3.98,1.95,6.04,2.19.66.08,1.97.12,2.57.06.64,1.27,1.38,2.54,2.52,3.59,1.2,1.12,2.83,2.36,4.48,2.96l9.99-2.14c.66-1.33.49-2.99-.09-4.7-.58-1.73-2.13-4.02-3.87-5.38-2.09-1.64-4.03-2.26-6.62-2.61-.26-1.32-.7-3.05-1.77-4.43-1.09-1.41-2.54-2.78-4.15-3.83h0Z" image-rendering="auto" shape-rendering="auto" fill="#8dd3d9"/>
                  <path d="M155.21,186.5l1.2-18.45c3.47-1.46,8.01-1.01,11.54-.91l2.01,22.17" fill="#10153f" fill-rule="evenodd"/>
                  <path d="M157.36,168.82c1.83-.88,3.37-.72,5.06-.69l-.19,19.71-5.31-1.01.44-18.01Z" fill="#19b9ee" fill-rule="evenodd"/>
                  <path color-rendering="auto" d="M150.59,146.61c-.23-.15-.47-.3-.71-.43-2.06-1.19-4.47-2.05-6.52-2.12-2.3-.08-4.36.27-5.93,1.46-1.1-.63-1.91-.92-2.99-1.21-.88-.24-1.71-.27-2.53-.23-.23-.48-.54-.96-.91-1.41-.56-.68-1.25-1.28-2.08-1.79-.27-.17-.82-.5-1.11-.63-1.63-.72-3.19-.84-4.56-.5-1.41.34-2.26,1.32-2.7,2.41-.3.75-.19,1.71.09,2.61.28.9.8,1.87,1.61,2.72.97.91,2.03,1.66,3.06,2.09-.04.89.04,2.01.46,3.04.6,1.48,1.49,3.1,2.91,4.32,1.83,1.58,4.28,2.75,6.49,3.27,1.39.33,2.9.21,3.95-.08.7.64,1.45,1.23,2.26,1.73,2.02,1.23,4.36,2.02,6.45,2.26.67.08,1.3.07,1.91,0,.65,1.3,1.44,2.52,2.59,3.59,1.22,1.13,2.64,2.05,4.31,2.65l.49-.6c-1.68-.53-3.12-1.41-4.31-2.53-1.05-.99-1.68-2.02-2.26-3.24.72-.15,1.41-.37,2.08-.66l-1-1.17c-1.35.58-2.82.82-4.48.64-1.77-.19-3.74-.79-5.47-1.8-1.61-.94-3-2.29-4.1-3.69l-.84.22c.44.59.94,1.18,1.47,1.74-.98.18-2.43.21-3.66-.08-1.55-.37-3.23-1.15-4.56-2.21-1.43-1.14-2.56-2.64-3.23-4.08-.49-1.04-.65-1.99-.57-3.02.71.18,1.34.23,1.82.22l-.31-.69c-.69.06-1.47-.08-2.34-.44-.97-.41-1.92-1.08-2.64-1.83-.63-.66-1.05-1.46-1.29-2.19-.28-.87-.37-1.78-.08-2.47.4-.95,1.22-1.75,2.38-2.02.99-.23,2.3-.06,3.49.43,1.26.51,2.16,1.25,2.91,2.13.6.71.85,1.21,1.07,2.04.94-.2,2.09-.06,3.22.23,1.08.28,2.3.8,3.18,1.47,0,0,.42-.48.71-.65,1.44-.84,3.13-1.03,5.07-.93,1.78.09,3.83.82,5.59,1.85,1.72,1,3.27,2.45,4.4,3.94.96,1.27,1.5,2.57,1.82,3.99l.05.92s1.16.1,1.76.2c2.23.38,4.12,1.4,5.71,2.8,1.54,1.35,2.57,3.16,3.02,4.76.36,1.28.23,2.37-.33,3.49l1.59.92c.76-1.29.87-3.01.3-4.77-.56-1.72-1.67-3.64-3.5-5.14-2.07-1.7-4.34-2.85-6.98-3.19-.26-1.35-.97-3.02-2.05-4.42-1.11-1.44-2.57-2.83-4.2-3.89h0Z" image-rendering="auto" shape-rendering="auto" fill="#10153f"/>
                  <path color-rendering="auto" d="M121.02,127.08c-.23-.15-.46-.29-.7-.43-2.03-1.17-4.4-2.03-6.42-2.11-2.26-.09-4.26.35-5.79,1.51-1.09-.63-1.72-.99-2.7-1.25-1.02-.27-2.2-.28-3-.24-.78-1.53-2.33-3.14-3.81-3.81-1.6-.73-3.01-1.03-4.36-.71-1.38.33-2.21,1.28-2.64,2.35-.29.73-.18,1.67.1,2.55.28.88.93,1.78,1.73,2.62.96.9,2.06,1.39,3.07,1.82-.03.87-.14,2.25.28,3.25.59,1.45,1.19,2.69,2.59,3.9,1.81,1.56,4.22,2.71,6.4,3.24,1.37.33,2.85.22,3.88-.06.69.63,1.48,1.15,2.28,1.63,1.99,1.21,3.98,1.95,6.04,2.19.66.08,1.97.12,2.57.06.64,1.27,1.38,2.54,2.52,3.59,1.2,1.12,2.83,2.36,4.48,2.96l9.99-2.14c.66-1.33.49-2.99-.09-4.7-.58-1.73-2.13-4.02-3.87-5.38-2.09-1.64-4.03-2.26-6.62-2.61-.26-1.32-.7-3.05-1.77-4.43-1.09-1.41-2.54-2.78-4.15-3.83h0Z" image-rendering="auto" shape-rendering="auto" fill="#8dd3d9"/>
                  <path color-rendering="auto" d="M121.27,126.61c-.23-.15-.47-.3-.71-.43-2.06-1.19-4.47-2.05-6.52-2.12-2.3-.08-4.36.27-5.93,1.46-1.1-.63-1.91-.92-2.99-1.21-.88-.24-1.71-.27-2.53-.23-.23-.48-.54-.96-.91-1.41-.56-.68-1.25-1.28-2.08-1.79-.27-.17-.82-.5-1.11-.63-1.63-.72-3.19-.84-4.56-.5-1.41.34-2.26,1.32-2.7,2.41-.3.75-.19,1.71.09,2.61.28.9.8,1.87,1.61,2.72.97.91,2.03,1.66,3.06,2.09-.04.89.04,2.01.46,3.04.6,1.48,1.49,3.1,2.91,4.32,1.83,1.58,4.28,2.75,6.49,3.27,1.39.33,2.9.21,3.95-.08.7.64,1.45,1.23,2.26,1.73,2.02,1.23,4.36,2.02,6.45,2.26.67.08,1.3.07,1.91,0,.65,1.3,1.44,2.52,2.59,3.59,1.22,1.13,2.64,2.05,4.31,2.65l.49-.6c-1.68-.53-3.12-1.41-4.31-2.53-1.05-.99-1.68-2.02-2.26-3.24.72-.15,1.41-.37,2.08-.66l-1-1.17c-1.35.58-2.82.82-4.48.64-1.77-.19-3.74-.79-5.47-1.8-1.61-.94-3-2.29-4.1-3.69l-.84.22c.44.59.94,1.18,1.47,1.74-.98.18-2.43.21-3.66-.08-1.55-.37-3.23-1.15-4.56-2.21-1.43-1.14-2.56-2.64-3.23-4.08-.49-1.04-.65-1.99-.57-3.02.71.18,1.34.23,1.82.22l-.31-.69c-.69.06-1.47-.08-2.34-.44-.97-.41-1.92-1.08-2.64-1.83-.63-.66-1.05-1.46-1.29-2.19-.28-.87-.37-1.78-.08-2.47.4-.95,1.22-1.75,2.38-2.02.99-.23,2.3-.06,3.49.43,1.26.51,2.16,1.25,2.91,2.13.6.71.85,1.21,1.07,2.04.94-.2,2.09-.06,3.22.23,1.08.28,2.3.8,3.18,1.47,0,0,.42-.48.71-.65,1.44-.84,3.13-1.03,5.07-.93,1.78.09,3.83.82,5.59,1.85,1.72,1,3.27,2.45,4.4,3.94.96,1.27,1.5,2.57,1.82,3.99l.05.92s1.16.1,1.76.2c2.23.38,4.12,1.4,5.71,2.8,1.54,1.35,2.57,3.16,3.02,4.76.36,1.28.23,2.37-.33,3.49l1.59.92c.76-1.29.87-3.01.3-4.77-.56-1.72-1.67-3.64-3.5-5.14-2.07-1.7-4.34-2.85-6.98-3.19-.26-1.35-.97-3.02-2.05-4.42-1.11-1.44-2.57-2.83-4.2-3.89h0Z" image-rendering="auto" shape-rendering="auto" fill="#10153f"/>
                </g>
              </g>
            </g>
            <path d="M165.87,107.83c48.93-4,84.68,46.81,62.48,91.17-22.79,45.54-88.88,46.93-112.94,1.83-21.39-40.09,5.46-89.32,50.45-93Z" fill="none" stroke="#10153f" stroke-miterlimit="10" stroke-width=".11"/>
          </g>
          <path d="M166.31,93.27c63.99-4.22,106.53,67.96,69.3,121.38-31.1,44.62-97.13,45.23-128.27.44-34.69-49.91-1-117.86,58.97-121.82ZM165.87,107.83c-44.99,3.68-71.84,52.91-50.45,93,24.06,45.1,90.15,43.71,112.94-1.83,22.2-44.36-13.55-95.17-62.48-91.17Z" fill="#10153f" stroke="#10153f" stroke-miterlimit="10" stroke-width=".68"/>
        </g>
      </g>
      <g>
        <path d="M125.19,91.74l-6.62,5.15-1.82-2.06-7.32-2.94.05,6.25,1.13,1.46,2.17,1.78-5.87,4.56-1.19-2.54-11.35-14.6-2.17-1.79,5.87-4.56,1.19,2.54,5.57,7.17-.11-11.36-1.11-2.65,6.79-5.27-.31,4.45-.14,8.48,11.87,4.78,3.37,1.15Z" fill="#10153f"/>
        <path d="M153.04,81.5l-7.4,2.48-1.46-2.43-3.56-3.72-4.09,1.37,1.49,4.45,1.49,2.39-7.05,2.36-.29-2.79-5.87-17.53-1.45-2.4,13.15-4.4c1.1-.37,2.21-.2,3.29.23l2.89,1.2c1.08.43,1.8,1.38,2.17,2.49l1.21,3.6c.37,1.1.28,2.25-.23,3.29l-1.54,2.61,4.6,4.78,2.67,2.03ZM135.02,74.71l4.03-1.35c.68-.23,1.2-.73,1.54-1.34l.59-1.14c.23-.51.25-1.09.07-1.61l-.21-.62c-.16-.49-.49-.92-1.02-1.21l-1.2-.68c-.63-.37-1.35-.38-2.04-.15l-4.03,1.35,2.26,6.75Z" fill="#10153f"/>
        <path d="M180.46,74.82l-1.28,5.57-17.87.29.57-2.75-.3-18.49-.66-2.73,17.26-.28,1.12,5.53-2.58-.64-8.94.14.08,4.76,7.57-.12,1.88-.48.09,5.48-1.89-.42-7.57.12.08,4.9,9.25-.15,3.21-.74Z" fill="#10153f"/>
        <path d="M215.82,88.25l-.38,2.78-6.84-2.55,1.57-2.34,4.26-11.42-9.59,7.21-1.09-.41-2.54-11.73-4.26,11.42-.35,2.79-6.83-2.55,1.53-2.35,6.46-17.33.38-2.78,6.8,2.54,2.29,12.29,9.78-7.79,6.8,2.54-1.54,2.35-6.46,17.33Z" fill="#10153f"/>
        <path d="M242.19,105.74l-4.69,3.27-13.44-11.79,2.27-1.65,12.19-13.9,1.34-2.47,12.97,11.38-2.89,4.85-1.48-2.21-6.72-5.89-3.14,3.58,5.69,4.99,1.71.91-3.61,4.12-1.12-1.58-5.69-4.99-3.23,3.68,6.95,6.1,2.87,1.61Z" fill="#10153f"/>
        <path d="M263.08,151.31l-2.36,1.52-2.5-6.85,2.8-.33,11.45-4.18-11.71-2.62-.4-1.09,7.27-9.54-11.45,4.18-2.35,1.55-2.5-6.85,2.78-.36,17.37-6.34,2.36-1.52,2.49,6.82-7.86,9.72,12.27,2.37,2.49,6.82-2.78.36-17.37,6.34Z" fill="#10153f"/>
        <path d="M261.18,179.13l2.73.28,2.42-.63.33-8.59-2.37-.81-2.74.06.3-7.83,2.68,1.54,18.38,6.57,2.61-.17-.44,11.36-2.59-.41-18.84,5.13-2.79,1.33.3-7.83ZM271.07,177.6l9.97-2.53-9.74-3.29-.23,5.82Z" fill="#10153f"/>
        <path d="M257.16,216.74c-1.08-.43-1.9-1.24-2.36-2.31l-1.31-3.07c-.46-1.07-.47-2.22-.04-3.3l2.84-7.09c.43-1.08,1.24-1.9,2.31-2.36l3.07-1.31c1.07-.46,2.22-.48,3.3-.04l9.85,3.95c1.08.43,1.9,1.24,2.36,2.31l1.31,3.07c.46,1.07.48,2.22.04,3.3l-2.84,7.09c-.43,1.08-1.24,1.9-2.31,2.36l-3.07,1.31c-1.07.46-2.22.48-3.3.04l-.89-.36,1.23-6.11.6.24c.6.24,1.25.2,1.86-.14l1.09-.52c.56-.29,1.02-.81,1.27-1.41l.65-1.62c.23-.57.29-1.28.05-1.86l-.45-1.18c-.25-.65-.68-1.16-1.25-1.39l-7.12-2.85c-.57-.23-1.21-.19-1.86.14l-1.14.54c-.55.26-1.02.81-1.25,1.38l-.65,1.62c-.24.6-.26,1.3-.06,1.9l.43,1.13c.21.67.65,1.15,1.25,1.39l.64.25-3.39,5.24-.86-.34Z" fill="#10153f"/>
        <path d="M233.42,240.49l-2.47-1.34,4.96-5.53,1.63,2.29,4.92,4.41,5.92-6.6-4.92-4.41-2.47-1.34,4.96-5.53,1.63,2.29,13.77,12.34,2.45,1.37-4.96,5.53-1.61-2.31-5.07-4.55-5.92,6.6,5.07,4.55,2.45,1.37-4.96,5.53-1.61-2.31-13.77-12.34Z" fill="#10153f"/>
        <path d="M223.58,247.49l9.92,15.61,2.02,1.96-6.27,3.99-.92-2.66-9.92-15.61-2.02-1.96,6.27-3.99.92,2.66Z" fill="#10153f"/>
        <path d="M207.84,256.78l5.23,17.73,1.37,2.45-5.12,1.51-14.43-10.31,3.18,10.77,1.4,2.44-7.13,2.1-.18-2.8-6.01-20.36,4.56-1.35,14.38,10.25-3.16-10.7-1.4-2.44,7.13-2.1.18,2.8Z" fill="#10153f"/>
        <path d="M155.75,265.89l1.63-5.48,17.86.85-.75,2.71-.88,18.47.48,2.77-17.24-.82-.76-5.59,2.53.81,8.93.43.23-4.75-7.56-.36-1.9.35.26-5.47,1.86.53,7.56.36.23-4.89-9.24-.44-3.25.53Z" fill="#10153f"/>
        <path d="M131.65,253.79l.9,3.22c.31,1.12.18,2.26-.39,3.28l-7.12,12.69-.77,2.71-6.51-3.65,1.91-2.07,6.43-11.47c.28-.51.44-1.13.28-1.69l-.34-1.29c-.19-.58-.64-.95-1.15-1.24l-1.91-1.07c-.48-.27-1.1-.5-1.62-.32l-1.33.35c-.61.17-.99.58-1.29,1.12l-6.43,11.47-.77,2.71-6.48-3.64,1.88-2.09,7.12-12.69c.57-1.02,1.48-1.72,2.6-2.04l3.22-.9c1.12-.31,2.26-.18,3.28.39l6.48,3.64c1.02.57,1.72,1.48,2.04,2.6Z" fill="#10153f"/>
        <path d="M106.27,238.78l-14.14,11.92-1.7,2.24-3.44-4.08,3.65-17.35-8.59,7.24-1.68,2.26-4.79-5.68,2.49-1.29,16.23-13.68,3.07,3.64-3.61,17.28,8.54-7.19,1.68-2.26,4.79,5.68-2.49,1.29Z" fill="#10153f"/>
        <path d="M86.7,211.24l-16.88,7.53-2.24,1.71-3.03-6.78,2.77-.52,16.88-7.53,2.24-1.71,3.03,6.78-2.77.52Z" fill="#10153f"/>
        <path d="M79.35,189.72l-15.89,2.76.8,4.59,1.13,2.51-5.86.08-3.25-18.72,5.54-1.94-.22,2.75.81,4.69,15.89-2.76,2.59-1.11,1.27,7.32-2.81-.17Z" fill="#10153f"/>
        <path d="M76.85,147.75l5.32,2.09-2.36,17.72-2.63-.97-18.33-2.44-2.8.25,2.28-17.11,5.64-.29-1.02,2.46-1.18,8.86,4.72.63,1-7.5-.19-1.93,5.43.72-.69,1.81-1,7.5,4.85.65,1.22-9.17-.25-3.28Z" fill="#10153f"/>
        <path d="M78.83,113.5l9.5,4.73c1.04.52,1.79,1.39,2.16,2.49l1.06,3.17c.37,1.1.29,2.25-.22,3.29l-6.44,12.94-2.18-1.77-16.55-8.24-2.73-.67,6.44-12.94c.52-1.04,1.39-1.79,2.49-2.16l3.17-1.06c1.1-.37,2.25-.29,3.29.22ZM77.4,119.68c-.55-.27-1.21-.26-1.87-.01l-1.18.45c-.6.2-1.07.69-1.36,1.27l-2.09,4.2,12.57,6.26,2.09-4.2c.29-.58.37-1.27.2-1.85l-.35-1.21c-.2-.67-.58-1.21-1.14-1.48l-6.87-3.42Z" fill="#10153f"/>
      </g>
    </g>
  </g>
</svg>