<?xml version="1.0" encoding="UTF-8"?>
<svg id="Layer_2" data-name="Layer 2" xmlns="http://www.w3.org/2000/svg" viewBox="0 0 1607.56 160">
  <g id="Layer_1-2" data-name="Layer 1">
    <g>
      <path d="M0,150.59c0-7.62,10.64-7.17,12.44-19.83,1.01-6.72,1.34-25.88,1.34-54.23,0-23.53-.22-36.97-.45-41.35C11.87,17.48.89,18.49.89,9.86.89,6.05,3.02,3.25,8.96,3.25c9.41,0,20.17.56,29.92.56,11.65,0,23.08-.67,34.62-.67,25.21,0,51.99,8.07,51.99,36.08,0,16.14-12.77,28.12-22.63,32.16-.45.23-1.12.67-1.12,1.35s.67,1.01,1.12,1.12c18.93,5.49,33.05,19.27,33.05,37.65,0,39.22-33.73,45.38-61.51,45.38-11.65,0-28.68-.67-40.56-.67-8.63,0-16.58.56-24.98.56-6.16,0-8.85-2.46-8.85-6.16ZM48.96,59.27c0,4.59,2.24,5.15,7.39,5.15,7.17,0,16.25-1.01,21.74-3.36,7.28-3.03,11.76-9.52,11.76-18.49,0-15.8-13.67-20.39-29.58-20.39-9.08,0-11.32,1.57-11.32,6.05v31.04ZM77.65,85.15c-5.83-1.9-16.58-2.46-23.64-2.46-3.69,0-5.04,1.79-5.04,11.2v32.04c0,9.19,1.68,11.09,17.59,11.09,19.94,0,29.91-8.4,29.91-26.1,0-13.33-7.28-21.96-18.82-25.77Z" fill="#0d00b2"/>
      <path d="M239.8,94.68c0,5.94-1.23,9.19-5.38,9.19-4.48,0-6.27-3.92-7.73-7.17-3.81-8.07-5.83-11.99-21.29-11.99-4.82,0-6.5,2.69-6.5,10.87v23.75c0,15.57,4.93,17.25,20.39,17.25,24.65,0,31.93-6.84,40.11-24.54,2.13-4.48,4.71-7.84,7.96-7.84s5.49,2.58,5.49,9.41c0,5.49-3.14,23.19-4.15,34.73-.45,6.83-2.91,8.4-10.75,8.4s-25.77-.56-44.03-.56c-20.28,0-39.55.56-54.9.56-6.16,0-8.85-2.46-8.85-6.16,0-7.51,10.64-7.17,12.44-19.83,1.01-6.39,1.34-32.49,1.34-54.23,0-15.24-.11-36.53-.45-41.35-1.46-17.7-12.44-16.69-12.44-25.32,0-3.7,1.79-6.61,8.07-6.61,11.32,0,24.43.56,50.2.56,22.3,0,34.4-.56,42.47-.56s10.64,1.46,12.21,11.65c.9,4.82,2.24,13.67,3.92,22.3.78,3.81,1.35,8.18,1.35,9.64,0,4.71-2.91,6.61-6.05,6.61-4.6,0-6.83-4.93-9.3-9.52-8.63-17.37-12.77-21.63-36.87-21.63-15.35,0-18.15,2.13-18.15,14.46v17.37c0,9.3,1.57,10.98,5.83,10.98,18.26,0,19.83-6.39,23.98-13.22,1.35-1.9,3.02-3.25,5.04-3.25,4.26,0,6.05,3.58,6.05,13.67v32.38Z" fill="#0d00b2"/>
      <path d="M316.69,3.81c6.5,0,10.53.22,13.33,1.68,3.81,1.79,6.27,5.6,13.22,14.12l48.18,65.55c4.71,5.83,7.84,8.63,8.4,8.63,1.23,0,1.57-.67,1.57-20.06,0-21.62-1.12-41.34-4.48-47.73-3.58-8.52-11.2-10.08-11.2-16.25,0-4.03,2.24-6.5,7.95-6.5s12.55.56,16.81.56c5.04,0,11.54-.56,16.58-.56,5.6,0,7.62,2.8,7.62,6.61,0,8.51-9.97,6.61-11.32,23.3-.45,4.82-.67,22.52-.67,37.43.11,56.36,1.9,56.58,1.9,73.16,0,7.73-7.28,14.23-18.04,14.23-2.91,0-6.83-2.46-10.53-6.83l-66.66-88.07c-2.35-2.69-3.47-4.26-4.37-4.26-1.68,0-1.9,2.24-1.9,24.09,0,24.09,1.9,44.93,4.93,51.32,3.81,8.96,11.43,9.86,11.43,15.91,0,4.03-2.46,6.61-8.07,6.61-6.5,0-12.66-.56-16.92-.56-5.15,0-11.99.56-18.15.56-5.49,0-7.73-2.69-7.73-6.5,0-8.4,11.65-6.5,13-23.19.45-5.27.78-23.08.78-50.2,0-23.64-.11-37.31-.45-41.68-1.57-17.7-12.44-16.69-12.44-25.32,0-4.04,2.58-6.61,8.07-6.61,4.15,0,13.44.56,19.16.56Z" fill="#0d00b2"/>
      <path d="M499.58,120.11c0,12.66,4.37,17.14,11.77,20.28,5.38,2.46,9.97,4.37,9.97,8.96,0,5.6-4.82,7.4-11.99,7.4-6.61,0-19.61-.56-26.89-.56-7.73,0-17.37.56-22.75.56-6.16,0-8.85-2.46-8.85-6.16,0-7.51,10.64-7.17,12.44-19.83,1.01-6.39,1.34-32.49,1.34-54.23,0-15.24-.11-36.53-.45-41.35-1.46-17.7-12.44-16.69-12.44-25.32,0-3.7,1.79-6.61,8.07-6.61,11.32,0,24.43.56,50.2.56,22.3,0,34.4-.56,42.47-.56s10.64,1.46,12.21,11.65c.9,4.82,2.24,13.67,3.92,22.3.78,3.81,1.35,8.18,1.35,9.64,0,4.71-2.91,6.61-6.05,6.61-4.6,0-6.83-4.93-9.3-9.52-8.63-17.37-12.77-21.63-36.87-21.63-15.35,0-18.15,2.13-18.15,14.46v19.61c0,9.3,1.57,10.98,5.83,10.98,18.49,0,19.72-6.39,23.98-13.22,1.35-1.9,2.91-3.25,5.04-3.25,4.26,0,6.05,3.59,6.05,13.67v32.38c0,5.94-1.23,9.19-5.38,9.19-4.48,0-6.27-3.92-7.73-7.17-3.81-8.07-5.83-11.99-21.29-11.99-4.82,0-6.5,2.69-6.5,10.87v22.3Z" fill="#0d00b2"/>
      <path d="M643.47,9.86c0,8.63-10.75,7.39-12.33,25.1-.56,4.93-.67,21.4-.67,41.57,0,25.21.56,47.28,1.46,53.89,2.02,12.89,12.44,12.55,12.44,20.17,0,3.36-2.91,6.16-8.85,6.16-6.61,0-15.12-.56-22.41-.56s-16.14.56-22.75.56c-6.16,0-8.85-2.8-8.85-6.16,0-7.62,10.75-7.4,12.55-20.17.9-6.16,1.23-32.49,1.23-53.89,0-15.13,0-36.53-.33-41.57-1.46-17.59-12.55-16.58-12.55-25.1,0-3.7,1.79-6.61,8.07-6.61,6.84,0,15.35.56,22.64.56s16.02-.56,22.41-.56c5.94,0,7.96,2.91,7.96,6.61Z" fill="#0d00b2"/>
      <path d="M732.44,0c17.25,0,25.32,5.38,32.38,5.38,5.04,0,8.29-2.35,12.77-2.35,8.63,0,8.85,8.63,11.54,21.96,2.91,15.13,4.48,18.83,4.48,21.96,0,4.82-2.8,7.06-6.05,7.06-5.94,0-8.96-6.83-13.89-13.89-10.31-14.45-23.87-22.75-37.31-22.75-24.76,0-37.54,23.19-37.54,49.86,0,34.51,18.71,62.41,49.19,62.41,21.06,0,33.17-13.44,38.99-24.43,2.02-3.25,3.7-5.94,6.05-5.94,3.25,0,4.48,4.48,4.48,8.18,0,7.28-2.24,15.57-6.95,23.19-9.64,15.58-29.58,29.36-57.93,29.36-47.28,0-73.5-37.43-73.5-79.44S683.48,0,732.44,0Z" fill="#0d00b2"/>
      <path d="M851.69,37.53c2.91-7.95,4.82-15.91,5.83-21.85,1.57-7.73,18.71-15.35,25.99-15.35,5.94,0,7.96,4.14,10.08,9.86l45.15,116.3c1.35,3.48,4.04,9.3,9.86,14.34,2.24,2.02,5.83,4.82,5.83,8.4,0,6.05-4.37,7.51-13.22,7.51-6.05,0-11.54-.56-22.08-.56s-16.36.56-22.97.56-9.75-2.58-9.75-6.95c0-6.39,13.22-8.74,13.22-18.93,0-1.79-2.8-10.2-5.04-14.23-.79-1.46-2.58-2.58-4.82-2.58h-38.88c-2.91,0-5.04,1.12-6.39,2.58-2.24,3.36-5.94,12.21-5.94,16.02,0,9.86,11.65,11.32,11.65,17.7,0,3.59-2.13,6.39-9.41,6.39-4.82,0-13-.56-18.15-.56s-8.63.56-13.56.56-7.39-2.24-7.39-6.27c0-7.06,9.08-6.5,15.91-24.2l34.06-88.74ZM883.85,94.12c2.24,0,2.69-.79,2.69-2.02,0-3.36-9.52-31.26-14.9-41.68-.56-1.23-1.57-2.58-2.24-2.58-.89,0-1.57,1.35-2.24,2.58-4.93,9.86-15.46,38.88-15.46,41.68,0,1.23.56,2.02,2.58,2.02h29.58Z" fill="#0d00b2"/>
      <path d="M1059.12,37.53c2.91-7.95,4.82-15.91,5.83-21.85,1.57-7.73,18.71-15.35,25.99-15.35,5.94,0,7.96,4.14,10.08,9.86l45.15,116.3c1.35,3.48,4.04,9.3,9.86,14.34,2.24,2.02,5.83,4.82,5.83,8.4,0,6.05-4.37,7.51-13.22,7.51-6.05,0-11.54-.56-22.08-.56s-16.36.56-22.97.56-9.75-2.58-9.75-6.95c0-6.39,13.22-8.74,13.22-18.93,0-1.79-2.8-10.2-5.04-14.23-.79-1.46-2.58-2.58-4.82-2.58h-38.88c-2.91,0-5.04,1.12-6.39,2.58-2.24,3.36-5.94,12.21-5.94,16.02,0,9.86,11.65,11.32,11.65,17.7,0,3.59-2.13,6.39-9.41,6.39-4.82,0-13-.56-18.15-.56s-8.63.56-13.56.56-7.39-2.24-7.39-6.27c0-7.06,9.08-6.5,15.91-24.2l34.06-88.74ZM1091.28,94.12c2.24,0,2.69-.79,2.69-2.02,0-3.36-9.52-31.26-14.9-41.68-.56-1.23-1.57-2.58-2.24-2.58-.89,0-1.57,1.35-2.24,2.58-4.93,9.86-15.46,38.88-15.46,41.68,0,1.23.56,2.02,2.58,2.02h29.58Z" fill="#0d00b2"/>
      <path d="M1189.79,157.53c-9.41,0-17.93-5.71-17.93-17.37,0-12.55,10.09-20.06,20.06-20.06,9.19,0,18.04,6.16,18.04,17.93s-9.52,19.49-20.17,19.49Z" fill="#0d00b2"/>
      <path d="M1266.32,36.19c0,12.55,18.04,18.15,38.66,25.54,23.08,8.29,47.84,20.06,47.84,49.3,0,31.48-24.2,48.85-57.93,48.85-17.03,0-32.16-5.27-40.56-5.27-4.26,0-7.85,1.9-11.43,1.9-7.96,0-7.17-6.94-9.86-24.43-1.79-12.44-2.8-16.92-2.8-20.39,0-4.93,2.24-7.85,5.27-7.85,4.82,0,8.85,7.17,14.9,14,9.3,10.53,24.54,20.17,43.25,20.17,12.77,0,21.51-6.5,21.51-16.92,0-14.56-17.48-19.5-36.08-26.1-21.96-7.85-46.27-18.38-46.27-47.84S1252.76,0,1284.47,0c15.91,0,25.54,5.38,32.72,5.38,4.93,0,7.85-2.35,12.33-2.35,8.85,0,8.63,8.63,11.43,21.96,3.36,15.58,4.82,18.94,4.82,21.96,0,4.6-2.69,7.06-6.05,7.06-6.05,0-8.4-6.83-14.23-13.44-13.78-16.36-27.45-20.95-38.54-20.95s-20.62,5.94-20.62,16.58Z" fill="#0d00b2"/>
      <path d="M1386.23,157.53c-9.41,0-17.93-5.71-17.93-17.37,0-12.55,10.08-20.06,20.05-20.06,9.19,0,18.04,6.16,18.04,17.93s-9.52,19.49-20.17,19.49Z" fill="#0d00b2"/>
      <path d="M1491.12,0c17.25,0,25.32,5.38,32.38,5.38,5.04,0,8.29-2.35,12.77-2.35,8.63,0,8.85,8.63,11.54,21.96,2.91,15.13,4.48,18.83,4.48,21.96,0,4.82-2.8,7.06-6.05,7.06-5.94,0-8.96-6.83-13.89-13.89-10.31-14.45-23.87-22.75-37.31-22.75-24.76,0-37.54,23.19-37.54,49.86,0,34.51,18.71,62.41,49.19,62.41,21.06,0,33.17-13.44,38.99-24.43,2.02-3.25,3.7-5.94,6.05-5.94,3.25,0,4.48,4.48,4.48,8.18,0,7.28-2.24,15.57-6.95,23.19-9.64,15.58-29.58,29.36-57.93,29.36-47.28,0-73.5-37.43-73.5-79.44S1442.15,0,1491.12,0Z" fill="#0d00b2"/>
      <path d="M1587.39,157.53c-9.41,0-17.93-5.71-17.93-17.37,0-12.55,10.09-20.06,20.06-20.06,9.19,0,18.04,6.16,18.04,17.93s-9.52,19.49-20.17,19.49Z" fill="#0d00b2"/>
    </g>
  </g>
</svg>