<?xml version="1.0" encoding="UTF-8"?>
<svg id="Layer_2" data-name="Layer 2" xmlns="http://www.w3.org/2000/svg" xmlns:xlink="http://www.w3.org/1999/xlink" viewBox="0 0 558.18 300">
  <defs>
    <linearGradient id="linear-gradient" x1="16.71" y1="149.84" x2="85.81" y2="149.84" gradientUnits="userSpaceOnUse">
      <stop offset="0" stop-color="#e500c5"/>
      <stop offset="1" stop-color="#606"/>
    </linearGradient>
  </defs>
  <g id="Layer_1-2" data-name="Layer 1">
    <g>
      <path d="M221.19,0h-127c-.03.05-.06.1-.09.15h-30.15s.07-.1.1-.15H0v300h558.18V0H221.19ZM173.84,16.79l43.34-.05c-4.04,17.97-7.26,36.12-9.65,54.38l-52.09-.07c4.53-18.7,10.7-36.84,18.4-54.26ZM129.58,158.44c.49,18.09,2.43,36.12,5.72,53.88l-57.47.18c-4.04-17.62-6.4-35.75-7-54.05h58.74ZM70.79,141.73c.49-18.3,2.74-36.43,6.67-54.06l57.55.07c-3.22,17.8-5.05,35.87-5.45,53.99h-58.77ZM81.72,70.96c5.44-18.88,12.83-37.04,22.04-54.09l52.08-.06c-7.27,17.51-13.11,35.67-17.41,54.22l-56.7-.07ZM151.86,87.76l53.7.07c-1.84,17.91-2.89,35.9-3.11,53.9h-56.18c.41-18.34,2.3-36.37,5.6-53.97ZM202.47,158.44c.28,17.92,1.37,35.83,3.24,53.66l-53.55.16c-3.38-17.55-5.37-35.53-5.87-53.83h56.18ZM53.96,283.29H16.71V16.39h37.25v.48h30.99c-20.15,40.3-30.99,85.96-30.99,132.37s11.15,93.34,31.85,134.04h-31.85ZM124.51,283.29h-19.85c-9.36-17.02-16.89-35.2-22.46-54.1l56.61-.17c4.4,18.57,10.3,36.76,17.68,54.27h-31.97ZM174.56,283.29c-7.82-17.43-14.09-35.59-18.73-54.32l51.88-.16c2.44,18.3,5.73,36.48,9.82,54.48h-42.97ZM267.39,283.29h-32.71c-4.22-18.01-7.6-36.21-10.11-54.53l42.82-.13v54.66ZM267.39,211.91l-44.87.14c-1.93-17.81-3.05-35.7-3.34-53.61h48.21v53.47ZM267.39,141.73h-48.23c.23-18,1.31-35.98,3.2-53.88l45.03.06v53.82ZM267.39,71.19l-43.02-.05c2.47-18.28,5.8-36.45,9.96-54.42l33.06-.04v54.52ZM447.51,16.46c9.39,17.31,16.91,35.78,22.4,54.99l-56.77-.07c-4.33-18.77-10.23-37.15-17.6-54.85l51.97-.06ZM421.94,141.73c-.4-18-2.21-35.95-5.38-53.63l57.59.07c3.86,17.48,6.08,35.43,6.56,53.56h-58.77ZM480.66,158.44c-.58,17.89-2.86,35.6-6.73,52.84l-57.58.18c3.2-17.48,5.08-35.22,5.56-53.02h58.74ZM349.04,141.73c-.23-17.94-1.26-35.87-3.1-53.72l53.74.07c3.26,17.5,5.13,35.43,5.54,53.66h-56.18ZM405.2,158.44c-.49,18.03-2.43,35.76-5.72,53.07l-53.65.16c1.85-17.69,2.92-35.45,3.2-53.24h56.18ZM377.55,16.54c7.8,17.59,14.03,35.92,18.59,54.81l-52.14-.07c-2.4-18.37-5.64-36.62-9.7-54.69l43.26-.05ZM284.1,16.66l33.04-.04c4.18,18.05,7.53,36.29,10,54.65l-43.04-.05V16.66ZM316.81,283.29h-32.71v-54.71l42.86-.13c-2.52,18.43-5.92,36.73-10.16,54.84ZM329.01,211.73l-44.91.14v-53.42h48.21c-.28,17.8-1.39,35.59-3.3,53.29ZM284.1,141.73v-53.8l45.04.06c1.89,17.85,2.95,35.79,3.19,53.74h-48.23ZM376.94,283.29h-42.97c4.13-18.14,7.43-36.46,9.88-54.89l52.02-.16c-4.65,18.99-10.99,37.39-18.92,55.05ZM446.83,283.29h-51.83c7.49-17.78,13.47-36.24,17.89-55.11l56.74-.17c-5.6,19.32-13.25,37.9-22.8,55.28ZM541.32,283.29h-75.59c8.91-17.54,16.04-36.11,21.27-55.33l42.7-.13s-.03.09-.04.13h11.66v55.33ZM541.32,211.23h-43.94v-.02l-6.33.02c3.65-17.27,5.78-34.95,6.33-52.79h43.94v52.79ZM541.32,141.73h-43.89c-.46-18.09-2.55-36.03-6.19-53.54h6.19s0,0,0,0h43.89v53.54ZM541.32,71.47h-11.89s.01.04.02.05l-42.19-.05c-5.14-19.1-12.14-37.58-20.9-55.03l20.9-.03v-.02h54.06v55.08Z" fill="#0d3a3f"/>
      <path d="M491.05,211.23l6.33-.02v.02h43.94v-52.79h-43.94c-.55,17.84-2.68,35.53-6.33,52.79Z" fill="#0eadb2"/>
      <path d="M529.71,227.83l-42.7.13c-5.23,19.22-12.36,37.8-21.27,55.33h75.59v-55.33h-11.66s.03-.09.04-.13Z" fill="#12e0e5"/>
      <path d="M487.25,16.41l-20.9.03c8.76,17.46,15.76,35.93,20.9,55.03l42.19.05s-.01-.04-.02-.05h11.89V16.39h-54.06v.02Z" fill="#0a777f"/>
      <path d="M284.1,283.29h32.71c4.24-18.11,7.64-36.42,10.16-54.84l-42.86.13v54.71Z" fill="#12e0e5"/>
      <path d="M284.1,211.86l44.91-.14c1.91-17.7,3.02-35.49,3.3-53.29h-48.21v53.42Z" fill="#0eadb2"/>
      <path d="M396.13,71.36c-4.56-18.9-10.79-37.22-18.59-54.81l-43.26.05c4.07,18.07,7.3,36.33,9.7,54.69l52.14.07Z" fill="#0a777f"/>
      <path d="M469.91,71.45c-5.5-19.21-13.01-37.68-22.4-54.99l-51.97.06c7.37,17.71,13.27,36.08,17.6,54.85l56.77.07Z" fill="#0a777f"/>
      <path d="M399.69,88.07l-53.74-.07c1.83,17.85,2.87,35.78,3.1,53.72h56.18c-.4-18.23-2.27-36.16-5.54-53.66Z" fill="#0b898c"/>
      <path d="M284.1,87.93v53.8h48.23c-.23-17.95-1.3-35.89-3.19-53.74l-45.04-.06Z" fill="#0b898c"/>
      <path d="M474.15,88.17l-57.59-.07c3.18,17.69,4.99,35.64,5.38,53.63h58.77c-.48-18.13-2.7-36.08-6.56-53.56Z" fill="#0b898c"/>
      <path d="M345.83,211.68l53.65-.16c3.29-17.31,5.24-35.04,5.72-53.07h-56.18c-.28,17.78-1.35,35.55-3.2,53.24Z" fill="#0eadb2"/>
      <path d="M343.84,228.39c-2.45,18.44-5.75,36.76-9.88,54.89h42.97c7.92-17.66,14.26-36.06,18.92-55.05l-52.02.16Z" fill="#12e0e5"/>
      <path d="M416.36,211.46l57.58-.18c3.87-17.24,6.14-34.95,6.73-52.84h-58.74c-.48,17.8-2.36,35.54-5.56,53.02Z" fill="#0eadb2"/>
      <path d="M412.89,228.18c-4.42,18.87-10.4,37.33-17.89,55.11h51.83c9.55-17.38,17.2-35.95,22.8-55.28l-56.74.17Z" fill="#12e0e5"/>
      <path d="M224.37,71.14l43.02.05V16.68l-33.06.04c-4.16,17.97-7.5,36.14-9.96,54.42Z" fill="#0a777f"/>
      <path d="M234.68,283.29h32.71v-54.66l-42.82.13c2.52,18.32,5.9,36.52,10.11,54.53Z" fill="#12e0e5"/>
      <path d="M219.16,141.73h48.23v-53.82l-45.03-.06c-1.9,17.9-2.97,35.88-3.2,53.88Z" fill="#0b898c"/>
      <path d="M222.52,212.05l44.87-.14v-53.47h-48.21c.28,17.91,1.41,35.8,3.34,53.61Z" fill="#0eadb2"/>
      <path d="M317.14,16.62l-33.04.04v54.56l43.04.05c-2.47-18.36-5.82-36.6-10-54.65Z" fill="#0a777f"/>
      <path d="M94.09.15c.03-.05.06-.1.09-.15h-30.14s-.07.1-.1.15h30.15Z" fill="#e500c5"/>
      <path d="M84.95,16.87h-30.99v-.48H16.71v266.9h69.09c-20.7-40.71-31.85-86.98-31.85-134.04s10.85-92.07,30.99-132.37Z" fill="url(#linear-gradient)"/>
      <path d="M207.52,71.12c2.39-18.26,5.61-36.41,9.65-54.38l-43.34.05c-7.7,17.42-13.87,35.56-18.4,54.26l52.09.07Z" fill="#0a777f"/>
      <path d="M205.71,212.1c-1.88-17.83-2.97-35.74-3.24-53.66h-56.18c.49,18.3,2.49,36.28,5.87,53.83l53.55-.16Z" fill="#0eadb2"/>
      <path d="M155.82,228.97c4.64,18.73,10.91,36.89,18.73,54.32h42.97c-4.09-18-7.38-36.18-9.82-54.48l-51.88.16Z" fill="#12e0e5"/>
      <path d="M205.56,87.83l-53.7-.07c-3.3,17.6-5.19,35.63-5.6,53.97h56.18c.23-18,1.27-35.99,3.11-53.9Z" fill="#0b898c"/>
      <path d="M77.46,87.67c-3.93,17.64-6.19,35.76-6.67,54.06h58.77c.4-18.12,2.23-36.19,5.45-53.99l-57.55-.07Z" fill="#0b898c"/>
      <path d="M135.3,212.32c-3.29-17.76-5.23-35.79-5.72-53.88h-58.74c.59,18.31,2.96,36.43,7,54.05l57.47-.18Z" fill="#0eadb2"/>
      <path d="M155.84,16.81l-52.08.06c-9.21,17.04-16.6,35.21-22.04,54.09l56.7.07c4.3-18.55,10.14-36.71,17.41-54.22Z" fill="#0a777f"/>
      <path d="M82.2,229.19c5.57,18.9,13.11,37.07,22.46,54.1h51.83c-7.38-17.51-13.28-35.69-17.68-54.27l-56.61.17Z" fill="#12e0e5"/>
      <path d="M497.43,88.2h-6.19c3.64,17.5,5.74,35.44,6.19,53.53h43.89v-53.54h-43.89Z" fill="#0b898c"/>
    </g>
  </g>
</svg>