<?xml version="1.0" encoding="UTF-8"?>
<svg id="Layer_2" data-name="Layer 2" xmlns="http://www.w3.org/2000/svg" xmlns:xlink="http://www.w3.org/1999/xlink" viewBox="0 0 2729.72 132.74">
  <defs>
    <linearGradient id="linear-gradient" x1="0" y1="48.7" x2="2729.72" y2="48.7" gradientUnits="userSpaceOnUse">
      <stop offset="0" stop-color="#e500c5"/>
      <stop offset="1" stop-color="#606"/>
    </linearGradient>
    <linearGradient id="linear-gradient-2" x1="0" y1="54.18" x2="2729.72" y2="54.18" xlink:href="#linear-gradient"/>
    <linearGradient id="linear-gradient-3" x1="0" y1="51.99" x2="2729.72" y2="51.99" xlink:href="#linear-gradient"/>
    <linearGradient id="linear-gradient-4" x1="0" y1="52.67" x2="2729.72" y2="52.67" xlink:href="#linear-gradient"/>
    <linearGradient id="linear-gradient-5" x1="0" y1="46.08" x2="2729.72" y2="46.08" xlink:href="#linear-gradient"/>
    <linearGradient id="linear-gradient-6" x1="0" y1="52.76" x2="2729.72" y2="52.76" xlink:href="#linear-gradient"/>
    <linearGradient id="linear-gradient-7" x1="0" y1="52.67" x2="2729.72" y2="52.67" xlink:href="#linear-gradient"/>
    <linearGradient id="linear-gradient-8" x1="0" y1="48.79" x2="2729.72" y2="48.79" xlink:href="#linear-gradient"/>
    <linearGradient id="linear-gradient-9" x1="0" y1="52.67" x2="2729.72" y2="52.67" xlink:href="#linear-gradient"/>
    <linearGradient id="linear-gradient-10" x1="0" y1="52.67" x2="2729.72" y2="52.67" xlink:href="#linear-gradient"/>
    <linearGradient id="linear-gradient-11" x1="0" y1="54.26" x2="2729.72" y2="54.26" xlink:href="#linear-gradient"/>
    <linearGradient id="linear-gradient-12" x1="0" y1="47.48" x2="2729.72" y2="47.48" xlink:href="#linear-gradient"/>
    <linearGradient id="linear-gradient-13" x1="0" y1="54.18" x2="2729.72" y2="54.18" xlink:href="#linear-gradient"/>
    <linearGradient id="linear-gradient-14" x1="0" y1="47.48" x2="2729.72" y2="47.48" xlink:href="#linear-gradient"/>
    <linearGradient id="linear-gradient-15" x1="0" y1="54.18" x2="2729.72" y2="54.18" xlink:href="#linear-gradient"/>
    <linearGradient id="linear-gradient-16" x1="0" y1="47.65" x2="2729.72" y2="47.65" xlink:href="#linear-gradient"/>
    <linearGradient id="linear-gradient-17" x1="0" y1="54.18" x2="2729.72" y2="54.18" xlink:href="#linear-gradient"/>
    <linearGradient id="linear-gradient-18" x1="0" y1="49.37" x2="2729.72" y2="49.37" xlink:href="#linear-gradient"/>
    <linearGradient id="linear-gradient-19" y1="52.67" x2="2729.72" y2="52.67" xlink:href="#linear-gradient"/>
    <linearGradient id="linear-gradient-20" x1="0" y1="48.79" x2="2729.72" y2="48.79" xlink:href="#linear-gradient"/>
  </defs>
  <g id="Layer_1-2" data-name="Layer 1">
    <g>
      <path d="M1431.79,90.8c-.51-6.93-.68-15.05-.68-24.52,0-34.67,3.39-52.08,11.16-59.69-21.31,5.92-42.95,25.2-43.29,59.02,12.18,4.57,24.35,13.53,32.81,25.2Z" fill="url(#linear-gradient)"/>
      <path d="M1022.6,70.23c10.82,6.01,20.95,16.14,27.47,28.68V9.44h-27.47v60.79Z" fill="url(#linear-gradient-2)"/>
      <path d="M1205.93,56.48l-19.11-6.76c-13.36-4.74-21.31-11.5-21.31-22.49,0-5.75,1.7-14.37,8.97-19.79-17.42,5.92-28.24,19.96-28.24,35.51,0,8.28,2.71,14.88,7.95,19.96,32.13,3.21,58.34,12.17,69.84,26.04,2.03,2.54,3.55,4.91,4.4,7.61.68-2.87,1.02-5.75,1.02-8.96,0-16.4-8.12-25.7-23.51-31.12Z" fill="url(#linear-gradient-3)"/>
      <path d="M1280.98,68.48c10.66,5.92,20.63,15.9,27.06,28.24V8.62h-27.06v59.86Z" fill="url(#linear-gradient-4)"/>
      <path d="M1914.3,8.62v5.07l36.02,50.56c15.56,2.37,35.34,8.62,47.69,19.28l-54.28-74.91h-29.43Z" fill="url(#linear-gradient-5)"/>
      <path d="M1822.5,68.65c10.66,6.09,20.63,15.9,27.06,28.24V8.62s-27.06,0-27.06,0v60.03Z" fill="url(#linear-gradient-6)"/>
      <path d="M1552.84,68.48c10.66,5.92,20.63,15.9,27.06,28.24V8.62h-27.06v59.86Z" fill="url(#linear-gradient-7)"/>
      <path d="M2078.64,90.64c-.51-6.94-.68-14.88-.68-24.35,0-34.33,3.55-51.58,11.67-59.35-21.65,6.09-43.46,25.36-43.8,58.51,12.18,4.56,24.35,13.53,32.81,25.2Z" fill="url(#linear-gradient-8)"/>
      <path d="M1712.78,68.48c10.65,5.92,20.63,15.9,27.05,28.24V8.62h-27.05v59.86Z" fill="url(#linear-gradient-9)"/>
      <path d="M2633.84,68.48c10.66,5.92,20.63,15.9,27.06,28.24V8.62h-27.06v59.86Z" fill="url(#linear-gradient-10)"/>
      <path d="M53.75,99.08V9.44s-27.48,0-27.48,0v60.96c10.82,6.18,20.95,16.14,27.48,28.68Z" fill="url(#linear-gradient-11)"/>
      <path d="M119.5,9.44v5.15l36.58,51.35c15.8,2.4,35.89,8.76,48.43,19.58L149.38,9.44h-29.88Z" fill="url(#linear-gradient-12)"/>
      <path d="M287.93,70.23c10.82,6.01,20.95,16.14,27.47,28.68V9.44h-27.47v60.79Z" fill="url(#linear-gradient-13)"/>
      <path d="M735.18,9.44v5.15l36.58,51.35c15.8,2.4,35.89,8.75,48.43,19.58l-55.12-76.08h-29.88Z" fill="url(#linear-gradient-14)"/>
      <path d="M532.41,70.23c10.82,6.01,20.95,16.14,27.48,28.68V9.44h-27.48v60.79Z" fill="url(#linear-gradient-15)"/>
      <path d="M913.06,70.75c11.67,3.61,24.72,8.76,35.38,17.52l-32.97-81.23-13.91,34.35.18.17,11.33,29.19Z" fill="url(#linear-gradient-16)"/>
      <path d="M398.84,70.23c10.82,6.01,20.95,16.14,27.48,28.68V9.44h-27.48v60.79Z" fill="url(#linear-gradient-17)"/>
      <path d="M2513.14,90.13V8.62h-27.06v58.68c10.15,4.74,19.96,12.86,27.06,22.83Z" fill="url(#linear-gradient-18)"/>
      <path d="M2373.14,68.48c10.66,5.92,20.63,15.9,27.06,28.24V8.62h-27.06v59.86Z" fill="url(#linear-gradient-19)"/>
      <path d="M2265.11,90.64c-.51-6.94-.68-14.88-.68-24.35,0-34.33,3.55-51.58,11.67-59.35-21.65,6.09-43.46,25.36-43.8,58.51,12.18,4.56,24.35,13.53,32.81,25.2Z" fill="url(#linear-gradient-20)"/>
      <path d="M1280.98,117.52v7.1h27.06c0-2.87-.17-4.9-.34-7.1h-26.72Z" fill="#12e0e5"/>
      <path d="M1304.65,105.01h-23.67v7.1h25.7c-.51-2.37-1.18-4.74-2.03-7.1Z" fill="#0eadb2"/>
      <path d="M1425.36,92.49h-21.81c1.01,2.54,2.2,4.91,3.38,7.1h23c-1.35-2.53-2.87-4.74-4.56-7.1Z" fill="#0b898c"/>
      <path d="M1432.47,105.01h-21.98c1.86,2.7,4.06,5.07,6.26,7.1h17.92c-1.01-3.89-1.52-5.58-2.2-7.1Z" fill="#0eadb2"/>
      <path d="M1298.4,92.49h-17.42v7.1s21.31,0,21.31,0c-1.18-2.37-2.53-4.74-3.89-7.1Z" fill="#0b898c"/>
      <path d="M1399.15,71.53c.34,5.58,1.35,10.82,2.7,15.56h18.94c-6.26-6.76-13.87-12.18-21.65-15.56Z" fill="#0a777f"/>
      <path d="M1199.5,125.13c5.24-1.86,10.32-4.4,14.54-7.61h-8.45c-1.52,2.87-3.55,5.41-6.09,7.61Z" fill="#12e0e5"/>
      <path d="M1280.98,74.91v12.18h13.36c-3.89-4.9-8.62-8.97-13.36-12.18Z" fill="#0a777f"/>
      <path d="M1214.21,87.09c-3.21-2.53-7.44-4.9-12.18-7.1h-9.97c4.06,2.03,7.61,4.23,10.31,7.1h11.84Z" fill="#0a777f"/>
      <path d="M1223.35,99.6c-.51-2.37-1.7-4.74-3.55-7.1h-13.53c1.18,2.2,1.86,4.57,2.2,7.1h14.88Z" fill="#0b898c"/>
      <path d="M1207.62,112.11h12.35c1.86-1.69,3.05-4.22,3.55-7.1h-14.88c-.17,2.53-.51,4.9-1.02,7.1Z" fill="#0eadb2"/>
      <path d="M1163.48,69.5c2.03,1.02,4.4,1.86,6.76,2.71l11.5,3.89h10.48c-8.45-2.87-18.09-5.07-28.75-6.59Z" fill="#0a777f"/>
      <path d="M1423.33,117.52c5.58,3.89,11.67,6.59,17.93,8.28-1.86-2.03-3.55-4.73-4.91-8.28h-13.02Z" fill="#12e0e5"/>
      <path d="M2072.38,92.5h-21.81c1.02,2.54,2.2,4.91,3.55,7.1h22.83c-1.36-2.53-2.87-4.74-4.57-7.1Z" fill="#0b898c"/>
      <path d="M2046,71.53c.33,5.58,1.35,10.82,2.7,15.56h19.11c-6.26-6.77-14.04-12.18-21.81-15.56Z" fill="#0a777f"/>
      <path d="M2079.48,105.01h-21.81c1.86,2.7,4.06,5.07,6.43,7.1h17.59c-1.02-3.89-1.52-5.58-2.2-7.1Z" fill="#0eadb2"/>
      <path d="M2070.86,117.52c5.58,3.89,11.67,6.43,17.75,8.12-2.03-2.03-3.72-4.56-5.07-8.12h-12.68Z" fill="#12e0e5"/>
      <polygon points="1984.31 112.11 1998.01 112.11 1998.01 105.01 1979.24 105.01 1984.31 112.11" fill="#0eadb2"/>
      <polygon points="1992.93 124.29 1998.01 124.29 1998.01 117.52 1988.03 117.52 1992.93 124.29" fill="#12e0e5"/>
      <path d="M2232.48,71.53c.34,5.58,1.35,10.82,2.7,15.56h19.11c-6.26-6.76-14.04-12.18-21.81-15.56Z" fill="#0a777f"/>
      <path d="M2486.08,73.39v13.7h17.25c-5.07-5.58-10.99-10.32-17.25-13.7Z" fill="#0a777f"/>
      <polygon points="1975.35 99.6 1998.01 99.6 1998.01 92.49 1970.28 92.49 1975.35 99.6" fill="#0b898c"/>
      <path d="M2507.73,92.5h-21.31c.34,2.54.68,4.91,1.36,7.1h24.35c-1.35-2.37-2.87-4.74-4.4-7.1Z" fill="#0b898c"/>
      <path d="M2373.14,117.53v7.1h27.06c0-2.87-.17-4.9-.34-7.1h-26.72Z" fill="#12e0e5"/>
      <path d="M2390.56,92.5h-17.42v7.1h21.31c-1.18-2.37-2.53-4.74-3.89-7.1Z" fill="#0b898c"/>
      <path d="M2396.81,105.01h-23.67v7.1h25.7c-.51-2.37-1.18-4.74-2.03-7.1Z" fill="#0eadb2"/>
      <path d="M1983.47,79.98h-21.98l5.07,7.1h27.05c-3.21-2.71-6.59-5.07-10.14-7.1Z" fill="#0a777f"/>
      <path d="M2258.86,92.5h-21.81c1.02,2.54,2.2,4.91,3.55,7.1h22.83c-1.36-2.53-2.87-4.74-4.57-7.1Z" fill="#0b898c"/>
      <path d="M2373.14,74.91v12.18h13.36c-3.89-4.9-8.62-8.97-13.36-12.18Z" fill="#0a777f"/>
      <path d="M2257.34,117.53c5.58,3.89,11.67,6.43,17.75,8.12-2.03-2.03-3.72-4.56-5.07-8.12h-12.68Z" fill="#12e0e5"/>
      <path d="M2265.96,105.01h-21.81c1.86,2.7,4.06,5.07,6.59,7.1h17.42c-1.02-3.89-1.52-5.58-2.2-7.1Z" fill="#0eadb2"/>
      <path d="M2514.66,105.01h-25.2c1.01,2.7,2.37,5.07,3.89,7.1h23.34c-.34-2.37-1.18-4.9-2.03-7.1Z" fill="#0eadb2"/>
      <path d="M2519.4,117.53h-20.97c3.72,3.21,8.29,5.58,13.53,7.1h13.02c-2.03-1.86-3.89-4.22-5.57-7.1Z" fill="#12e0e5"/>
      <path d="M2633.84,117.53v7.1h27.06v-.67c0-2.2-.17-4.23-.34-6.43h-26.72Z" fill="#12e0e5"/>
      <path d="M1712.78,74.91v12.18h13.36c-3.89-4.9-8.62-8.97-13.36-12.18Z" fill="#0a777f"/>
      <path d="M1730.2,92.49h-17.42v7.1h21.31c-1.18-2.37-2.53-4.74-3.89-7.1Z" fill="#0b898c"/>
      <path d="M1736.45,105.01h-23.67v7.1h25.7c-.51-2.37-1.18-4.74-2.03-7.1Z" fill="#0eadb2"/>
      <path d="M1576.51,105.01h-23.67v7.1h25.7c-.51-2.37-1.18-4.74-2.03-7.1Z" fill="#0eadb2"/>
      <path d="M1552.84,74.91v12.18h13.36c-3.89-4.9-8.62-8.97-13.36-12.18Z" fill="#0a777f"/>
      <path d="M1570.26,92.49h-17.42v7.1h21.31c-1.18-2.37-2.53-4.74-3.89-7.1Z" fill="#0b898c"/>
      <path d="M1712.78,117.52v7.1h27.05c0-2.87-.17-4.9-.33-7.1h-26.72Z" fill="#12e0e5"/>
      <path d="M1552.84,117.52v7.1h27.06c0-2.87-.17-4.9-.34-7.1h-26.72Z" fill="#12e0e5"/>
      <path d="M1822.5,117.52v7.1h27.06c0-2.87-.17-4.9-.34-7.1h-26.72Z" fill="#12e0e5"/>
      <path d="M1846,105.01h-23.51v7.1h25.71c-.51-2.37-1.36-4.74-2.2-7.1Z" fill="#0eadb2"/>
      <path d="M1839.58,92.49h-17.08v7.1h21.31c-1.18-2.37-2.54-4.74-4.23-7.1Z" fill="#0b898c"/>
      <path d="M2633.84,74.91v12.18h13.36c-3.89-4.9-8.62-8.97-13.36-12.18Z" fill="#0a777f"/>
      <path d="M1954.88,70.68l3.55,5.07h15.39c-6.43-2.2-12.85-3.89-18.94-5.07Z" fill="#0a777f"/>
      <path d="M2651.26,92.5h-17.42v7.1h21.31c-1.18-2.37-2.53-4.74-3.89-7.1Z" fill="#0b898c"/>
      <path d="M2657.52,105.01h-23.67v7.1h25.7c-.51-2.37-1.18-4.74-2.03-7.1Z" fill="#0eadb2"/>
      <path d="M1822.5,75.08v12.01h13.19c-3.89-4.74-8.45-8.79-13.19-12.01Z" fill="#0a777f"/>
      <path d="M1209.48,51.07l-18.94-6.59c-12.35-4.23-18.27-9.31-18.27-17.59,0-15.9,10.66-21.48,21.98-21.48,18.43,0,28.24,12.17,28.24,17.08v13.86c0,1.86,1.01,3.21,3.04,3.21s3.05-1.35,3.05-3.21V5.24c0-1.7-1.02-3.05-3.05-3.05s-3.04,1.35-3.04,3.05v6.25c-5.58-6.59-16.4-11.5-29.43-11.5-29.25,0-53.61,17.42-53.61,43.46,0,7.44,1.86,13.7,5.41,18.94-3.55-.17-6.93-.34-10.48-.34-2.2,0-3.72.85-3.72,2.54,0,2.2,1.52,2.87,3.72,2.87,5.24,0,10.48.34,15.56.68,4.56,3.89,10.14,7.1,16.91,9.3l16.4,5.58c11.5,3.89,18.77,10.31,18.77,20.46,0,11.33-5.58,24.01-23,24.01-19.11,0-36.36-12.85-36.36-31.62v-7.1c0-1.86-1.01-3.21-3.04-3.21s-3.05,1.35-3.05,3.21v38.55c0,1.18.41,2.15,1.23,2.71.47.32,1.08.51,1.82.51s1.35-.18,1.82-.51c.81-.56,1.22-1.53,1.22-2.71v-12.35c4.47,7.41,11.75,12.31,20.07,15.05,5.54,1.83,11.53,2.71,17.47,2.71s12.81-.88,19.27-2.71c19.12-5.43,36.71-19.27,36.71-43.8,0-18.6-11.16-29.77-26.72-35.17ZM1181.75,76.09l-11.5-3.89c-2.37-.85-4.74-1.69-6.76-2.71,10.66,1.52,20.29,3.72,28.75,6.59h-10.48ZM1192.06,79.98h9.97c4.74,2.2,8.97,4.57,12.18,7.1h-11.84c-2.7-2.87-6.25-5.07-10.31-7.1ZM1219.79,92.49c1.86,2.37,3.04,4.74,3.55,7.1h-14.88c-.34-2.53-1.02-4.9-2.2-7.1h13.53ZM1199.5,125.13c2.53-2.2,4.57-4.74,6.09-7.61h8.45c-4.22,3.21-9.3,5.75-14.54,7.61ZM1219.96,112.11h-12.35c.51-2.2.85-4.56,1.02-7.1h14.88c-.51,2.87-1.69,5.41-3.55,7.1ZM1228.42,96.55c-.84-2.7-2.37-5.07-4.4-7.61-11.5-13.86-37.71-22.82-69.84-26.04-5.24-5.07-7.95-11.67-7.95-19.96,0-15.56,10.82-29.59,28.24-35.51-7.27,5.41-8.97,14.04-8.97,19.79,0,10.99,7.95,17.75,21.31,22.49l19.11,6.76c15.39,5.41,23.51,14.71,23.51,31.12,0,3.21-.34,6.09-1.02,8.96Z" fill="#0d3a3f"/>
      <path d="M1322.24,3.21h-63.41c-1.86,0-3.21,1.01-3.21,2.7s1.35,2.71,3.21,2.71h15.39v56.48c-5.07-2.03-10.14-3.05-14.88-3.05-2.03,0-3.72.85-3.72,2.54,0,2.2,1.69,2.87,3.72,2.87,4.74,0,9.81,1.35,14.88,3.72v53.43h-15.39c-1.86,0-3.21,1.02-3.21,2.71s1.35,2.71,3.21,2.71h71.53c1.86,0,3.21-1.02,3.21-2.71s-1.35-2.71-3.21-2.71h-15.55V8.62h7.27c29.76,0,47.85,12.51,47.85,41.09s-17.59,41.77-43.29,41.77c-1.86,0-3.55.68-3.55,2.87s1.69,2.87,3.38,2.87c29.25,0,50.22-16.06,50.22-47.18,0-31.11-21.48-46.84-54.45-46.84ZM1280.98,74.91c4.74,3.21,9.47,7.28,13.36,12.18h-13.36v-12.18ZM1280.98,92.49h17.42c1.35,2.37,2.7,4.74,3.89,7.1h-21.31s0-7.1,0-7.1ZM1280.98,105.01h23.67c.84,2.36,1.52,4.73,2.03,7.1h-25.7v-7.1ZM1280.98,124.62v-7.1h26.72c.17,2.2.34,4.22.34,7.1h-27.06ZM1308.04,96.72c-6.43-12.35-16.4-22.32-27.06-28.24V8.62h27.06v88.1Z" fill="#0d3a3f"/>
      <path d="M1456.14,0c-32.47,0-62.57,22.83-63.92,63.41-3.55-.85-7.27-1.36-10.65-1.36-2.03,0-3.72.85-3.72,2.54,0,2.2,1.69,2.87,3.72,2.87,3.38,0,7.1.51,10.65,1.52.95,34.2,20.27,54.34,44.75,61.04,6.14,1.68,12.6,2.53,19.18,2.53,5.9,0,11.66-.88,17.14-2.53,24.66-7.46,43.57-30.96,43.57-63.75C1516.85,26.21,1488.77,0,1456.14,0ZM1442.27,6.59c-7.78,7.61-11.16,25.02-11.16,59.69,0,9.47.17,17.59.68,24.52-8.45-11.67-20.63-20.63-32.81-25.2.34-33.82,21.98-53.1,43.29-59.02ZM1399.15,71.53c7.78,3.38,15.39,8.79,21.65,15.56h-18.94c-1.35-4.74-2.36-9.98-2.7-15.56ZM1403.55,92.49h21.81c1.69,2.37,3.21,4.57,4.56,7.1h-23c-1.18-2.2-2.37-4.56-3.38-7.1ZM1410.48,105.01h21.98c.67,1.52,1.18,3.21,2.2,7.1h-17.92c-2.2-2.03-4.4-4.4-6.26-7.1ZM1423.33,117.52h13.02c1.36,3.55,3.05,6.25,4.91,8.28-6.26-1.69-12.35-4.4-17.93-8.28ZM1457.32,127.16c-7.1,0-12.35-2.54-15.39-14.21-.33-1.01-.67-2.03-.84-3.04-2.03-9.13-2.87-23-2.87-43.63,0-49.89,6.43-60.88,19.11-60.88,29.08,0,52.76,25.2,52.76,60.88s-23.67,60.88-52.76,60.88Z" fill="#0d3a3f"/>
      <path d="M1652.95,124.29c-9.13,0-14.37-4.74-19.78-11.5l-8.29-10.48c-2.87-3.55-6.43-6.76-10.82-8.97,21.31-4.73,35.68-20.12,35.68-44.13,0-30.61-21.98-45.99-55.64-45.99h-63.41c-1.86,0-3.21,1.01-3.21,2.7,0,1.86,1.35,2.71,3.21,2.71h15.39v56.48c-5.07-2.03-10.14-3.05-14.88-3.05-2.03,0-3.72.85-3.72,2.54,0,2.2,1.69,2.87,3.72,2.87,4.74,0,9.81,1.35,14.88,3.72v53.43h-15.39c-1.86,0-3.21.85-3.21,2.71,0,1.69,1.35,2.71,3.21,2.71h71.36c1.86,0,3.21-1.02,3.21-2.71,0-1.86-1.35-2.71-3.21-2.71h-15.39V8.62h7.27c30.27,0,48.87,12.17,48.87,40.25s-17.76,40.92-43.63,40.92c-1.86,0-3.55.67-3.55,2.87s1.69,2.87,3.38,2.87c9.13,0,15.05,4.22,20.46,10.99l8.63,10.99c6.76,8.62,13.53,12.51,24.69,12.51,4.06,0,5.41-1.02,5.41-2.87s-1.35-2.87-5.24-2.87ZM1552.84,74.91c4.74,3.21,9.47,7.28,13.36,12.18h-13.36v-12.18ZM1552.84,92.49h17.42c1.35,2.37,2.7,4.74,3.89,7.1h-21.31v-7.1ZM1552.84,105.01h23.67c.84,2.36,1.52,4.73,2.03,7.1h-25.7v-7.1ZM1552.84,124.62v-7.1h26.72c.17,2.2.34,4.22.34,7.1h-27.06ZM1579.9,96.72c-6.43-12.35-16.4-22.32-27.06-28.24V8.62h27.06v88.1Z" fill="#0d3a3f"/>
      <path d="M1782.28,3.21h-111.94c-1.86,0-3.21,1.18-3.21,3.21v27.05c0,1.86,1.01,3.21,3.05,3.21s3.04-1.35,3.04-3.21V8.62h32.81v56.48c-5.07-2.03-10.14-3.05-14.88-3.05-2.03,0-3.72.85-3.72,2.54,0,2.2,1.69,2.87,3.72,2.87,4.74,0,9.81,1.35,14.88,3.72v53.43h-15.39c-1.86,0-3.21,1.02-3.21,2.71s1.35,2.71,3.21,2.71h71.36c1.86,0,3.21-1.02,3.21-2.71s-1.36-2.71-3.21-2.71h-15.39V8.62h32.81v24.86c0,1.86,1.02,3.21,3.05,3.21s3.04-1.35,3.04-3.21V6.43c0-2.03-1.35-3.21-3.21-3.21ZM1712.78,74.91c4.74,3.21,9.47,7.28,13.36,12.18h-13.36v-12.18ZM1712.78,92.49h17.42c1.36,2.37,2.71,4.74,3.89,7.1h-21.31v-7.1ZM1712.78,105.01h23.67c.84,2.36,1.52,4.73,2.03,7.1h-25.7v-7.1ZM1712.78,124.62v-7.1h26.72c.17,2.2.33,4.22.33,7.1h-27.05ZM1739.83,96.72c-6.43-12.35-16.4-22.32-27.05-28.24V8.62h27.05v88.1Z" fill="#0d3a3f"/>
      <path d="M1872.21,8.62c1.86,0,3.21-1.01,3.21-2.71s-1.35-2.7-3.21-2.7h-72.37c-1.86,0-3.21,1.01-3.21,2.7s1.35,2.71,3.21,2.71h15.9v56.65c-5.25-2.03-10.49-3.21-15.39-3.21-2.03,0-3.72.85-3.72,2.54,0,2.2,1.69,2.87,3.72,2.87,4.9,0,10.14,1.35,15.39,3.89v53.26h-15.9c-1.86,0-3.21,1.02-3.21,2.71s1.35,2.71,3.21,2.71h72.37c1.86,0,3.21-1.02,3.21-2.71s-1.35-2.71-3.21-2.71h-15.89V8.62h15.89ZM1822.5,75.08c4.74,3.21,9.3,7.27,13.19,12.01h-13.19v-12.01ZM1822.5,92.49h17.08c1.69,2.37,3.05,4.74,4.23,7.1h-21.31v-7.1ZM1822.5,105.01h23.51c.84,2.36,1.69,4.73,2.2,7.1h-25.71v-7.1ZM1822.5,124.62v-7.1h26.72c.17,2.2.34,4.22.34,7.1h-27.06ZM1849.55,96.89c-6.43-12.34-16.4-22.15-27.06-28.24V8.62h27.06v88.27Z" fill="#0d3a3f"/>
      <path d="M2020.16,3.21h-37.88c-1.86,0-3.21,1.01-3.21,2.7s1.35,2.71,3.21,2.71h15.73v63.75l-49.21-67.47c-.85-1.18-1.86-1.69-3.72-1.69h-52.93c-1.86,0-3.21,1.01-3.21,2.7s1.35,2.71,3.21,2.71h15.39v54.96c-5.07-1.01-10.14-1.52-14.88-1.52-2.03,0-3.72.85-3.72,2.54,0,2.2,1.69,2.87,3.72,2.87,4.74,0,9.64.68,14.88,1.69v55.46h-15.39c-1.86,0-3.21,1.02-3.21,2.71,0,1.69,1.35,2.71,3.21,2.71h39.23c1.86,0,3.21-1.02,3.21-2.71s-1.36-2.71-3.21-2.71h-17.08V24.35l73.73,103.66c1.02,1.52,2.03,2.03,3.89,2.03h9.64c2.03,0,3.21-1.18,3.21-3.21V8.62h15.39c1.86,0,3.21-1.01,3.21-2.71s-1.35-2.7-3.21-2.7ZM1954.88,70.68c6.09,1.18,12.52,2.87,18.94,5.07h-15.39l-3.55-5.07ZM1961.48,79.98h21.98c3.55,2.03,6.93,4.4,10.14,7.1h-27.05l-5.07-7.1ZM1998.01,124.29h-5.07l-4.9-6.76h9.98v6.76ZM1998.01,112.11h-13.7l-5.07-7.1h18.77v7.1ZM1998.01,99.6h-22.66l-5.07-7.1h27.73v7.1ZM1950.32,64.26l-36.02-50.56v-5.07h29.43l54.28,74.91c-12.35-10.66-32.13-16.91-47.69-19.28Z" fill="#0d3a3f"/>
      <path d="M2158.11,75.42h-38.72c-1.86,0-3.21,1.01-3.21,2.7s1.35,2.71,3.21,2.71h20.97v13.19c0,19.96-13.7,33.15-34.5,33.15-7.78,0-13.36-2.37-16.74-13.19-4.06-15.9-4.4-31.62-4.4-47.69,0-49.89,7.1-60.88,21.14-60.88,17.75,0,29.09,13.19,29.09,18.6v14.37c0,1.86,1.01,3.21,3.04,3.21s3.05-1.35,3.05-3.21V5.41c0-1.86-1.02-3.21-3.05-3.21s-3.04,1.35-3.04,3.21v7.44S2126.49,0,2104.68,0c-33.15,0-64.09,22.66-65.61,63.41-3.55-.84-7.27-1.36-10.65-1.36-2.03,0-3.72.85-3.72,2.54,0,2.2,1.7,2.87,3.72,2.87,3.38,0,7.1.51,10.65,1.52,1.08,34.2,20.98,54.34,46.02,61.04,6.28,1.68,12.88,2.53,19.6,2.53,6.09,0,11.66-.89,16.63-2.53,16.12-5.34,25.82-18.69,25.82-36.02v-13.19h10.99c1.86,0,3.21-1.01,3.21-2.71s-1.35-2.7-3.21-2.7ZM2089.63,6.93c-8.12,7.78-11.67,25.02-11.67,59.35,0,9.47.17,17.42.68,24.35-8.45-11.67-20.63-20.63-32.81-25.2.34-33.15,22.15-52.42,43.8-58.51ZM2046,71.53c7.78,3.38,15.55,8.79,21.81,15.56h-19.11c-1.35-4.74-2.37-9.98-2.7-15.56ZM2054.12,99.6c-1.35-2.2-2.53-4.56-3.55-7.1h21.81c1.7,2.37,3.21,4.57,4.57,7.1h-22.83ZM2057.67,105.01h21.81c.68,1.52,1.18,3.21,2.2,7.1h-17.59c-2.37-2.03-4.57-4.4-6.43-7.1ZM2070.86,117.52h12.68c1.36,3.55,3.05,6.09,5.07,8.12-6.09-1.69-12.17-4.23-17.75-8.12Z" fill="#0d3a3f"/>
      <path d="M2331.74,95.88c-2.03,0-2.7,1.35-3.21,3.21-3.04,11.5-15.05,28.07-36.19,28.07-7.78,0-13.36-2.37-16.74-13.19-4.06-15.9-4.4-31.62-4.4-47.69,0-49.89,7.1-60.88,21.14-60.88,17.75,0,29.09,13.19,29.09,18.6v15.22c0,1.86,1.01,3.21,3.04,3.21s3.05-1.35,3.05-3.21V5.41c0-1.86-1.02-3.21-3.05-3.21s-3.04,1.35-3.04,3.21v7.44S2312.97,0,2291.16,0c-33.31,0-64.09,22.66-65.61,63.41-3.55-.85-7.27-1.36-10.65-1.36-2.03,0-3.72.85-3.72,2.54,0,2.2,1.69,2.87,3.72,2.87,3.38,0,7.1.51,10.65,1.52,1.08,34.2,20.87,54.34,45.95,61.04,6.29,1.68,12.91,2.53,19.66,2.53,5.89,0,11.18-.93,15.88-2.53,14.88-5.06,23.86-16.86,27.07-27.39.34-1.18.51-2.54.51-3.72,0-1.86-1.01-3.04-2.87-3.04ZM2276.11,6.93c-8.12,7.78-11.67,25.02-11.67,59.35,0,9.47.17,17.42.68,24.35-8.45-11.67-20.63-20.63-32.81-25.2.34-33.15,22.16-52.42,43.8-58.51ZM2232.48,71.53c7.78,3.38,15.55,8.79,21.81,15.56h-19.11c-1.35-4.74-2.36-9.98-2.7-15.56ZM2240.6,99.6c-1.35-2.2-2.53-4.56-3.55-7.1h21.81c1.7,2.37,3.21,4.57,4.57,7.1h-22.83ZM2244.15,105.01h21.81c.68,1.52,1.18,3.21,2.2,7.1h-17.42c-2.53-2.03-4.74-4.4-6.59-7.1ZM2257.34,117.53h12.68c1.36,3.55,3.05,6.09,5.07,8.12-6.09-1.69-12.17-4.23-17.75-8.12Z" fill="#0d3a3f"/>
      <path d="M2457.69,95.2c-2.03,0-3.21,1.52-3.21,3.55v25.87h-47.51V8.62h15.39c1.86,0,3.21-1.01,3.21-2.71s-1.35-2.7-3.21-2.7h-71.36c-1.86,0-3.21,1.01-3.21,2.7s1.35,2.71,3.21,2.71h15.39v56.48c-5.07-2.03-10.14-3.05-14.88-3.05-2.03,0-3.72.85-3.72,2.54,0,2.2,1.69,2.87,3.72,2.87,4.74,0,9.81,1.35,14.88,3.72v53.43h-15.39c-1.86,0-3.21,1.02-3.21,2.71s1.35,2.71,3.21,2.71h106.7c2.2,0,3.21-1.35,3.21-3.21v-28.07c0-2.03-1.18-3.55-3.21-3.55ZM2373.14,74.91c4.74,3.21,9.47,7.28,13.36,12.18h-13.36v-12.18ZM2373.14,92.5h17.42c1.35,2.37,2.7,4.74,3.89,7.1h-21.31v-7.1ZM2373.14,105.01h23.67c.84,2.36,1.52,4.73,2.03,7.1h-25.7v-7.1ZM2373.14,124.62v-7.1h26.72c.17,2.2.34,4.22.34,7.1h-27.06ZM2400.2,96.72c-6.43-12.35-16.4-22.32-27.06-28.24V8.62h27.06v88.1Z" fill="#0d3a3f"/>
      <path d="M2593.8,3.21h-36.86c-1.86,0-3.21,1.01-3.21,2.7,0,1.86,1.36,2.71,3.21,2.71h15.39v79.14c0,23.67-13.02,38.72-28.41,38.72-17.08,0-24.01-14.88-24.01-40.92V8.62h15.39c1.86,0,3.21-.84,3.21-2.71,0-1.69-1.35-2.7-3.21-2.7h-70.68c-1.86,0-3.21,1.01-3.21,2.7,0,1.86,1.35,2.71,3.21,2.71h14.71v55.97c-4.91-1.52-9.64-2.54-14.21-2.54-2.03,0-3.72.85-3.72,2.54,0,2.2,1.69,2.87,3.72,2.87,4.56,0,9.3,1.01,14.21,2.87v14.88c0,25.63,11.64,39.53,32.31,44.81,6.73,1.72,14.42,2.53,22.98,2.53,6.77,0,12.68-.89,17.78-2.53,18.75-6.04,26.69-22.32,26.69-42.78V8.62h14.71c1.86,0,3.21-.84,3.21-2.71,0-1.69-1.35-2.7-3.21-2.7ZM2486.08,8.62h27.06v81.51c-7.1-9.97-16.91-18.09-27.06-22.83V8.62ZM2486.08,73.39c6.26,3.38,12.18,8.12,17.25,13.7h-17.25v-13.7ZM2486.42,92.5h21.31c1.52,2.37,3.05,4.74,4.4,7.1h-24.35c-.68-2.2-1.02-4.56-1.36-7.1ZM2489.47,105.01h25.2c.85,2.2,1.69,4.73,2.03,7.1h-23.34c-1.52-2.03-2.88-4.4-3.89-7.1ZM2511.96,124.62c-5.24-1.52-9.81-3.89-13.53-7.1h20.97c1.69,2.87,3.55,5.24,5.57,7.1h-13.02Z" fill="#0d3a3f"/>
      <path d="M2701.99,64.26c14.71-4.4,23.67-17.08,23.67-29.93,0-19.44-11.33-31.11-41.93-31.11h-72.04c-1.86,0-3.21,1.01-3.21,2.7s1.35,2.71,3.21,2.71h15.39v56.48c-5.07-2.03-10.14-3.05-14.88-3.05-2.03,0-3.72.85-3.72,2.54,0,2.2,1.69,2.87,3.72,2.87,4.74,0,9.81,1.35,14.88,3.72v53.43h-15.39c-1.86,0-3.21,1.02-3.21,2.71s1.35,2.71,3.21,2.71h77.45c27.73,0,40.58-13.36,40.58-35.34,0-16.91-10.99-28.24-27.73-30.44ZM2633.84,74.91c4.74,3.21,9.47,7.28,13.36,12.18h-13.36v-12.18ZM2633.84,92.5h17.42c1.35,2.37,2.7,4.74,3.89,7.1h-21.31v-7.1ZM2633.84,105.01h23.67c.84,2.36,1.52,4.73,2.03,7.1h-25.7v-7.1ZM2660.9,124.62h-27.06v-7.1h26.72c.17,2.2.34,4.22.34,6.43v.67ZM2660.9,96.73c-6.43-12.35-16.4-22.32-27.06-28.24V8.62h27.06v88.1ZM2689.14,124.62h-21.47V8.62h15.89c28.07,0,35.34,9.98,35.34,25.54s-15.22,28.24-28.07,28.24h-10.48c-2.03,0-3.72.85-3.72,3.05,0,2.37,1.69,3.21,3.38,3.21h14.37c13.87,0,28.58,6.43,28.58,25.7,0,18.27-8.96,30.27-33.82,30.27Z" fill="#0d3a3f"/>
      <polygon points="932.46 120.04 935.21 127.25 964.23 127.25 961.31 120.04 932.46 120.04" fill="#12e0e5"/>
      <path d="M946.55,94.62h-24.04l2.75,7.21h27.65c-1.89-2.57-4.13-4.98-6.36-7.21Z" fill="#0b898c"/>
      <path d="M1022.6,76.76v12.37h13.56c-3.95-4.98-8.76-9.1-13.56-12.37Z" fill="#0a777f"/>
      <path d="M1040.28,94.62h-17.69v7.21h21.64c-1.2-2.4-2.57-4.81-3.95-7.21Z" fill="#0b898c"/>
      <path d="M1022.6,120.04v7.21h27.47c0-2.92-.17-4.98-.34-7.21h-27.13Z" fill="#12e0e5"/>
      <path d="M1046.64,107.33h-24.04v7.21h26.1c-.51-2.41-1.2-4.81-2.06-7.21Z" fill="#0eadb2"/>
      <polygon points="956.17 107.33 927.48 107.33 930.23 114.54 959.08 114.54 956.17 107.33" fill="#0eadb2"/>
      <polygon points="797.17 101.83 820.19 101.83 820.19 94.62 792.02 94.62 797.17 101.83" fill="#0b898c"/>
      <polygon points="815.03 126.91 820.19 126.91 820.19 120.04 810.05 120.04 815.03 126.91" fill="#12e0e5"/>
      <polygon points="806.28 114.54 820.19 114.54 820.19 107.33 801.12 107.33 806.28 114.54" fill="#0eadb2"/>
      <path d="M915.64,77.45l4.63,11.68h19.24c-7.56-5.15-15.97-8.76-23.87-11.68Z" fill="#0a777f"/>
      <polygon points="199.35 126.91 204.5 126.91 204.5 120.04 194.37 120.04 199.35 126.91" fill="#12e0e5"/>
      <polygon points="190.59 114.54 204.5 114.54 204.5 107.33 185.44 107.33 190.59 114.54" fill="#0eadb2"/>
      <path d="M189.73,81.91h-22.33l5.15,7.21h27.47c-3.26-2.75-6.69-5.15-10.3-7.21Z" fill="#0a777f"/>
      <polygon points="181.49 101.83 204.5 101.83 204.5 94.62 176.34 94.62 181.49 101.83" fill="#0b898c"/>
      <path d="M160.71,72.47l3.61,5.15h15.63c-6.53-2.24-13.05-3.95-19.24-5.15Z" fill="#0a777f"/>
      <path d="M287.93,76.76v12.37h13.56c-3.95-4.98-8.76-9.1-13.56-12.37Z" fill="#0a777f"/>
      <path d="M805.42,81.91h-22.33l5.15,7.21h27.47c-3.26-2.75-6.69-5.15-10.3-7.21Z" fill="#0a777f"/>
      <path d="M50.14,107.33h-23.87v7.21h26.11c-.52-2.4-1.38-4.81-2.24-7.21Z" fill="#0eadb2"/>
      <path d="M43.62,94.62h-17.35v7.21h21.64c-1.2-2.4-2.58-4.81-4.3-7.21Z" fill="#0b898c"/>
      <path d="M26.27,76.93v12.19h13.4c-3.95-4.81-8.59-8.93-13.4-12.19Z" fill="#0a777f"/>
      <path d="M305.62,94.62h-17.69v7.21h21.64c-1.2-2.4-2.57-4.81-3.95-7.21Z" fill="#0b898c"/>
      <path d="M53.41,120.04h-27.13v7.21h27.48c0-2.92-.17-4.98-.34-7.21Z" fill="#12e0e5"/>
      <path d="M532.41,76.76v12.37h13.56c-3.95-4.98-8.76-9.1-13.56-12.37Z" fill="#0a777f"/>
      <path d="M556.45,107.33h-24.04v7.21h26.1c-.51-2.4-1.2-4.81-2.06-7.21Z" fill="#0eadb2"/>
      <path d="M311.97,107.33h-24.04v7.21h26.1c-.51-2.4-1.2-4.81-2.06-7.21Z" fill="#0eadb2"/>
      <path d="M532.41,120.04v7.21h27.48c0-2.92-.17-4.98-.34-7.21h-27.13Z" fill="#12e0e5"/>
      <path d="M776.39,72.47l3.61,5.15h15.63c-6.53-2.24-13.05-3.95-19.24-5.15Z" fill="#0a777f"/>
      <path d="M550.1,94.62h-17.69v7.21h21.64c-1.2-2.41-2.57-4.81-3.95-7.21Z" fill="#0b898c"/>
      <path d="M287.93,120.04v7.21h27.47c0-2.92-.17-4.98-.34-7.21h-27.13Z" fill="#12e0e5"/>
      <path d="M416.53,94.62h-17.69v7.21h21.64c-1.2-2.4-2.57-4.81-3.95-7.21Z" fill="#0b898c"/>
      <path d="M422.88,107.33h-24.04v7.21h26.1c-.51-2.4-1.2-4.81-2.06-7.21Z" fill="#0eadb2"/>
      <path d="M398.84,120.04v7.21h27.48c0-2.92-.18-4.98-.34-7.21h-27.14Z" fill="#12e0e5"/>
      <path d="M398.84,76.76v12.37h13.56c-3.95-4.98-8.76-9.1-13.56-12.37Z" fill="#0a777f"/>
      <path d="M3.26,132.74h73.5c1.89,0,3.26-1.03,3.26-2.75s-1.37-2.75-3.26-2.75h-16.14V9.44h16.14c1.89,0,3.26-1.03,3.26-2.75s-1.37-2.74-3.26-2.74H3.26C1.37,3.95,0,4.98,0,6.69s1.37,2.75,3.26,2.75h16.14v57.53c-5.33-2.06-10.65-3.26-15.63-3.26-2.06,0-3.78.86-3.78,2.58,0,2.23,1.72,2.92,3.78,2.92,4.98,0,10.3,1.37,15.63,3.95v54.09H3.26c-1.89,0-3.26,1.03-3.26,2.75s1.37,2.75,3.26,2.75ZM26.27,9.44h27.48v89.64c-6.53-12.53-16.66-22.49-27.48-28.68V9.44ZM26.27,76.93c4.81,3.26,9.45,7.38,13.4,12.19h-13.4v-12.19ZM26.27,94.62h17.35c1.72,2.41,3.09,4.81,4.3,7.21h-21.64v-7.21ZM26.27,107.33h23.87c.86,2.4,1.72,4.8,2.24,7.21h-26.11v-7.21ZM26.27,120.04h27.13c.17,2.23.34,4.29.34,7.21h-27.48v-7.21Z" fill="#0d3a3f"/>
      <path d="M227,3.95h-38.46c-1.89,0-3.26,1.03-3.26,2.74s1.37,2.75,3.26,2.75h15.97v64.74S154.53,5.67,154.53,5.67c-.86-1.2-1.89-1.72-3.78-1.72h-53.75c-1.89,0-3.26,1.03-3.26,2.74s1.37,2.75,3.26,2.75h15.63v55.81c-5.15-1.03-10.3-1.55-15.11-1.55-2.06,0-3.78.86-3.78,2.58,0,2.23,1.72,2.92,3.78,2.92,4.81,0,9.79.69,15.11,1.72v56.32h-15.63c-1.89,0-3.26,1.03-3.26,2.75s1.37,2.75,3.26,2.75h39.84c1.89,0,3.26-1.03,3.26-2.75s-1.38-2.75-3.26-2.75h-17.35V25.41l74.87,105.27c1.03,1.55,2.06,2.06,3.95,2.06h9.79c2.06,0,3.26-1.2,3.26-3.26V9.44h15.63c1.89,0,3.26-1.03,3.26-2.75s-1.37-2.74-3.26-2.74ZM160.71,72.47c6.19,1.2,12.71,2.92,19.24,5.15h-15.63l-3.61-5.15ZM167.41,81.91h22.33c3.61,2.06,7.04,4.47,10.3,7.21h-27.47l-5.15-7.21ZM204.5,126.91h-5.15l-4.98-6.87h10.13v6.87ZM204.5,114.54h-13.91l-5.15-7.21h19.06v7.21ZM204.5,101.83h-23.01l-5.15-7.21h28.16v7.21ZM156.07,65.94L119.5,14.6v-5.15h29.88l55.12,76.08c-12.54-10.82-32.63-17.17-48.43-19.58Z" fill="#0d3a3f"/>
      <path d="M358.51,3.95h-113.68c-1.89,0-3.26,1.2-3.26,3.26v27.47c0,1.89,1.03,3.26,3.09,3.26s3.09-1.37,3.09-3.26V9.44h33.32v57.36c-5.15-2.06-10.3-3.09-15.11-3.09-2.06,0-3.78.86-3.78,2.58,0,2.23,1.72,2.92,3.78,2.92,4.81,0,9.96,1.37,15.11,3.78v54.26h-15.63c-1.89,0-3.26,1.03-3.26,2.75s1.37,2.75,3.26,2.75h72.47c1.89,0,3.26-1.03,3.26-2.75s-1.38-2.75-3.26-2.75h-15.63V9.44h33.32s0,25.24,0,25.24c0,1.89,1.03,3.26,3.09,3.26s3.09-1.37,3.09-3.26V7.21c0-2.06-1.37-3.26-3.26-3.26ZM287.93,76.76c4.81,3.26,9.62,7.39,13.56,12.37h-13.56v-12.37ZM287.93,94.62h17.69c1.38,2.4,2.75,4.81,3.95,7.21h-21.64v-7.21ZM287.93,107.33h24.04c.86,2.4,1.55,4.8,2.06,7.21h-26.1v-7.21ZM287.93,127.25v-7.21h27.13c.17,2.23.34,4.29.34,7.21h-27.47ZM315.41,98.91c-6.53-12.54-16.66-22.67-27.47-28.68V9.44h27.47v89.47Z" fill="#0d3a3f"/>
      <path d="M484.7,98.91c-2.06,0-3.26,1.55-3.26,3.61v24.72h-48.25v-44.3h33.14c1.72,0,2.92-1.03,2.92-2.92s-1.2-2.92-2.92-2.92h-33.14V9.44h47.39v23.01c0,2.06,1.2,3.6,3.26,3.6s3.26-1.54,3.26-3.6V7.21c0-2.06-1.2-3.26-3.26-3.26h-107.5c-1.89,0-3.26,1.03-3.26,2.74s1.37,2.75,3.26,2.75h15.63v57.36c-5.15-2.06-10.3-3.09-15.11-3.09-2.06,0-3.78.86-3.78,2.58,0,2.23,1.72,2.92,3.78,2.92,4.81,0,9.96,1.37,15.11,3.78v54.26h-15.63c-1.89,0-3.26,1.03-3.26,2.75s1.37,2.75,3.26,2.75h108.36c2.24,0,3.26-1.37,3.26-3.26v-26.96c0-2.06-1.2-3.61-3.26-3.61ZM398.84,76.76c4.81,3.26,9.62,7.39,13.56,12.37h-13.56v-12.37ZM398.84,94.62h17.69c1.37,2.4,2.74,4.81,3.95,7.21h-21.64v-7.21ZM398.84,107.33h24.04c.86,2.4,1.55,4.8,2.06,7.21h-26.1v-7.21ZM398.84,127.25v-7.21h27.14c.17,2.23.34,4.29.34,7.21h-27.48ZM426.32,98.91c-6.53-12.54-16.66-22.67-27.48-28.68V9.44h27.48v89.47Z" fill="#0d3a3f"/>
      <path d="M634.08,126.91c-9.27,0-14.6-4.81-20.09-11.68l-8.42-10.65c-2.92-3.61-6.53-6.87-10.99-9.11,21.64-4.8,36.23-20.43,36.23-44.82,0-31.08-22.33-46.71-56.5-46.71h-64.4c-1.89,0-3.26,1.03-3.26,2.74,0,1.89,1.37,2.75,3.26,2.75h15.63v57.36c-5.15-2.06-10.3-3.09-15.11-3.09-2.06,0-3.78.86-3.78,2.58,0,2.23,1.72,2.92,3.78,2.92,4.81,0,9.96,1.37,15.11,3.78v54.26h-15.63c-1.89,0-3.26.86-3.26,2.75,0,1.72,1.37,2.75,3.26,2.75h72.47c1.89,0,3.26-1.03,3.26-2.75,0-1.89-1.37-2.75-3.26-2.75h-15.62V9.44h7.38c30.74,0,49.63,12.36,49.63,40.87s-18.04,41.56-44.31,41.56c-1.89,0-3.61.68-3.61,2.92s1.72,2.92,3.43,2.92c9.27,0,15.29,4.29,20.78,11.16l8.76,11.17c6.87,8.75,13.74,12.71,25.07,12.71,4.13,0,5.5-1.03,5.5-2.92s-1.37-2.92-5.32-2.92ZM532.41,76.76c4.81,3.26,9.62,7.39,13.56,12.37h-13.56v-12.37ZM532.41,94.62h17.69c1.37,2.4,2.74,4.81,3.95,7.21h-21.64v-7.21ZM532.41,107.33h24.04c.86,2.4,1.55,4.8,2.06,7.21h-26.1v-7.21ZM532.41,127.25v-7.21h27.13c.17,2.23.34,4.29.34,7.21h-27.48ZM559.89,98.91c-6.53-12.54-16.66-22.67-27.48-28.68V9.44h27.48v89.47Z" fill="#0d3a3f"/>
      <path d="M842.68,3.95h-38.46c-1.89,0-3.26,1.03-3.26,2.74s1.37,2.75,3.26,2.75h15.97v64.74l-49.97-68.52c-.86-1.2-1.89-1.72-3.78-1.72h-53.75c-1.89,0-3.26,1.03-3.26,2.74s1.37,2.75,3.26,2.75h15.62v55.81c-5.15-1.03-10.3-1.55-15.11-1.55-2.06,0-3.78.86-3.78,2.58,0,2.23,1.72,2.92,3.78,2.92,4.81,0,9.79.69,15.11,1.72v56.32h-15.62c-1.89,0-3.26,1.03-3.26,2.75s1.37,2.75,3.26,2.75h39.84c1.89,0,3.26-1.03,3.26-2.75s-1.38-2.75-3.26-2.75h-17.35V25.41l74.87,105.27c1.03,1.55,2.06,2.06,3.95,2.06h9.79c2.06,0,3.26-1.2,3.26-3.26V9.44h15.63c1.89,0,3.26-1.03,3.26-2.75s-1.37-2.74-3.26-2.74ZM776.39,72.47c6.19,1.2,12.71,2.92,19.24,5.15h-15.63l-3.61-5.15ZM783.09,81.91h22.33c3.61,2.06,7.04,4.47,10.3,7.21h-27.47l-5.15-7.21ZM820.19,126.91h-5.15l-4.98-6.87h10.13v6.87ZM820.19,114.54h-13.91l-5.15-7.21h19.06v7.21ZM820.19,101.83h-23.01l-5.15-7.21h28.16v7.21ZM771.76,65.94l-36.58-51.35v-5.15h29.88l55.12,76.08c-12.54-10.82-32.63-17.17-48.43-19.58Z" fill="#0d3a3f"/>
      <path d="M982.78,127.25h-11.68L921.2,3.95l-.07-.17c-1.03-2.57-3.44-3.78-5.5-3.78-2.23,0-4.46.86-5.67,3.78l-.07.17-25.17,61.99c-6.36-1.37-12.54-2.24-18.37-2.24-2.06,0-3.78.86-3.78,2.58,0,2.23,1.72,2.92,3.78,2.92,5.15,0,10.65.69,16.31,2.06l-22.67,55.98h-11.67c-1.89,0-3.26,1.03-3.26,2.75s1.37,2.75,3.26,2.75h34.69c1.89,0,3.26-1.03,3.26-2.75s-1.37-2.75-3.26-2.75h-16.14l8.07-19.92h45.51l7.73,19.92h-18.03c-1.89,0-3.26,1.03-3.26,2.75s1.37,2.75,3.26,2.75h72.64c1.89,0,3.26-1.03,3.26-2.75s-1.37-2.75-3.26-2.75ZM915.47,7.04l32.97,81.23c-10.65-8.76-23.7-13.91-35.38-17.52l-11.33-29.19-.18-.17,13.91-34.35ZM877.17,101.83l20.95-51.86,20.26,51.86h-41.21ZM920.27,89.13l-4.63-11.68c7.9,2.92,16.31,6.53,23.87,11.68h-19.24ZM922.51,94.62h24.04c2.23,2.24,4.47,4.64,6.36,7.21h-27.65l-2.75-7.21ZM927.48,107.33h28.68l2.92,7.21h-28.85l-2.75-7.21ZM935.21,127.25l-2.75-7.21h28.85l2.92,7.21h-29.02Z" fill="#0d3a3f"/>
      <path d="M1093.17,3.95h-113.68c-1.89,0-3.26,1.2-3.26,3.26v27.47c0,1.89,1.03,3.26,3.09,3.26s3.09-1.37,3.09-3.26V9.44h33.32v57.36c-5.15-2.06-10.3-3.09-15.11-3.09-2.06,0-3.78.86-3.78,2.58,0,2.23,1.72,2.92,3.78,2.92,4.81,0,9.96,1.37,15.11,3.78v54.26h-15.62c-1.89,0-3.26,1.03-3.26,2.75s1.37,2.75,3.26,2.75h72.47c1.89,0,3.26-1.03,3.26-2.75s-1.38-2.75-3.26-2.75h-15.63V9.44s33.32,0,33.32,0v25.24c0,1.89,1.03,3.26,3.09,3.26s3.09-1.37,3.09-3.26V7.21c0-2.06-1.37-3.26-3.26-3.26ZM1022.6,76.76c4.81,3.26,9.62,7.39,13.56,12.37h-13.56v-12.37ZM1022.6,94.62h17.69c1.38,2.4,2.75,4.81,3.95,7.21h-21.64v-7.21ZM1022.6,107.33h24.04c.86,2.4,1.55,4.8,2.06,7.21h-26.1v-7.21ZM1022.6,127.25v-7.21h27.13c.17,2.23.34,4.29.34,7.21h-27.47ZM1050.07,98.91c-6.53-12.54-16.66-22.67-27.47-28.68V9.44h27.47v89.47Z" fill="#0d3a3f"/>
    </g>
  </g>
</svg>