<?xml version="1.0" encoding="UTF-8"?>
<svg id="Layer_2" data-name="Layer 2" xmlns="http://www.w3.org/2000/svg" xmlns:xlink="http://www.w3.org/1999/xlink" viewBox="0 0 1366.12 300">
  <defs>
    <linearGradient id="linear-gradient" x1="0" y1="231.6" x2="1366.12" y2="231.6" gradientUnits="userSpaceOnUse">
      <stop offset="0" stop-color="#e500c5"/>
      <stop offset="1" stop-color="#606"/>
    </linearGradient>
    <linearGradient id="linear-gradient-2" x1="0" y1="228.78" x2="1366.12" y2="228.78" xlink:href="#linear-gradient"/>
    <linearGradient id="linear-gradient-3" y1="67.39" x2="1366.12" y2="67.39" xlink:href="#linear-gradient"/>
    <linearGradient id="linear-gradient-4" x1="0" y1="228.27" x2="1366.12" y2="228.27" xlink:href="#linear-gradient"/>
    <linearGradient id="linear-gradient-5" y1="231.6" x2="1366.12" y2="231.6" xlink:href="#linear-gradient"/>
    <linearGradient id="linear-gradient-6" y1="231.6" y2="231.6" xlink:href="#linear-gradient"/>
    <linearGradient id="linear-gradient-7" y1="231.67" x2="1366.12" y2="231.67" xlink:href="#linear-gradient"/>
    <linearGradient id="linear-gradient-8" x1="0" y1="231.6" x2="1366.12" y2="231.6" xlink:href="#linear-gradient"/>
    <linearGradient id="linear-gradient-9" y1="67.39" x2="1366.12" y2="67.39" xlink:href="#linear-gradient"/>
    <linearGradient id="linear-gradient-10" x1="0" y1="59.27" x2="1366.12" y2="59.27" xlink:href="#linear-gradient"/>
    <linearGradient id="linear-gradient-11" x1="0" y1="67.49" x2="1366.12" y2="67.49" xlink:href="#linear-gradient"/>
    <linearGradient id="linear-gradient-12" y1="228.27" x2="1366.12" y2="228.27" xlink:href="#linear-gradient"/>
    <linearGradient id="linear-gradient-13" y1="228.2" x2="1366.12" y2="228.2" xlink:href="#linear-gradient"/>
    <linearGradient id="linear-gradient-14" y1="231.02" x2="1366.12" y2="231.02" xlink:href="#linear-gradient"/>
    <linearGradient id="linear-gradient-15" x1="0" y1="59.06" x2="1366.12" y2="59.06" xlink:href="#linear-gradient"/>
    <linearGradient id="linear-gradient-16" x1="0" y1="231.6" x2="1366.12" y2="231.6" xlink:href="#linear-gradient"/>
    <linearGradient id="linear-gradient-17" y1="67.39" x2="1366.12" y2="67.39" xlink:href="#linear-gradient"/>
    <linearGradient id="linear-gradient-18" y1="59.06" x2="1366.12" y2="59.06" xlink:href="#linear-gradient"/>
    <linearGradient id="linear-gradient-19" x1="0" y1="67.39" x2="1366.12" y2="67.39" xlink:href="#linear-gradient"/>
    <linearGradient id="linear-gradient-20" y1="225.96" x2="1366.12" y2="225.96" xlink:href="#linear-gradient"/>
  </defs>
  <g id="Layer_1-2" data-name="Layer 1">
    <g>
      <path d="M1284.21,245.1c9.1,5.06,17.63,13.58,23.12,24.13v-75.27h-23.12v51.14Z" fill="url(#linear-gradient)"/>
      <path d="M1181.09,263.59v-69.63h-23.12v50.13c8.67,4.05,17.05,10.98,23.12,19.5Z" fill="url(#linear-gradient-2)"/>
      <path d="M530.25,123.03V11.75h-34.18v75.61c13.46,7.48,26.06,20.08,34.18,35.67Z" fill="url(#linear-gradient-3)"/>
      <path d="M969.2,264.03c-.43-5.93-.58-12.71-.58-20.8,0-29.33,3.03-44.06,9.97-50.71-18.49,5.2-37.13,21.67-37.42,49.98,10.4,3.9,20.8,11.56,28.03,21.53Z" fill="url(#linear-gradient-4)"/>
      <path d="M497.35,245.1c9.1,5.06,17.62,13.58,23.11,24.13v-75.27h-23.11v51.14Z" fill="url(#linear-gradient-5)"/>
      <path d="M360.71,245.1c9.1,5.06,17.63,13.58,23.12,24.13v-75.27h-23.12v51.14Z" fill="url(#linear-gradient-6)"/>
      <path d="M591.08,245.25c9.1,5.2,17.63,13.58,23.12,24.12v-75.41s-23.12,0-23.12,0v51.29Z" fill="url(#linear-gradient-7)"/>
      <path d="M128.46,245.1c9.1,5.06,17.63,13.58,23.12,24.13v-75.27h-23.12v51.14Z" fill="url(#linear-gradient-8)"/>
      <path d="M358.13,87.36c13.45,7.48,26.06,20.08,34.17,35.67V11.75h-34.17v75.61Z" fill="url(#linear-gradient-9)"/>
      <path d="M1135.67,88c14.52,4.49,30.75,10.89,44,21.79l-41.01-101.03-17.31,42.72.22.21,14.1,36.31Z" fill="url(#linear-gradient-10)"/>
      <path d="M66.85,123.24V11.75s-34.18,0-34.18,0v75.83c13.46,7.69,26.06,20.08,34.18,35.67Z" fill="url(#linear-gradient-11)"/>
      <path d="M809.9,264.03c-.43-5.93-.58-12.71-.58-20.8,0-29.33,3.03-44.06,9.97-50.71-18.49,5.2-37.12,21.67-37.42,49.98,10.4,3.9,20.8,11.56,28.03,21.53Z" fill="url(#linear-gradient-12)"/>
      <path d="M257.3,264.17c-.43-5.92-.58-12.85-.58-20.95,0-29.62,2.89-44.49,9.54-51-18.2,5.06-36.69,21.53-36.98,50.42,10.4,3.9,20.8,11.56,28.03,21.53Z" fill="url(#linear-gradient-13)"/>
      <path d="M84.43,261.43c0-14.01-6.93-21.96-20.08-26.58l-16.32-5.77c-11.42-4.05-18.21-9.82-18.21-19.21,0-4.91,1.45-12.28,7.66-16.91-14.88,5.06-24.13,17.05-24.13,30.34,0,7.08,2.31,12.71,6.79,17.05,27.45,2.74,49.84,10.4,59.66,22.24,1.73,2.17,3.03,4.19,3.76,6.5.58-2.46.87-4.91.87-7.65Z" fill="url(#linear-gradient-14)"/>
      <path d="M148.63,11.75v6.41l45.5,63.86c19.65,2.99,44.64,10.89,60.23,24.35L185.8,11.75h-37.17Z" fill="url(#linear-gradient-15)"/>
      <path d="M1061.49,245.1c9.1,5.06,17.63,13.58,23.12,24.13v-75.27h-23.12s0,51.14,0,51.14Z" fill="url(#linear-gradient-16)"/>
      <path d="M1271.91,87.36c13.45,7.48,26.06,20.08,34.17,35.67V11.75h-34.17v75.61Z" fill="url(#linear-gradient-17)"/>
      <path d="M914.42,11.75v6.41l45.5,63.86c19.65,2.99,44.64,10.89,60.23,24.35l-68.56-94.62h-37.17Z" fill="url(#linear-gradient-18)"/>
      <path d="M662.22,87.36c13.46,7.48,26.06,20.08,34.18,35.67V11.75h-34.18s0,75.61,0,75.61Z" fill="url(#linear-gradient-19)"/>
      <path d="M669.51,193.96v4.34l30.77,43.19c13.29,2.02,30.19,7.37,40.74,16.47l-46.37-64h-25.14Z" fill="url(#linear-gradient-20)"/>
      <path d="M128.46,287v6.06h23.12c0-2.46-.15-4.19-.29-6.06h-22.83Z" fill="#12e0e5"/>
      <path d="M148.69,276.31h-20.22v6.06h21.96c-.43-2.02-1.01-4.05-1.73-6.06Z" fill="#0eadb2"/>
      <path d="M251.81,265.62h-18.63c.86,2.17,1.88,4.19,2.89,6.07h19.65c-1.15-2.17-2.46-4.05-3.9-6.07Z" fill="#0b898c"/>
      <path d="M257.88,276.31h-18.78c1.59,2.31,3.47,4.33,5.35,6.06h15.31c-.86-3.32-1.3-4.77-1.88-6.06Z" fill="#0eadb2"/>
      <path d="M143.34,265.62h-14.88v6.07s18.2,0,18.2,0c-1.01-2.02-2.17-4.05-3.32-6.07Z" fill="#0b898c"/>
      <path d="M229.42,247.7c.29,4.77,1.15,9.25,2.31,13.29h16.18c-5.35-5.78-11.85-10.4-18.49-13.29Z" fill="#0a777f"/>
      <path d="M58.86,293.5c4.48-1.59,8.81-3.76,12.42-6.5h-7.22c-1.3,2.46-3.03,4.62-5.2,6.5Z" fill="#12e0e5"/>
      <path d="M128.46,250.59v10.4h11.41c-3.32-4.19-7.37-7.66-11.41-10.4Z" fill="#0a777f"/>
      <path d="M71.43,260.99c-2.74-2.17-6.36-4.19-10.4-6.07h-8.52c3.47,1.73,6.5,3.61,8.81,6.07h10.11Z" fill="#0a777f"/>
      <path d="M79.23,271.68c-.44-2.02-1.45-4.05-3.03-6.07h-11.56c1.01,1.88,1.59,3.9,1.88,6.07h12.71Z" fill="#0b898c"/>
      <path d="M65.79,282.37h10.55c1.59-1.44,2.6-3.61,3.03-6.06h-12.71c-.14,2.17-.43,4.19-.87,6.06Z" fill="#0eadb2"/>
      <path d="M28.08,245.97c1.73.87,3.76,1.59,5.78,2.31l9.82,3.32h8.96c-7.22-2.46-15.46-4.33-24.56-5.63Z" fill="#0a777f"/>
      <path d="M261.2,287h-11.12c4.77,3.32,9.97,5.63,15.31,7.08-1.59-1.73-3.03-4.04-4.19-7.08Z" fill="#12e0e5"/>
      <path d="M804.55,265.62h-18.63c.87,2.17,1.88,4.19,3.03,6.07h19.5c-1.16-2.17-2.46-4.05-3.9-6.07Z" fill="#0b898c"/>
      <path d="M782.02,247.7c.29,4.77,1.15,9.25,2.31,13.29h16.33c-5.35-5.78-11.99-10.4-18.63-13.29Z" fill="#0a777f"/>
      <path d="M810.62,276.31h-18.63c1.59,2.31,3.47,4.33,5.49,6.06h15.02c-.87-3.32-1.3-4.77-1.88-6.06Z" fill="#0eadb2"/>
      <path d="M814.08,287h-10.83c4.77,3.32,9.97,5.49,15.17,6.93-1.73-1.73-3.18-3.9-4.34-6.93Z" fill="#12e0e5"/>
      <polygon points="729.32 282.37 741.02 282.37 741.02 276.31 724.98 276.31 729.32 282.37" fill="#0eadb2"/>
      <polygon points="736.68 292.78 741.02 292.78 741.02 287 732.49 287 736.68 292.78" fill="#12e0e5"/>
      <path d="M941.32,247.7c.29,4.77,1.15,9.25,2.31,13.29h16.33c-5.35-5.78-11.99-10.4-18.63-13.29Z" fill="#0a777f"/>
      <path d="M1157.97,249.29v11.7h14.74c-4.33-4.77-9.39-8.81-14.74-11.7Z" fill="#0a777f"/>
      <polygon points="721.66 271.68 741.02 271.68 741.02 265.62 717.33 265.62 721.66 271.68" fill="#0b898c"/>
      <path d="M1176.46,265.62h-18.2c.29,2.17.58,4.19,1.16,6.07h20.8c-1.15-2.02-2.46-4.05-3.76-6.07Z" fill="#0b898c"/>
      <path d="M1061.49,287v6.06h23.12c0-2.46-.15-4.19-.29-6.06h-22.83Z" fill="#12e0e5"/>
      <path d="M1076.37,265.62h-14.88v6.07h18.2c-1.01-2.02-2.17-4.05-3.32-6.07Z" fill="#0b898c"/>
      <path d="M1081.71,276.31h-20.22v6.06h21.96c-.43-2.02-1.01-4.05-1.73-6.06Z" fill="#0eadb2"/>
      <path d="M728.59,254.93h-18.78l4.34,6.07h23.11c-2.74-2.31-5.63-4.34-8.67-6.07Z" fill="#0a777f"/>
      <path d="M963.86,265.62h-18.63c.87,2.17,1.88,4.19,3.03,6.07h19.5c-1.16-2.17-2.46-4.05-3.9-6.07Z" fill="#0b898c"/>
      <path d="M1061.49,250.59v10.4h11.41c-3.32-4.19-7.37-7.66-11.41-10.4Z" fill="#0a777f"/>
      <path d="M973.39,287h-10.83c4.77,3.32,9.97,5.49,15.17,6.93-1.73-1.73-3.18-3.9-4.34-6.93Z" fill="#12e0e5"/>
      <path d="M969.93,276.31h-18.63c1.59,2.31,3.47,4.33,5.63,6.06h14.88c-.87-3.32-1.3-4.77-1.88-6.06Z" fill="#0eadb2"/>
      <path d="M1182.39,276.31h-21.53c.86,2.31,2.02,4.33,3.32,6.06h19.94c-.29-2.02-1.01-4.19-1.73-6.06Z" fill="#0eadb2"/>
      <path d="M1191.2,293.06c-1.73-1.59-3.32-3.61-4.76-6.06h-17.92c3.18,2.74,7.08,4.77,11.56,6.06h11.12Z" fill="#12e0e5"/>
      <path d="M1284.21,287v6.06h23.12v-.57c0-1.88-.15-3.61-.29-5.49h-22.83Z" fill="#12e0e5"/>
      <path d="M497.35,250.59v10.4h11.41c-3.32-4.19-7.37-7.66-11.41-10.4Z" fill="#0a777f"/>
      <path d="M512.23,265.62h-14.88v6.07h18.2c-1.01-2.02-2.17-4.05-3.32-6.07Z" fill="#0b898c"/>
      <path d="M517.57,276.31h-20.22v6.06h21.96c-.43-2.02-1.01-4.05-1.73-6.06Z" fill="#0eadb2"/>
      <path d="M380.93,276.31h-20.22v6.06h21.96c-.43-2.02-1.01-4.05-1.73-6.06Z" fill="#0eadb2"/>
      <path d="M360.71,250.59v10.4h11.41c-3.32-4.19-7.37-7.66-11.41-10.4Z" fill="#0a777f"/>
      <path d="M375.59,265.62h-14.88s0,6.07,0,6.07h18.2c-1.01-2.02-2.17-4.05-3.32-6.07Z" fill="#0b898c"/>
      <path d="M497.35,287v6.06h23.11c0-2.46-.14-4.19-.29-6.06h-22.83Z" fill="#12e0e5"/>
      <path d="M360.71,287v6.06h23.12c0-2.46-.15-4.19-.29-6.06h-22.83Z" fill="#12e0e5"/>
      <path d="M591.08,287v6.06h23.12c0-2.46-.14-4.19-.29-6.06h-22.83Z" fill="#12e0e5"/>
      <path d="M611.16,276.31h-20.08v6.06h21.96c-.44-2.02-1.16-4.05-1.88-6.06Z" fill="#0eadb2"/>
      <path d="M605.67,265.62h-14.59v6.07h18.21c-1.01-2.02-2.17-4.05-3.61-6.07Z" fill="#0b898c"/>
      <path d="M1284.21,250.59v10.4h11.41c-3.32-4.19-7.37-7.66-11.41-10.4Z" fill="#0a777f"/>
      <path d="M704.18,246.98l3.03,4.34h13.15c-5.49-1.88-10.98-3.32-16.18-4.34Z" fill="#0a777f"/>
      <path d="M1299.09,265.62h-14.88v6.07h18.2c-1.01-2.02-2.17-4.05-3.32-6.07Z" fill="#0b898c"/>
      <path d="M1304.43,276.31h-20.22v6.06h21.96c-.43-2.02-1.01-4.05-1.73-6.06Z" fill="#0eadb2"/>
      <path d="M591.08,250.74v10.26h11.27c-3.32-4.05-7.22-7.51-11.27-10.26Z" fill="#0a777f"/>
      <path d="M90.21,260.27c0-15.89-9.54-25.43-22.83-30.05l-16.18-5.63c-10.55-3.61-15.6-7.95-15.6-15.02,0-13.58,9.1-18.35,18.78-18.35,15.75,0,24.13,10.4,24.13,14.59v11.84c0,1.59.86,2.74,2.6,2.74s2.6-1.15,2.6-2.74v-26.58c0-1.45-.87-2.6-2.6-2.6s-2.6,1.15-2.6,2.6v5.34c-4.77-5.63-14.01-9.82-25.14-9.82-24.99,0-45.8,14.88-45.8,37.12,0,6.36,1.59,11.7,4.63,16.18-3.03-.14-5.92-.29-8.96-.29-1.88,0-3.18.73-3.18,2.17,0,1.88,1.3,2.46,3.18,2.46,4.48,0,8.96.29,13.29.58,3.9,3.32,8.67,6.06,14.45,7.94l14.01,4.77c9.82,3.32,16.03,8.81,16.03,17.48,0,9.68-4.76,20.51-19.65,20.51-16.33,0-31.06-10.98-31.06-27.02v-6.07c0-1.59-.86-2.74-2.6-2.74s-2.6,1.15-2.6,2.74v32.94c0,1.01.35,1.84,1.05,2.31.4.27.92.43,1.55.43s1.15-.16,1.55-.43c.7-.47,1.05-1.3,1.05-2.31v-10.55c3.82,6.33,10.04,10.52,17.15,12.86,4.73,1.56,9.85,2.31,14.93,2.31s10.95-.75,16.46-2.31c16.34-4.64,31.36-16.46,31.36-37.42ZM43.69,251.6l-9.82-3.32c-2.02-.72-4.05-1.44-5.78-2.31,9.1,1.3,17.34,3.18,24.56,5.63h-8.96ZM52.5,254.93h8.52c4.05,1.88,7.66,3.9,10.4,6.07h-10.11c-2.31-2.46-5.34-4.34-8.81-6.07ZM76.19,265.62c1.59,2.02,2.6,4.05,3.03,6.07h-12.71c-.29-2.17-.87-4.19-1.88-6.07h11.56ZM58.86,293.5c2.17-1.88,3.9-4.05,5.2-6.5h7.22c-3.61,2.74-7.94,4.91-12.42,6.5ZM76.34,282.37h-10.55c.44-1.88.73-3.9.87-6.06h12.71c-.43,2.46-1.44,4.62-3.03,6.06ZM20.14,240.34c-4.48-4.34-6.79-9.97-6.79-17.05,0-13.29,9.25-25.28,24.13-30.34-6.21,4.63-7.66,11.99-7.66,16.91,0,9.39,6.79,15.17,18.21,19.21l16.32,5.77c13.15,4.63,20.08,12.57,20.08,26.58,0,2.74-.29,5.2-.87,7.65-.72-2.31-2.02-4.33-3.76-6.5-9.82-11.84-32.21-19.5-59.66-22.24Z" fill="#0d3a3f"/>
      <path d="M163.71,189.34h-54.17c-1.59,0-2.74.86-2.74,2.31s1.15,2.31,2.74,2.31h13.14v48.25c-4.33-1.73-8.67-2.6-12.71-2.6-1.73,0-3.18.73-3.18,2.17,0,1.88,1.44,2.46,3.18,2.46,4.05,0,8.38,1.15,12.71,3.18v45.65h-13.14c-1.59,0-2.74.87-2.74,2.31s1.15,2.31,2.74,2.31h61.11c1.59,0,2.74-.87,2.74-2.31s-1.15-2.31-2.74-2.31h-13.29v-99.1h6.21c25.42,0,40.88,10.69,40.88,35.11s-15.02,35.68-36.98,35.68c-1.59,0-3.03.58-3.03,2.46s1.44,2.46,2.89,2.46c24.99,0,42.9-13.72,42.9-40.31,0-26.58-18.35-40.01-46.52-40.01ZM128.46,250.59c4.05,2.74,8.09,6.22,11.41,10.4h-11.41v-10.4ZM128.46,265.62h14.88c1.15,2.02,2.31,4.05,3.32,6.07h-18.2s0-6.07,0-6.07ZM128.46,276.31h20.22c.72,2.02,1.3,4.04,1.73,6.06h-21.96v-6.06ZM128.46,293.06v-6.06h22.83c.14,1.88.29,3.61.29,6.06h-23.12ZM151.58,269.23c-5.49-10.55-14.01-19.07-23.12-24.13v-51.14h23.12v75.27Z" fill="#0d3a3f"/>
      <path d="M329.96,243.23c0-34.24-23.98-56.63-51.86-56.63-27.74,0-53.45,19.5-54.61,54.17-3.03-.72-6.21-1.16-9.1-1.16-1.73,0-3.18.73-3.18,2.17,0,1.88,1.44,2.46,3.18,2.46,2.89,0,6.06.43,9.1,1.3.81,29.22,17.32,46.42,38.23,52.15,5.25,1.44,10.76,2.16,16.38,2.16,5.04,0,9.96-.75,14.64-2.16,21.07-6.38,37.22-26.45,37.22-54.46ZM266.25,192.23c-6.64,6.5-9.54,21.38-9.54,51,0,8.09.15,15.02.58,20.95-7.22-9.97-17.62-17.62-28.03-21.53.29-28.89,18.78-45.36,36.98-50.42ZM229.42,247.7c6.64,2.89,13.14,7.51,18.49,13.29h-16.18c-1.15-4.05-2.02-8.52-2.31-13.29ZM236.06,271.68c-1.01-1.88-2.02-3.9-2.89-6.07h18.63c1.44,2.02,2.74,3.9,3.9,6.07h-19.65ZM239.1,276.31h18.78c.57,1.3,1.01,2.74,1.88,6.06h-15.31c-1.88-1.73-3.76-3.76-5.35-6.06ZM261.2,287c1.16,3.03,2.6,5.34,4.19,7.08-5.35-1.44-10.55-3.76-15.31-7.08h11.12ZM279.11,295.23c-6.07,0-10.55-2.17-13.15-12.14-.29-.86-.57-1.73-.72-2.6-1.73-7.8-2.46-19.65-2.46-37.27,0-42.62,5.49-52.01,16.33-52.01,24.84,0,45.07,21.53,45.07,52.01s-20.22,52.01-45.07,52.01Z" fill="#0d3a3f"/>
      <path d="M446.23,292.78c-7.8,0-12.28-4.05-16.9-9.82l-7.08-8.96c-2.46-3.03-5.49-5.78-9.25-7.66,18.2-4.04,30.48-17.19,30.48-37.7,0-26.15-18.78-39.29-47.53-39.29h-54.17c-1.59,0-2.74.86-2.74,2.31,0,1.59,1.15,2.31,2.74,2.31h13.14v48.25c-4.33-1.73-8.67-2.6-12.71-2.6-1.73,0-3.18.73-3.18,2.17,0,1.88,1.44,2.46,3.18,2.46,4.05,0,8.38,1.15,12.71,3.18v45.65h-13.14c-1.59,0-2.74.73-2.74,2.31,0,1.44,1.15,2.31,2.74,2.31h60.96c1.59,0,2.74-.87,2.74-2.31,0-1.59-1.15-2.31-2.74-2.31h-13.14v-99.1h6.21c25.86,0,41.75,10.4,41.75,34.38s-15.17,34.96-37.27,34.96c-1.59,0-3.03.57-3.03,2.46s1.44,2.46,2.89,2.46c7.8,0,12.86,3.61,17.48,9.39l7.37,9.39c5.78,7.37,11.56,10.69,21.09,10.69,3.47,0,4.63-.87,4.63-2.46s-1.15-2.46-4.48-2.46ZM360.71,250.59c4.05,2.74,8.09,6.22,11.41,10.4h-11.41v-10.4ZM360.71,265.62h14.88c1.15,2.02,2.31,4.05,3.32,6.07h-18.2v-6.07ZM360.71,276.31h20.22c.72,2.02,1.3,4.04,1.73,6.06h-21.96v-6.06ZM360.71,293.06v-6.06h22.83c.14,1.88.29,3.61.29,6.06h-23.12ZM383.83,269.23c-5.49-10.55-14.01-19.07-23.12-24.13v-51.14h23.12v75.27Z" fill="#0d3a3f"/>
      <path d="M556.72,189.34h-95.63c-1.59,0-2.74,1.01-2.74,2.74v23.11c0,1.59.86,2.74,2.6,2.74s2.6-1.15,2.6-2.74v-21.24h28.03v48.25c-4.34-1.73-8.67-2.6-12.71-2.6-1.73,0-3.18.73-3.18,2.17,0,1.88,1.44,2.46,3.18,2.46,4.05,0,8.38,1.15,12.71,3.18v45.65h-13.14c-1.59,0-2.74.87-2.74,2.31s1.15,2.31,2.74,2.31h60.96c1.59,0,2.74-.87,2.74-2.31s-1.16-2.31-2.74-2.31h-13.15v-99.1h28.03v21.24c0,1.59.87,2.74,2.6,2.74s2.6-1.15,2.6-2.74v-23.11c0-1.73-1.15-2.74-2.74-2.74ZM497.35,250.59c4.05,2.74,8.09,6.22,11.41,10.4h-11.41v-10.4ZM497.35,265.62h14.88c1.16,2.02,2.31,4.05,3.32,6.07h-18.2v-6.07ZM497.35,276.31h20.22c.72,2.02,1.3,4.04,1.73,6.06h-21.96v-6.06ZM497.35,293.06v-6.06h22.83c.14,1.88.29,3.61.29,6.06h-23.11ZM520.46,269.23c-5.49-10.55-14.01-19.07-23.11-24.13v-51.14h23.11v75.27Z" fill="#0d3a3f"/>
      <path d="M633.55,193.96c1.59,0,2.74-.86,2.74-2.31s-1.15-2.31-2.74-2.31h-61.83c-1.59,0-2.74.86-2.74,2.31s1.15,2.31,2.74,2.31h13.58v48.39c-4.48-1.73-8.96-2.74-13.15-2.74-1.73,0-3.18.73-3.18,2.17,0,1.88,1.44,2.46,3.18,2.46,4.19,0,8.67,1.15,13.15,3.32v45.5h-13.58c-1.59,0-2.74.87-2.74,2.31s1.15,2.31,2.74,2.31h61.83c1.59,0,2.74-.87,2.74-2.31s-1.15-2.31-2.74-2.31h-13.58v-99.1h13.58ZM591.08,250.74c4.05,2.74,7.95,6.21,11.27,10.26h-11.27v-10.26ZM591.08,265.62h14.59c1.44,2.02,2.6,4.05,3.61,6.07h-18.21v-6.07ZM591.08,276.31h20.08c.72,2.02,1.44,4.04,1.88,6.06h-21.96v-6.06ZM591.08,293.06v-6.06h22.83c.15,1.88.29,3.61.29,6.06h-23.12ZM614.19,269.37c-5.49-10.54-14.01-18.92-23.12-24.12v-51.29h23.12v75.41Z" fill="#0d3a3f"/>
      <path d="M759.94,189.34h-32.36c-1.59,0-2.74.86-2.74,2.31s1.15,2.31,2.74,2.31h13.43v54.46l-42.04-57.64c-.72-1.01-1.59-1.44-3.18-1.44h-45.22c-1.59,0-2.74.86-2.74,2.31s1.15,2.31,2.74,2.31h13.14v46.95c-4.33-.86-8.67-1.3-12.71-1.3-1.73,0-3.18.73-3.18,2.17,0,1.88,1.44,2.46,3.18,2.46,4.05,0,8.23.58,12.71,1.44v47.38h-13.14c-1.59,0-2.74.87-2.75,2.31,0,1.44,1.15,2.31,2.75,2.31h33.52c1.59,0,2.74-.87,2.74-2.31s-1.16-2.31-2.74-2.31h-14.59v-85.67l62.99,88.56c.87,1.3,1.73,1.73,3.32,1.73h8.23c1.73,0,2.74-1.01,2.74-2.74v-100.98h13.14c1.59,0,2.74-.86,2.74-2.31s-1.15-2.31-2.74-2.31ZM704.18,246.98c5.2,1.01,10.69,2.46,16.18,4.34h-13.15l-3.03-4.34ZM709.81,254.93h18.78c3.03,1.73,5.92,3.76,8.67,6.07h-23.11l-4.34-6.07ZM741.02,292.78h-4.34l-4.19-5.78h8.52v5.78ZM741.02,282.37h-11.7l-4.34-6.06h16.04v6.06ZM741.02,271.68h-19.36l-4.33-6.07h23.69v6.07ZM700.28,241.49l-30.77-43.19v-4.34h25.14s46.37,64,46.37,64c-10.55-9.1-27.45-14.45-40.74-16.47Z" fill="#0d3a3f"/>
      <path d="M868.4,266.92v-11.27h9.39c1.59,0,2.74-.86,2.74-2.31s-1.15-2.31-2.74-2.31h-33.08c-1.59,0-2.75.86-2.75,2.31s1.15,2.31,2.75,2.31h17.91v11.27c0,17.05-11.7,28.32-29.47,28.32-6.64,0-11.41-2.02-14.3-11.27-3.47-13.58-3.76-27.02-3.76-40.74,0-42.62,6.07-52.01,18.06-52.01,15.17,0,24.85,11.27,24.85,15.89v12.28c0,1.59.86,2.74,2.6,2.74s2.6-1.15,2.6-2.74v-28.17c0-1.59-.87-2.74-2.6-2.74s-2.6,1.15-2.6,2.74v6.36s-7.23-10.98-25.86-10.98c-28.32,0-54.75,19.36-56.05,54.17-3.03-.72-6.21-1.16-9.1-1.16-1.73,0-3.18.73-3.18,2.17,0,1.88,1.45,2.46,3.18,2.46,2.89,0,6.07.43,9.1,1.3.93,29.22,17.92,46.42,39.31,52.15,5.37,1.44,11,2.17,16.74,2.17,5.21,0,9.96-.76,14.21-2.17,13.77-4.56,22.06-15.97,22.06-30.77ZM819.28,192.52c-6.93,6.64-9.97,21.38-9.97,50.71,0,8.09.15,14.88.58,20.8-7.22-9.97-17.62-17.63-28.03-21.53.29-28.32,18.92-44.78,37.42-49.98ZM782.02,247.7c6.64,2.89,13.29,7.51,18.63,13.29h-16.33c-1.15-4.05-2.02-8.52-2.31-13.29ZM788.95,271.68c-1.15-1.88-2.17-3.9-3.03-6.07h18.63c1.45,2.02,2.74,3.9,3.9,6.07h-19.5ZM791.98,276.31h18.63c.58,1.3,1.01,2.74,1.88,6.06h-15.02c-2.02-1.73-3.9-3.76-5.49-6.06ZM814.08,287c1.16,3.03,2.6,5.2,4.34,6.93-5.2-1.44-10.4-3.61-15.17-6.93h10.83Z" fill="#0d3a3f"/>
      <path d="M1028.14,274.29c.29-1.01.43-2.17.43-3.18,0-1.59-.86-2.6-2.46-2.6-1.73,0-2.31,1.15-2.74,2.74-2.6,9.82-12.85,23.98-30.91,23.98-6.64,0-11.41-2.02-14.3-11.27-3.47-13.58-3.76-27.01-3.76-40.74,0-42.62,6.07-52.01,18.06-52.01,15.17,0,24.85,11.27,24.85,15.89v13c0,1.59.86,2.74,2.6,2.74s2.6-1.15,2.6-2.74v-28.89c0-1.59-.87-2.74-2.6-2.74s-2.6,1.15-2.6,2.74v6.36s-7.23-10.98-25.86-10.98c-28.46,0-54.75,19.36-56.05,54.17-3.03-.72-6.21-1.16-9.1-1.16-1.73,0-3.18.73-3.18,2.17,0,1.88,1.44,2.46,3.18,2.46,2.89,0,6.06.43,9.1,1.3.93,29.22,17.83,46.42,39.26,52.15,5.38,1.44,11.03,2.17,16.8,2.17,5.03,0,9.55-.8,13.57-2.17,12.71-4.33,20.38-14.4,23.13-23.4ZM978.6,192.52c-6.94,6.64-9.97,21.38-9.97,50.71,0,8.09.15,14.88.58,20.8-7.22-9.97-17.62-17.63-28.03-21.53.29-28.32,18.93-44.78,37.42-49.98ZM941.32,247.7c6.64,2.89,13.29,7.51,18.63,13.29h-16.33c-1.15-4.05-2.02-8.52-2.31-13.29ZM948.26,271.68c-1.15-1.88-2.17-3.9-3.03-6.07h18.63c1.45,2.02,2.74,3.9,3.9,6.07h-19.5ZM951.29,276.31h18.63c.58,1.3,1.01,2.74,1.88,6.06h-14.88c-2.17-1.73-4.05-3.76-5.63-6.06ZM973.39,287c1.16,3.03,2.6,5.2,4.34,6.93-5.2-1.44-10.4-3.61-15.17-6.93h10.83Z" fill="#0d3a3f"/>
      <path d="M1133.72,267.93c-1.73,0-2.75,1.3-2.75,3.03v22.1h-40.59v-99.1h13.14c1.59,0,2.74-.86,2.74-2.31s-1.15-2.31-2.74-2.31h-60.96c-1.59,0-2.74.86-2.74,2.31s1.15,2.31,2.74,2.31h13.14v48.25c-4.33-1.73-8.67-2.6-12.71-2.6-1.73,0-3.18.73-3.18,2.17,0,1.88,1.44,2.46,3.18,2.46,4.05,0,8.38,1.15,12.71,3.18v45.65h-13.14c-1.59,0-2.74.87-2.74,2.31s1.15,2.31,2.74,2.31h91.16c1.88,0,2.74-1.15,2.74-2.74v-23.98c0-1.73-1.01-3.03-2.74-3.03ZM1061.49,250.59c4.05,2.74,8.09,6.22,11.41,10.4h-11.41v-10.4ZM1061.49,265.62h14.88c1.15,2.02,2.31,4.05,3.32,6.07h-18.2v-6.07ZM1061.49,276.31h20.22c.72,2.02,1.3,4.04,1.73,6.06h-21.96v-6.06ZM1061.49,293.06v-6.06h22.83c.14,1.88.29,3.61.29,6.06h-23.12ZM1084.61,269.23c-5.49-10.55-14.01-19.07-23.12-24.13v-51.14s23.12,0,23.12,0v75.27Z" fill="#0d3a3f"/>
      <path d="M1237.43,261.14v-67.17h12.57c1.59,0,2.74-.72,2.74-2.31,0-1.44-1.15-2.31-2.74-2.31h-31.49c-1.59,0-2.74.86-2.74,2.31,0,1.59,1.16,2.31,2.74,2.31h13.15v67.61c0,20.22-11.13,33.08-24.27,33.08-14.59,0-20.51-12.71-20.51-34.96v-65.73h13.14c1.59,0,2.75-.72,2.75-2.31,0-1.44-1.15-2.31-2.75-2.31h-60.38c-1.59,0-2.74.86-2.74,2.31,0,1.59,1.15,2.31,2.74,2.31h12.57v47.82c-4.19-1.3-8.24-2.17-12.14-2.17-1.73,0-3.18.73-3.18,2.17,0,1.88,1.44,2.46,3.18,2.46,3.9,0,7.94.86,12.14,2.46v12.71c0,21.9,9.95,33.77,27.6,38.28,5.75,1.47,12.32,2.17,19.64,2.17,5.78,0,10.83-.76,15.19-2.17,16.02-5.16,22.8-19.07,22.8-36.55ZM1157.97,193.96h23.12v69.63c-6.07-8.52-14.45-15.46-23.12-19.5v-50.13ZM1157.97,249.29c5.35,2.89,10.4,6.93,14.74,11.7h-14.74v-11.7ZM1158.26,265.62h18.2c1.3,2.02,2.6,4.05,3.76,6.07h-20.8c-.58-1.88-.87-3.9-1.16-6.07ZM1160.87,276.31h21.53c.72,1.88,1.44,4.04,1.73,6.06h-19.94c-1.3-1.73-2.46-3.76-3.32-6.06ZM1186.44,287c1.44,2.46,3.03,4.48,4.76,6.06h-11.12c-4.48-1.3-8.38-3.32-11.56-6.06h17.92Z" fill="#0d3a3f"/>
      <path d="M1342.43,241.49c12.57-3.76,20.22-14.59,20.22-25.57,0-16.61-9.68-26.58-35.82-26.58h-61.54c-1.59,0-2.74.86-2.74,2.31s1.15,2.31,2.74,2.31h13.14v48.25c-4.33-1.73-8.67-2.6-12.71-2.6-1.73,0-3.18.73-3.18,2.17,0,1.88,1.44,2.46,3.18,2.46,4.05,0,8.38,1.15,12.71,3.18v45.65h-13.14c-1.59,0-2.74.87-2.74,2.31s1.15,2.31,2.74,2.31h66.16c23.69,0,34.67-11.41,34.67-30.19,0-14.45-9.39-24.13-23.69-26ZM1284.21,250.59c4.05,2.74,8.09,6.22,11.41,10.4h-11.41v-10.4ZM1284.21,265.62h14.88c1.15,2.02,2.31,4.05,3.32,6.07h-18.2v-6.07ZM1284.21,276.31h20.22c.72,2.02,1.3,4.04,1.73,6.06h-21.96v-6.06ZM1307.32,293.06h-23.12v-6.06h22.83c.14,1.88.29,3.61.29,5.49v.57ZM1307.32,269.23c-5.49-10.55-14.01-19.07-23.12-24.13v-51.14h23.12v75.27ZM1331.45,293.06h-18.34v-99.1h13.58c23.98,0,30.19,8.52,30.19,21.82s-13,24.12-23.98,24.12h-8.96c-1.73,0-3.18.72-3.18,2.6,0,2.02,1.44,2.74,2.89,2.74h12.28c11.85,0,24.41,5.49,24.41,21.96,0,15.6-7.65,25.86-28.89,25.86Z" fill="#0d3a3f"/>
      <polygon points="1163.22 158.27 1199.32 158.27 1195.69 149.3 1159.8 149.3 1163.22 158.27" fill="#12e0e5"/>
      <path d="M1147.42,117.69l3.42,8.97h34.39c-2.35-3.2-5.13-6.19-7.91-8.97h-29.9Z" fill="#0b898c"/>
      <path d="M1271.91,95.47v15.38h16.87c-4.91-6.19-10.89-11.32-16.87-15.38Z" fill="#0a777f"/>
      <path d="M1293.91,117.69h-22v8.97h26.91c-1.5-2.99-3.2-5.98-4.91-8.97Z" fill="#0b898c"/>
      <path d="M1271.91,149.3v8.97h34.17c0-3.63-.21-6.19-.42-8.97h-33.75Z" fill="#12e0e5"/>
      <path d="M1301.81,133.5h-29.9v8.97h32.47c-.64-2.99-1.5-5.98-2.56-8.97Z" fill="#0eadb2"/>
      <polygon points="1157.03 142.46 1192.91 142.46 1189.28 133.5 1153.61 133.5 1157.03 142.46" fill="#0eadb2"/>
      <polygon points="991.53 126.66 1020.15 126.66 1020.15 117.69 985.12 117.69 991.53 126.66" fill="#0b898c"/>
      <polygon points="1013.74 157.85 1020.15 157.85 1020.15 149.3 1007.55 149.3 1013.74 157.85" fill="#12e0e5"/>
      <polygon points="1002.85 142.46 1020.15 142.46 1020.15 133.5 996.44 133.5 1002.85 142.46" fill="#0eadb2"/>
      <path d="M1138.87,96.33l5.76,14.53h23.93c-9.4-6.41-19.87-10.9-29.69-14.53Z" fill="#0a777f"/>
      <polygon points="247.95 157.85 254.36 157.85 254.36 149.3 241.76 149.3 247.95 157.85" fill="#12e0e5"/>
      <polygon points="237.06 142.46 254.36 142.46 254.36 133.5 230.65 133.5 237.06 142.46" fill="#0eadb2"/>
      <path d="M235.99,101.88h-27.77l6.41,8.97h34.17c-4.06-3.42-8.33-6.41-12.81-8.97Z" fill="#0a777f"/>
      <polygon points="225.74 126.66 254.36 126.66 254.36 117.69 219.33 117.69 225.74 126.66" fill="#0b898c"/>
      <path d="M199.89,90.14l4.49,6.41h19.44c-8.12-2.78-16.23-4.91-23.93-6.41Z" fill="#0a777f"/>
      <path d="M358.13,95.47v15.38h16.87c-4.91-6.19-10.89-11.32-16.87-15.38Z" fill="#0a777f"/>
      <path d="M1001.78,101.88h-27.77l6.41,8.97h34.17c-4.06-3.42-8.33-6.41-12.81-8.97Z" fill="#0a777f"/>
      <path d="M62.37,133.5h-29.69v8.97h32.47c-.65-2.99-1.71-5.98-2.78-8.97Z" fill="#0eadb2"/>
      <path d="M54.25,117.69h-21.58v8.97h26.92c-1.5-2.99-3.21-5.98-5.34-8.97Z" fill="#0b898c"/>
      <path d="M32.68,95.69v15.17h16.66c-4.91-5.98-10.68-11.11-16.66-15.17Z" fill="#0a777f"/>
      <path d="M380.13,117.69h-22s0,8.97,0,8.97h26.91c-1.5-2.99-3.2-5.98-4.92-8.97Z" fill="#0b898c"/>
      <path d="M66.43,149.3h-33.75v8.97h34.18c0-3.63-.22-6.19-.43-8.97Z" fill="#12e0e5"/>
      <path d="M662.22,95.47v15.38h16.87c-4.91-6.19-10.89-11.32-16.87-15.38Z" fill="#0a777f"/>
      <path d="M692.12,133.5h-29.9v8.97h32.47c-.64-2.99-1.5-5.98-2.56-8.97Z" fill="#0eadb2"/>
      <path d="M388.03,133.5h-29.9v8.97h32.47c-.64-2.99-1.5-5.98-2.56-8.97Z" fill="#0eadb2"/>
      <path d="M662.22,149.3v8.97h34.18c0-3.63-.22-6.19-.43-8.97h-33.75Z" fill="#12e0e5"/>
      <path d="M965.68,90.14l4.49,6.41h19.44c-8.12-2.78-16.23-4.91-23.93-6.41Z" fill="#0a777f"/>
      <path d="M684.22,117.69h-22v8.97h26.91c-1.5-2.99-3.2-5.98-4.91-8.97Z" fill="#0b898c"/>
      <path d="M358.13,149.3v8.97h34.17c0-3.63-.21-6.19-.42-8.97h-33.75Z" fill="#12e0e5"/>
      <path d="M518.08,117.69h-22s0,8.97,0,8.97h26.91c-1.5-2.99-3.2-5.98-4.91-8.97Z" fill="#0b898c"/>
      <path d="M525.98,133.5h-29.9v8.97h32.47c-.64-2.99-1.5-5.98-2.56-8.97Z" fill="#0eadb2"/>
      <path d="M529.83,149.3h-33.75v8.97h34.18c0-3.63-.22-6.19-.43-8.97Z" fill="#12e0e5"/>
      <path d="M496.08,95.47v15.38h16.87c-4.91-6.19-10.89-11.32-16.87-15.38Z" fill="#0a777f"/>
      <path d="M4.06,165.11h91.41c2.35,0,4.06-1.28,4.06-3.42s-1.71-3.42-4.06-3.42h-20.07V11.75h20.07c2.35,0,4.06-1.28,4.06-3.42s-1.71-3.41-4.06-3.41H4.06C1.71,4.91,0,6.19,0,8.33s1.71,3.42,4.06,3.42h20.08v71.55c-6.63-2.56-13.25-4.06-19.44-4.06-2.56,0-4.7,1.07-4.7,3.21,0,2.77,2.13,3.63,4.7,3.63,6.19,0,12.81,1.71,19.44,4.91v67.28H4.06c-2.35,0-4.06,1.28-4.06,3.42s1.71,3.42,4.06,3.42ZM32.68,11.75h34.18s0,111.49,0,111.49c-8.12-15.59-20.72-27.98-34.18-35.67V11.75ZM32.68,95.69c5.98,4.06,11.75,9.18,16.66,15.17h-16.66v-15.17ZM32.68,117.69h21.58c2.13,2.99,3.85,5.98,5.34,8.97h-26.92v-8.97ZM32.68,133.5h29.69c1.07,2.98,2.13,5.98,2.78,8.97h-32.47v-8.97ZM32.68,149.3h33.75c.21,2.77.43,5.34.43,8.97h-34.18v-8.97Z" fill="#0d3a3f"/>
      <path d="M282.34,4.91h-47.84c-2.35,0-4.06,1.28-4.06,3.41s1.71,3.42,4.06,3.42h19.86v80.52S192.2,7.05,192.2,7.05c-1.07-1.5-2.34-2.13-4.7-2.13h-66.85c-2.35,0-4.06,1.28-4.06,3.41s1.71,3.42,4.06,3.42h19.43v69.42c-6.4-1.28-12.81-1.92-18.8-1.92-2.56,0-4.7,1.07-4.7,3.21,0,2.77,2.13,3.63,4.7,3.63,5.98,0,12.17.86,18.8,2.13v70.06h-19.43c-2.35,0-4.06,1.28-4.06,3.42s1.71,3.42,4.06,3.42h49.55c2.35,0,4.06-1.28,4.06-3.42s-1.71-3.42-4.06-3.42h-21.58V31.61l93.13,130.94c1.28,1.92,2.56,2.56,4.91,2.56h12.17c2.56,0,4.06-1.5,4.06-4.06V11.75h19.43c2.35,0,4.06-1.28,4.06-3.42s-1.71-3.41-4.06-3.41ZM199.89,90.14c7.69,1.5,15.81,3.63,23.93,6.41h-19.44l-4.49-6.41ZM208.22,101.88h27.77c4.49,2.56,8.76,5.55,12.81,8.97h-34.17s-6.41-8.97-6.41-8.97ZM254.36,157.85h-6.41l-6.19-8.54h12.6v8.54ZM254.36,142.46h-17.3l-6.41-8.97h23.71v8.97ZM254.36,126.66h-28.62s-6.4-8.97-6.4-8.97h35.03v8.97ZM194.13,82.02l-45.5-63.86v-6.41h37.17s68.56,94.62,68.56,94.62c-15.59-13.46-40.58-21.36-60.23-24.35Z" fill="#0d3a3f"/>
      <path d="M424.35,161.69c0-2.13-1.71-3.42-4.06-3.42h-19.44V11.75h41.44s0,31.4,0,31.4c0,2.35,1.29,4.06,3.85,4.06s3.84-1.71,3.84-4.06V8.97c0-2.56-1.71-4.06-4.06-4.06h-141.4c-2.35,0-4.06,1.5-4.06,4.06v34.17c0,2.35,1.28,4.06,3.85,4.06s3.84-1.71,3.84-4.06V11.75h41.44v71.34c-6.41-2.56-12.81-3.85-18.8-3.85-2.56,0-4.7,1.07-4.7,3.21,0,2.77,2.13,3.63,4.7,3.63,5.98,0,12.39,1.71,18.8,4.7v67.49h-19.43c-2.35,0-4.06,1.28-4.06,3.42s1.71,3.42,4.06,3.42h90.14c2.35,0,4.06-1.28,4.06-3.42ZM358.13,95.47c5.98,4.06,11.96,9.19,16.87,15.38h-16.87v-15.38ZM358.13,117.69h22c1.71,2.99,3.42,5.98,4.92,8.97h-26.91v-8.97ZM358.13,133.5h29.9c1.07,2.98,1.92,5.98,2.56,8.97h-32.47v-8.97ZM358.13,158.27v-8.97h33.75c.21,2.77.42,5.34.42,8.97h-34.17ZM392.3,123.03c-8.12-15.59-20.72-28.2-34.17-35.67V11.75h34.17v111.28Z" fill="#0d3a3f"/>
      <path d="M468.1,158.27c-2.35,0-4.06,1.28-4.06,3.42s1.71,3.42,4.06,3.42h134.78c2.78,0,4.06-1.71,4.06-4.06v-33.53c0-2.56-1.5-4.49-4.06-4.49s-4.06,1.92-4.06,4.49v30.75h-60.02v-55.1h41.22c2.13,0,3.63-1.28,3.63-3.64s-1.5-3.63-3.63-3.63h-41.22V11.75h58.95s0,28.62,0,28.62c0,2.56,1.5,4.48,4.06,4.48s4.06-1.92,4.06-4.48V8.97c0-2.56-1.5-4.06-4.06-4.06h-133.71c-2.35,0-4.06,1.28-4.06,3.41s1.71,3.42,4.06,3.42h19.43v71.34c-6.4-2.56-12.81-3.85-18.8-3.85-2.56,0-4.7,1.07-4.7,3.21,0,2.77,2.13,3.63,4.7,3.63,5.98,0,12.39,1.71,18.8,4.7v67.49h-19.43ZM496.08,11.75h34.18v111.28c-8.12-15.59-20.72-28.2-34.18-35.67V11.75ZM496.08,95.47c5.98,4.06,11.96,9.19,16.87,15.38h-16.87v-15.38ZM496.08,117.69h22c1.71,2.99,3.41,5.98,4.91,8.97h-26.91v-8.97ZM496.08,133.5h29.9c1.07,2.98,1.92,5.98,2.56,8.97h-32.47v-8.97ZM496.08,149.3h33.75c.21,2.77.43,5.34.43,8.97h-34.18v-8.97Z" fill="#0d3a3f"/>
      <path d="M788.67,157.85c-11.54,0-18.16-5.98-24.99-14.53l-10.47-13.24c-3.63-4.49-8.12-8.54-13.67-11.32,26.91-5.98,45.07-25.42,45.07-55.75,0-38.66-27.77-58.09-70.27-58.09h-80.1c-2.35,0-4.06,1.28-4.06,3.41,0,2.35,1.71,3.42,4.06,3.42h19.43v71.34c-6.4-2.56-12.81-3.85-18.8-3.85-2.56,0-4.7,1.07-4.7,3.21,0,2.77,2.13,3.63,4.7,3.63,5.98,0,12.39,1.71,18.8,4.7v67.49h-19.43c-2.35,0-4.06,1.07-4.06,3.42,0,2.13,1.71,3.42,4.06,3.42h90.14c2.35,0,4.06-1.28,4.06-3.42,0-2.35-1.71-3.42-4.06-3.42h-19.43V11.75h9.18c38.23,0,61.73,15.38,61.73,50.84s-22.43,51.69-55.11,51.69c-2.35,0-4.49.85-4.49,3.63s2.13,3.63,4.27,3.63c11.54,0,19.01,5.34,25.84,13.88l10.9,13.89c8.54,10.89,17.09,15.8,31.18,15.8,5.13,0,6.84-1.28,6.84-3.63s-1.71-3.63-6.62-3.63ZM662.22,95.47c5.98,4.06,11.96,9.19,16.87,15.38h-16.87v-15.38ZM662.22,117.69h22c1.71,2.99,3.41,5.98,4.91,8.97h-26.91v-8.97ZM662.22,133.5h29.9c1.07,2.98,1.92,5.98,2.56,8.97h-32.47v-8.97ZM662.22,158.27v-8.97h33.75c.21,2.77.43,5.34.43,8.97h-34.18ZM696.39,123.03c-8.12-15.59-20.72-28.2-34.18-35.67V11.75h34.18v111.28Z" fill="#0d3a3f"/>
      <path d="M1052.19,8.33c0-2.13-1.71-3.41-4.06-3.41h-47.84c-2.35,0-4.06,1.28-4.06,3.41s1.71,3.42,4.06,3.42h19.86v80.52l-62.16-85.22c-1.07-1.5-2.35-2.13-4.7-2.13h-66.85c-2.35,0-4.06,1.28-4.06,3.41s1.71,3.42,4.06,3.42h19.43v69.42c-6.4-1.28-12.81-1.92-18.8-1.92-2.56,0-4.7,1.07-4.7,3.21,0,2.77,2.13,3.63,4.7,3.63,5.98,0,12.17.86,18.8,2.13v70.06h-19.43c-2.35,0-4.06,1.28-4.06,3.42s1.71,3.42,4.06,3.42h49.55c2.34,0,4.06-1.28,4.06-3.42s-1.71-3.42-4.06-3.42h-21.58V31.61l93.13,130.94c1.28,1.92,2.56,2.56,4.91,2.56h12.17c2.56,0,4.06-1.5,4.06-4.06V11.75h19.43c2.35,0,4.06-1.28,4.06-3.42ZM965.68,90.14c7.69,1.5,15.81,3.63,23.93,6.41h-19.44l-4.49-6.41ZM974.02,101.88h27.77c4.49,2.56,8.76,5.55,12.81,8.97h-34.17s-6.41-8.97-6.41-8.97ZM1020.15,157.85h-6.41l-6.19-8.54h12.6v8.54ZM1020.15,142.46h-17.3l-6.41-8.97h23.71v8.97ZM1020.15,126.66h-28.62s-6.4-8.97-6.4-8.97h35.03v8.97ZM959.92,82.02l-45.5-63.86v-6.41h37.17s68.56,94.62,68.56,94.62c-15.59-13.46-40.58-21.36-60.23-24.35Z" fill="#0d3a3f"/>
      <path d="M1077.57,79.24c-2.56,0-4.7,1.07-4.7,3.21,0,2.77,2.13,3.63,4.7,3.63,6.41,0,13.24.86,20.29,2.56l-28.2,69.63h-14.52c-2.35,0-4.06,1.28-4.06,3.42s1.71,3.42,4.06,3.42h43.14c2.35,0,4.06-1.28,4.06-3.42s-1.71-3.42-4.06-3.42h-20.08l10.04-24.77h56.6s9.61,24.77,9.61,24.77h-22.43c-2.35,0-4.06,1.28-4.06,3.42s1.71,3.42,4.06,3.42h90.35c2.35,0,4.06-1.28,4.06-3.42s-1.71-3.42-4.06-3.42h-14.53l-62.06-153.35-.09-.22c-1.28-3.2-4.28-4.7-6.84-4.7-2.77,0-5.55,1.07-7.05,4.7l-.09.22-31.31,77.11c-7.91-1.71-15.59-2.78-22.85-2.78ZM1144.64,110.86l-5.76-14.53c9.82,3.63,20.29,8.12,29.69,14.53h-23.93ZM1199.32,158.27h-36.1l-3.42-8.97h35.88l3.63,8.97ZM1192.91,142.46h-35.88l-3.42-8.97h35.67l3.63,8.97ZM1150.84,126.66l-3.42-8.97h29.9c2.77,2.78,5.55,5.77,7.91,8.97h-34.39ZM1138.66,8.76l41.01,101.03c-13.25-10.9-29.48-17.3-44-21.79l-14.1-36.31-.22-.21,17.31-42.72ZM1142.29,126.66h-51.26s26.06-64.5,26.06-64.5l25.21,64.5Z" fill="#0d3a3f"/>
      <path d="M1359.69,4.91h-141.4c-2.35,0-4.06,1.5-4.06,4.06v34.17c0,2.35,1.28,4.06,3.85,4.06s3.84-1.71,3.84-4.06V11.75h41.44v71.34c-6.41-2.56-12.81-3.85-18.8-3.85-2.56,0-4.7,1.07-4.7,3.21,0,2.77,2.13,3.63,4.7,3.63,5.98,0,12.39,1.71,18.8,4.7v67.49h-19.43c-2.35,0-4.06,1.28-4.06,3.42s1.71,3.42,4.06,3.42h90.14c2.35,0,4.06-1.28,4.06-3.42s-1.71-3.42-4.06-3.42h-19.44V11.75s41.44,0,41.44,0v31.4c0,2.35,1.28,4.06,3.85,4.06s3.84-1.71,3.84-4.06V8.97c0-2.56-1.71-4.06-4.06-4.06ZM1271.91,95.47c5.98,4.06,11.96,9.19,16.87,15.38h-16.87v-15.38ZM1271.91,117.69h22c1.71,2.99,3.42,5.98,4.91,8.97h-26.91v-8.97ZM1271.91,133.5h29.9c1.07,2.98,1.92,5.98,2.56,8.97h-32.47v-8.97ZM1271.91,158.27v-8.97h33.75c.21,2.77.42,5.34.42,8.97h-34.17ZM1306.08,123.03c-8.12-15.59-20.72-28.2-34.17-35.67V11.75h34.17v111.28Z" fill="#0d3a3f"/>
    </g>
  </g>
</svg>