<?xml version="1.0" encoding="UTF-8"?>
<svg id="Layer_2" data-name="Layer 2" xmlns="http://www.w3.org/2000/svg" viewBox="0 0 1130.87 200">
  <g id="Layer_1-2" data-name="Layer 1">
    <g>
      <path d="M85.86,88.91h-31.12l-.64-10.16-14.73-25.28-14.1,18.42v6.86l2.29,10.16H0l2.29-10.16V10.16L0,0h27.56l-2.29,10.16v33.66L50.81,10.29l2.79-10.29h31.88l-11.05,12.32-19.69,24.51,23.88,41.03,7.24,11.05Z" fill="#19b9ee"/>
      <path d="M175.41,88.91h-28.96l-2.29-10.29-8.13-17.28h-16v17.4l2.41,10.16h-27.56l2.29-10.16V10.16l-2.29-10.16h51.44c4.32,0,8,1.9,11.31,4.7l8.76,7.62c3.3,2.79,4.7,6.98,4.7,11.3v14.1c0,4.32-1.65,8.26-4.7,11.3l-8.51,7.37,10.54,22.23,6.99,10.29ZM120.03,43.82h15.75c2.67,0,5.08-1.14,6.99-2.92l3.43-3.3c1.4-1.52,2.16-3.56,2.16-5.59v-2.41c0-1.91-.64-3.81-2.16-5.46l-3.43-3.81c-1.78-2.03-4.32-2.92-6.99-2.92h-15.75v26.42Z" fill="#19b9ee"/>
      <path d="M258.47,68.33l-5.08,20.58h-66.3l2.29-10.16V10.16l-2.29-10.16h64.02l3.81,20.58-9.53-2.54h-33.15v17.66h28.07l6.99-1.65v20.32l-6.99-1.65h-28.07v18.16h34.29l11.94-2.54Z" fill="#19b9ee"/>
      <path d="M369.99,78.75l2.29,10.16h-27.05l2.41-10.16v-45.22l-24.01,37.47h-4.32l-24.01-37.47v45.22l2.41,10.16h-27.05l2.29-10.16V10.16l-2.29-10.16h26.93l23.88,39.75L345.35,0h26.93l-2.29,10.16v68.59Z" fill="#19b9ee"/>
      <path d="M461.69,68.33l-5.08,20.58h-66.3l2.29-10.16V10.16l-2.29-10.16h64.02l3.81,20.58-9.53-2.54h-33.15v17.66h28.07l6.99-1.65v20.32l-6.99-1.65h-28.07v18.16h34.29l11.94-2.54Z" fill="#19b9ee"/>
      <path d="M598.95,78.75l2.29,10.16h-27.05l2.41-10.16v-45.22l-24.01,37.47h-4.32l-24.01-37.47v45.22l2.41,10.16h-27.05l2.29-10.16V10.16l-2.29-10.16h26.93l23.88,39.75L574.3,0h26.93l-2.29,10.16v68.59Z" fill="#19b9ee"/>
      <path d="M676.93,88.91l.63-10.16-2.67-8.89h-31.88l-2.67,8.89.63,10.16h-29.09l5.33-10.16,21.72-69.1-1.02-9.65h42.17l-1.14,9.65,21.72,69.1,5.33,10.16h-29.09ZM669.82,52.46l-10.8-36.58-10.8,36.58h21.59Z" fill="#19b9ee"/>
      <path d="M793.15,64.14c0,4.32-1.65,8.26-4.7,11.31l-8.76,8.76c-3.05,3.05-6.99,4.7-11.3,4.7h-28.33c-4.32,0-8.25-1.65-11.3-4.7l-8.76-8.76c-3.05-3.05-4.7-6.99-4.7-11.31V24.77c0-4.32,1.65-8.26,4.7-11.3l8.76-8.76c3.05-3.05,6.99-4.7,11.3-4.7h28.33c4.32,0,8.25,1.65,11.3,4.7l8.76,8.76c3.05,3.05,4.7,6.99,4.7,11.3v3.56l-22.74,4.19v-2.41c0-2.41-1.02-4.57-3.05-6.22l-3.3-3.05c-1.78-1.52-4.19-2.41-6.6-2.41h-6.48c-2.29,0-4.83.76-6.48,2.41l-3.43,3.18c-1.91,1.78-3.05,3.94-3.05,6.22v28.45c0,2.29,1.02,4.45,3.05,6.22l3.43,3.17c1.65,1.52,4.19,2.41,6.48,2.41h6.48c2.41,0,4.83-.89,6.6-2.41l3.3-3.05c2.03-1.65,3.05-3.81,3.05-6.22v-2.54l22.74,4.45v3.43Z" fill="#19b9ee"/>
      <path d="M888.79,78.75l2.41,10.16h-27.56l2.29-10.16v-24.51h-32.9v24.51l2.41,10.16h-27.56l2.29-10.16V10.16l-2.29-10.16h27.56l-2.41,10.16v25.28h32.9V10.16l-2.29-10.16h27.56l-2.41,10.16v68.59Z" fill="#19b9ee"/>
      <path d="M912.16,78.75V10.16l-2.41-10.16h27.56l-2.41,10.16v68.59l2.41,10.16h-27.56l2.41-10.16Z" fill="#19b9ee"/>
      <path d="M958.26,78.75V10.16l-2.29-10.16h19.82l40.52,51.82V10.16l-2.41-10.16h27.56l-2.29,10.16v78.75h-17.66l-40.39-51.57v41.41l2.41,10.16h-27.56l2.29-10.16Z" fill="#19b9ee"/>
      <path d="M1130.87,68.33l-5.08,20.58h-66.3l2.29-10.16V10.16l-2.29-10.16h64.02l3.81,20.58-9.53-2.54h-33.15v17.66h28.07l6.99-1.65v20.32l-6.99-1.65h-28.07v18.16h34.29l11.94-2.54Z" fill="#19b9ee"/>
      <path d="M15.88,195.3l-8.77-8.77c-3.05-3.05-4.7-6.98-4.7-11.3v-53.98l-2.41-10.16h27.69l-2.42,10.16v48.77c0,2.16.64,4.44,2.16,5.97l3.43,3.56c1.65,1.52,3.81,1.91,5.97,1.91h8.13c2.03,0,4.44-.38,5.84-1.91l3.68-3.56c1.65-1.65,2.16-3.68,2.16-5.97v-48.77l-2.41-10.16h27.56l-2.29,10.16v53.98c0,4.32-1.65,8.26-4.7,11.3l-8.77,8.77c-3.05,3.05-6.98,4.7-11.3,4.7h-27.56c-4.32,0-8.26-1.65-11.3-4.7Z" fill="#10153f"/>
      <path d="M225.85,189.84v-68.59l-2.29-10.16h19.81l40.52,51.82v-41.66l-2.41-10.16h27.56l-2.29,10.16v78.75h-17.65l-40.39-51.57v41.41l2.41,10.16h-27.56l2.29-10.16Z" fill="#10153f"/>
      <path d="M453.21,189.84v-68.59l-2.41-10.16h27.56l-2.41,10.16v68.59l2.41,10.16h-27.56l2.41-10.16Z" fill="#10153f"/>
      <path d="M647.3,189.84v-59.82h-17.28l-9.91,2.54,3.43-21.47h70.49l3.55,21.47-9.91-2.54h-17.65v59.82l2.41,10.16h-27.56l2.42-10.16Z" fill="#10153f"/>
      <path d="M910.74,179.42l-5.08,20.58h-66.3l2.29-10.16v-68.59l-2.29-10.16h64.02l3.81,20.58-9.53-2.54h-33.15v17.66h28.07l6.98-1.65v20.32l-6.98-1.65h-28.07v18.16h34.29l11.94-2.54Z" fill="#10153f"/>
      <path d="M1130.87,135.86v39.38c0,4.32-1.65,8.26-4.7,11.3l-8.77,8.77c-3.05,3.05-6.98,4.7-11.3,4.7h-53.6l2.29-10.16v-68.59l-2.29-10.16h53.6c4.32,0,8.26,1.65,11.3,4.7l8.77,8.76c3.05,3.05,4.7,6.98,4.7,11.3ZM1108.01,141.32c0-2.29-1.14-4.44-3.05-6.22l-3.43-3.17c-1.65-1.65-4.06-2.42-6.48-2.42h-17.4v52.08h17.4c2.42,0,4.83-.89,6.48-2.41l3.43-3.18c1.91-1.78,3.05-3.94,3.05-6.22v-28.45Z" fill="#10153f"/>
    </g>
  </g>
</svg>