<?xml version="1.0" encoding="UTF-8"?>
<svg id="Layer_2" data-name="Layer 2" xmlns="http://www.w3.org/2000/svg" viewBox="0 0 1348.1 71.71">
  <g id="Layer_1-2" data-name="Layer 1">
    <g>
      <path d="M69.25,71.71h-25.1l-.51-8.2-11.88-20.39-11.37,14.86v5.53l1.84,8.2H0l1.84-8.2V8.2L0,0h22.23l-1.84,8.2v27.15l20.59-27.05,2.25-8.3h25.71l-8.91,9.94-15.88,19.77,19.26,33.09,5.84,8.91Z" fill="#19b9ee"/>
      <path d="M141.48,71.71h-23.36l-1.84-8.3-6.56-13.93h-12.91v14.04l1.95,8.2h-22.23l1.84-8.2V8.2l-1.84-8.2h41.49c3.48,0,6.45,1.54,9.12,3.79l7.07,6.15c2.66,2.25,3.79,5.63,3.79,9.12v11.37c0,3.48-1.33,6.66-3.79,9.12l-6.86,5.94,8.5,17.93,5.63,8.3ZM96.81,35.34h12.7c2.15,0,4.1-.92,5.63-2.36l2.77-2.66c1.13-1.23,1.74-2.87,1.74-4.51v-1.95c0-1.54-.51-3.07-1.74-4.41l-2.77-3.07c-1.43-1.64-3.48-2.36-5.63-2.36h-12.7v21.31Z" fill="#19b9ee"/>
      <path d="M208.48,55.12l-4.1,16.6h-53.48l1.84-8.2V8.2l-1.84-8.2h51.63l3.07,16.6-7.68-2.05h-26.74v14.24h22.64l5.63-1.33v16.39l-5.63-1.33h-22.64v14.65h27.66l9.63-2.05Z" fill="#19b9ee"/>
      <path d="M298.43,63.52l1.84,8.2h-21.82l1.95-8.2V27.05l-19.36,30.22h-3.48l-19.36-30.22v36.47l1.95,8.2h-21.82l1.84-8.2V8.2l-1.84-8.2h21.72l19.26,32.07L278.55,0h21.72l-1.84,8.2v55.32Z" fill="#19b9ee"/>
      <path d="M372.4,55.12l-4.1,16.6h-53.48l1.84-8.2V8.2l-1.84-8.2h51.63l3.07,16.6-7.68-2.05h-26.74v14.24h22.64l5.63-1.33v16.39l-5.63-1.33h-22.64v14.65h27.66l9.63-2.05Z" fill="#19b9ee"/>
      <path d="M487.14,63.52l1.84,8.2h-21.82l1.95-8.2V27.05l-19.36,30.22h-3.48l-19.36-30.22v36.47l1.95,8.2h-21.82l1.84-8.2V8.2l-1.84-8.2h21.72l19.26,32.07L467.26,0h21.72l-1.84,8.2v55.32Z" fill="#19b9ee"/>
      <path d="M550.04,71.71l.51-8.2-2.15-7.17h-25.71l-2.15,7.17.51,8.2h-23.46l4.3-8.2,17.52-55.73-.82-7.79h34.01l-.92,7.79,17.52,55.73,4.3,8.2h-23.46ZM544.3,42.31l-8.71-29.5-8.71,29.5h17.42Z" fill="#19b9ee"/>
      <path d="M643.78,51.74c0,3.48-1.33,6.66-3.79,9.12l-7.07,7.07c-2.46,2.46-5.63,3.79-9.12,3.79h-22.85c-3.48,0-6.66-1.33-9.12-3.79l-7.07-7.07c-2.46-2.46-3.79-5.63-3.79-9.12v-31.76c0-3.48,1.33-6.66,3.79-9.12l7.07-7.07c2.46-2.46,5.63-3.79,9.12-3.79h22.85c3.48,0,6.66,1.33,9.12,3.79l7.07,7.07c2.46,2.46,3.79,5.63,3.79,9.12v2.87l-18.34,3.38v-1.95c0-1.95-.82-3.69-2.46-5.02l-2.66-2.46c-1.43-1.23-3.38-1.95-5.33-1.95h-5.23c-1.84,0-3.89.61-5.22,1.95l-2.77,2.56c-1.54,1.43-2.46,3.18-2.46,5.02v22.95c0,1.84.82,3.59,2.46,5.02l2.77,2.56c1.33,1.23,3.38,1.95,5.22,1.95h5.23c1.95,0,3.89-.72,5.33-1.95l2.66-2.46c1.64-1.33,2.46-3.07,2.46-5.02v-2.05l18.34,3.59v2.77Z" fill="#19b9ee"/>
      <path d="M720.92,63.52l1.95,8.2h-22.23l1.84-8.2v-19.77h-26.53v19.77l1.95,8.2h-22.23l1.84-8.2V8.2l-1.84-8.2h22.23l-1.95,8.2v20.39h26.53V8.2l-1.84-8.2h22.23l-1.95,8.2v55.32Z" fill="#19b9ee"/>
      <path d="M739.77,63.52V8.2l-1.95-8.2h22.23l-1.95,8.2v55.32l1.95,8.2h-22.23l1.95-8.2Z" fill="#19b9ee"/>
      <path d="M776.96,63.52V8.2l-1.84-8.2h15.98l32.68,41.8V8.2l-1.95-8.2h22.23l-1.84,8.2v63.52h-14.24l-32.58-41.59v33.4l1.95,8.2h-22.23l1.84-8.2Z" fill="#19b9ee"/>
      <path d="M916.19,55.12l-4.1,16.6h-53.48l1.84-8.2V8.2l-1.84-8.2h51.63l3.07,16.6-7.68-2.05h-26.74v14.24h22.64l5.63-1.33v16.39l-5.63-1.33h-22.64v14.65h27.66l9.63-2.05Z" fill="#19b9ee"/>
      <path d="M962.8,67.92l-7.07-7.07c-2.46-2.46-3.79-5.63-3.79-9.12V8.2l-1.95-8.2h22.33l-1.95,8.2v39.34c0,1.74.51,3.59,1.74,4.82l2.77,2.87c1.33,1.23,3.07,1.54,4.82,1.54h6.56c1.64,0,3.59-.31,4.71-1.54l2.97-2.87c1.33-1.33,1.74-2.97,1.74-4.82V8.2l-1.95-8.2h22.23l-1.84,8.2v43.54c0,3.48-1.33,6.66-3.79,9.12l-7.07,7.07c-2.46,2.46-5.63,3.79-9.12,3.79h-22.23c-3.48,0-6.66-1.33-9.12-3.79Z" fill="#19b9ee"/>
      <path d="M1031.64,63.52V8.2l-1.84-8.2h15.98l32.68,41.8V8.2l-1.95-8.2h22.23l-1.84,8.2v63.52h-14.24l-32.58-41.59v33.4l1.95,8.2h-22.23l1.84-8.2Z" fill="#19b9ee"/>
      <path d="M1115.75,63.52V8.2l-1.95-8.2h22.23l-1.95,8.2v55.32l1.95,8.2h-22.23l1.95-8.2Z" fill="#19b9ee"/>
      <path d="M1167.69,63.52V15.26h-13.93l-7.99,2.05,2.77-17.31h56.86l2.87,17.31-7.99-2.05h-14.24v48.25l1.95,8.2h-22.23l1.95-8.2Z" fill="#19b9ee"/>
      <path d="M1275.06,55.12l-4.1,16.6h-53.48l1.84-8.2V8.2l-1.84-8.2h51.63l3.07,16.6-7.68-2.05h-26.74v14.24h22.64l5.63-1.33v16.39l-5.63-1.33h-22.64v14.65h27.66l9.63-2.05Z" fill="#19b9ee"/>
      <path d="M1348.1,19.98v31.76c0,3.48-1.33,6.66-3.79,9.12l-7.07,7.07c-2.46,2.46-5.63,3.79-9.12,3.79h-43.23l1.84-8.2V8.2l-1.84-8.2h43.23c3.48,0,6.66,1.33,9.12,3.79l7.07,7.07c2.46,2.46,3.79,5.63,3.79,9.12ZM1329.66,24.38c0-1.84-.92-3.59-2.46-5.02l-2.77-2.56c-1.33-1.33-3.28-1.95-5.22-1.95h-14.04v42h14.04c1.95,0,3.89-.72,5.22-1.95l2.77-2.56c1.54-1.43,2.46-3.18,2.46-5.02v-22.95Z" fill="#19b9ee"/>
    </g>
  </g>
</svg>