<?xml version="1.0" encoding="UTF-8"?>
<svg id="Layer_2" data-name="Layer 2" xmlns="http://www.w3.org/2000/svg" viewBox="0 0 765.22 188.96">
  <g id="Layer_1-2" data-name="Layer 1">
    <g>
      <path d="M118.8,130.23c-15.6,0-21.95.36-21.95.36l1.63-3.08c3.45-6.35,4.53-9.07,4.53-62.58V29.56c-.18.36-3.08,10.16-8.16,21.58l-29.2,65.66-29.02-65.48c-5.26-11.61-7.8-20.31-8.16-21.58v37c0,52.78.73,53.51,4.53,60.76l1.63,3.08s-5.99-.36-17.05-.36S0,130.59,0,130.59l1.63-3.08c3.63-6.89,4.53-8.16,4.53-62.58S5.44,11.43,1.63,4.17L0,1.09s7.26.36,23.76.36c15.05,0,21.4-.36,21.4-.36l21.58,48.79c2,4.53,2.54,7.07,2.72,7.44,0-.36.72-2.54,2.9-7.44L94.14,1.09s6.89.36,22.31.36,23.76-.36,23.76-.36l-1.63,3.08c-3.63,6.71-4.53,8.16-4.53,62.58s.72,53.51,4.53,60.76l1.63,3.08s-5.99-.36-21.4-.36Z" fill="#fff"/>
      <path d="M181.19,130.23c-15.42,0-22.13.36-22.13.36l1.63-3.08c3.63-6.89,4.53-8.16,4.53-62.58s-.72-53.51-4.53-60.76l-1.63-3.08s6.17.36,21.95.36,22.13-.36,22.13-.36l-1.63,3.08c-3.63,6.89-4.53,8.16-4.53,62.58s.73,53.51,4.53,60.76l1.63,3.08s-6.53-.36-21.95-.36Z" fill="#fff"/>
      <path d="M318.13,28.84c-.18-.18-1.27-2-6.35-5.08-4.35-2.54-11.25-4.53-19.77-4.53h-9.79v47.52c0,52.78.72,53.51,4.53,60.76l1.63,3.08s-6.53-.36-21.95-.36-22.13.36-22.13.36l1.63-3.08c3.63-6.89,4.53-8.16,4.53-62.58V19.23h-9.79c-8.52,0-15.42,2-19.77,4.53-4.72,2.9-6.17,4.72-6.35,5.08,0-.18.36-5.26.36-14.69,0-8.89-.18-12.88-.18-12.88h103.2s-.18,3.99-.18,12.88c0,9.43.36,14.33.36,14.69Z" fill="#fff"/>
      <path d="M389.96,131.68c-46.98,0-65.11-26.3-65.11-63.66,0-46.07,24.67-68.02,66.38-68.02,23.94,0,33.37,5.26,33.37,5.26,0,0-.36,3.81-.36,15.05,0,9.61.36,15.96.36,15.96-7.8-11.25-14.33-17.77-30.65-17.77-24.12,0-35.55,20.86-35.55,48.43,0,29.38,11.25,46.25,34.82,46.25,16.51,0,23.58-6.89,31.38-18.14,0,0-.36,5.8-.36,17.05,0,10.34.36,14.33.36,14.33,0,0-11.43,5.26-34.64,5.26Z" fill="#fff"/>
      <path d="M538.32,130.23c-15.42,0-22.13.36-22.13.36l1.63-3.08c3.45-6.53,4.53-8.16,4.53-52.6h-44.44c0,44.62.91,45.71,4.53,52.6l1.63,3.08s-6.53-.36-21.95-.36-22.13.36-22.13.36l1.63-3.08c3.63-6.89,4.53-8.16,4.53-62.58s-.72-53.51-4.53-60.76l-1.63-3.08s6.35.36,22.13.36,21.95-.36,21.95-.36l-1.63,3.08c-3.27,6.17-4.53,7.98-4.53,49.52h44.44c0-41.54-.91-42.99-4.53-49.52l-1.63-3.08s6.35.36,22.13.36,21.95-.36,21.95-.36l-1.63,3.08c-3.63,6.71-4.53,8.16-4.53,62.58s.73,53.51,4.53,60.76l1.63,3.08s-6.53-.36-21.95-.36Z" fill="#fff"/>
      <path d="M664.56,123.52l-.36,6.89h-70.92c-9.79,0-13.97.18-13.97.18l1.63-3.08c3.63-6.71,4.53-8.16,4.53-62.58s-.72-53.51-4.53-60.76l-1.63-3.08s3.99.18,13.78.18h69.29s-.18,3.99-.18,12.88c0,9.43.36,13.97.36,14.33-.18-.18-1.27-1.81-6.35-4.9-4.35-2.54-11.43-3.99-19.95-3.99h-19.23v36.82h14.87c8.52,0,15.6-.91,19.95-3.45,4.72-2.72,6.17-4.35,6.53-4.72,0,.18-.54,5.26-.54,17.59,0,11.43.54,16.87.54,17.23-.18-.18-1.45-1.81-6.53-4.9-4.35-2.54-11.43-3.45-19.95-3.45h-14.87v37.36h17.41c22.49,0,25.39-5.26,32.1-15.05,0,0-.91,7.26-2,26.48Z" fill="#fff"/>
      <path d="M763.22,123.52l-.36,6.89h-66.02c-9.79,0-13.97.18-13.97.18l1.63-3.08c3.63-6.71,4.53-8.16,4.53-62.58s-.72-53.51-4.53-60.76l-1.63-3.08s6.17.36,22.85.36,21.95-.36,21.95-.36l-1.81,3.27c-3.99,6.89-4.9,10.52-4.9,51.69v56.05h12.15c22.49,0,25.39-5.26,32.1-15.05,0,0-.91,7.26-1.99,26.48Z" fill="#fff"/>
      <path d="M18.65,179.29c-2.18.67-4.54.76-8.28.76-1.51,0-4.71-.08-6.26-.08-2.77,0-4.12.08-4.12.08l.38-.71c.84-1.55,1.05-1.89,1.05-14.49s-.17-12.39-1.05-14.07l-.38-.71s1.43.08,3.65.08c1.39,0,4.5-.08,5.8-.08,6.89,0,13.44.29,13.44,7.18,0,5.33-4.37,6.89-7.1,7.22,4.03.13,8.07,1.89,8.07,7.27,0,4.71-2.77,6.85-5.21,7.56ZM10.12,153.84c-1.09,0-1.68.08-1.68.08v8.86s.5.08,1.81.08c.84,0,1.81-.13,2.56-.34,1.6-.46,2.77-1.81,2.77-4.29,0-3.7-2.23-4.41-5.46-4.41ZM10.59,166.65c-1.22,0-2.14.08-2.14.08v9.37s.42.08,2.23.08c1.39,0,2.52-.13,3.32-.5,1.3-.5,2.39-1.64,2.39-4.37,0-3.78-2.35-4.66-5.8-4.66Z" fill="#fff"/>
      <path d="M58.59,179.97c-3.57,0-5.12.08-5.12.08l.38-.71c.84-1.6,1.05-1.89,1.05-14.49s-.17-12.39-1.05-14.07l-.38-.71s1.43.08,5.08.08,5.12-.08,5.12-.08l-.38.71c-.84,1.6-1.05,1.89-1.05,14.49s.17,12.39,1.05,14.07l.38.71s-1.51-.08-5.08-.08Z" fill="#fff"/>
      <path d="M119.37,166.82c-.8,1.47-1.05,2.06-1.05,11.93v.25s-3.32,1.3-8.86,1.3c-9.2,0-16-4.33-16-14.58,0-11.01,6.01-15.92,16.34-15.92,5.92,0,8.4,1.22,8.4,1.22,0,0-.08.88-.08,3.49,0,2.23.08,3.7.08,3.7-1.97-2.81-3.74-3.99-7.6-3.99-5.54,0-9.41,2.9-9.41,11.17,0,6.85,2.1,10.71,8.44,10.71,1.09,0,1.68-.13,1.68-.13,0-6.13-.21-7.69-1.05-9.16l-.42-.71s1.55.08,4.92.08c3.65,0,5-.08,5-.08l-.38.71Z" fill="#fff"/>
      <path d="M188.17,150.77c-.84,1.6-1.05,1.89-1.05,14.49v15.16c0,4.58-.25,8.53-8.95,8.53h-1.76c3.23-1.6,3.36-4.37,3.36-10.21v-13.86c0-12.22-.17-12.43-1.05-14.11l-.38-.71s1.43.08,5.08.08,5.12-.08,5.12-.08l-.38.71Z" fill="#fff"/>
      <path d="M232.1,180.55c-9.37,0-14.11-5.46-14.11-15,0-8.11,3.78-15.84,14.03-15.84,9.37,0,14.11,5.46,14.11,15,0,8.11-3.78,15.84-14.03,15.84ZM232.1,154.05c-4.24,0-6.17,3.45-6.17,11.17s1.89,11.01,6.09,11.01,6.17-3.45,6.17-11.17-1.89-11.01-6.09-11.01Z" fill="#fff"/>
      <path d="M298.63,179.97c-3.57,0-5.12.08-5.12.08l.38-.71c.8-1.51,1.05-1.89,1.05-12.18h-10.29c0,10.33.21,10.59,1.05,12.18l.38.71s-1.51-.08-5.08-.08-5.12.08-5.12.08l.38-.71c.84-1.6,1.05-1.89,1.05-14.49s-.17-12.39-1.05-14.07l-.38-.71s1.47.08,5.12.08,5.08-.08,5.08-.08l-.38.71c-.76,1.43-1.05,1.85-1.05,11.47h10.29c0-9.62-.21-9.96-1.05-11.47l-.38-.71s1.47.08,5.12.08,5.08-.08,5.08-.08l-.38.71c-.84,1.55-1.05,1.89-1.05,14.49s.17,12.39,1.05,14.07l.38.71s-1.51-.08-5.08-.08Z" fill="#fff"/>
      <path d="M361.34,150.77c-.8,1.47-1.05,1.89-1.05,14.49v14.79s-1.18-.08-3.78-.08c-2.81,0-5,.08-5,.08l-9.62-20.08c-.71-1.51-1.13-3.11-1.18-3.24v8.53c0,12.22.17,12.39,1.05,14.07l.38.71s-1.26-.08-4.03-.08c-2.94,0-4.12.08-4.12.08l.38-.71c.76-1.47,1.05-1.89,1.05-14.49s-.17-12.39-1.05-14.07l-.38-.71s1.55.08,5.38.08c3.19,0,4.83-.08,4.83-.08l9.62,20.04c.76,1.6,1.09,2.98,1.18,3.24v-8.49c0-12.22-.17-12.39-1.05-14.07l-.38-.71s1.26.08,4.03.08c2.94,0,4.12-.08,4.12-.08l-.38.71Z" fill="#fff"/>
      <path d="M399.39,180.3c-5.42,0-8.07-1.26-8.07-1.26,0,0,.08-.97.08-3.28,0-2.52-.08-4.07-.08-4.07,1.47,2.14,3.49,4.2,7.56,4.2,2.82,0,5.08-.63,5.08-3.32,0-2.1-1.34-2.86-3.36-3.95l-3.44-1.93c-3.28-1.81-5.88-4.07-5.88-8.4,0-5.67,3.74-8.49,10.75-8.49,5,0,7.6,1.22,7.6,1.22,0,0-.08,1.01-.08,3.4s.08,3.87.08,3.87c-1.68-2.44-3.78-4.12-7.1-4.12-2.73,0-4.5.76-4.5,2.94,0,1.97,1.43,2.65,3.7,3.91l2.98,1.64c3.65,1.97,6.05,4.16,6.05,8.78,0,6.93-5,8.86-11.38,8.86Z" fill="#fff"/>
      <path d="M454.07,180.55c-9.37,0-14.11-5.46-14.11-15,0-8.11,3.78-15.84,14.03-15.84,9.37,0,14.11,5.46,14.11,15,0,8.11-3.78,15.84-14.03,15.84ZM454.07,154.05c-4.24,0-6.17,3.45-6.17,11.17s1.89,11.01,6.09,11.01,6.17-3.45,6.17-11.17-1.89-11.01-6.09-11.01Z" fill="#fff"/>
      <path d="M525.18,150.77c-.8,1.47-1.05,1.89-1.05,14.49v14.79s-1.18-.08-3.78-.08c-2.81,0-5,.08-5,.08l-9.62-20.08c-.71-1.51-1.13-3.11-1.18-3.24v8.53c0,12.22.17,12.39,1.05,14.07l.38.71s-1.26-.08-4.03-.08c-2.94,0-4.12.08-4.12.08l.38-.71c.76-1.47,1.05-1.89,1.05-14.49s-.17-12.39-1.05-14.07l-.38-.71s1.55.08,5.38.08c3.19,0,4.83-.08,4.83-.08l9.62,20.04c.76,1.6,1.09,2.98,1.18,3.24v-8.49c0-12.22-.17-12.39-1.05-14.07l-.38-.71s1.26.08,4.03.08c2.94,0,4.12-.08,4.12-.08l-.38.71Z" fill="#fff"/>
      <path d="M598.77,180.3c-10.88,0-15.08-6.09-15.08-14.74,0-10.67,5.71-15.75,15.37-15.75,5.54,0,7.73,1.22,7.73,1.22,0,0-.08.88-.08,3.49,0,2.23.08,3.7.08,3.7-1.81-2.6-3.32-4.12-7.1-4.12-5.59,0-8.23,4.83-8.23,11.22,0,6.8,2.6,10.71,8.07,10.71,3.82,0,5.46-1.6,7.27-4.2,0,0-.08,1.34-.08,3.95,0,2.39.08,3.32.08,3.32,0,0-2.65,1.22-8.02,1.22Z" fill="#fff"/>
      <path d="M654.84,178.41l-.08,1.6h-15.29c-2.27,0-3.23.04-3.23.04l.38-.71c.84-1.55,1.05-1.89,1.05-14.49s-.17-12.39-1.05-14.07l-.38-.71s1.43.08,5.29.08,5.08-.08,5.08-.08l-.42.76c-.92,1.6-1.13,2.44-1.13,11.97v12.98h2.81c5.21,0,5.88-1.22,7.44-3.49,0,0-.21,1.68-.46,6.13Z" fill="#fff"/>
      <path d="M711.12,150.77c-.8,1.47-1.05,1.93-1.05,12.35v3.32c0,4.79-.08,7.94-2.23,10.33-1.97,2.39-5.04,3.7-9.96,3.7s-8.11-.97-10.17-3.23c-2.06-2.18-2.56-4.79-2.56-9.45v-3.53c0-11.26-.17-11.8-1.05-13.48l-.38-.71s1.64.08,5.17.08,5.21-.08,5.21-.08l-.38.71c-.8,1.47-1.05,1.93-1.05,12.35v5.88c0,1.13.04,2.65.25,3.49.59,2.1,1.97,3.49,5.29,3.49s4.79-1.39,5.38-3.49c.21-.88.25-2.31.25-3.4v-4.24c0-12.22-.17-12.39-1.05-14.07l-.38-.71s1.51.08,4.54.08,4.54-.08,4.54-.08l-.38.71Z" fill="#fff"/>
      <path d="M760.01,179.29c-2.18.67-4.54.76-8.28.76-1.51,0-4.71-.08-6.26-.08-2.77,0-4.12.08-4.12.08l.38-.71c.84-1.55,1.05-1.89,1.05-14.49s-.17-12.39-1.05-14.07l-.38-.71s1.43.08,3.65.08c1.39,0,4.5-.08,5.8-.08,6.89,0,13.44.29,13.44,7.18,0,5.33-4.37,6.89-7.1,7.22,4.03.13,8.07,1.89,8.07,7.27,0,4.71-2.77,6.85-5.21,7.56ZM751.48,153.84c-1.09,0-1.68.08-1.68.08v8.86s.5.08,1.81.08c.84,0,1.81-.13,2.56-.34,1.6-.46,2.77-1.81,2.77-4.29,0-3.7-2.23-4.41-5.46-4.41ZM751.94,166.65c-1.22,0-2.14.08-2.14.08v9.37s.42.08,2.23.08c1.39,0,2.52-.13,3.32-.5,1.3-.5,2.39-1.64,2.39-4.37,0-3.78-2.35-4.66-5.8-4.66Z" fill="#fff"/>
    </g>
  </g>
</svg>