<?xml version="1.0" encoding="UTF-8"?>
<svg id="Layer_2" data-name="Layer 2" xmlns="http://www.w3.org/2000/svg" viewBox="0 0 1246.83 166.94">
  <g id="Layer_1-2" data-name="Layer 1">
    <g>
      <path d="M117.33,128.61c-15.4,0-21.67.36-21.67.36l1.61-3.04c3.4-6.27,4.48-8.96,4.48-61.8V29.2c-.18.36-3.05,10.03-8.06,21.32l-28.84,64.84-28.66-64.66c-5.19-11.46-7.7-20.06-8.06-21.32v36.54c0,52.12.72,52.84,4.48,60.01l1.61,3.04s-5.91-.36-16.84-.36-17.38.36-17.38.36l1.61-3.04c3.58-6.81,4.48-8.06,4.48-61.8S5.37,11.28,1.61,4.12L0,1.07s7.17.36,23.46.36c14.87,0,21.14-.36,21.14-.36l21.32,48.18c1.97,4.48,2.51,6.99,2.69,7.34,0-.36.72-2.51,2.87-7.34L92.96,1.07s6.81.36,22.03.36,23.46-.36,23.46-.36l-1.61,3.04c-3.58,6.63-4.48,8.06-4.48,61.8s.72,52.84,4.48,60.01l1.61,3.04s-5.91-.36-21.14-.36Z" fill="#036b08"/>
      <path d="M178.94,128.61c-15.22,0-21.85.36-21.85.36l1.61-3.04c3.58-6.81,4.48-8.06,4.48-61.8s-.72-52.84-4.48-60.01l-1.61-3.04s6.09.36,21.67.36,21.85-.36,21.85-.36l-1.61,3.04c-3.58,6.81-4.48,8.06-4.48,61.8s.72,52.84,4.48,60.01l1.61,3.04s-6.45-.36-21.67-.36Z" fill="#036b08"/>
      <path d="M314.17,28.48c-.18-.18-1.25-1.97-6.27-5.02-4.3-2.51-11.11-4.48-19.52-4.48h-9.67v46.93c0,52.12.72,52.84,4.48,60.01l1.61,3.04s-6.45-.36-21.67-.36-21.85.36-21.85.36l1.61-3.04c3.58-6.81,4.48-8.06,4.48-61.8V18.99h-9.67c-8.42,0-15.23,1.97-19.52,4.48-4.66,2.87-6.09,4.66-6.27,5.02,0-.18.36-5.19.36-14.51,0-8.78-.18-12.72-.18-12.72h101.92s-.18,3.94-.18,12.72c0,9.31.36,14.15.36,14.51Z" fill="#036b08"/>
      <path d="M385.11,130.04c-46.39,0-64.3-25.97-64.3-62.87,0-45.5,24.36-67.17,65.56-67.17,23.64,0,32.96,5.19,32.96,5.19,0,0-.36,3.76-.36,14.87,0,9.49.36,15.76.36,15.76-7.7-11.11-14.15-17.55-30.27-17.55-23.82,0-35.11,20.6-35.11,47.83,0,29.02,11.11,45.68,34.39,45.68,16.3,0,23.29-6.81,30.99-17.91,0,0-.36,5.73-.36,16.84,0,10.21.36,14.15.36,14.15,0,0-11.29,5.19-34.21,5.19Z" fill="#036b08"/>
      <path d="M531.62,128.61c-15.23,0-21.85.36-21.85.36l1.61-3.04c3.4-6.45,4.48-8.06,4.48-51.95h-43.88c0,44.06.9,45.14,4.48,51.95l1.61,3.04s-6.45-.36-21.67-.36-21.85.36-21.85.36l1.61-3.04c3.58-6.81,4.48-8.06,4.48-61.8s-.72-52.84-4.48-60.01l-1.61-3.04s6.27.36,21.85.36,21.67-.36,21.67-.36l-1.61,3.04c-3.22,6.09-4.48,7.88-4.48,48.9h43.88c0-41.02-.9-42.45-4.48-48.9l-1.61-3.04s6.27.36,21.85.36,21.67-.36,21.67-.36l-1.61,3.04c-3.58,6.63-4.48,8.06-4.48,61.8s.72,52.84,4.48,60.01l1.61,3.04s-6.45-.36-21.67-.36Z" fill="#036b08"/>
      <path d="M656.29,121.98l-.36,6.81h-70.04c-9.67,0-13.79.18-13.79.18l1.61-3.04c3.58-6.63,4.48-8.06,4.48-61.8s-.72-52.84-4.48-60.01l-1.61-3.04s3.94.18,13.61.18h68.42s-.18,3.94-.18,12.72c0,9.31.36,13.79.36,14.15-.18-.18-1.25-1.79-6.27-4.84-4.3-2.51-11.29-3.94-19.7-3.94h-18.99v36.36h14.69c8.42,0,15.41-.9,19.7-3.4,4.66-2.69,6.09-4.3,6.45-4.66,0,.18-.54,5.19-.54,17.38,0,11.28.54,16.66.54,17.02-.18-.18-1.43-1.79-6.45-4.84-4.3-2.51-11.29-3.4-19.7-3.4h-14.69v36.9h17.2c22.21,0,25.08-5.19,31.71-14.87,0,0-.9,7.17-1.97,26.15Z" fill="#036b08"/>
      <path d="M753.73,121.98l-.36,6.81h-65.2c-9.67,0-13.79.18-13.79.18l1.61-3.04c3.58-6.63,4.48-8.06,4.48-61.8s-.72-52.84-4.48-60.01l-1.61-3.04s6.09.36,22.57.36,21.67-.36,21.67-.36l-1.79,3.22c-3.94,6.81-4.84,10.39-4.84,51.05v55.35h12c22.21,0,25.08-5.19,31.7-14.87,0,0-.9,7.17-1.97,26.15Z" fill="#036b08"/>
      <path d="M889.68,125.74c-9.31,2.87-19.34,3.22-35.29,3.22-6.45,0-20.06-.36-26.69-.36-11.82,0-17.55.36-17.55.36l1.61-3.04c3.58-6.63,4.48-8.06,4.48-61.8s-.72-52.84-4.48-60.01l-1.61-3.04s6.09.36,15.58.36c5.91,0,19.17-.36,24.72-.36,29.38,0,57.32,1.25,57.32,30.63,0,22.75-18.63,29.38-30.27,30.81,17.2.54,34.39,8.06,34.39,30.99,0,20.06-11.82,29.2-22.21,32.24ZM853.32,17.2c-4.66,0-7.17.36-7.17.36v37.79s2.15.36,7.7.36c3.58,0,7.7-.54,10.93-1.43,6.81-1.97,11.82-7.7,11.82-18.27,0-15.76-9.49-18.81-23.29-18.81ZM855.29,71.83c-5.19,0-9.13.36-9.13.36v39.94s1.79.36,9.49.36c5.91,0,10.75-.54,14.15-2.15,5.55-2.15,10.21-6.99,10.21-18.63,0-16.12-10.03-19.88-24.72-19.88Z" fill="#036b08"/>
      <path d="M945.74,131.3c-12.54-1.61-18.81-7.52-18.81-18.27s7.7-17.02,18.81-18.27c12.54,1.61,18.81,7.52,18.81,18.09s-7.7,17.2-18.81,18.45Z" fill="#036b08"/>
      <path d="M1025.09,4.12c-3.58,6.81-4.48,8.06-4.48,61.8v64.66c0,19.52-1.07,36.36-38.15,36.36h-7.52c13.79-6.81,14.33-18.63,14.33-43.53v-59.11c0-52.12-.72-53.02-4.48-60.19l-1.61-3.04s6.09.36,21.67.36,21.85-.36,21.85-.36l-1.61,3.04Z" fill="#036b08"/>
      <path d="M1061.99,131.3c-12.54-1.61-18.81-7.52-18.81-18.27s7.7-17.02,18.81-18.27c12.54,1.61,18.81,7.52,18.81,18.09s-7.7,17.2-18.81,18.45Z" fill="#036b08"/>
      <path d="M1160.68,130.04c-46.39,0-64.3-25.97-64.3-62.87,0-45.5,24.36-67.17,65.56-67.17,23.64,0,32.96,5.19,32.96,5.19,0,0-.36,3.76-.36,14.87,0,9.49.36,15.76.36,15.76-7.7-11.11-14.15-17.55-30.27-17.55-23.82,0-35.11,20.6-35.11,47.83,0,29.02,11.11,45.68,34.39,45.68,16.3,0,23.29-6.81,30.99-17.91,0,0-.36,5.73-.36,16.84,0,10.21.36,14.15.36,14.15,0,0-11.29,5.19-34.21,5.19Z" fill="#036b08"/>
      <path d="M1228.02,131.3c-12.54-1.61-18.81-7.52-18.81-18.27s7.7-17.02,18.81-18.27c12.54,1.61,18.81,7.52,18.81,18.09s-7.7,17.2-18.81,18.45Z" fill="#036b08"/>
    </g>
  </g>
</svg>