<?xml version="1.0" encoding="UTF-8"?>
<svg id="Layer_2" data-name="Layer 2" xmlns="http://www.w3.org/2000/svg" viewBox="0 0 538.45 200">
  <g id="Layer_1-2" data-name="Layer 1">
    <g>
      <g>
        <path d="M6.55,62.72s0,0,0,0c9.07-8.9,25.5-8.78,41.96-6.21,16.55,2.81,33.12,8.09,44.43,14.95.91,2.86,1.86,5.71,2.87,8.57,99.15,57.88,224.78,53.18,319.64-14.1,21.88-15.33,48.12-21.57,66.5-4.11t0,0c18.35,17.31,8.4,48.95-20.39,69.29-120.47,85.44-280.03,91.41-405.96,17.9-3.52.21-7.06.37-10.63.47C13.79,131.66-12.76,80.17,6.55,62.72Z" fill="#fff"/>
        <g>
          <ellipse cx="452.33" cy="47.82" rx="59.22" ry="35.26" transform="translate(87.69 319.72) rotate(-42.75)" fill="#fff"/>
          <ellipse cx="488.81" cy="87.8" rx="59.22" ry="35.26" transform="translate(70.25 355.09) rotate(-42.75)" fill="#fff"/>
        </g>
      </g>
      <g>
        <path d="M71.63,124.47c-2.05-1.29-2.92-1.77-2.92-1.77l.47-.27c.98-.55,1.35-.82,5.77-7.86l2.93-4.66c-.05.03-1.25,1.08-2.86,2.17l-9.27,6.23,1.59-11.02c.27-1.96.65-3.32.71-3.52l-3.06,4.87c-4.36,6.95-4.33,7.1-4.43,8.37l-.04.54s-.76-.54-2.21-1.46c-1.48-.93-2.35-1.41-2.35-1.41l.47-.27c1.05-.61,1.27-.7,5.77-7.86,4.36-6.95,4.33-7.1,4.43-8.37l.04-.54s.93.65,3.1,2.01c1.98,1.25,2.85,1.72,2.85,1.72l-1.19,8.21c-.11.76-.25,1.14-.26,1.2.03-.05.31-.27,1-.74l6.9-4.62s.88.62,2.91,1.89c2.13,1.34,3.16,1.92,3.16,1.92l-.47.27c-1.03.58-1.27.7-5.77,7.86-4.37,6.95-4.33,7.1-4.43,8.38l-.04.54s-.76-.54-2.79-1.82Z" fill="#036b08"/>
        <path d="M80.47,129.47c-2.09-1.17-3.03-1.62-3.03-1.62l.46-.3c1.01-.66,1.23-.77,5.35-8.16,3.99-7.17,3.95-7.32,3.98-8.59v-.54s.82.52,2.96,1.71c2.24,1.25,3.03,1.62,3.03,1.62l-.46.3c-1.01.66-1.23.76-5.35,8.15-3.99,7.17-3.95,7.32-3.98,8.6v.54s-.87-.54-2.96-1.71Z" fill="#036b08"/>
        <path d="M107.01,125.52s-.04-.37-.53-1.15c-.43-.66-1.24-1.42-2.43-2.01l-1.36-.69-3.33,6.59c-3.7,7.32-3.65,7.48-3.63,8.75v.54s-.87-.51-3.01-1.59c-2.14-1.08-3.1-1.5-3.1-1.5l.44-.31c.99-.7,1.2-.82,5.01-8.37l3.2-6.34-1.36-.69c-1.18-.6-2.28-.8-3.06-.75-.86.07-1.19.22-1.24.26.01-.03.42-.7,1.08-2.01.62-1.23.88-1.8.88-1.8l14.32,7.23s-.3.54-.93,1.77c-.66,1.31-.95,2.01-.98,2.06Z" fill="#036b08"/>
        <path d="M110.46,144.54c-6.68-2.95-7.61-7.83-5.26-13.15,2.9-6.55,7.78-8.12,13.72-5.5,3.4,1.51,4.42,2.85,4.42,2.85,0,0-.29.52-1,2.12-.6,1.37-.95,2.29-.95,2.29-.4-2.09-.92-3.43-3.24-4.45-3.43-1.52-6.37.73-8.1,4.65-1.85,4.18-1.31,7.28,2.04,8.77,2.35,1.04,3.79.5,5.6-.61,0,0-.42.8-1.12,2.4-.65,1.47-.85,2.06-.85,2.06,0,0-1.96.03-5.26-1.43Z" fill="#036b08"/>
        <path d="M132.31,152.92c-2.25-.84-3.24-1.15-3.24-1.15l.41-.36c.86-.76,1.1-.94,3.52-7.42l-6.47-2.41c-2.42,6.5-2.35,6.71-2.2,7.91l.07.54s-.93-.41-3.18-1.24c-2.25-.84-3.24-1.15-3.24-1.15l.41-.36c.9-.81,1.1-.94,4.06-8.87,2.87-7.69,2.8-7.84,2.64-9.1l-.07-.54s.9.4,3.2,1.25c2.4.9,3.22,1.14,3.22,1.14l-.41.36c-.81.72-1.09.92-3.35,6.97l6.47,2.41c2.25-6.05,2.2-6.31,2.03-7.46l-.07-.54s.91.4,3.2,1.25c2.4.9,3.22,1.14,3.22,1.14l-.41.36c-.89.78-1.1.94-4.06,8.87-2.87,7.69-2.8,7.84-2.64,9.1l.07.54s-.93-.41-3.18-1.24Z" fill="#036b08"/>
        <path d="M151.64,158.03l-.37,1.01-10.53-3.26c-1.45-.45-2.08-.61-2.08-.61l.38-.38c.85-.83,1.05-1,3.55-9.09,2.42-7.84,2.35-7.98,2.12-9.23l-.1-.53s.58.21,2.04.66l10.29,3.18s-.21.58-.62,1.9c-.43,1.4-.59,2.09-.6,2.14-.02-.04-.11-.33-.72-1.02-.53-.58-1.51-1.12-2.78-1.51l-2.86-.88-1.69,5.47,2.21.68c1.27.39,2.36.58,3.12.4.83-.19,1.12-.36,1.19-.4,0,.03-.32.76-.89,2.59-.52,1.7-.69,2.53-.71,2.58-.02-.04-.13-.34-.74-1.03-.53-.58-1.54-1.04-2.81-1.43l-2.21-.68-1.72,5.55,2.59.8c3.34,1.03,4.01.38,5.46-.76,0,0-.47,1.04-1.51,3.84Z" fill="#036b08"/>
        <path d="M166.94,162.03l-.32,1.02-9.94-2.56c-1.47-.38-2.11-.51-2.11-.51l.37-.4c.81-.87,1-1.05,3.11-9.25,2.05-7.95,1.96-8.08,1.67-9.32l-.13-.53s.91.29,3.43.94c2.49.64,3.32.8,3.32.8l-.4.42c-.87.88-1.15,1.39-2.74,7.59l-2.17,8.44,1.83.47c3.39.87,4.03.19,5.42-1.02,0,0-.42,1.06-1.33,3.91Z" fill="#036b08"/>
        <path d="M189.16,167.08c-1.52.18-3.09-.04-5.56-.49-1-.18-3.1-.62-4.13-.8-1.83-.33-2.73-.44-2.73-.44l.34-.43c.74-.93.92-1.12,2.43-9.45,1.46-8.08,1.37-8.21.99-9.42l-.16-.52s.93.23,2.4.49c.92.17,2.98.48,3.84.64,4.55.82,8.85,1.8,8.02,6.35-.64,3.52-3.71,4.03-5.55,3.93,2.65.57,5.1,2.21,4.46,5.76-.56,3.11-2.65,4.19-4.34,4.37ZM185.34,157.76c-.81-.15-1.43-.2-1.43-.2l-1.12,6.19s.27.11,1.46.32c.92.17,1.68.22,2.25.06.92-.18,1.78-.8,2.1-2.6.45-2.5-1-3.36-3.27-3.77ZM186.57,149.24c-.72-.13-1.12-.15-1.12-.15l-1.06,5.86s.32.12,1.18.27c.56.1,1.21.13,1.73.08,1.11-.11,2.05-.86,2.34-2.5.44-2.44-.94-3.18-3.08-3.57Z" fill="#036b08"/>
        <path d="M199.01,168.99c-2.38-.32-3.42-.41-3.42-.41l.32-.44c.7-.99.87-1.16,2.01-9.55,1.11-8.13,1.01-8.26.57-9.46l-.19-.51s.94.19,3.37.52c2.54.35,3.42.41,3.42.41l-.32.44c-.7.99-.87,1.16-2.01,9.55-1.11,8.13-1.01,8.26-.57,9.46l.19.51s-1-.19-3.37-.52Z" fill="#036b08"/>
        <path d="M223.65,162.69c-.62.94-.83,1.31-1.42,7.91v.17s-2.31.67-6.02.34c-6.15-.55-10.44-3.85-9.83-10.71.66-7.36,4.97-10.28,11.88-9.66,3.96.35,5.54,1.32,5.54,1.32,0,0-.11.58-.27,2.33-.13,1.49-.17,2.48-.17,2.48-1.15-2-2.26-2.89-4.84-3.12-3.71-.33-6.47,1.37-6.96,6.91-.41,4.58.76,7.29,5,7.67.73.07,1.13.02,1.13.02.37-4.1.32-5.15-.15-6.19l-.24-.5s1.03.15,3.28.35c2.44.22,3.35.24,3.35.24l-.3.45Z" fill="#036b08"/>
        <path d="M240.92,152.48c-.59,1.06-.73,1.25-.93,9.71l-.24,10.18c-.07,3.07-.3,5.72-6.14,5.58l-1.18-.03c2.2-1.02,2.32-2.88,2.42-6.8l.22-9.3c.19-8.2.08-8.35-.48-9.49l-.24-.49s.96.08,3.41.14c2.57.06,3.44.02,3.44.02l-.27.47Z" fill="#036b08"/>
        <path d="M253.05,172.4c-6.29.14-9.56-3.45-9.7-9.85-.12-5.44,2.29-10.69,9.17-10.85,6.29-.14,9.56,3.45,9.7,9.85.12,5.44-2.29,10.69-9.17,10.85ZM252.65,154.61c-2.85.07-4.09,2.41-3.97,7.59.12,5.19,1.44,7.36,4.26,7.29,2.85-.07,4.09-2.41,3.97-7.59-.12-5.19-1.44-7.36-4.26-7.29Z" fill="#036b08"/>
        <path d="M280.53,170.32c-2.39.21-3.42.35-3.42.35l.21-.5c.45-1.06.59-1.33,0-8.21l-6.88.59c.6,6.91.75,7.07,1.41,8.09l.29.46s-1.02.03-3.41.24c-2.39.21-3.42.35-3.42.35l.21-.5c.47-1.12.59-1.33-.13-9.76-.71-8.18-.83-8.28-1.52-9.35l-.29-.46s.99-.03,3.43-.24c2.56-.22,3.4-.35,3.4-.35l-.21.5c-.42,1-.6,1.3-.04,7.73l6.88-.6c-.56-6.43-.72-6.65-1.37-7.61l-.29-.46s.99-.03,3.43-.24c2.56-.22,3.4-.35,3.4-.35l-.21.5c-.47,1.09-.59,1.32.13,9.75.71,8.18.83,8.28,1.51,9.35l.29.46s-1.02.03-3.4.24Z" fill="#036b08"/>
        <path d="M302.35,147.52c-.38,1.06-.51,1.36.76,9.73l1.49,9.82s-.79.06-2.52.32c-1.87.28-3.31.56-3.31.56l-8.4-12.36c-.63-.93-1.07-1.95-1.11-2.03l.86,5.66c1.23,8.11,1.36,8.21,2.11,9.24l.32.44s-.84.07-2.69.35c-1.95.3-2.72.47-2.72.47l.18-.51c.35-1.05.51-1.36-.76-9.73-1.23-8.11-1.36-8.21-2.11-9.24l-.32-.44s1.04-.1,3.58-.48c2.12-.32,3.2-.54,3.2-.54l8.4,12.33c.66.98,1.02,1.87,1.11,2.03l-.85-5.63c-1.23-8.11-1.36-8.21-2.11-9.24l-.32-.44s.84-.07,2.69-.35c1.95-.3,2.72-.47,2.72-.47l-.18.51Z" fill="#036b08"/>
        <path d="M313.71,165.38c-3.56.74-5.47.28-5.47.28,0,0-.08-.65-.39-2.16-.35-1.66-.61-2.67-.61-2.67,1.26,1.21,2.87,2.28,5.55,1.72,1.85-.39,3.25-1.11,2.89-2.88-.29-1.38-1.28-1.69-2.75-2.13l-2.53-.8c-2.4-.74-4.42-1.87-5.02-4.72-.78-3.73,1.29-6.09,5.9-7.05,3.29-.69,5.16-.24,5.16-.24,0,0,.08.67.41,2.25.34,1.63.59,2.53.59,2.53-1.44-1.37-3.05-2.19-5.23-1.73-1.79.37-2.85,1.11-2.55,2.55.27,1.3,1.3,1.54,2.97,2.06l2.18.67c2.67.8,4.55,1.9,5.18,4.94.95,4.56-2.07,6.51-6.27,7.39Z" fill="#036b08"/>
        <path d="M332.99,161c-6.07,1.62-10.1-1.1-11.75-7.28-1.4-5.26-.29-10.92,6.35-12.7,6.07-1.62,10.1,1.1,11.75,7.28,1.4,5.26.29,10.92-6.35,12.7ZM328.39,143.82c-2.75.74-3.41,3.3-2.07,8.31,1.34,5.01,3.13,6.81,5.86,6.08,2.75-.74,3.41-3.3,2.07-8.32-1.34-5.01-3.13-6.81-5.86-6.08Z" fill="#036b08"/>
        <path d="M355.84,132.92c-.19,1.11-.26,1.43,2.44,9.45l3.17,9.41s-.77.2-2.42.76c-1.79.6-3.16,1.13-3.16,1.13l-10.43-10.71c-.78-.81-1.39-1.73-1.44-1.81l1.83,5.42c2.62,7.78,2.77,7.85,3.69,8.73l.39.37s-.82.22-2.58.81c-1.87.63-2.6.94-2.6.94l.09-.54c.17-1.1.26-1.43-2.44-9.45-2.62-7.78-2.77-7.85-3.69-8.73l-.39-.37s1.01-.28,3.44-1.1c2.03-.69,3.06-1.09,3.06-1.09l10.42,10.68c.82.85,1.33,1.66,1.44,1.81l-1.82-5.4c-2.62-7.78-2.77-7.85-3.69-8.73l-.39-.37s.82-.22,2.58-.81c1.87-.63,2.6-.94,2.6-.94l-.09.54Z" fill="#036b08"/>
        <path d="M381.24,143.89c-6.71,2.89-10.92.25-13.21-5.09-2.83-6.58-.66-11.23,5.3-13.79,3.42-1.47,5.09-1.3,5.09-1.3,0,0,.18.57.87,2.17.59,1.37,1.03,2.26,1.03,2.26-1.81-1.13-3.14-1.66-5.47-.65-3.44,1.48-3.79,5.16-2.1,9.1,1.81,4.2,4.45,5.91,7.82,4.46,2.36-1.01,2.94-2.43,3.37-4.52,0,0,.3.85,1,2.46.64,1.48.93,2.02.93,2.02,0,0-1.31,1.45-4.62,2.88Z" fill="#036b08"/>
        <path d="M399.45,133.88l.42.99-9.21,4.52c-1.37.67-1.94.98-1.94.98l.02-.54c.05-1.18.07-1.45-3.65-9.04-3.61-7.37-3.76-7.42-4.79-8.17l-.44-.32s.89-.37,3.21-1.51c2.3-1.13,3.04-1.55,3.04-1.55l-.03.58c-.08,1.24.04,1.8,2.86,7.55l3.84,7.82,1.7-.83c3.14-1.54,3.18-2.47,3.45-4.3,0,0,.37,1.07,1.53,3.83Z" fill="#036b08"/>
        <path d="M408.6,107.66c.01,1.12.02,1.48,3.43,7.58l1.09,1.94c1.57,2.81,2.55,4.68,2.08,6.78-.37,2.05-1.74,3.82-4.62,5.43-2.76,1.54-5.07,2.09-7.02,1.44-1.92-.61-3.07-1.97-4.6-4.7l-1.16-2.07c-3.69-6.6-3.97-6.86-5.03-7.56l-.46-.29s.99-.49,3.05-1.64c2.04-1.14,3.02-1.76,3.02-1.76v.54c.03,1.12.03,1.48,3.45,7.58l1.93,3.45c.37.66.89,1.54,1.29,1.96,1.03,1.04,2.3,1.4,4.24.31,1.97-1.1,2.35-2.38,2.01-3.8-.17-.59-.61-1.44-.97-2.08l-1.39-2.49c-4.01-7.16-4.16-7.2-5.23-7.9l-.46-.29s.91-.45,2.69-1.44c1.85-1.03,2.63-1.54,2.63-1.54v.54Z" fill="#036b08"/>
        <path d="M431.24,115.92c-.99,1.17-2.29,2.07-4.4,3.42-.86.55-2.69,1.66-3.57,2.22-1.57,1-2.3,1.54-2.3,1.54l-.04-.54c-.09-1.18-.09-1.45-4.65-8.57-4.42-6.91-4.58-6.95-5.69-7.58l-.47-.27s.84-.47,2.1-1.28c.78-.5,2.51-1.67,3.25-2.15,3.89-2.49,7.71-4.7,10.2-.8,1.93,3.02.02,5.48-1.4,6.65,2.33-1.39,5.24-1.85,7.19,1.19,1.7,2.66.91,4.87-.21,6.16ZM417.21,104.62c-.62.4-.92.66-.92.66l3.21,5.01s.32-.13,1.05-.61c.48-.3.98-.73,1.33-1.12.74-.84.91-2.02.02-3.43-1.34-2.09-2.86-1.69-4.68-.52ZM422.11,111.69c-.69.44-1.18.82-1.18.82l3.39,5.3s.27-.1,1.29-.76c.78-.5,1.38-.98,1.69-1.49.55-.76.76-1.79-.23-3.34-1.37-2.14-3.02-1.79-4.96-.54Z" fill="#036b08"/>
      </g>
    </g>
  </g>
</svg>