<?xml version="1.0" encoding="UTF-8"?>
<svg id="Layer_2" data-name="Layer 2" xmlns="http://www.w3.org/2000/svg" viewBox="0 0 964.78 261.81">
  <g id="Layer_1-2" data-name="Layer 1">
    <g>
      <g>
        <path d="M64.5,124.17c-30.03,0-54.03-19.88-54.03-51.68,0-23.85,14.72-39.46,28.71-46.82l1.77,1.47c-8.24,6.62-12.96,20.61-12.96,36.66,0,11.78,2.5,22.53,7.21,31.36,5.3-3.68,6.18-7.36,6.18-14.87v-44.02c13.54-9.28,22.53-16.34,30.77-24.88,29.15,2.65,51.24,18.7,51.24,55.8,0,41.08-36.66,56.98-58.89,56.98ZM63.18,23.9l-6.04,5.15v54.47s-10.89,6.77-20.76,13.69c5.89,10.01,14.87,17.08,26.8,20.02V23.9ZM102.34,52.17c-5.59-16.49-18.4-25.03-36.51-27.83v44.46l36.51-16.64ZM104.99,64.69c-.44-3.68-1.03-7.21-1.91-10.31l-37.25,16.78v11.34l39.16-17.81ZM105.29,66.9l-39.46,17.96v32.83c1.77.29,3.68.44,5.74.44,20.61,0,34.01-15.02,34.01-44.17,0-2.36-.15-5.15-.29-7.07Z" fill="#6f263d"/>
        <path d="M64.5,127.55c-15.75,0-30.15-5.26-40.56-14.8-11.02-10.11-16.85-24.03-16.85-40.26,0-31.32,23.36-46.04,30.52-49.81l2-1.05,6.68,5.57-3.22,2.59c-1.25,1.01-2.42,2.23-3.5,3.64,14.07-9.64,22.53-16.48,30.16-24.38l1.13-1.17,1.61.15c35.02,3.18,54.31,24.2,54.31,59.17,0,41.63-36.41,60.36-62.27,60.36ZM30.09,36.16c-7.75,6.97-16.24,18.65-16.24,36.33,0,28.08,20.3,47.79,49.52,48.29l-1-.25c-11.99-2.96-21.72-10.04-28.24-20.5l-.12.08-1.41-2.65-.71-1.21.05-.04c-4.8-9.23-7.33-20.42-7.33-32.41,0-10.59,1.96-20.15,5.48-27.64ZM69.21,114.68c.76.05,1.55.08,2.36.08,19.47,0,30.63-14.87,30.63-40.79,0-.62-.01-1.28-.03-1.93l-32.96,15v27.64ZM40.98,98.15c4.74,6.9,11.05,11.78,18.82,14.56v-26.85l-.87.54c-.1.06-9.06,5.64-17.95,11.75ZM108.29,61.82l.37,4.82c.15,1.92.3,4.85.3,7.33,0,15.44-3.76,27.65-10.64,35.83.64-.45,1.28-.91,1.91-1.4,9.02-6.88,19.78-19.62,19.78-41.2,0-38.76-24.95-49.9-46.57-52.27-2.08,2.1-4.22,4.14-6.52,6.18,19.45,3.15,32.27,12.79,38.16,28.68l.18-.08.98,3.44.29.85-.04.02c.61,2.26,1.13,4.87,1.56,7.93l.25-.11ZM38.01,35.7c-4.19,6.82-6.64,16.87-6.64,28.1,0,9.41,1.69,18.23,4.91,25.78,1.36-1.96,1.72-4.52,1.72-9.29v-44.59ZM44.77,38.05v42.24c0,2.88-.15,5.37-.62,7.58,4.11-2.71,7.66-4.97,9.61-6.21V31.65c-2.74,2.02-5.72,4.14-8.99,6.4ZM69.21,73.35v3.9l32.1-14.6c-.18-1.25-.38-2.42-.59-3.5l-31.52,14.2ZM69.21,28.4v35.15l28.85-13.15c-4.92-11.68-14.4-18.92-28.85-22.01Z" fill="#006194"/>
      </g>
      <g>
        <path d="M179.29,132.56s-8.98,11.04-12.22,15.75c-7.21-3.98-16.2-6.48-27.68-5.74-.74.88-1.33,2.36-1.91,3.97h-.15c-.29-.59-1.47-2.65-1.91-3.68,3.24-4.71,9.42-12.07,17.37-21.05l-18.7-12.66v-.59c1.33-.59,2.5-2.36,2.5-6.04v-51.24c8.98-5.01,17.23-10.01,25.32-16.34,6.92,4.56,14.87,9.28,20.17,12.22v.59c-1.62,1.18-2.5,2.8-2.5,6.18v51.82c0,7.8,6.33,11.78,6.33,16.64,0,3.09-3.98,6.77-6.63,10.16ZM175.02,135.21c-.74-10.89-9.13-10.6-10.45-22.97l-15.16,17.96c13.84.15,19.43,2.36,25.47,5.15l.15-.15ZM164.42,107.97v-54.92c-3.53-2.36-7.95-5.15-12.22-7.66l-.44.29v58.6l9.72,7.07,2.94-3.39Z" fill="#6f263d"/>
        <path d="M168.12,152.75l-2.68-1.48c-7.17-3.95-15.05-5.72-24.06-5.42-.3.68-.58,1.45-.72,1.85l-.81,2.22h-4.6l-.94-1.87c-.08-.17-.25-.46-.44-.82-.65-1.2-1.22-2.25-1.56-3.04l-.73-1.71,1.06-1.54c2.78-4.04,7.61-9.96,15.08-18.49l-17-11.51v-4.58l1.92-.86c.11-.14.58-.87.58-2.98v-53.22l1.73-.97c7.5-4.18,16.33-9.36,24.89-16.05l1.91-1.5,2.03,1.34c7.11,4.69,14.97,9.32,19.95,12.09l1.74.97v4.3l-1.39,1.01c-.5.36-1.11.81-1.11,3.45v51.82c0,3.39,1.56,5.89,3.21,8.53,1.54,2.46,3.12,5,3.12,8.11,0,3.61-2.75,6.82-5.41,9.92-.7.81-1.35,1.58-1.93,2.32l-.04.05c-.09.11-8.93,10.99-12.06,15.54l-1.73,2.52ZM143.27,139.06c8.23,0,15.86,1.65,22.76,4.92,1.49-2.01,3.34-4.4,5.09-6.61-5.1-2.18-10.5-3.67-21.74-3.79l-2.3-.02c-1.72,2.04-3.24,3.87-4.55,5.51.25,0,.5,0,.75,0ZM156.44,127.11c5.77.44,9.9,1.35,13.44,2.55-.65-1.03-1.44-1.99-2.33-3.06-1.55-1.86-3.33-4.01-4.64-7.14l-6.46,7.65ZM167.66,109.4l.27,2.49c.57,5.28,2.53,7.65,4.81,10.39,1.65,1.99,3.45,4.15,4.58,7.34.47-.57.95-1.13,1.43-1.69,1.41-1.65,3.78-4.41,3.78-5.52,0-1.17-.97-2.73-2.09-4.53-1.89-3.02-4.24-6.78-4.24-12.11v-51.82c0-2.25.34-4.09,1.08-5.61-4.37-2.5-9.89-5.81-15.21-9.25-2.1,1.59-4.21,3.09-6.3,4.5,3.47,2.08,7.14,4.4,10.52,6.65l1.51,1v57.99l-.14.16ZM138.83,108.28l15.69,10.62,4.4-5.22-10.55-7.67v-57.66c-2.91,1.78-5.73,3.41-8.4,4.92v49.25c0,2.53-.47,4.39-1.14,5.75ZM155.14,102.57l5.82,4.23.08-.09v-51.83c-1.91-1.25-3.92-2.53-5.9-3.76v51.45Z" fill="#006194"/>
      </g>
      <g>
        <path d="M239.75,49.37c-1.77,1.47-2.5,2.65-2.5,8.1v48.14c-8.39,4.71-15.9,9.27-25.18,16.34-4.86-3.24-14.72-9.13-20.32-12.22v-.59c1.47-.74,2.5-2.21,2.5-5.15v-54.47c3.24-1.77,11.19-6.48,16.05-9.72l-5.3-5.74c-7.07-7.8-8.54-9.42-8.54-15.61,0-4.42,2.5-10.16,4.71-14.28l1.62.59c-.88,4.12.15,7.21,8.39,15.46,0,0,23.26,24.29,28.56,28.56v.59ZM222.08,111.21v-58.89l-9.42-10.01-3.24,2.06v59.63c2.94,1.91,9.13,5.59,12.37,7.36l.29-.15Z" fill="#6f263d"/>
        <path d="M212.2,126.11l-2.01-1.34c-4.91-3.27-14.65-9.07-20.08-12.07l-1.75-.96v-4.67l1.87-.94c.16-.08.63-.32.63-2.13v-56.48l1.76-.96c2.5-1.37,7.96-4.58,12.46-7.41l-2.57-2.79c-7.26-8.01-9.44-10.42-9.44-17.9,0-5.23,2.78-11.52,5.11-15.88l1.38-2.58,7.14,2.59-.62,2.88c-.46,2.16-.86,4.02,7.48,12.36,8.05,8.4,24.23,25.05,28.29,28.32l1.26,1.02v3.79l-1.22,1.01c-.86.71-1.29,1.07-1.29,5.5v50.12l-1.73.97c-8.38,4.7-15.8,9.24-24.78,16.08l-1.92,1.46ZM196.71,108.65c4.79,2.75,10.94,6.44,15.22,9.18,2.2-1.64,4.31-3.14,6.37-4.55-3.44-1.95-8.19-4.81-10.72-6.45l-1.54-1v-59.31c-3.04,1.86-6.15,3.7-8.4,4.99v52.49c0,1.94-.37,3.46-.93,4.66ZM213.2,37.96l12.26,13.02v57.63c2.78-1.72,5.55-3.35,8.4-4.97v-46.17c0-3.89.36-6.25,1.44-8.1-7.73-7.16-25.71-25.92-26.56-26.81-3.83-3.83-6.35-6.78-7.85-9.42-.69,2.07-1.05,3.89-1.05,5.31,0,4.76.54,5.47,7.64,13.31l5.71,6.19h0ZM212.8,102.14c1.69,1.05,3.85,2.36,5.9,3.56v-52.04l-5.9-6.27v54.75Z" fill="#006194"/>
      </g>
      <g>
        <path d="M267.08,78.38v22.53c8.98,5.74,12.66,7.21,15.31,7.21,1.03,0,2.06-.59,3.09-1.62l1.33-1.32,2.21,2.36c-3.39,3.24-10.45,10.31-14.13,14.43-6.33-3.97-17.96-10.6-25.47-14.28v-.59c1.77-1.33,2.5-2.65,2.5-7.21v-53c7.66-2.06,17.81-6.33,26.5-11.93,3.39,7.36,11.04,21.94,15.16,28.56-5.3,3.98-18.11,10.31-26.5,14.87ZM267.81,44.66l-.74.15v29.74c4.56-2.21,10.31-5.01,13.4-7.07-3.68-6.04-10.16-17.23-12.66-22.82Z" fill="#6f263d"/>
        <path d="M275.5,126.34l-2.42-1.52c-6.23-3.91-17.82-10.51-25.16-14.11l-1.89-.93v-4.39l1.35-1.01c.72-.54,1.15-.86,1.15-4.51v-55.59l2.5-.67c8.15-2.2,17.94-6.6,25.55-11.5l3.27-2.11,1.63,3.54c3.29,7.15,10.84,21.56,14.96,28.19l1.64,2.63-2.48,1.86c-4.14,3.1-12.07,7.28-19.73,11.32-1.88.99-3.71,1.96-5.41,2.87v18.65c6.25,3.92,9.85,5.64,11.84,5.69.09-.04.36-.19.79-.63l3.79-3.79,6.89,7.34-2.42,2.31c-3.47,3.32-10.43,10.3-13.95,14.24l-1.9,2.13ZM254.3,106.36c6.48,3.35,14.41,7.87,19.98,11.26,1.81-1.93,3.98-4.17,6.09-6.3-3.37-.61-7.62-2.77-15.11-7.56l-1.56-1v-56.37c-2.83,1.17-5.67,2.2-8.4,3.03v50.46c0,2.84-.28,4.87-1,6.48ZM270.46,57.04v12.1c1.86-.93,3.75-1.9,5.38-2.8-1.65-2.78-3.56-6.06-5.38-9.29ZM270.83,43.13l.07.16c2.45,5.47,8.94,16.67,12.46,22.44l.05.09c2.09-1.17,4.02-2.29,5.62-3.3-3.69-6.31-8.78-15.98-12.06-22.72-1.98,1.16-4.04,2.28-6.15,3.33Z" fill="#006194"/>
      </g>
      <g>
        <path d="M353.45,111.06c-2.94,2.8-7.8,7.66-11.34,11.04-3.68-2.8-11.04-7.95-14.13-10.01v-.59c1.47-.88,2.5-2.65,2.5-7.07v-53c-2.65-2.06-5.15-3.53-7.51-5.15,0,0-4.27,3.39-5.15,4.12v57.71c1.77,1.47,3.09,2.21,5.01,3.68v.15c-3.53,3.09-7.66,6.92-10.75,10.01-4.42-3.39-9.13-7.07-11.93-9.13v-.59c1.33-1.03,2.5-2.65,2.5-7.51v-54.92c-2.8-2.21-5.45-3.24-7.36-3.39l-.29-.29c4.27-3.98,7.51-7.07,11.19-11.04,4.71,3.68,10.01,7.51,13.4,9.86h.15l11.63-9.86c4.86,3.39,11.48,7.95,16.78,11.19v.59c-1.62,1.18-2.5,2.8-2.5,5.89v54.62c2.36,1.77,5.74,3.53,7.51,3.39l.29.29Z" fill="#6f263d"/>
        <path d="M342.36,126.55l-2.3-1.75c-3.62-2.75-10.85-7.82-13.96-9.89l-.87-.58-.18.16c-3.58,3.14-7.64,6.91-10.58,9.86l-2.1,2.1-2.35-1.8c-1.42-1.09-2.87-2.21-4.27-3.29-2.95-2.27-5.73-4.42-7.6-5.8l-1.38-1.01v-3.95l1.31-1.02c.39-.3,1.2-.93,1.2-4.84v-53.19c-1.78-1.17-3.31-1.67-4.24-1.74l-1.25-.1-3.66-3.66,2.56-2.39c4.48-4.17,7.56-7.14,11.01-10.86l2.11-2.28,2.45,1.91c3.78,2.95,7.97,6.02,11.2,8.32l11.69-9.91,2.14,1.49c5.02,3.5,11.44,7.91,16.61,11.08l1.62.99v4.21l-1.39,1.01c-.5.36-1.11.81-1.11,3.16v52.85c1.82,1.15,3.42,1.76,3.93,1.79l1.56-.13,1.33,1.4,2.46,2.45-2.52,2.39c-1.5,1.43-3.5,3.38-5.61,5.46-1.97,1.94-4,3.93-5.72,5.57l-2.09,2ZM332.63,111.17c2.77,1.91,6.37,4.45,9.19,6.51,1.17-1.14,2.4-2.35,3.61-3.53.61-.6,1.22-1.19,1.8-1.77-1.75-.93-3.15-1.94-3.62-2.29l-1.35-1.01v-56.31c0-2.16.37-3.96,1.14-5.46-3.89-2.49-8.12-5.37-11.84-7.95l-5.68,4.82c.44.29.88.58,1.33.87,1.7,1.11,3.46,2.26,5.34,3.73l1.3,1.02v54.66c0,2.02-.17,4.57-1.23,6.73ZM304.66,111.99c1.56,1.18,3.35,2.57,5.21,4,.64.49,1.28.99,1.93,1.49,1.77-1.71,3.75-3.56,5.71-5.33-.58-.42-1.19-.88-1.86-1.44l-1.22-1.01v-60.88l1.22-1.01c.2-.16.55-.45.97-.79-2.78-1.96-6.48-4.64-10.08-7.38-1.7,1.76-3.39,3.43-5.27,5.23,1.16.62,2.33,1.39,3.48,2.29l1.29,1.02v56.55c0,3.09-.43,5.44-1.37,7.26ZM321.2,106.47c.43.32.86.61,1.32.94.69.48,1.48,1.03,2.37,1.71l.22.17,1.14-.68c.53-.32.86-1.92.86-4.17v-51.31c-1.22-.88-2.42-1.66-3.59-2.43-.12-.08-.25-.16-.37-.24-.68.54-1.37,1.09-1.95,1.55v54.46Z" fill="#006194"/>
      </g>
      <g>
        <path d="M394.62,75.88c-10.31,2.94-25.76,9.42-32.39,13.25.15-4.12.29-10.31.29-13.84,7.36-4.42,22.97-10.31,32.39-12.96-.15,3.68-.29,10.6-.29,13.54Z" fill="#6f263d"/>
        <path d="M358.63,95.11l.22-6.1c.14-3.96.29-10.11.29-13.72v-1.91l1.64-.98c7.45-4.47,23.19-10.49,33.21-13.31l4.48-1.26-.19,4.65c-.14,3.56-.29,10.45-.29,13.41v2.55l-2.45.7c-10.31,2.95-25.47,9.37-31.63,12.93l-5.29,3.05ZM365.89,77.26c-.02,1.87-.06,4.07-.11,6.21,7.03-3.39,17.2-7.54,25.48-10.12.03-1.9.07-4.24.13-6.42-8.45,2.71-19.22,6.93-25.5,10.33Z" fill="#006194"/>
      </g>
      <g>
        <path d="M462.14,111.06c-4.27,3.98-7.51,7.07-11.19,11.04-4.71-3.68-9.13-6.92-13.4-9.86h-.15l-11.63,9.86c-4.86-3.39-11.48-7.95-16.78-11.19v-.59c1.62-1.18,2.5-2.8,2.5-5.89v-54.62c-2.36-1.77-5.74-3.53-7.51-3.39l-.29-.29c2.94-2.8,7.95-7.36,11.48-11.04,4.42,3.39,10.16,7.51,13.99,10.01v.59c-1.77.88-2.5,2.65-2.5,7.07v53c2.8,2.36,5.01,4.42,6.92,5.59,0,0,4.86-4.27,5.74-5.01v-57.27c-1.77-1.47-3.09-2.21-5.01-3.68v-.15c2.8-2.5,7.8-7.07,10.89-10.16,2.94,2.5,8.24,6.77,11.78,9.27v.59c-1.77,1.03-2.5,2.65-2.5,7.51v54.92c2.8,2.21,5.45,3.24,7.36,3.39l.29.29Z" fill="#6f263d"/>
        <path d="M451.32,126.68l-2.45-1.91c-3.83-2.99-7.51-5.73-11.2-8.32l-11.7,9.92-2.13-1.49c-5.01-3.49-11.43-7.91-16.61-11.08l-1.62-.99v-4.21l1.39-1.01c.49-.36,1.11-.81,1.11-3.15v-52.85c-1.82-1.15-3.41-1.76-3.92-1.79l-1.56.13-1.33-1.41-2.45-2.45,2.51-2.39c.74-.7,1.6-1.51,2.54-2.39,2.78-2.6,6.24-5.84,8.83-8.54l2.09-2.18,2.4,1.84c4.47,3.42,10.13,7.48,13.78,9.86l.9.59.15-.13c3.2-2.86,7.93-7.2,10.76-10.03l2.2-2.2,2.38,2.02c3.14,2.67,8.26,6.76,11.54,9.09l1.43,1.01v4.28l-1.68.98c-.27.16-.83.48-.83,4.59v53.19c1.78,1.17,3.31,1.67,4.24,1.74l1.25.1,3.66,3.65-2.56,2.39c-4.48,4.17-7.57,7.14-11.01,10.86l-2.11,2.28ZM413.74,109.9c3.89,2.49,8.12,5.37,11.84,7.95l5.13-4.35c-1.32-.94-2.69-2.12-4.23-3.45-.63-.54-1.29-1.11-1.99-1.7l-1.2-1.01v-54.57c0-2.42.18-4.83,1.12-6.79-2.74-1.88-5.95-4.19-8.9-6.4-1.79,1.77-3.73,3.61-5.51,5.28,1.71.92,3.08,1.91,3.54,2.25l1.35,1.01v56.31c0,2.16-.37,3.96-1.14,5.46ZM440.26,110c3.43,2.38,6.83,4.87,10.34,7.55,1.7-1.76,3.38-3.43,5.27-5.23-1.17-.62-2.33-1.39-3.48-2.29l-1.29-1.02v-56.55c0-2.98.25-5.42,1.22-7.33-2.25-1.7-4.77-3.71-6.94-5.49-1.94,1.86-4.08,3.83-5.78,5.39.59.42,1.21.89,1.88,1.45l1.22,1.01v60.44l-1.22,1.01c-.2.17-.65.56-1.22,1.05ZM430.04,104.2c.29.25.57.49.84.72.9.77,1.73,1.49,2.5,2.11.85-.74,1.8-1.58,2.56-2.24v-54.07c-.43-.32-.86-.61-1.32-.94-.69-.48-1.47-1.03-2.37-1.71l-.12-.09-1.46.73c-.31.15-.63,1.3-.63,4.04v51.44Z" fill="#006194"/>
      </g>
      <g>
        <path d="M517.3,46.73c-1.62,1.18-2.5,2.65-2.5,6.62v54.77c-5.15,3.98-10.6,8.98-15.16,13.84-3.24-2.21-8.1-5.01-12.66-5.74v25.03c0,5.74.88,7.95,3.53,9.57l-.29.59c-6.77-.88-10.6-5.74-12.81-11.19h-.29c-1.18,3.09-4.71,5.45-6.92,6.04l-.44-.29c1.18-1.62,2.06-3.09,2.06-8.24V49.82c-4.27-2.8-5.74-3.39-7.21-3.24l-.44-.44,11.19-11.04c3.39,2.8,9.72,7.8,12.96,10.31,5.01-3.97,8.69-7.21,12.22-10.31,3.83,2.94,12.51,8.54,16.78,11.04v.59ZM499.63,107.97v-56.68c-2.5-1.91-5.3-3.83-7.36-5.15l-5.3,4.42v53.74c4.86,0,9.86,1.91,12.66,3.83v-.15Z" fill="#6f263d"/>
        <path d="M492.16,155.07l-2.38-.31c-3.96-.52-9.1-2.48-13.02-8.46-1.8,1.6-3.9,2.75-5.7,3.23l-1.48.39-4.64-3.1,2.07-2.85c.79-1.09,1.41-1.95,1.41-6.26V51.66c-1.33-.83-2.96-1.79-3.5-1.72l-1.59.16-3.98-3.98,15.79-15.58,2.35,1.94c2.74,2.26,7.44,5.99,10.77,8.6,3.73-3.03,6.7-5.63,9.58-8.15l2.53-2.21,2.2,1.69c3.71,2.86,12.39,8.44,16.43,10.81l1.67.98v4.25l-1.39,1.01c-.57.42-1.11.81-1.11,3.89v56.43l-1.32,1.02c-4.86,3.75-10.24,8.66-14.77,13.48l-1.98,2.11-2.39-1.63c-2.58-1.76-5.1-3.14-7.38-4.05v20.54c0,5.51.89,6.06,1.92,6.69l2.65,1.62-2.76,5.52ZM475.19,136.83h4.49l.86,2.11c.88,2.18,1.93,3.96,3.16,5.36-.07-.96-.1-1.97-.1-3.06v-29l3.92.63c4.12.67,8.3,2.71,11.61,4.73,1.12-1.14,2.27-2.28,3.44-3.39l-4.84-3.31c-2.28-1.56-6.62-3.24-10.75-3.24h-3.38v-58.7l1.83-1.52c-2.58-2.01-6.65-5.22-9.86-7.81l-5.31,5.24c1,.56,2.11,1.26,3.42,2.12l1.53,1v88.84ZM495.28,44.07c1.55,1.03,3.97,2.67,6.4,4.54l1.33,1.01v64.17c2.77-2.61,5.62-5.1,8.4-7.31v-53.12c0-2.57.35-4.55,1.13-6.14-3.64-2.25-8.42-5.36-11.84-7.78-1.69,1.48-3.46,3-5.42,4.64ZM490.35,101.15c2.11.3,4.12.85,5.9,1.51v-49.68c-1.18-.87-2.47-1.78-3.75-2.64l-2.15,1.8v49.02Z" fill="#006194"/>
      </g>
      <g>
        <path d="M574.96,47.76c-1.33,1.03-2.5,2.36-2.5,6.63v51.24c-6.77,3.83-17.37,10.45-25.32,16.34-6.48-4.42-13.99-9.13-20.17-12.66v-.59c1.77-.74,2.5-2.65,2.5-5.74v-51.68c7.51-4.27,17.67-10.75,25.32-16.34,6.18,3.98,13.84,8.83,20.17,12.22v.59ZM557.29,111.36v-58.3c-3.39-2.36-8.39-5.45-12.22-7.66l-.44.15v58.3c3.24,2.36,8.98,5.89,12.37,7.8l.29-.29Z" fill="#6f263d"/>
        <path d="M547.22,126.1l-1.99-1.35c-6.37-4.34-13.82-9.02-19.94-12.52l-1.7-.97v-4.8l2.08-.87h0s.42-.52.42-2.62v-53.64l1.71-.97c7.88-4.48,17.93-10.96,25-16.13l1.87-1.37,1.95,1.25c6.82,4.38,13.96,8.88,19.94,12.08l1.79.96v4.27l-1.3,1.02c-.59.46-1.2.93-1.2,3.96v53.21l-1.72.97c-6.54,3.69-17.14,10.31-24.97,16.12l-1.93,1.43ZM531.89,108.25c4.87,2.89,10.26,6.28,15.17,9.58,2.02-1.45,4.15-2.92,6.31-4.37-3.55-2.09-8.02-4.91-10.73-6.88l-1.39-1.01v-57.43c-2.88,1.81-5.74,3.55-8.4,5.1v49.72c0,2.1-.32,3.87-.96,5.29ZM548.46,43.47c3.26,1.92,7.51,4.55,10.76,6.81l1.45,1.01v57.44c3.01-1.89,5.89-3.62,8.4-5.08v-49.28c0-2.68.43-4.58,1.09-6-4.82-2.74-10.1-6.04-15.26-9.35-2,1.43-4.18,2.92-6.44,4.43ZM548.01,102.09c1.7,1.17,3.83,2.53,5.9,3.8v-51.05c-1.81-1.21-3.89-2.53-5.9-3.76v51.01Z" fill="#006194"/>
      </g>
      <g>
        <path d="M639.25,111.06c-2.94,2.8-7.8,7.66-11.34,11.04-3.68-2.8-11.04-7.95-14.13-10.01v-.59c1.47-.88,2.5-2.65,2.5-7.07v-53c-2.65-2.06-5.15-3.53-7.51-5.15,0,0-4.27,3.39-5.15,4.12v57.71c1.77,1.47,3.09,2.21,5.01,3.68v.15c-3.53,3.09-7.66,6.92-10.75,10.01-4.42-3.39-9.13-7.07-11.93-9.13v-.59c1.33-1.03,2.5-2.65,2.5-7.51v-54.92c-2.8-2.21-5.45-3.24-7.36-3.39l-.29-.29c4.27-3.98,7.51-7.07,11.19-11.04,4.71,3.68,10.01,7.51,13.4,9.86h.15l11.63-9.86c4.86,3.39,11.48,7.95,16.78,11.19v.59c-1.62,1.18-2.5,2.8-2.5,5.89v54.62c2.36,1.77,5.74,3.53,7.51,3.39l.29.29Z" fill="#6f263d"/>
        <path d="M628.16,126.55l-2.3-1.75c-3.62-2.75-10.85-7.82-13.96-9.89l-.87-.58-.18.16c-3.58,3.14-7.64,6.91-10.58,9.86l-2.1,2.1-2.35-1.8c-1.42-1.09-2.87-2.21-4.27-3.29-2.95-2.27-5.73-4.42-7.6-5.8l-1.38-1.01v-3.95l1.31-1.02c.39-.3,1.2-.93,1.2-4.84v-53.19c-1.78-1.17-3.31-1.67-4.24-1.74l-1.25-.1-3.66-3.66,2.56-2.39c4.48-4.17,7.56-7.14,11.01-10.86l2.11-2.28,2.45,1.91c3.78,2.95,7.97,6.02,11.2,8.32l11.69-9.91,2.14,1.49c5.02,3.5,11.44,7.91,16.61,11.08l1.62.99v4.21l-1.39,1.01c-.5.36-1.11.81-1.11,3.16v52.85c1.82,1.15,3.42,1.76,3.93,1.79l1.56-.13,1.33,1.4,2.46,2.45-2.52,2.39c-1.5,1.43-3.5,3.38-5.61,5.46-1.97,1.94-4,3.93-5.72,5.57l-2.09,2ZM618.43,111.17c2.77,1.91,6.37,4.45,9.19,6.51,1.17-1.14,2.4-2.35,3.61-3.53.61-.6,1.22-1.19,1.8-1.77-1.75-.93-3.15-1.94-3.62-2.29l-1.35-1.01v-56.31c0-2.16.37-3.96,1.14-5.46-3.89-2.49-8.12-5.37-11.84-7.95l-5.68,4.82c.44.29.88.58,1.33.87,1.7,1.11,3.46,2.26,5.34,3.73l1.3,1.02v54.66c0,2.02-.17,4.57-1.23,6.73ZM590.46,111.99c1.56,1.18,3.35,2.57,5.21,4,.64.49,1.28.99,1.93,1.49,1.77-1.71,3.75-3.56,5.71-5.33-.58-.42-1.19-.88-1.86-1.44l-1.22-1.01v-60.88l1.22-1.01c.2-.16.55-.45.97-.79-2.78-1.96-6.48-4.64-10.08-7.38-1.7,1.76-3.39,3.43-5.27,5.23,1.16.62,2.33,1.39,3.48,2.29l1.29,1.02v56.55c0,3.09-.43,5.44-1.37,7.26ZM607,106.47c.43.32.86.61,1.32.94.69.48,1.48,1.03,2.37,1.71l.22.17,1.14-.68c.53-.32.86-1.92.86-4.17v-51.31c-1.22-.88-2.42-1.66-3.59-2.43-.12-.08-.25-.16-.37-.24-.68.54-1.37,1.09-1.95,1.55v54.46Z" fill="#006194"/>
      </g>
      <g>
        <path d="M680.42,75.88c-10.31,2.94-25.76,9.42-32.39,13.25.15-4.12.29-10.31.29-13.84,7.36-4.42,22.97-10.31,32.39-12.96-.15,3.68-.29,10.6-.29,13.54Z" fill="#6f263d"/>
        <path d="M644.43,95.11l.22-6.1c.14-3.98.29-10.14.29-13.72v-1.91l1.64-.98c7.45-4.47,23.19-10.49,33.21-13.31l4.48-1.26-.19,4.65c-.14,3.53-.29,10.43-.29,13.41v2.55l-2.45.7c-10.31,2.95-25.47,9.37-31.63,12.93l-5.29,3.05ZM651.69,77.26c-.02,1.87-.06,4.06-.11,6.21,7.03-3.39,17.2-7.54,25.48-10.12.03-1.9.07-4.24.13-6.42-8.45,2.71-19.22,6.93-25.5,10.33Z" fill="#006194"/>
      </g>
      <g>
        <path d="M784.16,157.44l-3.83-.88v-.29c3.83-2.5,7.36-5.74,7.36-11.48,0-5.3-3.24-7.95-8.98-7.95-16.34,0-32.83,19.73-58.16,19.73-13.4,0-22.53-7.36-22.53-18.7,0-10.75,5.74-17.67,19.73-19.58v-41.52h-1.91c-7.07,0-11.78,1.77-14.13,6.63l-1.33-.59c.44-15.31,8.39-21.64,16.93-21.64h.44v-25.03c-10.6-7.51-14.72-10.16-17.23-10.16-2.21,0-3.68,1.18-6.92,3.98l-1.77-2.06c7.21-5.89,12.66-10.31,19.43-16.05,5.89,4.42,13.99,10.31,23.7,17.23v87.01c2.21-.15,4.42-.44,6.33-.59V21.7c0-3.68-.74-7.51-1.33-9.42v-.29l3.09.44c.44,1.77.88,5.45.88,8.24v7.95c3.24-2.65,14.28-11.63,20.32-16.64,14.72,5.45,24,14.43,24,34.6v30.48c0,23.41-6.33,37.69-31.21,40.05-16.78,1.62-21.2,2.36-38.28,4.27-11.48,1.32-15.61,7.21-15.61,12.22,0,4.71,3.09,7.21,13.25,7.21,17.67,0,33.86-18.55,53.15-18.55,15.9,0,23.85,7.51,23.85,20.02,0,7.07-5.15,12.66-9.28,15.16ZM771.2,49.96v-1.47c0-12.37-3.09-19.58-17.37-24.44l-9.86,7.95v30.33l27.24-12.37ZM771.2,63.66v-10.89l-27.24,12.22v11.04l27.24-12.37ZM771.2,66.6l-27.24,12.22v36.36c21.05-2.65,27.24-10.31,27.24-31.65v-16.93Z" fill="#6f263d"/>
        <path d="M784.74,161.04l-7.79-1.8v-4.81l1.53-1c3.5-2.29,5.83-4.64,5.83-8.65,0-2.21-.43-4.57-5.6-4.57-6.43,0-13.23,3.64-21.1,7.86-10.39,5.57-22.16,11.87-37.06,11.87s-25.91-8.87-25.91-22.08c0-12.28,6.63-19.82,19.73-22.44v-35.25c-6.58.28-8.57,2.51-9.62,4.69l-1.43,2.94-6.38-2.84.07-2.27c.23-7.99,2.34-14.28,6.28-18.71,2.91-3.28,6.78-5.35,11.09-6v-20.12c-5.49-3.88-12.19-8.53-13.84-8.53-.88,0-1.67.53-4.71,3.15l-2.57,2.22-6.23-7.27,5.04-4.12c6.16-5.03,11.03-9,17.02-14.08l2.06-1.74,2.16,1.62c5.94,4.46,14.12,10.4,23.64,17.18l.99.7v-5.31c0-3.38-.7-6.89-1.18-8.43l-.15-.49v-4.7l9.2,1.31.55,2.21c.55,2.21.98,6.19.98,9.06v.83c4.69-3.83,10.8-8.82,14.78-12.12l1.5-1.25,1.83.68c18.12,6.71,26.21,18.35,26.21,37.77v30.48c0,13.57-2.18,23.05-6.87,29.84-4.19,6.06-10.43,10.08-18.97,12.18,1.24-.13,2.49-.21,3.77-.21,17.31,0,27.23,8.53,27.23,23.4,0,8.44-5.87,15-10.9,18.05l-1.17.71ZM701.48,139.34c.76,8.46,8.08,13.84,19.08,13.84,13.19,0,24.17-5.88,33.86-11.07,8.31-4.45,16.16-8.66,24.29-8.66,5.41,0,9.29,2.07,11.14,5.73-1.22-8.99-8.02-13.55-20.27-13.55-9.01,0-17.73,4.67-26.16,9.18-8.61,4.61-17.5,9.37-26.99,9.37-3.5,0-11.48,0-14.96-4.84ZM760,120.17c-.85.11-1.72.21-2.61.3-10.73,1.04-16.4,1.71-23.58,2.56-4.02.48-8.52,1.01-14.64,1.7-9.29,1.07-12.6,5.28-12.6,8.86,0,1.53,0,3.83,9.87,3.83,7.79,0,15.57-4.16,23.8-8.57,6.34-3.39,12.83-6.87,19.77-8.69ZM715.85,73.38h5.29v44.32c4.11-.47,7.45-.86,10.46-1.22V30.8c-7.87-5.62-14.78-10.63-20.19-14.65-2.87,2.42-5.53,4.62-8.27,6.87,3.08.99,7.43,3.86,16.58,10.35l1.43,1.01v30.16h-3.82c-6.23,0-10.66,4.01-12.55,11.04,3.59-1.88,7.74-2.19,11.08-2.19ZM774.58,65.83v17.7c0,14.93-3.12,23.92-11.28,29.21,15.62-3.42,21.6-13.73,21.6-35.69v-30.48c0-15.94-5.82-24.97-19.99-30.73-2.17,1.79-4.74,3.9-7.3,6,13.69,5.49,16.82,14,16.97,25.7h0s0,18.29,0,18.29ZM747.35,81.01v30.26c15.96-2.76,20.48-9.31,20.48-27.74v-11.71l-20.48,9.19ZM747.35,67.17v3.61l20.48-9.3v-3.49l-20.48,9.19ZM747.35,33.62v23.47l20.47-9.3c-.09-9.97-2.31-15.7-13.35-19.91l-7.13,5.74Z" fill="#006194"/>
      </g>
      <g>
        <path d="M848,47.76c-1.33,1.03-2.5,2.36-2.5,6.63v51.24c-6.77,3.83-17.37,10.45-25.32,16.34-6.48-4.42-13.99-9.13-20.17-12.66v-.59c1.77-.74,2.5-2.65,2.5-5.74v-51.68c7.51-4.27,17.67-10.75,25.32-16.34,6.18,3.98,13.84,8.83,20.17,12.22v.59ZM830.34,111.36v-58.3c-3.39-2.36-8.39-5.45-12.22-7.66l-.44.15v58.3c3.24,2.36,8.98,5.89,12.37,7.8l.29-.29Z" fill="#6f263d"/>
        <path d="M820.26,126.11l-1.99-1.35c-6.37-4.34-13.83-9.02-19.94-12.52l-1.7-.97v-4.8l2.08-.87h0s.42-.52.42-2.62v-53.64l1.71-.97c7.88-4.48,17.93-10.97,25-16.13l1.87-1.37,1.95,1.25c6.83,4.39,13.97,8.89,19.94,12.08l1.79.96v4.27l-1.3,1.02c-.59.46-1.2.93-1.2,3.96v53.21l-1.72.97c-6.54,3.7-17.14,10.32-24.97,16.11l-1.93,1.43ZM804.93,108.25c4.87,2.89,10.26,6.28,15.17,9.58,2.02-1.45,4.15-2.92,6.31-4.37-3.55-2.09-8.02-4.91-10.73-6.88l-1.39-1.01v-57.43c-2.88,1.81-5.73,3.55-8.4,5.1v49.72c0,2.1-.32,3.87-.96,5.29ZM821.51,43.47c3.26,1.92,7.51,4.55,10.76,6.81l1.45,1.01v57.44c3-1.89,5.89-3.62,8.4-5.08v-49.28c0-2.68.43-4.58,1.09-6-4.81-2.73-10.09-6.04-15.26-9.34-2,1.43-4.18,2.92-6.44,4.43ZM821.06,102.09c1.71,1.17,3.84,2.53,5.9,3.8v-51.05c-1.81-1.21-3.89-2.53-5.9-3.76v51.01Z" fill="#006194"/>
      </g>
      <g>
        <path d="M891.24,63.07h-.59c-3.68-3.98-9.13-11.93-10.89-16.2l-3.09,3.24v53.59c7.07,4.42,8.39,5.01,10.6,5.01,1.03,0,1.91-.88,2.8-1.91l1.33-1.47,2.5,2.21c-8.69,8.69-14.28,14.43-14.28,14.43-6.18-4.12-12.96-7.8-20.61-11.48v-.59c1.62-1.47,2.5-2.8,2.5-7.36v-52.71c-3.09-2.36-5.15-3.24-7.36-3.39l-.29-.44c3.39-3.09,7.8-7.07,11.19-10.89,4.12,3.39,8.54,7.36,12.22,10.31,5.15-4.42,6.77-6.18,11.04-10.31,2.8,4.42,7.8,11.48,12.37,16.34-2.94,2.94-6.63,7.8-9.42,11.63Z" fill="#6f263d"/>
        <path d="M880.07,126.33l-2.34-1.56c-5.65-3.76-12.06-7.34-20.2-11.25l-1.92-.92v-4.21l1.11-1.01c.87-.79,1.4-1.27,1.4-4.86v-50.98c-1.95-1.32-3.12-1.67-4.21-1.74l-1.66-.11-2.83-4.24,2.85-2.6c3.21-2.92,7.2-6.56,10.23-9.99l2.16-2.44,2.52,2.07c1.92,1.57,3.89,3.27,5.81,4.91,1.46,1.25,2.87,2.46,4.2,3.58,2.54-2.25,4.13-3.8,6.17-5.8.77-.76,1.61-1.57,2.58-2.51l2.98-2.88,2.22,3.5c2.99,4.72,7.85,11.45,11.98,15.84l2.24,2.39-2.32,2.32c-2.18,2.18-5.15,5.86-9.08,11.24l-1.01,1.39h-3.78l-1-1.08c-2.4-2.59-5.6-6.86-8.13-10.89v47.35c4.54,2.8,5.8,3.38,6.79,3.48.13-.13.34-.34.66-.71l3.62-4.02,7.71,6.8-2.54,2.54c-8.57,8.57-14.19,14.34-14.25,14.4l-1.96,2.01ZM863.8,109.06c5.85,2.91,10.83,5.69,15.33,8.55,1.32-1.34,3.27-3.32,5.71-5.79-2.23-.53-4.7-1.97-9.97-5.26l-1.59-.99v-56.82l1.19-1.25c-1.85-1.5-3.82-3.2-5.9-4.98-1.07-.92-2.17-1.86-3.25-2.78-1.69,1.75-3.49,3.47-5.22,5.09,1.08.59,2.21,1.35,3.44,2.3l1.33,1.01v54.38c0,2.83-.3,4.86-1.07,6.54ZM882.69,45.13l.19.45c1.21,2.93,4.73,8.38,7.91,12.42,2.03-2.69,3.77-4.86,5.3-6.6-3-3.49-6-7.55-8.36-11.03-1.67,1.63-3.09,3.01-5.03,4.76Z" fill="#006194"/>
      </g>
      <g>
        <path d="M959.94,111.06c-2.94,2.8-7.8,7.66-11.34,11.04,0,0-7.8-5.74-11.63-8.24v-24.59c0-7.07-3.24-10.16-7.8-12.07l-4.86,3.24v27.68c1.77,1.47,3.09,2.21,5.01,3.68v.15c-2.65,2.36-7.36,6.48-10.89,10.01-2.94-2.5-8.24-6.18-11.78-8.69v-.59c1.47-1.03,2.5-2.65,2.5-7.51V17.13c0-3.53-.29-5.89-1.47-7.51l.59-.29c2.21.74,5.15,3.09,6.18,6.04h.29c2.06-5.15,5.89-9.42,11.48-11.19l.44.29c-1.33,2.06-2.36,4.71-2.36,9.86v32.83l16.64-12.07c3.24,5.15,8.54,15.31,11.48,21.2.74-.44,1.62-1.33,2.21-2.21h.15c.29.88,1.33,2.94,1.33,3.53-4.71,3.39-10.01,7.21-15.46,10.89,4.71,2.21,11.48,6.33,11.48,13.84v25.03c2.36,1.77,5.74,3.53,7.51,3.39l.29.29ZM930.2,47.17l-5.89,3.83v25.62c5.01-3.39,10.6-7.51,15.46-11.04-2.8-6.04-6.77-13.99-9.57-18.4Z" fill="#6f263d"/>
        <path d="M918.61,126.55l-2.38-2.02c-2.46-2.09-6.71-5.09-10.13-7.51l-2.84-2.01v-4.1l1.44-1.01c.32-.22,1.06-.74,1.06-4.74V17.13c0-2.04-.09-4.51-.83-5.52l-2.35-3.23,5.41-2.71,1.33.44c1.55.52,3.34,1.57,4.91,3.04,2.73-3.95,6.5-6.8,10.97-8.21l1.54-.49,4.56,3.03-1.8,2.8c-.94,1.47-1.82,3.46-1.82,8.04v26.2l14.2-10.3,1.92,3.06c2.73,4.35,6.7,11.8,9.58,17.41h3.84l.77,2.31c.06.19.27.67.43,1.05.68,1.59,1.07,2.53,1.07,3.55v1.73l-2.41,1.73c-3.11,2.24-6.52,4.69-10.04,7.14,5.63,3.8,8.48,8.54,8.48,14.13v23.26c1.82,1.15,3.42,1.76,3.93,1.79l1.56-.13,1.33,1.4,2.46,2.45-2.52,2.39c-1.5,1.43-3.5,3.38-5.61,5.46-1.97,1.94-4,3.93-5.72,5.57l-2.05,1.97-2.29-1.69c-.08-.06-7.77-5.72-11.48-8.14l-1.53-1v-26.42c0-4.59-1.55-6.74-4.15-8.19l-1.75,1.17v24.22c.43.32.86.61,1.32.94.69.48,1.48,1.03,2.37,1.71l1.32,1.01v3.33l-2.16,1.92c-2.66,2.36-6.68,5.92-9.72,8.96l-2.2,2.2ZM940.35,112.06c2.53,1.72,5.79,4.07,7.95,5.64,1.17-1.14,2.41-2.36,3.62-3.55.61-.6,1.22-1.19,1.8-1.77-1.75-.93-3.15-1.94-3.62-2.29l-1.35-1.01v-26.72c0-4.24-3.12-7.77-9.54-10.78l-1.19-.56c-1.8,1.31-3.68,2.68-5.56,4.02,5.36,2.91,7.88,7.49,7.88,14.24v22.78ZM911.25,112.39c2.31,1.63,4.83,3.43,6.95,5.06,1.93-1.84,4-3.7,5.79-5.31-.58-.42-1.19-.88-1.85-1.43l-1.22-1.01V14.34c0-1.03.04-2,.11-2.92-1.51,1.69-2.51,3.57-3.16,5.21l-.85,2.13h-4.5v86.43c0,3.12-.39,5.44-1.28,7.21ZM927.69,52.83v17.31c2.65-1.89,5.34-3.84,7.83-5.66-1.94-4.08-4.34-8.86-6.43-12.56l-1.4.91ZM932.9,45.11l.16.25c2.8,4.42,6.58,11.95,9.35,17.86,2.46-1.71,4.87-3.42,7.18-5.07l-.17-.34c-2.77-5.53-6.57-12.79-9.46-17.81l-7.04,5.11Z" fill="#006194"/>
      </g>
      <g>
        <path d="M51.59,226.79c-6.77,6.28-8.54,7.85-16.19,14.04-7.66-3.93-12.86-6.28-18.35-6.28-5.89,0-11.38,2.06-11.38,12.76h-.2l-3.04-2.55c1.77-11.39,9.23-20.91,18.35-20.91,6.58,0,14.82,2.26,23.75,6.48,3.73-4.12,6.77-7.66,6.77-13.25,0-6.87-3.14-11.19-13.25-11.19-1.86,0-3.63,0-5.2.1-3.43,6.67-8.64,10.01-10.31,10.5l-3.34-2.75.1-.2c3.14.2,8.34-3.73,10.5-7.36-12.17,0-21.1-4.42-21.1-17.27,0-9.91,9.03-16.98,21.49-23.06,8.15,1.77,15.8,4.51,21.49,7.07,1.37-1.87,3.63-4.51,5.5-6.18h.2l1.37,2.45c-4.42,3.24-12.27,14.33-18.26,24.54,13.45.88,20.22,5.69,20.22,14.92,0,6.97-2.36,11.88-9.13,18.16ZM22.15,173c-3.63,1.96-5.59,4.91-5.59,8.83,0,8.54,4.12,11.88,16.88,11.88,1.37,0,2.75,0,4.32-.1,1.47-2.45,5.4-8.64,6.97-10.99-7.95-5.59-16.59-8.64-22.57-9.62Z" fill="#6f263d"/>
        <path d="M7.92,249.55h-3.27l-4.65-3.9.2-1.26c2.05-13.22,10.71-22.81,20.58-22.81,6.52,0,14.51,2.07,23.18,5.99,3.19-3.62,5.09-6.39,5.09-10.5,0-5.36-1.87-8.93-11-8.93-1.35,0-2.64,0-3.83.04-3.74,6.53-8.98,9.86-11.04,10.47l-1.15.34-5.64-4.65,1.57-3.14,1.49.09c1.27.06,3.68-1.23,5.73-3.09-15.34-1.58-18.73-11.16-18.73-19.3,0-12.39,12.16-19.92,22.76-25.09l.7-.34.76.17c8.65,1.88,15.97,4.65,20.31,6.5,1.38-1.72,3.14-3.69,4.7-5.09l.64-.57h2.38l2.99,5.35-1.61,1.18c-3.37,2.47-9.79,10.97-15.82,20.82,12.42,1.64,18.71,7.28,18.71,16.82,0,7.68-2.76,13.24-9.85,19.81-6.82,6.32-8.64,7.94-16.31,14.14l-1.14.92-1.3-.67c-6.89-3.53-12.16-6.03-17.33-6.03-5.48,0-9.13,1.79-9.13,10.51v2.25ZM17.05,232.29c5.81,0,11.24,2.4,18.08,5.86,3.27-2.65,5.4-4.42,7.49-6.24-8.29-3.81-15.83-5.82-21.83-5.82-4.83,0-9.43,3.38-12.54,8.68,2.2-1.66,5.13-2.49,8.81-2.49ZM38.05,203.63c10.43,0,15.5,4.4,15.5,13.44,0,2.08-.37,3.92-.99,5.58,4.31-4.61,5.9-8.55,5.9-14.03,0-4.93-1.88-11.6-18.11-12.67l-1.96-.13-.5.03c-1.64.1-3.07.1-4.46.1-11.49,0-19.13-2.4-19.13-14.13,0-.79.07-1.55.2-2.29-2.4,2.98-3.54,6.05-3.54,9.36,0,3.71,0,15.02,18.85,15.02h1.57l.06-.11,1.28-.08c1.64-.1,3.44-.1,5.34-.1ZM22.57,175.37c-2.53,1.57-3.76,3.7-3.76,6.47,0,6.52,2.19,9.62,14.63,9.62,1.01,0,1.98,0,3.01-.04,1.38-2.24,3.6-5.75,5.17-8.18-8.29-5.38-15.92-7.28-19.06-7.88ZM24.87,171.23c7.01,1.56,14.75,5.04,21.15,9.54l.03.02c1.47-2.13,2.95-4.16,4.38-5.99-3.81-1.69-11.11-4.61-19.94-6.6-2.04,1.01-3.91,2.02-5.62,3.03Z" fill="#006194"/>
      </g>
      <g>
        <path d="M140.52,189.59c-1.08.78-1.67,1.77-1.67,4.42v36.51c-3.44,2.65-7.07,5.99-10.11,9.23-2.16-1.47-5.4-3.34-8.44-3.83v16.68c0,3.83.59,5.3,2.36,6.38l-.2.39c-4.51-.59-7.07-3.83-8.54-7.46h-.2c-.79,2.06-3.14,3.63-4.61,4.02l-.29-.2c.79-1.08,1.37-2.06,1.37-5.5v-58.59c-2.85-1.87-3.83-2.26-4.81-2.16l-.29-.29,7.46-7.36c2.26,1.86,6.48,5.2,8.64,6.87,3.34-2.65,5.79-4.81,8.15-6.87,2.55,1.96,8.34,5.69,11.19,7.36v.39ZM128.74,230.42v-37.79c-1.67-1.28-3.53-2.55-4.91-3.43l-3.53,2.94v35.82c3.24,0,6.58,1.28,8.44,2.55v-.1Z" fill="#6f263d"/>
        <path d="M123.76,261.81l-1.59-.21c-2.64-.34-6.07-1.65-8.68-5.64-1.2,1.07-2.6,1.83-3.8,2.15l-.98.26-3.1-2.06,1.38-1.9c.53-.72.94-1.29.94-4.17v-57.36c-.89-.55-2.02-1.19-2.33-1.15l-1.06.11-2.65-2.65,10.52-10.38,1.57,1.3c1.85,1.53,4.97,4.01,7.18,5.73,2.48-2.01,4.45-3.74,6.37-5.42l1.7-1.49,1.47,1.13c2.47,1.9,8.26,5.62,10.95,7.2l1.11.65v2.83l-.93.68c-.38.28-.74.54-.74,2.59v37.62l-.88.68c-3.24,2.5-6.83,5.77-9.84,8.98l-1.32,1.41-1.59-1.09c-1.72-1.17-3.4-2.09-4.92-2.7v13.7c0,3.68.59,4.04,1.28,4.46l1.76,1.08-1.83,3.68ZM112.45,249.66h2.99l.57,1.41c.59,1.45,1.29,2.64,2.11,3.57-.05-.64-.07-1.32-.07-2.04v-19.33l2.61.42c2.75.44,5.53,1.81,7.74,3.15.75-.76,1.51-1.52,2.29-2.26l-3.22-2.21c-1.52-1.04-4.41-2.16-7.17-2.16h-2.25v-39.13l1.22-1.02c-1.73-1.35-4.45-3.49-6.57-5.21l-3.54,3.49c.67.37,1.41.84,2.28,1.41l1.02.67v59.23ZM125.84,187.82c1.03.68,2.64,1.78,4.27,3.03l.88.68v42.78c1.84-1.74,3.74-3.4,5.6-4.88v-35.41c0-1.71.23-3.03.75-4.1-2.42-1.5-5.62-3.57-7.89-5.19-1.13.99-2.3,2-3.61,3.09ZM122.56,225.87c1.41.2,2.74.56,3.93,1.01v-33.12c-.79-.58-1.65-1.18-2.5-1.76l-1.44,1.2v32.68Z" fill="#006194"/>
      </g>
      <g>
        <path d="M219.63,190.28c-.88.69-1.67,1.57-1.67,4.42v34.15c-4.51,2.55-11.58,6.97-16.88,10.89-4.32-2.94-9.32-6.09-13.45-8.44v-.39c1.18-.49,1.67-1.77,1.67-3.83v-34.45c5.01-2.85,11.78-7.16,16.88-10.89,4.12,2.65,9.23,5.89,13.45,8.15v.39ZM207.85,232.68v-38.87c-2.26-1.57-5.59-3.63-8.15-5.1l-.29.1v38.87c2.16,1.57,5.99,3.93,8.24,5.2l.2-.2Z" fill="#6f263d"/>
        <path d="M201.13,242.51l-1.32-.9c-4.24-2.89-9.21-6.01-13.29-8.35l-1.14-.65v-3.2l1.39-.58h0s.28-.34.28-1.75v-35.76l1.14-.65c5.25-2.99,11.95-7.31,16.67-10.75l1.25-.91,1.3.84c4.55,2.92,9.31,5.92,13.29,8.06l1.19.64v2.84l-.87.68c-.39.31-.8.62-.8,2.64v35.47l-1.14.65c-4.36,2.46-11.43,6.88-16.65,10.74l-1.29.95ZM190.92,230.61c3.25,1.93,6.84,4.19,10.11,6.38,1.34-.97,2.77-1.95,4.21-2.91-2.37-1.39-5.35-3.27-7.15-4.59l-.93-.68v-38.28c-1.92,1.21-3.82,2.37-5.6,3.4v33.15c0,1.4-.21,2.58-.64,3.52ZM201.97,187.42c2.17,1.28,5.01,3.04,7.17,4.54l.97.67v38.29c2-1.26,3.92-2.41,5.6-3.39v-32.85c0-1.79.28-3.05.73-4-3.21-1.82-6.73-4.03-10.18-6.23-1.33.95-2.79,1.95-4.29,2.95ZM201.67,226.5c1.14.78,2.56,1.69,3.93,2.53v-34.03c-1.21-.81-2.59-1.69-3.93-2.5v34Z" fill="#006194"/>
      </g>
      <g>
        <path d="M289.12,200.48h-.39c-2.45-2.65-6.09-7.95-7.26-10.8l-2.06,2.16v35.73c4.71,2.94,5.59,3.34,7.07,3.34.69,0,1.28-.59,1.86-1.28l.88-.98,1.67,1.47c-5.79,5.79-9.52,9.62-9.52,9.62-4.12-2.75-8.64-5.2-13.74-7.66v-.39c1.08-.98,1.67-1.86,1.67-4.91v-35.14c-2.06-1.57-3.43-2.16-4.91-2.26l-.2-.29c2.26-2.06,5.2-4.71,7.46-7.26,2.75,2.26,5.69,4.91,8.15,6.87,3.43-2.94,4.51-4.12,7.36-6.87,1.86,2.94,5.2,7.66,8.24,10.89-1.96,1.96-4.42,5.2-6.28,7.75Z" fill="#6f263d"/>
        <path d="M281.68,242.66l-1.56-1.04c-3.76-2.51-8.04-4.89-13.47-7.5l-1.28-.61v-2.81l.74-.67c.58-.53.93-.85.93-3.24v-33.99c-1.3-.88-2.08-1.11-2.8-1.16l-1.11-.07-1.89-2.83,1.87-1.71c2.15-1.96,4.82-4.39,6.85-6.69l1.44-1.63,1.68,1.38c1.27,1.04,2.58,2.16,3.86,3.27.98.84,1.92,1.65,2.81,2.4,1.69-1.5,2.75-2.53,4.12-3.87.51-.5,1.07-1.05,1.72-1.68l1.99-1.92,1.48,2.34c1.99,3.15,5.23,7.63,7.98,10.56l1.5,1.59-1.54,1.54c-1.46,1.46-3.44,3.91-6.06,7.49l-.68.92h-2.52l-.67-.72c-1.6-1.73-3.73-4.58-5.42-7.26v31.57c3.02,1.87,3.87,2.25,4.53,2.32.09-.08.23-.23.44-.48l2.41-2.68,5.14,4.53-1.7,1.7c-5.71,5.71-9.46,9.56-9.5,9.6l-1.31,1.34ZM270.83,231.15c3.9,1.94,7.22,3.79,10.22,5.7.88-.9,2.18-2.21,3.81-3.86-1.49-.35-3.14-1.31-6.65-3.5l-1.06-.66v-37.88l.8-.83c-1.24-1.01-2.56-2.14-3.94-3.33-.72-.61-1.44-1.23-2.16-1.84-1.13,1.16-2.32,2.31-3.48,3.39.72.4,1.47.9,2.3,1.53l.89.68v36.25c0,1.89-.2,3.24-.72,4.36ZM283.43,188.52l.12.3c.81,1.96,3.16,5.59,5.27,8.28,1.35-1.79,2.51-3.24,3.53-4.4-2-2.33-4-5.03-5.58-7.35-1.11,1.09-2.06,2.01-3.35,3.17Z" fill="#006194"/>
      </g>
      <g>
        <path d="M363.03,230.12l-9.52,9.62c-3.83-2.45-9.52-5.79-13.15-7.56v-.39c1.28-.78,1.67-2.36,1.67-4.71v-33.86h-4.12v-.59c5.3-3.43,10.7-12.66,13.45-19.92h.69v14.82h10.11l-2.55,5.69h-7.56v34.55c4.71,3.04,5.1,2.85,6.67,2.85.78,0,1.67-.49,2.06-.98l.79-.88,1.47,1.37Z" fill="#6f263d"/>
        <path d="M353.83,242.62l-1.54-.98c-3.67-2.36-9.29-5.66-12.92-7.43l-1.27-.62v-3.06l1.07-.66c.39-.24.6-1.2.6-2.79v-31.61h-4.12v-4.07l1.03-.67c4.73-3.07,9.9-11.79,12.56-18.83l.55-1.46h4.5v14.82h11.33l-4.57,10.2h-6.76v31.06c2.92,1.84,3.34,1.83,4.14,1.83h.28c.07-.01.26-.11.34-.18l2.36-2.66,4.86,4.53-12.43,12.56ZM343.59,231.31c3.03,1.61,6.67,3.74,9.59,5.56l4.02-4.06c-1.39-.18-2.82-.85-6.38-3.15l-1.03-.67v-38.03h8.35l.53-1.19h-8.88v-8.35c-1.91,3.49-4.19,6.89-6.6,9.54h1.1v36.11c0,1.35-.11,2.89-.69,4.23Z" fill="#006194"/>
      </g>
      <g>
        <path d="M425.16,232.48l-7.66,7.26c-2.16-1.67-6.58-4.81-9.32-6.58v-.39c1.28-.78,1.67-1.86,1.67-4.61v-36.51l-1.28-.78c-2.06-1.28-2.75-1.28-3.83-1.28l-.1-.39,7.66-7.36c2.16,1.67,6.38,4.71,9.32,6.67v.39c-1.18.69-1.67,1.67-1.67,4.32v36.8c3.04,1.96,4.12,2.16,5.01,2.16l.2.29ZM412.8,176.93l-3.14-3.43c2.75-2.75,9.32-9.82,10.99-12.27.79.98,2.75,5.2,3.63,7.46-2.36,1.96-8.34,6.28-11.48,8.24Z" fill="#6f263d"/>
        <path d="M417.66,242.71l-1.53-1.18c-2.08-1.61-6.44-4.71-9.17-6.46l-1.03-.67v-2.88l1.07-.66c.31-.19.6-.37.6-2.69v-35.25l-.2-.12c-1.52-.94-1.8-.94-2.65-.94h-1.76l-.84-3.37,9.66-9.29-5.27-5.76,1.52-1.52c2.86-2.86,9.2-9.7,10.72-11.94l1.72-2.52,1.91,2.38c1.13,1.41,3.3,6.33,3.97,8.05l.59,1.51-1.25,1.04c-2.49,2.08-8.64,6.49-11.73,8.42l-1.04.65.73.56c2.05,1.59,6.23,4.61,9.2,6.58l1,.67v2.89l-1.12.65c-.26.15-.55.32-.55,2.37v35.55c1.94,1.16,2.49,1.16,2.75,1.16h1.21l1.92,2.88-10.43,9.9ZM411.36,232.56c1.98,1.34,4.25,2.95,5.98,4.23l3.7-3.51c-.66-.35-1.42-.79-2.3-1.37l-1.03-.67v-38.03c0-1.61.16-3,.74-4.15-2.03-1.4-4.26-3.01-5.97-4.28l-3.72,3.58c.31.17.64.36,1,.58l2.34,1.44v37.77c0,1.52-.08,3.07-.75,4.4ZM412.76,173.55l.42.45c2.58-1.72,6.09-4.24,8.38-6.02-.39-.91-.83-1.86-1.24-2.71-2.23,2.62-5.39,6.02-7.55,8.27Z" fill="#006194"/>
      </g>
      <g>
        <path d="M506.14,232.48c-1.96,1.86-5.2,5.1-7.56,7.36-2.45-1.87-7.36-5.3-9.42-6.67v-.39c.98-.59,1.67-1.77,1.67-4.71v-35.33c-1.77-1.37-3.44-2.36-5.01-3.43,0,0-2.85,2.26-3.44,2.75v38.47c1.18.98,2.06,1.47,3.34,2.45v.1c-2.36,2.06-5.1,4.61-7.16,6.67-2.94-2.26-6.09-4.71-7.95-6.09v-.39c.88-.69,1.67-1.77,1.67-5.01v-36.61c-1.86-1.47-3.63-2.16-4.91-2.26l-.2-.2c2.85-2.65,5.01-4.71,7.46-7.36,3.14,2.45,6.67,5.01,8.93,6.58h.1l7.75-6.58c3.24,2.26,7.66,5.3,11.19,7.46v.39c-1.08.78-1.67,1.86-1.67,3.93v36.41c1.57,1.18,3.83,2.36,5.01,2.26l.2.2Z" fill="#6f263d"/>
        <path d="M498.75,242.8l-1.53-1.17c-2.41-1.83-7.23-5.21-9.31-6.59l-.58-.38-.12.11c-2.39,2.09-5.09,4.61-7.05,6.57l-1.4,1.4-1.57-1.2c-.93-.72-1.88-1.45-2.81-2.16-1.98-1.53-3.85-2.97-5.11-3.9l-.92-.68v-2.63l.87-.68c.26-.2.8-.62.8-3.23v-35.46c-1.19-.78-2.21-1.11-2.83-1.16l-.83-.06-2.44-2.44,1.71-1.59c2.99-2.78,5.04-4.76,7.34-7.24l1.41-1.52,1.63,1.28c2.52,1.97,5.31,4.01,7.47,5.54l7.79-6.61,1.42.99c3.34,2.33,7.63,5.28,11.08,7.38l1.08.66v2.81l-.93.68c-.33.24-.74.54-.74,2.1v35.23c1.21.77,2.28,1.18,2.62,1.19l1.04-.09.88.94,1.63,1.64-1.68,1.59c-1.01.96-2.35,2.28-3.74,3.64-1.31,1.29-2.67,2.62-3.81,3.71l-1.39,1.33ZM492.27,232.56c1.85,1.27,4.24,2.96,6.12,4.33.78-.76,1.6-1.56,2.4-2.35.41-.4.81-.8,1.2-1.18-1.17-.62-2.1-1.3-2.41-1.53l-.9-.68v-37.54c0-1.44.25-2.64.76-3.64-2.59-1.66-5.41-3.58-7.89-5.3l-3.79,3.21c.29.19.58.38.88.58,1.14.74,2.31,1.51,3.57,2.49l.87.68v36.43c0,1.45-.12,3.1-.81,4.5ZM473.62,233.1c1.05.8,2.26,1.73,3.51,2.7.41.32.83.64,1.25.96,1.18-1.14,2.5-2.37,3.8-3.56-.39-.28-.79-.59-1.24-.96l-.81-.68v-40.58l.81-.68c.13-.11.36-.3.65-.53-1.86-1.31-4.32-3.09-6.72-4.92-1.13,1.18-2.26,2.29-3.52,3.49.78.41,1.56.93,2.32,1.53l.86.68v37.7c0,2.06-.28,3.62-.91,4.84ZM484.64,229.42c.29.21.57.41.88.62.49.34.99.69,1.58,1.14l.14.11.76-.45c.35-.21.57-1.28.57-2.78v-34.21c-.81-.59-1.61-1.11-2.4-1.62-.08-.05-.16-.1-.24-.16-.43.34-.9.72-1.3,1.04v36.3Z" fill="#006194"/>
      </g>
      <g>
        <path d="M580.83,246.81s-5.99,7.36-8.15,10.5c-4.81-2.65-10.8-4.32-18.45-3.83-.49.59-.88,1.57-1.28,2.65h-.1c-.2-.39-.98-1.77-1.28-2.45,2.16-3.14,6.28-8.05,11.58-14.04l-12.46-8.44v-.39c.88-.39,1.67-1.57,1.67-4.02v-34.16c5.99-3.34,11.48-6.67,16.88-10.89,4.61,3.04,9.91,6.18,13.45,8.15v.39c-1.08.78-1.67,1.87-1.67,4.12v34.55c0,5.2,4.22,7.85,4.22,11.09,0,2.06-2.65,4.52-4.42,6.77ZM577.99,248.58c-.49-7.26-6.09-7.07-6.97-15.31l-10.11,11.97c9.23.1,12.96,1.57,16.98,3.44l.1-.1ZM570.92,230.42v-36.61c-2.36-1.57-5.3-3.43-8.15-5.1l-.29.2v39.06l6.48,4.71,1.96-2.26Z" fill="#6f263d"/>
        <path d="M573.39,260.27l-1.79-.98c-4.78-2.64-10.05-3.82-16.04-3.61-.2.45-.39.97-.48,1.23l-.54,1.48h-3.07l-.62-1.25c-.06-.11-.17-.31-.3-.55-.43-.8-.81-1.5-1.03-2.02l-.49-1.14.7-1.02c1.85-2.69,5.07-6.64,10.06-12.33l-11.34-7.68v-3.05l1.33-.59h0s.34-.45.34-1.97v-35.48l1.16-.64c5-2.79,10.88-6.24,16.59-10.7l1.28-1,1.35.89c4.73,3.12,9.97,6.21,13.3,8.06l1.16.64v2.87l-.93.68c-.33.24-.74.54-.74,2.3v34.55c0,2.26,1.04,3.92,2.14,5.69,1.02,1.64,2.08,3.33,2.08,5.4,0,2.41-1.83,4.55-3.61,6.62-.45.52-.89,1.04-1.29,1.54l-.03.03c-.06.07-5.95,7.33-8.04,10.36l-1.16,1.68ZM556.82,251.15c5.49,0,10.57,1.1,15.17,3.28.99-1.34,2.23-2.93,3.39-4.4-3.4-1.46-7-2.45-14.49-2.53l-1.53-.02c-1.15,1.36-2.16,2.58-3.03,3.67.17,0,.34,0,.5,0ZM565.6,243.18c3.85.29,6.6.9,8.96,1.7-.43-.69-.96-1.33-1.56-2.04-1.03-1.24-2.22-2.67-3.09-4.76l-4.31,5.1ZM573.08,231.37l.18,1.66c.38,3.52,1.69,5.1,3.21,6.93,1.1,1.32,2.3,2.77,3.05,4.89.31-.37.63-.75.95-1.12.94-1.1,2.52-2.94,2.52-3.68,0-.78-.65-1.82-1.4-3.02-1.26-2.01-2.82-4.52-2.82-8.07v-34.55c0-1.5.23-2.72.72-3.74-2.91-1.67-6.6-3.88-10.14-6.16-1.4,1.06-2.81,2.06-4.2,3,2.31,1.38,4.75,2.93,7.01,4.43l1,.67v38.66l-.09.11ZM553.86,230.62l10.46,7.08,2.94-3.48-7.03-5.11v-38.44c-1.94,1.19-3.82,2.27-5.6,3.28v32.83c0,1.69-.31,2.92-.76,3.84ZM564.73,226.82l3.88,2.82.05-.06v-34.55c-1.28-.84-2.62-1.69-3.93-2.5v34.3Z" fill="#006194"/>
      </g>
      <g>
        <path d="M739.49,169.76c-2.45,3.44-6.38,8.44-9.81,12.07-2.94-1.08-8.74-3.34-14.33-5.89v56.53c1.08.1,3.34.1,4.51.1,8.15,0,13.94-2.55,17.86-5.59l.79,1.18c-4.91,6.77-12.07,13.05-26.89,13.05-20.02,0-33.66-11.88-33.66-33.08,0-15.02,11.29-28.17,19.53-32.19l1.28.88c-6.09,5.59-9.13,15.9-9.13,24.14,0,8.93,1.77,15.8,5.3,20.91,3.34-2.45,4.12-5.4,4.12-9.91v-29.15c8.44-6.48,13.94-11.29,19.73-16.39,8.34,3.34,12.07,4.71,16.1,4.71.88,0,1.86-.59,3.14-2.45l1.47,1.08ZM713.57,175.06l-1.08-.49-2.94,2.36v37.2s-7.26,4.52-13.74,9.03c4.02,5.1,10.01,8.15,17.76,9.23v-57.32Z" fill="#6f263d"/>
        <path d="M711.61,243.47c-22.16,0-35.92-13.54-35.92-35.33,0-16.42,12.41-30.12,20.8-34.22l1.19-.58,4.68,3.24-2.07,1.91c-.64.59-1.23,1.23-1.79,1.92,7.6-5.87,12.62-10.22,18.8-15.67l1.04-.92,1.29.51c8.25,3.3,11.71,4.55,15.25,4.55-.02,0,.43-.22,1.29-1.47l1.31-1.92,5.14,3.77-1.29,1.81c-2.32,3.25-6.34,8.43-10.01,12.31l-1.02,1.08-1.39-.51c-1.03-.38-5.75-2.13-11.3-4.54v50.9c.84.01,1.71.01,2.26.01,6.55,0,12.1-1.72,16.48-5.12l1.91-1.48,3,4.49-.92,1.27c-4.72,6.51-12.25,13.99-28.72,13.99ZM691.43,183.22c-5.86,5.84-11.23,15.05-11.23,24.91,0,19.3,11.74,30.82,31.41,30.82,9.14,0,15.04-2.48,19.25-5.84-3.37,1.13-7.07,1.71-11,1.71-1.03,0-2.78,0-4.03-.06v.2l-2.57-.36c-8.16-1.14-14.49-4.36-18.83-9.58l-.04.03-.39-.57-1.44-1.83.13-.09c-3.57-5.46-5.31-12.54-5.31-21.61,0-5.42,1.29-12.05,4.06-17.75ZM699.19,223.56c3.04,3.01,7.11,5.07,12.13,6.14v-14.02l-.58.36c-.06.04-5.8,3.61-11.55,7.52ZM696.79,182.8c-3.35,5.46-4.91,12.69-4.91,18.17,0,7.15,1.15,12.86,3.51,17.33,1.03-1.46,1.41-3.33,1.41-6.33v-29.16ZM701.3,183.93v28.04c0,1.84-.13,3.54-.51,5.11,2.77-1.83,5.19-3.36,6.51-4.19v-33.7c-1.84,1.49-3.83,3.07-5.99,4.74ZM715.83,173.69l.45.2c4.51,2.06,9.4,4.03,12.77,5.3,1.67-1.84,3.37-3.88,4.9-5.83-3.97-.19-7.87-1.61-14.72-4.34-1.46,1.28-2.98,2.62-4.61,4.03l1.22.55v.08Z" fill="#006194"/>
      </g>
      <g>
        <path d="M800.05,232.38c-1.96,1.86-5.2,5.1-7.56,7.36-2.85-2.16-6.87-4.91-9.42-6.58v-.39c1.18-.49,1.67-1.77,1.67-4.71v-58.2c0-2.36-.2-3.93-.98-5.01l.39-.2c1.37.39,3.34,1.96,4.12,4.02h.2c1.28-3.34,4.22-6.48,7.66-7.46l.29.2c-.79,1.37-1.57,3.14-1.57,6.58v61.93c1.57,1.18,3.83,2.36,5.01,2.26l.2.2Z" fill="#6f263d"/>
        <path d="M792.66,242.7l-1.53-1.16c-2.69-2.04-6.61-4.73-9.29-6.49l-1.02-.67v-3.11l1.39-.58h0s.28-.47.28-2.63v-58.2c0-1.36-.06-3.01-.55-3.68l-1.57-2.15,3.56-1.78.84.24c1.06.3,2.29,1.03,3.37,2.06,1.87-2.66,4.53-4.69,7.37-5.5l1-.29,2.91,1.94-1.04,1.82c-.62,1.08-1.27,2.48-1.27,5.46v60.75c1.21.77,2.28,1.17,2.62,1.19l1.04-.09.88.94,1.63,1.63-1.67,1.59c-1,.95-2.34,2.27-3.73,3.63-1.32,1.29-2.67,2.63-3.82,3.73l-1.39,1.33ZM786.26,232.58c1.93,1.3,4.13,2.82,6.04,4.21.78-.76,1.61-1.57,2.42-2.37.4-.4.8-.79,1.19-1.17-1.17-.62-2.1-1.29-2.41-1.53l-.9-.68v-63.06c0-.69.03-1.33.08-1.92-.89.98-1.62,2.16-2.1,3.41l-.55,1.45h-3.03v57.13c0,1.11,0,2.97-.73,4.52Z" fill="#006194"/>
      </g>
      <g>
        <path d="M881.02,232.48c-2.85,2.65-5.01,4.71-7.46,7.36-3.14-2.45-6.09-4.61-8.93-6.58h-.1l-7.75,6.58c-3.24-2.26-7.66-5.3-11.19-7.46v-.39c1.08-.78,1.67-1.87,1.67-3.93v-36.41c-1.57-1.18-3.83-2.36-5.01-2.26l-.2-.2c1.96-1.86,5.3-4.91,7.66-7.36,2.94,2.26,6.77,5.01,9.32,6.67v.39c-1.18.59-1.67,1.77-1.67,4.71v35.33c1.86,1.57,3.34,2.94,4.61,3.73,0,0,3.24-2.85,3.83-3.34v-38.18c-1.18-.98-2.06-1.47-3.34-2.45v-.1c1.86-1.67,5.2-4.71,7.26-6.77,1.96,1.67,5.5,4.51,7.85,6.18v.39c-1.18.69-1.67,1.77-1.67,5.01v36.61c1.87,1.47,3.63,2.16,4.91,2.26l.2.2Z" fill="#6f263d"/>
        <path d="M873.81,242.89l-1.63-1.28c-2.56-2-5.01-3.82-7.46-5.55l-7.8,6.61-1.42-.99c-3.34-2.33-7.63-5.28-11.08-7.38l-1.08-.66v-2.81l.93-.68c.33-.24.74-.54.74-2.1v-35.23c-1.21-.77-2.28-1.18-2.62-1.19l-1.04.09-.88-.94-1.63-1.63,1.68-1.59c.49-.46,1.06-1,1.69-1.59,1.86-1.74,4.16-3.9,5.89-5.7l1.4-1.46,1.6,1.23c2.98,2.29,6.76,4.99,9.19,6.58l.6.39.1-.09c2.13-1.91,5.29-4.81,7.17-6.69l1.47-1.47,1.58,1.35c2.08,1.77,5.49,4.5,7.7,6.06l.95.67v2.85l-1.12.65c-.18.1-.55.32-.55,3.06v35.46c1.19.78,2.21,1.11,2.83,1.16l.83.06,2.44,2.44-1.71,1.59c-2.98,2.77-5.03,4.75-7.34,7.24l-1.41,1.52ZM848.75,231.7c2.59,1.66,5.41,3.58,7.89,5.3l3.42-2.9c-.88-.63-1.8-1.42-2.83-2.31-.42-.36-.86-.74-1.32-1.13l-.8-.68v-36.38c0-1.61.12-3.22.75-4.52-1.82-1.25-3.96-2.79-5.93-4.26-1.19,1.18-2.48,2.4-3.68,3.52,1.14.61,2.05,1.27,2.36,1.5l.9.68v37.54c0,1.44-.25,2.64-.76,3.64ZM866.44,231.77c2.28,1.58,4.55,3.24,6.89,5.04,1.13-1.18,2.26-2.29,3.51-3.49-.78-.41-1.56-.93-2.32-1.53l-.86-.68v-37.7c0-1.98.17-3.61.81-4.89-1.5-1.14-3.18-2.48-4.63-3.66-1.29,1.24-2.72,2.55-3.86,3.59.39.28.8.59,1.25.97l.81.68v40.29l-.81.68c-.14.11-.44.37-.82.7ZM859.62,227.9c.19.16.37.32.55.48.6.52,1.16,1,1.67,1.41.56-.49,1.2-1.05,1.71-1.49v-36.05c-.29-.21-.57-.41-.88-.62-.49-.34-1-.69-1.58-1.14l-.08-.06-.97.49c-.2.1-.42.86-.42,2.7v34.29Z" fill="#006194"/>
      </g>
      <g>
        <path d="M957.58,190.57c-1.18.78-1.67,2.06-1.67,5.01v33.27c-4.91,2.75-10.6,6.38-16.88,10.89-3.73-2.55-10.31-6.67-13.45-8.44v-.49c.88-.59,1.67-1.57,1.67-3.53v-57.42c0-2.36-.2-3.93-.98-5.01l.39-.2c1.37.39,3.34,1.96,4.12,4.02h.2c1.47-3.34,3.63-6.09,7.66-7.46l.29.2c-.79,1.37-1.57,2.85-1.57,6.58v20.22c3.04-2.55,4.71-4.42,6.97-6.38,3.73,2.45,10.11,6.48,13.25,8.34v.39ZM945.8,232.77v-38.96c-1.86-1.37-4.71-3.04-7.16-4.51l-1.28,1.08v37.3c1.77,1.28,5.99,3.93,8.24,5.3l.2-.2Z" fill="#6f263d"/>
        <path d="M939.06,242.49l-1.3-.89c-3.59-2.46-10.17-6.59-13.28-8.34l-1.15-.65v-3.01l1-.67c.25-.17.67-.44.67-1.66v-57.42c0-1.36-.06-3.01-.55-3.68l-1.57-2.15,3.56-1.78.84.24c1.07.31,2.31,1.04,3.39,2.09,1.82-2.67,4.18-4.44,7.24-5.49l1.05-.36,2.97,1.98-1.04,1.82c-.65,1.15-1.27,2.23-1.27,5.46v15.15c.15-.14.29-.28.44-.42.92-.88,1.79-1.72,2.8-2.59l1.29-1.12,1.43.94c3.86,2.54,10.13,6.49,13.16,8.29l1.1.66v2.88l-1,.67c-.22.14-.66.44-.66,3.13v34.59l-1.15.65c-5.11,2.86-10.72,6.48-16.67,10.76l-1.28.92ZM928.78,230.55c3.03,1.81,7.17,4.42,10.22,6.45,1.41-1,2.8-1.96,4.17-2.89-2.34-1.45-5.57-3.5-7.12-4.62l-.93-.67v-60.83c0-.69.03-1.32.07-1.9-.82.93-1.51,2.08-2.14,3.5l-.59,1.34h-2.94v56.34c0,1.25-.24,2.35-.73,3.28ZM940.96,188.06c2.24,1.34,4.52,2.71,6.18,3.94l.92.68v38.24c1.92-1.21,3.79-2.34,5.6-3.38v-31.96c0-1.64.12-3.28.77-4.67-2.86-1.75-6.81-4.24-9.88-6.24-.46.43-.91.86-1.38,1.31-.67.64-1.39,1.33-2.21,2.08ZM939.62,226.49c1.07.72,2.51,1.65,3.93,2.55v-34.06c-1.15-.78-2.55-1.64-3.93-2.47v33.98Z" fill="#006194"/>
      </g>
      <path d="M64.5,124.17c-30.03,0-54.03-19.88-54.03-51.68,0-23.85,14.72-39.46,28.71-46.82l1.77,1.47c-8.24,6.62-12.96,20.61-12.96,36.66,0,11.78,2.5,22.53,7.21,31.36,5.3-3.68,6.18-7.36,6.18-14.87v-44.02c13.54-9.28,22.53-16.34,30.77-24.88,29.15,2.65,51.24,18.7,51.24,55.8,0,41.08-36.66,56.98-58.89,56.98ZM63.18,23.9l-6.04,5.15v54.47s-10.89,6.77-20.76,13.69c5.89,10.01,14.87,17.08,26.8,20.02V23.9ZM102.34,52.17c-5.59-16.49-18.4-25.03-36.51-27.83v44.46l36.51-16.64ZM104.99,64.69c-.44-3.68-1.03-7.21-1.91-10.31l-37.25,16.78v11.34l39.16-17.81ZM105.29,66.9l-39.46,17.96v32.83c1.77.29,3.68.44,5.74.44,20.61,0,34.01-15.02,34.01-44.17,0-2.36-.15-5.15-.29-7.07Z" fill="#6f263d"/>
      <path d="M179.29,132.56s-8.98,11.04-12.22,15.75c-7.21-3.98-16.2-6.48-27.68-5.74-.74.88-1.33,2.36-1.91,3.97h-.15c-.29-.59-1.47-2.65-1.91-3.68,3.24-4.71,9.42-12.07,17.37-21.05l-18.7-12.66v-.59c1.33-.59,2.5-2.36,2.5-6.04v-51.24c8.98-5.01,17.23-10.01,25.32-16.34,6.92,4.56,14.87,9.28,20.17,12.22v.59c-1.62,1.18-2.5,2.8-2.5,6.18v51.82c0,7.8,6.33,11.78,6.33,16.64,0,3.09-3.98,6.77-6.63,10.16ZM175.02,135.21c-.74-10.89-9.13-10.6-10.45-22.97l-15.16,17.96c13.84.15,19.43,2.36,25.47,5.15l.15-.15ZM164.42,107.97v-54.92c-3.53-2.36-7.95-5.15-12.22-7.66l-.44.29v58.6l9.72,7.07,2.94-3.39Z" fill="#6f263d"/>
      <path d="M239.75,49.37c-1.77,1.47-2.5,2.65-2.5,8.1v48.14c-8.39,4.71-15.9,9.27-25.18,16.34-4.86-3.24-14.72-9.13-20.32-12.22v-.59c1.47-.74,2.5-2.21,2.5-5.15v-54.47c3.24-1.77,11.19-6.48,16.05-9.72l-5.3-5.74c-7.07-7.8-8.54-9.42-8.54-15.61,0-4.42,2.5-10.16,4.71-14.28l1.62.59c-.88,4.12.15,7.21,8.39,15.46,0,0,23.26,24.29,28.56,28.56v.59ZM222.08,111.21v-58.89l-9.42-10.01-3.24,2.06v59.63c2.94,1.91,9.13,5.59,12.37,7.36l.29-.15Z" fill="#6f263d"/>
      <path d="M267.08,78.38v22.53c8.98,5.74,12.66,7.21,15.31,7.21,1.03,0,2.06-.59,3.09-1.62l1.33-1.32,2.21,2.36c-3.39,3.24-10.45,10.31-14.13,14.43-6.33-3.97-17.96-10.6-25.47-14.28v-.59c1.77-1.33,2.5-2.65,2.5-7.21v-53c7.66-2.06,17.81-6.33,26.5-11.93,3.39,7.36,11.04,21.94,15.16,28.56-5.3,3.98-18.11,10.31-26.5,14.87ZM267.81,44.66l-.74.15v29.74c4.56-2.21,10.31-5.01,13.4-7.07-3.68-6.04-10.16-17.23-12.66-22.82Z" fill="#6f263d"/>
      <path d="M353.45,111.06c-2.94,2.8-7.8,7.66-11.34,11.04-3.68-2.8-11.04-7.95-14.13-10.01v-.59c1.47-.88,2.5-2.65,2.5-7.07v-53c-2.65-2.06-5.15-3.53-7.51-5.15,0,0-4.27,3.39-5.15,4.12v57.71c1.77,1.47,3.09,2.21,5.01,3.68v.15c-3.53,3.09-7.66,6.92-10.75,10.01-4.42-3.39-9.13-7.07-11.93-9.13v-.59c1.33-1.03,2.5-2.65,2.5-7.51v-54.92c-2.8-2.21-5.45-3.24-7.36-3.39l-.29-.29c4.27-3.98,7.51-7.07,11.19-11.04,4.71,3.68,10.01,7.51,13.4,9.86h.15l11.63-9.86c4.86,3.39,11.48,7.95,16.78,11.19v.59c-1.62,1.18-2.5,2.8-2.5,5.89v54.62c2.36,1.77,5.74,3.53,7.51,3.39l.29.29Z" fill="#6f263d"/>
      <path d="M394.62,75.88c-10.31,2.94-25.76,9.42-32.39,13.25.15-4.12.29-10.31.29-13.84,7.36-4.42,22.97-10.31,32.39-12.96-.15,3.68-.29,10.6-.29,13.54Z" fill="#6f263d"/>
      <path d="M462.14,111.06c-4.27,3.98-7.51,7.07-11.19,11.04-4.71-3.68-9.13-6.92-13.4-9.86h-.15l-11.63,9.86c-4.86-3.39-11.48-7.95-16.78-11.19v-.59c1.62-1.18,2.5-2.8,2.5-5.89v-54.62c-2.36-1.77-5.74-3.53-7.51-3.39l-.29-.29c2.94-2.8,7.95-7.36,11.48-11.04,4.42,3.39,10.16,7.51,13.99,10.01v.59c-1.77.88-2.5,2.65-2.5,7.07v53c2.8,2.36,5.01,4.42,6.92,5.59,0,0,4.86-4.27,5.74-5.01v-57.27c-1.77-1.47-3.09-2.21-5.01-3.68v-.15c2.8-2.5,7.8-7.07,10.89-10.16,2.94,2.5,8.24,6.77,11.78,9.27v.59c-1.77,1.03-2.5,2.65-2.5,7.51v54.92c2.8,2.21,5.45,3.24,7.36,3.39l.29.29Z" fill="#6f263d"/>
      <path d="M517.3,46.73c-1.62,1.18-2.5,2.65-2.5,6.62v54.77c-5.15,3.98-10.6,8.98-15.16,13.84-3.24-2.21-8.1-5.01-12.66-5.74v25.03c0,5.74.88,7.95,3.53,9.57l-.29.59c-6.77-.88-10.6-5.74-12.81-11.19h-.29c-1.18,3.09-4.71,5.45-6.92,6.04l-.44-.29c1.18-1.62,2.06-3.09,2.06-8.24V49.82c-4.27-2.8-5.74-3.39-7.21-3.24l-.44-.44,11.19-11.04c3.39,2.8,9.72,7.8,12.96,10.31,5.01-3.97,8.69-7.21,12.22-10.31,3.83,2.94,12.51,8.54,16.78,11.04v.59ZM499.63,107.97v-56.68c-2.5-1.91-5.3-3.83-7.36-5.15l-5.3,4.42v53.74c4.86,0,9.86,1.91,12.66,3.83v-.15Z" fill="#6f263d"/>
      <path d="M574.96,47.76c-1.33,1.03-2.5,2.36-2.5,6.63v51.24c-6.77,3.83-17.37,10.45-25.32,16.34-6.48-4.42-13.99-9.13-20.17-12.66v-.59c1.77-.74,2.5-2.65,2.5-5.74v-51.68c7.51-4.27,17.67-10.75,25.32-16.34,6.18,3.98,13.84,8.83,20.17,12.22v.59ZM557.29,111.36v-58.3c-3.39-2.36-8.39-5.45-12.22-7.66l-.44.15v58.3c3.24,2.36,8.98,5.89,12.37,7.8l.29-.29Z" fill="#6f263d"/>
      <path d="M639.25,111.06c-2.94,2.8-7.8,7.66-11.34,11.04-3.68-2.8-11.04-7.95-14.13-10.01v-.59c1.47-.88,2.5-2.65,2.5-7.07v-53c-2.65-2.06-5.15-3.53-7.51-5.15,0,0-4.27,3.39-5.15,4.12v57.71c1.77,1.47,3.09,2.21,5.01,3.68v.15c-3.53,3.09-7.66,6.92-10.75,10.01-4.42-3.39-9.13-7.07-11.93-9.13v-.59c1.33-1.03,2.5-2.65,2.5-7.51v-54.92c-2.8-2.21-5.45-3.24-7.36-3.39l-.29-.29c4.27-3.98,7.51-7.07,11.19-11.04,4.71,3.68,10.01,7.51,13.4,9.86h.15l11.63-9.86c4.86,3.39,11.48,7.95,16.78,11.19v.59c-1.62,1.18-2.5,2.8-2.5,5.89v54.62c2.36,1.77,5.74,3.53,7.51,3.39l.29.29Z" fill="#6f263d"/>
      <path d="M680.42,75.88c-10.31,2.94-25.76,9.42-32.39,13.25.15-4.12.29-10.31.29-13.84,7.36-4.42,22.97-10.31,32.39-12.96-.15,3.68-.29,10.6-.29,13.54Z" fill="#6f263d"/>
      <path d="M784.16,157.44l-3.83-.88v-.29c3.83-2.5,7.36-5.74,7.36-11.48,0-5.3-3.24-7.95-8.98-7.95-16.34,0-32.83,19.73-58.16,19.73-13.4,0-22.53-7.36-22.53-18.7,0-10.75,5.74-17.67,19.73-19.58v-41.52h-1.91c-7.07,0-11.78,1.77-14.13,6.63l-1.33-.59c.44-15.31,8.39-21.64,16.93-21.64h.44v-25.03c-10.6-7.51-14.72-10.16-17.23-10.16-2.21,0-3.68,1.18-6.92,3.98l-1.77-2.06c7.21-5.89,12.66-10.31,19.43-16.05,5.89,4.42,13.99,10.31,23.7,17.23v87.01c2.21-.15,4.42-.44,6.33-.59V21.7c0-3.68-.74-7.51-1.33-9.42v-.29l3.09.44c.44,1.77.88,5.45.88,8.24v7.95c3.24-2.65,14.28-11.63,20.32-16.64,14.72,5.45,24,14.43,24,34.6v30.48c0,23.41-6.33,37.69-31.21,40.05-16.78,1.62-21.2,2.36-38.28,4.27-11.48,1.32-15.61,7.21-15.61,12.22,0,4.71,3.09,7.21,13.25,7.21,17.67,0,33.86-18.55,53.15-18.55,15.9,0,23.85,7.51,23.85,20.02,0,7.07-5.15,12.66-9.28,15.16ZM771.2,49.96v-1.47c0-12.37-3.09-19.58-17.37-24.44l-9.86,7.95v30.33l27.24-12.37ZM771.2,63.66v-10.89l-27.24,12.22v11.04l27.24-12.37ZM771.2,66.6l-27.24,12.22v36.36c21.05-2.65,27.24-10.31,27.24-31.65v-16.93Z" fill="#6f263d"/>
      <path d="M848,47.76c-1.33,1.03-2.5,2.36-2.5,6.63v51.24c-6.77,3.83-17.37,10.45-25.32,16.34-6.48-4.42-13.99-9.13-20.17-12.66v-.59c1.77-.74,2.5-2.65,2.5-5.74v-51.68c7.51-4.27,17.67-10.75,25.32-16.34,6.18,3.98,13.84,8.83,20.17,12.22v.59ZM830.34,111.36v-58.3c-3.39-2.36-8.39-5.45-12.22-7.66l-.44.15v58.3c3.24,2.36,8.98,5.89,12.37,7.8l.29-.29Z" fill="#6f263d"/>
      <path d="M891.24,63.07h-.59c-3.68-3.98-9.13-11.93-10.89-16.2l-3.09,3.24v53.59c7.07,4.42,8.39,5.01,10.6,5.01,1.03,0,1.91-.88,2.8-1.91l1.33-1.47,2.5,2.21c-8.69,8.69-14.28,14.43-14.28,14.43-6.18-4.12-12.96-7.8-20.61-11.48v-.59c1.62-1.47,2.5-2.8,2.5-7.36v-52.71c-3.09-2.36-5.15-3.24-7.36-3.39l-.29-.44c3.39-3.09,7.8-7.07,11.19-10.89,4.12,3.39,8.54,7.36,12.22,10.31,5.15-4.42,6.77-6.18,11.04-10.31,2.8,4.42,7.8,11.48,12.37,16.34-2.94,2.94-6.63,7.8-9.42,11.63Z" fill="#6f263d"/>
      <path d="M959.94,111.06c-2.94,2.8-7.8,7.66-11.34,11.04,0,0-7.8-5.74-11.63-8.24v-24.59c0-7.07-3.24-10.16-7.8-12.07l-4.86,3.24v27.68c1.77,1.47,3.09,2.21,5.01,3.68v.15c-2.65,2.36-7.36,6.48-10.89,10.01-2.94-2.5-8.24-6.18-11.78-8.69v-.59c1.47-1.03,2.5-2.65,2.5-7.51V17.13c0-3.53-.29-5.89-1.47-7.51l.59-.29c2.21.74,5.15,3.09,6.18,6.04h.29c2.06-5.15,5.89-9.42,11.48-11.19l.44.29c-1.33,2.06-2.36,4.71-2.36,9.86v32.83l16.64-12.07c3.24,5.15,8.54,15.31,11.48,21.2.74-.44,1.62-1.33,2.21-2.21h.15c.29.88,1.33,2.94,1.33,3.53-4.71,3.39-10.01,7.21-15.46,10.89,4.71,2.21,11.48,6.33,11.48,13.84v25.03c2.36,1.77,5.74,3.53,7.51,3.39l.29.29ZM930.2,47.17l-5.89,3.83v25.62c5.01-3.39,10.6-7.51,15.46-11.04-2.8-6.04-6.77-13.99-9.57-18.4Z" fill="#6f263d"/>
      <path d="M51.59,226.79c-6.77,6.28-8.54,7.85-16.19,14.04-7.66-3.93-12.86-6.28-18.35-6.28-5.89,0-11.38,2.06-11.38,12.76h-.2l-3.04-2.55c1.77-11.39,9.23-20.91,18.35-20.91,6.58,0,14.82,2.26,23.75,6.48,3.73-4.12,6.77-7.66,6.77-13.25,0-6.87-3.14-11.19-13.25-11.19-1.86,0-3.63,0-5.2.1-3.43,6.67-8.64,10.01-10.31,10.5l-3.34-2.75.1-.2c3.14.2,8.34-3.73,10.5-7.36-12.17,0-21.1-4.42-21.1-17.27,0-9.91,9.03-16.98,21.49-23.06,8.15,1.77,15.8,4.51,21.49,7.07,1.37-1.87,3.63-4.51,5.5-6.18h.2l1.37,2.45c-4.42,3.24-12.27,14.33-18.26,24.54,13.45.88,20.22,5.69,20.22,14.92,0,6.97-2.36,11.88-9.13,18.16ZM22.15,173c-3.63,1.96-5.59,4.91-5.59,8.83,0,8.54,4.12,11.88,16.88,11.88,1.37,0,2.75,0,4.32-.1,1.47-2.45,5.4-8.64,6.97-10.99-7.95-5.59-16.59-8.64-22.57-9.62Z" fill="#6f263d"/>
      <path d="M140.52,189.59c-1.08.78-1.67,1.77-1.67,4.42v36.51c-3.44,2.65-7.07,5.99-10.11,9.23-2.16-1.47-5.4-3.34-8.44-3.83v16.68c0,3.83.59,5.3,2.36,6.38l-.2.39c-4.51-.59-7.07-3.83-8.54-7.46h-.2c-.79,2.06-3.14,3.63-4.61,4.02l-.29-.2c.79-1.08,1.37-2.06,1.37-5.5v-58.59c-2.85-1.87-3.83-2.26-4.81-2.16l-.29-.29,7.46-7.36c2.26,1.86,6.48,5.2,8.64,6.87,3.34-2.65,5.79-4.81,8.15-6.87,2.55,1.96,8.34,5.69,11.19,7.36v.39ZM128.74,230.42v-37.79c-1.67-1.28-3.53-2.55-4.91-3.43l-3.53,2.94v35.82c3.24,0,6.58,1.28,8.44,2.55v-.1Z" fill="#6f263d"/>
      <path d="M219.63,190.28c-.88.69-1.67,1.57-1.67,4.42v34.15c-4.51,2.55-11.58,6.97-16.88,10.89-4.32-2.94-9.32-6.09-13.45-8.44v-.39c1.18-.49,1.67-1.77,1.67-3.83v-34.45c5.01-2.85,11.78-7.16,16.88-10.89,4.12,2.65,9.23,5.89,13.45,8.15v.39ZM207.85,232.68v-38.87c-2.26-1.57-5.59-3.63-8.15-5.1l-.29.1v38.87c2.16,1.57,5.99,3.93,8.24,5.2l.2-.2Z" fill="#6f263d"/>
      <path d="M289.12,200.48h-.39c-2.45-2.65-6.09-7.95-7.26-10.8l-2.06,2.16v35.73c4.71,2.94,5.59,3.34,7.07,3.34.69,0,1.28-.59,1.86-1.28l.88-.98,1.67,1.47c-5.79,5.79-9.52,9.62-9.52,9.62-4.12-2.75-8.64-5.2-13.74-7.66v-.39c1.08-.98,1.67-1.86,1.67-4.91v-35.14c-2.06-1.57-3.43-2.16-4.91-2.26l-.2-.29c2.26-2.06,5.2-4.71,7.46-7.26,2.75,2.26,5.69,4.91,8.15,6.87,3.43-2.94,4.51-4.12,7.36-6.87,1.86,2.94,5.2,7.66,8.24,10.89-1.96,1.96-4.42,5.2-6.28,7.75Z" fill="#6f263d"/>
      <path d="M363.03,230.12l-9.52,9.62c-3.83-2.45-9.52-5.79-13.15-7.56v-.39c1.28-.78,1.67-2.36,1.67-4.71v-33.86h-4.12v-.59c5.3-3.43,10.7-12.66,13.45-19.92h.69v14.82h10.11l-2.55,5.69h-7.56v34.55c4.71,3.04,5.1,2.85,6.67,2.85.78,0,1.67-.49,2.06-.98l.79-.88,1.47,1.37Z" fill="#6f263d"/>
      <path d="M425.16,232.48l-7.66,7.26c-2.16-1.67-6.58-4.81-9.32-6.58v-.39c1.28-.78,1.67-1.86,1.67-4.61v-36.51l-1.28-.78c-2.06-1.28-2.75-1.28-3.83-1.28l-.1-.39,7.66-7.36c2.16,1.67,6.38,4.71,9.32,6.67v.39c-1.18.69-1.67,1.67-1.67,4.32v36.8c3.04,1.96,4.12,2.16,5.01,2.16l.2.29ZM412.8,176.93l-3.14-3.43c2.75-2.75,9.32-9.82,10.99-12.27.79.98,2.75,5.2,3.63,7.46-2.36,1.96-8.34,6.28-11.48,8.24Z" fill="#6f263d"/>
      <path d="M506.14,232.48c-1.96,1.86-5.2,5.1-7.56,7.36-2.45-1.87-7.36-5.3-9.42-6.67v-.39c.98-.59,1.67-1.77,1.67-4.71v-35.33c-1.77-1.37-3.44-2.36-5.01-3.43,0,0-2.85,2.26-3.44,2.75v38.47c1.18.98,2.06,1.47,3.34,2.45v.1c-2.36,2.06-5.1,4.61-7.16,6.67-2.94-2.26-6.09-4.71-7.95-6.09v-.39c.88-.69,1.67-1.77,1.67-5.01v-36.61c-1.86-1.47-3.63-2.16-4.91-2.26l-.2-.2c2.85-2.65,5.01-4.71,7.46-7.36,3.14,2.45,6.67,5.01,8.93,6.58h.1l7.75-6.58c3.24,2.26,7.66,5.3,11.19,7.46v.39c-1.08.78-1.67,1.86-1.67,3.93v36.41c1.57,1.18,3.83,2.36,5.01,2.26l.2.2Z" fill="#6f263d"/>
      <path d="M580.83,246.81s-5.99,7.36-8.15,10.5c-4.81-2.65-10.8-4.32-18.45-3.83-.49.59-.88,1.57-1.28,2.65h-.1c-.2-.39-.98-1.77-1.28-2.45,2.16-3.14,6.28-8.05,11.58-14.04l-12.46-8.44v-.39c.88-.39,1.67-1.57,1.67-4.02v-34.16c5.99-3.34,11.48-6.67,16.88-10.89,4.61,3.04,9.91,6.18,13.45,8.15v.39c-1.08.78-1.67,1.87-1.67,4.12v34.55c0,5.2,4.22,7.85,4.22,11.09,0,2.06-2.65,4.52-4.42,6.77ZM577.99,248.58c-.49-7.26-6.09-7.07-6.97-15.31l-10.11,11.97c9.23.1,12.96,1.57,16.98,3.44l.1-.1ZM570.92,230.42v-36.61c-2.36-1.57-5.3-3.43-8.15-5.1l-.29.2v39.06l6.48,4.71,1.96-2.26Z" fill="#6f263d"/>
      <path d="M739.49,169.76c-2.45,3.44-6.38,8.44-9.81,12.07-2.94-1.08-8.74-3.34-14.33-5.89v56.53c1.08.1,3.34.1,4.51.1,8.15,0,13.94-2.55,17.86-5.59l.79,1.18c-4.91,6.77-12.07,13.05-26.89,13.05-20.02,0-33.66-11.88-33.66-33.08,0-15.02,11.29-28.17,19.53-32.19l1.28.88c-6.09,5.59-9.13,15.9-9.13,24.14,0,8.93,1.77,15.8,5.3,20.91,3.34-2.45,4.12-5.4,4.12-9.91v-29.15c8.44-6.48,13.94-11.29,19.73-16.39,8.34,3.34,12.07,4.71,16.1,4.71.88,0,1.86-.59,3.14-2.45l1.47,1.08ZM713.57,175.06l-1.08-.49-2.94,2.36v37.2s-7.26,4.52-13.74,9.03c4.02,5.1,10.01,8.15,17.76,9.23v-57.32Z" fill="#6f263d"/>
      <path d="M800.05,232.38c-1.96,1.86-5.2,5.1-7.56,7.36-2.85-2.16-6.87-4.91-9.42-6.58v-.39c1.18-.49,1.67-1.77,1.67-4.71v-58.2c0-2.36-.2-3.93-.98-5.01l.39-.2c1.37.39,3.34,1.96,4.12,4.02h.2c1.28-3.34,4.22-6.48,7.66-7.46l.29.2c-.79,1.37-1.57,3.14-1.57,6.58v61.93c1.57,1.18,3.83,2.36,5.01,2.26l.2.2Z" fill="#6f263d"/>
      <path d="M881.02,232.48c-2.85,2.65-5.01,4.71-7.46,7.36-3.14-2.45-6.09-4.61-8.93-6.58h-.1l-7.75,6.58c-3.24-2.26-7.66-5.3-11.19-7.46v-.39c1.08-.78,1.67-1.87,1.67-3.93v-36.41c-1.57-1.18-3.83-2.36-5.01-2.26l-.2-.2c1.96-1.86,5.3-4.91,7.66-7.36,2.94,2.26,6.77,5.01,9.32,6.67v.39c-1.18.59-1.67,1.77-1.67,4.71v35.33c1.86,1.57,3.34,2.94,4.61,3.73,0,0,3.24-2.85,3.83-3.34v-38.18c-1.18-.98-2.06-1.47-3.34-2.45v-.1c1.86-1.67,5.2-4.71,7.26-6.77,1.96,1.67,5.5,4.51,7.85,6.18v.39c-1.18.69-1.67,1.77-1.67,5.01v36.61c1.87,1.47,3.63,2.16,4.91,2.26l.2.2Z" fill="#6f263d"/>
      <path d="M957.58,190.57c-1.18.78-1.67,2.06-1.67,5.01v33.27c-4.91,2.75-10.6,6.38-16.88,10.89-3.73-2.55-10.31-6.67-13.45-8.44v-.49c.88-.59,1.67-1.57,1.67-3.53v-57.42c0-2.36-.2-3.93-.98-5.01l.39-.2c1.37.39,3.34,1.96,4.12,4.02h.2c1.47-3.34,3.63-6.09,7.66-7.46l.29.2c-.79,1.37-1.57,2.85-1.57,6.58v20.22c3.04-2.55,4.71-4.42,6.97-6.38,3.73,2.45,10.11,6.48,13.25,8.34v.39ZM945.8,232.77v-38.96c-1.86-1.37-4.71-3.04-7.16-4.51l-1.28,1.08v37.3c1.77,1.28,5.99,3.93,8.24,5.3l.2-.2Z" fill="#6f263d"/>
    </g>
  </g>
</svg>