<?xml version="1.0" encoding="UTF-8"?>
<svg id="Layer_2" data-name="Layer 2" xmlns="http://www.w3.org/2000/svg" viewBox="0 0 957.52 255.2">
  <g id="Layer_1-2" data-name="Layer 1">
    <g>
      <path d="M62.08,119.99c-30.03,0-54.03-19.88-54.03-51.68,0-23.85,14.72-39.46,28.71-46.82l1.77,1.47c-8.24,6.63-12.96,20.61-12.96,36.66,0,11.78,2.5,22.53,7.21,31.36,5.3-3.68,6.18-7.36,6.18-14.87v-44.02c13.54-9.27,22.53-16.34,30.77-24.88,29.15,2.65,51.24,18.7,51.24,55.8,0,41.08-36.66,56.98-58.89,56.98ZM60.76,19.73l-6.04,5.15v54.47s-10.89,6.77-20.76,13.69c5.89,10.01,14.87,17.08,26.8,20.02V19.73ZM99.92,48c-5.59-16.49-18.4-25.03-36.51-27.83v44.46l36.51-16.64ZM102.57,60.51c-.44-3.68-1.03-7.21-1.91-10.31l-37.25,16.78v11.34l39.16-17.81ZM102.86,62.72l-39.46,17.96v32.83c1.77.29,3.68.44,5.74.44,20.61,0,34.01-15.02,34.01-44.17,0-2.36-.15-5.15-.29-7.07Z" fill="#006194"/>
      <path d="M176.87,128.38s-8.98,11.04-12.22,15.75c-7.21-3.98-16.2-6.48-27.68-5.74-.74.88-1.32,2.36-1.91,3.98h-.15c-.29-.59-1.47-2.65-1.91-3.68,3.24-4.71,9.42-12.07,17.37-21.05l-18.7-12.66v-.59c1.33-.59,2.5-2.36,2.5-6.04v-51.24c8.98-5.01,17.23-10.01,25.32-16.34,6.92,4.56,14.87,9.27,20.17,12.22v.59c-1.62,1.18-2.5,2.8-2.5,6.18v51.82c0,7.8,6.33,11.78,6.33,16.64,0,3.09-3.98,6.77-6.63,10.16ZM172.6,131.03c-.74-10.89-9.13-10.6-10.45-22.97l-15.16,17.96c13.84.15,19.43,2.36,25.47,5.15l.15-.15ZM162,103.8v-54.92c-3.53-2.36-7.95-5.15-12.22-7.66l-.44.29v58.6l9.72,7.07,2.94-3.39Z" fill="#006194"/>
      <path d="M237.32,45.2c-1.77,1.47-2.5,2.65-2.5,8.1v48.14c-8.39,4.71-15.9,9.28-25.18,16.34-4.86-3.24-14.72-9.13-20.32-12.22v-.59c1.47-.74,2.5-2.21,2.5-5.15v-54.47c3.24-1.77,11.19-6.48,16.05-9.72l-5.3-5.74c-7.07-7.8-8.54-9.42-8.54-15.61,0-4.42,2.5-10.16,4.71-14.28l1.62.59c-.88,4.12.15,7.21,8.39,15.46,0,0,23.26,24.29,28.56,28.56v.59ZM219.66,107.03v-58.89l-9.42-10.01-3.24,2.06v59.63c2.94,1.91,9.13,5.59,12.37,7.36l.29-.15Z" fill="#006194"/>
      <path d="M264.66,74.2v22.53c8.98,5.74,12.66,7.21,15.31,7.21,1.03,0,2.06-.59,3.09-1.62l1.33-1.33,2.21,2.36c-3.39,3.24-10.45,10.31-14.13,14.43-6.33-3.98-17.96-10.6-25.47-14.28v-.59c1.77-1.32,2.5-2.65,2.5-7.21v-53c7.66-2.06,17.81-6.33,26.5-11.92,3.39,7.36,11.04,21.94,15.16,28.56-5.3,3.98-18.11,10.31-26.5,14.87ZM265.39,40.49l-.74.15v29.74c4.56-2.21,10.31-5.01,13.4-7.07-3.68-6.04-10.16-17.23-12.66-22.82Z" fill="#006194"/>
      <path d="M351.02,106.89c-2.94,2.8-7.8,7.66-11.34,11.04-3.68-2.8-11.04-7.95-14.13-10.01v-.59c1.47-.88,2.5-2.65,2.5-7.07v-53c-2.65-2.06-5.15-3.53-7.51-5.15,0,0-4.27,3.39-5.15,4.12v57.71c1.77,1.47,3.09,2.21,5.01,3.68v.15c-3.53,3.09-7.66,6.92-10.75,10.01-4.42-3.39-9.13-7.07-11.93-9.13v-.59c1.33-1.03,2.5-2.65,2.5-7.51v-54.92c-2.8-2.21-5.45-3.24-7.36-3.39l-.3-.29c4.27-3.97,7.51-7.07,11.19-11.04,4.71,3.68,10.01,7.51,13.4,9.86h.15l11.63-9.86c4.86,3.39,11.48,7.95,16.78,11.19v.59c-1.62,1.18-2.5,2.8-2.5,5.89v54.62c2.36,1.77,5.74,3.53,7.51,3.39l.29.29Z" fill="#006194"/>
      <path d="M392.2,71.7c-10.31,2.94-25.76,9.42-32.39,13.25.15-4.12.3-10.31.3-13.84,7.36-4.42,22.97-10.31,32.39-12.96-.15,3.68-.29,10.6-.29,13.54Z" fill="#006194"/>
      <path d="M459.72,106.89c-4.27,3.97-7.51,7.07-11.19,11.04-4.71-3.68-9.13-6.92-13.4-9.86h-.15l-11.63,9.86c-4.86-3.39-11.48-7.95-16.78-11.19v-.59c1.62-1.18,2.5-2.8,2.5-5.89v-54.62c-2.36-1.77-5.74-3.53-7.51-3.39l-.29-.29c2.94-2.8,7.95-7.36,11.48-11.04,4.42,3.39,10.16,7.51,13.99,10.01v.59c-1.77.88-2.5,2.65-2.5,7.07v53c2.8,2.36,5.01,4.42,6.92,5.59,0,0,4.86-4.27,5.74-5.01v-57.27c-1.77-1.47-3.09-2.21-5-3.68v-.15c2.8-2.5,7.8-7.07,10.89-10.16,2.94,2.5,8.24,6.77,11.78,9.28v.59c-1.77,1.03-2.5,2.65-2.5,7.51v54.92c2.8,2.21,5.45,3.24,7.36,3.39l.29.29Z" fill="#006194"/>
      <path d="M514.88,42.55c-1.62,1.18-2.5,2.65-2.5,6.63v54.77c-5.15,3.98-10.6,8.98-15.16,13.84-3.24-2.21-8.1-5.01-12.66-5.74v25.03c0,5.74.88,7.95,3.53,9.57l-.3.59c-6.77-.88-10.6-5.74-12.81-11.19h-.29c-1.18,3.09-4.71,5.45-6.92,6.04l-.44-.29c1.18-1.62,2.06-3.09,2.06-8.24V45.64c-4.27-2.8-5.74-3.39-7.21-3.24l-.44-.44,11.19-11.04c3.39,2.8,9.72,7.8,12.96,10.31,5.01-3.97,8.69-7.21,12.22-10.31,3.83,2.94,12.51,8.54,16.78,11.04v.59ZM497.21,103.8v-56.68c-2.5-1.91-5.3-3.83-7.36-5.15l-5.3,4.42v53.74c4.86,0,9.86,1.91,12.66,3.83v-.15Z" fill="#006194"/>
      <path d="M572.54,43.58c-1.33,1.03-2.5,2.36-2.5,6.62v51.24c-6.77,3.83-17.37,10.45-25.32,16.34-6.48-4.42-13.99-9.13-20.17-12.66v-.59c1.77-.74,2.5-2.65,2.5-5.74v-51.68c7.51-4.27,17.67-10.75,25.32-16.34,6.18,3.97,13.84,8.83,20.17,12.22v.59ZM554.87,107.18v-58.3c-3.39-2.36-8.39-5.45-12.22-7.66l-.44.15v58.3c3.24,2.36,8.98,5.89,12.37,7.8l.29-.29Z" fill="#006194"/>
      <path d="M636.82,106.89c-2.94,2.8-7.8,7.66-11.34,11.04-3.68-2.8-11.04-7.95-14.13-10.01v-.59c1.47-.88,2.5-2.65,2.5-7.07v-53c-2.65-2.06-5.15-3.53-7.51-5.15,0,0-4.27,3.39-5.15,4.12v57.71c1.77,1.47,3.09,2.21,5.01,3.68v.15c-3.53,3.09-7.66,6.92-10.75,10.01-4.42-3.39-9.13-7.07-11.93-9.13v-.59c1.32-1.03,2.5-2.65,2.5-7.51v-54.92c-2.8-2.21-5.45-3.24-7.36-3.39l-.29-.29c4.27-3.97,7.51-7.07,11.19-11.04,4.71,3.68,10.01,7.51,13.4,9.86h.15l11.63-9.86c4.86,3.39,11.48,7.95,16.78,11.19v.59c-1.62,1.18-2.5,2.8-2.5,5.89v54.62c2.36,1.77,5.74,3.53,7.51,3.39l.29.29Z" fill="#006194"/>
      <path d="M678,71.7c-10.31,2.94-25.77,9.42-32.39,13.25.15-4.12.29-10.31.29-13.84,7.36-4.42,22.97-10.31,32.39-12.96-.15,3.68-.29,10.6-.29,13.54Z" fill="#006194"/>
      <path d="M781.74,153.26l-3.83-.88v-.29c3.83-2.5,7.36-5.74,7.36-11.48,0-5.3-3.24-7.95-8.98-7.95-16.34,0-32.83,19.73-58.15,19.73-13.4,0-22.53-7.36-22.53-18.7,0-10.75,5.74-17.67,19.73-19.58v-41.52h-1.91c-7.07,0-11.78,1.77-14.13,6.62l-1.33-.59c.44-15.31,8.39-21.64,16.93-21.64h.44v-25.03c-10.6-7.51-14.72-10.16-17.23-10.16-2.21,0-3.68,1.18-6.92,3.98l-1.77-2.06c7.21-5.89,12.66-10.31,19.43-16.05,5.89,4.42,13.99,10.31,23.7,17.23v87.01c2.21-.15,4.42-.44,6.33-.59V17.52c0-3.68-.74-7.51-1.32-9.42v-.29l3.09.44c.44,1.77.88,5.45.88,8.24v7.95c3.24-2.65,14.28-11.63,20.32-16.64,14.72,5.45,24,14.43,24,34.6v30.48c0,23.41-6.33,37.69-31.21,40.05-16.78,1.62-21.2,2.36-38.28,4.27-11.48,1.33-15.61,7.21-15.61,12.22,0,4.71,3.09,7.21,13.25,7.21,17.67,0,33.86-18.55,53.15-18.55,15.9,0,23.85,7.51,23.85,20.02,0,7.07-5.15,12.66-9.28,15.16ZM768.78,45.79v-1.47c0-12.37-3.09-19.58-17.37-24.44l-9.86,7.95v30.33l27.24-12.37ZM768.78,59.48v-10.89l-27.24,12.22v11.04l27.24-12.37ZM768.78,62.42l-27.24,12.22v36.37c21.05-2.65,27.24-10.31,27.24-31.65v-16.93Z" fill="#006194"/>
      <path d="M845.58,43.58c-1.32,1.03-2.5,2.36-2.5,6.62v51.24c-6.77,3.83-17.37,10.45-25.32,16.34-6.48-4.42-13.99-9.13-20.17-12.66v-.59c1.77-.74,2.5-2.65,2.5-5.74v-51.68c7.51-4.27,17.67-10.75,25.32-16.34,6.18,3.97,13.84,8.83,20.17,12.22v.59ZM827.91,107.18v-58.3c-3.39-2.36-8.39-5.45-12.22-7.66l-.44.15v58.3c3.24,2.36,8.98,5.89,12.37,7.8l.29-.29Z" fill="#006194"/>
      <path d="M888.81,58.89h-.59c-3.68-3.97-9.13-11.92-10.89-16.2l-3.09,3.24v53.59c7.07,4.42,8.39,5.01,10.6,5.01,1.03,0,1.91-.88,2.8-1.91l1.32-1.47,2.5,2.21c-8.69,8.69-14.28,14.43-14.28,14.43-6.18-4.12-12.96-7.8-20.61-11.48v-.59c1.62-1.47,2.5-2.8,2.5-7.36v-52.71c-3.09-2.36-5.15-3.24-7.36-3.39l-.29-.44c3.39-3.09,7.8-7.07,11.19-10.89,4.12,3.39,8.54,7.36,12.22,10.31,5.15-4.42,6.77-6.18,11.04-10.31,2.8,4.42,7.8,11.48,12.37,16.34-2.94,2.94-6.63,7.8-9.42,11.63Z" fill="#006194"/>
      <path d="M957.52,106.89c-2.94,2.8-7.8,7.66-11.34,11.04,0,0-7.8-5.74-11.63-8.24v-24.59c0-7.07-3.24-10.16-7.8-12.07l-4.86,3.24v27.68c1.77,1.47,3.09,2.21,5.01,3.68v.15c-2.65,2.36-7.36,6.48-10.89,10.01-2.94-2.5-8.24-6.18-11.78-8.69v-.59c1.47-1.03,2.5-2.65,2.5-7.51V12.96c0-3.53-.3-5.89-1.47-7.51l.59-.29c2.21.74,5.15,3.09,6.18,6.04h.29c2.06-5.15,5.89-9.42,11.48-11.19l.44.29c-1.33,2.06-2.36,4.71-2.36,9.86v32.83l16.64-12.07c3.24,5.15,8.54,15.31,11.48,21.2.74-.44,1.62-1.32,2.21-2.21h.15c.29.88,1.33,2.94,1.33,3.53-4.71,3.39-10.01,7.21-15.46,10.89,4.71,2.21,11.48,6.33,11.48,13.84v25.03c2.36,1.77,5.74,3.53,7.51,3.39l.29.29ZM927.78,42.99l-5.89,3.83v25.62c5.01-3.39,10.6-7.51,15.46-11.04-2.8-6.04-6.77-13.99-9.57-18.4Z" fill="#006194"/>
      <path d="M49.17,222.61c-6.77,6.28-8.54,7.85-16.19,14.04-7.66-3.93-12.86-6.28-18.35-6.28-5.89,0-11.39,2.06-11.39,12.76h-.2l-3.04-2.55c1.77-11.39,9.23-20.91,18.35-20.91,6.58,0,14.82,2.26,23.75,6.48,3.73-4.12,6.77-7.66,6.77-13.25,0-6.87-3.14-11.19-13.25-11.19-1.86,0-3.63,0-5.2.1-3.43,6.67-8.64,10.01-10.31,10.5l-3.34-2.75.1-.2c3.14.2,8.34-3.73,10.5-7.36-12.17,0-21.1-4.42-21.1-17.27,0-9.91,9.03-16.98,21.49-23.06,8.15,1.77,15.8,4.51,21.49,7.07,1.37-1.86,3.63-4.51,5.5-6.18h.2l1.37,2.45c-4.42,3.24-12.27,14.33-18.26,24.54,13.45.88,20.22,5.69,20.22,14.92,0,6.97-2.36,11.88-9.13,18.16ZM19.73,168.83c-3.63,1.96-5.59,4.91-5.59,8.83,0,8.54,4.12,11.88,16.88,11.88,1.37,0,2.75,0,4.32-.1,1.47-2.45,5.4-8.64,6.97-10.99-7.95-5.59-16.59-8.64-22.57-9.62Z" fill="#006194"/>
      <path d="M138.1,185.41c-1.08.78-1.67,1.77-1.67,4.42v36.51c-3.44,2.65-7.07,5.99-10.11,9.23-2.16-1.47-5.4-3.34-8.44-3.83v16.69c0,3.83.59,5.3,2.36,6.38l-.2.39c-4.52-.59-7.07-3.83-8.54-7.46h-.2c-.79,2.06-3.14,3.63-4.61,4.02l-.29-.2c.78-1.08,1.37-2.06,1.37-5.5v-58.59c-2.85-1.86-3.83-2.26-4.81-2.16l-.29-.29,7.46-7.36c2.26,1.87,6.48,5.2,8.64,6.87,3.34-2.65,5.79-4.81,8.15-6.87,2.55,1.96,8.34,5.69,11.19,7.36v.39ZM126.32,226.24v-37.79c-1.67-1.28-3.53-2.55-4.91-3.43l-3.53,2.94v35.82c3.24,0,6.58,1.28,8.44,2.55v-.1Z" fill="#006194"/>
      <path d="M217.21,186.1c-.88.69-1.67,1.57-1.67,4.42v34.16c-4.51,2.55-11.58,6.97-16.88,10.89-4.32-2.94-9.32-6.09-13.45-8.44v-.39c1.18-.49,1.67-1.77,1.67-3.83v-34.45c5-2.85,11.78-7.17,16.88-10.89,4.12,2.65,9.23,5.89,13.45,8.15v.39ZM205.43,228.5v-38.87c-2.26-1.57-5.59-3.63-8.15-5.1l-.29.1v38.87c2.16,1.57,5.99,3.93,8.24,5.2l.2-.2Z" fill="#006194"/>
      <path d="M286.7,196.31h-.39c-2.45-2.65-6.09-7.95-7.26-10.8l-2.06,2.16v35.73c4.71,2.94,5.59,3.34,7.07,3.34.69,0,1.28-.59,1.87-1.28l.88-.98,1.67,1.47c-5.79,5.79-9.52,9.62-9.52,9.62-4.12-2.75-8.64-5.2-13.74-7.66v-.39c1.08-.98,1.67-1.87,1.67-4.91v-35.14c-2.06-1.57-3.43-2.16-4.91-2.26l-.2-.29c2.26-2.06,5.2-4.71,7.46-7.26,2.75,2.26,5.69,4.91,8.15,6.87,3.43-2.94,4.51-4.12,7.36-6.87,1.86,2.94,5.2,7.66,8.24,10.89-1.96,1.96-4.42,5.2-6.28,7.75Z" fill="#006194"/>
      <path d="M360.61,225.95l-9.52,9.62c-3.83-2.45-9.52-5.79-13.15-7.56v-.39c1.28-.79,1.67-2.36,1.67-4.71v-33.86h-4.12v-.59c5.3-3.43,10.7-12.66,13.45-19.92h.69v14.82h10.11l-2.55,5.69h-7.56v34.55c4.71,3.04,5.1,2.85,6.68,2.85.78,0,1.67-.49,2.06-.98l.79-.88,1.47,1.37Z" fill="#006194"/>
      <path d="M422.74,228.3l-7.66,7.26c-2.16-1.67-6.58-4.81-9.32-6.58v-.39c1.28-.79,1.67-1.87,1.67-4.61v-36.51l-1.28-.78c-2.06-1.28-2.75-1.28-3.83-1.28l-.1-.39,7.66-7.36c2.16,1.67,6.38,4.71,9.32,6.67v.39c-1.18.69-1.67,1.67-1.67,4.32v36.81c3.04,1.96,4.12,2.16,5.01,2.16l.2.29ZM410.37,172.75l-3.14-3.43c2.75-2.75,9.32-9.81,10.99-12.27.78.98,2.75,5.2,3.63,7.46-2.36,1.96-8.34,6.28-11.48,8.24Z" fill="#006194"/>
      <path d="M503.71,228.3c-1.96,1.87-5.2,5.1-7.56,7.36-2.45-1.86-7.36-5.3-9.42-6.67v-.39c.98-.59,1.67-1.77,1.67-4.71v-35.33c-1.77-1.37-3.43-2.36-5.01-3.44,0,0-2.85,2.26-3.44,2.75v38.47c1.18.98,2.06,1.47,3.34,2.45v.1c-2.36,2.06-5.1,4.61-7.17,6.67-2.94-2.26-6.08-4.71-7.95-6.09v-.39c.88-.69,1.67-1.77,1.67-5.01v-36.61c-1.87-1.47-3.63-2.16-4.91-2.26l-.2-.2c2.85-2.65,5-4.71,7.46-7.36,3.14,2.45,6.67,5.01,8.93,6.58h.1l7.75-6.58c3.24,2.26,7.66,5.3,11.19,7.46v.39c-1.08.79-1.67,1.87-1.67,3.93v36.41c1.57,1.18,3.83,2.36,5.01,2.26l.2.2Z" fill="#006194"/>
      <path d="M578.41,242.63s-5.99,7.36-8.15,10.5c-4.81-2.65-10.8-4.32-18.45-3.83-.49.59-.88,1.57-1.28,2.65h-.1c-.2-.39-.98-1.77-1.28-2.45,2.16-3.14,6.28-8.05,11.58-14.04l-12.46-8.44v-.39c.88-.39,1.67-1.57,1.67-4.02v-34.15c5.99-3.34,11.48-6.67,16.88-10.89,4.61,3.04,9.91,6.18,13.45,8.15v.39c-1.08.78-1.67,1.86-1.67,4.12v34.55c0,5.2,4.22,7.85,4.22,11.09,0,2.06-2.65,4.51-4.42,6.77ZM575.56,244.4c-.49-7.26-6.09-7.07-6.97-15.31l-10.11,11.97c9.23.1,12.95,1.57,16.98,3.43l.1-.1ZM568.5,226.24v-36.61c-2.36-1.57-5.3-3.44-8.15-5.1l-.29.2v39.06l6.48,4.71,1.96-2.26Z" fill="#006194"/>
      <path d="M737.06,165.59c-2.45,3.43-6.38,8.44-9.81,12.07-2.94-1.08-8.74-3.34-14.33-5.89v56.53c1.08.1,3.34.1,4.51.1,8.15,0,13.94-2.55,17.86-5.59l.78,1.18c-4.91,6.77-12.07,13.05-26.89,13.05-20.02,0-33.66-11.88-33.66-33.08,0-15.02,11.29-28.17,19.53-32.19l1.28.88c-6.09,5.59-9.13,15.9-9.13,24.14,0,8.93,1.77,15.8,5.3,20.91,3.34-2.45,4.12-5.4,4.12-9.91v-29.15c8.44-6.48,13.94-11.29,19.73-16.39,8.34,3.34,12.07,4.71,16.1,4.71.88,0,1.86-.59,3.14-2.45l1.47,1.08ZM711.15,170.89l-1.08-.49-2.94,2.36v37.2s-7.26,4.51-13.74,9.03c4.02,5.1,10.01,8.15,17.76,9.23v-57.32Z" fill="#006194"/>
      <path d="M797.63,228.2c-1.96,1.87-5.2,5.1-7.56,7.36-2.85-2.16-6.87-4.91-9.42-6.58v-.39c1.18-.49,1.67-1.77,1.67-4.71v-58.2c0-2.36-.2-3.93-.98-5.01l.39-.2c1.37.39,3.34,1.96,4.12,4.02h.2c1.28-3.34,4.22-6.48,7.66-7.46l.29.2c-.78,1.37-1.57,3.14-1.57,6.58v61.93c1.57,1.18,3.83,2.36,5.01,2.26l.2.2Z" fill="#006194"/>
      <path d="M878.6,228.3c-2.85,2.65-5.01,4.71-7.46,7.36-3.14-2.45-6.09-4.61-8.93-6.58h-.1l-7.75,6.58c-3.24-2.26-7.66-5.3-11.19-7.46v-.39c1.08-.78,1.67-1.86,1.67-3.93v-36.41c-1.57-1.18-3.83-2.36-5.01-2.26l-.2-.2c1.96-1.87,5.3-4.91,7.66-7.36,2.94,2.26,6.77,5.01,9.32,6.67v.39c-1.18.59-1.67,1.77-1.67,4.71v35.33c1.87,1.57,3.34,2.94,4.61,3.73,0,0,3.24-2.85,3.83-3.34v-38.18c-1.18-.98-2.06-1.47-3.34-2.45v-.1c1.87-1.67,5.2-4.71,7.26-6.77,1.96,1.67,5.5,4.52,7.85,6.18v.39c-1.18.69-1.67,1.77-1.67,5.01v36.61c1.87,1.47,3.63,2.16,4.91,2.26l.2.2Z" fill="#006194"/>
      <path d="M955.16,186.39c-1.18.79-1.67,2.06-1.67,5.01v33.27c-4.91,2.75-10.6,6.38-16.88,10.89-3.73-2.55-10.3-6.67-13.45-8.44v-.49c.88-.59,1.67-1.57,1.67-3.53v-57.42c0-2.36-.2-3.93-.98-5.01l.39-.2c1.37.39,3.34,1.96,4.12,4.02h.2c1.47-3.34,3.63-6.09,7.66-7.46l.29.2c-.79,1.37-1.57,2.85-1.57,6.58v20.22c3.04-2.55,4.71-4.42,6.97-6.38,3.73,2.45,10.11,6.48,13.25,8.34v.39ZM943.38,228.6v-38.96c-1.87-1.37-4.71-3.04-7.16-4.52l-1.28,1.08v37.3c1.77,1.28,5.99,3.93,8.24,5.3l.2-.2Z" fill="#006194"/>
    </g>
  </g>
</svg>