<?xml version="1.0" encoding="UTF-8"?>
<svg id="Layer_2" data-name="Layer 2" xmlns="http://www.w3.org/2000/svg" viewBox="0 0 285.64 311.47">
  <g id="Layer_1-2" data-name="Layer 1">
    <g>
      <path d="M251.57,308.69c-1.87,0-3.79-.34-5.71-1.02-4.33-1.53-6.3-2.91-8.21-4.24-1.34-.94-2.61-1.83-4.87-2.85-1.24-.56-2.54-.99-3.92-1.45-2.12-.7-4.32-1.43-6.46-2.71-6.79-4.06-9.93-10.42-12.96-16.57l-.38-.77c-.49.35-1.09.56-1.69.56h0c-1.4,0-2.34-1-2.79-1.47-3.29-3.5-6.9-7.16-11.02-10.32-6.11-4.67-10.57-6.32-16.21-8.41-2.42-.89-4.92-1.82-7.8-3.07-2.92-1.27-5.43-2.37-4.9-4.94.04-.17.09-.35.17-.53-1.42-.48-2.83-1.04-4.25-1.68-1.87-.84-3.72-1.8-5.66-2.94-.08-.05-.16-.1-.23-.15-7.76-5.67-12.75-9.8-17.58-13.79-1.91-1.58-3.79-3.13-5.79-4.74-.13-.11-.25-.23-.36-.35-.41.9-1.35,1.78-2.94,1.78h0c-.65,0-1.46-.14-2.62-.45-4.39-1.18-6.81-1.6-9.24-1.6-2.1,0-4.41.31-7.9.77l-1.89.25c-1.59.21-3.23.42-4.91.42-3.71,0-6.79-1.12-9.7-3.51l-1.07-.89c-1.01-.84-1.77-1.46-2.45-1.99-2.17-1.67-4.74-2.91-7.46-4.22-2.75-1.33-5.6-2.7-8.14-4.61-4.44-3.34-7.22-7.07-9.9-10.69-1.68-2.26-3.27-4.4-5.21-6.36-4.72-4.77-10.39-8.3-15.87-11.72-11.7-7.29-23.79-14.83-28.37-34.46-1.59-6.82-.73-13.89.56-20.87-.13.05-.26.09-.39.13-.22.05-.44.08-.66.08-.9,0-1.76-.44-2.29-1.2-6.94-10.08-9.09-25.74-5.12-37.23,1.5-4.34,3.73-5.25,5.34-5.25.22,0,.44.02.68.05-.12-.19-.24-.38-.36-.57-5.52-8.75-12.39-19.63-5.05-31.15,5.18-8.12,14.23-14.99,28.48-21.61.69-.32,1.59-.7,2.65-1.13-.81-.45-1.23-1.08-1.41-1.44-1.1-2.12.08-4.54,2.33-7.76.02-.03.04-.06.07-.09C50.97,5.05,61.01,2.77,69.14,2.77c4.5,0,9.09.81,13.95,1.66,5.65.99,12.06,2.12,19.44,2.14h.73c7.27,0,13.88-.27,19.71-.51,4.93-.2,9.59-.39,13.9-.39,21.39,0,35.68,4.99,54.42,32.27,3,4.36,5.54,8.87,8,13.23,2.83,5.02,5.51,9.77,8.8,14.26,4.66,6.36,10.17,12.03,17.34,17.86.99.8,1.29,2.17.77,3.31,5.4,2.85,7.94,6.8,9.35,11.14.5-.43,1.13-.68,1.8-.69h.11c.97,0,1.99.25,7.98,7.47,4.33,5.22,7.13,9.75,8.32,13.45.94,2.91,1.26,5.72.98,8.59-.21,2.17-.83,8.63-5.13,9.07.04.05.08.11.11.16,3.74,5.21,7.61,10.6,9.16,15.87.45,1.54.85,2.91,1.18,4.15.05-.06.1-.12.15-.18.76-.88,1.82-1.37,2.98-1.37,1.69,0,3.38,1,5.16,3.04,1.94,2.23,3.56,4.32,4.94,6.38,4.86,7.25,6.72,14.13,5.87,21.63-.44,3.85-1.59,7.84-3.52,12.18-.45,1-1.44,1.65-2.54,1.65h-.04c-.48,0-.94-.14-1.34-.37.12.67.23,1.34.33,2.02.26-.08.52-.12.79-.12,2.13,0,2.89,2,3.3,3.07.09.23.21.53.36.89.84,2.07,2.58,6.38,3.55,10.9,1.11,5.18,2.68,14.23.75,16.62-.42.52-.98.88-1.6,1.04.44,1.19.81,2.41,1.05,3.69.42,2.25.37,4.5-.13,6.81,1.26.14,2.61,1.02,2.73,4.13.05,1.26-.5,9.5-2.15,16.96-3.62,16.4-12.22,43.92-29.15,43.92h0ZM251.54,295.11c-.08.32-.18.63-.32.93.34-.2.67-.41,1-.62-.23-.09-.46-.19-.68-.31ZM269.95,258.79c.27,1.57.37,3.2.32,4.87.91-2.2,1.81-4.42,2.65-6.62-.92,1.09-1.78,1.69-2.97,1.75ZM233.79,256.73c.24,1.59.33,3.32.25,5.2.34-.46.83-.81,1.4-.99.23-.07.46-.11.7-.12-.65-1.33-1.41-2.71-2.34-4.08ZM263.02,248.82c.14,1.42.19,2.81.14,4.16.34-.41.79-.72,1.38-.88-.11-.22-.34-.72-.35-.74-.42-.89-.81-1.74-1.17-2.55ZM230.87,245.35c.42.04.83.06,1.24.08-.19-.07-.39-.15-.58-.23-.18-.07-.35-.15-.53-.23-.01.05-.03.11-.05.17-.02.07-.05.14-.08.2ZM207.61,237.42c1.78,1.68,4.01,2.66,6.52,3.48-.56-.48-1.11-.99-1.64-1.53-1.29-1.29-2.51-2.73-3.64-4.29.01.95-.46,1.83-1.24,2.34ZM247.61,229.78c.31,1.47.46,2.94.46,4.36,0,.16,0,.32,0,.48.32-1.62.46-3.33.48-5.04-.21.08-.43.14-.66.17-.09.01-.18.02-.27.02ZM257.91,230.95c.45,1.11.89,2.21,1.31,3.32-.02-1.12.02-2.29.11-3.55-.46.2-.9.24-1.18.24,0,0-.16,0-.24,0ZM120.83,218.3c2.6.83,5.06,2.08,8.24,4.46.36.27,1.01.75,1.5,1.43.04-.08.09-.16.14-.24-.37-.27-.74-.55-1.1-.84-2.51-2-4.68-4.3-6.46-6.81-1.13-1.6-2.06-3.24-2.79-4.89-.24.32-.54.58-.88.78,1.24,1.4,2.6,3.39,1.73,5.45-.1.24-.23.46-.37.67ZM249.63,218.8s.05-.02.08-.03c-.04-.07-.08-.14-.12-.21.01.08.03.16.04.24ZM150.72,213.44c.86.77,1.74,1.66,2.62,2.62-.12-.7-.23-1.45-.31-2.28,0-.03-.09-.83-.13-1.19-.54.39-1.25.7-2.18.84ZM237.91,194.37c.84.9,1.65,1.84,2.41,2.83-.41-1.11-.84-2.21-1.31-3.34-.02.02-.05.04-.07.05-.32.23-.67.38-1.03.46ZM164,194.63c.09,0,.17,0,.25.02-.04-.29-.08-.59-.12-.89-.04.29-.09.58-.14.88ZM213.14,184.08c-4.54,0-8.73,1.19-12.12,3.45-2.27,1.51-3.86,3.5-4.74,5.92.11-.24.24-.48.36-.71,2.83-5.16,8.5-8.21,15.98-8.59.61-.03,1.21-.05,1.8-.05-.43-.02-.86-.03-1.29-.03ZM263.68,183.18c.72.67,1.4,1.35,2.03,2.07-.39-.96-.76-1.89-1.11-2.78-.27.29-.58.53-.93.71ZM186.26,171.9c1.63.43,3.1.64,4.41.64,2,0,3.42-.49,4.74-1.2-.24.04-.48.08-.71.12-1.35.21-2.64.37-3.86.46-.65.05-1.37.07-2.13.07-.04,0-.99,0-2.45-.09ZM169.57,166.75c-.81.94-1.53,1.92-2.14,2.94,1.06-1.12,2.34-1.86,3.77-2.18-.43-.44-.77-.93-1.01-1.47-.2.23-.41.47-.62.71ZM259.13,166.89c.35.36.7.72,1.04,1.1-.09-.53-.18-1.05-.27-1.57-.24.19-.5.35-.77.47ZM103.2,158.81c.42,0,.83.05,1.24.16-.65-1.24-1.21-2.42-1.68-3.54-.12,1.16-.31,2.33-.59,3.5.37-.08.72-.11,1.03-.11ZM198.17,156.43c.01-.06.03-.12.05-.18-.14.02-.28.04-.43.06.13.04.25.08.38.12ZM200.16,145.21c1.11.06,2.26.13,3.42.2-.94-.8-1.85-1.78-2.76-2.95-.16.75-.56,1.78-1.5,2.7.28.02.56.03.84.05ZM157.05,138.84c-3.16,0-5.98.55-7.88,5.64,1.85-3.18,4.39-4.97,7.88-5.64ZM62.49,131.44c.09.04.18.08.27.13,0-.28,0-.56,0-.84-.09.24-.18.48-.27.72ZM123.02,118.32c-.83.24-1.52.6-2.14,1.1-.21.17-.43.41-.66.72-.21.29-.43.64-.64,1.05,1.08-1.13,2.17-2.06,3.44-2.87ZM129.56,114.6c-.16.34-.31.68-.45,1.03.28-.09.58-.18.88-.27-.19-.27-.33-.53-.43-.76ZM208.33,112.04c.75.27,1.44.53,2.08.78.79.32,1.51.68,2.18,1.08-.59-1.87-.97-3.71-1.33-5.49-.04.11-.08.23-.13.34-.59,1.45-1.55,2.57-2.8,3.29ZM65.78,108.69c.03.92.06,1.82.08,2.7.3-.97.63-1.93.98-2.89h-.04c-.26,0-.63-.03-1.03-.17,0,.12,0,.24.01.35ZM162.16,110.17c.73.1,1.44.22,2.14.35-.68-.4-1.34-.8-2.01-1.22,0,.29-.04.58-.13.86ZM17.38,96.31c.8,4,.95,7.34.75,10.76.26-.24.59-.42.99-.57.3-.11.63-.16.95-.16.42,0,.79.05,1.11.17-.58-2.26-1.36-4.55-2.36-6.95-.44-1.07-.92-2.14-1.45-3.24ZM176.22,77.21c.04-.07.09-.14.15-.2,0,0,.01-.02.02-.02-.24-.12-.47-.23-.7-.34.18.19.36.38.54.57ZM108.77,66.76c-4.63,1.17-8.83,3.22-12.6,5.75,3.98-2.36,8.19-4.28,12.6-5.75ZM159.46,66.97c1.66.44,3.35,1,5.08,1.78-1.2-1.17-2.45-2.47-3.85-3.94-.04.2-.1.41-.17.61-.24.64-.61,1.15-1.06,1.56ZM118.45,61.1c.05.28.06.55.04.8-.1,1.39-.85,2.23-2.22,2.86,3.38-.7,6.86-1.14,10.4-1.32-1.42-.4-2.85-.81-4.29-1.22l-.12-.03c-1.29-.37-2.57-.73-3.82-1.08ZM93.61,55.74c-1.27.99-2.54,2.04-3.8,3.16,1.57-.7,3.17-1.28,4.79-1.73-.46-.35-.81-.84-.99-1.42ZM58.41,25.35c.37.34.64.78.78,1.29.03.1.05.21.07.31,5.63-2.77,11.72-5.07,18.14-6.87-1.55.35-3.08.73-4.58,1.13-3.62.96-9.07,2.47-14.41,4.13Z" fill="#236192" fill-rule="evenodd"/>
      <path d="M69.14,5.55c9.39,0,19.46,3.77,33.38,3.8.25,0,.5,0,.75,0,13.43,0,24.24-.9,33.6-.9,20.26,0,33.7,4.24,52.14,31.06,6.28,9.13,10.49,18.89,16.85,27.56,5.34,7.27,11.27,13.04,17.83,18.38l-.06-.02c-.38-.12-.78-.24-1.21-.36-23.35-6.68-21.18-22.67-31.86-37.5-17.58-24.43-49.58-33.91-80.4-33.91-13.33,0-26.44,1.77-38.06,4.88-7.19,1.92-17.91,4.97-24.85,7.74-3.32,1.32-6.47,2.67-8.08,2.67s-1.68-1.33,1.12-5.32c11-14.43,19.6-18.07,28.84-18.07M111.6,18.31c29.58,0,59.63,9.37,75.83,31.83,10.96,15.19,9.36,28.82,32.31,36.89.63.22,1.28.43,1.94.62,15.34,5.51,10.75,17.88,15.48,30.59.92,3.24,2.2,6.29,3.76,9.21,4.33,8.12,12.96,17,15.32,25,1.87,6.35,3.44,11.97,1.42,11.97-1.14,0-3.43-1.78-7.44-6.23-1.58-1.89-2.9-3.94-3.67-6.32-.51-1.58-.92-2.96-1.25-4.19-.34-1.24-.62-2.34-.87-3.32-1.94-7.69-3.16-9.16-10.35-12.96-1.52-.8-2.95-1.52-4.18-2.14h0s0,0,0,0h0c-23.72-13.41-9.35-26.25-25.64-40.41-6.06-5.46-13.9-8.92-20.64-11.73-.49-.21-.98-.41-1.46-.61h0c-11.15-4.63-13.53-7.35-21.61-15.92-9.52-10.1-21.54-18.34-35.81-18.98-.6-.03-1.2-.04-1.8-.04-5.78,0-11.45,1.26-16.95,3.58-6.43,2.71-12.63,6.86-18.51,12.15-.03.03-.05.05-.07.07l-.02.03c-2.77,1.22-5.34,2.85-7.68,4.81-13.75,11.46-17.22,29.5-16.66,46.59.08,2.47.16,4.86.08,7.23-.14,4.18-.81,7.59-2.14,11.53-.5,1.47-1.04,2.9-1.56,4.29-1.44,3.82-2.8,7.42-3.04,10.85-.25,3.47.64,6.73,3.71,9.83,1.29,1.3,2.79,2.52,4.42,3.7,1.63,1.19,3.37,2.34,5.12,3.5h0c6.82,4.51,13.85,11.08,15.83,19.34h0s0,0,0,0c1.37,5.73,2.81,11.73,9.63,16.09,4.82,3.08,11.26,3.97,17.01,7.16,2.45,1.36,5.14,3.48,6.05,6.66.18.64.04.86-.21.86s-.61-.22-.86-.44c-1.24-1.12-2.4-2.05-3.51-2.83-3.71-2.62-6.74-3.57-9.87-4.53h0s-.06-.02-.06-.02c-20.25-6.25-24.57-25.06-46.21-33.48h0s0,0,0,0h0c-28.6-13.64-8.79-29.58-22.24-57.91-12.69-26.74-17.91-47.35,8.42-70.13,17.49-15.13,42.55-21.64,64.92-22.14,1.04-.02,2.07-.03,3.11-.03M56.5,27.37s.02,0,0,.02c-13.75,8.18-33.7,25.23-36.68,41.2-1.88,10.06,1.94,19.27,6.48,30.2,2.74,6.6,5.74,13.85,7.84,22.32,2.1,8.47,3.3,18.18,2.43,29.72-.92,12.11,9.91,16.33,19.85,20.2h0s0,0,0,0h0c20.55,8.53,23.27,27.1,46.39,33.54,6.49,2,9.11,3.78,13.79,8.62,2.6,2.69,2.86,3.95.22,3.95-.98,0-2.37-.17-4.18-.52h0s0,0,0,0h0c-.59-.11-1.19-.21-1.79-.33-3.5-.65-7.2-1.44-11.2-2.97-3.72-1.42-6.3-3.22-8.36-5.27-2.07-2.06-3.62-4.38-5.27-6.85h0s0-.01,0-.01c-4.36-6.51-9.32-13.93-25.15-20.32-30.21-12.2-40.31-19.27-36.12-55.4.31-2.7.55-5.37.56-8.14.01-2.78-.21-5.66-.81-8.78-.6-3.1-1.58-6.42-3.1-10.09-1.52-3.66-3.57-7.66-6.31-12.13-5.71-9.3-13.84-19.8-6.76-30.9,3.9-6.12,11.05-13.03,27.31-20.58,6.03-2.8,20.39-7.5,20.88-7.5M122.07,45.16c11.65,0,22.49,5.99,33.22,15.23,4.86,4.19,2.47,5.36-1.74,5.36-4.79,0-11.94-1.52-13.46-1.83-1.75-.36-3.5-.76-5.23-1.19-3.92-.97-7.83-2.07-11.71-3.19l-.12-.04c-4.22-1.21-8.26-2.36-12.02-3.23-3.79-.87-7.32-1.45-10.53-1.51h0s-.23,0-.23,0h-.26s-.12,0-.12,0h0c-1.19,0-2.34.07-3.47.19-.01,0-.03,0-.04,0-.56,0,2.04-1.76,5.04-3.55,7.24-4.33,14.09-6.25,20.69-6.25M103.32,58.73c3.61,0,7.38.67,11.23,2.12,3.16,1.2-.51,1.85-5.6,3.01-15.37,3.52-27.27,16.17-35.08,29.31-1.39,2.34-2.68,4.75-3.86,7.21-.13.27-.39.84-.71,1.51-.8,1.63-1.85,3.84-2.5,3.84-.28,0-.48-.41-.56-1.44-1.61-20.76,14.99-45.56,37.08-45.56M130.33,66.11c4.66,0,9.54.46,14.62,1.42,8.72,1.33,15.18.93,23.45,6.55,8.07,5.48,13.14,14.4,17.97,25.58,1.92,4.45,5.17,7.48,8.78,9.7,3.59,2.21,7.53,3.61,10.88,4.79,1.22.43,2.36.84,3.34,1.23,5.95,2.39,7.68,8.19,12.92,12.48,1.79,1.47,3.53,2.34,6.39,3.78l.03.02c12.47,6.27,11.94,10.75,15.27,21.03.88,2.72,2.32,5.01,4.04,7.08,1.71,2.06,3.7,3.91,5.69,5.75h0s0,0,0,0h0c3.46,3.21,6.92,6.42,8.61,10.65,0,.02.02.04.03.06h0s.01.03.01.03l.03.09h0c.89,2.54.81,4.5-.58,4.5-.6,0-1.43-.36-2.54-1.19-1.07-.8-2.2-1.62-3.41-2.5h0s0,0,0,0h0c-5.85-4.24-13.25-11.68-22.81-21.8-5.92-6.26-10.04-7.17-18.49-8.72h0s0,0,0,0c-2.71-.5-5.41-1-7.61-2.24-1.71-.96-3.19-2.59-4.4-4.26-5.26-7.22-6.21-11.23-14.56-18.69-3.98-3.55-8.36-6.49-13.06-8.6-8.49-3.81-10.9-5.93-18.24-10.21-1.66-.97-3.31-1.73-5.01-2.26-1.82-.57-3.67-.86-5.53-.86-2.08,0-4.15.36-6.17,1.08h0c-2,.71-3.97,1.8-5.82,3.31-1.61,1.31-3.13,2.93-4.5,4.9-1.25,1.8-2.38,3.88-3.33,6.28-1.24.04-2.46.14-3.64.43-1.25.31-2.44.83-3.55,1.72-.42.34-.81.77-1.16,1.25-.35.48-.67,1.03-.97,1.61-.27.54-.53,1.13-.78,1.74-.25.6-.49,1.24-.72,1.88-2.46,6.73-2.78,6.94-7.62,10.22h0c-.22.15-.46.31-.73.49-.24.16-.54.37-.94.64-3.54,2.43-5.17,4.51-5.82,6.49-.96,2.9.76,10.63-1.12,17.45-3.95,14.31-10.94,17.56,16.74,36.95h0s0,0,0,0c2.66,1.86,5,3.51,6.45,4.86,2.55,2.4,4.25,4.8,5.47,7.01,1.21,2.22,1.94,4.26,2.54,5.95l.03.09c.16.44.3.85.45,1.25.81,2.16,2.02,4.11,3.5,5.87,1.35,1.6,2.93,3.06,4.66,4.38-1.07-.4-2.14-.88-3.17-1.44-1.61-.86-3.16-1.89-4.62-3.05-2.27-1.81-4.3-3.94-5.93-6.25-1.57-2.22-2.77-4.6-3.46-7.01-1.12-3.94-3.37-6.33-6.2-7.96-2.81-1.62-6.16-2.47-9.54-3.32h0c-10.41-2.64-15.59-7.96-18.16-17.97h0c-.86-3.62-1.71-7.13-3.92-10.12-.85-1.15-1.82-2.22-2.89-3.25-1.6-1.54-3.3-2.78-4.89-4.36h0c-4.39-5.44-8.46-12.28-9.84-19.36-6.32-32.22,18.5-75.24,63.83-75.23M178.54,78.73c7.92,3.41,13.78,4.61,23.22,12.83,8.59,8.3,9.49,18.64,2.85,18.64-1.95,0-4.56-.9-7.82-3h0c-8.08-4.89-9.88-13.71-14.12-21.6-1.72-3.19-2.51-4.66-4.13-6.87M10.71,88.41c1.05,0,2.09,1.33,2.85,3.99,3.01,10.52,1.84,15.67.28,26.37-.2,1.38-.4,2.77-.6,4.22-.16,1.19-.32,2.38-.46,3.55-6.18-8.98-8.62-23.66-4.78-34.76.78-2.25,1.75-3.38,2.72-3.38M237.38,99.83c.09,0,11.14,10.91,13.74,19,.94,2.92,1.07,5.34.86,7.48-.46,4.82-1.53,6.58-2.83,6.58-1.82,0-4.11-3.43-5.86-6.71-1.47-2.75-2.68-5.62-3.54-8.66-1.81-6.35-1-11.7-2.37-17.68h0M146.08,102.26c4.82,0,9.01,3.26,13.45,7.06-1.21-.11-2.32-.16-3.38-.16-3.43,0-6.25.55-10.06,1.62-.86.24-1.7.5-2.53.75-.89.28-1.66.53-2.42.77-3.47,1.12-6.02,1.93-7.53,1.93-.87,0-1.39-.27-1.54-.89-.86-3.5,5.71-8.41,9.01-9.93,1.76-.81,3.42-1.16,5.01-1.16M20.07,109.11c.44,0,1,5.2,1.32,7.68,1.42,10.93-1.25,19.36-.17,30.6.58,6.04,2.13,10.87,4.94,15.06,2.8,4.16,6.81,7.62,12.34,10.93,5.51,3.3,13.28,8.89,22.11,12.46,8.19,3.31,18.18,9.41,23.19,16.89h0s0,0,0,0c3.54,5.28,6.68,9.98,14.89,13.13,4.9,1.88,9.32,2.68,13.48,3.43h0s0,0,0,0c6.75,1.22,9.7,1.56,15.23,5.7,1.26.94,1.22,1.26.6,1.26-.43,0-1.14-.15-1.9-.36-4.54-1.22-7.18-1.69-9.96-1.69s-5.45.43-10.16,1.05c-1.57.21-3.07.4-4.54.4-2.63,0-5.19-.62-7.94-2.88-.41-.34-.75-.62-1.07-.88-1.02-.85-1.82-1.5-2.53-2.05-4.71-3.63-10.9-5.3-15.62-8.85-6.83-5.13-9.56-11.49-14.8-16.78-14.95-15.11-37.06-17.19-43.51-44.86-2.67-11.48,2.22-24.39,3.48-35.87.2-1.78.32-4.27.6-4.37,0,0,.01,0,.02,0M156.05,112.53c15.12,0,25.4,7.48,35.84,18.88,1.39,1.52,2.89,3.54,4.49,5.67,1.33,1.76,1.94,3.36,1.75,4.62-.25,1.67-1.9,2.73-5.15,2.8-.12,0-.24,0-.35,0-8.52,0-5.95-6.73-15.33-6.73-.08,0-.17,0-.26,0h0c-.22,0-.45,0-.67,0-7.73,0-14.2-1.72-19.28-1.72-6.28,0-10.43,2.63-12.18,14.37-.69,4.63-2.96,7.4-5.24,10.76-9.58,14.06-7.02,29.29,6.74,39.8,6.3,5.6,7.02,9.75,3.27,9.75-.88,0-2-.23-3.35-.72-2.85-1.03-6.06-2.93-8.94-4.27h0s0,0,0,0h0c-5.04-2.35-10.29-4.78-15.17-9-7-6.04-2.2-17.13-5.38-24.14-1.09-2.72-5.36-6.98-8.46-12.26-7.05-12.03-7.03-17.55,3.62-25.96,1.16-.92,2.03-1.61,2.74-2.53,7.71-10.09,7.57-11.95,20.48-15,2.28-.54,4.49-1.25,6.74-1.98.84-.27,1.69-.55,2.43-.78.8-.25,1.61-.5,2.43-.72,3.28-.57,6.34-.84,9.23-.84M61.43,134.01c.23,4.19,1.09,8.02,2.28,11.41,1.51,4.32,3.54,7.95,5.45,10.76-1.17-.79-2.31-1.57-3.37-2.35-1.43-1.05-2.73-2.12-3.83-3.22-2.46-2.47-3.12-5.2-2.86-8.16.24-2.63,1.21-5.46,2.33-8.44M175.52,141.13c5.55,0,7.73,4.34,13.42,5.76,4.98,1.24,16.94.9,25.13,2.41h0c7.89,1.45,11.32,4.02,16.83,9.85,9.73,10.3,17.44,15.9,23.38,20.2h0s0,0,0,0h.02s0,.01,0,.01c7.92,5.74,12.56,9.11,14.47,18.7.49,2.43.78,4.6.96,6.59.19,1.99.27,3.82.36,5.57h0c.4,8.39,1.29,12.53,4.69,19.78,1.17,2.49,2.27,4.83,2.74,7.37.47,2.53.31,5.27-1.02,8.58-.5,1.25-1.12,2.41-1.79,3.53-.67,1.12-1.41,2.2-2.13,3.27-1.52,2.24-2.26,3.26-2.81,3.26-.68,0-1.09-1.52-2.33-4.23-.23-.51-.47-1.02-.72-1.54h0s0,0,0,0h0c-4.9-10.43-5.77-14.28-3.68-26.61.1-.58.2-1.15.29-1.76,1.17-7.17,2.37-14.46.83-20.91-1.55-6.49-5.84-12.1-15.63-15.86-5.84-2.24-10.23-7.94-14.81-13.88h0s0,0,0,0l-.17-.22h0c-3.97-5.15-8.09-10.45-13.47-14.05-5.18-3.46-9.31-4.44-13.29-4.44-4.42,0-8.66,1.2-13.97,1.55-1.43.09-2.71.12-3.89.12-1.3,0-2.47-.03-3.56-.03-5.68,0-9.29.81-17.91,10.8-3.1,3.6-5.15,7.98-5.5,12.71-.04.51-.06,1.02-.05,1.53,0,1.54,0,2.93,0,4.18,0,1.25-.02,2.38-.04,3.43-.02,1.02-.06,1.93-.11,2.78-.05.85-.11,1.62-.19,2.37-.15,1.37-.38,2.72-.65,4.06-.37,1.81-.81,3.62-1.23,5.42h0c-.49,2.12-.84,4.39-.99,6.68-.14,2.12-.11,4.26.13,6.3.2,1.69.54,3.33,1.06,4.86,2.21,6.53,6.99,9.57,13.22,9.57.8,0,1.63-.05,2.48-.15h0s1.97-.24,1.97-.24c2.15-.26,4.38-.44,6.6-.44,4.26,0,8.51.64,12.26,2.52,2.91,1.46,4.8,3.17,6.61,5.6.23.32.47.64.7.99v.02s.03.03.03.03h0c5.28,7.74,15.18,6.3,22.2,11.34,3.97,2.85,6.36,7.69,4.88,17.58-.39,2-.55,4.04-.48,6.07.19,5.51.36,10.26,7.17,15.71,1.87,1.49,4.09,2.61,6.69,3.23.25.06.5.11.76.16.25.05.51.09.79.13,5.37.82,3.17,5.92-1.47,5.92-1.05,0-2.22-.26-3.45-.89-1.83-.93-3.42-2.87-4.41-6.43h0s-.07-.27-.07-.27c-.22-.84-.55-1.58-.96-2.23-.41-.65-.9-1.21-1.46-1.71-.53-.48-1.11-.89-1.72-1.26-.61-.37-1.25-.7-1.93-1.03-14.47-6.98-14.9-12.35-14.72-17.29.6-16.13-19.73-23.49-33.64-23.49-.53,0-1.06.01-1.57.03-.38.02-.75.02-1.12.02-11.6,0-14.04-8.06-19.28-17.66-2.47-4.54-3.63-6.46-4.18-11.62h0c-.27-2.48-.52-4.84-1.55-7.24-1.03-2.4-2.83-4.81-6.17-7.37h0s-.02-.01-.02-.01c-13.96-10.53-11.69-24.43-3.15-37.21,1.75-2.63,3.38-5.23,4.33-9.37,2.2-9.49,5.99-10.98,11.28-10.98,2.41,0,5.13.31,8.16.31,1.6,0,3.3-.09,5.07-.35.63-.09,1.22-.14,1.78-.14M207.86,155.97c3.82,0,7.24.91,10.94,3.42,5.01,3.39,8.9,8.41,12.65,13.28h0s.14.19.14.19h0s0,0,0,0c4.81,6.24,9.42,12.23,15.97,14.74,15.86,4.49,15.02,22.32,10.86,40.02-.08.35-.16.57-.28.57-.19,0-.5-.53-1.12-1.85-2.41-5.14-6.83-11.7-9.17-16.9-3.2-7.1-4.31-12.82-7.66-19.65-7.07-14.44-18-19.74-26.56-21.56-2.38-3.19-4.98-5.73-7.71-7.7-1.26-.91-2.56-1.7-3.87-2.37-1.94-.99-1.31-1.43.35-1.69,1.94-.31,3.73-.49,5.45-.49M263.21,157.03c.77,0,1.82.66,3.07,2.09,1.8,2.07,3.38,4.09,4.73,6.11,4.09,6.1,6.26,12.37,5.41,19.77-.4,3.53-1.48,7.28-3.3,11.36-.18-.43-.35-.87-.53-1.31-.26-.65-.52-1.31-.78-1.98-1.05-2.7-1.87-4.75-2.67-6.74h0s-.04-.1-.04-.1h0c-.8-1.98-1.58-3.91-2.25-5.63-.7-1.8-1.35-3.52-1.92-5.13-1.74-4.95-2.32-9.64-3.03-14.36-.39-2.59.14-4.09,1.31-4.09M189.28,157.76c2.18,0,4.35.28,6.48.84,2.53.67,5.04,1.76,7.45,3.33,2.07,1.34,4.07,3.02,5.96,5.09-.89-.17-1.81-.24-2.76-.24-.79,0-1.58.05-2.39.14-2.03.22-4.11.66-6.16,1.11-1.2.26-2.4.5-3.61.69-1.21.19-2.43.34-3.63.43-.59.04-1.23.07-1.92.07-9.33,0-26.46-3.95-7.62-10.14,2.66-.87,5.43-1.32,8.2-1.32M103.2,161.59c.95,0,2.05.7,3.26,2.42l.25.35c1.61,2.29,3.39,4.82,4.92,8.19,1.53,3.37,2.82,7.59,3.46,13.3.14,1.27.29,2.48.5,3.64.21,1.16.48,2.28.85,3.35h0c.03.07.05.15.08.23-8.17-5.73-15.16-11.39-17.36-18.91-1.03-3.5.61-12.57,4.04-12.57M206.75,170.06c11.79,0,26.36,12.84,30.57,21.59-.42-.41-.87-.83-1.32-1.26-5.86-5.49-14.47-9.09-22.85-9.09-4.82,0-9.57,1.2-13.66,3.92-2.74,1.82-4.81,4.35-5.91,7.55-1.55,4.53-1.1,10.36,2.29,17.37.64,1.32,3.2,6.05,5.61,10.43-3.19-1.88-7.28-2.68-12.04-2.68-1.4,0-2.85.07-4.36.2-12.42-.1-14.38-7.89-16.88-17.3-1.61-6.06-4.9-30.71,4.78-30.71,1.14,0,2.47.34,4,1.1,6.2,3.08,10.5,4.13,13.71,4.13,4.56,0,6.91-2.12,9.41-3.56,2.04-1.18,4.3-1.69,6.67-1.69M214.46,186.88c8.72,0,15.71,3.48,21,8.93,6.88,7.09,11.17,17.48,12,27.91.09,1.13.11,2.23.06,3.28-1.14-3.5-2.42-6.87-4.38-9.71-4.96-7.19-10.55-10.15-15.43-10.15-10.66,0-17.93,14.11-7.81,28.89,2.37,3.55,5.32,6.35,8.42,8.24-4.75-.45-9.67-2.65-13.87-6.86-2.9-2.91-5.33-6.53-7.13-10.46-1.81-3.96-3.22-8.06-5.55-12.15-8.68-15.19-3.89-27.13,10.99-27.88.57-.03,1.14-.04,1.7-.04M163.87,197.4c.42,0,.94,1.13,1.58,4.09.68,3.18,1.37,5.91,2.15,8.23,2.78,8.26,6.91,11.2,14.49,11.2,1.01,0,2.07-.05,3.21-.15,2.22-.19,4.22-.39,6.08-.39,4.45,0,8.04,1.12,11.63,6.08,1.56,2.16,2.75,4.98,3.06,8.65-.92-.93-1.78-1.91-2.56-2.87-5.12-6.31-11.35-7.06-18.21-7.06-1.04,0-2.1.02-3.17.03-.42,0-.83.01-1.24.01-16.01,0-19.97-5.38-18.43-21.91.27-2.92.71-5.92,1.41-5.92M272.86,203.44c.16,0,.4.48.71,1.29.58,1.52,2.69,6.3,3.78,11.38,1.49,6.95,2.18,14.41,1.1,14.41-.28,0-.68-.5-1.22-1.65h0,0s0,0,0,0c-1.09-2.33-2.15-4.63-2.86-7.11-.61-2.11-.95-4.05-1.17-5.95-.22-1.9-.31-3.76-.4-5.71h0c-.28-4.81-.25-6.65.07-6.65M129.2,204.73c2.37,1.28,4.73,2.38,7.05,3.46h0s0,0,0,0h0c3.87,1.8,7.63,3.55,11.03,6.02,5.29,3.85,12.89,14.85,15.42,20.58.04.09.08.17.12.26-2.42-1.54-4.84-2.62-8.16-4.1l-.04-.02-1.41-.63c-1.09-.49-2.2-1-3.31-1.55-2.05-1-4.29-2.2-6.22-3.43-.84-.53-1.65-1.09-2.43-1.67-1.75-1.3-3.34-2.72-4.67-4.29-1.32-1.56-2.39-3.27-3.1-5.15-.15-.39-.3-.83-.47-1.29h0s0,0,0,0c-.44-1.24-.94-2.66-1.64-4.2-.57-1.26-1.27-2.61-2.17-4M227.33,211.52c4.01,0,8.98,2.92,13.89,10.26,2.73,4.09,4.09,8.51,4.08,12.35-.01,5.96-3.27,9.52-8.04,9.52-1.44,0-3.02-.33-4.69-1.01-3.56-1.46-7.12-4.41-9.86-8.51-7.49-11.2-3.32-22.62,4.61-22.62M250.67,221.37c1.16,2.5,2.29,5.03,3.36,7.52,5.14,11.89,8.76,23.09,4.57,31.24-2.66,5.17-6.86,9.31-10.92,9.31-2.27,0-4.49-1.29-6.39-4.39-1.42-2.31-2.77-6.68-5.88-10.82-2.12-2.83-4.16-4.79-6.17-6.25,1.59.19,3.06.28,4.44.28,17.66,0,18.91-14.81,16.99-26.88M133.05,225.43c5.95,3.64,12.74,4.49,19.06,7.32l1.41.63h0c5.93,2.64,8.84,3.94,14.24,9.1,1.76,1.68,3.71,2.47,5.86,2.81,1.12.18,2.29.24,3.5.24,1.09,0,2.21-.05,3.37-.1,32.72.55,28.04,19.44,36.1,31,2.82,4.04,7.25,6.94,12.53,9.49.58.28,1.14.56,1.65.87.51.3.97.63,1.37.99.37.33.7.71.97,1.14.27.43.49.92.64,1.49l.02.07h0c.77,2.88,1.87,4.95,3.17,6.41,2.58,2.88,5.32,4,8.06,4,4.96,0,9.89-3.65,13.76-7.04,2.21-1.94,4.07-4.77,5.35-7.4.8-1.63,1.53-3.44,2.21-5.43,3.13-9.1,9.14-21.27,12.28-31.99.54-1.86.91-2.59,1.14-2.59.21,0,.31.59.35,1.48.03.8-.42,8.71-2.08,16.25-2.56,11.6-10.48,41.74-26.44,41.74-1.52,0-3.12-.27-4.78-.86-7-2.47-7.1-4.38-12.86-7-3.35-1.52-6.91-2.1-10.1-4.01-6.64-3.97-9.43-10.49-12.71-17.05l-.07-.15-.02-.04h0c-5.42-12.81-11.24-26.18-32.41-26.18-.08,0-.16,0-.24,0-3.15-.15-6.07-.57-8.82-1.23-2.75-.66-5.34-1.57-7.85-2.69-1.83-.82-3.62-1.76-5.39-2.8-10.8-7.89-16.26-12.83-23.26-18.46M167.77,251.87c.25,0,.62.04,1.15.12.9.22,1.82.41,2.76.58,10.64,1.89,17.61.03,26.5,9.02,3.94,3.99,6.32,8.72,8.87,13.78.08.17.67,1.5.32,1.5-.12,0-.36-.16-.77-.6-3.79-4.03-7.37-7.57-11.36-10.62-9.13-6.98-15.09-7.68-24.59-11.82-2.3-1-4.14-1.95-2.89-1.95M265.35,254.79s.02,0,.02,0c.35.06.82.67,1.4,2.57,2.12,6.99-.81,16.45-2.99,22.78-.63,1.85-1.32,3.54-2.06,5.05-.73,1.51-1.52,2.83-2.37,3.96-.77,1.03-1.51,1.89-2.22,2.54-.85.78-1.73,1.37-2.77,1.37-.35,0-.72-.07-1.11-.22-.7-.27-1.46-.79-2.3-1.59-.28-.27-.58-.54-.91-.79-.33-.26-.68-.51-1.05-.73-.4-.23-.82-.44-1.29-.61-.47-.17-.97-.31-1.53-.39-.22-.03-.44-.07-.66-.11-.21-.04-.43-.09-.66-.14-2.19-.52-4.07-1.47-5.65-2.73-3.44-2.76-5.33-6.94-5.95-11.24-.26-1.84-.3-3.74-.12-5.63.21.65.43,1.3.68,1.94.4,1.03.86,2.05,1.37,3.02h0c.75,1.44,1.57,2.74,2.42,3.88,1.97,2.62,4.87,5.24,8.2,5.24.73,0,1.48-.12,2.24-.4.86-.31,1.7-.82,2.52-1.53.66-.58,1.31-1.3,1.93-2.16.6-.83,1.17-1.8,1.72-2.92.33-.67.64-1.36.93-2.03l.02-.04c.39-.87.75-1.69,1.19-2.49,2.23-4.12,6.43-8.04,7.85-12.75.55-1.81.68-3.83,1.13-3.83M236.26,263.59c3.59,4.83,6.95,8.03,9.98,8.71.45.1.9.15,1.34.15,2.74,0,5.18-1.83,7.31-3.85-.94,1.39-1.53,2.72-2.17,4.16h0s-.01.03-.01.03c-.27.61-.55,1.24-.9,1.96-.47.96-.96,1.79-1.45,2.49-1.53,2.16-3.06,3.03-4.52,3.03-4.07,0-7.58-6.77-8.85-11.02-.61-2.05-.78-3.88-.72-5.66M69.14,0c-12.48,0-22.43,6.06-33.25,20.26-.04.06-.09.12-.13.18-1.48,2.11-4.14,5.9-2.94,9.63-14.48,6.79-23.76,13.92-29.18,22.41-7.49,11.75-1.92,22.85,3.38,31.46-1.55.97-3.13,2.77-4.27,6.04-4.24,12.26-1.94,28.96,5.46,39.71.61.88,1.43,1.54,2.37,1.95-1.02,6.29-1.47,12.66,0,18.97,4.84,20.75,18,28.95,29.61,36.19,5.59,3.48,10.87,6.78,15.36,11.32,1.8,1.82,3.33,3.88,4.95,6.07,2.67,3.6,5.7,7.67,10.46,11.25,2.75,2.07,5.72,3.5,8.6,4.89,2.59,1.25,5.03,2.43,6.97,3.92.64.49,1.41,1.13,2.38,1.93l1.08.89c3.43,2.83,7.08,4.14,11.46,4.14,1.86,0,3.67-.24,5.27-.45l1.9-.25c3.39-.45,5.62-.75,7.54-.75,2.19,0,4.34.38,8.52,1.5,1.41.38,2.44.55,3.34.55,1.14,0,2.2-.28,3.1-.8,1.42,1.16,2.8,2.29,4.23,3.48,4.86,4.02,9.88,8.17,17.7,13.89.15.11.3.21.46.3,2.03,1.19,3.97,2.2,5.93,3.08.8.36,1.6.69,2.39,1,.38,3.44,4.06,5.04,6.61,6.15,2.95,1.28,5.6,2.27,7.94,3.13,5.43,2.01,9.72,3.59,15.49,8.01,3.97,3.03,7.48,6.61,10.69,10.02.6.64,2.21,2.35,4.81,2.35.08,0,.16,0,.24,0,2.91,5.86,6.4,12.23,13.37,16.39,2.41,1.44,4.85,2.25,7.01,2.96,1.3.43,2.54.84,3.64,1.34,2.03.92,3.14,1.7,4.43,2.6,1.96,1.37,4.19,2.93,8.88,4.58,2.22.78,4.45,1.18,6.63,1.18,9.89,0,23.45-8,31.86-46.09,1.7-7.68,2.27-16.15,2.21-17.67-.12-3.03-1.2-4.71-2.42-5.65.21-1.9.13-3.78-.22-5.68-.13-.68-.28-1.35-.46-1.99.16-.15.3-.32.44-.49.99-1.22,3.05-3.77-.19-18.94-1.02-4.76-2.82-9.22-3.69-11.36-.14-.35-.26-.63-.34-.84-.22-.57-.65-1.69-1.47-2.71.37-.42.68-.89.91-1.42,2.04-4.6,3.26-8.85,3.74-12.99.94-8.2-1.07-15.66-6.32-23.49-1.45-2.16-3.13-4.34-5.15-6.66-2.34-2.69-4.71-4-7.26-4-.49,0-.97.05-1.43.15-.07-.25-.15-.5-.22-.76-1.42-4.84-4.51-9.58-7.78-14.2.78-.68,1.53-1.63,2.13-2.93.8-1.71,1.31-3.91,1.6-6.92.31-3.26-.05-6.43-1.11-9.71-1.3-4.04-4.27-8.88-8.83-14.37-1.73-2.09-3.32-3.82-4.35-4.91-2.25-2.37-3.38-3.56-5.85-3.56-.05,0-.11,0-.16,0-1.52-3.43-3.93-6.61-8-9.16-.09-1.51-.79-2.97-2.04-3.99-6.98-5.68-12.34-11.19-16.86-17.35-3.19-4.35-5.83-9.03-8.62-13.98-2.49-4.41-5.06-8.98-8.13-13.44C174.14,8.07,159.23,2.9,136.87,2.9c-4.37,0-9.06.19-14.01.4-5.8.24-12.38.51-19.59.51h-.73c-7.14-.02-13.16-1.08-18.97-2.1-4.98-.88-9.69-1.7-14.43-1.7h0Z" fill="#a2aaad"/>
    </g>
  </g>
</svg>