<?xml version="1.0" encoding="UTF-8"?>
<svg id="Layer_2" data-name="Layer 2" xmlns="http://www.w3.org/2000/svg" viewBox="0 0 929.32 125.12">
  <g id="Layer_1-2" data-name="Layer 1">
    <g>
      <g>
        <path d="M44.61,96.47c-23.33,0-41.98-15.44-41.98-40.15,0-18.53,11.44-30.65,22.3-36.37l1.37,1.14c-6.41,5.15-10.07,16.01-10.07,28.48,0,9.15,1.94,17.5,5.6,24.36,4.12-2.86,4.8-5.72,4.8-11.55V28.18c10.52-7.21,17.5-12.7,23.91-19.33,22.65,2.06,39.81,14.53,39.81,43.35,0,31.91-28.48,44.27-45.75,44.27ZM43.58,18.57l-4.69,4v42.32s-8.47,5.26-16.13,10.64c4.58,7.78,11.55,13.27,20.82,15.56V18.57ZM74,40.54c-4.35-12.81-14.3-19.45-28.37-21.62v34.54l28.37-12.93ZM76.06,50.26c-.34-2.86-.8-5.61-1.49-8.01l-28.94,13.04v8.81l30.43-13.84ZM76.29,51.97l-30.66,13.95v25.51c1.37.23,2.86.34,4.46.34,16.01,0,26.42-11.67,26.42-34.32,0-1.83-.11-4-.23-5.49Z" fill="#006194" stroke="#6f263d" stroke-width="5.25"/>
        <path d="M133.14,102.99s-6.98,8.58-9.49,12.24c-5.6-3.09-12.58-5.03-21.5-4.46-.57.69-1.03,1.83-1.49,3.09h-.11c-.23-.46-1.14-2.06-1.49-2.86,2.52-3.66,7.32-9.38,13.5-16.36l-14.53-9.84v-.46c1.03-.46,1.94-1.83,1.94-4.69v-39.81c6.98-3.89,13.38-7.78,19.67-12.7,5.38,3.55,11.55,7.21,15.67,9.49v.46c-1.26.92-1.94,2.17-1.94,4.8v40.26c0,6.06,4.92,9.15,4.92,12.93,0,2.4-3.09,5.26-5.15,7.89ZM129.82,105.05c-.57-8.46-7.09-8.24-8.12-17.84l-11.78,13.96c10.75.11,15.1,1.83,19.79,4l.11-.11ZM121.59,83.89v-42.67c-2.75-1.83-6.18-4-9.49-5.95l-.34.23v45.53l7.55,5.49,2.29-2.63Z" fill="#006194" stroke="#6f263d" stroke-width="5.25"/>
        <path d="M179.47,38.36c-1.37,1.14-1.94,2.06-1.94,6.29v37.4c-6.52,3.66-12.35,7.21-19.56,12.7-3.77-2.52-11.44-7.09-15.79-9.49v-.46c1.14-.57,1.95-1.72,1.95-4v-42.32c2.52-1.37,8.69-5.03,12.47-7.55l-4.12-4.46c-5.49-6.06-6.63-7.32-6.63-12.12,0-3.43,1.94-7.89,3.66-11.1l1.26.46c-.69,3.2.11,5.6,6.52,12.01,0,0,18.07,18.87,22.19,22.19v.46ZM165.74,86.4v-45.75l-7.32-7.78-2.52,1.6v46.33c2.29,1.49,7.09,4.35,9.61,5.72l.23-.11Z" fill="#006194" stroke="#6f263d" stroke-width="5.25"/>
        <path d="M200.05,60.9v17.5c6.98,4.46,9.84,5.6,11.9,5.6.8,0,1.6-.46,2.4-1.26l1.03-1.03,1.72,1.83c-2.63,2.52-8.12,8.01-10.98,11.21-4.92-3.09-13.96-8.24-19.79-11.1v-.46c1.37-1.03,1.94-2.06,1.94-5.6v-41.18c5.95-1.6,13.84-4.92,20.59-9.26,2.63,5.72,8.58,17.04,11.78,22.19-4.12,3.09-14.07,8.01-20.59,11.55ZM200.63,34.7l-.57.11v23.11c3.55-1.72,8.01-3.89,10.41-5.49-2.86-4.69-7.89-13.38-9.84-17.73Z" fill="#006194" stroke="#6f263d" stroke-width="5.25"/>
        <path d="M266.51,86.29c-2.29,2.17-6.06,5.95-8.81,8.58-2.86-2.17-8.58-6.18-10.98-7.78v-.46c1.14-.69,1.94-2.06,1.94-5.49v-41.18c-2.06-1.6-4-2.75-5.83-4,0,0-3.32,2.63-4,3.2v44.84c1.37,1.14,2.4,1.72,3.89,2.86v.11c-2.75,2.4-5.95,5.38-8.35,7.78-3.43-2.63-7.09-5.49-9.27-7.09v-.46c1.03-.8,1.95-2.06,1.95-5.83v-42.67c-2.17-1.72-4.23-2.52-5.72-2.63l-.23-.23c3.32-3.09,5.83-5.49,8.69-8.58,3.66,2.86,7.78,5.83,10.41,7.66h.11l9.04-7.66c3.77,2.63,8.92,6.18,13.04,8.69v.46c-1.26.92-1.94,2.17-1.94,4.58v42.44c1.83,1.37,4.46,2.75,5.83,2.63l.23.23Z" fill="#006194" stroke="#6f263d" stroke-width="5.25"/>
        <path d="M297.85,58.95c-8.01,2.29-20.02,7.32-25.16,10.29.11-3.2.23-8.01.23-10.75,5.72-3.43,17.84-8.01,25.16-10.07-.11,2.86-.23,8.24-.23,10.52Z" fill="#006194" stroke="#6f263d" stroke-width="5.25"/>
        <path d="M349.67,86.29c-3.32,3.09-5.83,5.49-8.69,8.58-3.66-2.86-7.09-5.38-10.41-7.66h-.11l-9.04,7.66c-3.77-2.63-8.92-6.18-13.04-8.69v-.46c1.26-.92,1.94-2.17,1.94-4.58v-42.44c-1.83-1.37-4.46-2.75-5.83-2.63l-.23-.23c2.29-2.17,6.18-5.72,8.92-8.58,3.43,2.63,7.89,5.83,10.87,7.78v.46c-1.37.69-1.94,2.06-1.94,5.49v41.18c2.17,1.83,3.89,3.43,5.38,4.35,0,0,3.77-3.32,4.46-3.89v-44.5c-1.37-1.14-2.4-1.72-3.89-2.86v-.11c2.17-1.94,6.06-5.49,8.46-7.89,2.29,1.94,6.41,5.26,9.15,7.21v.46c-1.37.8-1.94,2.06-1.94,5.83v42.67c2.17,1.72,4.23,2.52,5.72,2.63l.23.23Z" fill="#006194" stroke="#6f263d" stroke-width="5.25"/>
        <path d="M391.88,36.3c-1.26.92-1.94,2.06-1.94,5.15v42.55c-4,3.09-8.24,6.98-11.78,10.75-2.52-1.72-6.29-3.89-9.84-4.46v19.45c0,4.46.69,6.18,2.75,7.43l-.23.46c-5.26-.69-8.24-4.46-9.95-8.69h-.23c-.91,2.4-3.66,4.23-5.38,4.69l-.34-.23c.92-1.26,1.6-2.4,1.6-6.41V38.71c-3.32-2.17-4.46-2.63-5.6-2.52l-.34-.34,8.69-8.58c2.63,2.17,7.55,6.06,10.07,8.01,3.89-3.09,6.75-5.6,9.49-8.01,2.97,2.29,9.72,6.63,13.04,8.58v.46ZM378.15,83.89v-44.04c-1.94-1.49-4.12-2.97-5.72-4l-4.12,3.43v41.75c3.78,0,7.66,1.49,9.84,2.97v-.11Z" fill="#006194" stroke="#6f263d" stroke-width="5.25"/>
        <path d="M436.03,37.1c-1.03.8-1.94,1.83-1.94,5.15v39.81c-5.26,2.97-13.5,8.12-19.67,12.7-5.03-3.43-10.87-7.09-15.67-9.84v-.46c1.37-.57,1.94-2.06,1.94-4.46v-40.15c5.83-3.32,13.73-8.35,19.67-12.7,4.8,3.09,10.75,6.86,15.67,9.49v.46ZM422.3,86.52v-45.3c-2.63-1.83-6.52-4.23-9.49-5.95l-.34.11v45.3c2.52,1.83,6.98,4.58,9.61,6.06l.23-.23Z" fill="#006194" stroke="#6f263d" stroke-width="5.25"/>
        <path d="M485.33,86.29c-2.29,2.17-6.06,5.95-8.81,8.58-2.86-2.17-8.58-6.18-10.98-7.78v-.46c1.14-.69,1.94-2.06,1.94-5.49v-41.18c-2.06-1.6-4-2.75-5.83-4,0,0-3.32,2.63-4,3.2v44.84c1.37,1.14,2.4,1.72,3.89,2.86v.11c-2.75,2.4-5.95,5.38-8.35,7.78-3.43-2.63-7.09-5.49-9.27-7.09v-.46c1.03-.8,1.94-2.06,1.94-5.83v-42.67c-2.17-1.72-4.23-2.52-5.72-2.63l-.23-.23c3.32-3.09,5.83-5.49,8.69-8.58,3.66,2.86,7.78,5.83,10.41,7.66h.11l9.04-7.66c3.77,2.63,8.92,6.18,13.04,8.69v.46c-1.26.92-1.94,2.17-1.94,4.58v42.44c1.83,1.37,4.46,2.75,5.83,2.63l.23.23Z" fill="#006194" stroke="#6f263d" stroke-width="5.25"/>
        <path d="M516.67,58.95c-8.01,2.29-20.02,7.32-25.16,10.29.11-3.2.23-8.01.23-10.75,5.72-3.43,17.84-8.01,25.16-10.07-.11,2.86-.23,8.24-.23,10.52Z" fill="#006194" stroke="#6f263d" stroke-width="5.25"/>
        <path d="M596.63,122.32l-2.97-.69v-.23c2.97-1.94,5.72-4.46,5.72-8.92,0-4.12-2.52-6.18-6.98-6.18-12.7,0-25.51,15.33-45.18,15.33-10.41,0-17.5-5.72-17.5-14.53,0-8.35,4.46-13.73,15.33-15.21v-32.26h-1.49c-5.49,0-9.15,1.37-10.98,5.15l-1.03-.46c.34-11.9,6.52-16.81,13.15-16.81h.34v-19.45c-8.24-5.83-11.44-7.89-13.38-7.89-1.72,0-2.86.92-5.38,3.09l-1.37-1.6c5.6-4.58,9.84-8.01,15.1-12.47,4.58,3.43,10.87,8.01,18.42,13.38v67.6c1.72-.11,3.43-.34,4.92-.46V16.86c0-2.86-.57-5.83-1.03-7.32v-.23l2.4.34c.34,1.37.69,4.23.69,6.41v6.18c2.52-2.06,11.1-9.04,15.79-12.93,11.44,4.23,18.64,11.21,18.64,26.88v23.68c0,18.19-4.92,29.28-24.25,31.11-13.04,1.26-16.47,1.83-29.74,3.32-8.92,1.03-12.12,5.6-12.12,9.49,0,3.66,2.4,5.61,10.29,5.61,13.73,0,26.31-14.41,41.29-14.41,12.35,0,18.53,5.83,18.53,15.56,0,5.49-4,9.84-7.21,11.78ZM586.56,38.82v-1.14c0-9.61-2.4-15.21-13.5-18.99l-7.66,6.18v23.56l21.16-9.61ZM586.56,49.46v-8.46l-21.16,9.49v8.58l21.16-9.61ZM586.56,51.75l-21.16,9.49v28.25c16.36-2.06,21.16-8.01,21.16-24.59v-13.15Z" fill="#006194" stroke="#6f263d" stroke-width="5.25"/>
        <path d="M645.58,37.1c-1.03.8-1.94,1.83-1.94,5.15v39.81c-5.26,2.97-13.5,8.12-19.67,12.7-5.03-3.43-10.87-7.09-15.67-9.84v-.46c1.37-.57,1.95-2.06,1.95-4.46v-40.15c5.83-3.32,13.73-8.35,19.67-12.7,4.8,3.09,10.75,6.86,15.67,9.49v.46ZM631.86,86.52v-45.3c-2.63-1.83-6.52-4.23-9.49-5.95l-.34.11v45.3c2.52,1.83,6.98,4.58,9.61,6.06l.23-.23Z" fill="#006194" stroke="#6f263d" stroke-width="5.25"/>
        <path d="M678.52,49h-.46c-2.86-3.09-7.09-9.26-8.46-12.58l-2.4,2.52v41.64c5.49,3.43,6.52,3.89,8.24,3.89.8,0,1.49-.69,2.17-1.49l1.03-1.14,1.94,1.72c-6.75,6.75-11.1,11.21-11.1,11.21-4.8-3.2-10.07-6.06-16.01-8.92v-.46c1.26-1.14,1.94-2.17,1.94-5.72v-40.95c-2.4-1.83-4-2.52-5.72-2.63l-.23-.34c2.63-2.4,6.06-5.49,8.69-8.46,3.2,2.63,6.63,5.72,9.49,8.01,4-3.43,5.26-4.8,8.58-8.01,2.17,3.43,6.06,8.92,9.61,12.7-2.29,2.29-5.15,6.06-7.32,9.04Z" fill="#006194" stroke="#6f263d" stroke-width="5.25"/>
        <path d="M731.26,86.29c-2.29,2.17-6.06,5.95-8.81,8.58,0,0-6.06-4.46-9.04-6.41v-19.1c0-5.49-2.52-7.89-6.06-9.38l-3.78,2.52v21.5c1.37,1.14,2.4,1.72,3.89,2.86v.11c-2.06,1.83-5.72,5.03-8.46,7.78-2.29-1.94-6.41-4.8-9.15-6.75v-.46c1.14-.8,1.94-2.06,1.94-5.83V13.31c0-2.75-.23-4.58-1.14-5.83l.46-.23c1.72.57,4,2.4,4.8,4.69h.23c1.6-4,4.58-7.32,8.92-8.69l.34.23c-1.03,1.6-1.83,3.66-1.83,7.66v25.51l12.93-9.38c2.52,4,6.64,11.9,8.92,16.47.57-.34,1.26-1.03,1.72-1.72h.11c.23.69,1.03,2.29,1.03,2.75-3.66,2.63-7.78,5.6-12.01,8.46,3.66,1.72,8.92,4.92,8.92,10.75v19.45c1.83,1.37,4.46,2.75,5.83,2.63l.23.23ZM708.15,36.65l-4.58,2.97v19.9c3.89-2.63,8.24-5.83,12.01-8.58-2.17-4.69-5.26-10.87-7.44-14.3Z" fill="#006194" stroke="#6f263d" stroke-width="5.25"/>
        <path d="M803.66,79.66c-7.89,7.32-9.95,9.15-18.87,16.36-8.92-4.58-14.98-7.32-21.39-7.32-6.86,0-13.27,2.4-13.27,14.87h-.23l-3.55-2.97c2.06-13.27,10.75-24.36,21.39-24.36,7.66,0,17.27,2.63,27.68,7.55,4.35-4.8,7.89-8.92,7.89-15.44,0-8.01-3.66-13.04-15.44-13.04-2.17,0-4.23,0-6.06.11-4,7.78-10.07,11.67-12.01,12.24l-3.89-3.2.11-.23c3.66.23,9.72-4.35,12.24-8.58-14.18,0-24.59-5.15-24.59-20.13,0-11.55,10.52-19.79,25.05-26.88,9.49,2.06,18.42,5.26,25.05,8.24,1.6-2.17,4.23-5.26,6.41-7.21h.23l1.6,2.86c-5.15,3.77-14.3,16.7-21.28,28.6,15.67,1.03,23.56,6.63,23.56,17.39,0,8.12-2.75,13.84-10.64,21.16ZM769.35,16.97c-4.23,2.29-6.52,5.72-6.52,10.29,0,9.95,4.8,13.84,19.67,13.84,1.6,0,3.2,0,5.03-.11,1.72-2.86,6.29-10.07,8.12-12.81-9.26-6.52-19.33-10.07-26.31-11.21Z" fill="#006194" stroke="#6f263d" stroke-width="3.5"/>
        <path d="M830.2,87.55c-3.43,3.09-5.38,5.03-8.46,8.12l-8.24-8.12c1.83-1.6,4.92-4.58,8.24-8.01l8.46,8.01Z" fill="#006194" stroke="#6f263d" stroke-width="3.5"/>
        <path d="M907.3,13.2c-2.86,4-7.44,9.84-11.44,14.07-3.43-1.26-10.18-3.89-16.7-6.86v65.89c1.26.11,3.89.11,5.26.11,9.49,0,16.24-2.97,20.82-6.52l.92,1.37c-5.72,7.89-14.07,15.21-31.34,15.21-23.33,0-39.23-13.84-39.23-38.55,0-17.5,13.15-32.83,22.76-37.52l1.49,1.03c-7.09,6.52-10.64,18.53-10.64,28.14,0,10.41,2.06,18.42,6.18,24.36,3.89-2.86,4.8-6.29,4.8-11.55V28.41c9.84-7.55,16.24-13.15,22.99-19.1,9.72,3.89,14.07,5.49,18.76,5.49,1.03,0,2.17-.69,3.66-2.86l1.72,1.26ZM877.1,19.37l-1.26-.57-3.43,2.75v43.35s-8.46,5.26-16.01,10.52c4.69,5.95,11.67,9.49,20.7,10.75V19.37Z" fill="#006194" stroke="#6f263d" stroke-width="3.5"/>
        <path d="M926.74,87.55c-3.43,3.09-5.38,5.03-8.46,8.12l-8.24-8.12c1.83-1.6,4.92-4.58,8.24-8.01l8.46,8.01Z" fill="#006194" stroke="#6f263d" stroke-width="3.5"/>
      </g>
      <g>
        <path d="M44.61,96.47c-23.33,0-41.98-15.44-41.98-40.15,0-18.53,11.44-30.65,22.3-36.37l1.37,1.14c-6.41,5.15-10.07,16.01-10.07,28.48,0,9.15,1.94,17.5,5.6,24.36,4.12-2.86,4.8-5.72,4.8-11.55V28.18c10.52-7.21,17.5-12.7,23.91-19.33,22.65,2.06,39.81,14.53,39.81,43.35,0,31.91-28.48,44.27-45.75,44.27ZM43.58,18.57l-4.69,4v42.32s-8.47,5.26-16.13,10.64c4.58,7.78,11.55,13.27,20.82,15.56V18.57ZM74,40.54c-4.35-12.81-14.3-19.45-28.37-21.62v34.54l28.37-12.93ZM76.06,50.26c-.34-2.86-.8-5.61-1.49-8.01l-28.94,13.04v8.81l30.43-13.84ZM76.29,51.97l-30.66,13.95v25.51c1.37.23,2.86.34,4.46.34,16.01,0,26.42-11.67,26.42-34.32,0-1.83-.11-4-.23-5.49Z" fill="#006194"/>
        <path d="M133.14,102.99s-6.98,8.58-9.49,12.24c-5.6-3.09-12.58-5.03-21.5-4.46-.57.69-1.03,1.83-1.49,3.09h-.11c-.23-.46-1.14-2.06-1.49-2.86,2.52-3.66,7.32-9.38,13.5-16.36l-14.53-9.84v-.46c1.03-.46,1.94-1.83,1.94-4.69v-39.81c6.98-3.89,13.38-7.78,19.67-12.7,5.38,3.55,11.55,7.21,15.67,9.49v.46c-1.26.92-1.94,2.17-1.94,4.8v40.26c0,6.06,4.92,9.15,4.92,12.93,0,2.4-3.09,5.26-5.15,7.89ZM129.82,105.05c-.57-8.46-7.09-8.24-8.12-17.84l-11.78,13.96c10.75.11,15.1,1.83,19.79,4l.11-.11ZM121.59,83.89v-42.67c-2.75-1.83-6.18-4-9.49-5.95l-.34.23v45.53l7.55,5.49,2.29-2.63Z" fill="#006194"/>
        <path d="M179.47,38.36c-1.37,1.14-1.94,2.06-1.94,6.29v37.4c-6.52,3.66-12.35,7.21-19.56,12.7-3.77-2.52-11.44-7.09-15.79-9.49v-.46c1.14-.57,1.95-1.72,1.95-4v-42.32c2.52-1.37,8.69-5.03,12.47-7.55l-4.12-4.46c-5.49-6.06-6.63-7.32-6.63-12.12,0-3.43,1.94-7.89,3.66-11.1l1.26.46c-.69,3.2.11,5.6,6.52,12.01,0,0,18.07,18.87,22.19,22.19v.46ZM165.74,86.4v-45.75l-7.32-7.78-2.52,1.6v46.33c2.29,1.49,7.09,4.35,9.61,5.72l.23-.11Z" fill="#006194"/>
        <path d="M200.05,60.9v17.5c6.98,4.46,9.84,5.6,11.9,5.6.8,0,1.6-.46,2.4-1.26l1.03-1.03,1.72,1.83c-2.63,2.52-8.12,8.01-10.98,11.21-4.92-3.09-13.96-8.24-19.79-11.1v-.46c1.37-1.03,1.94-2.06,1.94-5.6v-41.18c5.95-1.6,13.84-4.92,20.59-9.26,2.63,5.72,8.58,17.04,11.78,22.19-4.12,3.09-14.07,8.01-20.59,11.55ZM200.63,34.7l-.57.11v23.11c3.55-1.72,8.01-3.89,10.41-5.49-2.86-4.69-7.89-13.38-9.84-17.73Z" fill="#006194"/>
        <path d="M266.51,86.29c-2.29,2.17-6.06,5.95-8.81,8.58-2.86-2.17-8.58-6.18-10.98-7.78v-.46c1.14-.69,1.94-2.06,1.94-5.49v-41.18c-2.06-1.6-4-2.75-5.83-4,0,0-3.32,2.63-4,3.2v44.84c1.37,1.14,2.4,1.72,3.89,2.86v.11c-2.75,2.4-5.95,5.38-8.35,7.78-3.43-2.63-7.09-5.49-9.27-7.09v-.46c1.03-.8,1.95-2.06,1.95-5.83v-42.67c-2.17-1.72-4.23-2.52-5.72-2.63l-.23-.23c3.32-3.09,5.83-5.49,8.69-8.58,3.66,2.86,7.78,5.83,10.41,7.66h.11l9.04-7.66c3.77,2.63,8.92,6.18,13.04,8.69v.46c-1.26.92-1.94,2.17-1.94,4.58v42.44c1.83,1.37,4.46,2.75,5.83,2.63l.23.23Z" fill="#006194"/>
        <path d="M297.85,58.95c-8.01,2.29-20.02,7.32-25.16,10.29.11-3.2.23-8.01.23-10.75,5.72-3.43,17.84-8.01,25.16-10.07-.11,2.86-.23,8.24-.23,10.52Z" fill="#006194"/>
        <path d="M349.67,86.29c-3.32,3.09-5.83,5.49-8.69,8.58-3.66-2.86-7.09-5.38-10.41-7.66h-.11l-9.04,7.66c-3.77-2.63-8.92-6.18-13.04-8.69v-.46c1.26-.92,1.94-2.17,1.94-4.58v-42.44c-1.83-1.37-4.46-2.75-5.83-2.63l-.23-.23c2.29-2.17,6.18-5.72,8.92-8.58,3.43,2.63,7.89,5.83,10.87,7.78v.46c-1.37.69-1.94,2.06-1.94,5.49v41.18c2.17,1.83,3.89,3.43,5.38,4.35,0,0,3.77-3.32,4.46-3.89v-44.5c-1.37-1.14-2.4-1.72-3.89-2.86v-.11c2.17-1.94,6.06-5.49,8.46-7.89,2.29,1.94,6.41,5.26,9.15,7.21v.46c-1.37.8-1.94,2.06-1.94,5.83v42.67c2.17,1.72,4.23,2.52,5.72,2.63l.23.23Z" fill="#006194"/>
        <path d="M391.88,36.3c-1.26.92-1.94,2.06-1.94,5.15v42.55c-4,3.09-8.24,6.98-11.78,10.75-2.52-1.72-6.29-3.89-9.84-4.46v19.45c0,4.46.69,6.18,2.75,7.43l-.23.46c-5.26-.69-8.24-4.46-9.95-8.69h-.23c-.91,2.4-3.66,4.23-5.38,4.69l-.34-.23c.92-1.26,1.6-2.4,1.6-6.41V38.71c-3.32-2.17-4.46-2.63-5.6-2.52l-.34-.34,8.69-8.58c2.63,2.17,7.55,6.06,10.07,8.01,3.89-3.09,6.75-5.6,9.49-8.01,2.97,2.29,9.72,6.63,13.04,8.58v.46ZM378.15,83.89v-44.04c-1.94-1.49-4.12-2.97-5.72-4l-4.12,3.43v41.75c3.78,0,7.66,1.49,9.84,2.97v-.11Z" fill="#006194"/>
        <path d="M436.03,37.1c-1.03.8-1.94,1.83-1.94,5.15v39.81c-5.26,2.97-13.5,8.12-19.67,12.7-5.03-3.43-10.87-7.09-15.67-9.84v-.46c1.37-.57,1.94-2.06,1.94-4.46v-40.15c5.83-3.32,13.73-8.35,19.67-12.7,4.8,3.09,10.75,6.86,15.67,9.49v.46ZM422.3,86.52v-45.3c-2.63-1.83-6.52-4.23-9.49-5.95l-.34.11v45.3c2.52,1.83,6.98,4.58,9.61,6.06l.23-.23Z" fill="#006194"/>
        <path d="M485.33,86.29c-2.29,2.17-6.06,5.95-8.81,8.58-2.86-2.17-8.58-6.18-10.98-7.78v-.46c1.14-.69,1.94-2.06,1.94-5.49v-41.18c-2.06-1.6-4-2.75-5.83-4,0,0-3.32,2.63-4,3.2v44.84c1.37,1.14,2.4,1.72,3.89,2.86v.11c-2.75,2.4-5.95,5.38-8.35,7.78-3.43-2.63-7.09-5.49-9.27-7.09v-.46c1.03-.8,1.94-2.06,1.94-5.83v-42.67c-2.17-1.72-4.23-2.52-5.72-2.63l-.23-.23c3.32-3.09,5.83-5.49,8.69-8.58,3.66,2.86,7.78,5.83,10.41,7.66h.11l9.04-7.66c3.77,2.63,8.92,6.18,13.04,8.69v.46c-1.26.92-1.94,2.17-1.94,4.58v42.44c1.83,1.37,4.46,2.75,5.83,2.63l.23.23Z" fill="#006194"/>
        <path d="M516.67,58.95c-8.01,2.29-20.02,7.32-25.16,10.29.11-3.2.23-8.01.23-10.75,5.72-3.43,17.84-8.01,25.16-10.07-.11,2.86-.23,8.24-.23,10.52Z" fill="#006194"/>
        <path d="M596.63,122.32l-2.97-.69v-.23c2.97-1.94,5.72-4.46,5.72-8.92,0-4.12-2.52-6.18-6.98-6.18-12.7,0-25.51,15.33-45.18,15.33-10.41,0-17.5-5.72-17.5-14.53,0-8.35,4.46-13.73,15.33-15.21v-32.26h-1.49c-5.49,0-9.15,1.37-10.98,5.15l-1.03-.46c.34-11.9,6.52-16.81,13.15-16.81h.34v-19.45c-8.24-5.83-11.44-7.89-13.38-7.89-1.72,0-2.86.92-5.38,3.09l-1.37-1.6c5.6-4.58,9.84-8.01,15.1-12.47,4.58,3.43,10.87,8.01,18.42,13.38v67.6c1.72-.11,3.43-.34,4.92-.46V16.86c0-2.86-.57-5.83-1.03-7.32v-.23l2.4.34c.34,1.37.69,4.23.69,6.41v6.18c2.52-2.06,11.1-9.04,15.79-12.93,11.44,4.23,18.64,11.21,18.64,26.88v23.68c0,18.19-4.92,29.28-24.25,31.11-13.04,1.26-16.47,1.83-29.74,3.32-8.92,1.03-12.12,5.6-12.12,9.49,0,3.66,2.4,5.61,10.29,5.61,13.73,0,26.31-14.41,41.29-14.41,12.35,0,18.53,5.83,18.53,15.56,0,5.49-4,9.84-7.21,11.78ZM586.56,38.82v-1.14c0-9.61-2.4-15.21-13.5-18.99l-7.66,6.18v23.56l21.16-9.61ZM586.56,49.46v-8.46l-21.16,9.49v8.58l21.16-9.61ZM586.56,51.75l-21.16,9.49v28.25c16.36-2.06,21.16-8.01,21.16-24.59v-13.15Z" fill="#006194"/>
        <path d="M645.58,37.1c-1.03.8-1.94,1.83-1.94,5.15v39.81c-5.26,2.97-13.5,8.12-19.67,12.7-5.03-3.43-10.87-7.09-15.67-9.84v-.46c1.37-.57,1.95-2.06,1.95-4.46v-40.15c5.83-3.32,13.73-8.35,19.67-12.7,4.8,3.09,10.75,6.86,15.67,9.49v.46ZM631.86,86.52v-45.3c-2.63-1.83-6.52-4.23-9.49-5.95l-.34.11v45.3c2.52,1.83,6.98,4.58,9.61,6.06l.23-.23Z" fill="#006194"/>
        <path d="M678.52,49h-.46c-2.86-3.09-7.09-9.26-8.46-12.58l-2.4,2.52v41.64c5.49,3.43,6.52,3.89,8.24,3.89.8,0,1.49-.69,2.17-1.49l1.03-1.14,1.94,1.72c-6.75,6.75-11.1,11.21-11.1,11.21-4.8-3.2-10.07-6.06-16.01-8.92v-.46c1.26-1.14,1.94-2.17,1.94-5.72v-40.95c-2.4-1.83-4-2.52-5.72-2.63l-.23-.34c2.63-2.4,6.06-5.49,8.69-8.46,3.2,2.63,6.63,5.72,9.49,8.01,4-3.43,5.26-4.8,8.58-8.01,2.17,3.43,6.06,8.92,9.61,12.7-2.29,2.29-5.15,6.06-7.32,9.04Z" fill="#006194"/>
        <path d="M731.26,86.29c-2.29,2.17-6.06,5.95-8.81,8.58,0,0-6.06-4.46-9.04-6.41v-19.1c0-5.49-2.52-7.89-6.06-9.38l-3.78,2.52v21.5c1.37,1.14,2.4,1.72,3.89,2.86v.11c-2.06,1.83-5.72,5.03-8.46,7.78-2.29-1.94-6.41-4.8-9.15-6.75v-.46c1.14-.8,1.94-2.06,1.94-5.83V13.31c0-2.75-.23-4.58-1.14-5.83l.46-.23c1.72.57,4,2.4,4.8,4.69h.23c1.6-4,4.58-7.32,8.92-8.69l.34.23c-1.03,1.6-1.83,3.66-1.83,7.66v25.51l12.93-9.38c2.52,4,6.64,11.9,8.92,16.47.57-.34,1.26-1.03,1.72-1.72h.11c.23.69,1.03,2.29,1.03,2.75-3.66,2.63-7.78,5.6-12.01,8.46,3.66,1.72,8.92,4.92,8.92,10.75v19.45c1.83,1.37,4.46,2.75,5.83,2.63l.23.23ZM708.15,36.65l-4.58,2.97v19.9c3.89-2.63,8.24-5.83,12.01-8.58-2.17-4.69-5.26-10.87-7.44-14.3Z" fill="#006194"/>
        <path d="M803.66,79.66c-7.89,7.32-9.95,9.15-18.87,16.36-8.92-4.58-14.98-7.32-21.39-7.32-6.86,0-13.27,2.4-13.27,14.87h-.23l-3.55-2.97c2.06-13.27,10.75-24.36,21.39-24.36,7.66,0,17.27,2.63,27.68,7.55,4.35-4.8,7.89-8.92,7.89-15.44,0-8.01-3.66-13.04-15.44-13.04-2.17,0-4.23,0-6.06.11-4,7.78-10.07,11.67-12.01,12.24l-3.89-3.2.11-.23c3.66.23,9.72-4.35,12.24-8.58-14.18,0-24.59-5.15-24.59-20.13,0-11.55,10.52-19.79,25.05-26.88,9.49,2.06,18.42,5.26,25.05,8.24,1.6-2.17,4.23-5.26,6.41-7.21h.23l1.6,2.86c-5.15,3.77-14.3,16.7-21.28,28.6,15.67,1.03,23.56,6.63,23.56,17.39,0,8.12-2.74,13.84-10.64,21.16ZM769.35,16.97c-4.23,2.29-6.52,5.72-6.52,10.29,0,9.95,4.8,13.84,19.67,13.84,1.6,0,3.2,0,5.03-.11,1.72-2.86,6.29-10.07,8.12-12.81-9.26-6.52-19.33-10.07-26.31-11.21Z" fill="#006194"/>
        <path d="M830.2,87.55c-3.43,3.09-5.38,5.03-8.46,8.12l-8.24-8.12c1.83-1.6,4.92-4.58,8.24-8.01l8.46,8.01Z" fill="#006194"/>
        <path d="M907.3,13.2c-2.86,4-7.44,9.84-11.44,14.07-3.43-1.26-10.18-3.89-16.7-6.86v65.89c1.26.11,3.89.11,5.26.11,9.49,0,16.24-2.97,20.82-6.52l.92,1.37c-5.72,7.89-14.07,15.21-31.34,15.21-23.33,0-39.23-13.84-39.23-38.55,0-17.5,13.15-32.83,22.76-37.52l1.49,1.03c-7.09,6.52-10.64,18.53-10.64,28.14,0,10.41,2.06,18.42,6.18,24.36,3.89-2.86,4.8-6.29,4.8-11.55V28.41c9.84-7.55,16.24-13.15,22.99-19.1,9.72,3.89,14.07,5.49,18.76,5.49,1.03,0,2.17-.69,3.66-2.86l1.72,1.26ZM877.1,19.37l-1.26-.57-3.43,2.75v43.35s-8.46,5.26-16.01,10.52c4.69,5.95,11.67,9.49,20.7,10.75V19.37Z" fill="#006194"/>
        <path d="M926.74,87.55c-3.43,3.09-5.38,5.03-8.46,8.12l-8.24-8.12c1.83-1.6,4.92-4.58,8.24-8.01l8.46,8.01Z" fill="#006194"/>
      </g>
    </g>
  </g>
</svg>