<?xml version="1.0" encoding="UTF-8"?>
<svg id="Layer_2" data-name="Layer 2" xmlns="http://www.w3.org/2000/svg" viewBox="0 0 370.33 258.33">
  <g id="Layer_1-2" data-name="Layer 1">
    <g>
      <path d="M193.07,38.88c0-14.7-7.79-24.67-22.6-29.04,13.1,4.74,19.94,14.39,19.94,28.19,0,20.44-14.67,30.88-42.21,30.88h-37.77v.84h40.44c27.55,0,42.21-10.44,42.21-30.88Z" fill="none"/>
      <path d="M191.12,147.38l-53.11-72.11-1.45-1.98h5.81l.37.5,3.72,5.05,44.97,61.06c.2-3.02.52-5.98.9-8.91l-39.69-53.9c31.32-.45,55.98-12.22,55.98-38.21,0-27.33-25.55-38.88-57.76-38.88H61.32C19.77,0,0,24.89,0,50.43c0,22.89,15.33,40.44,38.43,40.44,17.33,0,30.66-10.88,30.66-27.99,0-7.33-4.22-13.11-11.11-13.11-6.22,0-10.66,4.23-10.66,11.33,0,5.77,4.44,10,4.44,13.78,0,5.77-5.33,8.66-14,8.66-16.22,0-29.33-15.11-29.33-33.11C8.44,22.88,28.88,7.33,61.32,7.33h17.11c16.67,0,18.67,4,18.67,17.56v105.75c0,19.11-4,20.22-23.56,21.33v3.55h60.43v-3.55c-19.55-1.12-23.55-2.22-23.55-21.33v-53.54h25.55l55.17,74.9c-.01-.85-.1-1.67-.1-2.53,0-.71.07-1.38.08-2.09ZM50.27,60.25c0-2.61.88-5.72,5.05-5.72s5.5,4.04,5.5,7.5c0,6.61-2.45,12.14-6.74,16.05.52-1.67.63-3.14.63-4.06,0-3.01-1.31-5.63-2.46-7.94-1.02-2.04-1.98-3.97-1.98-5.84ZM200.35,38.04c0,11.14-5.29,18.51-12.65,23.37,6.76-7.42,8.32-16.55,8.32-23.37,0-10.1-3.19-18.36-9.21-24.5,7.85,4.95,13.54,12.64,13.54,24.5ZM95.95,149.07c2.87-3.9,4.09-9.9,4.09-19.28V24.04c0-9.2-1.25-15.58-6.44-19.28h11.47c-1.86,2.11-2.91,4.99-2.91,8.38v116.64c0,9.38,1.22,15.38,4.09,19.28h-10.28ZM110.42,69.76v-.84h-2.66V13.15c0-4.22,2.44-6.66,6.66-6.66h33.77c8.74,0,16.18,1.15,22.27,3.36,14.82,4.37,22.6,14.34,22.6,29.04,0,20.44-14.67,30.88-42.21,30.88h-40.44Z" fill="#af983f"/>
      <path d="M190.41,38.04c0-13.8-6.84-23.45-19.94-28.19-5.56-1.64-12.09-2.51-19.61-2.51h-33.77c-4.22,0-6.66,2.45-6.66,6.66v54.93h37.77c27.55,0,42.21-10.44,42.21-30.88Z" fill="none"/>
      <path d="M117.08,7.33h33.77c7.52,0,14.04.87,19.61,2.51-6.09-2.21-13.53-3.36-22.27-3.36h-33.77c-4.22,0-6.66,2.45-6.66,6.66v55.77h2.66V13.99c0-4.22,2.44-6.66,6.66-6.66Z" fill="#af983f"/>
      <path d="M190.83,141.19l-45.37-61.61-3.72-5.05h-2.73l52.19,70.86c.03-1.19.08-2.38.14-3.56-.17-.22-.35-.43-.52-.65Z" fill="#f8eca8"/>
      <path d="M137.78,73.91h4.27l49.27,66.91s.04.05.06.07c.02-.33.02-.66.04-.98l-44.97-61.06-3.72-5.05-.37-.5h-5.81l1.45,1.98,53.11,72.11c0-.33.03-.66.04-.99l-53.38-72.48Z" fill="#af983f"/>
      <path d="M139.01,74.53h2.73l3.72,5.05,45.37,61.61c.17.22.35.43.52.65.02-.31.02-.63.04-.95-.02-.03-.04-.05-.06-.07l-49.27-66.91h-4.27l53.38,72.48c0-.33.03-.66.04-.99l-52.19-70.86Z" fill="#af983f"/>
      <path d="M54.72,74.03c0,.91-.11,2.39-.63,4.06,4.28-3.91,6.74-9.45,6.74-16.05,0-3.46-1.44-7.5-5.5-7.5s-5.05,3.11-5.05,5.72c0,1.87.96,3.8,1.98,5.84,1.15,2.31,2.46,4.93,2.46,7.94Z" fill="#f8eca8"/>
      <path d="M102.15,76.25V13.15c0-3.39,1.05-6.27,2.91-8.38h-11.47c5.2,3.7,6.44,10.07,6.44,19.28v105.75c0,9.38-1.22,15.38-4.09,19.28h10.28c-2.86-3.9-4.09-9.9-4.09-19.28v-53.54Z" fill="#f8eca8"/>
      <path d="M187.7,61.4c7.36-4.86,12.65-12.23,12.65-23.37,0-11.86-5.69-19.54-13.54-24.5,6.02,6.14,9.21,14.4,9.21,24.5,0,6.82-1.55,15.95-8.32,23.37Z" fill="#f8eca8"/>
      <path d="M363.89,216.78c-16.44,22.89-45.54,34.22-71.98,34.22-51.7,0-83-39.19-85.11-95.49h-7.01c1.12,27.68,8.92,51.35,22.89,68.66l-1.86,1.64c-17.21-17.75-26.7-42.36-27.85-71.34l-1.83-2.49c1.08,62.82,41.58,106.34,100.77,106.34,29.32,0,59.32-10.89,78.42-36.66l-6.44-4.89Z" fill="#af983f"/>
      <path d="M221.63,68.77l1.88,1.62c-14.36,18.25-22.43,42.55-23.69,70.56,1.85,2.13,4.05,4.1,6.86,5.79.97-58.17,32.47-102.14,82.78-102.14,28.66,0,54.21,13.78,72.65,38.21l2.89-1.77-20.44-40.44h-4.44l-3.33,8.43c-8.89-6.88-33.55-11.77-47.32-11.77-51.85,0-90.07,39.03-97.14,93.72l1.4,1.9c2.84-25.24,12.43-47.64,27.9-64.13ZM339.34,50.26l.69-1.75,5.49,10.85c-2.46-2-4.98-3.86-7.56-5.59l1.39-3.51Z" fill="#af983f"/>
      <path d="M192.79,149.64l-1.66-2.26c-.01.7-.08,1.38-.08,2.09,0,.86.09,1.68.1,2.53l1.83,2.49c-.06-1.62-.18-3.21-.19-4.85Z" fill="#af983f"/>
      <path d="M191.81,140.44c.41.54.8,1.01,1.2,1.5.14-3.05.37-6.06.71-9.04l-1.4-1.9c-.38,2.93-.71,5.89-.9,8.91l.39.53Z" fill="#af983f"/>
      <path d="M199.82,140.94c-.11,2.42-.24,4.83-.24,7.31l2.8,2.06h-2.75c.02,1.76.1,3.48.17,5.21h7.01c-.08-2.01-.2-4-.2-6.05,0-.92.08-1.81.09-2.73-2.82-1.7-5.02-3.67-6.86-5.79Z" fill="#af983f"/>
      <path d="M191.34,141.84c-.06,1.18-.11,2.37-.14,3.56l1.59,2.16c0-1.27.11-2.51.15-3.77-.56-.64-1.09-1.29-1.6-1.94Z" fill="#f8eca8"/>
      <path d="M192.98,142.88c.01-.31.02-.63.04-.94-.4-.49-.8-.96-1.2-1.5l-.39-.53c-.02.32-.02.66-.04.98.54.71,1.07,1.36,1.6,1.99Z" fill="#af983f"/>
      <path d="M199.58,149.02l.91.67h-.89c0,.21.02.41.02.62h2.75l-2.8-2.06c0,.13-.01.25-.01.37,0,.13.01.26.01.4Z" fill="#af983f"/>
      <path d="M192.75,148.54l-1.59-2.16c0,.33-.03.66-.04.99l1.66,2.26c0-.34-.04-.67-.04-1.01,0-.03,0-.05,0-.08Z" fill="#af983f"/>
      <path d="M191.2,145.39c0,.33-.03.66-.04.99l1.59,2.16c0-.33.04-.66.04-.99l-1.59-2.16Z" fill="#af983f"/>
      <path d="M200.48,149.69l-.91-.67c0,.23.02.44.02.67h.89Z" fill="#af983f"/>
      <path d="M192.94,143.78c.01-.3.02-.6.04-.9-.53-.63-1.06-1.28-1.6-1.99-.02.31-.02.63-.04.95.51.65,1.04,1.3,1.6,1.94Z" fill="#af983f"/>
      <path d="M221.71,224.96c-13.86-17.19-22.01-40.95-23.16-69.44h-4.29c1.37,28.68,11.15,52.63,27.45,69.44Z" fill="#f8eca8"/>
      <path d="M198.64,139.49c1.53-28.21,10.06-52.3,23.89-69.87-15.17,16.16-25.07,38.58-27.75,64.72l3.17,4.3c.22.29.46.56.69.85Z" fill="#f8eca8"/>
      <path d="M194.26,155.52h4.29c-.07-1.73-.16-3.45-.18-5.21h-4.33c.02,1.76.13,3.48.21,5.21Z" fill="#f8eca8"/>
      <path d="M198.37,147.3c.02-2.65.13-5.24.27-7.82-.22-.28-.47-.56-.69-.85l-3.17-4.3c-.3,2.95-.47,5.96-.58,9,1.35,1.52,2.72,2.82,4.16,3.97Z" fill="#f8eca8"/>
      <path d="M198.33,148.85c-1.57-1.18-2.96-2.44-4.2-3.75-.03,1.18-.15,2.32-.15,3.52,0,.15.02.29.02.45h4.34c0-.07,0-.14,0-.21Z" fill="#f8eca8"/>
      <path d="M194.05,150.31h4.33c0-.21-.02-.41-.02-.62h-4.33c0,.21.02.41.02.62Z" fill="#f8eca8"/>
      <path d="M198.34,148.07c0-.26.03-.51.03-.77-1.45-1.15-2.81-2.45-4.16-3.97-.01.29-.03.59-.04.88,1.34,1.46,2.71,2.73,4.17,3.86Z" fill="#f8eca8"/>
      <path d="M198.33,148.85c0-.08,0-.15,0-.23,0-.19.02-.36.02-.55-1.46-1.13-2.83-2.4-4.17-3.86,0,.3-.03.59-.04.89,1.24,1.31,2.63,2.57,4.2,3.75Z" fill="#f8eca8"/>
      <path d="M194,149.07c0,.21.02.41.03.62h4.33c0-.21-.02-.41-.02-.62h-4.34Z" fill="#f8eca8"/>
      <path d="M222.2,224.58l-.93.82c-16.92-17.46-26.34-41.6-27.64-70.02l-.65-.89c1.15,28.97,10.64,53.58,27.85,71.34l1.86-1.64c-13.97-17.32-21.76-40.98-22.89-68.66h-.62c1.12,27.83,8.97,51.63,23.03,69.06Z" fill="#af983f"/>
      <path d="M222.08,69.19l.94.81c-14.32,18.2-22.43,42.37-23.8,70.21.2.24.39.49.59.73,1.26-28.01,9.33-52.31,23.69-70.56l-1.88-1.62c-15.47,16.49-25.06,38.89-27.9,64.13l.53.72c2.73-25.37,12.31-47.89,27.82-64.43Z" fill="#af983f"/>
      <path d="M199,150.31c.02,1.76.1,3.48.17,5.21h.62c-.07-1.73-.16-3.45-.17-5.21h-.62Z" fill="#af983f"/>
      <path d="M198.97,147.78c.12.09.23.19.36.29l.25.18c0-2.48.14-4.89.24-7.31-.21-.24-.39-.49-.59-.73-.12,2.5-.24,5.01-.25,7.58Z" fill="#af983f"/>
      <path d="M194.26,133.62l-.53-.72c-.34,2.98-.57,5.99-.71,9.04.2.24.39.5.59.73.13-3.05.33-6.07.65-9.05Z" fill="#af983f"/>
      <path d="M193.43,150.31h-.15l-.37-.5-.12-.17c.01,1.64.13,3.24.19,4.85l.65.89c-.08-1.68-.18-3.35-.2-5.07Z" fill="#af983f"/>
      <path d="M192.94,143.78c-.04,1.26-.14,2.5-.15,3.77l.59.8c0-1.32.12-2.6.16-3.91-.2-.22-.4-.44-.59-.66Z" fill="#f8eca8"/>
      <path d="M193.57,143.56c.01-.3.02-.59.04-.89-.19-.23-.39-.49-.59-.73-.01.31-.03.63-.04.94.2.23.39.46.59.68Z" fill="#af983f"/>
      <path d="M198.98,149.69c0,.21.02.41.02.62h.62c0-.21-.02-.41-.02-.62h-.62Z" fill="#af983f"/>
      <path d="M198.97,147.78c0,.26-.03.51-.03.77,0,0,.01,0,.02.01l.61.45c0-.13-.01-.26-.01-.4,0-.13.01-.25.01-.37l-.25-.18c-.12-.09-.24-.19-.36-.29Z" fill="#af983f"/>
      <path d="M193.28,150.31h.15c0-.3-.03-.59-.03-.89l-.65-.88s0,.05,0,.08c0,.34.04.67.04,1.01l.12.17.37.5Z" fill="#af983f"/>
      <path d="M193.53,144.44c0-.29.03-.58.04-.88-.2-.22-.39-.45-.59-.68-.01.3-.03.6-.04.9.19.22.39.44.59.66Z" fill="#af983f"/>
      <path d="M198.98,149.69h.62c0-.23-.02-.44-.02-.67l-.61-.45s-.01,0-.02-.01c0,.02,0,.04,0,.07,0,.36.03.7.04,1.07Z" fill="#af983f"/>
      <path d="M193.37,148.35l-.59-.8c0,.33-.04.66-.04.99l.65.88c0-.27-.03-.53-.03-.8,0-.09.01-.18.01-.27Z" fill="#af983f"/>
      <path d="M222.53,69.62c-13.83,17.57-22.36,41.66-23.89,69.87.19.24.39.48.58.72,1.37-27.84,9.48-52.01,23.8-70.21l-.94-.81c-15.51,16.53-25.09,39.05-27.82,64.43l.53.72c2.67-26.14,12.58-48.55,27.75-64.72Z" fill="#af983f"/>
      <path d="M221.71,224.96c-16.3-16.81-26.08-40.77-27.45-69.44h-.53l-.11-.14c1.3,28.42,10.72,52.56,27.64,70.02l.93-.82c-14.06-17.43-21.9-41.23-23.03-69.06h-.62c1.15,28.49,9.29,52.26,23.16,69.44Z" fill="#af983f"/>
      <path d="M194.26,155.52c-.08-1.73-.19-3.45-.21-5.21h-.62c.02,1.71.12,3.38.2,5.07l.11.14h.53Z" fill="#af983f"/>
      <path d="M198.37,147.3c.2.16.4.33.6.48.01-2.56.13-5.07.25-7.58-.2-.24-.39-.48-.58-.72-.14,2.58-.25,5.17-.27,7.82Z" fill="#af983f"/>
      <path d="M198.38,150.31c.02,1.76.11,3.48.18,5.21h.62c-.07-1.73-.16-3.45-.17-5.21h-.62Z" fill="#af983f"/>
      <path d="M194.79,134.33l-.53-.72c-.32,2.98-.52,6-.65,9.05.2.23.4.44.6.66.11-3.04.28-6.05.58-9Z" fill="#af983f"/>
      <path d="M198.59,149.07c-.09-.07-.17-.14-.26-.21,0,.07,0,.14,0,.21h.26Z" fill="#af983f"/>
      <path d="M194.13,145.1c-.21-.22-.4-.44-.6-.67-.04,1.31-.16,2.59-.16,3.91l.53.72h.1c0-.15-.02-.29-.02-.45,0-1.2.12-2.34.15-3.52Z" fill="#f8eca8"/>
      <path d="M198.34,148.07c.2.16.4.33.6.48,0-.26.02-.51.03-.77-.2-.16-.4-.32-.6-.48,0,.26-.03.51-.03.77Z" fill="#af983f"/>
      <path d="M194.05,150.31c0-.21-.02-.41-.02-.62h-.44l-.2-.27c0,.3.03.59.03.89h.62Z" fill="#af983f"/>
      <path d="M198.36,149.69c0,.21.02.41.02.62h.62c0-.21-.02-.41-.02-.62h-.62Z" fill="#af983f"/>
      <path d="M194.21,143.33c-.2-.22-.4-.43-.6-.66-.01.3-.03.59-.04.89.2.23.4.44.6.65,0-.3.03-.59.04-.88Z" fill="#af983f"/>
      <path d="M198.32,148.62c0,.08,0,.15,0,.23.09.07.17.14.26.21h-.26c0,.21.02.41.02.62h.62c0-.36-.04-.7-.04-1.07,0-.02,0-.04,0-.07-.21-.15-.4-.32-.6-.48,0,.19-.02.36-.02.55Z" fill="#af983f"/>
      <path d="M194.13,145.1c0-.3.03-.59.04-.89-.2-.22-.4-.43-.6-.65,0,.29-.03.58-.04.88.2.22.39.45.6.67Z" fill="#af983f"/>
      <path d="M194.03,149.69c0-.21-.02-.41-.03-.62h-.1l-.53-.72c0,.09-.01.18-.01.27,0,.27.03.53.03.8l.2.27h.44Z" fill="#af983f"/>
      <path d="M340.03,48.5l-.69,1.75-1.39,3.51c2.58,1.73,5.11,3.59,7.56,5.59l-5.49-10.85Z" fill="#f8eca8"/>
    </g>
  </g>
</svg>