<?xml version="1.0" encoding="UTF-8"?>
<svg id="Layer_2" data-name="Layer 2" xmlns="http://www.w3.org/2000/svg" viewBox="0 0 1030.02 206.43">
  <g id="Layer_1-2" data-name="Layer 1">
    <g>
      <g>
        <path d="M211.2,151.24c-15.77-1.04-21.79-6.43-26.35-12.45l-42.32-57.47c29.25-.42,52.28-11.41,52.28-35.68,0-25.52-23.85-36.3-53.94-36.3H57.26C18.46,9.34,0,32.58,0,56.43c0,21.37,14.31,37.76,35.89,37.76,16.18,0,28.63-10.16,28.63-26.13,0-6.84-3.94-12.25-10.37-12.25-5.81,0-9.95,3.95-9.95,10.58,0,5.39,4.15,9.34,4.15,12.87,0,5.39-4.98,8.09-13.07,8.09-15.15,0-27.39-14.11-27.39-30.91,0-25.72,19.09-40.24,49.38-40.24h15.97c15.56,0,17.43,3.74,17.43,16.39v98.74c0,17.85-3.74,18.88-22,19.92v3.32h56.43v-3.32c-18.26-1.04-21.99-2.07-21.99-19.92v-49.99h23.86l53.94,73.23h30.29v-3.32ZM103.11,74.48V22.41c0-3.94,2.28-6.22,6.22-6.22h31.54c25.72,0,39.42,10.58,39.42,29.46s-13.69,28.84-39.42,28.84h-37.76Z" fill="#af983f"/>
        <path d="M259.39,151.65c-26.56,0-35.68-19.5-35.68-43.36,0-4.15.21-8.3.62-12.23h68.67c0-24.48-16.59-37.14-37.96-37.14-28.84,0-44.82,21.79-44.82,49.37s16.6,49.38,49.17,49.38c17.64,0,31.12-11.62,37.56-28.22l-5.81-2.28c-5.81,14.94-17.43,24.48-31.75,24.48ZM255.04,64.93c14.31,0,25.3,8.72,25.3,25.1h-54.97c3.12-14.73,11.2-25.1,29.67-25.1Z" fill="#af983f"/>
        <path d="M341.58,157.25c12.66,0,24.89-6.63,34.85-13.49,1.45,8.72,6.43,12.87,13.7,12.87,5.6,0,9.75-1.45,13.48-4.15v-5.81c-3.53,1.87-6.22,2.7-8.51,2.7-5.18,0-7.25-4.35-7.25-12.86v-49.17c0-22.61-12.87-28.42-28.63-28.42-24.48,0-38.38,12.66-38.38,22.61,0,4.98,2.07,7.69,6.22,7.69,3.11,0,6.22-2.5,7.47-8.72,2.29-10.58,10.58-15.76,24.69-15.76,12.86,0,17,6.42,17,22.61v13.9c-38.38,5.81-62.65,13.28-62.65,34.65,0,14.73,10.79,21.36,28.01,21.36ZM376.22,107.05v30.7c-10.99,7.68-21.77,13.07-32.78,13.07-9.54,0-16.38-4.56-16.38-15.35,0-18.26,19.5-24.48,49.16-28.42Z" fill="#af983f"/>
        <path d="M457.99,151.24c-12.23-1.04-15.14-3.53-15.14-11.62V6.22h-3.74l-23.03,15.56v2.28h8.1c4.97,0,7.04,1.86,7.04,7.05v108.49c0,8.1-2.9,10.58-15.14,11.62v3.32h41.91v-3.32Z" fill="#af983f"/>
        <path d="M177.8,44.86c0-18.88-13.69-29.46-39.42-29.46h-31.54c-3.94,0-6.22,2.29-6.22,6.22v52.08h37.76c25.72,0,39.42-9.75,39.42-28.84Z" fill="none"/>
        <path d="M277.86,89.25c0-16.38-10.99-25.1-25.3-25.1-18.47,0-26.55,10.37-29.67,25.1h54.97Z" fill="none"/>
        <path d="M324.57,134.68c0,10.79,6.84,15.35,16.38,15.35,11,0,21.78-5.39,32.78-13.07v-30.7c-29.66,3.94-49.16,10.16-49.16,28.42Z" fill="none"/>
        <path d="M178.19,141.18l-42.37-57.53-3.47-4.71h-2.55l51.26,69.6h4.38c-3.02-2.22-5.28-4.77-7.25-7.36Z" fill="#f8eca8"/>
        <path d="M46.94,65.6c0,1.75.9,3.55,1.85,5.45,1.08,2.16,2.3,4.6,2.3,7.42,0,.85-.1,2.23-.59,3.79,4-3.65,6.29-8.82,6.29-14.99,0-3.23-1.34-7.01-5.13-7.01s-4.72,2.91-4.72,5.34Z" fill="#f8eca8"/>
        <path d="M95.38,80.54V21.62c0-3.17.98-5.86,2.72-7.83h-10.71c4.85,3.45,6.02,9.41,6.02,18v98.74c0,8.76-1.14,14.36-3.82,18h9.6c-2.67-3.64-3.82-9.24-3.82-18v-49.99Z" fill="#f8eca8"/>
        <path d="M174.43,21.98c5.63,5.74,8.6,13.45,8.6,22.88,0,6.37-1.45,14.89-7.77,21.82,6.87-4.54,11.81-11.42,11.81-21.82,0-11.08-5.32-18.25-12.65-22.88Z" fill="#f8eca8"/>
        <path d="M283.09,89.25v.79h1.88c-.53-4.47-1.75-8.45-3.61-11.88,1.13,3.36,1.73,7.08,1.73,11.09Z" fill="#f8eca8"/>
        <path d="M216.63,94.73l.03-.24h-.24l.46-2.19.23-2.26h.24l.4-1.87c.6-2.82,1.35-5.43,2.27-7.85-4.55,7.2-7.05,16.43-7.05,27.19s2.79,21.34,9.48,29.66c-4.24-7.74-6.47-17.72-6.47-29.66,0-4.34.22-8.64.65-12.78Z" fill="#f8eca8"/>
        <path d="M323.59,80.74c0,1.63.31,2.27.39,2.41,0,0,0,0,.01,0,.06,0,.25.04.58.04.45,0,1.66-1.13,2.33-4.51.52-2.41,1.38-4.94,2.74-7.36-4.03,3.2-6.05,6.76-6.05,9.42Z" fill="#f8eca8"/>
        <path d="M323.84,148.36c-2.91-3.46-4.51-8.1-4.51-13.67s1.35-9.87,3.73-13.62c-4.7,3.88-6.75,8.45-6.75,14.04,0,2.76,0,9.41,7.52,13.25Z" fill="#f8eca8"/>
        <path d="M380.12,86.55c0-5.95-.89-10.63-2.8-14.18,1.32,4.33,1.65,9.28,1.65,14.18v53.14l-.24.17.38,2.26c.78,4.71,2.63,6.85,4.72,7.79-2.2-2.71-3.71-7.13-3.71-14.19v-49.17Z" fill="#f8eca8"/>
        <path d="M433.98,30.34v108.49c0,4.19-.8,7.33-2.33,9.7h5.81c-1.53-2.37-2.33-5.51-2.33-9.7V12.77l-8.73,5.9c4.93,1.47,7.58,5.48,7.58,11.67Z" fill="#f8eca8"/>
      </g>
      <g>
        <path d="M612.9,199.58c-50,0-79.66-39.21-79.66-94.82s29.67-97.92,77.38-97.92c26.77,0,50.62,12.87,67.84,35.68l2.7-1.65-19.08-37.76h-4.15l-3.11,7.88c-8.3-6.42-31.33-10.99-44.19-10.99-53.73,0-91.9,44.81-91.9,104.77s38.17,101.66,94.19,101.66c27.38,0,55.39-10.17,73.23-34.23l-6.02-4.57c-15.35,21.37-42.53,31.96-67.21,31.96Z" fill="#af983f"/>
        <path d="M729.95,139.62V6.22h-3.73l-23.03,15.56v2.29h8.09c4.98,0,7.05,1.86,7.05,7.05v108.49c0,8.1-2.91,10.58-15.15,11.62v3.32h41.91v-3.32c-12.25-1.04-15.15-3.53-15.15-11.62Z" fill="#af983f"/>
        <path d="M784.34,139.62V58.92h-3.74l-23.03,15.56v2.27h8.1c4.97,0,7.04,1.87,7.04,7.05v55.8c0,8.1-2.9,10.58-15.14,11.62v3.32h41.91v-3.32c-12.24-1.04-15.14-3.53-15.14-11.62Z" fill="#af983f"/>
        <path d="M787.87,23.86c0-5.19-3.95-9.13-9.13-9.13s-9.13,3.94-9.13,9.13,3.94,8.92,9.13,8.92,9.13-3.94,9.13-8.92Z" fill="#af983f"/>
        <path d="M899.07,139.62v-54.76c0-21.37-17.01-25.93-27.8-25.93-11.82,0-24.68,5.6-32.57,10.37v-10.37h-3.74l-23.03,15.56v2.27h8.1c4.97,0,7.04,1.87,7.04,7.05v55.8c0,8.1-2.9,10.58-15.14,11.62v3.32h41.91v-3.32c-12.23-1.04-15.14-3.53-15.14-11.62v-63.48c9.33-6.22,20.12-10.16,31.11-10.16s17.64,5.8,17.64,19.08v54.56c0,8.1-2.91,10.58-15.14,11.62v3.32h41.91v-3.32c-12.25-1.04-15.15-3.53-15.15-11.62Z" fill="#af983f"/>
        <path d="M1010.73,139.21l-36.51-42.32,17.43-17.64c9.13-9.13,16.18-12.87,29.05-13.9v-3.33h-46.27v3.33c17.22,1.03,14.52,6.63,11.4,9.95l-32.36,32.99V6.22h-3.74l-23.03,15.56v2.29h8.1c4.97,0,7.04,1.86,7.04,7.05v108.49c0,8.1-2.9,10.58-15.14,11.62v3.32h41.91v-3.32c-12.24-1.04-15.14-3.53-15.14-11.62v-21.57l12.66-12.86,28.42,33.4c4.15,4.77,4.77,11.61-11.61,12.66v3.32h47.09v-3.32c-7.26-1.04-11.2-2.91-19.29-12.03Z" fill="#af983f"/>
        <path d="M525.51,103.98c0-30.05,8.31-55.61,22.61-73.77-16.69,17.79-26.66,43.62-26.66,73.77s9.46,54.33,25.89,71.28c-13.98-17.34-21.84-41.78-21.84-71.28Z" fill="#f8eca8"/>
        <path d="M657.83,10.49l-.65,1.64-1.29,3.27c2.41,1.61,4.77,3.35,7.06,5.22l-5.12-10.13Z" fill="#f8eca8"/>
        <path d="M721.09,30.34v108.49c0,4.19-.8,7.33-2.33,9.7h5.8c-1.53-2.37-2.33-5.51-2.33-9.7V12.78l-8.72,5.89c4.93,1.47,7.58,5.48,7.58,11.67Z" fill="#f8eca8"/>
        <path d="M775.47,83.03v55.8c0,4.19-.8,7.33-2.33,9.7h5.81c-1.53-2.37-2.33-5.51-2.33-9.7v-73.36l-8.72,5.89c4.92,1.47,7.57,5.49,7.57,11.66Z" fill="#f8eca8"/>
        <path d="M776.25,26.75c2.26,0,3.89-1.55,3.89-3.68,0-2.29-1.6-3.89-3.89-3.89s-3.89,1.6-3.89,3.89c0,2.13,1.64,3.68,3.89,3.68Z" fill="#f8eca8"/>
        <path d="M887.18,70.47c1.98,3.71,3.02,8.35,3.02,13.8v54.56c0,4.19-.8,7.33-2.33,9.7h5.8c-1.53-2.37-2.33-5.51-2.33-9.7v-54.76c0-6.15-1.65-10.52-4.16-13.6Z" fill="#f8eca8"/>
        <path d="M829.83,83.03v55.8c0,4.19-.8,7.33-2.33,9.7h5.81c-1.53-2.37-2.33-5.51-2.33-9.7v-73.36l-8.72,5.89c4.92,1.47,7.57,5.49,7.57,11.66Z" fill="#f8eca8"/>
        <path d="M944.6,30.34v108.49c0,4.19-.8,7.33-2.33,9.7h5.81c-1.53-2.37-2.33-5.51-2.33-9.7V12.77l-8.73,5.9c4.93,1.47,7.58,5.48,7.58,11.67Z" fill="#f8eca8"/>
        <path d="M990.3,67.11c.3.76.53,1.66.58,2.67,1.49-1.23,2.96-2.33,4.44-3.31h-5.31c.1.21.2.42.28.64Z" fill="#f8eca8"/>
        <path d="M1004.32,141.89l-36.56-42.37-.75-.88-.74.76,1.36,1.6,28.42,33.4c3.53,4.06,4.63,8.69,2.98,12.65-.22.52-.47,1.01-.76,1.48h12.6c-2.03-1.76-4.15-3.94-6.54-6.64Z" fill="#f8eca8"/>
      </g>
    </g>
  </g>
</svg>