<?xml version="1.0" encoding="UTF-8"?>
<svg id="Layer_2" data-name="Layer 2" xmlns="http://www.w3.org/2000/svg" viewBox="0 0 351.43 263.74">
  <g id="Layer_1-2" data-name="Layer 1">
    <g>
      <g>
        <path d="M142.27,97.69c-10.62-.7-14.68-4.33-17.75-8.38l-28.51-38.71c19.7-.28,35.22-7.69,35.22-24.04,0-17.19-16.07-24.46-36.33-24.46h-56.32C12.44,2.1,0,17.75,0,33.82c0,14.4,9.64,25.44,24.18,25.44,10.9,0,19.29-6.84,19.29-17.6,0-4.61-2.65-8.25-6.99-8.25-3.91,0-6.71,2.66-6.71,7.13,0,3.63,2.79,6.29,2.79,8.67,0,3.63-3.36,5.45-8.81,5.45-10.2,0-18.45-9.5-18.45-20.83,0-17.33,12.86-27.11,33.26-27.11h10.76c10.48,0,11.74,2.52,11.74,11.04v66.52c0,12.02-2.52,12.72-14.82,13.42v2.23h38.01v-2.23c-12.3-.7-14.81-1.4-14.81-13.42v-33.68h16.07l36.33,49.33h20.41v-2.23ZM69.46,45.98V10.9c0-2.65,1.54-4.19,4.19-4.19h21.24c17.33,0,26.55,7.13,26.55,19.85s-9.22,19.43-26.55,19.43h-25.44Z" fill="#af983f"/>
        <path d="M174.74,97.97c-17.89,0-24.04-13.14-24.04-29.21,0-2.79.14-5.59.42-8.24h46.26c0-16.49-11.18-25.02-25.57-25.02-19.43,0-30.19,14.68-30.19,33.26s11.18,33.27,33.12,33.27c11.88,0,20.97-7.83,25.3-19.01l-3.92-1.54c-3.92,10.06-11.74,16.49-21.39,16.49ZM171.81,39.55c9.64,0,17.04,5.87,17.04,16.91h-37.03c2.1-9.92,7.55-16.91,19.99-16.91Z" fill="#af983f"/>
        <path d="M230.1,101.74c8.53,0,16.77-4.47,23.48-9.09.98,5.87,4.33,8.67,9.23,8.67,3.77,0,6.57-.98,9.08-2.79v-3.92c-2.38,1.26-4.19,1.82-5.73,1.82-3.49,0-4.89-2.93-4.89-8.66v-33.12c0-15.23-8.67-19.14-19.29-19.14-16.49,0-25.85,8.53-25.85,15.23,0,3.35,1.4,5.18,4.19,5.18,2.09,0,4.19-1.68,5.03-5.87,1.54-7.13,7.13-10.62,16.63-10.62,8.66,0,11.46,4.33,11.46,15.23v9.36c-25.85,3.92-42.2,8.94-42.2,23.34,0,9.92,7.27,14.39,18.87,14.39ZM253.44,67.92v20.68c-7.41,5.17-14.67,8.8-22.08,8.8-6.43,0-11.04-3.07-11.04-10.34,0-12.3,13.14-16.49,33.12-19.14Z" fill="#af983f"/>
        <path d="M308.53,97.69c-8.24-.7-10.2-2.38-10.2-7.83V0h-2.52l-15.51,10.48v1.54h5.45c3.35,0,4.75,1.26,4.75,4.75v73.09c0,5.45-1.95,7.13-10.2,7.83v2.23h28.23v-2.23Z" fill="#af983f"/>
        <path d="M70.44,259.13c-33.68,0-53.67-26.41-53.67-63.87s19.98-65.97,52.13-65.97c18.03,0,34.1,8.67,45.7,24.04l1.82-1.11-12.86-25.44h-2.79l-2.1,5.31c-5.59-4.33-21.11-7.41-29.77-7.41-36.2,0-61.91,30.19-61.91,70.58s25.72,68.48,63.45,68.48c18.45,0,37.31-6.85,49.33-23.06l-4.05-3.08c-10.34,14.4-28.65,21.53-45.28,21.53Z" fill="#af983f"/>
        <path d="M149.29,218.73v-89.86h-2.51l-15.52,10.48v1.54h5.45c3.35,0,4.75,1.26,4.75,4.75v73.09c0,5.45-1.96,7.13-10.2,7.83v2.23h28.23v-2.23c-8.25-.7-10.21-2.38-10.21-7.83Z" fill="#af983f"/>
        <path d="M185.93,218.73v-54.36h-2.52l-15.51,10.48v1.53h5.45c3.35,0,4.75,1.26,4.75,4.75v37.59c0,5.45-1.95,7.13-10.2,7.83v2.23h28.23v-2.23c-8.24-.7-10.2-2.38-10.2-7.83Z" fill="#af983f"/>
        <path d="M188.31,140.75c0-3.5-2.66-6.15-6.15-6.15s-6.15,2.65-6.15,6.15,2.65,6.01,6.15,6.01,6.15-2.65,6.15-6.01Z" fill="#af983f"/>
        <path d="M263.22,218.73v-36.89c0-14.4-11.46-17.47-18.73-17.47-7.97,0-16.63,3.77-21.94,6.99v-6.99h-2.52l-15.51,10.48v1.53h5.45c3.35,0,4.75,1.26,4.75,4.75v37.59c0,5.45-1.95,7.13-10.2,7.83v2.23h28.23v-2.23c-8.24-.7-10.2-2.38-10.2-7.83v-42.76c6.28-4.19,13.55-6.84,20.96-6.84s11.88,3.91,11.88,12.85v36.76c0,5.45-1.96,7.13-10.2,7.83v2.23h28.23v-2.23c-8.25-.7-10.21-2.38-10.21-7.83Z" fill="#af983f"/>
        <path d="M338.44,218.46l-24.6-28.51,11.74-11.88c6.15-6.15,10.9-8.67,19.57-9.36v-2.24h-31.17v2.24c11.6.7,9.78,4.47,7.68,6.7l-21.8,22.22v-68.76h-2.52l-15.51,10.48v1.54h5.45c3.35,0,4.75,1.26,4.75,4.75v73.09c0,5.45-1.95,7.13-10.2,7.83v2.23h28.23v-2.23c-8.24-.7-10.2-2.38-10.2-7.83v-14.53l8.53-8.66,19.14,22.5c2.79,3.21,3.21,7.82-7.82,8.53v2.23h31.72v-2.23c-4.89-.7-7.55-1.96-12.99-8.11Z" fill="#af983f"/>
      </g>
      <g>
        <path d="M119.77,26.03c0-12.72-9.22-19.85-26.55-19.85h-21.24c-2.66,0-4.19,1.54-4.19,4.19v35.08h25.44c17.33,0,26.55-6.57,26.55-19.43Z" fill="none"/>
        <path d="M187.18,55.93c0-11.04-7.41-16.91-17.04-16.91-12.44,0-17.89,6.99-19.99,16.91h37.03Z" fill="none"/>
        <path d="M218.65,86.54c0,7.27,4.61,10.34,11.04,10.34,7.41,0,14.67-3.63,22.08-8.8v-20.68c-19.98,2.65-33.12,6.84-33.12,19.14Z" fill="none"/>
        <path d="M120.04,90.91l-28.54-38.76-2.34-3.17h-1.72l34.53,46.89h2.95c-2.03-1.5-3.56-3.21-4.89-4.96Z" fill="#f8eca8"/>
        <path d="M31.62,40c0,1.18.61,2.39,1.25,3.67.73,1.45,1.55,3.1,1.55,5,0,.57-.07,1.5-.4,2.55,2.7-2.46,4.24-5.94,4.24-10.1,0-2.18-.91-4.72-3.46-4.72s-3.18,1.96-3.18,3.6Z" fill="#f8eca8"/>
        <path d="M64.26,50.06V10.37c0-2.13.66-3.94,1.83-5.27h-7.21c3.27,2.33,4.05,6.34,4.05,12.13v66.52c0,5.9-.77,9.67-2.57,12.13h6.47c-1.8-2.45-2.57-6.22-2.57-12.13v-33.68Z" fill="#f8eca8"/>
        <path d="M117.51,10.62c3.79,3.86,5.79,9.06,5.79,15.41,0,4.29-.98,10.03-5.23,14.7,4.63-3.06,7.96-7.69,7.96-14.7,0-7.46-3.58-12.29-8.52-15.41Z" fill="#f8eca8"/>
        <path d="M190.71,55.93v.53h1.27c-.36-3.01-1.18-5.69-2.43-8,.76,2.26,1.17,4.77,1.17,7.47Z" fill="#f8eca8"/>
        <path d="M145.93,59.62l.02-.16h-.16l.31-1.48.16-1.52h.16l.27-1.26c.4-1.9.91-3.66,1.53-5.29-3.07,4.85-4.75,11.07-4.75,18.32s1.88,14.38,6.39,19.98c-2.86-5.21-4.36-11.93-4.36-19.98,0-2.93.15-5.82.44-8.61Z" fill="#f8eca8"/>
        <path d="M217.99,50.2c0,1.1.21,1.53.26,1.63,0,0,0,0,0,0,.04,0,.17.03.39.03.3,0,1.12-.76,1.57-3.04.35-1.63.93-3.33,1.84-4.96-2.72,2.16-4.08,4.55-4.08,6.34Z" fill="#f8eca8"/>
        <path d="M218.16,95.75c-1.96-2.33-3.04-5.46-3.04-9.21s.91-6.65,2.52-9.17c-3.17,2.61-4.54,5.69-4.54,9.46,0,1.86,0,6.34,5.07,8.93Z" fill="#f8eca8"/>
        <path d="M256.07,54.11c0-4.01-.6-7.16-1.89-9.55.89,2.92,1.11,6.25,1.11,9.55v35.8l-.16.11.25,1.52c.53,3.17,1.77,4.62,3.18,5.25-1.48-1.82-2.5-4.8-2.5-9.56v-33.12Z" fill="#f8eca8"/>
        <path d="M292.35,16.24v73.09c0,2.82-.54,4.94-1.57,6.54h3.91c-1.03-1.6-1.57-3.71-1.57-6.54V4.41l-5.88,3.97c3.32.99,5.11,3.69,5.11,7.86Z" fill="#f8eca8"/>
        <path d="M11.57,194.73c0-20.24,5.6-37.46,15.23-49.7-11.24,11.98-17.96,29.38-17.96,49.7s6.37,36.6,17.44,48.02c-9.42-11.68-14.71-28.14-14.71-48.02Z" fill="#f8eca8"/>
        <path d="M100.71,131.75l-.44,1.1-.87,2.21c1.63,1.09,3.21,2.26,4.76,3.52l-3.45-6.83Z" fill="#f8eca8"/>
        <path d="M143.32,145.12v73.09c0,2.82-.54,4.94-1.57,6.54h3.91c-1.03-1.6-1.57-3.71-1.57-6.54v-84.92l-5.88,3.97c3.32.99,5.11,3.69,5.11,7.86Z" fill="#f8eca8"/>
        <path d="M179.95,180.61v37.59c0,2.82-.54,4.94-1.57,6.54h3.91c-1.03-1.6-1.57-3.71-1.57-6.54v-49.42l-5.87,3.97c3.31.99,5.1,3.7,5.1,7.86Z" fill="#f8eca8"/>
        <path d="M180.48,142.7c1.52,0,2.62-1.04,2.62-2.48,0-1.54-1.08-2.62-2.62-2.62s-2.62,1.08-2.62,2.62c0,1.44,1.1,2.48,2.62,2.48Z" fill="#f8eca8"/>
        <path d="M255.21,172.15c1.34,2.5,2.04,5.62,2.04,9.3v36.76c0,2.82-.54,4.94-1.57,6.54h3.91c-1.03-1.6-1.57-3.71-1.57-6.54v-36.89c0-4.15-1.11-7.09-2.8-9.16Z" fill="#f8eca8"/>
        <path d="M216.57,180.61v37.59c0,2.82-.54,4.94-1.57,6.54h3.91c-1.03-1.6-1.57-3.71-1.57-6.54v-49.42l-5.87,3.97c3.31.99,5.1,3.7,5.1,7.86Z" fill="#f8eca8"/>
        <path d="M293.89,145.12v73.09c0,2.82-.54,4.94-1.57,6.54h3.91c-1.03-1.6-1.57-3.71-1.57-6.54v-84.92l-5.88,3.97c3.32.99,5.11,3.69,5.11,7.86Z" fill="#f8eca8"/>
        <path d="M324.68,169.89c.2.51.36,1.12.39,1.8,1-.83,1.99-1.57,2.99-2.23h-3.58c.07.14.13.28.19.43Z" fill="#f8eca8"/>
        <path d="M334.12,220.27l-24.63-28.54-.51-.59-.5.51.92,1.08,19.14,22.5c2.38,2.74,3.12,5.85,2,8.52-.15.35-.32.68-.51,1h8.49c-1.37-1.19-2.8-2.66-4.41-4.47Z" fill="#f8eca8"/>
      </g>
    </g>
  </g>
</svg>