<?xml version="1.0" encoding="UTF-8"?>
<svg id="Layer_2" data-name="Layer 2" xmlns="http://www.w3.org/2000/svg" viewBox="0 0 1164.49 200">
  <g id="Layer_1-2" data-name="Layer 1">
    <g>
      <g>
        <path d="M0,0h90.42c18.56,0,26.73,1.57,32.71,6.61,6.13,4.88,8.97,13.84,8.97,27.99,0,19.5-4.72,27.21-18.09,30.19,13.05,2.2,16.98,7.71,16.67,23.59v16.51h-32.39v-13.05c-.16-11.32-3.3-13.68-17.61-13.37H31.76v26.42H0V0ZM81.61,52.84c15.41,0,18.4-1.89,18.4-12.27,0-6.76-.63-9.59-2.67-11.79-2.36-2.52-5.03-2.99-14.62-2.99H31.76v27.05h49.85Z" fill="#7700b5"/>
        <path d="M274.11,0v23.75h-84.76v18.08h79.88v20.76h-79.88v18.56h85.86v23.74h-117.31V0h116.21Z" fill="#7700b5"/>
        <path d="M350.88,0h42.77l57.4,104.89h-34.91l-10.38-18.71h-67.62l-10.06,18.71h-36.17L350.88,0ZM394.59,64.32l-22.64-41.83-22.33,41.83h44.97Z" fill="#7700b5"/>
        <path d="M465.69,0h31.92v78.94h72.18v25.95h-104.1V0Z" fill="#7700b5"/>
        <path d="M625.96,0h50.63l38.21,69.66L752.86,0h50.32v104.89h-31.14l1.57-80.99-46.54,80.99h-25.48l-45.76-80.99.94,80.99h-30.82V0Z" fill="#7700b5"/>
        <path d="M946.79,0v23.75h-84.76v18.08h79.88v20.76h-79.88v18.56h85.86v23.74h-117.31V0h116.21Z" fill="#7700b5"/>
        <path d="M971.49,0h31.92v104.89h-31.92V0Z" fill="#7700b5"/>
        <path d="M1030.79,0h90.42c18.56,0,26.73,1.57,32.71,6.61,6.13,4.88,8.97,13.84,8.97,27.99,0,19.5-4.72,27.21-18.09,30.19,13.05,2.2,16.98,7.71,16.67,23.59v16.51h-32.39v-13.05c-.16-11.32-3.3-13.68-17.61-13.37h-48.9v26.42h-31.76V0ZM1112.4,52.84c15.41,0,18.4-1.89,18.4-12.27,0-6.76-.63-9.59-2.67-11.79-2.36-2.52-5.03-2.99-14.62-2.99h-50.95v27.05h49.85Z" fill="#7700b5"/>
      </g>
      <g>
        <path d="M70.44,179.08c-.08,7.87-.33,10.54-1.46,12.97-2.11,4.62-6.49,6.81-14.92,7.38-3.32.32-9.81.4-20.59.4-15.57,0-20.59-.73-24.97-3.57-5.35-3.41-6.89-9.08-6.89-25.13,0-14.27,1.62-19.38,7.29-22.62,4.87-2.84,10.05-3.57,25.22-3.57,20.19,0,24.56.4,29.18,2.67,4.38,2.19,6.41,6.97,6.41,14.92v1.78h-15.73c-.33-5.92-1.54-6.4-15.81-6.4-13.46,0-15.89.32-17.92,2.11-1.94,1.78-2.35,3.97-2.35,12.73,0,12.97,1.21,13.95,17.02,13.95,12.24,0,14.03-.08,16.3-1.05,2.35-.97,3.24-2.67,3.24-6.57h15.97Z" fill="#ffcb05"/>
        <path d="M153.79,199.43h-16.46v-40.7h-37.46v40.7h-16.46v-54.08h70.37v54.08Z" fill="#ffcb05"/>
        <path d="M226.53,145.6c8.35,1.54,12.4,5.84,13.54,14.51.32,2.19.48,6.57.48,13.13,0,13.05-1.38,18.32-6,22.13-3.24,2.76-7.78,4.05-15.65,4.38-2.92.16-10.13.24-15.4.24-12.89,0-19.46-.24-22.7-.89-6-1.05-9.49-3.32-11.51-7.3-2.11-3.97-2.59-7.95-2.59-19.78,0-9.08.16-11.35,1.14-15,1.54-5.76,4.7-8.84,10.78-10.62,4.54-1.3,9.49-1.62,23.75-1.62,15.57,0,20.35.16,24.16.81ZM186.16,159.95c-2.19,1.7-2.84,4.38-2.84,12.16s.65,10.86,2.67,12.57c2.19,1.78,4.87,2.11,17.27,2.11,14.19,0,17.11-.49,18.97-3.08,1.54-1.94,1.94-4.7,1.94-11.92,0-13.62-.24-13.78-20.51-13.78-12.08,0-15.4.41-17.51,1.95Z" fill="#ffcb05"/>
        <path d="M253.54,145.36h41.34c10.46,0,13.13.33,16.54,2.03,5.43,2.68,7.46,7.62,7.46,17.84s-1.87,15.65-6.32,18.4c-3.16,1.95-6.81,2.51-16.21,2.51h-26.43v13.3h-16.38v-54.08ZM293.83,173c6.73,0,8.68-1.46,8.68-6.57,0-6.49-1.62-7.95-8.68-7.95h-23.92v14.51h23.92Z" fill="#ffcb05"/>
        <path d="M349.7,158.73h-24.08v-13.38h64.62v13.38h-24.08v40.7h-16.46v-40.7Z" fill="#ffcb05"/>
        <path d="M415.86,145.36v37.86l33.65-37.86h20.27v54.08h-16.46v-37.86l-33.65,37.86h-20.27v-54.08h16.46Z" fill="#ffcb05"/>
        <path d="M483.81,145.36h48.8c6.32,0,9.65.57,12.49,1.95,4.3,2.19,6.16,5.92,6.16,12.24,0,4.78-1.14,8.11-3.49,9.97-1.62,1.3-3.24,1.87-7.13,2.51,4.86.4,7.05,1.05,9,2.35,2.59,1.87,3.81,5.19,3.81,10.22,0,6.4-2.11,10.7-6.24,12.97-2.51,1.3-6.08,1.86-12.32,1.86h-51.07v-54.08ZM527.51,166.92c3.16,0,4.3-.16,5.35-.65,1.3-.73,2.11-2.19,2.11-4.05,0-2.19-1.05-3.81-2.84-4.46-1.06-.32-1.87-.4-5.03-.4h-27.24v9.57h27.64ZM529.29,187.43c3.32,0,3.97-.08,5.03-.4,1.62-.57,2.59-2.19,2.59-4.46s-.97-3.97-2.75-4.62c-.97-.32-1.62-.4-5.27-.4h-29.02v9.89h29.43Z" fill="#ffcb05"/>
        <path d="M566.44,145.36h16.46v20.03h37.46v-20.03h16.46v54.08h-16.46v-20.67h-37.46v20.67h-16.46v-54.08Z" fill="#ffcb05"/>
        <path d="M667.22,145.36v13.38h26.43c9.4,0,13.05.57,16.21,2.51,4.46,2.76,6.32,8.19,6.32,18.4,0,10.94-2.43,16.05-8.92,18.4-3.16,1.14-5.6,1.38-15.08,1.38h-41.34v-54.08h16.38ZM667.22,186.3h23.92c7.05,0,8.68-1.46,8.68-7.86,0-5.11-1.95-6.57-8.68-6.57h-23.92v14.43ZM722.99,145.36h16.46v54.08h-16.46v-54.08Z" fill="#ffcb05"/>
        <path d="M769.95,145.36v37.86l33.65-37.86h20.27v54.08h-16.46v-37.86l-33.65,37.86h-20.27v-54.08h16.46ZM779.92,127.76c.32,5.19,2.03,6.49,8.76,6.49s8.35-1.14,8.76-6.49h10.3c-1.3,10.86-5.11,13.62-19.05,13.62s-17.84-2.76-19.05-13.62h10.3Z" fill="#ffcb05"/>
        <path d="M858.17,145.36h16.46v20.19h8.59l22.38-20.19h22.62l-31.05,26.75,34.05,27.32h-23.92l-24.4-20.75h-8.27v20.75h-16.46v-54.08Z" fill="#ffcb05"/>
        <path d="M957.01,172.76c0,11.51-1.3,16.54-5.27,20.84-3.97,4.3-9.32,6.24-16.94,6.24h-1.46v-12.81c5.27-.16,7.38-4.3,7.22-13.62v-28.05h66.16v54.08h-16.46v-40.7h-33.24v14.02Z" fill="#ffcb05"/>
        <path d="M1014.34,145.36h20.75l17.92,26.03,17.59-26.03h20.75l-33.65,44.27c-6.32,8.35-10.54,10.21-22.54,10.21h-3.24v-12.81h2.43c5.84,0,7.95-.73,9.65-3.49l-29.67-38.19Z" fill="#ffcb05"/>
        <path d="M1152.82,157.6h-37.29v7.7h29.1c8.59,0,12.16.57,14.84,2.35,3.57,2.43,5.03,6.65,5.03,14.35s-1.38,11.67-4.86,14.11c-3.81,2.76-6.89,3.32-18,3.32h-42.48v-54.08h53.67v12.24ZM1115.52,187.19h24.97c6.16,0,7.62-1.05,7.62-5.68,0-3.32-1.62-4.3-7.62-4.3h-24.97v9.97Z" fill="#ffcb05"/>
      </g>
    </g>
  </g>
</svg>