<?xml version="1.0" encoding="UTF-8"?>
<svg id="Layer_2" data-name="Layer 2" xmlns="http://www.w3.org/2000/svg" viewBox="0 0 341.46 317.71">
  <g id="Layer_1-2" data-name="Layer 1">
    <g>
      <path d="M212.17,90.02h0c0,1.75-.11,3.47-.32,5.17.21-1.69.32-3.42.32-5.17Z" fill="#ffcb05"/>
      <path d="M122.75,105.86c.14.13.27.26.4.4-.13-.13-.27-.27-.4-.4Z" fill="#ffcb05"/>
      <path d="M113.82,100.46c.16.06.33.11.49.17-.16-.06-.33-.11-.49-.17Z" fill="#ffcb05"/>
      <path d="M123.73,106.88c.12.13.24.27.36.4-.12-.14-.24-.27-.36-.4Z" fill="#ffcb05"/>
      <path d="M124.67,108.02c.09.12.19.24.28.36-.09-.12-.19-.24-.28-.36Z" fill="#ffcb05"/>
      <path d="M112.41,100.01c.18.05.35.1.53.16-.18-.05-.35-.11-.53-.16Z" fill="#ffcb05"/>
      <path d="M116.94,101.76s.01,0,.02,0c0,0-.01,0-.02,0Z" fill="#ffcb05"/>
      <path d="M115.25,101c.13.05.27.11.4.16-.13-.06-.26-.11-.4-.16Z" fill="#ffcb05"/>
      <path d="M119.44,103.21c.14.09.28.19.42.29-.14-.1-.28-.2-.42-.29Z" fill="#ffcb05"/>
      <path d="M118.23,102.46c.11.06.22.14.33.2-.11-.07-.22-.14-.33-.2Z" fill="#ffcb05"/>
      <path d="M120.6,104.02c.15.11.29.23.44.34-.15-.11-.29-.23-.44-.34Z" fill="#ffcb05"/>
      <path d="M121.7,104.9c.15.12.29.25.43.38-.14-.13-.28-.25-.43-.38Z" fill="#ffcb05"/>
      <path d="M237.07,99.04c.48.02.95.05,1.42.09-.47-.05-.95-.08-1.42-.09Z" fill="#ffcb05"/>
      <path d="M238.72,99.16c.4.04.8.1,1.2.16-.4-.06-.8-.12-1.2-.16Z" fill="#ffcb05"/>
      <path d="M240.33,99.39c.39.07.78.15,1.17.24-.39-.09-.78-.17-1.17-.24Z" fill="#ffcb05"/>
      <path d="M243.44,100.19c.35.12.69.25,1.03.38-.34-.14-.68-.27-1.03-.38Z" fill="#ffcb05"/>
      <path d="M241.74,99.68c.46.11.91.24,1.35.39-.45-.14-.9-.27-1.35-.39Z" fill="#ffcb05"/>
      <path d="M230.64,99.6c.18-.04.37-.07.55-.1-.18.03-.37.06-.55.1Z" fill="#ffcb05"/>
      <path d="M211.46,97.7c-.47,2.49-1.15,4.9-2.04,7.21.89-2.31,1.58-4.72,2.04-7.21Z" fill="#ffcb05"/>
      <path d="M236.11,99.01c-.12,0-.23.01-.35.01.31,0,.62,0,.93,0-.19,0-.39-.01-.58-.01Z" fill="#ffcb05"/>
      <path d="M232.33,99.3c.22-.03.44-.05.66-.08-.22.03-.44.05-.66.08Z" fill="#ffcb05"/>
      <path d="M234.03,99.11c.23-.02.47-.03.7-.04-.23.01-.47.02-.7.04Z" fill="#ffcb05"/>
      <path d="M92.2,103.42c.2-.16.39-.33.6-.48-.2.16-.4.32-.6.48Z" fill="#ffcb05"/>
      <path d="M91.26,104.27c.19-.18.37-.36.57-.53-.19.17-.38.35-.57.53Z" fill="#ffcb05"/>
      <path d="M90.35,105.24c.19-.22.38-.43.57-.63-.2.2-.39.42-.57.63Z" fill="#ffcb05"/>
      <path d="M94.19,101.96c.25-.16.51-.3.77-.45-.26.14-.52.29-.77.45Z" fill="#ffcb05"/>
      <path d="M93.17,102.65c.21-.16.43-.3.65-.45-.22.14-.44.29-.65.45Z" fill="#ffcb05"/>
      <path d="M89.3,106.56c.25-.35.51-.69.78-1.02-.27.33-.53.66-.78,1.02Z" fill="#ffcb05"/>
      <path d="M32.64,258.47c-.45-1.11-.92-2.19-1.4-3.24.48,1.05.94,2.13,1.4,3.24Z" fill="#ffcb05"/>
      <path d="M246.23,101.39c.38.2.74.41,1.1.64-.36-.23-.73-.44-1.1-.64Z" fill="#ffcb05"/>
      <polygon points="269.91 308.85 269.91 308.85 73.62 307.97 269.91 308.85" fill="#ffcb05"/>
      <path d="M95.24,101.35c.36-.19.73-.38,1.11-.54-.38.17-.74.35-1.11.54Z" fill="#ffcb05"/>
      <path d="M30.52,253.68c-.49-1.01-.98-1.98-1.48-2.89.5.91.99,1.88,1.48,2.89Z" fill="#ffcb05"/>
      <path d="M108.13,99.16c.17.02.34.05.51.07-.17-.02-.34-.05-.51-.07Z" fill="#ffcb05"/>
      <path d="M106.69,99.03c.13,0,.26.02.39.03-.13,0-.26-.02-.39-.03Z" fill="#ffcb05"/>
      <path d="M102.76,99.12c.3-.03.6-.05.9-.07-.3.02-.6.04-.9.07Z" fill="#ffcb05"/>
      <path d="M105.24,98.99c-.41,0-.82.01-1.23.03.42-.02.83-.03,1.25-.03,0,0-.01,0-.02,0Z" fill="#ffcb05"/>
      <path d="M96.38,100.79c.36-.16.73-.31,1.1-.45-.37.14-.74.29-1.1.45Z" fill="#ffcb05"/>
      <path d="M109.56,99.36c.18.03.36.07.54.1-.18-.03-.36-.07-.54-.1Z" fill="#ffcb05"/>
      <path d="M110.99,99.65c.18.04.37.09.55.13-.18-.05-.37-.09-.55-.13Z" fill="#ffcb05"/>
      <path d="M97.83,100.22c.27-.1.54-.19.81-.27-.27.08-.54.18-.81.27Z" fill="#ffcb05"/>
      <path d="M101.52,99.28c.26-.04.53-.08.8-.11-.27.03-.53.07-.8.11Z" fill="#ffcb05"/>
      <path d="M99.07,99.83c.25-.07.51-.14.77-.2-.26.06-.51.13-.77.2Z" fill="#ffcb05"/>
      <path d="M100.29,99.52c.25-.06.51-.11.77-.15-.26.05-.51.1-.77.15Z" fill="#ffcb05"/>
      <path d="M244.83,100.72c.43.18.86.38,1.27.6-.42-.22-.84-.41-1.27-.6Z" fill="#ffcb05"/>
      <path d="M210.51,118.44c-.07-1.23-.26-2.44-.56-3.61.31,1.17.49,2.38.56,3.61,0,0,0,0,0,0Z" fill="#ffcb05"/>
      <path d="M17.62,237.74c-7.64-4.54-8.98-12.6-5.23-18.77-2.3-7.58-3.55-15.61-3.55-23.94,0,8.33,1.25,16.36,3.55,23.94-3.75,6.17-2.42,14.23,5.23,18.77,3.6,2.14,6.58,5.5,8.96,8.99-2.38-3.5-5.36-6.86-8.96-8.99Z" fill="#ffcb05"/>
      <path d="M140.66,61.53c-7.05,7.43-11.38,17.45-11.38,28.49,0,7,1.74,13.59,4.81,19.37-3.06-5.78-4.8-12.38-4.8-19.37,0-11.04,4.34-21.06,11.38-28.49Z" fill="#ffcb05"/>
      <path d="M297.42,281.01l6.8-6.88c.82-5.2,2.81-11.49,5.18-17.05-2.37,5.57-4.37,11.85-5.18,17.05l-6.8,6.88Z" fill="#ffcb05"/>
      <path d="M323.84,237.74c-3.6,2.14-6.58,5.5-8.96,9,2.37-3.5,5.36-6.86,8.96-9Z" fill="#ffcb05"/>
      <path d="M247.67,102.24c.32.21.63.43.94.66-.31-.23-.62-.45-.94-.66Z" fill="#ffcb05"/>
      <path d="M251.24,105.39c.32.37.63.76.92,1.17-.29-.41-.6-.8-.92-1.17Z" fill="#ffcb05"/>
      <path d="M248.85,103.09c.37.29.73.6,1.08.93-.35-.33-.71-.63-1.08-.93Z" fill="#ffcb05"/>
      <path d="M250.17,104.25c.27.26.54.54.79.83-.26-.29-.52-.56-.79-.83Z" fill="#ffcb05"/>
      <path d="M341.46,195.04c0-46.4-34.78-85.07-80.2-90.5-.55-1.06-1.17-2.09-1.88-3.09-5.08-7.17-13.56-11.28-23.27-11.28-3.2,0-6.4.44-9.51,1.32-2,.56-3.91,1.29-5.71,2.16.09-1.2.13-2.41.13-3.62,0-12.81-4.79-24.89-13.35-34.13,2.11-4.94,3.21-10.28,3.21-15.75,0-22.14-18.01-40.14-40.15-40.14s-40.14,18.01-40.14,40.14c0,5.47,1.1,10.81,3.21,15.75-8.56,9.24-13.35,21.32-13.35,34.13,0,1.23.05,2.45.14,3.67-4.66-2.28-9.94-3.55-15.33-3.55-9.63,0-18.07,4.12-23.16,11.31-.71,1-1.33,2.03-1.88,3.09C34.78,109.97,0,148.63,0,195.04c0,7.83,1,15.6,2.97,23.13-1.59,4.18-1.89,8.68-.81,13,1.45,5.82,5.34,10.85,10.94,14.18,2.29,1.36,4.7,3.99,6.96,7.59,3.54,5.65,7.21,15.34,8.37,22.06l.5,2.91,2.14,2.03,36.47,34.47,2.54,2.4,3.5.02,196.29.87,3.72.02,2.61-2.64,34.3-34.71,2-2.03.44-2.82c1.05-6.69,4.84-16.81,8.44-22.57,2.25-3.6,4.66-6.23,6.96-7.59,5.59-3.32,9.48-8.35,10.93-14.16,1.08-4.33.79-8.82-.81-13.01,1.98-7.54,2.98-15.3,2.98-23.13ZM313.9,248.24c-1.52,2.43-3.08,5.51-4.5,8.85-2.37,5.57-4.37,11.85-5.18,17.05l-6.8,6.88-27.51,27.83h0l-196.29-.87-36.47-34.47c-.18-1.03-.4-2.1-.66-3.19-.39-1.64-.86-3.34-1.4-5.05-.72-2.28-1.55-4.58-2.45-6.8-.45-1.11-.92-2.19-1.4-3.24-.24-.52-.48-1.04-.72-1.55-.49-1.01-.98-1.98-1.48-2.89-.5-.91-.99-1.77-1.48-2.55-.31-.5-.64-1-.98-1.5-2.38-3.5-5.36-6.86-8.96-8.99-7.64-4.54-8.97-12.6-5.23-18.77-2.3-7.58-3.55-15.61-3.55-23.94,0-43.91,34.41-79.81,77.74-82.18.42-2.17,1.3-4.29,2.72-6.29.25-.35.51-.69.78-1.02.09-.11.18-.21.27-.31.19-.22.38-.43.57-.63.11-.11.22-.22.34-.34.19-.18.37-.36.57-.53.12-.11.24-.21.37-.32.2-.17.39-.33.6-.48.12-.1.25-.19.38-.29.21-.16.43-.3.65-.45.12-.08.24-.16.36-.24.25-.16.51-.3.77-.45.1-.05.19-.11.29-.16.36-.19.73-.38,1.11-.54.01,0,.02,0,.03-.01.36-.16.73-.31,1.1-.45.12-.04.23-.08.35-.12.27-.1.54-.19.81-.27.14-.04.28-.08.43-.12.25-.07.51-.14.77-.2.15-.04.3-.07.46-.1.25-.06.51-.11.77-.15.15-.03.31-.06.46-.08.26-.04.53-.08.8-.11.15-.02.29-.04.44-.05.3-.03.6-.05.9-.07.12,0,.23-.02.35-.02.41-.02.82-.03,1.23-.03,0,0,.01,0,.02,0,.48,0,.95.02,1.43.04.13,0,.26.02.39.03.35.03.69.05,1.04.09.17.02.34.05.51.07.31.04.61.08.92.14.18.03.36.07.54.1.29.06.59.12.88.18.18.04.37.09.55.13.29.07.58.15.87.23.18.05.35.1.53.16.3.09.59.19.88.29.16.06.33.11.49.17.32.12.63.24.94.37.13.05.27.11.4.16.43.19.86.39,1.29.6,0,0,.01,0,.02,0,.43.22.86.45,1.27.69.11.06.22.14.33.2.3.18.59.36.88.55.14.09.28.19.42.29.25.17.49.34.74.52.15.11.29.23.44.34.23.18.45.36.66.54.15.12.29.25.43.38.21.19.41.38.62.58.14.13.27.26.4.4.2.21.39.42.58.63.12.13.24.27.36.4.2.24.39.48.58.73.09.12.19.24.28.36.27.37.53.76.78,1.15,1.82,2.94,3.56,5.91,5.21,8.92.19-3.29,1.2-6.41,3.15-9.05-3.06-5.78-4.81-12.38-4.81-19.37,0-11.04,4.34-21.06,11.38-28.49.77-.82,1.57-1.61,2.41-2.37.56-.51,1.14-1,1.73-1.47-3.4-5-5.38-11.05-5.38-17.55,0-1.08.05-2.15.16-3.2s.27-2.09.47-3.11c.31-1.53.74-3.02,1.26-4.45,4.21-11.5,14.99-19.85,27.79-20.5.53-.03,1.07-.04,1.61-.04,17.28,0,31.3,14.01,31.3,31.3,0,6.5-1.98,12.54-5.38,17.55,1.18.95,2.31,1.96,3.38,3.03,3.21,3.21,5.9,6.95,7.93,11.08.67,1.37,1.27,2.79,1.8,4.25,1.56,4.37,2.42,9.07,2.42,13.97h0c0,1.75-.11,3.47-.32,5.17-.1.85-.24,1.68-.39,2.51-.47,2.49-1.15,4.9-2.04,7.21-.59,1.54-1.28,3.04-2.04,4.48,1.22,1.65,2.07,3.49,2.58,5.44.31,1.17.49,2.38.56,3.61,1.66-3,3.4-5.98,5.21-8.92,2.98-4.81,7.88-8.01,13.26-9.53.54-.15,1.09-.29,1.65-.4.18-.04.37-.07.55-.1.38-.07.75-.14,1.14-.2.22-.03.44-.05.66-.08.35-.04.7-.08,1.05-.11.23-.02.47-.03.7-.04.34-.02.68-.03,1.02-.04.12,0,.23-.01.35-.01.19,0,.39,0,.58.01.13,0,.25,0,.38,0,.48.02.95.05,1.42.09.08,0,.16.02.23.03.4.04.8.1,1.2.16.14.02.27.05.41.07.39.07.78.15,1.17.24.08.02.16.03.24.05.46.11.91.24,1.35.39.12.04.23.08.35.12.35.12.69.25,1.03.38.12.05.24.1.36.15.43.18.86.38,1.27.6.04.02.08.05.12.07.38.2.74.41,1.1.64.11.07.23.15.34.22.32.21.63.43.94.66.08.06.16.12.24.18.37.29.73.6,1.08.93.08.08.16.16.24.24.27.26.54.54.79.83.09.1.18.21.27.31.32.37.63.76.92,1.17,1.06,1.5,1.82,3.07,2.31,4.68.16.54.3,1.08.4,1.62h0c35.2,1.93,64.52,25.98,74.28,58.49,2.25,7.5,3.46,15.45,3.46,23.69,0,1.04-.02,2.08-.06,3.11-.27,7.22-1.48,14.2-3.49,20.83,3.75,6.17,2.42,14.23-5.22,18.76-3.6,2.14-6.58,5.5-8.96,9-.34.5-.67,1-.98,1.5Z" fill="#fff"/>
      <path d="M231.86,254.07c-8.02,0-14.53,6.51-14.53,14.53s6.51,14.53,14.53,14.53,14.53-6.51,14.53-14.53-6.51-14.53-14.53-14.53ZM231.86,277.58c-4.95,0-8.97-4.02-8.97-8.97s4.02-8.97,8.97-8.97,8.97,4.02,8.97,8.97-4.02,8.97-8.97,8.97Z" fill="#7700b5"/>
      <path d="M183.89,219.09c0-7.27-5.89-13.16-13.16-13.16s-13.16,5.89-13.16,13.16,5.89,13.16,13.16,13.16,13.16-5.89,13.16-13.16ZM163.13,219.09c0-4.2,3.4-7.6,7.6-7.6s7.6,3.4,7.6,7.6-3.4,7.6-7.6,7.6-7.6-3.4-7.6-7.6Z" fill="#7700b5"/>
      <path d="M252.5,224.53c0-6.9-5.59-12.49-12.49-12.49s-12.49,5.59-12.49,12.49,5.59,12.49,12.49,12.49,12.49-5.59,12.49-12.49ZM233.09,224.53c0-3.82,3.1-6.93,6.92-6.93s6.93,3.1,6.93,6.93-3.1,6.93-6.93,6.93-6.92-3.1-6.92-6.93Z" fill="#7700b5"/>
      <path d="M323.84,237.74c7.64-4.53,8.97-12.59,5.22-18.76,2.01-6.63,3.22-13.61,3.49-20.83.04-1.03.06-2.07.06-3.11,0-8.23-1.21-16.19-3.46-23.69-9.76-32.51-39.08-56.57-74.28-58.49h0c-.1-.54-.24-1.08-.4-1.62-.49-1.61-1.25-3.18-2.31-4.68-.29-.41-.6-.8-.92-1.17-.09-.11-.18-.21-.27-.31-.26-.29-.52-.56-.79-.83-.08-.08-.16-.16-.24-.24-.35-.33-.71-.63-1.08-.93-.08-.06-.16-.12-.24-.18-.31-.23-.62-.45-.94-.66-.11-.07-.23-.15-.34-.22-.36-.23-.73-.44-1.1-.64-.04-.02-.08-.05-.12-.07-.42-.22-.84-.41-1.27-.6-.12-.05-.24-.1-.36-.15-.34-.14-.68-.27-1.03-.38-.12-.04-.23-.08-.35-.12-.45-.14-.9-.27-1.35-.39-.08-.02-.16-.04-.24-.05-.39-.09-.78-.17-1.17-.24-.14-.02-.27-.05-.41-.07-.4-.06-.8-.12-1.2-.16-.08,0-.16-.02-.23-.03-.47-.05-.95-.08-1.42-.09-.13,0-.25,0-.38,0-.31,0-.62,0-.93,0-.34,0-.68.02-1.02.04-.23.01-.47.02-.7.04-.35.03-.7.07-1.05.11-.22.03-.44.05-.66.08-.38.06-.76.13-1.14.2-.18.03-.37.06-.55.1-.56.12-1.11.25-1.65.4-5.38,1.51-10.29,4.72-13.26,9.53-1.82,2.94-3.55,5.91-5.21,8.92,0,0,0,0,0,0-.07-1.23-.25-2.44-.56-3.61-.51-1.95-1.36-3.78-2.58-5.44.77-1.45,1.45-2.94,2.04-4.48.89-2.31,1.58-4.72,2.04-7.21.16-.83.29-1.67.39-2.51.21-1.69.32-3.42.32-5.17h0c0-4.9-.85-9.61-2.42-13.97-.52-1.46-1.12-2.87-1.8-4.25-2.02-4.12-4.71-7.86-7.93-11.08-1.07-1.07-2.2-2.08-3.38-3.03,3.39-5,5.38-11.05,5.38-17.55,0-17.28-14.02-31.3-31.3-31.3-.54,0-1.08.01-1.61.04-12.8.65-23.58,8.99-27.79,20.5-.53,1.44-.95,2.93-1.26,4.45-.21,1.02-.37,2.06-.47,3.11s-.16,2.12-.16,3.2c0,6.5,1.98,12.55,5.38,17.55-.59.47-1.17.97-1.73,1.47-.84.75-1.64,1.55-2.41,2.37-7.05,7.43-11.38,17.45-11.38,28.49,0,7,1.74,13.59,4.8,19.37-1.95,2.64-2.96,5.76-3.15,9.05-1.66-3.01-3.4-5.98-5.21-8.92-.24-.39-.5-.77-.78-1.15-.09-.12-.19-.24-.28-.36-.19-.25-.38-.49-.58-.73-.12-.14-.24-.27-.36-.4-.19-.21-.38-.42-.58-.63-.13-.13-.27-.27-.4-.4-.2-.2-.41-.39-.62-.58-.14-.13-.28-.25-.43-.38-.22-.19-.44-.37-.66-.54-.15-.11-.29-.23-.44-.34-.24-.18-.49-.35-.74-.52-.14-.1-.28-.2-.42-.29-.29-.19-.58-.37-.88-.55-.11-.07-.22-.14-.33-.2-.42-.24-.84-.47-1.27-.69,0,0-.01,0-.02,0-.42-.21-.85-.41-1.29-.6-.13-.06-.26-.11-.4-.16-.31-.13-.63-.26-.94-.37-.16-.06-.33-.11-.49-.17-.29-.1-.59-.2-.88-.29-.18-.05-.35-.11-.53-.16-.29-.08-.58-.16-.87-.23-.18-.05-.37-.09-.55-.13-.29-.07-.59-.13-.88-.18-.18-.03-.36-.07-.54-.1-.31-.05-.61-.1-.92-.14-.17-.02-.34-.05-.51-.07-.35-.04-.69-.07-1.04-.09-.13,0-.26-.02-.39-.03-.48-.03-.96-.04-1.43-.04-.42,0-.83.01-1.25.03-.12,0-.23.02-.35.02-.3.02-.6.04-.9.07-.15.02-.29.04-.44.05-.27.03-.53.07-.8.11-.16.02-.31.05-.46.08-.26.05-.51.1-.77.15-.15.03-.31.07-.46.1-.26.06-.51.13-.77.2-.14.04-.28.08-.43.12-.27.08-.54.18-.81.27-.12.04-.23.08-.35.12-.37.14-.74.29-1.1.45-.01,0-.02,0-.03.01-.38.17-.74.35-1.11.54-.1.05-.19.11-.29.16-.26.14-.52.29-.77.45-.12.08-.24.16-.36.24-.22.14-.44.29-.65.45-.13.09-.25.19-.38.29-.2.16-.4.32-.6.48-.12.1-.25.21-.37.32-.19.17-.38.35-.57.53-.11.11-.23.22-.34.34-.2.2-.39.42-.57.63-.09.1-.18.2-.27.31-.27.33-.53.66-.78,1.02-1.42,2-2.3,4.12-2.72,6.29-43.32,2.37-77.74,38.27-77.74,82.18,0,8.33,1.25,16.36,3.55,23.94-3.75,6.17-2.42,14.23,5.23,18.77,3.6,2.14,6.58,5.5,8.96,8.99.34.5.67,1,.98,1.5.49.79.99,1.64,1.48,2.55.5.91.99,1.88,1.48,2.89.24.51.48,1.02.72,1.55.48,1.05.94,2.13,1.4,3.24.9,2.21,1.73,4.52,2.45,6.8.54,1.71,1.01,3.41,1.4,5.05.26,1.09.48,2.16.66,3.19l36.47,34.47,196.29.87h0l27.51-27.83,6.8-6.88c.82-5.2,2.81-11.49,5.18-17.05,1.42-3.34,2.98-6.42,4.5-8.85.31-.5.64-1,.98-1.5,2.37-3.5,5.36-6.86,8.96-9ZM250.31,125.24c38.54,0,69.79,31.25,69.79,69.79,0,7.99-1.35,15.65-3.82,22.8-3.25-1.19-7.14-1.97-10.88-1.91,2.03-6.28,3.16-13.18,3.34-20.17.42-16.6-4.43-35.27-17.62-46.32,10.22,12.44,13.31,31.12,11.76,46.82-.73,7.43-2.42,14.85-5.39,21.42-1.74.89-3.25,2.17-4.37,3.9-1.09,1.69-1.53,3.19-1.63,4.68-.68-.63-1.42-1.21-2.24-1.7-5.27-3.14-10.69-1.7-14.81,1.84-.58-6.5-3.85-12.09-10.48-13.08-.78-.12-1.56-.15-2.33-.14,1.44-1.93,2.58-4.05,3.01-6.34,1.95-10.49-10.58-15.44-18.78-16.66-8.21-1.22-21.43-.2-23.33,10-.46,2.47-.07,5,.71,7.44-.92-.35-1.88-.62-2.89-.77-1.82-.27-3.52-.13-5.09.34,4.13-28.15,15.84-59.27,29.38-81.71,1.87-.15,3.75-.23,5.66-.23h0ZM241.06,120.68c-15.18,24.44-28.31,59.68-31.94,90.67-.54.62-1.04,1.3-1.51,2.01-2.02-5.78-6.14-10.19-12.36-10.36,5.52-31.49,15-60.84,31.13-86.89,4.3-6.94,21.55-6.48,14.69,4.56ZM211.12,132.46c-8.71,18.22-14.76,37.52-18.97,57.29-1.21-2.14-3.12-3.79-5.39-5.06,2.53-19.27,7.47-38.55,13.79-54.55,3.67.66,7.2,1.43,10.58,2.32ZM176.53,172.35c2.84-1.88,4.72-5.11,4.72-8.77,0-3.29-1.52-6.23-3.88-8.16,3.72-2.25,6.21-6.34,6.21-11,0-4.31-2.13-8.13-5.39-10.46,4.61-2.61,7.72-7.56,7.72-13.23,0-1.57-.24-3.07-.68-4.49,3.27-1.74,7.7-2.09,10.43-.69,2.49,1.28,3.25,4.03,1.35,8.52-7.08,16.72-12.69,37.55-15.57,58.49-1.12-.32-2.26-.59-3.4-.8.54-1.09.85-2.32.85-3.63,0-2.25-.91-4.29-2.38-5.78ZM170.73,169.65c-3.36,0-6.08-2.72-6.08-6.08s2.72-6.08,6.08-6.08,6.08,2.72,6.08,6.08-2.72,6.08-6.08,6.08ZM174.47,178.12c0,2.07-1.68,3.74-3.74,3.74s-3.74-1.68-3.74-3.74,1.68-3.74,3.74-3.74,3.74,1.68,3.74,3.74ZM163.39,181.75c-1.14.21-2.28.47-3.4.79-2.87-20.94-8.48-41.77-15.56-58.49-1.9-4.49-1.14-7.24,1.35-8.52,2.73-1.4,7.15-1.05,10.43.69-.44,1.42-.67,2.93-.67,4.49,0,5.67,3.12,10.62,7.72,13.23-3.26,2.33-5.39,6.15-5.39,10.46,0,4.67,2.49,8.75,6.21,11-2.36,1.93-3.88,4.87-3.88,8.16,0,3.67,1.87,6.89,4.72,8.77h0c-1.47,1.48-2.38,3.52-2.38,5.78,0,1.3.3,2.53.84,3.63ZM170.73,131.46c-5.93,0-10.75-4.81-10.75-10.75s4.81-10.75,10.75-10.75,10.75,4.81,10.75,10.75-4.81,10.75-10.75,10.75ZM179.14,144.41c0,4.64-3.77,8.41-8.41,8.41s-8.41-3.77-8.41-8.41,3.77-8.41,8.41-8.41,8.41,3.77,8.41,8.41ZM170.73,105.53c-4.84,0-9.14,2.26-11.92,5.78-3.47-1.86-7.69-2.62-11.47-2.02-1.64-1.99-3.04-4.2-4.14-6.58l.32-.13c8.05-3.41,16.8-5.05,25.53-5.05,9.73,0,19.51,2.03,28.28,6.3l.33.16c-.99,1.9-2.17,3.67-3.52,5.31-3.78-.6-8.01.16-11.48,2.02-2.78-3.53-7.09-5.78-11.93-5.78ZM200.6,84.74c-6.07-2.76-12.51-4.66-19.1-5.7v-14.95c0-.87-.11-1.72-.31-2.54,9.99,3.67,17.52,12.46,19.4,23.18ZM170.73,18.82c5,0,9.62,1.64,13.35,4.42l-7.91,7.91c-1.27,1.27-1.27,3.33,0,4.6h0c1.27,1.27,3.33,1.27,4.6,0l7.92-7.91c2.78,3.72,4.42,8.34,4.42,13.34s-1.64,9.62-4.42,13.35l-7.92-7.92c-1.26-1.26-3.33-1.26-4.6,0h0c-1.26,1.27-1.26,3.33,0,4.6l4.43,4.43c-1.78-.53-3.62-.93-5.5-1.18-1.45-.72-3.07-1.13-4.8-1.13s-3.36.41-4.8,1.13c-1.46.2-2.89.48-4.29.84h0l4.09-4.09c1.27-1.26,1.27-3.33,0-4.6h0c-1.26-1.27-3.33-1.27-4.6,0l-7.92,7.92c-2.77-3.73-4.42-8.35-4.42-13.35s1.65-9.62,4.42-13.35l7.92,7.92c1.26,1.26,3.33,1.26,4.6,0h0c1.27-1.27,1.27-3.33,0-4.6l-7.92-7.92c3.72-2.78,8.34-4.42,13.34-4.42ZM160.28,61.56c-.2.81-.31,1.66-.31,2.54v14.49c-6.43.73-12.75,2.26-18.78,4.61,2.31-10.01,9.58-18.14,19.09-21.63ZM140.42,89.52c7.52-3.33,16.04-5.39,25.11-5.81v-19.62c0-2.86,2.34-5.2,5.2-5.2s5.2,2.34,5.2,5.2v19.85h0c9.17.85,17.7,3.37,25.1,7.18-.1,2.67-.54,5.25-1.28,7.7-8.95-4.35-19.46-6.86-30.71-6.86-10.01,0-19.44,1.99-27.71,5.49-.6-2.38-.92-4.87-.92-7.43v-.5ZM140.92,130.15c6.31,15.99,11.26,35.28,13.79,54.55-2.27,1.27-4.18,2.92-5.39,5.06-4.21-19.76-10.26-39.07-18.97-57.29,3.38-.88,6.91-1.66,10.58-2.32ZM115.09,116.12c16.13,26.05,25.6,55.4,31.12,86.89-6.22.17-10.34,4.57-12.36,10.35-.47-.71-.98-1.39-1.52-2.01-3.63-30.99-16.76-66.23-31.94-90.67-6.86-11.04,10.39-11.51,14.69-4.56ZM21.36,195.04c0-38.54,31.25-69.79,69.79-69.79h0,0c1.9,0,3.79.08,5.65.23,13.53,22.44,25.24,53.56,29.37,81.71-1.57-.47-3.26-.61-5.08-.34-1.01.15-1.96.42-2.89.77.78-2.43,1.17-4.96.71-7.44-.77-4.13-3.4-6.76-6.8-8.34-4.7-21.01-12.46-43.53-21.41-56.64,5.36,13.82,10.81,35.3,13.63,54.71-3.07-.28-6.16-.11-8.75.27-8.21,1.22-20.73,6.17-18.78,16.66.43,2.29,1.57,4.41,3.01,6.34-.78-.02-1.55.02-2.33.13-6.63.98-9.9,6.57-10.48,13.08-4.12-3.54-9.54-4.98-14.81-1.84-.82.49-1.56,1.07-2.24,1.7-.11-1.49-.54-2.99-1.63-4.68-4.58-7.07-15.57-6.5-23.15-3.74-2.47-7.15-3.82-14.81-3.82-22.8ZM41.97,251.25c-2.15,1.01-4.94-.4-6.23-3.15-1.29-2.75-.59-5.8,1.55-6.8,2.15-1.01,4.94.4,6.23,3.15,1.29,2.75.59,5.8-1.55,6.8ZM60.07,273.65l17.52,3.12-7.55,8.75c-2.74-4.44-6.11-8.43-9.97-11.88ZM271.49,285.4l-7.3-8.62,17.15-3.1c-3.81,3.4-7.14,7.35-9.86,11.72ZM305.71,248.1c-1.29,2.75-4.08,4.16-6.23,3.15-2.15-1.01-2.84-4.06-1.56-6.8,1.29-2.75,4.08-4.16,6.23-3.15,2.15,1.01,2.84,4.06,1.56,6.8ZM317.45,226.98c-4.05,2.41-7.54,5.7-10.54,9.47l-.39-.19c-5.37-2.53-11.25.76-13.62,5.82-2.26,4.82-1.27,11.04,3.47,13.81-1.27,3.41-2.28,6.72-3.04,9.71l-.37.18-40.02,7.57,15.55,17.56c-1.81,3.85-3.19,7.96-4.06,12.25-28.17-10.46-60-16.35-93.71-16.35s-65.53,5.9-93.71,16.35c-.89-4.37-2.3-8.55-4.16-12.47h0s14.88-17.4,14.88-17.4l-39.41-7.6-.2-.1c-.77-2.99-1.77-6.29-3.04-9.71,4.74-2.76,5.74-8.98,3.48-13.81-2.38-5.06-8.25-8.34-13.63-5.82l-.39.19c-2.99-3.77-6.49-7.07-10.54-9.47-2.11-1.25-.68-2.2.8-2.95,3.87-1.95,15.32-4.9,18.85.55,1.35,2.09.62,3.61.26,7.47-.26,2.83,4.47,4.75,6.7,1.91,1.57-1.99,2.86-3.71,4.43-4.64,8.37-4.99,18.43,12.3,10.57,17.07-2.42,1.47-4.1.46-8.86,1.59-4.3,1.01-4.18,5.2.05,7.54,8.49,4.7,16.82-.6,17.57-6.8,5.44,5.09,21.19,5.01,24.41-4.61,1.61-4.8-1.18-8.13-5.23-5.84-4.43,2.52-7.54,5.13-10.61,5.59-10.38,1.54-15.04-23.52-4.66-25.06,1.95-.29,4.25.26,6.99.84,3.9.82,5.42-3.26,3.09-5.42-3.18-2.94-5.62-5.77-6.11-8.41-.97-5.22,6.3-8.98,14.13-10.14,7.83-1.16,16.07.3,17.04,5.52.49,2.64-.79,6.01-2.73,9.72-1.43,2.72,1.49,6.15,4.89,4.24,2.38-1.34,4.37-2.52,6.31-2.81,10.38-1.54,15.04,23.52,4.66,25.06-3.07.46-6.96-1.12-12.06-2.22-4.66-1.01-6.09,2.96-2.83,7.03,6.54,8.17,21.47,3.7,24.75-2.19,4.77,6.3,21.76,8.71,27.17-1.08,2.69-4.88.36-8.9-4.46-7.09-5.28,1.99-9.15,4.3-12.55,4.3-11.49,0-11.5-27.59,0-27.59,2.16,0,4.53.95,7.37,2.01,4.04,1.5,6.5-2.63,4.41-5.32-2.84-3.66-4.89-7.08-4.89-9.98,0-5.75,8.59-8.62,17.26-8.62s17.26,2.88,17.26,8.62c0,2.9-2.05,6.32-4.89,9.98-2.08,2.69.38,6.82,4.41,5.32,2.84-1.06,5.21-2.01,7.37-2.01,11.5,0,11.49,27.59,0,27.59-3.4,0-7.28-2.31-12.55-4.3-4.82-1.82-7.16,2.2-4.46,7.09,5.41,9.79,22.4,7.38,27.16,1.08,3.28,5.89,18.22,10.36,24.75,2.19,3.26-4.07,1.83-8.04-2.83-7.03-5.1,1.1-8.99,2.68-12.06,2.22-10.38-1.54-5.72-26.6,4.66-25.06,1.95.29,3.93,1.47,6.31,2.81,3.39,1.9,6.31-1.52,4.89-4.24-1.94-3.71-3.22-7.08-2.73-9.72.97-5.22,9.21-6.68,17.04-5.52,7.83,1.16,15.1,4.92,14.13,10.14-.49,2.64-2.92,5.46-6.11,8.41-2.34,2.16-.81,6.25,3.09,5.42,2.74-.58,5.05-1.13,6.99-.84,10.38,1.54,5.72,26.59-4.66,25.06-3.07-.46-6.18-3.07-10.61-5.59-4.04-2.3-6.84,1.04-5.23,5.84,3.23,9.62,18.98,9.7,24.41,4.61.75,6.2,9.08,11.51,17.57,6.8,4.23-2.34,4.35-6.53.05-7.54-4.76-1.12-6.44-.12-8.86-1.59-7.86-4.77,2.2-22.06,10.57-17.07,1.57.94,2.85,2.65,4.43,4.64,2.24,2.83,6.97.92,6.7-1.91-.36-3.86-1.09-5.38.26-7.47,3.53-5.45,14.98-2.51,18.85-.55,1.48.74,2.91,1.69.8,2.95Z" fill="#7700b5"/>
      <path d="M136.43,264.61l34.3,18.5,35.62-17.75-35.62-19.75-34.3,19.01ZM170.73,277.17l-23.61-12.87,23.6-13.13,23.67,13.07-23.66,12.94Z" fill="#7700b5"/>
      <path d="M109.59,254.07c-8.02,0-14.53,6.51-14.53,14.53s6.51,14.53,14.53,14.53,14.53-6.51,14.53-14.53-6.51-14.53-14.53-14.53ZM109.59,277.58c-4.95,0-8.97-4.02-8.97-8.97s4.02-8.97,8.97-8.97,8.97,4.02,8.97,8.97-4.02,8.97-8.97,8.97Z" fill="#7700b5"/>
      <path d="M113.93,224.53c0-6.9-5.59-12.49-12.49-12.49s-12.49,5.59-12.49,12.49,5.59,12.49,12.49,12.49,12.49-5.59,12.49-12.49ZM94.52,224.53c0-3.82,3.1-6.93,6.93-6.93s6.93,3.1,6.93,6.93-3.1,6.93-6.93,6.93-6.93-3.1-6.93-6.93Z" fill="#7700b5"/>
      <path d="M316.65,224.03c-3.87-1.95-15.32-4.9-18.85.55-1.35,2.09-.62,3.61-.26,7.47.26,2.83-4.47,4.75-6.7,1.91-1.57-1.99-2.86-3.71-4.43-4.64-8.37-4.99-18.43,12.3-10.57,17.07,2.42,1.47,4.1.46,8.86,1.59,4.3,1.01,4.18,5.2-.05,7.54-8.49,4.7-16.82-.6-17.57-6.8-5.44,5.09-21.19,5.01-24.41-4.61-1.61-4.8,1.18-8.13,5.23-5.84,4.43,2.52,7.54,5.13,10.61,5.59,10.38,1.54,15.04-23.52,4.66-25.06-1.95-.29-4.25.26-6.99.84-3.9.82-5.42-3.26-3.09-5.42,3.18-2.94,5.62-5.77,6.11-8.41.97-5.22-6.3-8.98-14.13-10.14-7.83-1.16-16.07.3-17.04,5.52-.49,2.64.79,6.01,2.73,9.72,1.43,2.72-1.49,6.15-4.89,4.24-2.38-1.34-4.37-2.52-6.31-2.81-10.38-1.54-15.04,23.52-4.66,25.06,3.07.46,6.96-1.12,12.06-2.22,4.66-1.01,6.09,2.96,2.83,7.03-6.54,8.17-21.47,3.7-24.75-2.19-4.77,6.3-21.76,8.71-27.16-1.08-2.69-4.88-.36-8.9,4.46-7.09,5.28,1.99,9.15,4.3,12.55,4.3,11.49,0,11.5-27.59,0-27.59-2.16,0-4.53.95-7.37,2.01-4.04,1.5-6.5-2.63-4.41-5.32,2.84-3.66,4.89-7.08,4.89-9.98,0-5.75-8.59-8.62-17.26-8.62s-17.26,2.88-17.26,8.62c0,2.9,2.05,6.32,4.89,9.98,2.08,2.69-.38,6.82-4.41,5.32-2.84-1.06-5.21-2.01-7.37-2.01-11.5,0-11.49,27.59,0,27.59,3.4,0,7.28-2.31,12.55-4.3,4.82-1.82,7.16,2.2,4.46,7.09-5.41,9.79-22.4,7.38-27.17,1.08-3.28,5.89-18.22,10.36-24.75,2.19-3.26-4.07-1.83-8.04,2.83-7.03,5.1,1.1,8.99,2.68,12.06,2.22,10.38-1.54,5.72-26.6-4.66-25.06-1.95.29-3.93,1.47-6.31,2.81-3.39,1.9-6.31-1.52-4.89-4.24,1.94-3.71,3.22-7.08,2.73-9.72-.97-5.22-9.21-6.68-17.04-5.52-7.83,1.16-15.1,4.92-14.13,10.14.49,2.64,2.92,5.46,6.11,8.41,2.34,2.16.81,6.25-3.09,5.42-2.74-.58-5.05-1.13-6.99-.84-10.38,1.54-5.72,26.59,4.66,25.06,3.07-.46,6.18-3.07,10.61-5.59,4.04-2.3,6.83,1.04,5.23,5.84-3.23,9.62-18.98,9.7-24.41,4.61-.75,6.2-9.08,11.51-17.57,6.8-4.23-2.34-4.35-6.53-.05-7.54,4.76-1.12,6.44-.12,8.86-1.59,7.86-4.77-2.2-22.06-10.57-17.07-1.57.94-2.85,2.65-4.43,4.64-2.24,2.83-6.97.92-6.7-1.91.36-3.86,1.09-5.38-.26-7.47-3.53-5.45-14.98-2.51-18.85-.55-1.48.74-2.91,1.69-.8,2.95,4.05,2.41,7.54,5.7,10.54,9.47l.39-.19c5.37-2.52,11.25.76,13.63,5.82,2.26,4.82,1.27,11.04-3.48,13.81,1.27,3.41,2.27,6.72,3.04,9.71l.2.1,39.41,7.6-14.88,17.39h0c1.87,3.92,3.27,8.1,4.16,12.47,28.17-10.46,60-16.35,93.71-16.35s65.53,5.9,93.71,16.35c.87-4.29,2.25-8.4,4.06-12.25l-15.55-17.56,40.02-7.57.37-.18c.76-2.99,1.77-6.29,3.04-9.71-4.74-2.77-5.74-8.98-3.47-13.81,2.37-5.06,8.25-8.35,13.62-5.82l.39.19c2.99-3.77,6.49-7.07,10.54-9.47,2.11-1.25.68-2.2-.8-2.95ZM88.96,224.53c0-6.9,5.59-12.49,12.49-12.49s12.49,5.59,12.49,12.49-5.59,12.49-12.49,12.49-12.49-5.59-12.49-12.49ZM109.59,283.14c-8.02,0-14.53-6.51-14.53-14.53s6.51-14.53,14.53-14.53,14.53,6.51,14.53,14.53-6.51,14.53-14.53,14.53ZM227.52,224.53c0-6.9,5.59-12.49,12.49-12.49s12.49,5.59,12.49,12.49-5.59,12.49-12.49,12.49-12.49-5.59-12.49-12.49ZM157.57,219.09c0-7.27,5.89-13.16,13.16-13.16s13.16,5.89,13.16,13.16-5.89,13.16-13.16,13.16-13.16-5.89-13.16-13.16ZM170.73,283.11l-34.3-18.5,34.3-19.01,35.62,19.75-35.62,17.75ZM231.86,283.14c-8.02,0-14.53-6.51-14.53-14.53s6.51-14.53,14.53-14.53,14.53,6.51,14.53,14.53-6.51,14.53-14.53,14.53Z" fill="#ffcb05"/>
      <path d="M215.27,207.19c1.57-.47,3.27-.61,5.09-.34,1,.15,1.96.42,2.89.77-.78-2.43-1.17-4.96-.71-7.44,1.9-10.2,15.11-11.22,23.33-10,8.21,1.22,20.73,6.17,18.78,16.66-.43,2.29-1.57,4.41-3.01,6.34.77-.02,1.55.02,2.33.14,6.63.98,9.9,6.57,10.48,13.08,4.12-3.54,9.54-4.98,14.81-1.84.82.49,1.56,1.07,2.24,1.7.11-1.49.54-2.99,1.63-4.68,1.12-1.73,2.62-3.01,4.37-3.9,2.97-6.57,4.65-14,5.39-21.42,1.55-15.7-1.54-34.38-11.76-46.82,13.19,11.05,18.04,29.72,17.62,46.32-.18,6.99-1.31,13.89-3.34,20.17,3.74-.05,7.63.73,10.88,1.91,2.47-7.15,3.82-14.81,3.82-22.8,0-38.54-31.25-69.79-69.79-69.79h0c-1.91,0-3.79.08-5.66.23-13.53,22.44-25.25,53.56-29.38,81.71Z" fill="#ffcb05"/>
      <path d="M226.37,116.12c-16.13,26.05-25.61,55.4-31.13,86.89,6.22.17,10.34,4.57,12.36,10.36.47-.71.97-1.39,1.51-2.01,3.63-30.99,16.77-66.23,31.94-90.67,6.86-11.04-10.39-11.51-14.69-4.56Z" fill="#ffcb05"/>
      <path d="M164.92,172.35c-2.84-1.88-4.72-5.11-4.72-8.77,0-3.29,1.51-6.23,3.88-8.16-3.72-2.25-6.21-6.34-6.21-11,0-4.31,2.13-8.13,5.39-10.46-4.61-2.61-7.72-7.56-7.72-13.23,0-1.57.23-3.07.67-4.49-3.28-1.74-7.7-2.09-10.43-.69-2.49,1.28-3.25,4.03-1.35,8.52,7.08,16.72,12.68,37.55,15.56,58.49,1.12-.32,2.26-.59,3.4-.79-.54-1.09-.84-2.32-.84-3.63,0-2.25.91-4.29,2.38-5.78h0Z" fill="#ffcb05"/>
      <path d="M181.46,182.54c2.87-20.94,8.49-41.78,15.57-58.49,1.9-4.49,1.14-7.24-1.35-8.52-2.73-1.4-7.16-1.05-10.43.69.44,1.42.68,2.93.68,4.49,0,5.67-3.11,10.62-7.72,13.23,3.26,2.33,5.39,6.15,5.39,10.46,0,4.66-2.49,8.75-6.21,11,2.36,1.93,3.88,4.87,3.88,8.16,0,3.67-1.88,6.89-4.72,8.77,1.47,1.48,2.38,3.52,2.38,5.78,0,1.3-.31,2.53-.85,3.63,1.14.21,2.28.47,3.4.8Z" fill="#ffcb05"/>
      <path d="M48.32,221.57c1.09,1.69,1.53,3.19,1.63,4.68.68-.63,1.42-1.21,2.24-1.7,5.27-3.14,10.69-1.7,14.81,1.84.58-6.5,3.85-12.09,10.48-13.08.78-.12,1.56-.15,2.33-.13-1.44-1.93-2.58-4.05-3.01-6.34-1.95-10.49,10.58-15.44,18.78-16.66,2.59-.38,5.68-.55,8.75-.27-2.82-19.42-8.26-40.89-13.63-54.71,8.94,13.11,16.7,35.63,21.41,56.64,3.4,1.58,6.03,4.21,6.8,8.34.46,2.47.08,5-.71,7.44.92-.35,1.88-.62,2.89-.77,1.82-.27,3.51-.13,5.08.34-4.13-28.15-15.84-59.27-29.37-81.71-1.87-.15-3.75-.23-5.65-.23-38.54,0-69.79,31.25-69.79,69.79,0,7.99,1.35,15.65,3.82,22.8,7.57-2.76,18.57-3.34,23.15,3.74Z" fill="#ffcb05"/>
      <path d="M100.4,120.68c15.18,24.44,28.3,59.68,31.94,90.67.54.62,1.05,1.3,1.52,2.01,2.02-5.78,6.14-10.19,12.36-10.35-5.52-31.49-14.99-60.84-31.12-86.89-4.3-6.94-21.55-6.48-14.69,4.56Z" fill="#ffcb05"/>
      <path d="M304.16,241.29c-2.15-1.01-4.94.4-6.23,3.15-1.29,2.75-.59,5.8,1.56,6.8,2.15,1.01,4.94-.4,6.23-3.15,1.29-2.75.59-5.8-1.56-6.8Z" fill="#0076b6"/>
      <path d="M37.3,241.29c-2.15,1.01-2.84,4.06-1.55,6.8,1.29,2.75,4.08,4.16,6.23,3.15,2.15-1.01,2.84-4.06,1.55-6.8-1.29-2.75-4.08-4.16-6.23-3.15Z" fill="#0076b6"/>
      <path d="M246.94,224.53c0-3.82-3.1-6.93-6.93-6.93s-6.92,3.1-6.92,6.93,3.1,6.93,6.92,6.93,6.93-3.1,6.93-6.93Z" fill="#0076b6"/>
      <path d="M108.37,224.53c0-3.82-3.1-6.93-6.93-6.93s-6.93,3.1-6.93,6.93,3.1,6.93,6.93,6.93,6.93-3.1,6.93-6.93Z" fill="#0076b6"/>
      <circle cx="170.73" cy="219.09" r="7.6" fill="#0076b6"/>
      <path d="M166.99,178.12c0,2.07,1.68,3.74,3.74,3.74s3.74-1.68,3.74-3.74-1.68-3.74-3.74-3.74-3.74,1.68-3.74,3.74Z" fill="#0076b6"/>
      <path d="M162.32,144.41c0,4.64,3.77,8.41,8.41,8.41s8.41-3.77,8.41-8.41-3.77-8.41-8.41-8.41-8.41,3.77-8.41,8.41Z" fill="#0076b6"/>
      <circle cx="170.73" cy="120.72" r="10.75" transform="translate(-8.13 12.41) rotate(-4.07)" fill="#0076b6"/>
      <path d="M176.81,163.57c0-3.35-2.72-6.08-6.08-6.08s-6.08,2.72-6.08,6.08,2.72,6.08,6.08,6.08,6.08-2.72,6.08-6.08Z" fill="#0076b6"/>
      <path d="M109.59,259.63c-4.95,0-8.97,4.02-8.97,8.97s4.02,8.97,8.97,8.97,8.97-4.02,8.97-8.97-4.02-8.97-8.97-8.97Z" fill="#0076b6"/>
      <circle cx="231.86" cy="268.6" r="8.97" fill="#0076b6"/>
      <path d="M264.2,276.79l7.3,8.62c2.72-4.37,6.05-8.32,9.86-11.72l-17.15,3.1Z" fill="#0076b6"/>
      <polygon points="147.12 264.29 170.73 277.17 194.4 264.23 170.73 251.17 147.12 264.29" fill="#0076b6"/>
      <path d="M60.07,273.65c3.86,3.44,7.23,7.44,9.97,11.88l7.55-8.75-17.52-3.12Z" fill="#0076b6"/>
      <path d="M154.7,184.69c-2.53-19.27-7.47-38.55-13.79-54.55-3.67.66-7.2,1.43-10.58,2.32,8.71,18.22,14.76,37.52,18.97,57.29,1.21-2.14,3.12-3.79,5.39-5.06Z" fill="#0076b6"/>
      <path d="M186.75,184.69c2.27,1.27,4.18,2.92,5.39,5.06,4.21-19.76,10.26-39.07,18.97-57.29-3.38-.88-6.91-1.66-10.58-2.32-6.31,15.99-11.26,35.28-13.79,54.55Z" fill="#0076b6"/>
      <path d="M165.3,31.16c1.27,1.26,1.27,3.33,0,4.6h0c-1.27,1.27-3.33,1.27-4.6,0l-7.92-7.92c-2.78,3.73-4.42,8.34-4.42,13.35s1.65,9.62,4.42,13.35l7.92-7.92c1.26-1.26,3.33-1.26,4.6,0h0c1.26,1.26,1.26,3.33,0,4.6l-4.09,4.09h0c1.4-.37,2.83-.65,4.29-.84,1.44-.72,3.08-1.13,4.8-1.13s3.35.41,4.8,1.13c1.88.25,3.72.65,5.5,1.18l-4.43-4.43c-1.26-1.26-1.26-3.33,0-4.6h0c1.26-1.27,3.33-1.27,4.6,0l7.92,7.92c2.78-3.73,4.42-8.35,4.42-13.35s-1.64-9.62-4.42-13.34l-7.92,7.91c-1.26,1.26-3.33,1.26-4.6,0h0c-1.26-1.26-1.26-3.33,0-4.6l7.91-7.91c-3.73-2.78-8.34-4.42-13.35-4.42s-9.62,1.64-13.34,4.42l7.92,7.92Z" fill="#ffcb05"/>
      <path d="M169.05,91.96c11.25,0,21.76,2.5,30.71,6.86.74-2.45,1.18-5.03,1.28-7.7-7.4-3.81-15.93-6.33-25.1-7.18h0v-19.85c0-2.86-2.34-5.2-5.2-5.2s-5.2,2.34-5.2,5.2v19.62c-9.07.42-17.59,2.48-25.11,5.81v.5c0,2.57.32,5.05.92,7.43,8.27-3.51,17.69-5.49,27.71-5.49Z" fill="#ffcb05"/>
      <path d="M181.2,61.56c.2.81.31,1.66.31,2.54v14.95c6.58,1.05,13.03,2.94,19.1,5.7-1.89-10.72-9.41-19.51-19.4-23.18Z" fill="#ffcb05"/>
      <path d="M182.65,111.31c3.48-1.86,7.71-2.62,11.48-2.02,1.35-1.64,2.54-3.41,3.52-5.31l-.33-.16c-8.77-4.26-18.55-6.3-28.28-6.3-8.73,0-17.49,1.64-25.53,5.05l-.32.13c1.1,2.37,2.5,4.58,4.14,6.58,3.77-.59,8,.17,11.47,2.02,2.78-3.53,7.08-5.78,11.92-5.78s9.14,2.26,11.93,5.78Z" fill="#ffcb05"/>
      <path d="M159.98,78.58v-14.49c0-.87.11-1.72.31-2.54-9.5,3.49-16.78,11.61-19.09,21.63,6.03-2.34,12.35-3.87,18.78-4.61Z" fill="#ffcb05"/>
    </g>
  </g>
</svg>