<?xml version="1.0" encoding="UTF-8"?>
<svg id="Layer_2" data-name="Layer 2" xmlns="http://www.w3.org/2000/svg" viewBox="0 0 1091.85 73.54">
  <g id="Layer_1-2" data-name="Layer 1">
    <g>
      <path d="M0,.54h62.46c12.82,0,18.47,1.09,22.59,4.56,4.24,3.37,6.19,9.56,6.19,19.33,0,13.47-3.26,18.79-12.49,20.86,9.02,1.52,11.73,5.32,11.51,16.29v11.41h-22.38v-9.02c-.11-7.82-2.28-9.45-12.17-9.23H21.94v18.25H0V.54ZM56.38,37.04c10.65,0,12.71-1.3,12.71-8.47,0-4.67-.43-6.63-1.85-8.15-1.63-1.74-3.48-2.06-10.1-2.06H21.94v18.68h34.43Z" fill="#7700b5"/>
      <path d="M189.33.54v16.4h-58.55v12.49h55.18v14.34h-55.18v12.82h59.31v16.4h-81.04V.54h80.28Z" fill="#7700b5"/>
      <path d="M242.33.54h29.55l39.65,72.45h-24.12l-7.17-12.93h-46.71l-6.95,12.93h-24.98L242.33.54ZM272.53,44.97l-15.64-28.9-15.42,28.9h31.07Z" fill="#7700b5"/>
      <path d="M321.62.54h22.05v54.53h49.86v17.92h-71.91V.54Z" fill="#7700b5"/>
      <path d="M432.3.54h34.98l26.4,48.12L519.97.54h34.76v72.45h-21.51l1.09-55.94-32.15,55.94h-17.6l-31.61-55.94.65,55.94h-21.29V.54Z" fill="#7700b5"/>
      <path d="M653.89.54v16.4h-58.55v12.49h55.18v14.34h-55.18v12.82h59.31v16.4h-81.04V.54h80.28Z" fill="#7700b5"/>
      <path d="M670.94.54h22.05v72.45h-22.05V.54Z" fill="#7700b5"/>
      <path d="M711.89.54h62.46c12.82,0,18.47,1.09,22.59,4.56,4.24,3.37,6.19,9.56,6.19,19.33,0,13.47-3.26,18.79-12.49,20.86,9.02,1.52,11.73,5.32,11.51,16.29v11.41h-22.38v-9.02c-.11-7.82-2.28-9.45-12.17-9.23h-33.78v18.25h-21.94V.54ZM768.27,37.04c10.65,0,12.71-1.3,12.71-8.47,0-4.67-.43-6.63-1.85-8.15-1.63-1.74-3.48-2.06-10.1-2.06h-35.2v18.68h34.43Z" fill="#7700b5"/>
      <path d="M939.13,45.73c-.11,10.54-.43,14.12-1.96,17.38-2.82,6.19-8.69,9.12-19.99,9.88-4.45.43-13.14.54-27.59.54-20.86,0-27.59-.98-33.46-4.78-7.17-4.56-9.23-12.17-9.23-33.67,0-19.12,2.17-25.96,9.78-30.31,6.52-3.8,13.47-4.78,33.78-4.78,27.05,0,32.91.54,39.11,3.58,5.87,2.93,8.58,9.34,8.58,19.99v2.39h-21.07c-.43-7.93-2.06-8.58-21.18-8.58-18.03,0-21.29.43-24.01,2.82-2.61,2.39-3.15,5.32-3.15,17.05,0,17.38,1.63,18.68,22.81,18.68,16.4,0,18.79-.11,21.83-1.41,3.15-1.3,4.34-3.58,4.34-8.8h21.4Z" fill="#ffcb05"/>
      <path d="M976.6,73h-21.62v-20.21h21.62v20.21Z" fill="#ffcb05"/>
      <path d="M993.97.54h22.05v27.05h11.51l29.98-27.05h30.31l-41.6,35.85,45.62,36.61h-32.05l-32.7-27.81h-11.08v27.81h-22.05V.54Z" fill="#ffcb05"/>
    </g>
  </g>
</svg>