<?xml version="1.0" encoding="UTF-8"?>
<svg id="Layer_2" data-name="Layer 2" xmlns="http://www.w3.org/2000/svg" viewBox="0 0 229.09 335">
  <g id="Layer_1-2" data-name="Layer 1">
    <g>
      <path d="M224.86,220.45c0-22.59-6.78-44.3-19.61-62.8-3.85-5.55-8.2-10.72-12.98-15.47-.05-.05-.1-.1-.16-.15-.89-.88-1.8-1.75-2.73-2.61-.1-.09-.2-.18-.29-.27-.89-.81-1.78-1.61-2.7-2.4-.13-.11-.26-.22-.39-.33-.57-.48-1.13-.97-1.7-1.44.57.46,1.12.94,1.67,1.42-.94-.8-1.89-1.59-2.85-2.35-1.69-1.34-3.42-2.63-5.17-3.87.17.12.35.25.52.37-.3-.22-.61-.43-.92-.65.07.05.13.09.2.14-2.41-1.69-4.9-3.28-7.43-4.77.2.12.41.24.61.36-.46-.27-.92-.55-1.38-.82-.99-.57-2-1.13-3.01-1.67-.2-.11-.4-.23-.6-.33l-5.04-2.66,4.01-4.06,3.51-3.55.96-.98.21-1.35c.43-2.74,1.94-6.43,3.09-8.27.62-.99,1.25-1.75,1.88-2.26l.24-.19s0,0,0,0l.27-.16c2.32-1.38,3.93-3.49,4.54-5.92.22-.86.29-1.73.25-2.6,0-.02,0-.03,0-.05-.02-.42-.07-.83-.15-1.25,0-.02,0-.03,0-.05-.02-.13-.04-.25-.07-.38l-.23-.95.21-.96c.08-.35.14-.7.2-1.05,0-.05.02-.09.03-.14.13-.71.24-1.41.33-2.13,0,0,0,0,0,0,.18-1.47.29-2.94.29-4.42,0-17.22-12.27-31.96-29.18-35.03l-1.58-.29-.99-1.26c-.15-.19-.32-.36-.47-.54-.04-.05-.08-.09-.12-.14-2.14-2.31-5.18-3.58-8.68-3.58-.29,0-.59,0-.89.03l-3.66.23-.75-3.59c-.06-.29-.15-.58-.23-.87-.05-.18-.09-.37-.14-.55-.12-.43-.26-.85-.41-1.26-.06-.16-.12-.32-.18-.48-.17-.42-.34-.84-.54-1.26-.07-.14-.14-.28-.21-.41-.21-.42-.43-.83-.67-1.23-.07-.11-.14-.22-.21-.33-.22-.35-.43-.71-.67-1.05l-1.13-1.59.47-1.89c.32-1.28.48-2.6.48-3.93,0-8.92-7.26-16.18-16.18-16.18s-16.18,7.26-16.18,16.18c0,1.33.16,2.65.48,3.93l.47,1.89-1.13,1.59c-.24.34-.45.69-.67,1.04-.07.11-.15.22-.21.33-.24.4-.46.81-.66,1.23-.07.14-.14.28-.21.42-.19.41-.37.83-.54,1.25-.06.16-.12.32-.18.49-.15.41-.29.83-.41,1.26-.05.18-.1.37-.15.56-.07.29-.16.57-.23.86l-.75,3.59-3.66-.24c-.31-.02-.62-.03-.92-.03-3.47,0-6.5,1.28-8.64,3.59-.04.04-.08.09-.12.13-.16.18-.33.35-.48.54l-.99,1.27-1.58.29c-16.91,3.08-29.17,17.81-29.17,35.03,0,1.48.1,2.96.29,4.42,0,0,0,0,0,0,.09.71.2,1.42.33,2.12,0,.05.02.09.03.14.07.35.13.71.2,1.05l.21.96-.23.95c-.03.13-.04.25-.07.38,0,.02,0,.03,0,.05-.08.42-.13.83-.15,1.25,0,.02,0,.03,0,.05-.04.87.03,1.74.25,2.6.61,2.43,2.22,4.54,4.54,5.93l.13.08c.11.07.23.16.35.25l.03.03c.14.11.28.24.42.38.03.03.06.05.08.08.14.14.27.29.41.45.03.03.05.06.08.09.3.36.6.78.89,1.25,1.14,1.81,2.59,5.33,3.07,8.09l.24,1.4,1.03.97,3.64,3.44,4.31,4.07-5.25,2.75c-2.38,1.25-4.72,2.6-7.02,4.03.08-.05.17-.1.26-.15-.47.29-.93.58-1.39.88.16-.1.31-.21.47-.31-1.25.79-2.49,1.6-3.71,2.44.36-.25.74-.48,1.1-.72-2.28,1.53-4.52,3.14-6.69,4.85-2.14,1.68-4.22,3.44-6.23,5.27.63-.57,1.26-1.15,1.9-1.7-3.71,3.23-7.19,6.71-10.43,10.4-.03.03-.06.07-.09.1-.86.98-1.69,1.97-2.52,2.97-.04.05-.07.09-.11.14-1.7,2.09-3.34,4.24-4.89,6.45-12.99,18.57-19.85,40.4-19.85,63.14,0,.56.02,1.11.03,1.67,0,.5.01,1.01.03,1.51.02.69.04,1.37.08,2.06.02.51.06,1.02.09,1.54.07,1.1.15,2.19.25,3.28.05.5.09,1,.14,1.5.07.67.14,1.35.23,2.02.07.54.14,1.07.21,1.61.14,1.05.3,2.1.48,3.15.08.49.17.99.26,1.48.12.66.24,1.32.37,1.98.12.58.25,1.17.37,1.75.21.98.44,1.96.68,2.94.12.49.24.97.37,1.45.17.65.34,1.3.52,1.94.22.79.45,1.57.69,2.35.1.32.19.65.29.97-.06-.2-.12-.4-.18-.6,1.08,3.49,2.34,6.94,3.78,10.33,2.05,4.84,4.43,9.5,7.12,13.96-.33-.55-.67-1.09-.99-1.65.34.59.7,1.16,1.05,1.74.05.08.09.15.14.23,1.79,2.94,3.71,5.8,5.77,8.56.06.08.12.16.18.24,2.06,2.75,4.26,5.41,6.58,7.98.07.08.14.16.21.23,1.17,1.28,2.35,2.54,3.58,3.77,1.23,1.23,2.49,2.42,3.77,3.58.08.07.15.14.23.21,2.56,2.32,5.22,4.52,7.97,6.58.08.06.16.12.24.18,2.76,2.06,5.61,3.98,8.55,5.76.08.05.16.1.24.14.56.34,1.12.69,1.7,1.02-.54-.31-1.07-.64-1.6-.96,4.46,2.69,9.12,5.07,13.96,7.12,3.39,1.43,6.83,2.69,10.32,3.77-.2-.06-.41-.12-.61-.18.22.07.44.13.65.19.89.28,1.78.54,2.68.79.65.18,1.29.35,1.94.52.48.13.97.25,1.45.37.99.24,1.98.47,2.97.69.57.12,1.14.25,1.72.37.66.13,1.32.25,1.99.38.49.09.98.17,1.47.26,1.05.18,2.11.34,3.17.48.53.07,1.06.15,1.59.21.67.08,1.35.16,2.02.23.5.05,1,.1,1.5.14,1.09.1,2.18.18,3.28.25.51.03,1.03.06,1.54.09.68.03,1.37.06,2.06.08.51.01,1.01.02,1.52.03.56,0,1.11.03,1.67.03s1.11-.02,1.66-.03c.51,0,1.02-.01,1.53-.03.69-.02,1.37-.04,2.05-.08.52-.02,1.04-.06,1.56-.09,1.09-.07,2.18-.15,3.26-.24.5-.05,1.01-.09,1.51-.14.67-.07,1.35-.14,2.02-.23.54-.07,1.08-.14,1.62-.22,1.05-.14,2.1-.3,3.14-.48.49-.08.99-.17,1.48-.26.66-.12,1.32-.24,1.98-.37.59-.12,1.19-.25,1.78-.38.98-.21,1.95-.44,2.92-.68.48-.12.96-.24,1.44-.37.65-.17,1.3-.34,1.95-.52.9-.25,1.79-.52,2.68-.79.22-.07.45-.13.67-.2-.21.07-.42.12-.63.19,3.48-1.08,6.92-2.33,10.31-3.77,4.84-2.05,9.5-4.43,13.97-7.12-.55.33-1.09.67-1.64.99.59-.34,1.16-.7,1.74-1.05.07-.05.15-.09.22-.13,2.94-1.79,5.79-3.71,8.56-5.77.08-.06.16-.12.24-.18,2.75-2.06,5.41-4.25,7.97-6.57.08-.07.16-.14.24-.22,1.28-1.16,2.54-2.35,3.77-3.58,1.23-1.23,2.42-2.49,3.58-3.77.07-.08.14-.16.22-.24,2.32-2.56,4.52-5.22,6.58-7.97.06-.08.12-.16.18-.24,2.06-2.76,3.98-5.61,5.76-8.55.05-.08.1-.16.15-.24.34-.56.69-1.12,1.02-1.69-.31.54-.64,1.06-.96,1.59,2.69-4.46,5.07-9.12,7.12-13.96,1.43-3.39,2.69-6.83,3.77-10.32-.06.2-.12.41-.18.61.07-.23.14-.47.21-.71.27-.87.53-1.75.77-2.63.18-.65.35-1.3.52-1.95.13-.48.25-.96.37-1.45.24-.99.47-1.98.69-2.97.12-.57.25-1.15.37-1.72.13-.66.26-1.33.38-1.99.09-.49.17-.98.25-1.46.18-1.06.34-2.12.48-3.19.07-.52.15-1.05.21-1.57.08-.68.16-1.35.23-2.03.05-.49.1-.99.14-1.48.1-1.1.18-2.2.25-3.3.03-.51.06-1.01.09-1.52.03-.69.06-1.38.08-2.07.01-.5.02-1,.03-1.5,0-.56.03-1.12.03-1.69ZM64.77,122.01c-.22.11-.43.22-.65.33.22-.11.43-.22.65-.33ZM8.48,220.45c0-45.15,28.22-83.71,67.98-99.01l-12.82-12.12c-.54-3.13-2.15-7.23-3.65-9.63-.36-.57-.76-1.15-1.21-1.69-.15-.18-.3-.36-.46-.53-.16-.17-.32-.34-.49-.5-.17-.16-.34-.32-.52-.47-.18-.15-.36-.29-.54-.43-.19-.13-.38-.26-.57-.38-2.91-1.73-3.42-4.8-1.99-7.15-.66-2.17-1.09-4.43-1.26-6.76-.06-.78-.09-1.56-.09-2.36,0-1.05.05-2.08.15-3.1.1-1.02.25-2.02.44-3.01.78-3.95,2.31-7.64,4.42-10.91,1.06-1.63,2.27-3.16,3.6-4.57.67-.7,1.37-1.38,2.1-2.01,3.28-2.87,7.17-5.07,11.45-6.38.48-.15.96-.28,1.44-.4,1.94-.49,3.95-.81,6.01-.92.16-.83.49-1.64,1.03-2.4,3.24-4.57,11.1-3.35,13.88,1.13.69,1.12,1.36,2.25,1.99,3.4.05-.94.28-1.84.71-2.66.14-.27.3-.54.49-.79-1.17-2.2-1.83-4.72-1.83-7.38,0-3.11.9-6.02,2.46-8.46.93-1.47,2.1-2.77,3.46-3.86-.16-.24-.31-.48-.46-.73-.29-.5-.54-1.02-.76-1.57-.11-.27-.21-.55-.29-.83-.35-1.12-.54-2.32-.54-3.56,0-6.59,5.34-11.93,11.93-11.93s11.93,5.34,11.93,11.93c0,1.86-.42,3.62-1.18,5.19-.13.26-.26.52-.41.77s-.3.49-.46.73c3.61,2.89,5.91,7.34,5.91,12.32,0,1.67-.26,3.27-.74,4.78-.29.9-.65,1.77-1.09,2.6.37.5.65,1.05.85,1.63.1.29.18.59.23.89.06.3.09.61.11.93.63-1.14,1.29-2.28,1.99-3.4,1.13-1.83,3-3.05,5.05-3.63,3.11-.88,6.85-.3,8.83,2.5.14.19.26.38.37.58.11.2.21.39.29.59.17.4.29.81.37,1.22h0c2.58.14,5.08.59,7.45,1.32.95.29,1.88.63,2.79,1,3.64,1.51,6.93,3.68,9.73,6.36.7.67,1.37,1.37,2,2.11.95,1.1,1.83,2.27,2.62,3.49,2.12,3.27,3.64,6.96,4.42,10.91.2.99.34,1.99.44,3.01.1,1.02.15,2.05.15,3.1,0,3.17-.47,6.23-1.35,9.12.18.29.33.6.44.91.35.94.42,1.94.19,2.9-.08.32-.19.63-.34.94-.44.92-1.19,1.75-2.29,2.4-.39.23-.76.5-1.12.8-.18.15-.35.31-.52.47-.84.81-1.55,1.77-2.15,2.73-.19.31-.39.64-.58,1s-.39.74-.58,1.13c-1.14,2.38-2.16,5.35-2.53,7.73l-12.02,12.16c39.36,15.5,67.22,53.86,67.22,98.72,0,58.58-47.49,106.06-106.06,106.06S8.48,279.03,8.48,220.45ZM198.62,149.07c-.2-.24-.4-.49-.61-.72.21.24.4.48.61.72ZM196.57,146.73c-.43-.48-.85-.96-1.29-1.43.44.47.86.95,1.29,1.43ZM194.23,144.21c-.6-.62-1.19-1.25-1.81-1.86.61.61,1.21,1.23,1.81,1.86ZM191.68,141.62c-.73-.71-1.46-1.42-2.21-2.11.75.69,1.48,1.4,2.21,2.11ZM188.92,139.01c-.82-.75-1.66-1.5-2.5-2.23.85.73,1.68,1.47,2.5,2.23ZM165.94,122.84c.14.07.28.15.42.22-.14-.07-.28-.15-.42-.22ZM60.5,124.29c-.12.07-.24.13-.37.2.12-.07.24-.13.37-.2ZM40.21,138.97c-1.95,1.78-3.83,3.63-5.65,5.54,1.82-1.92,3.71-3.77,5.65-5.54ZM33.81,145.32c-.57.62-1.14,1.24-1.7,1.86.56-.63,1.13-1.25,1.7-1.86ZM30.94,148.53c-.39.45-.77.9-1.15,1.36.38-.46.76-.91,1.15-1.36ZM26.05,154.62s.03-.05.05-.07c-.02.02-.03.05-.05.07ZM27.63,152.56c.26-.34.53-.68.79-1.01-.27.33-.53.67-.79,1.01ZM6.22,241.36c.02.08.03.17.05.25-.02-.08-.03-.17-.05-.25ZM7.08,245.44c.05.2.1.41.15.61-.05-.2-.1-.41-.15-.61ZM7.95,248.89c.11.42.22.84.34,1.26-.12-.42-.23-.84-.34-1.26ZM23.26,282.4c.76,1.11,1.54,2.21,2.34,3.29-.8-1.08-1.58-2.18-2.34-3.29ZM20.28,277.77c.86,1.41,1.75,2.81,2.68,4.18-.93-1.38-1.81-2.77-2.68-4.18ZM26.54,286.94c.77,1.01,1.55,2.01,2.35,3-.8-.99-1.59-1.99-2.35-3ZM30.2,291.51c.64.76,1.29,1.51,1.95,2.25-.66-.74-1.31-1.49-1.95-2.25ZM35.57,297.42c-.68-.7-1.35-1.4-2.01-2.11.66.71,1.33,1.41,2.01,2.11ZM37.58,299.43c.7.68,1.4,1.35,2.11,2.01-.71-.66-1.41-1.33-2.11-2.01ZM41.24,302.85c.74.66,1.5,1.31,2.26,1.95-.76-.64-1.51-1.29-2.26-1.95ZM45.09,306.14c.97.79,1.96,1.56,2.95,2.32-1-.76-1.98-1.53-2.95-2.32ZM53.03,312.04c1.37.92,2.77,1.82,4.19,2.68-1.41-.86-2.81-1.75-4.19-2.68ZM49.31,309.4c1.09.8,2.2,1.59,3.32,2.36-1.12-.76-2.23-1.55-3.32-2.36ZM84.84,326.71c.42.12.83.22,1.25.34-.42-.11-.83-.22-1.25-.34ZM88.93,327.77c.21.05.41.1.62.15-.21-.05-.41-.1-.62-.15ZM93.38,328.73c.08.02.17.03.25.05-.08-.02-.17-.03-.25-.05ZM135.5,328.77c.08-.01.15-.03.23-.04-.08.01-.15.03-.23.04ZM139.57,327.91c.21-.05.42-.1.63-.15-.21.05-.42.1-.63.15ZM143.03,327.04c.42-.11.83-.22,1.24-.33-.41.12-.83.22-1.24.33ZM176.47,311.75c1.12-.76,2.22-1.55,3.31-2.35-1.09.8-2.19,1.59-3.31,2.35ZM171.86,314.72c1.42-.86,2.82-1.75,4.19-2.68-1.38.93-2.78,1.82-4.19,2.68ZM181.04,308.46c1.01-.77,2.01-1.55,3-2.36-.99.8-1.99,1.59-3,2.36ZM185.6,304.8c.76-.64,1.51-1.29,2.26-1.95-.74.66-1.5,1.31-2.26,1.95ZM191.51,299.43c-.7.68-1.4,1.35-2.11,2.01.71-.66,1.41-1.33,2.11-2.01ZM193.52,297.42c.68-.7,1.35-1.4,2.01-2.11-.66.71-1.33,1.41-2.01,2.11ZM196.94,293.76c.66-.74,1.31-1.5,1.95-2.26-.64.76-1.29,1.51-1.95,2.26ZM200.23,289.91c.79-.97,1.56-1.96,2.32-2.95-.76,1-1.53,1.98-2.32,2.95ZM206.13,281.97c.92-1.37,1.82-2.77,2.68-4.19-.86,1.41-1.75,2.81-2.68,4.19ZM203.49,285.69c.81-1.1,1.6-2.2,2.36-3.32-.76,1.12-1.55,2.23-2.36,3.32ZM220.81,250.16c.12-.41.22-.83.33-1.24-.11.41-.22.83-.33,1.24ZM221.86,246.06c.05-.2.1-.4.14-.6-.05.2-.1.4-.14.6ZM222.82,241.61c.01-.07.03-.15.04-.23-.01.08-.03.15-.04.23Z" fill="#ffcb05"/>
      <path d="M173.34,127.12c.31.2.63.39.94.59-.31-.2-.63-.39-.94-.59Z" fill="#ffcb05"/>
      <path d="M208.73,155.24c-6.41-9.25-14.14-17.49-22.95-24.5-5.59-4.45-11.56-8.35-17.85-11.66l3.51-3.55,1.92-1.95.42-2.7c.32-2.05,1.59-5.22,2.5-6.68.54-.86.9-1.18.97-1.23,3.29-1.96,5.59-4.99,6.47-8.53.53-2.11.53-4.27.03-6.35.63-2.84.95-5.74.95-8.66,0-19.45-13.98-35.8-32.65-39.2-2.93-3.74-7.49-5.87-12.61-5.87-.39,0-.77.01-1.15.04-.68-3.26-2.03-6.33-3.95-9.03.4-1.61.61-3.27.61-4.95,0-11.25-9.16-20.41-20.41-20.41s-20.41,9.16-20.41,20.41c0,1.69.21,3.35.61,4.96-1.92,2.7-3.27,5.76-3.95,9.02-.4-.03-.8-.04-1.2-.04-5.09,0-9.63,2.13-12.57,5.88-18.67,3.4-32.65,19.74-32.65,39.2,0,2.92.32,5.82.95,8.66-.5,2.08-.5,4.24.03,6.35.88,3.54,3.18,6.56,6.47,8.53.07.06.43.38.97,1.24.88,1.41,2.12,4.45,2.48,6.56l.48,2.79,2.06,1.94,3.64,3.44c-6.2,3.25-12.1,7.06-17.63,11.41-8.91,7-16.72,15.26-23.22,24.54C7.13,174.17,0,196.84,0,220.45c0,15.46,3.03,30.46,9,44.59,5.77,13.64,14.03,25.89,24.54,36.41,10.52,10.52,22.77,18.77,36.41,24.54,14.13,5.98,29.13,9.01,44.59,9.01s30.46-3.03,44.59-9.01c13.64-5.77,25.89-14.03,36.41-24.54,10.52-10.52,18.78-22.77,24.54-36.41,5.98-14.13,9.01-29.13,9.01-44.59,0-23.46-7.04-46-20.36-65.21ZM224.8,223.64c-.02.69-.04,1.38-.08,2.07-.02.51-.06,1.01-.09,1.52-.07,1.1-.15,2.21-.25,3.3-.04.5-.09.99-.14,1.48-.07.68-.14,1.35-.23,2.03-.06.53-.14,1.05-.21,1.57-.15,1.07-.31,2.13-.48,3.19-.08.49-.16.98-.25,1.46-.12.67-.24,1.33-.38,1.99-.12.57-.24,1.15-.37,1.72-.22.99-.44,1.98-.69,2.97-.12.48-.24.96-.37,1.45-.17.65-.34,1.3-.52,1.95-.25.88-.51,1.75-.77,2.63-.07.24-.13.47-.21.71.06-.2.12-.41.18-.61-1.08,3.49-2.34,6.93-3.77,10.32-2.05,4.84-4.43,9.5-7.12,13.96.32-.53.65-1.06.96-1.59-.33.57-.68,1.13-1.02,1.69-.05.08-.1.16-.15.24-1.78,2.94-3.71,5.79-5.76,8.55-.06.08-.12.16-.18.24-2.06,2.75-4.25,5.41-6.58,7.97-.07.08-.14.16-.22.24-1.17,1.28-2.35,2.54-3.58,3.77-1.23,1.23-2.49,2.41-3.77,3.58-.08.07-.16.14-.24.22-2.56,2.32-5.22,4.52-7.97,6.57-.08.06-.16.12-.24.18-2.76,2.06-5.61,3.98-8.56,5.77-.07.05-.15.09-.22.13-.58.35-1.15.71-1.74,1.05.55-.32,1.1-.66,1.64-.99-4.46,2.69-9.12,5.07-13.97,7.12-3.39,1.43-6.82,2.69-10.31,3.77.21-.06.42-.12.63-.19-.22.07-.45.13-.67.2-.89.28-1.79.54-2.68.79-.65.18-1.3.35-1.95.52-.48.13-.96.25-1.44.37-.97.24-1.94.46-2.92.68-.59.13-1.18.26-1.78.38-.66.13-1.32.25-1.98.37-.49.09-.99.17-1.48.26-1.04.17-2.09.33-3.14.48-.54.07-1.08.15-1.62.22-.67.08-1.34.16-2.02.23-.5.05-1.01.1-1.51.14-1.08.1-2.17.18-3.26.24-.52.03-1.04.06-1.56.09-.68.03-1.37.06-2.05.08-.51.01-1.02.02-1.53.03-.55,0-1.11.03-1.66.03s-1.11-.02-1.67-.03c-.51,0-1.02-.01-1.52-.03-.69-.02-1.37-.04-2.06-.08-.51-.02-1.03-.06-1.54-.09-1.1-.07-2.19-.15-3.28-.25-.5-.04-1-.09-1.5-.14-.67-.07-1.35-.14-2.02-.23-.53-.07-1.06-.14-1.59-.21-1.06-.15-2.12-.31-3.17-.48-.49-.08-.98-.17-1.47-.26-.66-.12-1.33-.24-1.99-.38-.57-.12-1.15-.24-1.72-.37-.99-.22-1.98-.44-2.97-.69-.48-.12-.97-.24-1.45-.37-.65-.17-1.3-.34-1.94-.52-.9-.25-1.79-.52-2.68-.79-.22-.07-.44-.12-.65-.19.2.06.41.12.61.18-3.49-1.08-6.93-2.34-10.32-3.77-4.84-2.05-9.5-4.43-13.96-7.12.53.32,1.06.65,1.6.96-.57-.33-1.13-.68-1.7-1.02-.08-.05-.16-.1-.24-.14-2.94-1.78-5.79-3.71-8.55-5.76-.08-.06-.16-.12-.24-.18-2.75-2.06-5.41-4.25-7.97-6.58-.08-.07-.16-.14-.23-.21-1.28-1.17-2.54-2.35-3.77-3.58-1.23-1.23-2.42-2.49-3.58-3.77-.07-.08-.14-.16-.21-.23-2.32-2.56-4.52-5.22-6.58-7.98-.06-.08-.12-.16-.18-.24-2.06-2.76-3.98-5.62-5.77-8.56-.05-.08-.09-.15-.14-.23-.35-.58-.71-1.16-1.05-1.74.32.55.66,1.1.99,1.65-2.69-4.46-5.07-9.12-7.12-13.96-1.44-3.39-2.69-6.84-3.78-10.33.06.2.11.4.18.6-.1-.32-.19-.65-.29-.97-.24-.78-.47-1.56-.69-2.35-.18-.65-.35-1.29-.52-1.94-.13-.48-.25-.97-.37-1.45-.24-.98-.47-1.96-.68-2.94-.13-.58-.25-1.16-.37-1.75-.13-.66-.25-1.32-.37-1.98-.09-.49-.17-.99-.26-1.48-.18-1.05-.33-2.1-.48-3.15-.07-.54-.15-1.07-.21-1.61-.08-.67-.16-1.34-.23-2.02-.05-.5-.1-1-.14-1.5-.1-1.09-.18-2.18-.25-3.28-.03-.51-.06-1.02-.09-1.54-.03-.69-.06-1.37-.08-2.06-.01-.5-.02-1.01-.03-1.51,0-.56-.03-1.11-.03-1.67,0-22.74,6.86-44.57,19.85-63.14,1.55-2.21,3.19-4.36,4.89-6.45.04-.05.07-.09.11-.14.82-1.01,1.66-2,2.52-2.97.03-.03.06-.07.09-.1,3.24-3.69,6.72-7.17,10.43-10.4-.64.56-1.27,1.13-1.9,1.7,2.01-1.83,4.08-3.59,6.23-5.27,2.17-1.71,4.41-3.32,6.69-4.85-.37.24-.74.47-1.1.72,1.22-.84,2.46-1.65,3.71-2.44-.16.1-.32.21-.47.31.46-.29.92-.59,1.39-.88-.08.05-.17.1-.26.15,2.3-1.43,4.63-2.78,7.02-4.03l5.25-2.75-4.31-4.07-3.64-3.44-1.03-.97-.24-1.4c-.47-2.75-1.93-6.27-3.07-8.09-.29-.47-.59-.89-.89-1.25-.03-.03-.05-.06-.08-.09-.14-.16-.27-.31-.41-.45-.03-.03-.06-.05-.08-.08-.14-.14-.28-.27-.42-.38l-.03-.03c-.12-.09-.23-.18-.35-.25l-.13-.08c-2.32-1.39-3.93-3.49-4.54-5.93-.22-.86-.29-1.73-.25-2.6,0-.02,0-.03,0-.05.02-.42.07-.83.15-1.25,0-.02,0-.03,0-.05.02-.13.04-.25.07-.38l.23-.95-.21-.96c-.08-.35-.14-.7-.2-1.05,0-.05-.02-.09-.03-.14-.13-.7-.24-1.41-.33-2.12,0,0,0,0,0,0-.18-1.47-.29-2.94-.29-4.42,0-17.22,12.27-31.96,29.17-35.03l1.58-.29.99-1.27c.15-.19.32-.36.48-.54.04-.04.08-.09.12-.13,2.14-2.31,5.17-3.59,8.64-3.59.31,0,.62,0,.92.03l3.66.24.75-3.59c.06-.29.15-.57.23-.86.05-.19.09-.37.15-.56.12-.43.26-.84.41-1.26.06-.16.12-.32.18-.49.17-.42.34-.84.54-1.25.07-.14.14-.28.21-.42.21-.42.43-.83.66-1.23.07-.11.14-.22.21-.33.22-.35.43-.71.67-1.04l1.13-1.59-.47-1.89c-.32-1.28-.48-2.6-.48-3.93,0-8.92,7.26-16.18,16.18-16.18s16.18,7.26,16.18,16.18c0,1.33-.16,2.65-.48,3.93l-.47,1.89,1.13,1.59c.24.34.45.7.67,1.05.07.11.14.22.21.33.24.4.46.82.67,1.23.07.14.14.27.21.41.2.41.37.83.54,1.26.06.16.12.32.18.48.15.42.29.84.41,1.26.05.18.1.37.14.55.07.29.17.57.23.87l.75,3.59,3.66-.23c.29-.02.59-.03.89-.03,3.5,0,6.54,1.27,8.68,3.58.04.04.08.09.12.14.16.18.33.35.47.54l.99,1.26,1.58.29c16.91,3.08,29.18,17.81,29.18,35.03,0,1.48-.1,2.96-.29,4.42,0,0,0,0,0,0-.09.71-.2,1.42-.33,2.13,0,.05-.02.09-.03.14-.07.35-.13.71-.2,1.05l-.21.96.23.95c.03.13.04.25.07.38,0,.02,0,.03,0,.05.08.41.13.83.15,1.25,0,.02,0,.03,0,.05.04.87-.03,1.74-.25,2.6-.61,2.44-2.22,4.54-4.54,5.92l-.27.16s0,0,0,0l-.24.19c-.63.51-1.26,1.27-1.88,2.26-1.15,1.84-2.66,5.52-3.09,8.27l-.21,1.35-.96.98-3.51,3.55-4.01,4.06,5.04,2.66c.2.11.4.23.6.33,1.01.54,2.01,1.1,3.01,1.67.46.27.92.54,1.38.82-.2-.12-.41-.24-.61-.36,2.54,1.49,5.02,3.07,7.43,4.77-.07-.05-.13-.09-.2-.14.31.21.61.43.92.65-.17-.12-.35-.25-.52-.37,1.76,1.24,3.48,2.53,5.17,3.87.97.77,1.91,1.55,2.85,2.35-.56-.47-1.11-.95-1.67-1.42.58.47,1.14.96,1.7,1.44.13.11.26.22.39.33.91.78,1.81,1.58,2.7,2.4.1.09.2.18.29.27.92.85,1.83,1.72,2.73,2.61.05.05.1.1.16.15,4.78,4.75,9.13,9.91,12.98,15.47,12.83,18.49,19.61,40.21,19.61,62.8,0,.56-.02,1.12-.03,1.69,0,.5-.01,1-.03,1.5ZM174.28,127.7c-.31-.2-.63-.39-.94-.59.31.2.63.39.94.59Z" fill="#fff"/>
      <path d="M60.5,124.29c-.12.07-.24.13-.37.2.12-.07.24-.13.37-.2Z" fill="#fff"/>
      <path d="M28.89,289.94c-.8-.99-1.59-1.99-2.35-3,.77,1.01,1.55,2.01,2.35,3Z" fill="#fff"/>
      <path d="M89.55,327.92c-.21-.05-.41-.1-.62-.15.21.05.41.1.62.15Z" fill="#fff"/>
      <path d="M48.04,308.46c-1-.76-1.98-1.53-2.95-2.32.97.79,1.96,1.56,2.95,2.32Z" fill="#fff"/>
      <path d="M57.22,314.71c-1.42-.86-2.81-1.75-4.19-2.68,1.38.93,2.77,1.82,4.19,2.68Z" fill="#fff"/>
      <path d="M52.63,311.76c-1.12-.76-2.23-1.55-3.32-2.36,1.09.81,2.2,1.59,3.32,2.36Z" fill="#fff"/>
      <path d="M198.01,148.35c.21.24.4.48.61.72-.2-.24-.4-.49-.61-.72Z" fill="#fff"/>
      <path d="M86.09,327.05c-.42-.11-.83-.22-1.25-.34.42.12.83.23,1.25.34Z" fill="#fff"/>
      <path d="M39.69,301.44c-.71-.66-1.41-1.33-2.11-2.01.7.68,1.4,1.35,2.11,2.01Z" fill="#fff"/>
      <path d="M195.28,145.3c.44.47.86.95,1.29,1.43-.43-.48-.85-.96-1.29-1.43Z" fill="#fff"/>
      <path d="M33.56,295.31c.66.71,1.33,1.41,2.01,2.11-.68-.7-1.35-1.4-2.01-2.11Z" fill="#fff"/>
      <path d="M25.6,285.69c-.8-1.08-1.58-2.18-2.34-3.29.76,1.11,1.54,2.21,2.34,3.29Z" fill="#fff"/>
      <path d="M26.1,154.55s-.03.05-.05.07c.02-.02.03-.05.05-.07Z" fill="#fff"/>
      <path d="M28.43,151.55c-.27.33-.53.67-.79,1.01.26-.34.53-.68.79-1.01Z" fill="#fff"/>
      <path d="M8.28,250.15c-.12-.42-.23-.84-.34-1.26.11.42.22.84.34,1.26Z" fill="#fff"/>
      <path d="M7.23,246.05c-.05-.2-.1-.41-.15-.61.05.2.1.41.15.61Z" fill="#fff"/>
      <path d="M6.27,241.61c-.02-.08-.03-.17-.05-.25.02.08.03.17.05.25Z" fill="#fff"/>
      <path d="M29.79,149.89c.38-.46.76-.91,1.15-1.36-.39.45-.77.9-1.15,1.36Z" fill="#fff"/>
      <path d="M186.42,136.78c.85.73,1.68,1.47,2.5,2.23-.82-.75-1.66-1.5-2.5-2.23Z" fill="#fff"/>
      <path d="M189.47,139.5c.75.69,1.48,1.4,2.21,2.11-.73-.71-1.46-1.42-2.21-2.11Z" fill="#fff"/>
      <path d="M165.94,122.84c.14.07.28.14.42.22-.14-.07-.28-.15-.42-.22Z" fill="#fff"/>
      <path d="M192.43,142.35c.61.61,1.21,1.23,1.81,1.86-.6-.63-1.2-1.25-1.81-1.86Z" fill="#fff"/>
      <path d="M22.96,281.95c-.92-1.37-1.81-2.77-2.68-4.18.86,1.41,1.75,2.81,2.68,4.18Z" fill="#fff"/>
      <path d="M32.11,147.18c.56-.63,1.13-1.25,1.7-1.86-.57.62-1.14,1.23-1.7,1.86Z" fill="#fff"/>
      <path d="M43.49,304.8c-.76-.64-1.51-1.29-2.26-1.95.74.66,1.5,1.31,2.26,1.95Z" fill="#fff"/>
      <path d="M34.56,144.51c1.82-1.91,3.7-3.76,5.65-5.54-1.95,1.78-3.83,3.62-5.65,5.54Z" fill="#fff"/>
      <path d="M140.2,327.76c-.21.05-.42.1-.63.15.21-.05.42-.1.63-.15Z" fill="#fff"/>
      <path d="M195.53,295.31c-.66.71-1.33,1.41-2.01,2.11.68-.7,1.35-1.4,2.01-2.11Z" fill="#fff"/>
      <path d="M202.55,286.95c-.76,1-1.53,1.98-2.32,2.95.79-.97,1.56-1.96,2.32-2.95Z" fill="#fff"/>
      <path d="M189.4,301.44c.71-.66,1.41-1.33,2.11-2.01-.7.68-1.4,1.35-2.11,2.01Z" fill="#fff"/>
      <path d="M198.9,291.51c-.64.76-1.29,1.51-1.95,2.26.66-.74,1.31-1.5,1.95-2.26Z" fill="#fff"/>
      <path d="M187.85,302.85c-.74.66-1.5,1.31-2.26,1.95.76-.64,1.51-1.29,2.26-1.95Z" fill="#fff"/>
      <path d="M184.04,306.11c-.99.8-1.99,1.59-3,2.36,1.01-.77,2.01-1.55,3-2.36Z" fill="#fff"/>
      <path d="M222.01,245.46c-.05.2-.1.4-.14.6.05-.2.1-.4.14-.6Z" fill="#fff"/>
      <path d="M222.86,241.39c-.01.08-.03.15-.04.23.01-.08.03-.15.04-.23Z" fill="#fff"/>
      <path d="M64.12,122.34c.22-.11.43-.22.65-.33-.22.11-.43.22-.65.33Z" fill="#fff"/>
      <path d="M208.81,277.78c-.86,1.42-1.75,2.81-2.68,4.19.93-1.38,1.82-2.77,2.68-4.19Z" fill="#fff"/>
      <path d="M221.14,248.91c-.11.41-.22.83-.33,1.24.11-.41.22-.83.33-1.24Z" fill="#fff"/>
      <path d="M205.85,282.37c-.76,1.12-1.55,2.23-2.36,3.32.81-1.1,1.6-2.2,2.36-3.32Z" fill="#fff"/>
      <path d="M176.05,312.04c-1.38.93-2.77,1.82-4.19,2.68,1.41-.86,2.81-1.75,4.19-2.68Z" fill="#fff"/>
      <path d="M144.27,326.71c-.41.12-.83.22-1.24.33.42-.11.83-.22,1.24-.33Z" fill="#fff"/>
      <path d="M32.15,293.76c-.66-.74-1.31-1.49-1.95-2.25.64.76,1.29,1.51,1.95,2.25Z" fill="#fff"/>
      <path d="M135.73,328.72c-.08.01-.15.03-.23.04.08-.01.15-.03.23-.04Z" fill="#fff"/>
      <path d="M93.63,328.77c-.08-.02-.17-.03-.25-.05.08.02.17.03.25.05Z" fill="#fff"/>
      <path d="M179.78,309.4c-1.09.8-2.19,1.59-3.31,2.35,1.12-.76,2.22-1.55,3.31-2.35Z" fill="#fff"/>
      <path d="M119.56,88.59c0-2.77-2.25-5.01-5.01-5.01s-5.01,2.25-5.01,5.01,2.25,5.01,5.01,5.01,5.01-2.25,5.01-5.01ZM111.65,88.59c0-1.6,1.3-2.9,2.9-2.9s2.9,1.3,2.9,2.9-1.3,2.9-2.9,2.9-2.9-1.3-2.9-2.9Z" fill="#7700b5"/>
      <path d="M128.12,106.22l-13.57-7.53-13.07,7.24,13.07,7.05,13.57-6.76ZM114.55,100.81l9.02,4.98-9.02,4.93-9-4.9,8.99-5Z" fill="#7700b5"/>
      <path d="M92.91,90.67c0-2.63-2.13-4.76-4.76-4.76s-4.76,2.13-4.76,4.76,2.13,4.76,4.76,4.76,4.76-2.13,4.76-4.76ZM85.51,90.67c0-1.46,1.18-2.64,2.64-2.64s2.64,1.18,2.64,2.64-1.18,2.64-2.64,2.64-2.64-1.18-2.64-2.64Z" fill="#7700b5"/>
      <path d="M145.7,90.67c0-2.63-2.13-4.76-4.76-4.76s-4.76,2.13-4.76,4.76,2.13,4.76,4.76,4.76,4.76-2.13,4.76-4.76ZM138.31,90.67c0-1.46,1.18-2.64,2.64-2.64s2.64,1.18,2.64,2.64-1.18,2.64-2.64,2.64-2.64-1.18-2.64-2.64Z" fill="#7700b5"/>
      <path d="M137.84,113c3.06,0,5.54-2.48,5.54-5.54s-2.48-5.54-5.54-5.54-5.54,2.48-5.54,5.54,2.48,5.54,5.54,5.54ZM137.84,104.04c1.89,0,3.42,1.53,3.42,3.42s-1.53,3.42-3.42,3.42-3.42-1.53-3.42-3.42,1.53-3.42,3.42-3.42Z" fill="#7700b5"/>
      <path d="M91.25,113c3.06,0,5.54-2.48,5.54-5.54s-2.48-5.54-5.54-5.54-5.54,2.48-5.54,5.54,2.48,5.54,5.54,5.54ZM91.25,104.04c1.89,0,3.42,1.53,3.42,3.42s-1.53,3.42-3.42,3.42-3.42-1.53-3.42-3.42,1.53-3.42,3.42-3.42Z" fill="#7700b5"/>
      <path d="M118.64,74.67c1.09-7.98,3.23-15.92,5.93-22.29.72-1.71.43-2.76-.52-3.25-1.04-.53-2.73-.4-3.97.26.17.54.26,1.12.26,1.71,0,2.16-1.19,4.05-2.94,5.04,1.24.89,2.05,2.34,2.05,3.99,0,1.78-.95,3.33-2.37,4.19.9.74,1.48,1.85,1.48,3.11,0,1.4-.72,2.63-1.8,3.34.56.56.91,1.34.91,2.2,0,.5-.12.96-.32,1.38.43.08.87.18,1.3.3Z" fill="#ffcb05"/>
      <path d="M128.6,86.41c.18-.27.37-.53.58-.77,1.38-11.81,6.39-25.23,12.17-34.55,2.61-4.21-3.96-4.38-5.6-1.74-6.15,9.92-9.76,21.11-11.86,33.11,2.37.06,3.94,1.74,4.71,3.95Z" fill="#ffcb05"/>
      <path d="M112.33,70.78c-1.08-.72-1.8-1.95-1.8-3.34,0-1.25.58-2.37,1.48-3.11-1.42-.86-2.37-2.41-2.37-4.19,0-1.64.81-3.1,2.05-3.99-1.76-.99-2.94-2.88-2.94-5.04,0-.6.09-1.17.26-1.71-1.25-.66-2.93-.8-3.97-.26-.95.49-1.24,1.53-.52,3.25,2.7,6.37,4.83,14.31,5.93,22.29.43-.12.86-.22,1.29-.3-.21-.42-.32-.88-.32-1.38,0-.86.35-1.64.91-2.2h0Z" fill="#ffcb05"/>
      <path d="M95.64,83.93c.69-.1,1.34-.05,1.94.13-1.57-10.73-6.04-22.58-11.19-31.13-.71-.06-1.43-.09-2.15-.09-14.68,0-26.59,11.91-26.59,26.59,0,3.04.51,5.96,1.45,8.69,2.89-1.05,7.07-1.27,8.82,1.42.42.64.58,1.21.62,1.78.26-.24.54-.46.85-.65,2.01-1.2,4.07-.65,5.64.7.22-2.48,1.47-4.61,3.99-4.98.3-.04.59-.06.89-.05-.55-.73-.98-1.54-1.15-2.42-.74-4,4.03-5.88,7.16-6.35.99-.15,2.16-.21,3.33-.1-1.07-7.4-3.15-15.58-5.19-20.85,3.41,5,6.36,13.57,8.16,21.58,1.3.6,2.3,1.6,2.59,3.18.18.94.03,1.91-.27,2.83.35-.13.72-.24,1.1-.29Z" fill="#ffcb05"/>
      <path d="M165.86,87.38c1.42-.02,2.91.28,4.15.73.94-2.72,1.45-5.64,1.45-8.69,0-14.68-11.91-26.59-26.59-26.59h0c-.73,0-1.44.03-2.16.09-5.16,8.55-9.62,20.41-11.19,31.13.6-.18,1.25-.23,1.94-.13.38.06.75.16,1.1.29-.3-.93-.44-1.89-.27-2.83.72-3.89,5.76-4.27,8.89-3.81,3.13.46,7.9,2.35,7.16,6.35-.16.87-.6,1.68-1.15,2.42.3,0,.59,0,.89.05,2.53.37,3.77,2.5,3.99,4.98,1.57-1.35,3.63-1.9,5.64-.7.31.19.59.41.85.65.04-.57.21-1.14.62-1.78.43-.66,1-1.15,1.66-1.49,1.13-2.5,1.77-5.33,2.05-8.16.59-5.98-.59-13.1-4.48-17.84,5.03,4.21,6.87,11.33,6.71,17.65-.07,2.66-.5,5.29-1.27,7.68Z" fill="#ffcb05"/>
      <path d="M100.5,86.41c.77-2.2,2.34-3.88,4.71-3.95-2.1-12-5.71-23.18-11.86-33.11-1.64-2.65-8.21-2.47-5.6,1.74,5.78,9.31,10.78,22.74,12.17,34.55.21.24.4.49.58.76Z" fill="#ffcb05"/>
      <path d="M86.94,118.03c.14-.04.28-.07.41-.11,1.18-.31,2.36-.6,3.55-.88.5-.11,1-.22,1.51-.33.77-.16,1.55-.32,2.33-.47.78-.15,1.57-.29,2.36-.42.76-.13,1.52-.24,2.28-.35.52-.07,1.04-.15,1.57-.22,1.15-.15,2.3-.27,3.45-.38.42-.04.83-.08,1.25-.11,1.27-.11,2.54-.19,3.82-.25.26-.01.52-.02.78-.03,1.42-.06,2.85-.09,4.29-.09s2.86.04,4.29.09c.26.01.52.02.78.03,1.28.06,2.55.15,3.82.25.42.03.84.07,1.25.11,1.16.11,2.31.23,3.46.38.52.07,1.04.14,1.56.22.76.11,1.52.23,2.28.35.79.13,1.58.27,2.36.42.78.15,1.56.3,2.33.47.5.11,1.01.21,1.51.33,1.19.27,2.37.57,3.55.88.14.04.28.07.42.11,2.75.74,5.45,1.58,8.11,2.53.33-1.61.85-3.16,1.53-4.61l-5.93-6.69,15.25-2.88.14-.07c.29-1.14.68-2.4,1.16-3.7-1.81-1.05-2.19-3.42-1.32-5.26.9-1.93,3.14-3.18,5.19-2.22l.15.07c1.14-1.44,2.47-2.69,4.01-3.61.8-.48.26-.84-.3-1.12-1.48-.74-5.84-1.87-7.18.21-.51.8-.24,1.37-.1,2.85.1,1.08-1.7,1.81-2.55.73-.6-.76-1.09-1.41-1.69-1.77-3.19-1.9-7.02,4.69-4.03,6.5.92.56,1.56.18,3.38.6,1.64.39,1.59,1.98-.02,2.87-3.24,1.79-6.41-.23-6.7-2.59-2.07,1.94-8.07,1.91-9.3-1.76-.61-1.83.45-3.1,1.99-2.22,1.69.96,2.87,1.96,4.04,2.13,3.95.59,5.73-8.96,1.78-9.55-.74-.11-1.62.1-2.66.32-1.49.31-2.07-1.24-1.18-2.07,1.21-1.12,2.14-2.2,2.33-3.2.37-1.99-2.4-3.42-5.38-3.86-2.98-.44-6.12.11-6.49,2.1-.19,1,.3,2.29,1.04,3.7.54,1.04-.57,2.34-1.86,1.62-.91-.51-1.66-.96-2.41-1.07-3.96-.59-5.73,8.96-1.78,9.55,1.17.17,2.65-.43,4.6-.85,1.78-.38,2.32,1.13,1.08,2.68-2.49,3.11-8.18,1.41-9.43-.83-1.82,2.4-8.29,3.32-10.35-.41-1.03-1.86-.14-3.39,1.7-2.7,2.01.76,3.49,1.64,4.78,1.64,4.38,0,4.38-10.51,0-10.51-.82,0-1.73.36-2.81.77-1.54.57-2.48-1-1.68-2.03,1.08-1.39,1.86-2.7,1.86-3.8,0-2.19-3.27-3.29-6.58-3.29s-6.58,1.1-6.58,3.29c0,1.11.78,2.41,1.86,3.8.79,1.02-.14,2.6-1.68,2.03-1.08-.4-1.99-.77-2.81-.77-4.38,0-4.38,10.51,0,10.51,1.3,0,2.77-.88,4.78-1.64,1.84-.69,2.73.84,1.7,2.7-2.06,3.73-8.53,2.81-10.35.41-1.25,2.25-6.94,3.95-9.43.83-1.24-1.55-.7-3.06,1.08-2.68,1.94.42,3.43,1.02,4.6.85,3.95-.59,2.18-10.13-1.78-9.55-.74.11-1.5.56-2.41,1.07-1.29.73-2.41-.58-1.86-1.62.74-1.41,1.23-2.7,1.04-3.7-.37-1.99-3.51-2.54-6.49-2.1-2.98.44-5.75,1.88-5.38,3.86.19,1,1.11,2.08,2.33,3.2.89.82.31,2.38-1.18,2.07-1.04-.22-1.92-.43-2.66-.32-3.96.59-2.18,10.13,1.78,9.55,1.17-.17,2.35-1.17,4.04-2.13,1.54-.87,2.6.4,1.99,2.22-1.23,3.66-7.23,3.7-9.3,1.76-.29,2.36-3.46,4.38-6.7,2.59-1.61-.89-1.66-2.49-.02-2.87,1.81-.43,2.45-.05,3.38-.6,3-1.82-.84-8.4-4.03-6.5-.6.36-1.09,1.01-1.69,1.77-.85,1.08-2.66.35-2.55-.73.14-1.47.42-2.05-.1-2.85-1.34-2.08-5.71-.95-7.18-.21-.56.28-1.11.65-.3,1.12,1.54.92,2.87,2.17,4.01,3.61l.15-.07c2.05-.96,4.29.29,5.19,2.22.86,1.84.48,4.21-1.32,5.26.48,1.3.87,2.56,1.16,3.7l.08.04,15.02,2.9-5.67,6.63h0c.7,1.47,1.23,3.05,1.57,4.69,2.66-.95,5.36-1.8,8.11-2.54ZM136.19,90.67c0-2.63,2.13-4.76,4.76-4.76s4.76,2.13,4.76,4.76-2.13,4.76-4.76,4.76-4.76-2.13-4.76-4.76ZM137.84,101.92c3.06,0,5.54,2.48,5.54,5.54s-2.48,5.54-5.54,5.54-5.54-2.48-5.54-5.54,2.48-5.54,5.54-5.54ZM109.53,88.59c0-2.77,2.25-5.01,5.01-5.01s5.01,2.25,5.01,5.01-2.25,5.01-5.01,5.01-5.01-2.25-5.01-5.01ZM114.55,98.69l13.57,7.53-13.57,6.76-13.07-7.05,13.07-7.24ZM83.39,90.67c0-2.63,2.13-4.76,4.76-4.76s4.76,2.13,4.76,4.76-2.13,4.76-4.76,4.76-4.76-2.13-4.76-4.76ZM91.25,101.92c3.06,0,5.54,2.48,5.54,5.54s-2.48,5.54-5.54,5.54-5.54-2.48-5.54-5.54,2.48-5.54,5.54-5.54Z" fill="#ffcb05"/>
      <path d="M118.64,51.11c0-2.26-1.83-4.09-4.09-4.09s-4.09,1.83-4.09,4.09,1.83,4.09,4.09,4.09,4.09-1.83,4.09-4.09Z" fill="#0076b6"/>
      <path d="M116.86,67.44c0-1.28-1.04-2.32-2.32-2.32s-2.32,1.04-2.32,2.32,1.04,2.32,2.32,2.32,2.32-1.04,2.32-2.32Z" fill="#0076b6"/>
      <path d="M90.79,90.67c0-1.46-1.18-2.64-2.64-2.64s-2.64,1.18-2.64,2.64,1.18,2.64,2.64,2.64,2.64-1.18,2.64-2.64Z" fill="#0076b6"/>
      <path d="M143.58,90.67c0-1.46-1.18-2.64-2.64-2.64s-2.64,1.18-2.64,2.64,1.18,2.64,2.64,2.64,2.64-1.18,2.64-2.64Z" fill="#0076b6"/>
      <path d="M117.44,88.59c0-1.6-1.3-2.9-2.9-2.9s-2.9,1.3-2.9,2.9,1.3,2.9,2.9,2.9,2.9-1.3,2.9-2.9Z" fill="#0076b6"/>
      <path d="M113.12,72.98c0,.79.64,1.43,1.43,1.43s1.43-.64,1.43-1.43-.64-1.43-1.43-1.43-1.43.64-1.43,1.43Z" fill="#0076b6"/>
      <path d="M111.34,60.14c0,1.77,1.44,3.21,3.2,3.21s3.21-1.44,3.21-3.21-1.44-3.2-3.21-3.2-3.2,1.44-3.2,3.2Z" fill="#0076b6"/>
      <path d="M65.49,100.84c.82-.38,1.08-1.55.59-2.59-.49-1.05-1.55-1.59-2.37-1.2-.82.38-1.08,1.55-.59,2.59.49,1.05,1.55,1.59,2.37,1.2Z" fill="#0076b6"/>
      <path d="M165.39,97.05c-.82-.38-1.88.15-2.37,1.2-.49,1.05-.23,2.21.59,2.59.82.38,1.88-.15,2.37-1.2.49-1.05.23-2.21-.59-2.59Z" fill="#0076b6"/>
      <path d="M137.84,110.88c1.89,0,3.42-1.53,3.42-3.42s-1.53-3.42-3.42-3.42-3.42,1.53-3.42,3.42,1.53,3.42,3.42,3.42Z" fill="#0076b6"/>
      <path d="M91.25,110.88c1.89,0,3.42-1.53,3.42-3.42s-1.53-3.42-3.42-3.42-3.42,1.53-3.42,3.42,1.53,3.42,3.42,3.42Z" fill="#0076b6"/>
      <polygon points="123.56 105.79 114.55 100.81 105.55 105.82 114.55 110.72 123.56 105.79" fill="#0076b6"/>
      <path d="M79.06,110.57l-6.68-1.19c1.47,1.31,2.75,2.84,3.8,4.53l2.88-3.34Z" fill="#0076b6"/>
      <path d="M150.16,110.58l2.78,3.28c1.04-1.67,2.3-3.17,3.76-4.47l-6.54,1.18Z" fill="#0076b6"/>
      <path d="M106.39,77.41c.46-.81,1.19-1.44,2.05-1.93-.96-7.34-2.85-14.69-5.25-20.78-1.4.25-2.74.55-4.03.88,3.32,6.94,5.62,14.3,7.23,21.83Z" fill="#0076b6"/>
      <path d="M120.65,75.49c.86.48,1.59,1.11,2.05,1.93,1.61-7.53,3.91-14.88,7.23-21.83-1.29-.34-2.63-.63-4.03-.88-2.4,6.09-4.29,13.44-5.25,20.78Z" fill="#0076b6"/>
      <path d="M110.73,22.88c.48-.48,1.27-.48,1.75,0h0c.48.48.48,1.27,0,1.75l-1.56,1.56h0c.53-.14,1.08-.25,1.64-.32.55-.28,1.17-.43,1.83-.43s1.28.16,1.83.43c.72.1,1.42.25,2.09.45l-1.69-1.69c-.48-.48-.48-1.27,0-1.75h0c.48-.48,1.27-.48,1.75,0l3.02,3.02c1.06-1.42,1.68-3.18,1.68-5.09s-.63-3.67-1.68-5.08l-3.02,3.02c-.48.48-1.27.48-1.75,0h0c-.48-.48-.48-1.27,0-1.75l3.02-3.02c-1.42-1.06-3.18-1.69-5.09-1.69s-3.67.63-5.08,1.69l3.02,3.02c.48.48.48,1.27,0,1.75h0c-.48.48-1.27.48-1.75,0l-3.02-3.02c-1.06,1.42-1.69,3.18-1.69,5.09s.63,3.67,1.68,5.09l3.02-3.02Z" fill="#ffcb05"/>
      <path d="M113.91,40.15c4.29,0,8.29.95,11.7,2.61.28-.93.45-1.92.49-2.93-2.82-1.45-6.07-2.41-9.56-2.74h0v-7.56c0-1.09-.89-1.98-1.98-1.98s-1.98.89-1.98,1.98v7.47c-3.46.16-6.7.95-9.57,2.21v.19c0,.98.12,1.93.35,2.83,3.15-1.34,6.74-2.09,10.56-2.09Z" fill="#ffcb05"/>
      <path d="M103.29,36.81c2.3-.89,4.71-1.48,7.16-1.76v-5.52c0-.33.04-.66.12-.97-3.62,1.33-6.39,4.43-7.27,8.24Z" fill="#ffcb05"/>
      <path d="M118.65,29.54v5.69c2.51.4,4.96,1.12,7.28,2.17-.72-4.09-3.59-7.43-7.39-8.83.08.31.12.63.12.97Z" fill="#ffcb05"/>
      <path d="M105.63,46.75c1.44-.23,3.05.06,4.37.77,1.06-1.34,2.7-2.2,4.54-2.2s3.48.86,4.54,2.2c1.32-.71,2.94-1,4.38-.77.51-.62.97-1.3,1.34-2.02l-.13-.06c-3.34-1.62-7.07-2.4-10.77-2.4-3.33,0-6.66.62-9.73,1.92l-.12.05c.42.9.95,1.75,1.58,2.51Z" fill="#ffcb05"/>
      <path d="M102.33,313.9c-.17-.09-.29-.12-.98-.23l-5.47-.87-.3,1.86,5.54.88c.63.1.75.1.96.07.32-.06.55-.33.62-.76.07-.44-.06-.78-.38-.95Z" fill="#7700b5"/>
      <path d="M51.23,149.97c-.45-.02-.74.18-1.64,1.07l-4.76,4.69,2.49,2.52,4.65-4.59c1.44-1.42,1.54-1.87.59-2.84-.62-.63-.94-.84-1.34-.85Z" fill="#7700b5"/>
      <polygon points="85.22 129.64 84.1 135.75 89.71 133.96 85.22 129.64" fill="#7700b5"/>
      <path d="M182.04,153.6l-4.84-4.6-2.44,2.57,4.74,4.5c1.46,1.39,1.92,1.48,2.86.5.61-.64.81-.97.81-1.36,0-.45-.21-.74-1.12-1.6Z" fill="#7700b5"/>
      <path d="M62.72,294.84l-3.7-2.67-1.62,2.25,3.7,2.67c1.04.75,1.5.74,2.08-.05.72-1,.64-1.41-.46-2.2Z" fill="#7700b5"/>
      <path d="M102.56,310.03c-.19-.09-.34-.13-.94-.23l-5.13-.81-.29,1.8,5.21.83c.6.09.81.1,1.03.04.27-.1.46-.35.52-.7.07-.41-.08-.75-.4-.92Z" fill="#7700b5"/>
      <path d="M132.61,311.59l-4.46.94.56,2.69,4.46-.94c1.32-.28,1.56-.61,1.31-1.81-.2-.95-.62-1.15-1.88-.89Z" fill="#7700b5"/>
      <path d="M49.13,290.11c.47-.05.9-.37,1.87-1.34,1.84-1.83,1.83-1.88-.89-4.63-1.62-1.63-2.12-2.03-2.62-2.11-.52-.07-.97.2-2.03,1.25-1.08,1.07-1.38,1.55-1.34,2.05.05.54.37.94,2.04,2.62,1.91,1.92,2.37,2.25,2.97,2.15Z" fill="#7700b5"/>
      <path d="M201.68,257.88c-.57-.27-.87-.07-1.36.96l-2.04,4.3,1.72.82,2.04-4.3c.5-1.06.44-1.4-.35-1.78Z" fill="#7700b5"/>
      <path d="M220.61,220.45c0-44.87-27.86-83.23-67.22-98.72l12.02-12.16c.37-2.38,1.39-5.35,2.53-7.73.19-.4.38-.78.58-1.13s.39-.69.58-1c.6-.96,1.32-1.92,2.15-2.73.17-.16.34-.32.52-.47.35-.3.73-.57,1.12-.8,1.09-.65,1.85-1.48,2.29-2.4.15-.31.26-.62.34-.94.23-.96.16-1.96-.19-2.9-.12-.31-.27-.62-.44-.91.88-2.89,1.35-5.95,1.35-9.12,0-1.05-.05-2.08-.15-3.1-.1-1.02-.25-2.02-.44-3.01-.78-3.95-2.31-7.64-4.42-10.91-.79-1.23-1.67-2.39-2.62-3.49-.64-.73-1.3-1.44-2-2.11-2.8-2.69-6.09-4.86-9.73-6.36-.91-.38-1.84-.71-2.79-1-2.38-.73-4.87-1.18-7.45-1.32h0c-.08-.41-.2-.82-.37-1.22-.09-.2-.18-.4-.29-.59-.11-.2-.23-.39-.37-.58-1.98-2.79-5.71-3.38-8.83-2.5-2.05.58-3.92,1.8-5.05,3.63-.69,1.12-1.35,2.25-1.99,3.4-.02-.31-.05-.62-.11-.93-.06-.3-.14-.6-.23-.89-.2-.58-.48-1.13-.85-1.63.44-.83.8-1.7,1.09-2.6.48-1.51.74-3.11.74-4.78,0-4.98-2.31-9.42-5.91-12.32.16-.24.31-.48.46-.73s.28-.51.41-.77c.76-1.57,1.18-3.33,1.18-5.19,0-6.59-5.34-11.93-11.93-11.93s-11.93,5.34-11.93,11.93c0,1.24.19,2.43.54,3.56.09.28.19.56.29.83.21.54.47,1.07.76,1.57.14.25.3.49.46.73-1.35,1.09-2.52,2.39-3.46,3.86-1.56,2.45-2.46,5.35-2.46,8.46,0,2.67.66,5.18,1.83,7.38-.19.25-.35.51-.49.79-.43.82-.66,1.72-.71,2.66-.63-1.15-1.29-2.28-1.99-3.4-2.78-4.48-10.64-5.7-13.88-1.13-.54.76-.87,1.57-1.03,2.4-2.06.11-4.07.43-6.01.92-.48.12-.96.26-1.44.4-4.28,1.31-8.17,3.51-11.45,6.38-.73.64-1.43,1.31-2.1,2.01-1.34,1.41-2.54,2.94-3.6,4.57-2.12,3.27-3.64,6.96-4.42,10.91-.2.99-.34,1.99-.44,3.01-.1,1.02-.15,2.05-.15,3.1,0,.79.03,1.58.09,2.36.17,2.33.61,4.6,1.26,6.76-1.43,2.35-.92,5.42,1.99,7.15.2.12.39.24.57.38.19.13.37.28.54.43.18.15.35.31.52.47.17.16.33.33.49.5.16.17.31.35.46.53.44.54.85,1.12,1.21,1.69,1.5,2.4,3.12,6.49,3.65,9.63l12.82,12.12c-39.76,15.3-67.98,53.86-67.98,99.01,0,58.58,47.49,106.06,106.06,106.06s106.06-47.49,106.06-106.06ZM111.87,318.73l-3.14.05-.16-10.31,3.14-.05.06,3.82,7.14-.11-.06-3.82,3.14-.05.16,10.31-3.14.05-.06-3.94-7.14.11.06,3.94ZM105.36,313.69c.43.43.56,1.09.41,2.04-.19,1.21-.72,1.95-1.56,2.26-.51.17-1.2.17-2.38-.02l-9.62-1.53,1.62-10.19,9.19,1.46c1.19.19,1.8.4,2.29.74.74.54.98,1.3.79,2.49-.14.9-.46,1.49-.96,1.77-.34.2-.67.25-1.42.26.9.22,1.3.41,1.62.71ZM63.17,280.13c-1.31-1.13-2.58-2.31-3.82-3.52-.96-.94-1.89-1.9-2.79-2.89-1.45-1.58-2.84-3.21-4.16-4.91-10.32-13.24-16.5-29.87-16.6-47.94,0-.14,0-.28,0-.43,0-16.68,5.19-32.14,14.03-44.87,1.51-2.17,3.12-4.26,4.83-6.27,14.25-16.67,35.32-27.31,58.9-27.6.2,0,.4,0,.6,0,.13,0,.26,0,.38,0,38.23,0,70.1,27.25,77.25,63.38.51,2.55.89,5.15,1.14,7.79.24,2.5.36,5.02.36,7.58,0,.29,0,.58-.01.87-.05,4.47-.46,8.85-1.23,13.12-3.34,18.62-13.22,34.97-27.18,46.58-1.75,1.45-3.56,2.83-5.43,4.13-12.74,8.86-28.21,14.05-44.9,14.05-.13,0-.26,0-.38,0-.2,0-.4,0-.6,0-19.25-.24-36.83-7.37-50.4-19.06ZM79.73,312.51l-3.66-1.25,3.33-9.76,2.97,1.01-2.33,6.83,8.4-4.76,3.66,1.25-3.33,9.76-2.97-1.01,2.33-6.83-8.4,4.76ZM66.82,297.8l1.18-2.26,10.92,5.72-1.18,2.26-4.07-2.13-3.6,6.88-2.78-1.46,3.6-6.88-4.07-2.13ZM65.85,298.68c-1.15,1.59-2.04,2.21-3.03,2.14-.71-.05-1.33-.37-2.79-1.42l-4.09-2.95-1.48,2.06-2.53-1.83,6.04-8.37,6.4,4.62c1.62,1.17,2,1.52,2.33,2.16.54,1.02.3,2.01-.84,3.59ZM37.89,269.24l-6.37,4.44-1.8-2.57,8.46-5.9,7.68,11.01-8.46,5.9-1.8-2.57,6.37-4.44-4.09-5.86ZM23.6,257.34c.15-1.2,1-1.93,3.77-3.24,2.46-1.16,3.47-1.3,4.49-.59.89.61,1.43,1.44,2.67,4.06,1.65,3.48,1.93,4.27,1.92,5.25-.02.93-.68,1.67-2.05,2.32l-.31.15-1.28-2.71c.99-.54.98-.79-.18-3.25-1.1-2.32-1.35-2.71-1.82-2.92-.47-.19-.88-.08-2.39.63-2.24,1.06-2.31,1.35-1.02,4.07,1,2.11,1.16,2.41,1.51,2.72.36.33.73.34,1.4.02l1.3,2.75c-1.36.63-1.84.8-2.35.81-.97.01-1.7-.56-2.49-1.97-.33-.55-.87-1.66-1.75-3.52-1.27-2.68-1.55-3.61-1.42-4.59ZM21.79,240.28c-2.32-.83-3.54-3.38-2.71-5.71.83-2.32,3.38-3.54,5.7-2.71,2.32.83,3.54,3.38,2.71,5.71-.83,2.32-3.38,3.54-5.7,2.71ZM28.56,176.03c.3-2.45,2.53-4.19,4.98-3.89,2.45.3,4.19,2.53,3.89,4.98-.3,2.45-2.53,4.19-4.98,3.89-2.45-.3-4.19-2.53-3.89-4.98ZM59.83,152.47l1.52,1.54-3.02,2.98-1.2-1.22c-1.06-1.04-1.57-.97-2.88.37l-4.57,4.5,2.43,2.47-2.96,2.92-9.66-9.79,8.44-8.33c1.73-1.71,2.64-2.32,3.66-2.4,1.02-.11,2.11.47,3.41,1.79,1.79,1.82,2.06,2.97,1.09,4.48,1.42-1,2.29-.84,3.73.67ZM63.06,142.98l8.93-5.48,1.42,2.32-8.93,5.48,1.27,2.07,9.6-5.89,1.63,2.65-13.11,8.05-7.2-11.72,12.99-7.97,1.63,2.65-9.47,5.82,1.24,2.02ZM81.7,127.67l5.34-1.7,11.34,10.82-4.36,1.39-2.04-1.92-8.44,2.69-.51,2.74-4.52,1.44,3.19-15.44ZM98.6,123.26l4.17-.4.98,10.3,9.42-.9.32,3.39-13.59,1.29-1.3-13.69ZM151.37,129.12l13.68,6.72-1.37,2.79-9.98-4.9-1.05,2.13,9.4,4.62-1.2,2.44-9.4-4.62-1.07,2.18,10.11,4.96-1.37,2.79-13.81-6.78,6.07-12.35ZM180.94,163.88l-1.49,1.57-3.08-2.93,1.18-1.24c1.01-1.09.92-1.6-.47-2.86l-4.65-4.42-2.39,2.51-3.02-2.87,9.48-9.96,8.59,8.17c1.76,1.68,2.4,2.56,2.51,3.58.14,1.02-.4,2.12-1.68,3.47-1.76,1.85-2.91,2.16-4.45,1.23,1.04,1.39.92,2.27-.55,3.75ZM164.43,152.2l-3.45-2.37,7.79-11.34,3.45,2.37-7.79,11.34ZM192.28,275.26l-9.21.56,2.23-3.27,6.03-.02-2.21-5.57,2.23-3.27,3.35,10.07c.63,1.9.47,2.76-.82,4.65l-.35.51-2.02-1.38.26-.38c.63-.92.74-1.33.49-1.9ZM180.05,286.54c1.59,1.51,2.12,2.35,2.2,3.46s-.36,2.11-1.36,3.17l-.19.2-1.77-1.68c.67-.75.37-1.58-.94-2.79l-3.89-3.68,8.68-9.16,7.49,7.09-2.16,2.28-5.64-5.34-4.36,4.6,1.94,1.84ZM171.31,300.51l-2.5,1.9-6.25-8.21,2.5-1.9,2.33,3.07,1.3-.99,1.07-5.65,3.44-2.61-1.62,7.65,8.33.21-3.63,2.76-6.1-.33-1.26.96,2.4,3.15ZM191.44,263.35l4.39-9.24,2.11,1-3.05,6.42,1.33.63,2.38-5.01c.7-1.48,1.09-2.05,1.62-2.36.71-.42,1.56-.32,2.88.31,1.31.62,1.9,1.19,2.03,1.99.16.88,0,1.46-.9,3.37l-3.48,7.32-9.31-4.43ZM201.44,237.57c-.83-2.32.39-4.88,2.71-5.71,2.32-.83,4.88.39,5.7,2.71.83,2.32-.39,4.88-2.71,5.71-2.32.83-4.88-.39-5.7-2.71ZM206.92,217.08l-8.31-10.58,4.42-12.72,8.31,10.58-4.42,12.72ZM196.48,181.01c-2.45.3-4.67-1.44-4.98-3.89-.3-2.45,1.44-4.68,3.89-4.98,2.45-.3,4.67,1.44,4.98,3.89.3,2.45-1.44,4.68-3.89,4.98ZM137.52,305.4l3.07-.64,2.12,10.1-3.07.64-2.12-10.1ZM136.65,315.85c-.55.33-.99.48-2.76.85l-7.72,1.62-2.12-10.1,3.06-.64.52,2.5,4.93-1.04c1.76-.37,2.46-.41,3.13-.17.94.34,1.5,1.28,1.9,3.19.43,2.04.17,3.09-.95,3.79ZM142.63,303.93l2.89-1.23,2.84,6.64,3.07-9.16,3.55-1.52,4.05,9.49-2.89,1.23-2.84-6.64-3.07,9.16-3.56,1.52-4.05-9.49ZM149.02,297.56l1.81-.77c.59,2,.12,2.77-2.32,3.82-2.46,1.05-3.33.85-4.36-.96l1.81-.77c.45.89.84.99,2.02.48s1.38-.83,1.05-1.79ZM128.8,123.18l3.13,9.94,6.68-7.98,6.47,1.29-2.69,13.49-4-.8,2.28-10.37-8.06,9.22-3.28-.65-3.81-11.58-1.95,10.44-3.96-.79,2.69-13.49,6.51,1.3ZM17.95,201.62h1.78l6.17-7.85,2.73,7.85h2.33-2.33l1.69,4.87-8.31,10.58-4.42-12.72,2.15-2.73h-1.78ZM40.91,284.04c.25-.82.73-1.42,2.33-3.01,1.23-1.22,1.56-1.5,2.18-1.86.99-.57,1.83-.55,2.89.03.79.44,1.49,1.07,3.41,3,2.09,2.11,2.71,2.78,3.14,3.38.91,1.34.88,2.46-.14,3.78-.25.34-.82.95-1.71,1.83-1.77,1.75-2.66,2.28-3.8,2.16-.81-.07-1.59-.51-2.7-1.53-.41-.37-1.39-1.34-2.1-2.05-1.73-1.75-2.58-2.67-2.93-3.19-.66-.95-.83-1.73-.56-2.54ZM152.94,113.86l-2.78-3.28,6.54-1.18c-1.45,1.3-2.72,2.8-3.76,4.47ZM165.98,99.64c-.49,1.05-1.55,1.58-2.37,1.2-.82-.38-1.08-1.55-.59-2.59.49-1.05,1.55-1.58,2.37-1.2.82.38,1.08,1.55.59,2.59ZM160.42,62.05c3.89,4.74,5.07,11.86,4.48,17.84-.28,2.83-.92,5.66-2.05,8.16-.66.34-1.24.83-1.66,1.49-.42.64-.58,1.21-.62,1.78-.26-.24-.54-.46-.85-.65-2.01-1.2-4.07-.65-5.64.7-.22-2.48-1.47-4.61-3.99-4.98-.3-.04-.59-.06-.89-.05.55-.73.98-1.54,1.15-2.42.74-4-4.03-5.88-7.16-6.35-3.13-.46-8.17-.08-8.89,3.81-.18.94-.03,1.91.27,2.83-.35-.13-.72-.24-1.1-.29-.69-.1-1.34-.05-1.94.13,1.57-10.73,6.04-22.58,11.19-31.13.71-.06,1.43-.09,2.16-.09h0c14.68,0,26.59,11.91,26.59,26.59,0,3.04-.51,5.96-1.45,8.69-1.24-.45-2.72-.75-4.15-.73.77-2.39,1.2-5.02,1.27-7.68.16-6.32-1.69-13.44-6.71-17.65ZM135.75,49.36c1.64-2.65,8.21-2.47,5.6,1.74-5.78,9.31-10.79,22.74-12.17,34.55-.21.24-.4.49-.58.77-.77-2.2-2.34-3.88-4.71-3.95,2.1-12,5.71-23.18,11.86-33.11ZM129.94,55.59c-3.32,6.94-5.62,14.3-7.23,21.83-.46-.81-1.19-1.44-2.05-1.93.96-7.34,2.85-14.69,5.25-20.78,1.4.25,2.74.55,4.03.88ZM116.76,70.78c1.08-.72,1.8-1.95,1.8-3.34,0-1.25-.58-2.37-1.48-3.11,1.42-.86,2.37-2.42,2.37-4.19,0-1.64-.81-3.1-2.05-3.99,1.76-.99,2.94-2.88,2.94-5.04,0-.6-.09-1.17-.26-1.71,1.25-.66,2.93-.8,3.97-.26.95.49,1.24,1.53.52,3.25-2.7,6.37-4.84,14.31-5.93,22.29-.43-.12-.86-.22-1.3-.3.21-.42.32-.88.32-1.38,0-.86-.35-1.64-.91-2.2ZM114.55,69.75c-1.28,0-2.32-1.04-2.32-2.32s1.04-2.32,2.32-2.32,2.32,1.04,2.32,2.32-1.04,2.32-2.32,2.32ZM115.97,72.98c0,.79-.64,1.43-1.43,1.43s-1.43-.64-1.43-1.43.64-1.43,1.43-1.43,1.43.64,1.43,1.43ZM111.75,74.36c-.43.08-.87.18-1.29.3-1.09-7.98-3.23-15.92-5.93-22.29-.72-1.71-.43-2.76.52-3.25,1.04-.53,2.73-.4,3.97.26-.17.54-.26,1.12-.26,1.71,0,2.16,1.19,4.05,2.94,5.04-1.24.89-2.05,2.34-2.05,3.99,0,1.78.95,3.33,2.37,4.19-.9.74-1.48,1.86-1.48,3.11,0,1.4.71,2.63,1.8,3.34h0c-.56.56-.91,1.34-.91,2.2,0,.5.12.96.32,1.38ZM103,39.22c2.87-1.27,6.11-2.05,9.57-2.21v-7.47c0-1.09.89-1.98,1.98-1.98s1.98.89,1.98,1.98v7.56h0c3.49.32,6.74,1.29,9.56,2.74-.04,1.02-.2,2-.49,2.93-3.41-1.66-7.42-2.61-11.7-2.61-3.82,0-7.41.76-10.56,2.09-.23-.91-.35-1.85-.35-2.83v-.19ZM125.93,37.4c-2.31-1.05-4.77-1.77-7.28-2.17v-5.69c0-.33-.04-.66-.12-.97,3.81,1.4,6.67,4.75,7.39,8.83ZM104.18,44.2c3.07-1.3,6.4-1.92,9.73-1.92,3.71,0,7.43.78,10.77,2.4l.13.06c-.38.72-.83,1.4-1.34,2.02-1.44-.23-3.05.06-4.38.77-1.06-1.34-2.7-2.2-4.54-2.2s-3.48.86-4.54,2.2c-1.32-.71-2.93-1-4.37-.77-.63-.76-1.16-1.6-1.58-2.51l.12-.05ZM114.55,55.2c-2.26,0-4.09-1.83-4.09-4.09s1.83-4.09,4.09-4.09,4.09,1.83,4.09,4.09-1.83,4.09-4.09,4.09ZM117.75,60.14c0,1.77-1.44,3.21-3.21,3.21s-3.2-1.44-3.2-3.21,1.44-3.2,3.2-3.2,3.21,1.44,3.21,3.2ZM107.71,15.72l3.02,3.02c.48.48,1.27.48,1.75,0h0c.48-.48.48-1.27,0-1.75l-3.02-3.02c1.42-1.06,3.18-1.69,5.08-1.69s3.67.63,5.09,1.69l-3.02,3.02c-.48.48-.48,1.27,0,1.75h0c.48.48,1.27.48,1.75,0l3.02-3.02c1.06,1.42,1.68,3.18,1.68,5.08s-.63,3.67-1.68,5.09l-3.02-3.02c-.48-.48-1.27-.48-1.75,0h0c-.48.48-.48,1.27,0,1.75l1.69,1.69c-.68-.2-1.38-.35-2.09-.45-.55-.28-1.17-.43-1.83-.43s-1.28.16-1.83.43c-.56.07-1.1.18-1.64.32h0l1.56-1.56c.48-.48.48-1.27,0-1.75h0c-.48-.48-1.27-.48-1.75,0l-3.02,3.02c-1.06-1.42-1.68-3.18-1.68-5.09s.63-3.67,1.69-5.09ZM110.57,28.57c-.08.31-.12.63-.12.97v5.52c-2.45.28-4.86.86-7.16,1.76.88-3.82,3.65-6.91,7.27-8.24ZM103.19,54.7c2.4,6.09,4.29,13.44,5.25,20.78-.86.48-1.59,1.11-2.05,1.93-1.61-7.53-3.91-14.88-7.23-21.83,1.29-.34,2.63-.63,4.03-.88ZM94.8,81.39c-.29-1.57-1.29-2.58-2.59-3.18-1.79-8.01-4.75-16.59-8.16-21.58,2.04,5.27,4.12,13.45,5.19,20.85-1.17-.11-2.35-.04-3.33.1-3.13.46-7.9,2.35-7.16,6.35.16.87.6,1.68,1.15,2.42-.3,0-.59,0-.89.05-2.53.37-3.77,2.5-3.99,4.98-1.57-1.35-3.63-1.9-5.64-.7-.31.19-.59.41-.85.65-.04-.57-.21-1.14-.62-1.78-1.74-2.7-5.93-2.48-8.82-1.42-.94-2.72-1.45-5.64-1.45-8.69,0-14.68,11.91-26.59,26.59-26.59.73,0,1.44.03,2.15.09,5.16,8.55,9.62,20.41,11.19,31.13-.6-.18-1.24-.23-1.94-.13-.38.06-.75.16-1.1.29.3-.93.44-1.89.27-2.83ZM87.75,51.1c-2.61-4.21,3.96-4.38,5.6-1.74,6.15,9.92,9.76,21.11,11.86,33.11-2.37.06-3.94,1.74-4.71,3.95-.18-.27-.37-.53-.58-.76-1.38-11.81-6.39-25.23-12.17-34.55ZM63.11,99.64c-.49-1.05-.23-2.21.59-2.59.82-.38,1.88.15,2.37,1.2.49,1.05.23,2.21-.59,2.59-.82.38-1.88-.15-2.37-1.2ZM72.38,109.38l6.68,1.19-2.88,3.34c-1.04-1.69-2.33-3.21-3.8-4.53ZM77.26,115.87h0s5.67-6.63,5.67-6.63l-15.02-2.9-.08-.04c-.29-1.14-.68-2.4-1.16-3.7,1.81-1.05,2.19-3.42,1.32-5.26-.9-1.93-3.15-3.18-5.19-2.22l-.15.07c-1.14-1.44-2.47-2.69-4.01-3.61-.8-.48-.26-.84.3-1.12,1.47-.74,5.84-1.87,7.18.21.51.8.24,1.37.1,2.85-.1,1.08,1.7,1.81,2.55.73.6-.76,1.09-1.41,1.69-1.77,3.19-1.9,7.02,4.69,4.03,6.5-.92.56-1.56.18-3.38.6-1.64.39-1.59,1.98.02,2.87,3.24,1.79,6.41-.23,6.7-2.59,2.07,1.94,8.07,1.91,9.3-1.76.61-1.83-.45-3.1-1.99-2.22-1.69.96-2.87,1.96-4.04,2.13-3.95.59-5.73-8.96-1.78-9.55.74-.11,1.62.1,2.66.32,1.49.31,2.07-1.24,1.18-2.07-1.21-1.12-2.14-2.2-2.33-3.2-.37-1.99,2.4-3.42,5.38-3.86,2.98-.44,6.12.11,6.49,2.1.19,1-.3,2.29-1.04,3.7-.54,1.04.57,2.34,1.86,1.62.91-.51,1.66-.96,2.41-1.07,3.96-.59,5.73,8.96,1.78,9.55-1.17.17-2.65-.43-4.6-.85-1.78-.38-2.32,1.13-1.08,2.68,2.49,3.11,8.18,1.41,9.43-.83,1.82,2.4,8.29,3.32,10.35-.41,1.03-1.86.14-3.39-1.7-2.7-2.01.76-3.49,1.64-4.78,1.64-4.38,0-4.38-10.51,0-10.51.82,0,1.73.36,2.81.77,1.54.57,2.48-1,1.68-2.03-1.08-1.39-1.86-2.7-1.86-3.8,0-2.19,3.27-3.29,6.58-3.29s6.58,1.1,6.58,3.29c0,1.11-.78,2.41-1.86,3.8-.79,1.02.14,2.6,1.68,2.03,1.08-.4,1.99-.77,2.81-.77,4.38,0,4.38,10.51,0,10.51-1.3,0-2.77-.88-4.78-1.64-1.84-.69-2.73.84-1.7,2.7,2.06,3.73,8.53,2.81,10.35.41,1.25,2.25,6.94,3.95,9.43.83,1.24-1.55.7-3.06-1.08-2.68-1.94.42-3.43,1.02-4.6.85-3.95-.59-2.18-10.13,1.78-9.55.74.11,1.5.56,2.41,1.07,1.29.73,2.41-.58,1.86-1.62-.74-1.41-1.23-2.7-1.04-3.7.37-1.99,3.51-2.54,6.49-2.1,2.98.44,5.75,1.88,5.38,3.86-.19,1-1.11,2.08-2.33,3.2-.89.82-.31,2.38,1.18,2.07,1.04-.22,1.92-.43,2.66-.32,3.96.59,2.18,10.13-1.78,9.55-1.17-.17-2.35-1.17-4.04-2.13-1.54-.87-2.6.4-1.99,2.22,1.23,3.66,7.23,3.7,9.3,1.76.29,2.36,3.46,4.38,6.7,2.59,1.61-.89,1.66-2.49.02-2.87-1.81-.43-2.45-.05-3.38-.6-3-1.82.84-8.4,4.03-6.5.6.36,1.09,1.01,1.69,1.77.85,1.08,2.66.35,2.55-.73-.14-1.47-.42-2.05.1-2.85,1.35-2.08,5.71-.95,7.18-.21.56.28,1.11.65.3,1.12-1.54.92-2.87,2.17-4.01,3.61l-.15-.07c-2.05-.96-4.29.29-5.19,2.22-.86,1.84-.48,4.21,1.32,5.26-.48,1.3-.87,2.56-1.16,3.7l-.14.07-15.25,2.88,5.93,6.69c-.68,1.45-1.2,3-1.53,4.61-2.66-.95-5.36-1.8-8.11-2.53-.14-.04-.28-.08-.42-.11-1.18-.31-2.36-.6-3.55-.88-.5-.11-1-.22-1.51-.33-.77-.16-1.55-.32-2.33-.47-.78-.15-1.57-.29-2.36-.42-.76-.13-1.52-.24-2.28-.35-.52-.07-1.04-.15-1.56-.22-1.15-.15-2.3-.27-3.46-.38-.42-.04-.83-.08-1.25-.11-1.27-.11-2.54-.19-3.82-.25-.26-.01-.52-.02-.78-.03-1.42-.06-2.85-.09-4.29-.09s-2.86.04-4.29.09c-.26.01-.52.02-.78.03-1.28.06-2.55.15-3.82.25-.42.03-.84.07-1.25.11-1.16.11-2.31.23-3.45.38-.53.07-1.04.14-1.57.22-.76.11-1.52.23-2.28.35-.79.13-1.58.27-2.36.42-.78.15-1.56.3-2.33.47-.5.11-1.01.21-1.51.33-1.19.27-2.37.57-3.55.88-.14.04-.28.07-.41.11-2.75.74-5.46,1.59-8.11,2.54-.34-1.64-.87-3.22-1.57-4.69Z" fill="#7700b5"/>
      <path d="M139.27,220.48h.06s0,0,0,0h-.06l.77.84,9.92,10.79c.17.19.38.32.6.41.59.27,1.3.19,1.81-.28l.87-.8c.67-.61.71-1.66.1-2.33l-7.17-7.81-.74-.81-.05-.05h0s43.99,0,43.99,0c0-3.31-.22-6.59-.64-9.83-7.28-3.84-11.56-5.82-13.75-7.2-2.22-1.4-4.14-2.45-4.4-5.39-.09-1.04.22-1.76.2-2.63-.03-1.16-.35-2.56-.31-3.79-1.16-2.21-3.19-.92-4.81-.1-2.62,1.34-5.35,3.04-7.86,4.59-3.73,5.56-6.69,11.67-10.09,17.46-2.8,2.31-6.33,0-5.14-3.51.81-2.4,3.92-7.33,5.31-9.79,1.42-2.5,4.18-8.07,6.3-9.62,2.18-1.6,5.45-2.51,7.48-4.15,1.14-.93,1.35-1.92.21-3-.94-.89-6.41-3.93-7.82-4.62-6.28-3.09-2.44,5.72-4.69,8.32-1.18,1.37-5.41,2.97-7.13,4.36-1.73,1.4-2.29,4.48-4.16,5.23-.44.18-.86.2-1.29.33l-8.39,16.04c-.05.96-.85,1.74-1.82,1.74h-8.76c-1.01,0-1.83-.83-1.83-1.83v-1.24c0-1.01.83-1.83,1.83-1.83h8.17l8.01-15.3c-.16-.59-.27-1.2.02-1.76,4.32-7.47,8.22-15.25,12.66-22.64,2.19-3.64,4.29-5.27,8.54-3.16,3.55,1.77,7.28,4.36,10.75,6.4,2.5,1.47,5.34,2.78,7.75,4.29,1.58.99,3.13,2.15,3.39,4.16.54,4.11-.38,9.25,0,13.46.08.83.27,1.4.85,2.01.95,1,7.37,4.55,8.95,5.33.09.05.18.09.45.22-.95-3.96-2.22-7.85-3.82-11.64-3.77-8.91-9.16-16.91-16.03-23.78-6.87-6.87-14.87-12.27-23.78-16.03-9.22-3.9-19.02-5.88-29.12-5.88-.13,0-.26,0-.38,0v52.36c-.2-.11-.4-.23-.6-.35-.98-.58-1.95-1.28-2.08-2.39-.23-1.97.11-4.42.01-6.47-.12-2.52-.15-5.15-2.34-6.78-5.81-3.24-11.47-6.8-17.26-10.06-1.43-.81-2.95-1.81-4.52-2.48-.7-.38-1.48-.63-2.37-.69-.07,0-.15,0-.22,0-.33-.03-.66-.04-1-.01-7.93-.11-15.94.72-23.86.59-1.84,1.97-3.57,4.02-5.18,6.16,7.79-.09,16.54-.09,19.8,0l4.14.1c.89,2.01,2.84,3.86,3.59,5.13.76,1.28.86,4.75.52,6.18-.18.76-.79,1.27-1.38,1.73-1.3.99-6.55,4.05-6.39,3.72,1.62-3.24,2.92-3.89,3.24-7.45.03-.32-7.66-1.63-10.69.65-1.3.97-4.21,2.59-5.18,7.13-.19.9,5.83,1.62,7.13,1.62.75,0,.76,3.23,1.05,3.97.22.56.71.92,1.32,1.16,1.51.63,3.25.43,4.64-.43.76-.47,1.56-.96,2-1.24,2.87-1.8,9.56-4.33,10.68-7.54.72-2.06-.09-6.43,3.98-4.64,2.15.94,3.28,2.15,2.32,4.51-1.74,4.3-7.45,9.1-2.96,13.72l16.82,9.84c1.54.81,3.25.39,4.22-.67.26-.28.46-.6.6-.96v8.42h25.09l.02.02ZM142.94,158.01c7.09-1.02,8.26,9.27,2.14,10.31-7.58,1.29-8.55-9.38-2.14-10.31ZM114.16,209.95c-.04-.11-.07-.22-.12-.34-.12-.26-.28-.49-.48-.71-.55-.6-1.35-1.04-2.01-1.48-3.43-2.27-8.34-4.19-11.46-6.54-1.36-1.02-1.71-1.68-1.2-3.35.5-1.61,2.91-5.89,4.92-3.72,1.35,1.45.17,4.69,2.37,6.98,1.29,1.34,4.42,3.05,7.38,4.59.2.1.4.21.6.31v4.25Z" fill="#7700b5"/>
      <path d="M106.19,200.8c-2.2-2.29-1.02-5.53-2.37-6.98-2.01-2.16-4.42,2.11-4.92,3.72-.52,1.67-.16,2.33,1.2,3.35,3.12,2.35,8.02,4.27,11.46,6.54.65.43,1.45.87,2.01,1.48.2.21.36.45.48.71.05.11.08.23.12.34v-4.25c-.2-.1-.4-.21-.6-.31-2.95-1.54-6.09-3.26-7.38-4.59Z" fill="#ffcb05"/>
      <path d="M83.09,158.59c-4.82-6.45-14.32,1.92-8.57,7.6,4.95,4.89,12.79-1.95,8.57-7.6Z" fill="#7700b5"/>
      <path d="M98.58,235.91c5.48-5.42-3.59-13.42-8.19-7.26-4.03,5.39,3.46,11.93,8.19,7.26Z" fill="#ffcb05"/>
      <path d="M114.16,295.26v-10.82c.05-.08.45-.37,1.08-.8,3.08-2.09,11.89-7.56,14.87-9.43,2.39-1.5,4.45-2.63,4.74-5.8.1-1.12-.23-1.89-.21-2.83.03-1.25.37-2.76.34-4.07.81-1.54,2.01-1.5,3.22-1.04.64.25,1.27.6,1.86.9,2.82,1.44,5.76,3.27,8.46,4.94,3.3,4.92,6.04,10.24,8.94,15.43,1.94-1.36,3.82-2.82,5.63-4.37-1.3-2.36-2.89-4.95-3.81-6.55-1.53-2.69-4.5-8.69-6.77-10.35-2.34-1.72-5.86-2.7-8.05-4.47-1.23-1-1.45-2.07-.23-3.23,1.02-.96,6.89-4.23,8.42-4.98.69-.34,1.26-.54,1.74-.64l4.14-1.88c.52-.24.97-.55,1.35-.93l6.65,7.24c.17.19.38.32.6.41.59.27,1.3.19,1.81-.28l.87-.8c.67-.61.71-1.66.1-2.33l-9.44-10.27c-1.23-2.01-2.45-3.41-3.99-3.96-1.38-.52-3.01-.34-5.16.73-3.82,1.9-7.83,4.69-11.56,6.88-2.69,1.58-5.75,2.99-8.34,4.62-1.7,1.07-3.36,2.32-3.65,4.48-.58,4.42.41,9.96-.01,14.48-.08.89-.29,1.51-.91,2.16-1.03,1.08-7.93,4.9-9.63,5.74-.2.1-.51.27-.86.46-.96.52-2.2,1.23-2.2,1.23v-17c-.18-.17-.38-.32-.6-.45-.69-.43-1.53-.75-2.34-1.25-4.52-2.79-10.45-6.19-15.18-8.58-2.03-1.03-4.65-1.95-6.12.52-.73,1.22-.83,4.54-.5,5.9.17.73.75,1.22,1.32,1.65,2.34,1.78,5.89,3.08,8.4,4.76,1.06.7,2.03,1.41,2.06,2.84.02.76-.41,1.38-.17,2.28.17.63,1.1,1.31,1.47,1.92,1.49,2.43,1.03,5.57-1.33,7.25-4.16,2.96-9.52-1.21-7.87-5.98.75-2.17,2.89-2.66.19-4.35-2.74-1.72-9.13-4.14-10.2-7.2-.69-1.96.08-6.14-3.8-4.44-2.06.9-3.13,2.05-2.22,4.31,1.66,4.11,7.12,8.69,2.83,13.1l-13.2,7.73c5.59,4.63,11.8,8.4,18.52,11.24,8.92,3.77,18.38,5.74,28.14,5.87.2,0,.4,0,.6,0Z" fill="#7700b5"/>
      <path d="M62.01,262.24c.22-1.88-.11-4.22-.01-6.18.12-2.41.15-4.92,2.24-6.47,5.55-3.1,10.95-6.49,16.48-9.61,2.91-1.64,6.16-4.15,9.61-2.55,7.28,3.7,14.07,8.48,21.33,12.19.23.12,1.12.56,1.91.95.21.1.42.2.6.29v-30.41H39.73c0,.14,0,.28,0,.43.06,9.95,2.03,19.6,5.87,28.69,2.65,6.26,6.1,12.07,10.3,17.35,1.03-.57,2.05-1.16,3.05-1.78,1.13-.7,2.87-1.42,3.04-2.9ZM90.39,228.65c4.6-6.16,13.67,1.84,8.19,7.26-4.73,4.67-12.21-1.86-8.19-7.26Z" fill="#7700b5"/>
      <path d="M74.02,264.42c-.48-1.54-2.78-5.62-4.7-3.56-1.29,1.39-.16,4.48-2.26,6.66-1.21,1.25-4.12,2.86-6.89,4.31.48.51.97,1.02,1.47,1.52.14.14.29.28.43.42,3.27-2.12,7.86-3.95,10.8-6.15,1.3-.97,1.63-1.61,1.14-3.2Z" fill="#7700b5"/>
      <path d="M166.17,225.83s-.08-.04-.12-.06c-.1-.05-.2-.09-.31-.13-.02,0-.04-.01-.06-.02-.17-.07-.35-.13-.54-.18,0,0,0,0,0,0-.21-.05-.43-.1-.65-.13-.21-.03-.42-.05-.63-.06-.01,0-.03,0-.04,0-.19-.01-.38-.01-.57,0-.02,0-.04,0-.07,0-.18,0-.35.02-.52.04-.03,0-.05,0-.08,0-.17.02-.33.05-.49.09-.03,0-.05.01-.08.02-.16.04-.31.08-.45.13-.02,0-.05.02-.07.03-.15.05-.29.11-.43.17-.02,0-.04.02-.06.03-.14.07-.27.14-.4.22-.01,0-.03.02-.04.03-.13.08-.26.17-.38.26,0,0-.01.01-.02.02-.12.09-.24.19-.36.3,0,0,0,0-.01.01-.11.1-.22.21-.32.33-.01.01-.02.02-.03.03-.1.11-.19.22-.28.34-.01.02-.02.03-.03.05-.09.12-.17.24-.25.36-.01.02-.02.04-.03.05-.08.12-.15.25-.21.38,0,.02-.02.04-.03.06-.07.13-.13.26-.18.4,0,.02-.01.03-.02.05-.06.14-.11.28-.15.42,0,.01,0,.03-.01.04-.05.15-.09.3-.12.45,0,0,0,0,0,.01-.06.25-.1.5-.13.76-.03.23-.04.47-.04.7h0c0,.17,0,.33.01.49,0,0,0,.01,0,.02.01.16.03.32.05.47,0,0,0,.01,0,.02.02.16.05.31.09.47,0,0,0,0,0,.01.04.16.08.31.13.46,0,0,0,0,0,0,.3.93.82,1.76,1.59,2.39.13.1.26.2.39.29,0,0,0,0,0,0,.14.09.28.18.44.25,0,0,0,0,0,0,.15.08.31.15.48.21h0c.11.05.24.08.36.12.05.02.1.03.15.04,0,0,0,0,0,0s0,0,0,0c0,0,0,0,0,0,.2.06.41.12.63.15,7.4,1.26,8.94-8.07,4.01-10.55-.04-.02-.07-.04-.11-.06Z" fill="#7700b5"/>
      <path d="M145.08,168.31c6.11-1.04,4.95-11.33-2.14-10.31-6.41.92-5.44,11.59,2.14,10.31Z" fill="#ffcb05"/>
      <path d="M114.16,299.2c.13,0,.26,0,.38,0,16.69,0,32.16-5.2,44.9-14.05,1.87-1.3,3.69-2.68,5.43-4.13,13.96-11.61,23.84-27.96,27.18-46.58.76-4.26,1.18-8.65,1.23-13.12,0-.29.01-.58.01-.87,0-2.56-.13-5.09-.36-7.58-.25-2.64-.63-5.23-1.14-7.79-7.15-36.13-39.01-63.38-77.25-63.38-.13,0-.26,0-.38,0-.2,0-.4,0-.6,0-23.57.29-44.65,10.93-58.9,27.6-1.71,2-3.33,4.1-4.83,6.27-8.84,12.73-14.03,28.2-14.03,44.87,0,.14,0,.28,0,.43.1,18.07,6.28,34.7,16.6,47.94,1.32,1.69,2.71,3.33,4.16,4.91.91.99,1.84,1.95,2.79,2.89,1.23,1.21,2.51,2.39,3.82,3.52,13.56,11.69,31.15,18.82,50.4,19.06.2,0,.4,0,.6,0ZM83.09,158.59c4.22,5.65-3.62,12.49-8.57,7.6-5.74-5.68,3.76-14.05,8.57-7.6ZM58.97,265.15c-1,.62-2.02,1.21-3.05,1.78-4.2-5.29-7.66-11.1-10.3-17.35-3.85-9.09-5.82-18.74-5.87-28.69,0-.14,0-.28,0-.43h74.43v-8.42c-.14.36-.34.68-.6.96-.97,1.06-2.68,1.48-4.22.67l-16.82-9.84c-4.49-4.62,1.22-9.41,2.96-13.72.95-2.36-.17-3.57-2.32-4.51-4.06-1.78-3.25,2.59-3.98,4.64-1.13,3.2-7.81,5.74-10.68,7.54-.44.28-1.24.77-2,1.24-1.39.86-3.13,1.06-4.64.43-.6-.25-1.1-.61-1.32-1.16-.29-.74-.3-3.97-1.05-3.97-1.3,0-7.32-.72-7.13-1.62.97-4.53,3.89-6.15,5.18-7.13,3.03-2.27,10.72-.97,10.69-.65-.32,3.56-1.62,4.21-3.24,7.45-.16.33,5.08-2.73,6.39-3.72.6-.45,1.2-.97,1.38-1.73.34-1.43.24-4.9-.52-6.18-.75-1.27-2.7-3.12-3.59-5.13l-4.14-.1c-3.26-.09-12.01-.08-19.8,0,1.61-2.14,3.34-4.19,5.18-6.16,7.92.13,15.93-.7,23.86-.59.33-.03.67-.02,1,.01.07,0,.15,0,.22,0,.9.06,1.68.31,2.37.69,1.58.67,3.09,1.67,4.52,2.48,5.79,3.26,11.46,6.82,17.26,10.06,2.19,1.63,2.22,4.25,2.34,6.78.1,2.05-.24,4.51-.01,6.47.13,1.11,1.1,1.81,2.08,2.39.2.12.41.24.6.35v-52.36c.13,0,.26,0,.38,0,10.1,0,19.9,1.98,29.12,5.88,8.91,3.77,16.91,9.16,23.78,16.03,6.87,6.87,12.27,14.87,16.03,23.78,1.6,3.79,2.87,7.67,3.82,11.64-.27-.13-.36-.18-.45-.22-1.58-.78-8-4.33-8.95-5.33-.58-.61-.77-1.18-.85-2.01-.39-4.21.53-9.35,0-13.46-.26-2.01-1.81-3.17-3.39-4.16-2.41-1.51-5.25-2.82-7.75-4.29-3.47-2.04-7.19-4.63-10.75-6.4-4.25-2.11-6.35-.48-8.54,3.16-4.44,7.39-8.34,15.17-12.66,22.64-.29.57-.18,1.17-.02,1.76l-8.01,15.3h-8.17c-1.01,0-1.83.83-1.83,1.83v1.24c0,1.01.83,1.83,1.83,1.83h8.76c.98,0,1.77-.77,1.82-1.74l8.39-16.04c.42-.13.85-.15,1.29-.33,1.86-.75,2.42-3.83,4.16-5.23,1.71-1.38,5.94-2.99,7.13-4.36,2.25-2.6-1.59-11.41,4.69-8.32,1.42.7,6.88,3.73,7.82,4.62,1.14,1.08.93,2.07-.21,3-2.03,1.65-5.3,2.56-7.48,4.15-2.11,1.55-4.88,7.12-6.3,9.62-1.4,2.46-4.5,7.39-5.31,9.79-1.19,3.51,2.34,5.82,5.14,3.51,3.4-5.79,6.36-11.89,10.09-17.46,2.51-1.55,5.24-3.25,7.86-4.59,1.62-.82,3.65-2.11,4.81.1-.03,1.22.28,2.63.31,3.79.02.87-.29,1.59-.2,2.63.26,2.94,2.18,3.99,4.4,5.39,2.2,1.38,6.48,3.37,13.75,7.2.42,3.24.64,6.52.64,9.83h-43.99,0s.05.06.05.06l.74.81,7.17,7.81c.61.67.57,1.71-.1,2.33l-.87.8c-.51.47-1.23.55-1.81.28-.22-.09-.43-.22-.6-.41l-9.92-10.79-.77-.84-.02-.02h-25.09v30.41c-.18-.09-.39-.19-.6-.29-.79-.39-1.68-.83-1.91-.95-7.25-3.72-14.05-8.49-21.33-12.19-3.45-1.59-6.7.91-9.61,2.55-5.53,3.11-10.94,6.51-16.48,9.61-2.09,1.55-2.12,4.06-2.24,6.47-.09,1.96.23,4.3.01,6.18-.17,1.48-1.92,2.2-3.04,2.9ZM162.27,236.44c-.22-.04-.43-.09-.63-.15,0,0,0,0,0,0,0,0,0,0,0,0s0,0,0,0c-.05-.01-.1-.03-.15-.04-.12-.04-.24-.08-.36-.12h0c-.17-.06-.32-.14-.48-.21,0,0,0,0,0,0-.15-.08-.3-.16-.44-.25,0,0,0,0,0,0-.14-.09-.27-.19-.39-.29-.76-.63-1.29-1.46-1.59-2.39,0,0,0,0,0,0-.05-.15-.09-.31-.13-.46,0,0,0,0,0-.01-.04-.15-.06-.31-.09-.47,0,0,0-.01,0-.02-.02-.16-.04-.31-.05-.47,0,0,0-.01,0-.02-.01-.16-.02-.32-.01-.48h0c0-.24.02-.47.04-.71.03-.25.07-.51.13-.76,0,0,0,0,0-.01.04-.15.08-.3.12-.45,0-.01,0-.03.01-.04.05-.14.1-.28.15-.42,0-.02.01-.03.02-.05.06-.14.12-.27.18-.4,0-.02.02-.04.03-.06.07-.13.14-.25.21-.38.01-.02.02-.04.03-.05.08-.12.16-.24.25-.36.01-.02.02-.03.03-.05.09-.12.18-.23.28-.34,0-.01.02-.02.03-.03.1-.11.21-.22.32-.33,0,0,0,0,.01-.01.11-.1.23-.2.36-.3,0,0,.01-.01.02-.02.12-.09.25-.18.38-.26.01,0,.03-.02.04-.03.13-.08.26-.15.4-.22.02,0,.04-.02.06-.03.14-.06.28-.12.43-.17.02,0,.05-.02.07-.03.15-.05.3-.09.45-.13.03,0,.05-.01.08-.02.16-.04.32-.07.49-.09.02,0,.05,0,.08,0,.17-.02.34-.04.52-.04.02,0,.04,0,.07,0,.19,0,.37,0,.57,0,.01,0,.03,0,.04,0,.2.01.41.03.63.06.23.03.44.08.65.13,0,0,0,0,0,0,.19.05.37.11.54.18.02,0,.04.01.06.02.11.04.21.09.31.13.04.02.08.04.12.06.04.02.07.04.11.06,4.93,2.48,3.39,11.81-4.01,10.55ZM62.08,273.78c-.14-.14-.29-.28-.43-.42-.5-.5-.99-1.01-1.47-1.52,2.77-1.45,5.68-3.05,6.89-4.31,2.1-2.19.97-5.28,2.26-6.66,1.92-2.06,4.22,2.02,4.7,3.56.49,1.59.15,2.22-1.14,3.2-2.94,2.21-7.53,4.03-10.8,6.15ZM66.91,278.14l13.2-7.73c4.29-4.41-1.17-8.99-2.83-13.1-.91-2.25.16-3.4,2.22-4.31,3.88-1.7,3.11,2.47,3.8,4.44,1.07,3.06,7.46,5.48,10.2,7.2,2.7,1.69.57,2.18-.19,4.35-1.66,4.77,3.71,8.94,7.87,5.98,2.36-1.68,2.82-4.82,1.33-7.25-.38-.61-1.3-1.3-1.47-1.92-.24-.9.19-1.52.17-2.28-.04-1.43-1.01-2.13-2.06-2.84-2.51-1.67-6.06-2.98-8.4-4.76-.57-.43-1.15-.92-1.32-1.65-.33-1.37-.23-4.68.5-5.9,1.47-2.47,4.09-1.55,6.12-.52,4.72,2.39,10.66,5.79,15.18,8.58.81.5,1.65.82,2.34,1.25.22.14.42.28.6.45v17s1.24-.7,2.2-1.23c.35-.19.66-.36.86-.46,1.7-.84,8.61-4.66,9.63-5.74.62-.65.83-1.27.91-2.16.42-4.53-.57-10.06.01-14.48.28-2.16,1.94-3.41,3.65-4.48,2.59-1.63,5.65-3.04,8.34-4.62,3.73-2.19,7.74-4.98,11.56-6.88,2.15-1.07,3.78-1.24,5.16-.73,1.55.54,2.76,1.95,3.99,3.96l9.44,10.27c.61.67.57,1.71-.1,2.33l-.87.8c-.51.47-1.22.55-1.81.28-.22-.09-.43-.22-.6-.41l-6.65-7.24c-.38.38-.83.69-1.35.93l-4.14,1.88c-.48.09-1.05.3-1.74.64-1.53.75-7.4,4.02-8.42,4.98-1.23,1.16-1.01,2.23.23,3.23,2.19,1.77,5.7,2.75,8.05,4.47,2.28,1.67,5.25,7.67,6.77,10.35.91,1.6,2.5,4.19,3.81,6.55-1.81,1.55-3.69,3.01-5.63,4.37-2.9-5.2-5.64-10.51-8.94-15.43-2.7-1.66-5.64-3.5-8.46-4.94-.59-.3-1.23-.65-1.86-.9-1.22-.46-2.42-.49-3.22,1.04.04,1.32-.3,2.83-.34,4.07-.02.94.31,1.71.21,2.83-.28,3.17-2.34,4.3-4.74,5.8-2.98,1.87-11.79,7.34-14.87,9.43-.63.43-1.03.72-1.08.8v10.82c-.2,0-.4,0-.6,0-9.75-.12-19.21-2.09-28.14-5.87-6.72-2.84-12.93-6.61-18.52-11.24Z" fill="#ffcb05"/>
      <polygon points="139.33 220.48 139.27 220.48 139.33 220.48 139.33 220.48" fill="#ffcb05"/>
      <path d="M55.01,147.31c-1.3-1.32-2.39-1.9-3.41-1.79-1.02.08-1.93.69-3.66,2.4l-8.44,8.33,9.66,9.79,2.96-2.92-2.43-2.47,4.57-4.5c1.31-1.35,1.82-1.42,2.88-.37l1.2,1.22,3.02-2.98-1.52-1.54c-1.43-1.51-2.31-1.66-3.73-.67.97-1.51.7-2.66-1.09-4.48ZM51.98,153.67l-4.65,4.59-2.49-2.52,4.76-4.69c.9-.88,1.19-1.09,1.64-1.07.39.02.71.22,1.34.85.96.97.85,1.42-.59,2.84Z" fill="#ffcb05"/>
      <polygon points="69.67 132.49 56.68 140.46 63.87 152.19 76.98 144.14 75.36 141.48 65.76 147.37 64.48 145.3 73.41 139.82 71.99 137.5 63.06 142.98 61.82 140.96 71.3 135.14 69.67 132.49" fill="#ffcb05"/>
      <path d="M83.53,138.94l8.44-2.69,2.04,1.92,4.36-1.39-11.34-10.82-5.34,1.7-3.19,15.44,4.52-1.44.51-2.74ZM85.22,129.64l4.49,4.32-5.62,1.79,1.12-6.11Z" fill="#ffcb05"/>
      <polygon points="113.17 132.27 103.75 133.16 102.77 122.86 98.6 123.26 99.9 136.95 113.49 135.65 113.17 132.27" fill="#ffcb05"/>
      <polygon points="119.6 135.37 123.57 136.16 125.52 125.72 129.33 137.3 132.6 137.96 140.66 128.74 138.39 139.11 142.39 139.91 145.08 126.42 138.61 125.13 131.93 133.11 128.8 123.18 122.29 121.88 119.6 135.37" fill="#ffcb05"/>
      <polygon points="159.11 148.25 160.48 145.45 150.38 140.49 151.45 138.3 160.85 142.92 162.05 140.48 152.65 135.86 153.7 133.73 163.67 138.63 165.05 135.84 151.37 129.12 145.3 141.46 159.11 148.25" fill="#ffcb05"/>
      <rect x="159.72" y="143.25" width="13.75" height="4.19" transform="translate(-47.52 200.44) rotate(-55.53)" fill="#ffcb05"/>
      <path d="M185.94,158.9c1.28-1.34,1.82-2.45,1.68-3.47-.11-1.02-.75-1.91-2.51-3.58l-8.59-8.17-9.48,9.96,3.02,2.87,2.39-2.51,4.65,4.42c1.39,1.26,1.47,1.77.47,2.86l-1.18,1.24,3.08,2.93,1.49-1.57c1.46-1.48,1.59-2.36.55-3.75,1.54.92,2.68.62,4.45-1.23ZM179.49,156.07l-4.74-4.5,2.44-2.57,4.84,4.6c.91.87,1.12,1.15,1.12,1.6,0,.39-.2.72-.81,1.36-.94.99-1.39.9-2.86-.5Z" fill="#ffcb05"/>
      <path d="M26.77,265.45c.79,1.41,1.52,1.98,2.49,1.97.51,0,.99-.18,2.35-.81l-1.3-2.75c-.67.32-1.04.3-1.4-.02-.35-.31-.51-.61-1.51-2.72-1.29-2.73-1.22-3.01,1.02-4.07,1.51-.71,1.92-.82,2.39-.63.47.2.73.6,1.82,2.92,1.16,2.46,1.18,2.71.18,3.25l1.28,2.71.31-.15c1.37-.65,2.03-1.39,2.05-2.32.01-.98-.27-1.77-1.92-5.25-1.24-2.61-1.78-3.45-2.67-4.06-1.02-.71-2.03-.58-4.49.59-2.77,1.31-3.62,2.04-3.77,3.24-.13.99.15,1.91,1.42,4.59.88,1.86,1.42,2.97,1.75,3.52Z" fill="#ffcb05"/>
      <polygon points="37.41 282.12 45.87 276.21 38.18 265.21 29.73 271.11 31.52 273.68 37.89 269.24 41.98 275.1 35.61 279.54 37.41 282.12" fill="#ffcb05"/>
      <path d="M46.51,291.82c1.1,1.02,1.89,1.46,2.7,1.53,1.14.11,2.04-.41,3.8-2.16.89-.88,1.46-1.49,1.71-1.83,1.02-1.32,1.06-2.45.14-3.78-.42-.6-1.04-1.27-3.14-3.38-1.92-1.93-2.63-2.56-3.41-3-1.06-.58-1.9-.6-2.89-.03-.62.36-.95.64-2.18,1.86-1.6,1.59-2.07,2.19-2.33,3.01-.26.81-.1,1.58.56,2.54.35.53,1.2,1.45,2.93,3.19.71.71,1.69,1.68,2.1,2.05ZM45.46,283.29c1.05-1.05,1.5-1.32,2.03-1.25.49.08.99.47,2.62,2.11,2.72,2.74,2.73,2.8.89,4.63-.98.97-1.4,1.29-1.87,1.34-.6.1-1.06-.23-2.97-2.15-1.67-1.68-1.98-2.08-2.04-2.62-.04-.5.27-.98,1.34-2.05Z" fill="#ffcb05"/>
      <path d="M64.35,292.93l-6.4-4.62-6.04,8.37,2.53,1.83,1.48-2.06,4.09,2.95c1.46,1.05,2.08,1.37,2.79,1.42,1,.07,1.88-.55,3.03-2.14,1.14-1.58,1.38-2.57.84-3.59-.34-.64-.71-.99-2.33-2.16ZM63.18,297.04c-.57.79-1.03.8-2.08.05l-3.7-2.67,1.62-2.25,3.7,2.67c1.09.79,1.18,1.19.46,2.2Z" fill="#ffcb05"/>
      <polygon points="70.07 308.27 73.67 301.39 77.74 303.52 78.93 301.26 68 295.54 66.82 297.8 70.89 299.93 67.29 306.81 70.07 308.27" fill="#ffcb05"/>
      <polygon points="88.77 315.6 92.1 305.84 88.44 304.59 80.04 309.35 82.37 302.52 79.4 301.51 76.07 311.27 79.73 312.51 88.13 307.75 85.8 314.58 88.77 315.6" fill="#ffcb05"/>
      <path d="M106.11,310.94c.19-1.19-.05-1.95-.79-2.49-.49-.34-1.1-.55-2.29-.74l-9.19-1.46-1.62,10.19,9.62,1.53c1.18.19,1.87.19,2.38.02.85-.3,1.37-1.05,1.56-2.26.15-.95.02-1.61-.41-2.04-.33-.3-.72-.49-1.62-.71.75,0,1.07-.06,1.42-.26.5-.28.81-.87.96-1.77ZM102.72,314.85c-.07.43-.3.7-.62.76-.21.03-.33.03-.96-.07l-5.54-.88.3-1.86,5.47.87c.69.11.81.14.98.23.32.18.45.51.38.95ZM102.96,310.96c-.06.35-.25.6-.52.7-.21.06-.43.06-1.03-.04l-5.21-.83.29-1.8,5.13.81c.6.09.75.13.94.23.32.17.47.51.4.92Z" fill="#ffcb05"/>
      <polygon points="119.01 318.62 122.15 318.57 121.98 308.26 118.85 308.31 118.91 312.13 111.77 312.24 111.7 308.42 108.57 308.47 108.73 318.78 111.87 318.73 111.81 314.79 118.95 314.68 119.01 318.62" fill="#ffcb05"/>
      <path d="M135.69,308.88c-.67-.24-1.37-.2-3.13.17l-4.93,1.04-.52-2.5-3.06.64,2.12,10.1,7.72-1.62c1.77-.37,2.22-.51,2.76-.85,1.12-.69,1.37-1.74.95-3.79-.4-1.91-.96-2.85-1.9-3.19ZM133.18,314.29l-4.46.94-.56-2.69,4.46-.94c1.26-.26,1.68-.07,1.88.89.25,1.2,0,1.53-1.31,1.81Z" fill="#ffcb05"/>
      <rect x="138.55" y="304.97" width="3.14" height="10.32" transform="translate(-60.67 35.36) rotate(-11.84)" fill="#ffcb05"/>
      <polygon points="150.24 311.9 153.31 302.74 156.14 309.38 159.03 308.15 154.98 298.66 151.42 300.18 148.36 309.34 145.52 302.7 142.63 303.93 146.69 313.42 150.24 311.9" fill="#ffcb05"/>
      <path d="M147.97,299.35c-1.18.5-1.58.4-2.02-.48l-1.81.77c1.03,1.81,1.9,2.01,4.36.96,2.45-1.04,2.91-1.81,2.32-3.82l-1.81.77c.33.97.13,1.29-1.05,1.79Z" fill="#ffcb05"/>
      <polygon points="176.27 296.74 179.9 293.97 171.57 293.76 173.2 286.11 169.76 288.72 168.69 294.37 167.39 295.37 165.06 292.3 162.56 294.2 168.81 302.41 171.31 300.51 168.91 297.36 170.16 296.4 176.27 296.74" fill="#ffcb05"/>
      <path d="M188.11,285.43l2.16-2.28-7.49-7.09-8.68,9.16,3.89,3.68c1.31,1.2,1.61,2.04.94,2.79l1.77,1.68.19-.2c1-1.06,1.43-2.05,1.36-3.17s-.6-1.95-2.2-3.46l-1.94-1.84,4.36-4.6,5.64,5.34Z" fill="#ffcb05"/>
      <path d="M191.53,277.54l2.02,1.38.35-.51c1.29-1.89,1.45-2.75.82-4.65l-3.35-10.07-2.23,3.27,2.21,5.57-6.03.02-2.23,3.27,9.21-.56c.25.57.14.98-.49,1.9l-.26.38Z" fill="#ffcb05"/>
      <path d="M204.23,260.46c.91-1.91,1.06-2.49.9-3.37-.13-.8-.72-1.37-2.03-1.99-1.33-.63-2.17-.72-2.88-.31-.53.31-.92.88-1.62,2.36l-2.38,5.01-1.33-.63,3.05-6.42-2.11-1-4.39,9.24,9.31,4.43,3.48-7.32ZM198.27,263.14l2.04-4.3c.49-1.03.79-1.23,1.36-.96.8.38.86.72.35,1.78l-2.04,4.3-1.72-.82Z" fill="#ffcb05"/>
      <path d="M207.14,240.28c2.32-.83,3.54-3.38,2.71-5.71-.83-2.32-3.38-3.54-5.7-2.71-2.32.83-3.54,3.38-2.71,5.71.83,2.32,3.38,3.54,5.7,2.71Z" fill="#ffcb05"/>
      <path d="M195.39,172.14c-2.45.3-4.19,2.53-3.89,4.98.3,2.45,2.53,4.19,4.98,3.89,2.45-.3,4.19-2.53,3.89-4.98-.3-2.45-2.53-4.19-4.98-3.89Z" fill="#ffcb05"/>
      <polygon points="203.03 193.78 198.61 206.49 206.92 217.08 211.34 204.36 203.03 193.78" fill="#ffcb05"/>
      <path d="M27.49,237.57c.83-2.32-.39-4.88-2.71-5.71-2.32-.83-4.88.39-5.7,2.71-.83,2.32.39,4.88,2.71,5.71,2.32.83,4.88-.39,5.7-2.71Z" fill="#ffcb05"/>
      <path d="M37.43,177.12c.3-2.45-1.44-4.68-3.89-4.98-2.45-.3-4.67,1.44-4.98,3.89-.3,2.45,1.44,4.68,3.89,4.98,2.45.3,4.67-1.44,4.98-3.89Z" fill="#ffcb05"/>
      <polygon points="22.01 217.08 30.32 206.49 28.63 201.62 25.9 193.78 19.73 201.62 17.59 204.36 22.01 217.08" fill="#ffcb05"/>
    </g>
  </g>
</svg>