<?xml version="1.0" encoding="UTF-8"?>
<svg id="Layer_2" data-name="Layer 2" xmlns="http://www.w3.org/2000/svg" viewBox="0 0 1562.07 75.34">
  <g id="Layer_1-2" data-name="Layer 1">
    <g>
      <path d="M9.88,51.76v1.57c.22,8.53.9,10.22,4.38,11.79,2.92,1.23,11.45,1.8,27.28,1.8,9.77,0,19.76-.67,24.03-1.68,4.83-1.01,7.19-4.72,7.19-11.12s-1.35-9.32-5.05-10.67q-3.71-1.35-40.64-1.35C7.3,42.1,0,36.49,0,21.22c0-6.74,1.91-11.68,5.61-14.71,3.7-3.03,7.41-4.27,15.49-5.28,5.61-.67,15.94-1.24,23.58-1.24,16.84,0,25.15,1.57,30.31,5.73,4.27,3.37,5.5,7.07,5.61,16.73h-9.99v-1.12c0-5.5-.56-7.41-2.36-8.76-3.59-2.92-10.44-4.04-24.25-4.04-19.2,0-27.96,1.35-31.44,4.71-1.57,1.57-2.36,4.27-2.36,8.08,0,6.62,1.24,8.87,5.95,10.33,3.59,1.24,9.32,1.68,19.65,1.8q4.83,0,24.36.11c10.67,0,15.72,1.8,19.31,6.62,2.36,3.14,3.48,7.41,3.48,13.14,0,9.21-2.58,14.82-8.31,17.96-5.5,2.92-16.28,4.04-39.52,4.04-16.5,0-23.02-.79-27.73-3.48C1.91,68.82.11,64.67.11,55.13c0-.22,0-2.02.11-3.37h9.66Z" fill="#ff8c24"/>
      <path d="M165.49,59.28h-60.52l-8.87,15.83h-11.34L127.21.22h15.94l42.33,74.89h-11.12l-8.87-15.83ZM137.42,8.98h-4.04l-23.58,41.54h50.97l-23.35-41.54Z" fill="#ff8c24"/>
      <path d="M197.6,51.76v1.57c.22,8.53.9,10.22,4.38,11.79,2.92,1.23,11.45,1.8,27.28,1.8,9.77,0,19.76-.67,24.03-1.68,4.83-1.01,7.19-4.72,7.19-11.12s-1.35-9.32-5.05-10.67q-3.71-1.35-40.64-1.35c-19.76,0-27.06-5.61-27.06-20.88,0-6.74,1.91-11.68,5.61-14.71,3.7-3.03,7.41-4.27,15.49-5.28,5.61-.67,15.94-1.24,23.58-1.24,16.84,0,25.15,1.57,30.31,5.73,4.27,3.37,5.5,7.07,5.61,16.73h-9.99v-1.12c0-5.5-.56-7.41-2.36-8.76-3.59-2.92-10.44-4.04-24.25-4.04-19.2,0-27.96,1.35-31.44,4.71-1.57,1.57-2.36,4.27-2.36,8.08,0,6.62,1.24,8.87,5.95,10.33,3.59,1.24,9.32,1.68,19.65,1.8q4.83,0,24.36.11c10.67,0,15.72,1.8,19.31,6.62,2.36,3.14,3.48,7.41,3.48,13.14,0,9.21-2.58,14.82-8.31,17.96-5.5,2.92-16.28,4.04-39.52,4.04-16.5,0-23.02-.79-27.73-3.48-5.5-3.03-7.3-7.19-7.3-16.73,0-.22,0-2.02.11-3.37h9.66Z" fill="#ff8c24"/>
      <path d="M359.28.22v8.76h-37.39v66.13h-9.99V8.98h-37.61V.22h84.99Z" fill="#ff8c24"/>
      <path d="M366.13.22h73.32v8.76h-63.32v22.9h60.63v8.76h-60.63v25.71h63.43v8.76h-73.43V.22Z" fill="#ff8c24"/>
      <path d="M482.33,51.76v1.57c.22,8.53.9,10.22,4.38,11.79,2.92,1.23,11.45,1.8,27.28,1.8,9.77,0,19.76-.67,24.03-1.68,4.83-1.01,7.19-4.72,7.19-11.12s-1.35-9.32-5.05-10.67q-3.71-1.35-40.64-1.35c-19.76,0-27.06-5.61-27.06-20.88,0-6.74,1.91-11.68,5.61-14.71,3.71-3.03,7.41-4.27,15.49-5.28,5.61-.67,15.94-1.24,23.58-1.24,16.84,0,25.15,1.57,30.31,5.73,4.27,3.37,5.5,7.07,5.61,16.73h-9.99v-1.12c0-5.5-.56-7.41-2.36-8.76-3.59-2.92-10.44-4.04-24.25-4.04-19.2,0-27.96,1.35-31.44,4.71-1.57,1.57-2.36,4.27-2.36,8.08,0,6.62,1.24,8.87,5.95,10.33,3.59,1.24,9.32,1.68,19.65,1.8q4.83,0,24.36.11c10.67,0,15.72,1.8,19.31,6.62,2.36,3.14,3.48,7.41,3.48,13.14,0,9.21-2.58,14.82-8.31,17.96-5.5,2.92-16.28,4.04-39.52,4.04-16.5,0-23.02-.79-27.73-3.48-5.5-3.03-7.3-7.19-7.3-16.73,0-.22,0-2.02.11-3.37h9.66Z" fill="#ff8c24"/>
      <path d="M581.02.22l65.46,65.68h2.36V.22h9.99v74.89h-16.95l-65.23-65.46h-2.25v65.46h-9.99V.22h16.62Z" fill="#ff8c24"/>
      <path d="M680.05.22v74.89h-9.99V.22h9.99Z" fill="#ff8c24"/>
      <path d="M691.28.22h47.38q25.26.56,29.87,4.04c4.27,3.26,6.06,8.87,6.06,19.09s-1.57,15.49-5.61,18.86c-3.93,3.48-7.19,4.38-16.39,4.6q-2.36.11-13.92.11h-37.39v28.18h-9.99V.22ZM738.66,38.17c18.19,0,19.65-.22,22.68-2.69,2.25-1.91,3.03-4.72,3.03-11.79,0-7.75-.56-10.22-2.81-11.9-3.03-2.25-4.15-2.47-22.9-2.81h-37.39v29.19h37.39Z" fill="#ff8c24"/>
      <path d="M782.22.22h73.32v8.76h-63.32v22.9h60.63v8.76h-60.63v25.71h63.43v8.76h-73.43V.22Z" fill="#ff8c24"/>
      <path d="M862.72.22h46.71c18.86.22,18.97.22,24.14.9,6.06.79,10.55,3.71,12.91,8.31,1.68,3.48,2.36,7.19,2.36,13.36,0,13.81-2.47,17.74-12.35,19.76,9.43,2.13,11.34,6.06,11,21.89v10.67h-9.99v-7.19c.11-13.25-.22-15.49-3.03-18.53-3.59-2.92-4.94-3.14-25.04-3.14h-36.71v28.85h-9.99V.22ZM909.42,37.5c16.17,0,18.53-.11,21.89-1.01,5.5-1.46,7.3-4.94,7.3-13.81,0-5.28-1.35-9.43-3.59-11-3.03-2.25-7.63-2.7-25.6-2.7h-36.71v28.52h36.71Z" fill="#ff8c24"/>
      <path d="M966.35,51.76v1.57c.22,8.53.9,10.22,4.38,11.79,2.92,1.23,11.45,1.8,27.28,1.8,9.77,0,19.76-.67,24.03-1.68,4.83-1.01,7.19-4.72,7.19-11.12s-1.35-9.32-5.05-10.67q-3.71-1.35-40.64-1.35c-19.76,0-27.06-5.61-27.06-20.88,0-6.74,1.91-11.68,5.61-14.71,3.7-3.03,7.41-4.27,15.49-5.28,5.61-.67,15.94-1.24,23.58-1.24,16.84,0,25.15,1.57,30.31,5.73,4.27,3.37,5.5,7.07,5.61,16.73h-9.99v-1.12c0-5.5-.56-7.41-2.36-8.76-3.59-2.92-10.44-4.04-24.25-4.04-19.2,0-27.96,1.35-31.44,4.71-1.57,1.57-2.36,4.27-2.36,8.08,0,6.62,1.24,8.87,5.95,10.33,3.59,1.24,9.32,1.68,19.65,1.8q4.83,0,24.36.11c10.67,0,15.72,1.8,19.31,6.62,2.36,3.14,3.48,7.41,3.48,13.14,0,9.21-2.58,14.82-8.31,17.96-5.5,2.92-16.28,4.04-39.52,4.04-16.5,0-23.02-.79-27.73-3.48-5.5-3.03-7.3-7.19-7.3-16.73,0-.22,0-2.02.11-3.37h9.66Z" fill="#ff8c24"/>
      <path d="M1085.7.22v36.83c0,21.33.11,22.23,2.13,25.15,2.13,3.14,9.32,4.15,29.53,4.15,24.36,0,31.66-.9,34.36-4.04,2.13-2.47,2.25-3.71,2.36-25.26V.22h9.99v36.83c-.11,23.13-.45,25.82-4.27,31.21-5.73,6.06-8.98,6.62-39.86,7.07-30.54-.22-33.46-.79-39.07-6.29-4.71-5.73-5.05-8.2-5.16-32V.22h9.99Z" fill="#ff8c24"/>
      <path d="M1191.23.22l65.46,65.68h2.36V.22h9.99v74.89h-16.95l-65.23-65.46h-2.25v65.46h-9.99V.22h16.62Z" fill="#ff8c24"/>
      <path d="M1290.26.22v74.89h-9.99V.22h9.99Z" fill="#ff8c24"/>
      <path d="M1382.1.22v8.76h-37.39v66.13h-9.99V8.98h-37.61V.22h84.99Z" fill="#ff8c24"/>
      <path d="M1388.95.22h73.32v8.76h-63.32v22.9h60.63v8.76h-60.63v25.71h63.43v8.76h-73.43V.22Z" fill="#ff8c24"/>
      <path d="M1469.45.22h51.65c23.13,0,28.85,1.23,34.47,7.19,4.94,5.28,6.51,12.57,6.51,30.2,0,16.62-2.36,26.05-7.97,31.33-5.39,5.05-11.12,6.17-32.22,6.17h-52.43V.22ZM1521.43,66.35c14.37,0,14.93,0,19.09-1.01,8.08-1.91,11.34-9.99,11.34-28.18,0-11.56-1.57-19.54-4.49-23.24-2.36-2.81-5.73-4.15-12.13-4.72-2.36-.22-5.16-.22-14.37-.22h-41.43v57.37h41.99Z" fill="#ff8c24"/>
    </g>
  </g>
</svg>