<?xml version="1.0" encoding="UTF-8"?>
<svg id="Layer_2" data-name="Layer 2" xmlns="http://www.w3.org/2000/svg" viewBox="0 0 337.12 160.56">
  <g id="Layer_1-2" data-name="Layer 1">
    <g>
      <path d="M5.87,30.77v.93c.13,5.07.53,6.08,2.6,7.01,1.74.73,6.81,1.07,16.22,1.07,5.81,0,11.75-.4,14.29-1,2.87-.6,4.27-2.8,4.27-6.61s-.8-5.54-3-6.34q-2.2-.8-24.17-.8C4.34,25.03,0,21.7,0,12.62,0,8.61,1.13,5.67,3.34,3.87,5.54,2.07,7.74,1.33,12.55.73c3.34-.4,9.48-.73,14.02-.73,10.01,0,14.95.93,18.02,3.4,2.54,2,3.27,4.21,3.34,9.95h-5.94v-.67c0-3.27-.33-4.41-1.4-5.21-2.14-1.74-6.21-2.4-14.42-2.4-11.42,0-16.62.8-18.69,2.8-.93.93-1.4,2.54-1.4,4.81,0,3.94.73,5.27,3.54,6.14,2.14.73,5.54,1,11.68,1.07q2.87,0,14.49.07c6.34,0,9.35,1.07,11.48,3.94,1.4,1.87,2.07,4.41,2.07,7.81,0,5.47-1.54,8.81-4.94,10.68-3.27,1.74-9.68,2.4-23.5,2.4-9.81,0-13.68-.47-16.49-2.07C1.13,40.92.07,38.45.07,32.78c0-.13,0-1.2.07-2h5.74Z" fill="#c8102e"/>
      <path d="M98.4,35.25h-35.98l-5.27,9.41h-6.74L75.63.13h9.48l25.17,44.53h-6.61l-5.27-9.41ZM81.71,5.34h-2.4l-14.02,24.7h30.31l-13.89-24.7Z" fill="#c8102e"/>
      <path d="M117.49,30.77v.93c.13,5.07.53,6.08,2.6,7.01,1.74.73,6.81,1.07,16.22,1.07,5.81,0,11.75-.4,14.29-1,2.87-.6,4.27-2.8,4.27-6.61s-.8-5.54-3-6.34q-2.2-.8-24.17-.8c-11.75,0-16.09-3.34-16.09-12.42,0-4.01,1.13-6.94,3.34-8.75,2.2-1.8,4.41-2.54,9.21-3.14,3.34-.4,9.48-.73,14.02-.73,10.01,0,14.95.93,18.02,3.4,2.54,2,3.27,4.21,3.34,9.95h-5.94v-.67c0-3.27-.33-4.41-1.4-5.21-2.14-1.74-6.21-2.4-14.42-2.4-11.42,0-16.62.8-18.69,2.8-.93.93-1.4,2.54-1.4,4.81,0,3.94.73,5.27,3.54,6.14,2.14.73,5.54,1,11.68,1.07q2.87,0,14.49.07c6.34,0,9.35,1.07,11.48,3.94,1.4,1.87,2.07,4.41,2.07,7.81,0,5.47-1.54,8.81-4.94,10.68-3.27,1.74-9.68,2.4-23.5,2.4-9.81,0-13.68-.47-16.49-2.07-3.27-1.8-4.34-4.27-4.34-9.95,0-.13,0-1.2.07-2h5.74Z" fill="#c8102e"/>
      <path d="M213.62.13v5.21h-22.23v39.32h-5.94V5.34h-22.36V.13h50.54Z" fill="#c8102e"/>
      <path d="M217.69.13h43.59v5.21h-37.65v13.62h36.05v5.21h-36.05v15.29h37.72v5.21h-43.66V.13Z" fill="#c8102e"/>
      <path d="M5.87,88.66v.93c.13,5.07.53,6.08,2.6,7.01,1.74.73,6.81,1.07,16.22,1.07,5.81,0,11.75-.4,14.29-1,2.87-.6,4.27-2.8,4.27-6.61s-.8-5.54-3-6.34q-2.2-.8-24.17-.8c-11.75,0-16.09-3.34-16.09-12.42,0-4.01,1.13-6.94,3.34-8.75,2.2-1.8,4.41-2.54,9.21-3.14,3.34-.4,9.48-.73,14.02-.73,10.01,0,14.95.93,18.02,3.4,2.54,2,3.27,4.21,3.34,9.95h-5.94v-.67c0-3.27-.33-4.41-1.4-5.21-2.14-1.74-6.21-2.4-14.42-2.4-11.42,0-16.62.8-18.69,2.8-.93.93-1.4,2.54-1.4,4.81,0,3.94.73,5.27,3.54,6.14,2.14.73,5.54,1,11.68,1.07q2.87,0,14.49.07c6.34,0,9.35,1.07,11.48,3.94,1.4,1.87,2.07,4.41,2.07,7.81,0,5.47-1.54,8.81-4.94,10.68-3.27,1.74-9.68,2.4-23.5,2.4-9.81,0-13.68-.47-16.49-2.07-3.27-1.8-4.34-4.27-4.34-9.95,0-.13,0-1.2.07-2h5.74Z" fill="#c8102e"/>
      <path d="M64.55,58.01l38.92,39.05h1.4v-39.05h5.94v44.53h-10.08l-38.79-38.92h-1.33v38.92h-5.94v-44.53h9.88Z" fill="#c8102e"/>
      <path d="M123.43,58.01v44.53h-5.94v-44.53h5.94Z" fill="#c8102e"/>
      <path d="M130.11,58.01h28.17q15.02.33,17.76,2.4c2.54,1.94,3.61,5.27,3.61,11.35s-.93,9.21-3.34,11.22c-2.34,2.07-4.27,2.6-9.75,2.74q-1.4.07-8.28.07h-22.23v16.76h-5.94v-44.53ZM158.28,80.58c10.81,0,11.68-.13,13.48-1.6,1.33-1.13,1.8-2.8,1.8-7.01,0-4.61-.33-6.07-1.67-7.08-1.8-1.33-2.47-1.47-13.62-1.67h-22.23v17.36h22.23Z" fill="#c8102e"/>
      <path d="M184.18,58.01h43.59v5.21h-37.65v13.62h36.05v5.21h-36.05v15.29h37.72v5.21h-43.66v-44.53Z" fill="#c8102e"/>
      <path d="M232.04,58.01h27.77c11.22.13,11.28.13,14.35.53,3.6.47,6.28,2.2,7.68,4.94,1,2.07,1.4,4.27,1.4,7.94,0,8.21-1.47,10.55-7.34,11.75,5.61,1.27,6.74,3.6,6.54,13.02v6.34h-5.94v-4.27c.07-7.88-.13-9.21-1.8-11.01-2.14-1.74-2.94-1.87-14.89-1.87h-21.83v17.16h-5.94v-44.53ZM259.82,80.18c9.61,0,11.02-.07,13.02-.6,3.27-.87,4.34-2.94,4.34-8.21,0-3.14-.8-5.61-2.14-6.54-1.8-1.33-4.54-1.6-15.22-1.6h-21.83v16.96h21.83Z" fill="#c8102e"/>
      <path d="M293.66,88.66v.93c.13,5.07.53,6.08,2.6,7.01,1.74.73,6.81,1.07,16.22,1.07,5.81,0,11.75-.4,14.29-1,2.87-.6,4.27-2.8,4.27-6.61s-.8-5.54-3-6.34q-2.2-.8-24.17-.8c-11.75,0-16.09-3.34-16.09-12.42,0-4.01,1.13-6.94,3.34-8.75,2.2-1.8,4.41-2.54,9.21-3.14,3.34-.4,9.48-.73,14.02-.73,10.01,0,14.95.93,18.02,3.4,2.54,2,3.27,4.21,3.34,9.95h-5.94v-.67c0-3.27-.33-4.41-1.4-5.21-2.14-1.74-6.21-2.4-14.42-2.4-11.42,0-16.62.8-18.69,2.8-.93.93-1.4,2.54-1.4,4.81,0,3.94.73,5.27,3.54,6.14,2.14.73,5.54,1,11.68,1.07q2.87,0,14.49.07c6.34,0,9.35,1.07,11.48,3.94,1.4,1.87,2.07,4.41,2.07,7.81,0,5.47-1.54,8.81-4.94,10.68-3.27,1.74-9.68,2.4-23.5,2.4-9.81,0-13.68-.47-16.49-2.07-3.27-1.8-4.34-4.27-4.34-9.95,0-.13,0-1.2.07-2h5.74Z" fill="#c8102e"/>
      <path d="M6.81,115.89v21.9c0,12.68.07,13.22,1.27,14.95,1.27,1.87,5.54,2.47,17.56,2.47,14.49,0,18.83-.53,20.43-2.4,1.27-1.47,1.33-2.2,1.4-15.02v-21.9h5.94v21.9c-.07,13.75-.27,15.35-2.54,18.56-3.41,3.6-5.34,3.94-23.7,4.21-18.16-.13-19.89-.47-23.23-3.74-2.8-3.41-3-4.87-3.07-19.03v-21.9h5.94Z" fill="#c8102e"/>
      <path d="M69.56,115.89l38.92,39.05h1.4v-39.05h5.94v44.53h-10.08l-38.79-38.92h-1.33v38.92h-5.94v-44.53h9.88Z" fill="#c8102e"/>
      <path d="M128.44,115.89v44.53h-5.94v-44.53h5.94Z" fill="#c8102e"/>
      <path d="M183.05,115.89v5.21h-22.23v39.32h-5.94v-39.32h-22.36v-5.21h50.54Z" fill="#c8102e"/>
      <path d="M187.12,115.89h43.59v5.21h-37.65v13.62h36.05v5.21h-36.05v15.29h37.72v5.21h-43.66v-44.53Z" fill="#c8102e"/>
      <path d="M234.98,115.89h30.71c13.75,0,17.16.73,20.5,4.27,2.94,3.14,3.87,7.48,3.87,17.96,0,9.88-1.4,15.49-4.74,18.62-3.2,3-6.61,3.67-19.16,3.67h-31.18v-44.53ZM265.89,155.21c8.54,0,8.88,0,11.35-.6,4.81-1.13,6.74-5.94,6.74-16.76,0-6.88-.93-11.62-2.67-13.82-1.4-1.67-3.4-2.47-7.21-2.8-1.4-.13-3.07-.13-8.54-.13h-24.63v34.11h24.97Z" fill="#c8102e"/>
    </g>
  </g>
</svg>