<?xml version="1.0" encoding="UTF-8"?>
<svg id="Layer_2" data-name="Layer 2" xmlns="http://www.w3.org/2000/svg" viewBox="0 0 404.17 255.71">
  <g id="Layer_1-2" data-name="Layer 1">
    <g>
      <path d="M332.22,174.35c-7.51-4.87-20.8-11.2-39.87-19.01-24.46-10-42.61-18.65-54.48-25.93-.38-.23-.77-.47-1.14-.7-.7-.44-1.38-.87-2.02-1.3-.05-.03-.1-.07-.15-.11-.35-.23-.68-.47-1.02-.7-11.12-7.48-19.74-15.8-25.81-24.96-.91-1.37-1.74-2.76-2.52-4.17-1.13-2.04-2.11-4.13-2.96-6.26-.05-.13-.11-.25-.16-.38-1.41,3.6-3.21,7.08-5.4,10.44-.08.12-.15.24-.23.37-6.29,9.49-15.28,18.08-26.98,25.77-11.7,7.69-30.92,17-57.65,27.93-19.07,7.81-32.36,14.15-39.87,19.01-7.51,4.87-13.11,10-16.8,15.41-3.68,5.41-5.53,10.99-5.53,16.76,0,9.73,4.8,18.26,14.41,25.59,9.61,7.33,22.5,10.99,38.68,10.99,20.95,0,40.49-6.82,58.62-20.45,18.13-13.63,30.37-33.42,36.73-59.37h0s0,0,0,0h8.02c.03.14.07.26.1.39,6.38,25.75,18.59,45.42,36.63,58.98,18.13,13.64,37.67,20.45,58.62,20.45,16.18,0,29.07-3.66,38.68-10.99,9.61-7.33,14.41-15.86,14.41-25.59,0-5.77-1.84-11.35-5.52-16.76-3.68-5.41-9.29-10.54-16.8-15.41Z" fill="none"/>
      <path d="M185.59,82.45c1.15.88,2.69,1.31,4.62,1.31,2.5,0,4.84-.81,7-2.44.68-.51,1.27-1.1,1.81-1.75,1.19-1.44,2.05-3.21,2.58-5.35h0s.44,0,.44,0h.52c.48,1.94,1.23,3.6,2.26,4.96.1.13.21.26.32.39.54.65,1.14,1.24,1.81,1.75.41.31.82.57,1.24.82,1.81,1.08,3.73,1.62,5.77,1.62s3.47-.44,4.62-1.31c1.15-.88,1.72-1.9,1.72-3.06,0-.69-.22-1.36-.66-2-.44-.65-1.11-1.26-2.01-1.84-.9-.58-2.49-1.34-4.76-2.27-.75-.31-1.45-.6-2.1-.89-1.46-.64-2.67-1.23-3.63-1.76-.43-.24-.82-.47-1.15-.69-.04-.03-.08-.06-.12-.08-.81-.54-1.49-1.12-2.08-1.73-.39-.41-.74-.82-1.03-1.26-.28-.43-.5-.88-.67-1.34-.18.46-.39.91-.67,1.34-.73,1.1-1.77,2.1-3.11,3-.04.03-.08.06-.12.08-1.4.92-3.69,2.03-6.89,3.34-2.28.93-3.87,1.69-4.76,2.27-.9.58-1.57,1.2-2.01,1.84-.44.65-.66,1.31-.66,2,0,1.16.57,2.18,1.72,3.06Z" fill="#ff8c24"/>
      <path d="M401.68,163.6c-.14-.47-.31-.93-.46-1.4-.01-.03-.02-.07-.03-.1-.43-1.29-.88-2.56-1.4-3.82-.28-.68-.58-1.35-.89-2.03-.21-.47-.43-.94-.66-1.4-.99-2.02-2.1-4.01-3.34-5.95-.19-.31-.38-.61-.58-.92-2.25-3.43-4.89-6.74-7.92-9.94-1.6-1.67-3.41-3.34-5.41-5.04-.45-.38-.93-.77-1.4-1.15-1.28-1.04-2.62-2.09-4.05-3.15-.61-.45-1.27-.91-1.91-1.36-.02-.01-.04-.03-.06-.04-.45-.32-.88-.63-1.34-.95-1.87-1.29-3.87-2.58-5.95-3.88-.34-.21-.67-.42-1.02-.63-12.4-7.61-28.53-15.49-48.43-23.62-24.56-10.09-40.24-17.12-47.03-21.08-9.25-5.52-15.96-11.11-20.15-16.76-3.03-4.2-4.55-9.01-4.55-14.42,0-8.53,4.3-16.07,12.9-22.62,8.59-6.55,20.26-9.82,35-9.82,19.07,0,36.8,6.22,53.2,18.65,16.39,12.43,26.69,28.86,30.88,49.29h8.89l-2.38-81.45h-6.5c-1.88,7.33-3.9,11.96-6.07,13.88-2.17,1.92-5.13,2.88-8.89,2.88s-10.73-1.95-20.48-5.86c-9.75-3.9-18.03-6.58-24.81-8.02-8.96-1.92-18.2-2.88-27.74-2.88-17.68,0-33.31,3.14-46.89,9.4-2.71,1.25-5.35,2.61-7.9,4.11-2.85,1.68-5.59,3.53-8.23,5.52-.67.5-1.34.99-1.99,1.51-10.61,8.45-17.93,18-22,28.65-4.06-10.65-11.39-20.2-22-28.65C162.9,6.85,141.23,0,115.07,0c-9.54,0-18.78.96-27.74,2.88-6.79,1.44-15.06,4.12-24.81,8.02-9.75,3.91-16.58,5.86-20.48,5.86s-6.72-.96-8.89-2.88c-2.17-1.92-4.19-6.55-6.07-13.88h-6.5l-2.38,81.45h8.89c4.19-20.42,14.49-36.85,30.88-49.29,16.4-12.43,34.13-18.65,53.2-18.65,14.74,0,26.4,3.27,35,9.82,8.6,6.55,12.89,14.09,12.89,22.62,0,5.41-1.52,10.21-4.55,14.42-4.19,5.65-10.91,11.23-20.15,16.76-6.79,3.96-22.47,10.99-47.03,21.08-34.38,14.06-57.57,27.33-69.57,39.82C5.93,150.53,0,164.83,0,180.93c0,20.43,9.57,37.99,28.71,52.71,19.14,14.72,43.45,22.08,72.92,22.08,9.25,0,17.99-.78,26.22-2.34,8.23-1.56,18.57-4.5,30.99-8.83,6.94-2.4,12.64-3.6,17.12-3.6,3.76,0,7.73,1.2,11.92,3.6,4.19,2.4,7.58,6.06,10.18,10.99h0s0,0,0,0h8.02c2.6-4.93,5.99-8.59,10.18-10.99,4.19-2.4,8.16-3.6,11.92-3.6.29,0,.59.02.89.03,1.54.05,3.21.23,5.03.55,1.82.32,3.78.77,5.88,1.36,1.69.47,3.46,1.03,5.33,1.67,12.42,4.33,22.76,7.27,30.99,8.83,8.24,1.56,16.98,2.34,26.22,2.34,29.47,0,53.78-7.36,72.92-22.08,11.1-8.53,18.96-18.03,23.63-28.49.24-.54.48-1.09.7-1.63.51-1.24.98-2.5,1.4-3.77.25-.77.48-1.55.7-2.32,1.5-5.28,2.29-10.77,2.29-16.5,0-6.03-.83-11.8-2.49-17.32ZM180.06,71.2c1.43-1.49,4.2-3.08,8.31-4.76,2.94-1.21,4.81-2.05,5.62-2.52,1.11-.66,1.91-1.33,2.41-2,.36-.5.54-1.08.54-1.72,0-1.02-.51-1.92-1.54-2.7-1.03-.78-2.42-1.17-4.18-1.17-2.28,0-4.4.74-6.36,2.23-1.96,1.49-3.19,3.45-3.69,5.89h-1.06l.29-9.73h.78c.23.88.47,1.43.73,1.66.26.23.61.34,1.06.34s1.28-.23,2.45-.7,2.15-.79,2.97-.96c1.07-.23,2.18-.34,3.31-.34,3.12,0,5.71.82,7.77,2.46.08.06.14.12.21.19,1.15.97,1.96,2.04,2.42,3.24.46-1.2,1.27-2.28,2.41-3.24.07-.06.14-.13.21-.19,1.01-.8,2.14-1.4,3.41-1.81,1.32-.43,2.77-.64,4.36-.64.02,0,.04,0,.06,0,1.12,0,2.2.12,3.26.34.24.05.53.14.81.22.64.18,1.34.41,2.16.74,1.17.47,1.98.7,2.45.7s.8-.11,1.06-.34c.26-.23.5-.78.72-1.66h.78l.28,9.73h-1.06c-.5-2.44-1.73-4.4-3.69-5.89-1.05-.8-2.14-1.37-3.29-1.74-.99-.32-2.01-.49-3.07-.49-.37,0-.71.03-1.04.06-1.27.13-2.33.49-3.14,1.11-1.03.78-1.54,1.68-1.54,2.7,0,.65.18,1.22.54,1.72.37.5.91,1,1.62,1.49.24.17.5.34.79.51.51.3,1.45.75,2.81,1.34.79.35,1.73.74,2.81,1.18,4.11,1.68,6.88,3.27,8.31,4.76,1.41,1.49,2.12,3.2,2.12,5.13,0,2.44-1.14,4.54-3.43,6.3-2.29,1.76-5.19,2.64-8.71,2.64-1.1,0-2.15-.09-3.13-.28-.87-.17-1.95-.47-3.21-.89-.16-.06-.32-.11-.49-.16-.83-.29-1.51-.43-2.05-.43-.28,0-.58.08-.89.19-.18.07-.35.13-.54.24-.03.02-.05.05-.08.06-.46.29-.84.69-1.14,1.25h0s0,0,0,0h-.96c-.31-.59-.72-1.03-1.22-1.31-.18-.11-.36-.17-.54-.24-.03-.01-.07-.03-.1-.05-.27-.09-.53-.15-.79-.15-.54,0-1.22.14-2.05.43-1.48.52-2.72.87-3.7,1.06-.98.19-2.03.28-3.13.28-3.52,0-6.43-.88-8.71-2.64-2.29-1.76-3.43-3.86-3.43-6.3,0-1.92.71-3.63,2.12-5.13ZM340.13,232.1c-9.61,7.33-22.5,10.99-38.68,10.99-20.95,0-40.49-6.82-58.62-20.45-18.04-13.56-30.25-33.23-36.63-58.98-.03-.13-.07-.26-.1-.39h0s0,0,0,0h-8.02c-6.36,25.95-18.6,45.75-36.73,59.38-18.13,13.64-37.67,20.45-58.62,20.45-16.18,0-29.07-3.66-38.68-10.99-9.61-7.33-14.41-15.86-14.41-25.59,0-5.77,1.84-11.35,5.53-16.76,3.68-5.41,9.29-10.54,16.8-15.41,7.51-4.87,20.8-11.2,39.87-19.01,26.73-10.93,45.94-20.24,57.65-27.93,11.7-7.69,20.7-16.28,26.98-25.77.08-.12.15-.24.23-.37,2.19-3.36,3.99-6.84,5.4-10.44.05.13.1.25.16.38.85,2.13,1.84,4.21,2.96,6.26.78,1.41,1.61,2.8,2.52,4.17,6.07,9.16,14.69,17.48,25.81,24.96.34.23.67.47,1.02.7.05.03.1.07.15.11.65.43,1.33.86,2.02,1.3.37.23.76.47,1.14.7,11.88,7.29,30.02,15.93,54.48,25.93,19.07,7.81,32.36,14.15,39.87,19.01,7.51,4.87,13.11,10,16.8,15.41,3.68,5.41,5.52,10.99,5.52,16.76,0,9.73-4.8,18.26-14.41,25.59Z" fill="#ff8c24"/>
      <path d="M181.37,82.63c2.29,1.76,5.19,2.64,8.71,2.64,1.1,0,2.15-.09,3.13-.28.98-.19,2.22-.54,3.7-1.06.83-.29,1.51-.43,2.05-.43.25,0,.52.06.79.15.03.01.07.03.1.05.18.07.35.13.54.24.5.29.91.72,1.22,1.31h0s.96,0,.96,0h0c.29-.55.67-.96,1.14-1.25.03-.02.05-.05.08-.06.18-.11.36-.17.54-.24.31-.12.6-.19.89-.19.54,0,1.22.14,2.05.43.17.06.33.11.49.16,1.26.42,2.34.73,3.21.89.98.19,2.03.28,3.13.28,3.52,0,6.43-.88,8.71-2.64,2.29-1.76,3.43-3.86,3.43-6.3,0-1.92-.71-3.63-2.12-5.13-1.43-1.49-4.2-3.08-8.31-4.76-1.08-.44-2.02-.84-2.81-1.18-1.36-.59-2.3-1.04-2.81-1.34-.28-.17-.54-.34-.79-.51-.71-.49-1.25-.99-1.62-1.49-.36-.5-.54-1.08-.54-1.72,0-1.02.51-1.92,1.54-2.7.81-.62,1.87-.98,3.14-1.11.33-.03.68-.06,1.04-.06,1.06,0,2.08.17,3.07.49,1.14.37,2.24.95,3.29,1.74,1.96,1.49,3.19,3.45,3.69,5.89h1.06l-.28-9.73h-.78c-.22.88-.47,1.43-.72,1.66-.26.23-.61.34-1.06.34s-1.28-.23-2.45-.7c-.82-.33-1.51-.56-2.16-.74-.28-.08-.57-.17-.81-.22-1.05-.23-2.14-.34-3.26-.34-.02,0-.04,0-.06,0-1.59,0-3.05.22-4.36.64-1.26.41-2.4,1.01-3.41,1.81-.08.06-.14.12-.21.19-1.15.97-1.96,2.04-2.41,3.24-.46-1.2-1.27-2.28-2.42-3.24-.07-.06-.14-.13-.21-.19-2.05-1.64-4.64-2.46-7.77-2.46-1.14,0-2.24.12-3.31.34-.81.17-1.8.49-2.97.96s-1.98.7-2.45.7-.8-.11-1.06-.34c-.26-.23-.5-.78-.73-1.66h-.78l-.29,9.73h1.06c.5-2.44,1.73-4.4,3.69-5.89,1.96-1.49,4.08-2.23,6.36-2.23,1.76,0,3.16.39,4.18,1.17,1.03.78,1.54,1.68,1.54,2.7,0,.65-.18,1.22-.54,1.72-.5.67-1.3,1.34-2.41,2-.81.47-2.68,1.31-5.62,2.52-4.11,1.68-6.88,3.27-8.31,4.76-1.42,1.49-2.12,3.2-2.12,5.13,0,2.44,1.14,4.54,3.43,6.3ZM184.53,77.39c.44-.65,1.11-1.26,2.01-1.84.9-.58,2.49-1.34,4.76-2.27,3.19-1.31,5.49-2.42,6.89-3.34.04-.03.08-.06.12-.08,1.34-.9,2.38-1.9,3.11-3,.28-.43.5-.88.67-1.34.18.46.39.91.67,1.34.29.44.64.86,1.03,1.26.58.61,1.27,1.19,2.08,1.73.04.03.07.06.12.08.33.22.72.45,1.15.69.96.53,2.17,1.12,3.63,1.76.65.29,1.35.58,2.1.89,2.28.93,3.87,1.69,4.76,2.27.9.58,1.57,1.2,2.01,1.84.44.65.66,1.31.66,2,0,1.16-.57,2.18-1.72,3.06-1.15.88-2.69,1.31-4.62,1.31-2.03,0-3.95-.55-5.77-1.62-.42-.25-.83-.52-1.24-.82-.67-.51-1.27-1.1-1.81-1.75-.11-.13-.22-.25-.32-.39-1.03-1.37-1.78-3.02-2.26-4.96h0s0,0,0,0h-.96c-.52,2.14-1.39,3.91-2.58,5.35-.54.65-1.14,1.24-1.81,1.75-2.17,1.63-4.5,2.44-7,2.44-1.93,0-3.47-.44-4.62-1.31-1.15-.88-1.72-1.9-1.72-3.06,0-.69.22-1.36.66-2Z" fill="#c8102e"/>
    </g>
  </g>
</svg>