<?xml version="1.0" encoding="UTF-8"?>
<svg id="Layer_2" data-name="Layer 2" xmlns="http://www.w3.org/2000/svg" viewBox="0 0 304.27 339.12">
  <g id="Layer_1-2" data-name="Layer 1">
    <g>
      <g>
        <path d="M257.88,331.76c-8.9-8.17-58.88-54.68-105.74-98.39-47.7,44.49-96.74,90.12-105.74,98.39l-2.63,2.42-2.31-2.73c-5.52-6.54-9.56-9.36-13.46-12.09-3.61-2.52-7.02-4.9-10.9-9.66l-1.62-1.99,1.45-2.12c2.13-3.11,4.01-6.05,5.76-9.01,11.26-18.98,21.48-44.92,20.12-105.65-.15-6.86-.91-14.08-2.24-21.47-4.52-25.15-14.69-47.04-22.47-61.04-3.49-4.61-8-12.21-10.44-16.31-.62-1.05-1.27-2.14-1.43-2.37l-1.76-2.36,2.1-2.03c7.21-7.35,14.2-13.72,19.31-18.37,3.23-2.94,5.78-5.26,7.13-6.69l2.5-2.64,2.49,2.65c.85.9,1.75,1.92,2.69,3.01,8.06,9.45,34.84,45.53,41.14,113.24,2.11,22.64,1.61,46.36-1.46,70.65,9.1-8.92,25.58-25.18,44.54-44.11,8.41-8.39,16.75-16.76,24.8-24.87l2.43-2.45,2.43,2.45c8.16,8.21,16.5,16.58,24.8,24.86,18.98,18.94,35.45,35.2,44.54,44.11-3.07-24.28-3.57-48-1.46-70.65,6.3-67.71,33.08-103.79,41.14-113.23.93-1.09,1.84-2.11,2.69-3.02l2.49-2.65,2.5,2.64c1.35,1.42,3.9,3.75,7.13,6.69,5.11,4.65,12.1,11.02,19.31,18.37l2.06,2.1-1.76,2.35c-.6.8-1.23,1.68-1.88,2.61-3.21,4.56-6.6,10.02-9.82,15.8-7.8,13.99-18.04,35.98-22.59,61.25-1.33,7.39-2.08,14.61-2.23,21.47-1.37,60.74,8.86,86.67,20.12,105.65,1.76,2.96,3.64,5.91,5.76,9.01l1.45,2.12-1.62,1.99c-3.88,4.76-7.29,7.14-10.9,9.66-3.9,2.73-7.94,5.54-13.46,12.09l-2.31,2.73-2.63-2.42Z" fill="#9d2235"/>
        <path d="M268.78,62.65c3.67,3.87,14.75,13.14,26.48,25.1-.62.82-1.27,1.73-1.94,2.69-2.96,4.21-6.43,9.67-10.01,16.1-8.97,16.1-18.65,38.28-22.97,62.31-1.3,7.21-2.12,14.58-2.29,22-1.26,56.13,6.91,84.39,20.59,107.48,1.86,3.14,3.82,6.19,5.88,9.19-7.68,9.42-13.44,8.8-24.33,21.71-9.36-8.6-61.62-57.23-108.06-100.55-46.44,43.32-98.7,91.95-108.06,100.55-10.89-12.91-16.65-12.29-24.33-21.71,2.06-3.01,4.02-6.05,5.88-9.19,13.69-23.08,21.86-51.35,20.59-107.48-.17-7.42-.99-14.79-2.29-22-4.32-24.03-14-46.22-22.97-62.31-4.58-5.99-11.34-17.97-11.95-18.79,11.73-11.96,22.81-21.23,26.48-25.1.85.9,1.71,1.87,2.58,2.9,15.85,18.58,35.25,56.65,40.33,111.33,2.19,23.58,1.73,50.25-2.84,79.78,2.81-2.66,24.22-23.65,51.75-51.13,7.87-7.85,16.24-16.24,24.82-24.88,8.58,8.64,16.95,17.02,24.82,24.88,27.54,27.48,48.94,48.47,51.75,51.13-4.57-29.53-5.03-56.19-2.84-79.78,5.09-54.67,24.48-92.75,40.33-111.33.87-1.02,1.73-1.99,2.58-2.9M35.52,52.66l-5,5.27c-1.26,1.33-3.9,3.73-6.95,6.51-5.14,4.68-12.17,11.09-19.45,18.5l-4.12,4.2,3.41,4.56c.22.35.78,1.3,1.29,2.15,2.44,4.11,6.93,11.66,10.51,16.44,7.64,13.78,17.56,35.22,21.98,59.77,1.3,7.21,2.03,14.26,2.18,20.94,1.35,59.87-8.64,85.29-19.64,103.83-1.72,2.9-3.56,5.78-5.64,8.82l-2.9,4.23,3.24,3.97c4.19,5.13,7.95,7.76,11.6,10.31,3.72,2.6,7.57,5.29,12.8,11.49l4.61,5.46,5.27-4.83c8.77-8.05,57.26-53.17,103.42-96.23,46.18,43.07,94.67,88.19,103.42,96.23l5.27,4.83,4.61-5.46c5.23-6.2,9.08-8.89,12.8-11.49,3.64-2.54,7.41-5.17,11.6-10.31l3.24-3.97-2.9-4.23c-2.08-3.04-3.93-5.93-5.64-8.82-11-18.54-20.98-43.95-19.64-103.83.15-6.68.88-13.73,2.18-20.94,4.46-24.81,14.54-46.43,22.21-60.19,3.16-5.67,6.49-11.03,9.63-15.49.7-.99,1.29-1.82,1.82-2.53l3.52-4.71-4.12-4.2c-7.27-7.42-14.31-13.82-19.45-18.5-3.05-2.78-5.69-5.18-6.95-6.51l-5-5.27-4.97,5.3c-.89.94-1.83,2-2.8,3.14-6.65,7.8-16.45,21.77-25.35,44.03-8.63,21.58-14.21,45.5-16.59,71.11-1.85,19.88-1.72,40.58.38,61.75-9.44-9.29-22.76-22.48-37.63-37.32-8.41-8.4-16.75-16.76-24.79-24.85l-4.86-4.9-4.87,4.9c-8.02,8.08-16.37,16.44-24.79,24.85-14.87,14.84-28.19,28.02-37.63,37.32,2.1-21.17,2.23-41.86.38-61.75-2.38-25.61-7.96-49.53-16.59-71.11-4.91-12.29-13.3-29.9-25.35-44.03-.97-1.13-1.91-2.19-2.8-3.14l-4.97-5.3h0Z" fill="#eaaa00"/>
      </g>
      <g>
        <path d="M143.8,158.75c-9.25,0-16.98-.22-22.97-.67-11.34-.84-21.07-8.32-24.81-19.08-10.4-29.94-29.83-81.69-43.12-91.93l-3.32-2.55,3.16-2.75c6.17-5.37,14.06-12.83,21.02-19.41,3.43-3.24,6.67-6.31,9.43-8.86l5.93-5.49-.18,8.08c-.18,8.05,13.67,61.17,29.51,101.35,3.07,7.79,10.14,13.04,18.44,13.7,9.37.74,19.44,1.17,27.65,1.17.96,0,1.91,0,2.84-.02,9.6-.12,18.08-6.67,20.62-15.93l27.06-108.23,4.25,3.93c2.72,2.52,6.02,5.64,9.56,8.98,7.37,6.96,15.72,14.85,21.93,20.25l3.16,2.75-3.32,2.55c-12.84,9.89-27.93,58.12-37.92,90.04l-.33,1.07c-3.57,11.41-13.99,19.43-25.94,19.96-11.17.5-27.64,1.08-42.66,1.08h0Z" fill="#eaaa00"/>
        <path d="M216.99,14.59c8.39,7.77,22.31,21.24,31.56,29.29-13.85,10.66-29.01,59.49-39.43,92.8-3.15,10.08-12.27,17.09-22.82,17.56-11.84.52-27.87,1.08-42.52,1.08-8.37,0-16.29-.18-22.71-.66-9.97-.74-18.54-7.34-21.82-16.78-11.37-32.73-30.25-82.73-44.27-93.52,9.25-8.05,22.14-20.58,30.53-28.34-.21,9.34,14.26,63.39,29.75,102.68,3.52,8.94,11.79,15.1,21.36,15.86,8.35.66,18.73,1.18,27.93,1.18.97,0,1.93,0,2.87-.02,11.19-.14,20.92-7.66,23.88-18.45l25.68-102.68M92.73,0l-11.87,10.99c-2.78,2.57-6.03,5.65-9.47,8.9-6.93,6.56-14.79,13.99-20.9,19.3l-6.32,5.5,6.64,5.11c13.06,10.06,33.71,66.53,41.98,90.34,4.18,12.05,15.09,20.43,27.79,21.37,6.07.45,13.88.67,23.22.67,15.08,0,31.61-.59,42.82-1.09,13.38-.59,25.06-9.58,29.06-22.36l.34-1.08c5.12-16.36,11.48-36.71,18.16-53.95,9.16-23.65,15.16-31.75,18.57-34.38l6.64-5.11-6.32-5.5c-6.16-5.36-14.49-13.23-21.84-20.17-3.51-3.32-6.83-6.45-9.57-8.98l-8.5-7.87-2.81,11.24-25.66,102.6c-2.15,7.76-9.27,13.24-17.33,13.34-.91.01-1.84.02-2.78.02-8.13,0-18.12-.42-27.39-1.16-6.99-.56-12.94-4.98-15.53-11.54-15.71-39.84-29.45-92.19-29.28-100.02l.36-16.17h0Z" fill="#9d2235"/>
      </g>
    </g>
  </g>
</svg>