<?xml version="1.0" encoding="UTF-8"?>
<svg id="Layer_2" data-name="Layer 2" xmlns="http://www.w3.org/2000/svg" xmlns:xlink="http://www.w3.org/1999/xlink" viewBox="0 0 283.42 335.8">
  <defs>
    <clipPath id="clippath">
      <path d="M115.73,48.19c-.86-.26-1.49-.67-1.69-1.08l-.89,2.52c1.66.59,3.4,1.23,5.29,1.95.78.23,1.29.19,1.38-.12.19-.64-1.41-2.46-4.09-3.27Z" fill="#eaaa00"/>
    </clipPath>
    <clipPath id="clippath-1">
      <path d="M128.5,54.12l4.28-3.68c-.73.17-2.46.42-4.38-.35-2.44-.97-8.51-2.89-11.89-3.54-1.55-.3-2.21-.08-2.33.2l-.02.05c-.06.35.52.9,1.63,1.23,1.21.36,2.34.98,3.18,1.72.76.67,1.15,1.34,1.03,1.76,0,0,0,.02-.01.03h.05s-1.01,3.78-1.01,3.78c1.21.4,7.84,2.58,12.4,3.08l-2.98-4.22.06-.05Z" fill="#eaaa00"/>
    </clipPath>
    <clipPath id="clippath-2">
      <path d="M58.1,47.2c-.24.37-.83.75-1.63.99-2.68.81-4.28,2.63-4.09,3.27.09.3.59.34,1.38.11,1.74-.66,3.35-1.26,4.89-1.81h-.01s-.54-2.56-.54-2.56Z" fill="#9d2235"/>
    </clipPath>
    <clipPath id="clippath-3">
      <path d="M43.81,50.09c-1.92.77-3.65.52-4.38.35l4.34,3.73-2.98,4.22c4.74-.52,11.62-2.86,12.39-3.12l-.99-3.73h.04s0-.03-.01-.04c-.24-.8,1.55-2.68,4.21-3.48.98-.29,1.54-.75,1.62-1.1l-.06-.26c-.2-.24-.88-.4-2.29-.13-3.36.65-9.44,2.56-11.9,3.54Z" fill="#eaaa00"/>
    </clipPath>
  </defs>
  <g id="Layer_1-2" data-name="Layer 1">
    <g>
      <g>
        <path d="M283.4,117.7V0H0v217.77c0,22.66,7.75,44.53,21.83,61.59,5.01,6.07,9.62,10.14,14.5,12.79,14.45,7.99,28.31,12.65,41.19,13.85,5.1.48,9.38,1.19,13.06,2.19,12.81,3.48,25.57,8.35,30.34,11.59.1.07.2.13.29.19l8.29,6.02,13.51,9.81,12.65-10.89,4.85-4.18c2.4-2.07,5.08-3.76,7.97-5.02l.92-.4.05-.02c1.33-.58,2.52-1.1,3.62-1.61l7.55-2.69c4.47-1.59,9.1-2.82,13.76-3.65l8.22-1.47,16.61-2.56c9.55-.91,20.37-5.63,32.19-14.04.34-.23.68-.46,1-.7,2.25-1.61,4.48-3.73,7.22-6.86,15.34-17.52,23.79-40.17,23.79-63.78v-100.23h-.02ZM272.51,138.8v79.13c0,20.96-7.49,41.06-21.09,56.59-2.17,2.47-3.83,4.08-5.37,5.18-.27.19-.54.38-.82.56-10.45,7.45-19.64,11.55-27.34,12.2l-17.08,2.63-8.35,1.49c-5.25.94-10.47,2.32-15.5,4.11l-8.04,2.86c-1.11.52-2.39,1.08-3.84,1.72l-.06.03-.93.41c-3.88,1.7-7.48,3.97-10.71,6.75l-4.85,4.18-6.11,5.26-6.52-4.74-8.32-6.04c-.17-.12-.36-.25-.54-.37-6.73-4.56-21.73-9.86-33.61-13.09-4.29-1.17-9.17-1.99-14.9-2.53-14.18-1.32-27.92-7.55-36.96-12.56-3.58-1.94-7.28-5.26-11.33-10.16-12.47-15.1-19.33-34.51-19.33-54.64V10.92h261.57v117.7h.02v10.19Z" fill="#9d2235"/>
        <path d="M85.07,268.29s.07,0,.1,0v-54.44h-.1v54.44c-6.1,0-11.22-4.63-11.22-10.75-5-3.04-7.08-10.13-4.04-15.25,1.59-2.45,3.55-4.52,6.12-5.01v-13.79l-13.2-.49v.49c-1.09,2.56-2.56,4.63-5.12,6.1-5.13,3.05-12.21,1.58-15.25-4.03-6.02,0-10.39-4.27-11.11-9.66v8.57c0,12.97,4.28,25.68,12.56,35.66.59.72,1.2,1.4,1.81,2.05.92.97,1.86,1.86,2.81,2.64.95.77,1.92,1.44,2.89,1.95,9.29,5.16,22.42,10.76,34.07,10.31-.1,0-.21,0-.31,0v-8.81Z" fill="#9d2235"/>
        <path d="M85.07,159.9c-6.1,0-11.22,5.12-11.22,11.22-5.51,3.55-7.08,10.14-4.04,15.75,1.59,2.56,3.54,4.14,6.1,5.12l-.49,12.7h-13.18v.49c-.6-2.57-2.55-4.52-5.11-6.1-5.14-3.55-12.22-1.47-15.27,4.15-5.3,0-9.83,3.41-10.62,8.62h0v2h53.83v-53.95ZM76.07,190.86s-.01,0-.02,0l.02-.48v.48Z" fill="#9d2235"/>
        <path d="M139.03,213.84h-53.86v54.44c6.55-.05,11.62-5.16,11.62-11.23,5.13-3.05,7.09-10.13,3.56-15.25-.98-2.56-3.56-4.03-6.12-5v-13.8h13.8v.49c.98,2.57,2.45,4.64,5,6.1,5.62,3.05,12.21,1.1,15.76-4.03,6.1,0,10.74-5.12,10.74-11.23l-.02-.49h-.46Z" fill="#9d2235"/>
        <path d="M139.52,151.43h-54.46v8.47c6.6,0,11.23,4.63,11.23,10.74,5.62,3.55,7.08,10.13,4.04,15.75-1.47,2.57-3.56,4.03-6.12,5.13v13.18h13.18v.49c1.11-2.56,2.58-5,5.13-6.1,5.62-3.55,12.2-1.47,15.75,3.53,5.96,0,10.96,4.88,11.21,11.23h.04v-5.92h0v-56.5Z" fill="#9d2235"/>
        <path d="M272.49,21.1v-10.19H10.92v206.85c0,20.13,6.87,39.53,19.33,54.64,4.04,4.9,7.75,8.23,11.33,10.16,9.05,5,22.79,11.23,36.96,12.56,5.74.54,10.61,1.36,14.9,2.53,11.88,3.23,26.88,8.53,33.61,13.09.19.13.37.25.54.37l8.32,6.04,6.52,4.74,6.11-5.26,4.85-4.18c3.22-2.77,6.82-5.04,10.71-6.75l.93-.41.06-.03c1.45-.63,2.73-1.19,3.84-1.72l8.04-2.86c5.03-1.79,10.25-3.17,15.5-4.11l8.35-1.49,17.08-2.63c7.7-.65,16.9-4.75,27.34-12.2.28-.18.55-.37.82-.56,1.55-1.11,3.21-2.71,5.37-5.18,13.6-15.53,21.09-35.63,21.09-56.59v-89.31h-.02V21.1ZM262.32,217.93c0,18.32-6.5,36.1-18.57,49.88-1.48,1.69-2.75,2.98-3.65,3.62-.2.15-.41.28-.61.41-5.41,3.88-15.08,9.99-22.77,10.49l-17.59,2.71-8.47,1.51c-5.82,1.04-11.55,2.56-17.12,4.54l-8.53,3.04c-1.06.51-2.43,1.11-4.07,1.83-1.22.53-3.3,1.44-5.2,2.33-2.2,1.03-4.25,2.34-6.09,3.93l-7.77,6.69-8.32-6.04c-.26-.19-.53-.37-.81-.56-8.25-5.59-24.55-11.2-36.65-14.49-5.44-1.48-11.01-2.32-16.63-2.84-12.26-1.14-24.43-6.59-33.02-11.35-2.61-1.4-5.49-4.24-8.36-7.71-11.15-13.51-17-30.63-17-48.15V21.1h241.2v117.7h.02v79.13Z" fill="#eaaa00"/>
        <path d="M262.3,21.1H21.1v196.66c0,17.52,5.85,34.64,17,48.15,2.87,3.47,5.75,6.31,8.36,7.71,8.59,4.76,20.76,10.21,33.02,11.35,5.61.52,11.19,1.36,16.63,2.84,12.11,3.29,28.41,8.89,36.65,14.49.27.19.55.37.81.56l8.32,6.04,7.77-6.69c1.84-1.58,3.89-2.9,6.09-3.93,1.9-.89,3.98-1.8,5.2-2.33,1.64-.72,3.01-1.32,4.07-1.83l8.53-3.04c5.57-1.98,11.3-3.5,17.12-4.54l8.47-1.51,17.59-2.71c7.69-.5,17.35-6.61,22.77-10.49.2-.13.41-.27.61-.41.91-.64,2.17-1.93,3.65-3.62,12.07-13.78,18.57-31.56,18.57-49.88v-79.13h-.02V21.1ZM139.52,213.85v82.88c-8.4-6.1-23.82-11.72-36.47-15.4-.63-.18-1.26-.36-1.88-.54-6.79-1.92-12.6-3.23-15.8-3.69-11.65.45-24.78-5.16-34.07-10.31-.97-.52-1.93-1.18-2.89-1.95-.95-.77-1.89-1.66-2.81-2.64-.61-.65-1.22-1.34-1.81-2.05-8.29-9.98-12.56-22.69-12.56-35.66v-8.57h0v-4.06h0v-60.42h53.83s.31,0,.31,0h54.14v56.5h0v5.92ZM234.02,79.02l-18.28,18.27v50.44h-18.15v-32.29l-18.28,18.28v14.01h-14.01l14.01-14.01v-45.86l-18.14,17.83v42.04h-18.28v-23.87l18.28-18.16V33.29h18.14v54.58l18.28-18.15v-36.43h18.15v18.15l18.28-18.15v45.73ZM252.17,147.73h-18.14v-68.71l18.14-18.16v86.88Z"/>
        <polygon points="234.02 147.73 252.17 147.73 252.17 60.86 234.02 79.02 234.02 147.73" fill="#eaaa00"/>
        <polygon points="197.59 147.73 215.74 147.73 215.74 147.73 215.74 97.29 197.59 115.45 197.59 147.73" fill="#eaaa00"/>
        <polygon points="215.74 33.29 215.74 33.29 197.59 33.29 197.59 69.72 215.74 51.44 215.74 33.29" fill="#eaaa00"/>
        <polygon points="161.16 33.29 161.16 105.7 179.31 87.87 179.31 33.29 161.16 33.29" fill="#eaaa00"/>
        <polygon points="179.31 147.73 179.31 133.73 165.3 147.73 179.31 147.73" fill="#eaaa00"/>
        <polygon points="215.74 97.29 234.02 79.02 234.02 33.29 215.74 51.44 215.74 97.29" fill="#eaaa00"/>
        <polygon points="197.59 69.72 197.59 115.45 215.74 97.29 215.74 51.44 197.59 69.72"/>
        <polygon points="179.31 87.87 179.31 133.73 197.59 115.45 197.59 69.72 179.31 87.87" fill="#eaaa00"/>
        <polygon points="142.88 147.73 161.16 147.73 161.16 105.7 142.88 123.86 142.88 147.73" fill="#eaaa00"/>
        <polygon points="85.17 213.84 85.17 213.84 85.17 268.29 85.17 268.29 85.17 266.75 85.17 213.84"/>
        <path d="M76.07,190.86v-.48l-.02.48s.01,0,.02,0Z" fill="#fffed7"/>
        <path d="M139.51,214.33c0,6.11-4.63,11.23-10.74,11.23-3.55,5.13-10.14,7.08-15.76,4.03-2.55-1.47-4.02-3.53-5-6.1v-.49h-13.8v13.8c2.56.97,5.14,2.44,6.12,5,3.53,5.12,1.57,12.2-3.56,15.25,0,6.07-5.07,11.18-11.62,11.23h0s-.07,0-.1,0v8.81c.1,0,.21,0,.31,0,3.2.46,9.01,1.77,15.8,3.69.62.17,1.24.35,1.88.54,12.65,3.68,28.07,9.3,36.47,15.4v-82.88h-.04l.02.49Z" fill="#fffed7"/>
        <path d="M42.35,225.56c3.04,5.62,10.12,7.08,15.25,4.03,2.56-1.47,4.03-3.54,5.12-6.1v-.49l13.2.49v13.79c-2.58.5-4.53,2.57-6.12,5.01-3.04,5.12-.96,12.21,4.04,15.25,0,6.11,5.12,10.75,11.22,10.75v-54.44h0s.1,0,.1,0h53.86s.46,0,.46,0c-.25-6.35-5.25-11.23-11.21-11.23-3.55-5-10.13-7.08-15.75-3.53-2.56,1.1-4.02,3.54-5.13,6.1v-.49h-13.18v-13.18c2.57-1.1,4.66-2.57,6.12-5.13,3.04-5.62,1.57-12.2-4.04-15.75,0-6.1-4.64-10.74-11.23-10.74v53.95H31.24v2.06h0c.72,5.39,5.1,9.66,11.11,9.66Z" fill="#fffed7"/>
        <path d="M41.86,203.23c3.05-5.62,10.13-7.7,15.27-4.15,2.56,1.58,4.51,3.53,5.11,6.1v-.49h13.18l.49-12.7c-2.57-.98-4.51-2.56-6.1-5.12-3.04-5.6-1.47-12.2,4.04-15.75,0-6.1,5.12-11.22,11.22-11.22v-8.47H31.24s0,56.5,0,56.5v3.92c.79-5.21,5.32-8.62,10.62-8.62Z" fill="#fffed7"/>
      </g>
      <g>
        <g>
          <path d="M105.3,58.61c-1.26-.03-1.7-.52-2.4-1.64-1.45-2.3-4.62-4.88-6.8-5.52-.58-.17-1.16-.32-1.32-.35l-3.31-.59,3.26-1.38c.51-.22,1.13-.33,1.85-.33,1.88,0,4.32.78,6.54,2.09.79.47,6,3.94,5.89,5.6-.08,1.31-2.39,2.11-3.62,2.11h-.07Z" fill="#9d2235"/>
          <path d="M96.56,49.68c1.69,0,3.96.71,6.09,1.97,2.46,1.45,5.5,4.12,5.46,4.78-.04.55-1.62,1.29-2.75,1.29-.02,0-.04,0-.05,0-.8-.02-1.02-.18-1.68-1.23-1.57-2.5-4.9-5.19-7.29-5.89-.56-.17-1.2-.33-1.42-.37l-.39-.07.53-.22c.41-.17.92-.26,1.5-.26M96.56,47.93h0c-.83,0-1.57.13-2.19.4l-.53.22-5.46,2.31,5.83,1.04.39.07c.11.02.64.15,1.23.33,1.97.58,4.97,3.03,6.3,5.14.74,1.18,1.4,2.01,3.13,2.05h.09c1.55,0,4.38-.98,4.5-2.93.17-2.51-6.25-6.38-6.32-6.41-2.38-1.41-4.93-2.21-6.99-2.21h0Z" fill="#eaaa00"/>
        </g>
        <g>
          <path d="M33.3,114.77c-.03-2.6,1.04-6.03,2.39-7.66.16-.2.3-.42.33-.48.57-1.57,6.58-2.59,6.64-2.6.79-.13,1.97-.36,2.64-.51,2.01-.47,3.1-.62,4.5-.62.25,0,.51,0,.78.01.38.01.68.02.92.02.28,0,.41-.01.47-.02.37-.34.93-.49,1.34-.49.95,0,4.96.5,7.07.85l2.31.39,1.79,1.41c.39.31,1.67,1.33,1.84,1.5l.41.42-.22.56c-.25.61-.89.61-1.51.61-.35,0-.82-.01-1.42-.04-10.35-.45-11.2-.51-11.82-1.25-.18.03-.44.09-.69.14-.72.15-1.76.29-2.36.32-.54.03-1.12.17-1.39.29-1.43.64-7,1.8-8.89,1.84h-.44s-.69,1.26-.69,1.26c-1.06,1.92-1.26,2.38-1.83,4.09l-2.09,6.34-.07-6.38Z" fill="#9d2235"/>
          <path d="M53.3,103.29c.83,0,4.73.47,6.92.84l2.09.35,1.61,1.27c.88.7,1.68,1.34,1.76,1.43.06.07-.16.1-.7.1-.34,0-.8-.01-1.38-.04-9.96-.44-10.86-.52-11.26-1.04-.12-.16-.19-.24-.4-.24-.19,0-.49.06-1.06.18-.67.14-1.67.28-2.22.31-.59.03-1.3.18-1.71.37-1.32.59-6.79,1.72-8.55,1.77l-.94.02-.93,1.7c-1.09,1.97-1.31,2.47-1.89,4.24l-.43,1.31v-1.09c-.04-2.39.96-5.62,2.18-7.09.2-.25.41-.57.47-.72.21-.57,3.21-1.61,5.96-2.05.81-.13,2.02-.37,2.7-.53,1.89-.44,2.95-.6,4.3-.6.24,0,.48,0,.75.01.4.01.71.02.95.02.68,0,.87-.06,1.05-.24.15-.15.49-.27.76-.27M53.3,101.53c-.58,0-1.19.19-1.66.51-.04,0-.09,0-.15,0-.23,0-.52,0-.89-.02-.28,0-.55-.01-.81-.01-1.46,0-2.64.16-4.7.64-.64.15-1.82.38-2.58.5-1.51.25-6.45,1.19-7.29,3.1-.03.06-.12.19-.21.3-1.48,1.8-2.62,5.41-2.59,8.23v1.09s.12,10.61.12,10.61l3.32-10.08.43-1.31c.55-1.66.73-2.06,1.76-3.94l.45-.81c1.92-.07,7.54-1.19,9.16-1.92.17-.08.65-.2,1.08-.22.64-.03,1.74-.18,2.5-.34.07-.02.15-.03.23-.05.94.69,2.92.78,12.06,1.18.62.03,1.1.04,1.46.04.69,0,1.85,0,2.33-1.15l.45-1.08-.83-.86c-.15-.15-.8-.68-1.92-1.57l-1.61-1.27-.36-.28-.45-.07-2.09-.35c-2.16-.36-6.2-.86-7.21-.86h0Z" fill="#eaaa00"/>
        </g>
        <g>
          <path d="M124.77,127.79c.67-1.38,1.06-2.56,1.38-4.21.09-.49.19-1,.26-1.32-1.45-.95-5.51-6.29-6.64-8.38-.21-.39-.41-.74-.56-1-.67.31-1.76.37-4.03.37-.91,0-2.05-.01-3.46-.03-4.85-.07-5.63-.12-6.93-.42-1.59-.38-3.23-.76-3.12-2.22.08-1.08.99-2.11,2.12-2.4.47-.12,2.39-.37,3.95-.54,2.13-.23,4.08-.35,5.8-.35,2.33,0,4.26.21,5.74.64.53.15,1.32.38,1.43,1.22.09.06.26.15.56.3,1.35.67,3.6,2.79,4.21,3.99.11.22.48.69.78.98.96.89,2.4,2.84,3.09,4.16.57,1.09.64,1.41.53,2.45-.36,3.3-1.5,6.05-3.31,7.96l-4.95,5.22,3.15-6.41Z" fill="#9d2235"/>
          <path d="M113.54,108.16c2.25,0,4.1.2,5.5.6.68.19.81.29.81.59s.2.46,1.04.87c1.18.58,3.29,2.57,3.81,3.6.17.33.6.88.97,1.22.89.83,2.27,2.68,2.91,3.93.49.95.53,1.09.43,1.95-.34,3.13-1.39,5.67-3.07,7.44l-.98,1.04.6-1.23c.71-1.45,1.12-2.69,1.45-4.43.13-.7.27-1.42.31-1.61.05-.26-.04-.4-.39-.58-1-.52-5.13-5.74-6.41-8.1-.39-.72-.8-1.44-.92-1.59-.1-.13-.15-.2-.22-.2s-.15.07-.3.23c-.36.36-1.02.48-3.93.48-.91,0-2.04-.01-3.44-.03-4.75-.07-5.52-.11-6.74-.4-1.94-.46-2.49-.75-2.45-1.3.05-.7.7-1.42,1.46-1.61.37-.09,2.09-.32,3.82-.51,2.11-.23,4.02-.34,5.71-.34M113.54,106.4c-1.75,0-3.74.12-5.9.35-1.14.12-3.45.4-4.07.56-1.51.39-2.67,1.73-2.78,3.19-.16,2.2,2.13,2.74,3.8,3.14,1.44.34,2.4.38,7.12.45,1.42.02,2.55.03,3.47.03,1.67,0,2.79-.03,3.62-.2.06.12.13.24.2.37,1.04,1.92,4.53,6.64,6.45,8.31-.05.25-.1.53-.15.8-.3,1.59-.66,2.67-1.3,3.99l-.6,1.23-5.07,10.34,7.93-8.35.98-1.04c1.94-2.04,3.16-4.97,3.54-8.46.14-1.28,0-1.78-.62-2.96-.74-1.42-2.24-3.43-3.27-4.4-.25-.24-.54-.62-.6-.73-.7-1.37-3.07-3.62-4.6-4.38-.07-.04-.14-.07-.19-.1-.38-1.03-1.48-1.34-1.95-1.48-1.56-.45-3.57-.67-5.98-.67h0Z" fill="#eaaa00"/>
        </g>
        <g>
          <path d="M47.97,130.32c-.37,0-.59-.13-1.37-.96-2-2.15-3.04-4.46-3.46-7.72l-.21-1.67.57-1.21c.55-1.17,2.11-3.31,3.14-4.31.18-.18.32-.35.38-.44.27-1.45,3.1-3.89,4.53-4.55.13-.06.22-.11.29-.15.03-.19.1-.37.21-.54.37-.55,1.2-1.11,4.74-1.43.64-.06,1.3-.09,2.02-.09,1.75,0,3.88.16,7.13.55,2.93.35,3.58.47,4.42,1.99l.73,1.31-.91.73c-.71.58-3.21,1.1-4.3,1.27-.9.13-4.58.18-6.83.18-1.11,0-3.76-.01-4.52-.11-.21-.03-.6-.1-.97-.27-.12.2-.7,1.25-.7,1.25-1.34,2.39-4.81,6.93-6.3,8.11.03.22.09.54.12.74.29,1.67.85,3.42,1.54,4.79.63,1.25.89,1.76.37,2.26l-.26.25h-.36Z" fill="#9d2235"/>
          <path d="M58.81,108.13c1.73,0,3.88.17,7.03.54,2.92.34,3.14.44,3.76,1.54l.37.67-.33.27c-.39.32-2.28.84-3.88,1.08-.73.11-3.91.17-6.7.17-2.03,0-3.87-.03-4.4-.11-.47-.07-.89-.23-1.07-.41-.1-.11-.15-.2-.22-.2-.15,0-.37.43-1.27,2.04-1.43,2.55-5.19,7.35-6.25,7.97-.24.14-.24.25-.03,1.46.31,1.75.9,3.6,1.62,5.04.33.65.57,1.21.54,1.23,0,0,0,0,0,0-.05,0-.37-.3-.73-.69-1.86-2-2.83-4.17-3.23-7.23l-.18-1.41.46-.98c.51-1.08,1.99-3.12,2.96-4.05.35-.33.63-.72.63-.86,0-.8,2.49-3.25,4.04-3.97.64-.3.86-.48.81-.66-.2-.64,1.22-1.11,4.14-1.38.6-.05,1.24-.08,1.94-.08M58.81,106.38s0,0,0,0c-.74,0-1.43.03-2.1.09-3.68.33-4.82.97-5.39,1.82-.09.13-.16.27-.22.41-1.23.61-4.31,2.96-4.89,4.92-.05.06-.11.13-.19.2-1.11,1.08-2.73,3.3-3.33,4.57l-.46.98-.22.46.07.51.18,1.41c.44,3.42,1.58,5.95,3.68,8.21.72.77,1.2,1.25,2.02,1.25h.73l.52-.52c.95-.95.43-1.97-.22-3.27-.64-1.28-1.19-2.98-1.46-4.55-.01-.06-.03-.16-.04-.26,1.82-1.7,4.95-5.92,6.13-8.02l.3-.54s.03-.06.05-.09c.16.04.31.06.44.08.74.1,2.93.12,4.64.12,2.11,0,5.95-.04,6.96-.19.04,0,3.61-.55,4.73-1.46l.33-.27,1.15-.93-.72-1.29-.37-.67c-1.09-1.96-2.18-2.09-5.09-2.43-3.29-.39-5.45-.55-7.23-.55h0Z" fill="#eaaa00"/>
        </g>
        <g>
          <path d="M112.52,101.03c1.6-1.52,5.24-3.95,6.53-3.95.11,0,.22.01.32.04.77-.19,3.89-1.86,4.9-2.8,1.15-1.07,4.28-3.45,5.33-4.05.12-.07.68-.38,1.18-.48.16-.19.47-.66.92-1.41,1.08-1.81,1.39-2.42,2.15-4.37l2.53-6.5-.47,6.98c-.17,2.55-1.13,5.3-2.5,7.16-.12.17-.22.31-.28.4-.03.24-.13.47-.24.68-.53,1.02-5.53,5.06-6.83,5.64-.21.09-.67.38-.97.62-.9.71-2.5,1.52-3.56,1.79-.31.08-.66.28-.74.36-.39.39-1.06.7-2.24,1.03-1.81.5-4.66,1.15-5.66,1.29l-3.4.47,3.04-2.9Z" fill="#9d2235"/>
          <path d="M135.11,83.18l-.09,1.26c-.16,2.37-1.07,4.98-2.33,6.7-.3.41-.51.75-.46.75s0,.2-.14.44c-.4.78-5.19,4.69-6.41,5.24-.3.13-.82.46-1.16.73-.8.63-2.29,1.39-3.24,1.63-.42.11-.93.37-1.14.59-.26.27-.85.52-1.85.8-1.76.49-4.59,1.13-5.55,1.27l-.69.1,1.06-1.01c1.73-1.65,5.06-3.71,5.92-3.71.06,0,.11.01.15.03.02.02.06.02.11.02.76,0,4.42-1.98,5.57-3.05,1.09-1.01,4.18-3.36,5.16-3.93.37-.21.82-.39,1-.39.25,0,.57-.41,1.41-1.81,1.11-1.86,1.43-2.5,2.21-4.51l.45-1.16M137.65,71.83l-4.17,10.71-.45,1.16c-.75,1.92-1.02,2.47-2.08,4.24-.35.58-.56.91-.69,1.09-.46.14-.88.36-1.09.48-1.11.63-4.29,3.05-5.49,4.17-.83.78-3.44,2.2-4.37,2.54-.08,0-.16-.01-.25-.01-1.77,0-5.64,2.77-7.14,4.19l-1.07,1.01-3.95,3.77,5.41-.75.69-.1c1.04-.15,3.9-.8,5.77-1.31,1.32-.36,2.07-.72,2.58-1.21.08-.05.26-.14.38-.17,1.19-.31,2.9-1.17,3.89-1.96.25-.2.65-.44.78-.5,1.37-.62,6.58-4.74,7.25-6.04.08-.15.22-.42.29-.75.04-.06.09-.13.15-.22,1.46-1.99,2.48-4.91,2.67-7.62l.09-1.26.78-11.47h0Z" fill="#eaaa00"/>
        </g>
        <g>
          <path d="M56.79,97.37c-.07,0-.22-.02-1.17-.32-.28-.09-2.67-.89-3.25-1.77-.06-.05-.21-.15-.36-.21-1.42-.57-2.7-2.88-3.23-4.86-.14-.51-.38-1.41-.12-2.07-.75-1.15-1.68-3.62-1.92-4.42-.23-.75-.35-1.6-.33-2.27.02-.49.01-1.71,0-2.66-.02-1.05.05-2.34.15-2.94,0-.04.7-3.57,1.47-4.05l.21-.13h.28s.39,0,.39,0l.28.3c.34.38.31.69.12,2.71-.03.31,0,1.71.1,3.21.14,2.3.16,2.32.36,2.53,1.08,1.14,3.45,6.54,3.53,8.02.01.26.14.74.26.97.2.38.48,1.1.65,1.64.02.05.03.1.04.14.85.11,2.44.53,3.18.83.38.15.66.46.8.85.18.53.09,1.18-.25,1.78-.03.08-.11.48-.11.92,0,.68,0,1.83-1,1.83h-.07Z" fill="#9d2235"/>
          <path d="M48.51,72.54c.09,0,.07.41-.08,2.04-.04.4,0,1.91.09,3.35.16,2.56.17,2.63.6,3.08.94,1,3.22,6.16,3.29,7.46.02.39.18.98.35,1.32.17.34.44,1.01.59,1.5.16.51.29.76.39.76.02,0,.03,0,.05-.02.02-.01.05-.02.11-.02.49,0,2.34.45,3.18.79.41.17.46.78.12,1.38-.12.22-.22.81-.23,1.35,0,.53-.06.95-.12.95h0c-.06,0-.5-.13-.96-.28-1.3-.42-2.6-1.09-2.78-1.42-.09-.17-.43-.41-.77-.54-.98-.39-2.18-2.28-2.71-4.27-.29-1.07-.27-1.59.04-1.71.23-.09.22-.12-.06-.32-.36-.25-1.55-2.88-2.04-4.48-.2-.66-.31-1.41-.29-1.99.02-.51.01-1.73,0-2.71s.04-2.23.14-2.77c.21-1.17.88-3.34,1.06-3.46.01,0,.02-.01.03-.01M48.51,70.79h-.5l-.45.27c-1.04.64-1.65,3.46-1.87,4.64-.14.75-.19,2.17-.17,3.12.02.94.02,2.14,0,2.61-.02.76.11,1.72.37,2.55.01.03.87,2.68,1.83,4.31-.14.84.1,1.73.21,2.15.57,2.13,1.98,4.74,3.75,5.45.02,0,.04.02.07.03.76.94,2.54,1.63,3.6,1.97,1.05.34,1.22.35,1.38.36h.06s.06,0,.06,0h0c1.24,0,1.87-.91,1.88-2.7,0-.26.04-.49.06-.61.41-.79.5-1.65.25-2.38-.22-.64-.68-1.13-1.3-1.38-.62-.25-1.86-.61-2.84-.79-.18-.5-.4-1.05-.58-1.39-.06-.12-.16-.47-.16-.61-.09-1.71-2.48-7.16-3.74-8.54-.05-.34-.1-1.16-.15-2.02-.09-1.48-.12-2.81-.1-3.08.21-2.19.26-2.72-.35-3.38l-.52-.57h-.8Z" fill="#eaaa00"/>
        </g>
        <g>
          <path d="M138,116.8c-.73,0-.89-.56-1.28-1.91-.16-.58-.81-2.12-1.51-3.51l-.97-1.92h-.51c-1.15-.04-5.34-.81-7.1-1.28-.57-.15-1.31-.42-1.7-.61-.2-.1-.68-.23-1.34-.26-.65-.03-1.7-.16-2.38-.29-.24-.05-.56-.11-.73-.13-.74.62-1.9.78-6.38.96-1.95.08-4.51.19-5.7.25-.57.03-1.03.04-1.38.04-.61,0-1.25,0-1.49-.62l-.22-.55.44-.43c.35-.33,3.33-2.56,3.75-2.77.82-.42,7.88-1.37,9.27-1.37.48,0,1.07.17,1.43.42.03.02.11.08.75.08.2,0,.44,0,.72-.01.11,0,.23,0,.35,0,1.57,0,4.36.3,5.34.79.09.04.38.12.55.12,1.07,0,3.98.67,5.67,1.23,1.65.55,1.95.67,2.7,1.65.85,1.13,1.74,3.05,2.16,4.68.01.04.86,4.35.28,5.09l-.26.34h-.44Z" fill="#9d2235"/>
          <path d="M118.77,103.29c.3,0,.72.12.92.27.24.17.51.23,1.25.23.21,0,.45,0,.75-.01.11,0,.22,0,.33,0,1.73,0,4.24.35,4.94.7.23.11.65.21.95.21.89,0,3.62.6,5.39,1.19,1.6.53,1.69.58,2.27,1.35.78,1.03,1.62,2.87,2.01,4.37.28,1.08.6,4.35.43,4.35-.04,0-.24-.57-.44-1.27-.2-.7-.91-2.35-1.57-3.66l-1.21-2.39-1.04-.02c-1.01-.02-5.05-.75-6.89-1.24-.51-.14-1.2-.38-1.53-.55-.38-.19-1.01-.32-1.7-.35-.6-.03-1.61-.15-2.24-.28-.51-.1-.8-.15-.99-.15-.23,0-.32.07-.49.23-.45.42-1.64.57-5.84.74-1.95.08-4.52.19-5.7.25-.55.03-1,.04-1.33.04-.49,0-.73-.03-.67-.08.33-.31,3.25-2.48,3.54-2.63.58-.3,7.34-1.27,8.86-1.27M118.77,101.53c-1.22,0-8.59.91-9.67,1.47-.52.27-3.59,2.58-3.94,2.91l-.87.82.43,1.13c.46,1.17,1.67,1.17,2.31,1.17.37,0,.85-.01,1.42-.04,1.18-.06,3.75-.17,5.69-.25,4.12-.17,5.64-.3,6.58-.91.12.02.24.05.33.06.72.14,1.82.28,2.51.31.58.03.92.13.99.17.5.25,1.33.53,1.86.67,1.83.49,6.04,1.27,7.29,1.3l.73,1.45c.67,1.32,1.3,2.83,1.45,3.35.39,1.37.73,2.54,2.13,2.54h.86l.54-.69c.96-1.23-.11-5.81-.12-5.85-.44-1.72-1.39-3.78-2.31-4.99-.89-1.18-1.38-1.38-3.12-1.96-1.78-.59-4.77-1.28-5.94-1.28-.04,0-.14-.02-.19-.04-1.17-.57-4.05-.87-5.69-.87-.13,0-.26,0-.38,0-.27,0-.5.01-.7.01s-.32,0-.39-.01c-.5-.3-1.18-.49-1.78-.49h0Z" fill="#eaaa00"/>
        </g>
        <g>
          <path d="M59.57,89.38c-.44,0-.77-.22-1.28-.56l-.27-.18c-2.07-1.36-4.51-4.19-5.33-6.17l-.89-2.14c-1.39-1.94-1.65-5.21-.46-7.73.26-.54.89-1.43,1.44-2.02.02-.02,2.21-2.31,3.3-2.31h.63l.28.65c-.02-.07-.05-.11-.05-.11.05.08.31.43.7.89,1.82,2.12,2.58,4.43,2.08,6.32-.02.08-.04.14-.05.2.21.12.51.33,1.01.69l.24.18,1.29-1.67.73,2.5c.14.49.28.8.37.99.18-.21.45-.44.84-.44.89,0,1.01.87,1.12,1.63.02.14.2.63.44,1,.44.69.94,1.46.21,1.99-.03.02-.52.37-1.08.76-1.21.85-2.95,2.71-3.58,3.81l-.19.34c-.44.8-.76,1.37-1.52,1.37Z" fill="#9d2235"/>
          <path d="M56.08,69.15s.07.01.08.05c.04.11.41.59.82,1.08,1.63,1.9,2.32,3.91,1.9,5.52-.19.71-.19.91-.03,1.01.11.07.24.13.3.13.05,0,.52.31,1.03.69l.93.68.76-.98.25.85c.35,1.21.76,1.82,1.19,1.82.19,0,.39-.13.59-.38.13-.17.22-.26.29-.26.11,0,.16.26.24.87.05.33.3.93.57,1.35.27.42.46.78.43.81-.03.02-.51.36-1.07.75-1.31.92-3.16,2.89-3.84,4.1-.51.89-.67,1.26-.94,1.26-.21,0-.5-.22-1.06-.59-1.91-1.26-4.25-3.96-5-5.78l-.24-.58.39.1s.09.02.14.02c.28,0,.6-.26,1.6-1.22.74-.72,1.52-1.42,1.73-1.56.21-.14.29-.26.19-.26-.42,0-1.45.66-2.39,1.54l-.99.92-.7-.54c-1.8-1.37-2.32-4.99-1.09-7.58.22-.46.8-1.27,1.29-1.79.94-1.01,2.31-2.03,2.66-2.03M56.08,67.39c-1.45,0-3.54,2.15-3.94,2.59-.54.57-1.25,1.53-1.59,2.24-1.33,2.8-1.05,6.34.49,8.54l.6,1.46.24.58c.88,2.12,3.47,5.13,5.66,6.57l.27.18c.54.36,1.05.71,1.76.71,1.27,0,1.81-.97,2.29-1.82l.19-.33c.56-.98,2.23-2.76,3.32-3.53.57-.4,1.06-.74,1.09-.77,1.41-1.02.44-2.53.02-3.18-.16-.25-.29-.59-.32-.69-.09-.67-.33-2.35-1.98-2.35-.14,0-.27.01-.39.04l-.24-.8-.97-3.3-1.82,2.35s-.06-.04-.09-.06c.36-2.08-.48-4.49-2.36-6.68-.29-.34-.51-.63-.6-.75-.31-.6-.94-.99-1.64-.99h0Z" fill="#eaaa00"/>
        </g>
        <g>
          <path d="M59.66,103.52c-.43,0-1.11-.15-2.75-.53-4.25-.98-5.12-1.31-5.59-1.81-.06-.05-.43-.25-.83-.37-1.14-.35-2.67-1.22-3.42-1.94-.12-.12-.29-.21-.34-.24-.96-.14-3.55-2.23-4.61-3.12-2.48-2.08-3.05-2.79-3.13-3.39-.07-.14-.25-.47-.53-.88-1.29-1.88-2.27-5.08-2.24-7.29l.08-5.75,2.01,5.76c.47,1.34,1.5,3.42,2.44,4.96.33.54.5.77.59.88,1.51.29,5.64,3.76,6.71,4.72.58.51,1.29,1,1.78,1.2.57.24,1.45.7,2.02,1.04.57.35.73.38.77.38.08-.02.18-.03.29-.03,1.43,0,4.79,2.1,6.72,3.9.81.75,1.29,1.21,1.03,1.89-.07.19-.32.62-1.02.62Z" fill="#9d2235"/>
          <path d="M37.12,83.18l.38,1.07c.49,1.41,1.54,3.54,2.53,5.13.63,1.02.86,1.27,1.16,1.27.63,0,3.78,2.25,6.31,4.51.65.58,1.44,1.11,2.02,1.36.52.22,1.38.66,1.9.98.6.36.93.51,1.22.51.06,0,.11,0,.17-.02.04,0,.08-.01.13-.01,1.05,0,4.2,1.87,6.12,3.67.74.69,1.05.99.61.99-.34,0-1.14-.18-2.55-.51-3.56-.82-4.81-1.2-5.15-1.55-.17-.18-.71-.45-1.21-.61-1-.31-2.42-1.11-3.07-1.73-.23-.22-.57-.43-.75-.45-.53-.08-2.28-1.3-4.25-2.94-1.98-1.66-2.83-2.52-2.83-2.89,0-.12-.3-.67-.68-1.21-1.18-1.72-2.12-4.76-2.09-6.78v-.79M35.5,73.22l-.14,9.93v.79c-.05,2.36,1.01,5.78,2.38,7.79.2.29.34.53.41.66.19.89,1.02,1.79,3.41,3.79,2.25,1.89,3.88,2.99,4.85,3.27.02.02.05.03.06.05.85.81,2.5,1.75,3.76,2.14.23.07.45.18.55.24.68.64,1.85,1.02,5.93,1.96,1.78.41,2.42.55,2.94.55,1.01,0,1.61-.61,1.83-1.18.49-1.24-.39-2.06-1.24-2.85-1.81-1.69-5.46-4.14-7.32-4.14h0c-.06,0-.13,0-.19,0-.08-.04-.21-.11-.41-.23-.6-.36-1.53-.84-2.13-1.1-.33-.14-.95-.53-1.54-1.05-.51-.45-4.56-4.03-6.76-4.81-.08-.11-.2-.3-.38-.59-.92-1.48-1.91-3.49-2.36-4.78l-.38-1.07-3.27-9.38h0Z" fill="#eaaa00"/>
        </g>
        <g>
          <path d="M110.22,136.83c-.65,0-1.19-.11-1.71-.63-.61-.61-.93-1.54-.91-2.67.04-2.14,1.24-4.66,2.99-6.28l.23-.21c-.84-1.46-.51-5.06.37-7.46-.63-.1-1.58-.22-2.71-.32-2.33-.2-4.32-.82-5.61-1.74-.13-.1-.24-.16-.31-.21-.08.02-.17.03-.26.03-.73,0-1.62-.68-2.24-1.25-.71-.65-1.75-1.1-2.78-1.19-.8-.07-1.42-.26-1.83-.55l-.17.1c-1.02.56-2.15.77-5.5.98-1.11.07-2.29.11-3.5.11-3,0-7.14-.24-8.95-.93-.11-.04-.4-.15-.48-.16.02,0-.02.03-.09.07-.41.2-1.17.37-1.72.43-1.05.12-1.63.38-2.37,1.07-1.41,1.32-2.06,1.32-2.27,1.32-.09,0-.17,0-.25-.03-1.24,1.08-4.03,1.94-6.6,2.03-.88.03-1.62.14-1.77.19-.04.01-.08.03-.12.04.04.1.06.2.08.29.02.09.09.35.17.54.35.85.58,2.46.58,4.1,0,1.25-.06,1.82-.42,2.5l-.03.06.47.5c1.59,1.7,2.74,4.27,2.74,6.12,0,1.02-.49,2.36-1.41,2.84-.4.21-.82.31-1.26.31-.58,0-1.21-.17-1.96-.55-2.65-1.32-4.97-5.23-4.98-8.36,0-.22,0-.55.11-.89-.54-.41-.57-.89-.57-1.74,0-.99.29-2.75.96-3.75-.19-.38-.19-.87-.19-1.35,0-1.63.72-3.71,1.9-4.45,0-.02,0-.05,0-.07-.08-.7-.08-1.31.74-1.76.35-.19.82-.29,1.39-.29.66,0,1.36.13,1.94.36.27-.53.73-1.01,1.27-1.29.82-.42,2.92-.88,4-.88.42,0,1.18.08,1.74.17.3.05.62.1.85.14.17-.25.36-.68.36-.86,0-.29.08-.61.24-.87-2.19-1.11-6.36-4.17-9.65-7.06-2-1.76-3.68-3.02-5-3.74-1.53-.84-2.04-1.12-1.85-1.9.19-.75.91-.75,1.68-.75,1.13,0,1.41-.26,1.48-.34.12-.16.06-.52,0-.72-.21-.85-.23-1.32.55-1.93,0,0,0,0,.01,0,0-.03,0-.06-.02-.1-.08-.5-.33-2.04,1.04-2.85.03-.02.06-.04.09-.05v-.11c0-.78.14-1.88,1.32-2.44.1-.05.12-.07.12-.07.02-.02.07-.11.2-.53.32-1.07.68-1.97,1.83-2.21.19-.4.64-.97.89-1.26.23-.26.38-.47.45-.57.21-.69,1.17-.69,1.51-.69h.42s.14-.25.14-.25c.44-.81.79-1.44,1.63-1.44.24,0,.46.06.71.12.15.04.23.06.29.06.05-.06.15-.19.33-.46.56-.87.75-1.16,1.27-1.16.17,0,.25.01.93.3.16.07.26.1.33.12.04-.05.09-.13.15-.25.45-.78.5-.85.53-.89l.26-.34h.46c.09,0,.32,0,1.03.26.06.02.12.04.18.06.09-.13.21-.29.33-.49.59-.92.82-1.24,1.34-1.24.23,0,.36.03,1.21.55-.36-.53-.63-1.12-.63-1.64,0-.98.99-1.99,1.96-1.99s1.31.65,1.79,1.55c.07.14.14.25.19.35.1-.03.2-.04.3-.04.42,0,.86.23,1.57.81.15.13.3.23.41.31.06-.04.13-.08.21-.13l1.01-.68,1.5.79.17-.09c.65-.33.92-.33,1.02-.33h.36l.2.18c.09.05.25.12.42.19.09.04.15.07.21.08-.03-.01.17-.12.24-.15l1.06-.54,1.01.57c.12.07.24.13.34.17.12-.08.28-.2.45-.34.81-.71.99-.83,1.34-.83.16,0,.3.04.45.12.06-.12.14-.28.23-.49.32-.71.68-1.51,1.74-1.51.11,0,.24,0,.38.03.89.11,1.55,1.14,1.55,1.99,0,.65-.2,1.15-.57,1.65.47-.25.82-.42,1.21-.42.78,0,1.11.61,1.47,1.26.06.1.17.25.25.35.05-.02.11-.04.17-.06.38-.13.62-.21.88-.21.42,0,.76.21,1,.61.15.25.43.71.53.79.12-.02.39-.08.69-.14.12-.03.27-.05.42-.05.72,0,1.09.53,1.45,1.03l.21.31,1.68-.17.88,1.32c.09.13.22.33.31.44.03,0,.06,0,.09,0,.11,0,.2-.01.29-.01.75,0,1.13.34,1.67.9.35.36.85.97,1.08,1.39.08.15.2.26.31.3,1.07.35,1.41,1.21,1.74,2.3.14.45.21.49.25.51.82.42,1.24,1.11,1.24,2.04,0,.47.02.48.3.67.89.58.93.98.93,2.15,0,.3,0,.51.02.63.69.54.61,1.19.53,1.77-.04.32-.06.73.11.93.1.12.41.32,1.34.33.61,0,1.45.02,1.64.8.19.79-.53,1.19-1.37,1.64-1.46.79-2.96,1.88-5.17,3.79-3.29,2.83-7.85,6.2-9.55,7.06-.09.04-.2.1-.32.16.19.27.31.6.38.82.07.23.29.63.46.82l.11.13.54-.12c.57-.12,1.19-.18,1.89-.18.27,0,.55,0,.85.03,2.72.16,4.37.88,4.91,2.13.51-.18,1.19-.28,1.71-.31.18,0,.34-.01.49-.01.57,0,1.22.07,1.64.56.41.48.37,1.08.3,1.5,0,0,0,.01,0,.02,1.34,1.05,2.06,3.83,1.85,5.16-.04.27-.12.49-.22.66.64.86.91,2.18,1.02,3.19.14,1.2-.17,1.9-.6,2.3.08.37.05.81.01,1.34-.29,4.1-3.84,8.43-6.92,8.43Z" fill="#9d2235"/>
          <path d="M94.14,75.21c.08,0,.17,0,.28.02.37.04.77.62.77,1.12,0,.59-.21.99-.9,1.71-.48.51-.52.61-.33.8.22.21.45.32.74.32.31,0,.68-.13,1.17-.38.42-.22.66-.34.84-.34.25,0,.39.24.7.8.12.21.35.51.51.66.14.13.23.19.37.19.13,0,.3-.06.61-.16.31-.11.48-.16.59-.16s.17.06.24.18c.54.91.75,1.2,1.27,1.2.22,0,.5-.05.89-.14.09-.02.17-.03.24-.03.24,0,.37.15.73.66l.51.73.83-.09.83-.09.58.87c.47.7.57.84.94.84.07,0,.16,0,.26-.01.08,0,.16-.01.22-.01.38,0,.55.12,1.03.63.35.36.77.91.94,1.2.19.35.48.6.8.71.57.19.82.55,1.17,1.72.18.61.36.87.69,1.04.53.27.76.66.77,1.26,0,.75.15,1.04.7,1.4.52.34.53.37.53,1.42,0,.92.05,1.1.33,1.3.29.2.32.33.23.98-.21,1.55.49,2.23,2.32,2.26,1.1.02,1.08.13-.14.78-1.52.82-3.06,1.94-5.33,3.89-3.22,2.77-7.74,6.11-9.38,6.95-1.14.58-5.63,2.49-6.59,2.81-.51.17-1.69.44-2.61.61-1.5.27-2.06.44-1.56.44.16,0,.41-.02.77-.05,2.85-.26,4.12-.56,5.93-1.4,1.7-.78,2.67-1.14,3.11-1.14.07,0,.12,0,.16.02.12.04.3.37.4.72.1.35.39.87.64,1.15l.45.51,1.05-.22c.51-.11,1.07-.16,1.71-.16.25,0,.52,0,.8.02,2.47.15,3.94.77,4.22,1.8.08.29.17.56.19.6,0,0,.01,0,.02,0,.08,0,.33-.09.61-.23.34-.16,1.05-.31,1.67-.34.16,0,.31-.01.44-.01.97,0,1.2.26,1.07,1.05-.08.5-.04.61.3.84,1.23.81,2.14,4.68,1.16,4.93-.27.07-.25.12.16.53.5.5.87,1.57,1.03,2.97.11,1.02-.11,1.58-.71,1.77-.3.1-.3.12-.06.3.23.17.25.37.18,1.41-.25,3.61-3.43,7.61-6.04,7.61-.55,0-.8-.09-1.08-.37-1.44-1.44-.38-5.43,2.05-7.69l.79-.74-.35-.47c-.83-1.12-.39-5.52.77-7.7.07-.14-1.82-.44-3.85-.61-2.15-.18-4.03-.75-5.17-1.58-.4-.29-.67-.43-.82-.43-.04,0-.07.01-.1.03-.04.04-.09.05-.16.05-.32,0-.96-.39-1.64-1.02-.85-.78-2.08-1.31-3.3-1.42-.64-.06-1.13-.2-1.41-.4l-.43-.32-.67.37c-.88.48-1.96.67-5.14.87-1.11.07-2.28.11-3.45.11-3.66,0-7.22-.33-8.64-.87-.39-.15-.6-.22-.78-.22-.16,0-.29.05-.49.16-.26.13-.9.29-1.42.34-1.24.14-1.99.48-2.87,1.3-.74.69-1.36,1.08-1.67,1.08-.09,0-.15-.03-.19-.09-.04-.06-.07-.09-.13-.09-.09,0-.22.09-.43.3-1.02.97-3.72,1.8-6.13,1.88-.85.03-1.77.14-2.04.24-.2.07-.45.12-.66.12-.09,0-.17,0-.23-.02-.12-.03-.21-.05-.27-.05-.17,0-.1.14.19.54.17.23.33.56.36.73.03.17.13.49.22.72.3.74.51,2.26.51,3.77,0,1.2-.06,1.6-.32,2.09l-.32.61.89.95c1.42,1.52,2.51,3.91,2.51,5.52,0,.85-.43,1.79-.94,2.06-.27.14-.55.21-.86.21-.45,0-.95-.15-1.56-.46-2.37-1.18-4.49-4.75-4.5-7.57,0-.55.07-.78.3-.94.29-.2.28-.22-.23-.47-.53-.25-.54-.27-.53-1.22,0-1.5.61-3.4,1.16-3.61.32-.12.28-.31-.08-.41-.27-.07-.31-.21-.31-1.09,0-1.59.76-3.38,1.61-3.76.32-.15.35-.24.28-.85-.07-.61-.03-.71.29-.89.22-.12.57-.18.96-.18.55,0,1.19.11,1.69.33.47.21.69.3.79.3.09,0,.08-.08.08-.22,0-.49.49-1.15,1.05-1.44.69-.35,2.67-.78,3.6-.78h0c.36,0,1.08.07,1.59.16s1.05.17,1.21.19c0,0,.01,0,.02,0,.35,0,1.01-1.15,1.01-1.78,0-.24.1-.47.23-.52.03-.01.08-.02.13-.02.44,0,1.57.4,3.22,1.13.9.4,2.1.79,3,.97,1.26.25,3.05.47,3.67.47.17,0,.25-.02.22-.05-.05-.05-.85-.23-1.77-.4-.93-.17-2.05-.41-2.5-.55-1.05-.31-4.48-1.74-6.28-2.61-2.04-.99-6.35-4.13-9.62-7.02-2.06-1.81-3.78-3.1-5.15-3.85-1.77-.97-1.79-1-.59-1,1.95,0,2.7-.7,2.33-2.16-.17-.67-.16-.71.24-1.03.37-.29.41-.4.32-.94-.16-1.01.03-1.6.62-1.95.46-.27.52-.39.52-.92,0-.9.24-1.37.82-1.65.43-.21.56-.4.78-1.14.34-1.15.59-1.48,1.17-1.6.3-.06.52-.23.61-.46.08-.2.42-.69.77-1.09s.63-.78.63-.85c0-.06.29-.11.67-.11.04,0,.09,0,.13,0l.8.02.4-.74c.41-.75.55-.98.86-.98.12,0,.27.04.48.09.23.06.42.1.57.1.39,0,.6-.23,1.02-.87.27-.42.5-.76.53-.76s.29.1.6.23c.34.14.58.22.78.22.33,0,.52-.22.81-.72.23-.4.44-.76.47-.79,0,0,.01,0,.03,0,.09,0,.38.09.71.21.29.11.59.18.75.18.05,0,.09,0,.11-.02.09-.06.41-.48.7-.94s.56-.83.6-.83.41.21.82.46c.49.3.78.44,1.05.44.21,0,.41-.08.69-.22l.47-.24-.54-.56c-.6-.63-1.04-1.4-1.04-1.85,0-.5.59-1.11,1.08-1.11.39,0,.51.12,1.01,1.08.39.75.65,1.08.86,1.08.16,0,.29-.07.29-.15,0-.1.04-.15.13-.15.17,0,.52.21,1.01.61.41.34.83.62.92.62s.43-.17.75-.39l.57-.39.72.38.72.38.58-.3c.28-.14.53-.24.62-.24.01,0,.02,0,.03,0,.04.04.31.17.61.29.22.09.36.14.51.14.18,0,.35-.08.68-.24l.64-.33.6.34c.33.19.71.34.84.34s.56-.28.95-.62c.39-.34.74-.62.77-.62s.17.11.3.25c.09.09.18.14.27.14.25,0,.52-.39.91-1.27.35-.79.51-.99.94-.99M94.14,73.45h0c-1.53,0-2.12,1.11-2.47,1.88-.67.02-1.05.34-1.83,1.02l-.41-.23-.82-.46-.84.43-.56.28s-.02,0-.02-.01l-.33-.33h-.75c-.16,0-.5,0-1.18.31l-.63-.33-.94-.5-.88.6-.24.16c-.63-.51-1.19-.85-1.82-.92-.48-.9-1.06-1.86-2.48-1.86s-2.84,1.39-2.84,2.86c0,.08,0,.16.01.24-.81.12-1.24.75-1.74,1.53-.5-.16-.73-.16-.85-.16h-.87l-.56.7c-.05.06-.09.12-.36.58-.39-.15-.6-.21-.89-.21-.98,0-1.41.63-1.97,1.51-.2-.04-.4-.07-.62-.07-1.26,0-1.85.89-2.3,1.7-.24,0-.47.02-.66.05-.78.12-1.27.56-1.51,1.06-.07.09-.19.25-.37.46-.14.16-.52.62-.81,1.09-1.42.5-1.83,1.86-2.08,2.7-.02.06-.03.11-.05.15-1,.56-1.53,1.48-1.62,2.77-.7.53-1.34,1.48-1.18,3.14-.79.81-.7,1.61-.51,2.43-.14.02-.34.04-.62.04-.76,0-2.17,0-2.53,1.42-.36,1.43.74,2.04,2.28,2.88,1.26.69,2.89,1.91,4.84,3.63,3.02,2.66,6.8,5.46,9.15,6.81-.02.11-.03.23-.04.34-.06-.01-.12-.02-.19-.03-.52-.09-1.35-.18-1.88-.18-1.1,0-3.39.46-4.41.98-.44.23-.89.59-1.25,1.03-.5-.13-1.04-.2-1.57-.2-.72,0-1.33.13-1.81.4-1.12.61-1.26,1.54-1.23,2.2-1.22,1.09-1.86,3.16-1.86,4.85,0,.34,0,.8.11,1.26-.69,1.31-.88,3.09-.88,3.85,0,.8.05,1.48.49,2.04-.03.24-.03.45-.03.6.01,3.48,2.52,7.66,5.47,9.14.88.44,1.62.64,2.35.64.58,0,1.14-.14,1.67-.41,1.3-.67,1.89-2.35,1.89-3.62,0-2.05-1.25-4.87-2.98-6.72l-.07-.07c.24-.66.29-1.32.29-2.39,0-1.31-.15-3.07-.56-4.23.23-.02.5-.04.77-.05,2.26-.07,5.2-.78,6.85-2,.56,0,1.39-.2,2.85-1.56.6-.56,1-.74,1.86-.84.41-.05,1.2-.18,1.79-.42.03.01.06.02.09.03,1.92.73,6.04.99,9.26.99,1.24,0,2.43-.04,3.56-.11,3.03-.19,4.43-.38,5.61-.95.48.22,1.06.36,1.77.43.83.07,1.7.44,2.26.96,1.07.98,2.02,1.48,2.83,1.48.01,0,.02,0,.04,0,0,0,.01,0,.02.01,1.41,1.01,3.56,1.69,6.05,1.9.61.05,1.17.11,1.64.17-.59,2.14-.82,4.82-.27,6.52-1.79,1.78-3,4.43-3.05,6.7-.03,1.38.38,2.52,1.17,3.31.78.78,1.61.88,2.33.88,3.85,0,7.5-5.08,7.79-9.25.03-.38.05-.76.03-1.13.41-.56.7-1.4.55-2.67-.11-.97-.36-2.21-.91-3.18.04-.14.08-.28.1-.42.24-1.45-.43-4.27-1.79-5.66.02-.47-.05-1.15-.55-1.73-.74-.87-1.88-.87-2.31-.87-.16,0-.34,0-.54.02-.35.02-.8.07-1.24.17-.89-1.17-2.66-1.83-5.27-1.99-.32-.02-.62-.03-.91-.03-.76,0-1.43.06-2.06.2-.05-.09-.09-.17-.1-.22-.02-.06-.04-.12-.06-.18,2.17-1.25,6.47-4.53,9.28-6.94,2.16-1.86,3.62-2.92,5.02-3.68.86-.47,2.17-1.17,1.81-2.62-.35-1.44-1.84-1.46-2.48-1.47-.3,0-.5-.03-.62-.06,0-.06,0-.13.02-.21.07-.55.2-1.5-.54-2.29,0-.06,0-.14,0-.22,0-1.22-.06-2.02-1.23-2.82h0c0-1.16-.53-2.1-1.5-2.69-.01-.03-.02-.07-.04-.11-.36-1.2-.8-2.32-2.15-2.83-.28-.49-.8-1.12-1.18-1.52-.49-.51-1.1-1.14-2.23-1.16,0-.01-.02-.02-.02-.03l-.58-.88-.59-.88-1.06.11-.64.07c-.39-.55-.99-1.29-2.09-1.29-.24,0-.45.04-.61.07-.03,0-.07.02-.12.02-.06-.1-.13-.21-.17-.27-.54-.9-1.33-1.04-1.75-1.04-.25,0-.48.04-.7.11-.35-.61-.88-1.33-1.86-1.42.01-.11.02-.23.02-.35,0-1.25-.93-2.7-2.32-2.86-.18-.02-.34-.03-.48-.03h0Z" fill="#eaaa00"/>
        </g>
        <g>
          <path d="M66.66,58.61c-1.23,0-3.54-.8-3.62-2.11-.11-1.66,5.1-5.13,5.89-5.6,2.22-1.31,4.66-2.09,6.54-2.09.71,0,1.33.11,1.85.33l3.25,1.38-3.31.58c-.16.03-.74.18-1.32.35-2.17.64-5.35,3.22-6.8,5.52-.7,1.12-1.14,1.61-2.4,1.64h-.07Z" fill="#9d2235"/>
          <path d="M75.46,49.68c.58,0,1.09.08,1.5.26l.53.22-.39.07c-.22.04-.85.21-1.42.37-2.39.7-5.72,3.4-7.29,5.89-.66,1.05-.88,1.21-1.68,1.23-.02,0-.04,0-.05,0-1.13,0-2.71-.74-2.75-1.29-.04-.66,3-3.33,5.46-4.78,2.13-1.26,4.4-1.97,6.09-1.97M75.46,47.93c-2.06,0-4.6.81-6.99,2.21-.06.04-6.48,3.9-6.32,6.41.13,1.95,2.96,2.93,4.5,2.93h.09c1.73-.04,2.39-.87,3.13-2.05,1.33-2.11,4.33-4.56,6.3-5.14.59-.18,1.12-.31,1.23-.33l.39-.07,5.83-1.04-5.46-2.31-.53-.22c-.62-.26-1.36-.4-2.19-.4h0Z" fill="#eaaa00"/>
        </g>
        <g>
          <path d="M114.29,95.52c.07-.63.05-.66-.11-.91-.3-.49-.59-1.07-.39-1.68.19-.58.7-.84,1.07-.99.38-.15.98-.32,1.37-.39.26-.04.69-.18.91-.28.21-.1.49-.21.8-.23.14-.47.38-1.11.59-1.53.17-.33.27-.71.28-.82,0-1.54,2.35-6.82,3.44-8.07.3-.35.31-.35.44-1.73.08-.88.13-2.7.1-3.98-.04-1.97-.04-2.36.31-2.72l.26-.26h.39c.77,0,.94.54,1.5,2.37.42,1.38.46,1.74.49,4.85.04,3.26.04,3.38-.47,4.91-.41,1.24-1.09,3.05-1.82,4.07.25.49.14.96-.05,1.79-.44,1.94-1.9,4.83-3.5,5.22-.05.02-.3.18-.48.36-.64.65-2.71,1.6-3.74,1.8l-1.63.33.22-2.12Z" fill="#9d2235"/>
          <path d="M123.76,72.81c.1,0,.3.6.66,1.76.39,1.28.42,1.58.46,4.6.04,3.23.04,3.24-.42,4.62-.58,1.76-1.75,4.24-2,4.24-.12,0-.09.11.09.3.26.28.26.36.03,1.4-.47,2.07-1.87,4.33-2.85,4.56-.23.05-.63.32-.9.6-.48.48-2.35,1.37-3.28,1.56l-.46.09.1-.93c.08-.79.05-1.01-.23-1.46-.49-.79-.43-1.11.26-1.39.32-.13.86-.28,1.19-.34.33-.06.84-.21,1.12-.35.22-.1.38-.15.52-.15.1,0,.18.03.27.08.06.04.11.06.15.06.12,0,.18-.17.31-.66.11-.42.36-1.09.56-1.49.2-.4.37-.94.37-1.21,0-1.22,2.2-6.32,3.22-7.49.47-.53.51-.68.65-2.23.08-.91.13-2.75.1-4.08-.03-1.41-.03-2.09.08-2.09M123.76,71.05h-.74l-.54.54c-.62.63-.61,1.26-.56,3.35.03,1.26-.02,3.03-.1,3.88-.03.33-.09.92-.13,1.13-.03.03-.06.07-.09.11-1.21,1.38-3.59,6.73-3.66,8.57-.02.1-.09.32-.18.5-.16.32-.34.75-.49,1.16-.18.06-.35.13-.49.19-.14.06-.5.18-.7.21-.45.08-1.1.27-1.54.44-.82.33-1.35.84-1.58,1.53-.36,1.08.22,2.02.47,2.42,0,0,0,0,0,.01,0,.06-.01.17-.03.34l-.1.93-.25,2.38,2.34-.47.46-.09c1.19-.24,3.4-1.25,4.19-2.05.06-.06.15-.12.2-.16,1.99-.61,3.53-3.75,4-5.84.15-.67.28-1.25.17-1.82.48-.8,1.04-2.04,1.67-3.95.55-1.67.55-1.93.51-5.2-.04-3.09-.07-3.58-.53-5.1-.57-1.87-.92-3-2.34-3h0Z" fill="#eaaa00"/>
        </g>
        <g>
          <path d="M111.41,88.6c-1.1-2-2.55-3.67-4.1-4.71-.5-.33-.94-.62-1.08-.72l-.31-.13-.12-.38c-.13-.42,0-.66.59-1.64.25-.41.41-.81.43-.93,0-.2.06-.62.18-.91.24-.6.64-.73.94-.73.38,0,.63.2.84.42.1-.19.22-.44.31-.75.19-.65.44-1.53,1.3-1.53.4,0,.68.23.86.43.07-.06.15-.12.24-.18.23-.18.6-.45.98-.64-.66-1.93.22-4.6,2.25-6.69.13-.13.22-.25.29-.33-.02-.21.04-.38.11-.51l.25-.45h.55c.33-.01.61.13,1.45.66,2.83,1.79,4.2,4.15,4.17,7.21-.02,2.06-.56,3.58-1.7,4.78-.08.08-.16.16-.23.24l.03.04c.32.53.07.99-.42,1.91-1.1,2.07-3.83,4.91-5.85,6.08l-1.26.73-.7-1.28Z" fill="#9d2235"/>
          <path d="M115.9,69.09c.09,0,.39.17.98.54,2.57,1.62,3.79,3.71,3.76,6.46-.02,1.83-.47,3.14-1.46,4.18-.43.45-.83.82-.9.82s-.62-.46-1.23-1.02c-1.01-.93-1.85-1.45-2.33-1.45-.1,0,.14.22.54.48.4.27,1.08.88,1.51,1.37.73.82,1.16,1.15,1.58,1.15.07,0,.15-.01.22-.03.09-.02.15-.04.2-.04.19,0,.09.23-.36,1.08-1.02,1.91-3.65,4.65-5.51,5.74l-.48.28-.27-.49c-1.16-2.12-2.73-3.91-4.39-5.02-.62-.41-1.14-.76-1.16-.77-.02,0,.2-.42.5-.92.3-.49.55-1.08.55-1.29,0-.22.06-.52.12-.67.04-.11.08-.17.13-.17.06,0,.15.09.32.29.19.22.44.39.56.39.34,0,.84-.74,1.1-1.64.18-.62.3-.9.45-.9.09,0,.19.1.32.3.14.21.32.39.4.39s.5-.28.93-.63c.44-.34.99-.66,1.22-.71.42-.08.43-.09.2-.54-.82-1.59-.03-4.18,1.9-6.16.38-.39.65-.79.59-.89-.06-.1-.07-.15-.02-.15M115.9,67.33h-1.03l-.53.92c-.07.12-.16.33-.2.59-.02.02-.04.04-.06.07-2.03,2.09-3.01,4.74-2.63,6.88-.07.05-.14.1-.21.14-.27-.14-.55-.21-.86-.21-1.33,0-1.83,1.17-2.06,1.89-.12-.02-.25-.04-.38-.04-.29,0-1.29.09-1.76,1.29-.14.34-.21.76-.23,1.08-.05.13-.16.37-.31.62-.6,1-.93,1.55-.67,2.36l.24.76.61.27c.18.12.57.38,1.01.67,1.41.94,2.81,2.55,3.82,4.4l.27.49.87,1.58,1.56-.91.48-.28c2.13-1.24,5.02-4.24,6.18-6.43.41-.77.77-1.45.64-2.17,1.2-1.35,1.76-3.01,1.78-5.21.03-3.34-1.51-6.02-4.58-7.96-.87-.55-1.31-.81-1.92-.81h0Z" fill="#eaaa00"/>
        </g>
        <g>
          <polygon points="39.06 50.25 39.07 50.26 39.07 50.26 39.06 50.25" fill="#eaaa00"/>
          <g>
            <path d="M115.73,48.19c-.86-.26-1.49-.67-1.69-1.08l-.89,2.52c1.66.59,3.4,1.23,5.29,1.95.78.23,1.29.19,1.38-.12.19-.64-1.41-2.46-4.09-3.27Z" fill="#eaaa00"/>
            <g clip-path="url(#clippath)">
              <g>
                <polygon points="120.2 62.01 122.95 63.67 126.81 57.27 123.25 56.95 120.2 62.01" fill="#eaaa00"/>
                <polygon points="117.43 60.33 120.2 62.01 123.25 56.95 119.67 56.62 117.43 60.33"/>
                <polygon points="125.29 53.58 122.51 51.91 121.71 53.25 125.29 53.58"/>
                <polygon points="121.71 53.25 122.51 51.91 122.51 51.91 119.76 50.25 118.14 52.93 121.71 53.25" fill="#eaaa00"/>
                <polygon points="116.11 56.29 114.67 58.67 117.42 60.33 117.43 60.33 119.67 56.62 116.11 56.29" fill="#eaaa00"/>
                <polygon points="118.14 52.93 119.76 50.25 116.99 48.57 114.56 52.59 118.14 52.93"/>
                <polygon points="112.52 55.97 111.9 57 114.67 58.67 116.11 56.29 112.52 55.97"/>
                <polygon points="114.56 52.59 116.99 48.57 114.24 46.91 111.02 52.24 114.56 52.59" fill="#eaaa00"/>
                <polygon points="109.78 55.72 111.9 57 112.52 55.97 109.78 55.72" fill="#eaaa00"/>
                <polygon points="114.24 46.91 111.47 45.24 107.44 51.9 111.02 52.24 114.24 46.91"/>
                <polygon points="121.71 53.25 119.67 56.62 123.25 56.95 125.29 53.58 121.71 53.25" fill="#eaaa00"/>
                <polygon points="125.29 53.58 125.29 53.58 123.25 56.95 123.25 56.95 126.81 57.27 128.04 55.24 125.29 53.58"/>
                <polygon points="118.14 52.93 116.11 56.29 119.67 56.62 121.71 53.25 118.14 52.93"/>
                <polygon points="114.56 52.59 112.52 55.97 116.11 56.29 118.14 52.93 114.56 52.59" fill="#eaaa00"/>
                <polygon points="114.56 52.59 111.02 52.24 109.15 55.34 109.78 55.72 112.52 55.97 114.56 52.59"/>
                <polygon points="107.44 51.9 106.38 53.66 109.15 55.34 111.02 52.24 107.44 51.9" fill="#eaaa00"/>
              </g>
            </g>
          </g>
          <g>
            <path d="M128.5,54.12l4.28-3.68c-.73.17-2.46.42-4.38-.35-2.44-.97-8.51-2.89-11.89-3.54-1.55-.3-2.21-.08-2.33.2l-.02.05c-.06.35.52.9,1.63,1.23,1.21.36,2.34.98,3.18,1.72.76.67,1.15,1.34,1.03,1.76,0,0,0,.02-.01.03h.05s-1.01,3.78-1.01,3.78c1.21.4,7.84,2.58,12.4,3.08l-2.98-4.22.06-.05Z" fill="#eaaa00"/>
            <g clip-path="url(#clippath-1)">
              <g>
                <polygon points="128.71 58.04 131.89 58.48 132.91 51.07 129.52 52.18 128.71 58.04" fill="#eaaa00"/>
                <polygon points="125.5 57.6 128.71 58.04 129.52 52.18 126.09 53.3 125.5 57.6"/>
                <polygon points="130.05 48.29 126.85 47.84 126.63 49.39 130.05 48.29"/>
                <polygon points="126.63 49.39 126.85 47.84 126.85 47.84 123.66 47.41 123.23 50.51 126.63 49.39" fill="#eaaa00"/>
                <polygon points="122.7 54.41 122.32 57.16 125.5 57.6 125.5 57.6 126.09 53.3 122.7 54.41" fill="#eaaa00"/>
                <polygon points="123.23 50.51 123.66 47.41 120.45 46.96 119.81 51.61 123.23 50.51"/>
                <polygon points="119.27 55.52 119.11 56.71 122.32 57.16 122.7 54.41 119.27 55.52"/>
                <polygon points="119.81 51.61 120.45 46.96 117.27 46.53 116.42 52.69 119.81 51.61" fill="#eaaa00"/>
                <polygon points="116.65 56.38 119.11 56.71 119.27 55.52 116.65 56.38" fill="#eaaa00"/>
                <polygon points="117.27 46.53 114.06 46.08 113 53.8 116.42 52.69 117.27 46.53"/>
                <polygon points="126.63 49.39 126.09 53.3 129.52 52.18 130.05 48.29 126.63 49.39" fill="#eaaa00"/>
                <polygon points="130.05 48.29 130.05 48.29 129.52 52.18 129.52 52.18 132.91 51.07 133.24 48.73 130.05 48.29"/>
                <polygon points="123.23 50.51 122.7 54.41 126.09 53.3 126.63 49.39 123.23 50.51"/>
                <polygon points="119.81 51.61 119.27 55.52 122.7 54.41 123.23 50.51 119.81 51.61" fill="#eaaa00"/>
                <polygon points="119.81 51.61 116.42 52.69 115.92 56.28 116.65 56.38 119.27 55.52 119.81 51.61"/>
                <polygon points="113 53.8 112.72 55.83 115.92 56.28 116.42 52.69 113 53.8" fill="#eaaa00"/>
              </g>
            </g>
          </g>
          <path d="M118.85,55.26l.93-3.49c-.21.14-.61.2-1.39-.03-11.82-4.48-18.05-6.33-32.29-6.59-14.23.25-20.46,2.1-32.28,6.58-.78.23-1.18.17-1.4.04l.92,3.45h0s.02.09.02.09h0s0,0,0,0c0,0,.13.53.63,2.41.17.62.36.96.66,1.14.59.34,1.64.06,3.73-.5l.69-.19c.75-.2,1.52-.41,2.29-.62,7.9-2.15,16.86-4.58,24.73-4.58h0c7.86,0,16.82,2.43,24.72,4.58.77.21,1.54.42,2.29.62l.72.19c2.08.56,3.12.84,3.71.5.3-.17.5-.51.66-1.14.49-1.85.5-2.38.5-2.38v-.12s.11.04.11.04c0,0,.01,0,.03.01Z" fill="#eaaa00"/>
          <g>
            <path d="M58.1,47.2c-.24.37-.83.75-1.63.99-2.68.81-4.28,2.63-4.09,3.27.09.3.59.34,1.38.11,1.74-.66,3.35-1.26,4.89-1.81h-.01s-.54-2.56-.54-2.56Z" fill="#9d2235"/>
            <g clip-path="url(#clippath-2)">
              <path d="M58.89,49.16c-.24.37-.83.75-1.63.99-2.68.81-4.28,2.63-4.09,3.27.09.3.59.34,1.38.11,1.74-.66,3.35-1.26,4.89-1.81h-.01s-.54-2.56-.54-2.56Z" fill="#fffed7"/>
            </g>
          </g>
          <g>
            <path d="M43.81,50.09c-1.92.77-3.65.52-4.38.35l4.34,3.73-2.98,4.22c4.74-.52,11.62-2.86,12.39-3.12l-.99-3.73h.04s0-.03-.01-.04c-.24-.8,1.55-2.68,4.21-3.48.98-.29,1.54-.75,1.62-1.1l-.06-.26c-.2-.24-.88-.4-2.29-.13-3.36.65-9.44,2.56-11.9,3.54Z" fill="#eaaa00"/>
            <g clip-path="url(#clippath-3)">
              <rect id="rect58354" x="37.39" y="48.7" width="10.85" height="5.71" transform="translate(-14.47 16.78) rotate(-19.03)" fill="#fffed7"/>
              <path id="path58356" d="M50.67,57.68l-1.79-5.18-10.52,3.63.43,1.24c.34.97,1.49,1.64,3.36,1.83.54.06,1.09.06,1.63,0,1.94-.24,4.63-.7,6.89-1.51Z" fill="#9d2235" fill-rule="evenodd"/>
              <rect id="rect58358" x="47.83" y="46.21" width="11.82" height="4.48" transform="translate(-12.86 20.17) rotate(-19.03)" fill="#9d2235"/>
              <path id="path58360" d="M62.09,55.38l-2.3-6.66-10.91,3.76,1.78,5.15v.03c1.92-.55,8.47-2.09,11.43-2.29Z" fill="#fffed7" fill-rule="evenodd"/>
              <path id="path58362" d="M48.88,52.49l-1.29-3.75v.03c.47-.16.89.05,1.04.47.47.11.73.53.65.99-.04.21-.15.36-.3.5v-.03s.31.94.31.94l.91-.31v.03c.03-.2.07-.41.22-.54.3-.38.81-.39,1.17-.13.42-.15.89.09,1.05.54l-.04-.02-3.71,1.28h0Z" fill="#fffed7" fill-rule="evenodd"/>
              <path id="path58364" d="M48.88,52.49l-3.75,1.29.04.02c-.19-.44.06-.87.48-1.02.08-.46.51-.77.95-.65.21.05.39.14.5.3v-.03s.9-.31.9-.31l-.28-.92v.03c-.19,0-.36-.07-.53-.21-.34-.31-.39-.81-.1-1.18-.14-.42.09-.89.51-1.04v-.03s1.28,3.75,1.28,3.75Z" fill="#9d2235" fill-rule="evenodd"/>
              <path id="path58366" d="M48.88,52.49l1.29,3.75c-.42.14-.88-.05-1.03-.47-.42-.09-.73-.53-.64-.95.05-.21.14-.4.3-.49v-.03s-.33-.92-.33-.92l-.92.28v.03c0,.2-.05.38-.2.54-.28.33-.8.4-1.15.08-.45.16-.89-.09-1.04-.51l-.04-.02,3.75-1.29h0Z" fill="#fffed7" fill-rule="evenodd"/>
              <path id="path58368" d="M48.88,52.49l3.71-1.28.04.02c.15.42-.05.88-.47,1.03-.12.44-.53.73-.99.65-.21-.04-.36-.15-.49-.3v-.03s-.96.33-.96.33l.31.91v.04c.21,0,.43.05.55.2.36.27.4.8.12,1.13.14.42-.09.89-.54,1.05l-1.29-3.75h0Z" fill="#9d2235" fill-rule="evenodd"/>
            </g>
          </g>
          <path d="M133.17,50.33l-.08-.14s-2.16.74-4.63-.25c-2.45-.98-8.53-2.9-11.93-3.55-1.37-.26-2.28-.16-2.5.27h0s-.02.06-.02.06c0,.01-.01.02-.02.03,0,0,0,0,0,.01l-.99,2.82c-8.65-3.05-14.97-4.38-26.89-4.59-12.1.21-18.42,1.58-27.29,4.73l-.59-2.78c.01-.07,0-.13,0-.19-.01-.05-.04-.08-.06-.12h0s0,0,0,0c-.25-.4-1.15-.49-2.48-.24-3.37.65-9.47,2.57-11.93,3.55-2.47.99-4.61.26-4.63.25l-.04.08h0s-.04.07-.04.07l4.5,3.88-3.1,4.4.19-.02c4.73-.47,11.74-2.85,12.6-3.15.05.22.22.86.61,2.32.18.67.4,1.04.74,1.24.2.12.45.17.75.17.67,0,1.64-.26,3.11-.66l.69-.19c.75-.2,1.52-.41,2.29-.62,7.89-2.14,16.84-4.57,24.68-4.57h0c7.84,0,16.79,2.43,24.68,4.57.77.21,1.54.42,2.29.62l.72.19c2.12.57,3.19.86,3.84.48.34-.2.56-.57.74-1.24.38-1.43.48-2.07.5-2.31.94.32,8.01,2.67,12.71,3.14l.19.02-3.11-4.4,4.5-3.88ZM118.71,55.33s0,.53-.5,2.38c-.17.62-.36.96-.66,1.14-.59.34-1.63.06-3.71-.5l-.72-.19c-.75-.2-1.52-.41-2.29-.62-7.9-2.15-16.86-4.58-24.72-4.58h0c-7.87,0-16.82,2.43-24.73,4.58-.77.21-1.54.42-2.29.62l-.69.19c-2.09.56-3.14.85-3.73.5-.3-.17-.5-.51-.66-1.14-.5-1.88-.63-2.4-.63-2.41h0s0,0,0,0l-.02-.09h0s-.92-3.45-.92-3.45c.21.13.62.19,1.4-.04,11.83-4.48,18.06-6.33,32.28-6.58,14.24.26,20.47,2.11,32.29,6.59.78.23,1.19.17,1.39.03l-.93,3.49s-.03,0-.03-.01l-.11-.04v.12ZM53.76,51.58c-.79.23-1.29.19-1.38-.11-.19-.64,1.41-2.46,4.09-3.27.8-.24,1.39-.61,1.63-.99l.54,2.57h.01c-1.54.55-3.16,1.15-4.89,1.81ZM57.99,46.67l.06.26c-.08.34-.65.8-1.62,1.1-2.65.8-4.44,2.68-4.21,3.48,0,0,0,.02.01.03h-.04s.99,3.74.99,3.74c-.77.26-7.65,2.6-12.39,3.12l2.98-4.22-4.34-3.73c.73.17,2.46.42,4.38-.35,2.45-.98,8.53-2.9,11.9-3.54,1.41-.27,2.09-.12,2.29.13ZM119.82,51.46c-.09.3-.59.35-1.38.12-1.89-.72-3.63-1.36-5.29-1.95l.89-2.52c.2.4.83.82,1.69,1.08,2.69.81,4.28,2.63,4.09,3.27ZM119.02,55.32l1.01-3.77h-.05s0-.03.01-.04c.12-.41-.27-1.09-1.03-1.76-.84-.75-1.97-1.36-3.18-1.72-1.11-.33-1.69-.88-1.63-1.23l.02-.05c.12-.29.78-.5,2.33-.2,3.38.65,9.45,2.57,11.89,3.54,1.92.77,3.65.52,4.38.35l-4.28,3.68-.06.05,2.98,4.22c-4.56-.5-11.2-2.68-12.4-3.08Z" fill="#fffed7"/>
        </g>
        <g>
          <path d="M110.98,76.55c-.1-.04-.3-.14-1.44-1.25-1.89-1.84-5.1-6.79-8.5-12.03-1.61-2.48-3.26-4.54-5.35-6.69-2.29-2.36-2.77-2.89-3.16-3.58-.21-.37-.47-.82-.18-1.33.1-.18.36-.48.89-.48h.13c.41.03,1.43.46,2.01.72.71.32,1.27.5,1.4.53.69.03,1.06.42,1.29.72.22.29.31.29.4.29.04,0,.09,0,.14-.01.19-.03.33-.04.43-.04.23,0,.99.08,1.07,1.07,0,0,0,0,0,0,.01,0,.07.13.15.23.03.04.06.08.09.11,0,0,0,0,0,0,.02,0,.1.01.24.03.89.09,1.26.28,1.57,1.2.04.13.18.32.36.44.49.33,2.04.81,2.68.83h.1c.88,0,1.86-.35,2.25-.68.31-.26.91-.69,1.41-.69,1.84.12,5.08,6,5.11,6.06.8,1.48,2.12,4.73,2.17,5.79l.05,1.16-2.01.85c-.6.27-.88,2.13-1.05,3.24-.13.9-.25,1.67-.5,2.21-.35.75-.7,1.38-1.38,1.38h-.19l-.2-.09Z" fill="#9d2235"/>
          <path d="M93.24,52.08s.05,0,.08,0c.17.01.94.3,1.69.64.74.34,1.5.6,1.7.6,0,0,0,0,.01,0,.02,0,.03,0,.05,0,.22,0,.39.11.61.39.34.44.66.63,1.09.63.09,0,.18,0,.27-.02.13-.02.23-.03.3-.03.16,0,.18.07.19.26.01.16.16.48.33.7.27.34.4.41.95.46.61.06.64.08.82.61.11.34.38.68.7.89.62.42,2.34.95,3.14.98.04,0,.09,0,.13,0,.99,0,2.2-.37,2.81-.88.33-.27.71-.49.85-.49,0,0,0,0,0,0,.68.04,2.83,2.83,4.33,5.6.88,1.62,2.03,4.64,2.06,5.41l.03.55-1.45.61c-1.6.71-1.42,4.64-2.01,5.89-.27.58-.47.87-.58.87,0,0-.02,0-.02,0-.09-.04-.63-.53-1.2-1.08-1.8-1.75-4.96-6.62-8.37-11.88-1.64-2.53-3.32-4.63-5.45-6.82-2.22-2.28-2.69-2.8-3.03-3.4-.23-.41-.26-.48-.05-.48M93.24,50.32c-1.01,0-1.49.64-1.65.91-.54.94-.06,1.79.18,2.2.47.81,1.08,1.48,3.29,3.75,2.05,2.1,3.66,4.12,5.24,6.55,3.42,5.29,6.66,10.28,8.62,12.18,1.25,1.22,1.49,1.32,1.69,1.42l.35.16h.41c1.29,0,1.84-1.17,2.17-1.88.31-.66.43-1.49.58-2.46.11-.72.33-2.2.63-2.61l1.34-.56,1.13-.48-.06-1.22-.03-.55c-.06-1.31-1.53-4.79-2.28-6.17-.58-1.06-3.56-6.37-5.76-6.51h-.06s-.07,0-.07,0c-.59,0-1.25.3-1.97.89-.23.19-1.03.48-1.7.48h-.07c-.5-.02-1.88-.46-2.22-.68,0,0-.03-.03-.03-.04-.4-1.21-1.1-1.59-2.07-1.72-.25-1-1.09-1.45-1.88-1.45-.12,0-.23,0-.35.02-.51-.62-1.12-.95-1.82-.98-.19-.06-.63-.21-1.14-.45-1.68-.76-2.14-.78-2.32-.79-.07,0-.13,0-.18,0h0Z" fill="#eaaa00"/>
        </g>
        <g>
          <path d="M60.65,76.64c-.68,0-1.02-.62-1.38-1.38-.25-.54-.37-1.32-.51-2.22-.17-1.11-.45-2.97-1.06-3.25l-2-.84.05-1.16c.05-1.06,1.37-4.31,2.17-5.79.03-.06,3.27-5.94,5.05-6.06h0c.57,0,1.16.43,1.47.68.4.33,1.37.68,2.25.68h.1c.64-.02,2.19-.5,2.68-.83.18-.12.31-.31.36-.44.31-.92.68-1.12,1.57-1.21.21-.02.28-.04.29-.04-.01,0,.01-.04.05-.08.08-.1.15-.25.16-.29.07-.93.83-1,1.06-1,.1,0,.24.01.43.04.05,0,.1.01.14.01.09,0,.18,0,.4-.29.24-.31.64-.72,1.3-.72.11-.02.67-.2,1.4-.52.46-.21,1.58-.69,2.01-.72h.13c.53,0,.79.29.89.47.29.5.03.96-.18,1.32-.39.69-.87,1.22-3.16,3.58-2.09,2.15-3.74,4.21-5.35,6.69-3.4,5.24-6.61,10.19-8.5,12.03-1.15,1.11-1.34,1.2-1.45,1.25l-.17.08h-.21Z" fill="#9d2235"/>
          <path d="M78.79,52.08c.2,0,.18.08-.05.48-.34.6-.81,1.12-3.03,3.4-2.14,2.19-3.81,4.29-5.45,6.82-3.41,5.26-6.57,10.13-8.37,11.88-.57.55-1.11,1.04-1.2,1.08,0,0-.02,0-.02,0-.11,0-.31-.29-.58-.87-.58-1.25-.41-5.18-2.01-5.89l-1.45-.61.02-.55c.04-.77,1.19-3.79,2.07-5.41,1.5-2.77,3.66-5.55,4.33-5.6,0,0,0,0,0,0,.14,0,.52.22.85.49.61.51,1.82.88,2.81.88.04,0,.09,0,.13,0,.8-.03,2.52-.56,3.14-.98.32-.21.59-.56.7-.89.18-.52.21-.55.82-.61.55-.06.68-.12.95-.46.17-.22.32-.53.33-.7.02-.19.03-.26.19-.26.07,0,.17.01.3.03.1.01.19.02.27.02.43,0,.75-.19,1.09-.63.22-.28.38-.39.61-.39.01,0,.03,0,.05,0,0,0,0,0,.01,0,.2,0,.96-.27,1.7-.6.76-.34,1.52-.63,1.69-.64.03,0,.06,0,.08,0M78.79,50.32c-.05,0-.12,0-.19,0-.17.01-.64.04-2.32.79-.52.23-.95.39-1.14.45-.99.04-1.57.67-1.82.98-.11-.01-.23-.02-.34-.02-.79,0-1.62.45-1.88,1.45-.97.14-1.66.52-2.08,1.77,0-.01,0-.01,0-.01,0,0-.01,0-.02.01-.33.22-1.72.66-2.22.68h-.07c-.67,0-1.46-.29-1.7-.48-.72-.59-1.38-.89-1.97-.89h-.12c-2.2.15-5.19,5.46-5.76,6.52-.75,1.38-2.22,4.85-2.28,6.17l-.02.55-.06,1.22,1.13.48,1.34.57c.3.41.52,1.89.63,2.61.15.97.27,1.8.58,2.46.33.7.88,1.88,2.17,1.88h.38l.37-.16c.21-.1.45-.2,1.7-1.42,1.96-1.9,5.2-6.9,8.62-12.18,1.57-2.43,3.19-4.45,5.24-6.55,2.22-2.28,2.83-2.94,3.29-3.75.23-.41.72-1.26.18-2.2-.16-.27-.64-.91-1.65-.91h0Z" fill="#eaaa00"/>
        </g>
        <g>
          <path d="M60.35,52.48c0-.45-.05-.77-.11-.84-.01-.02-.02-.05.02-.06.2-.07.39-.13.59-.2.03,0,.04.01.03.04-.07.13-.15.43-.17.92-.04.95-.07,1.89-.09,2.83-.16.06-.32.12-.48.17-.39-.42-.78-.85-1.18-1.27-.04.58-.07,1.16-.1,1.74-.16.06-.32.12-.48.18-.64-.69-1.3-1.36-1.96-2.03-.28-.29-.54-.53-.73-.61-.03-.01-.03-.04,0-.06.32-.13.63-.26.95-.39.05-.02.06-.01.06.03.04.15.27.41.55.7.46.48.91.97,1.36,1.45.02-.43.04-.87.07-1.3-.17-.17-.33-.34-.5-.51-.28-.29-.53-.55-.69-.64-.04-.02-.03-.04,0-.06.29-.11.58-.22.86-.33.04-.02.05,0,.07.03.03.13.17.33.39.57,0-.37-.06-.61-.12-.67-.02-.02-.02-.05.02-.06.16-.06.32-.12.48-.17.03-.01.04.01.03.04-.07.13-.12.41-.16.93,0,.06,0,.13-.01.19.43.45.86.91,1.28,1.36,0-.66,0-1.33.01-1.99Z" fill="#9d2235"/>
          <path d="M62.18,54.64c-.2.07-.4.13-.6.2-.03.01-.04-.01-.02-.05.06-.13.13-.41.19-.93.11-.96.23-1.93.36-2.89.19-.06.37-.12.56-.17.61.72,1.21,1.45,1.8,2.19.24.3.49.56.65.67.02.02.04.06,0,.07-.32.09-.65.19-.97.28-.05.01-.06,0-.08-.05-.03-.14-.22-.41-.48-.73-.06-.08-.13-.16-.19-.23-.42.13-.83.26-1.24.39-.01.11-.02.22-.03.33-.05.46.03.78.09.85.01.02,0,.05-.03.06ZM62.18,53.13c.35-.11.7-.22,1.05-.33-.29-.36-.59-.72-.89-1.08-.06.47-.11.94-.16,1.41Z" fill="#9d2235"/>
          <path d="M65.59,53.6c-.05.01-.06-.01-.05-.04.04-.1.01-.38-.08-.71-.18-.64-.36-1.28-.54-1.92-.09-.34-.21-.59-.3-.65-.02-.02-.03-.04.02-.06.34-.09.68-.19,1.02-.28.05-.01.06.01.05.04-.05.1-.02.38.07.71.2.75.4,1.49.6,2.24.04.15.06.16.19.12.14-.04.28-.07.43-.11.42-.11.72-.47.84-.65.04-.05.11-.05.11-.02,0,.2,0,.41,0,.61,0,.09-.05.11-.09.12-.76.19-1.52.39-2.28.6Z" fill="#9d2235"/>
          <path d="M70.56,48.81c.07-.01.12-.02.14.07.04.17.07.33.11.5-.01.01-.05.03-.09.02-.21-.1-.57-.24-.85-.18-.18.04-.36.08-.54.11.18.81.35,1.62.53,2.44.08.4.19.6.28.66.02.02.03.05-.02.06-.35.07-.69.15-1.04.23-.05.01-.06-.02-.04-.04.06-.1.07-.32-.02-.72-.18-.81-.37-1.62-.55-2.43-.18.04-.36.08-.54.12-.28.07-.55.35-.69.52-.02.03-.07.03-.09.02-.04-.17-.07-.33-.11-.5-.02-.09.04-.1.09-.12,1.14-.28,2.28-.53,3.43-.76Z" fill="#9d2235"/>
          <path d="M73.67,48.25c.09-.02.12-.01.13.07.03.15.05.31.08.46-.02.02-.07.03-.1.02-.16-.11-.54-.22-.85-.16-.23.04-.47.08-.7.12.08.44.16.88.23,1.32.23-.04.46-.08.69-.12.23-.04.46-.19.53-.21.02,0,.03,0,.04.01.03.16.05.31.08.47,0,0-.02.01-.03.02-.07,0-.29-.07-.56-.03-.23.04-.46.08-.68.12.07.4.14.79.21,1.19.03.15.03.16.18.14.17-.03.35-.06.52-.09.42-.07.75-.42.87-.56.03-.04.11-.05.11,0-.01.2-.02.39-.04.59,0,.09-.07.11-.1.11-.8.13-1.59.26-2.39.41-.05,0-.05-.02-.04-.04.06-.1.04-.37-.02-.72-.12-.65-.25-1.31-.37-1.96-.06-.34-.15-.61-.25-.67-.02-.02-.03-.05.03-.06.81-.16,1.63-.3,2.45-.43Z" fill="#9d2235"/>
          <path d="M75.02,50.82c-.08-.78-.17-1.57-.25-2.35-.05-.07-.18-.24-.26-.29-.03-.02-.02-.04.01-.05.31-.05.62-.09.93-.13.08-.01.09,0,.14.06.52.79,1.03,1.59,1.53,2.39.26-.83.53-1.67.82-2.5.09-.25.11-.26.24-.27.26-.03.52-.05.78-.07.04,0,.04.02.03.05-.09.14-.08.45-.03.82.08.62.15,1.25.23,1.87.06.45.11.62.19.7.02.02.02.05-.02.05-.33.03-.66.06-.99.09-.05,0-.05-.02-.03-.05.06-.09.09-.28.03-.72-.09-.66-.17-1.33-.26-1.99-.33.96-.65,1.92-.95,2.88-.07.03-.35.06-.39.05-.53-.85-1.07-1.69-1.63-2.53.07.65.14,1.3.21,1.95.04.39.14.62.19.7.02.02.02.05-.02.05-.16.02-.33.05-.49.07-.03,0-.04-.02-.03-.05.03-.09.06-.35.02-.73Z" fill="#9d2235"/>
          <path d="M82.39,47.37c.09,0,.12,0,.12.09,0,.15.02.31.03.46-.02.02-.07.03-.1,0-.15-.13-.51-.28-.82-.26-.24.01-.47.03-.71.04.03.44.06.89.09,1.33.23-.02.46-.03.69-.04.24-.01.47-.14.54-.15.02,0,.03.01.04.01,0,.16.02.32.02.48,0,0-.02.01-.03.01-.07,0-.28-.1-.55-.09-.23.01-.46.03-.69.04.03.4.05.8.08,1.21,0,.16.02.17.16.16.18-.01.35-.02.53-.03.42-.02.79-.33.92-.46.04-.04.11-.03.11,0-.03.2-.07.39-.1.58-.02.09-.08.1-.11.1-.8.04-1.61.09-2.41.15-.05,0-.05-.02-.04-.05.07-.09.09-.36.06-.71-.05-.66-.1-1.33-.15-1.99-.03-.35-.09-.62-.17-.7-.02-.02-.02-.05.03-.05.82-.06,1.65-.11,2.47-.15Z" fill="#9d2235"/>
          <path d="M85.2,50.8c-.35,0-.7.01-1.04.02-.05,0-.05-.03-.03-.05.07-.09.12-.31.11-.71,0-.21,0-.43-.02-.64-.29-.46-.59-.91-.9-1.36-.25-.36-.41-.54-.54-.65-.02-.01-.03-.05.02-.05.39-.02.77-.03,1.16-.04.05,0,.05.02.05.05,0,.16.1.32.29.63.21.34.42.68.63,1.02.19-.35.39-.69.58-1.03.22-.39.25-.56.21-.64,0-.03,0-.05.04-.05.23,0,.45,0,.68,0,.03,0,.04.03.01.05-.11.09-.3.26-.53.64-.29.46-.57.93-.84,1.4,0,.22,0,.45,0,.67,0,.4.06.62.14.71.02.02.02.05-.03.05Z" fill="#9d2235"/>
          <path d="M89.39,47.36c.09,0,.12.01.11.1,0,.16,0,.31-.01.46-.02.01-.07.02-.1,0-.14-.15-.49-.32-.8-.33-.24,0-.47-.01-.71-.02-.01.45-.02.89-.03,1.34.23,0,.46.01.69.02.23,0,.49-.09.55-.1.02,0,.03.01.03.02,0,.16-.01.32-.02.48,0,0-.02.01-.04,0-.07-.01-.27-.13-.54-.14-.23,0-.46-.01-.69-.02,0,.4-.02.81-.03,1.21,0,.16,0,.17.14.17.18,0,.35,0,.53.02.42.01.82-.26.96-.38.04-.04.11-.02.11.02-.05.19-.1.38-.15.57-.03.09-.09.09-.12.09-.8-.03-1.61-.06-2.41-.07-.05,0-.05-.03-.03-.05.07-.09.12-.36.12-.71,0-.66.02-1.33.02-1.99,0-.35-.03-.62-.11-.71-.02-.02-.02-.05.04-.05.83,0,1.65.03,2.48.07Z" fill="#9d2235"/>
          <path d="M93.27,51.17c-.23-.02-.46-.08-.65-.2-.26-.16-.51-.47-.67-.74-.15-.24-.26-.48-.38-.7-.14,0-.37-.02-.49-.04-.02.24-.03.47-.05.71-.02.34,0,.62.06.71.02.02.01.05-.04.05-.33-.02-.66-.04-.99-.06-.05,0-.05-.03-.03-.05.08-.08.13-.35.15-.7.04-.66.07-1.33.11-1.99.02-.35,0-.62-.08-.71-.02-.02-.01-.05.04-.05.55.03,1.1.06,1.65.11.55.04,1.39.26,1.31,1.05-.05.55-.54.77-.82.87.1.2.25.45.44.76.35.54.57.79.76.94.04.03.03.06,0,.06-.07,0-.19,0-.33-.02ZM91.1,49.24c.1.02.27.04.47.05.4.02.7-.15.75-.77.05-.59-.32-.76-.63-.78-.16-.01-.33-.02-.49-.03-.03.51-.07,1.02-.1,1.54Z" fill="#9d2235"/>
          <path d="M98.26,48.28s0-.05.02-.05c.19.03.39.06.58.09.03,0,.03.03,0,.05-.08.08-.19.29-.25.69-.08.51-.17,1.02-.25,1.53-.12.72-.62,1.19-1.68,1.03-1.23-.17-1.48-.84-1.41-1.44.06-.53.13-1.06.19-1.59.04-.34.04-.62-.03-.72-.01-.02-.01-.05.04-.05.35.04.69.09,1.04.13.05,0,.05.04.03.05-.09.08-.15.35-.2.69-.07.52-.14,1.05-.21,1.57-.07.51.15.89.79.98.63.09,1.02-.15,1.12-.77.08-.5.16-.99.24-1.49.06-.4.02-.64-.02-.73Z" fill="#9d2235"/>
          <path d="M99.7,48.82c-.04-.05-.2-.29-.24-.34-.01-.01,0-.04.03-.05.3.05.61.11.91.16.09.02.1.03.15.09.54.89,1.05,1.79,1.55,2.7.11-.53.23-1.07.34-1.6.08-.39.05-.64.02-.73-.01-.03,0-.05.02-.05.2.04.39.08.59.13.02,0,.02.03,0,.05-.08.08-.2.28-.29.67-.19.89-.39,1.78-.58,2.68-.05,0-.38-.06-.41-.09-.57-1.05-1.18-2.1-1.81-3.14-.12.65-.23,1.29-.35,1.94-.07.4-.04.64,0,.73.01.03,0,.05-.02.05-.19-.03-.38-.07-.56-.1-.02,0-.02-.03,0-.05.08-.08.19-.29.26-.68.14-.79.28-1.57.42-2.36Z" fill="#9d2235"/>
          <path d="M104.17,52.22c-.08.34-.11.62-.06.71.01.03,0,.05-.04.04-.33-.08-.66-.16-.99-.24-.05-.01-.04-.04-.02-.06.09-.07.19-.33.27-.66.15-.65.3-1.3.45-1.94.08-.34.1-.62.04-.72-.01-.02,0-.05.05-.04.35.08.69.16,1.03.25.05.01.04.04.02.06-.1.07-.2.32-.28.66-.16.65-.32,1.29-.47,1.94Z" fill="#9d2235"/>
          <path d="M108.94,50.67c.06.02.12.04.09.13-.05.17-.09.33-.14.5-.02,0-.06,0-.08-.03-.13-.19-.39-.48-.67-.56-.18-.05-.35-.1-.53-.15-.23.8-.45,1.6-.68,2.4-.11.39-.11.62-.06.72.01.03,0,.05-.05.04-.34-.1-.68-.19-1.03-.28-.05-.01-.04-.04-.02-.06.1-.06.21-.25.32-.65.22-.8.44-1.6.65-2.4-.18-.05-.36-.1-.53-.14-.28-.07-.65.05-.86.14-.03.01-.07,0-.08-.02.05-.17.09-.33.14-.5.03-.09.08-.08.14-.06,1.14.29,2.27.6,3.4.94Z" fill="#9d2235"/>
          <path d="M111.97,51.65c.09.03.11.04.08.13-.05.15-.1.29-.15.44-.02,0-.07,0-.1-.03-.09-.18-.38-.45-.68-.55-.23-.08-.46-.15-.68-.23-.14.42-.28.85-.41,1.27.22.07.45.15.67.22.23.08.5.05.57.06.02,0,.02.02.03.03-.05.15-.1.3-.15.45,0,0-.02,0-.04,0-.06-.03-.23-.2-.49-.29-.22-.07-.44-.15-.67-.22-.12.38-.25.77-.37,1.15-.05.15-.05.16.09.2.17.06.34.11.51.17.41.14.87-.01,1.04-.08.05-.02.12.01.11.05-.1.17-.21.34-.31.51-.05.08-.11.06-.14.05-.77-.27-1.54-.52-2.32-.76-.05-.01-.04-.04-.02-.06.1-.06.21-.31.32-.64.2-.63.4-1.27.59-1.9.1-.33.15-.61.1-.71,0-.03,0-.05.05-.04.8.25,1.59.51,2.38.78Z" fill="#9d2235"/>
          <path d="M111.61,55.19c.1-.06.23-.3.35-.63.22-.63.45-1.25.68-1.88.12-.33.17-.6.13-.71,0-.03,0-.05.05-.03.57.2,1.14.42,1.71.63,1.28.5,1.59,1.45,1.24,2.29-.4.96-1.29,1.45-2.51.98-.54-.21-1.08-.41-1.62-.6-.05-.02-.04-.04-.02-.06ZM112.71,55.36c.17.06.33.12.5.19.75.29,1.28-.21,1.62-1.04.28-.71.23-1.45-.55-1.75-.21-.08-.42-.16-.63-.24-.33.89-.67,1.78-1,2.68-.04.09-.04.13.07.17Z" fill="#9d2235"/>
        </g>
      </g>
      <g>
        <g>
          <path d="M163.2,263.66c-1.74-2.06-3-2.94-4.23-3.8-1.11-.78-2.16-1.51-3.36-2.97l-.42-.51.37-.54c.66-.97,1.25-1.89,1.8-2.81,3.52-5.94,6.72-14.04,6.29-33-.05-2.15-.28-4.4-.7-6.71-1.41-7.86-4.59-14.71-7.02-19.08-1.08-1.43-2.49-3.8-3.25-5.08-.23-.38-.39-.65-.45-.74l-.41-.6.49-.53c2.24-2.29,4.42-4.27,6.01-5.71,1.01-.92,1.8-1.64,2.23-2.09l.64-.68.64.68c.27.29.55.6.83.93,2.5,2.93,10.81,14.13,12.77,35.16.67,7.2.49,14.76-.52,22.5,2.73-2.68,8.07-7.94,14.26-14.12,2.45-2.44,5.05-5.05,7.72-7.74l.62-.63.62.63c2.67,2.69,5.28,5.3,7.72,7.74,6.19,6.18,11.53,11.44,14.26,14.12-1.02-7.74-1.19-15.29-.52-22.5,1.96-21.03,10.27-32.23,12.77-35.16.28-.33.56-.64.83-.93l.64-.68.64.67c.42.45,1.22,1.17,2.22,2.09,1.59,1.45,3.77,3.43,6.01,5.72l.53.54-.45.6c-.19.25-.38.53-.59.82-1,1.43-2.07,3.14-3.07,4.94-2.43,4.37-5.63,11.24-7.06,19.13-.42,2.31-.65,4.57-.7,6.71-.43,18.96,2.77,27.07,6.29,33,.55.93,1.14,1.85,1.8,2.81l.37.54-.42.51c-1.19,1.46-2.25,2.2-3.36,2.97-1.23.86-2.49,1.74-4.23,3.8l-.59.7-.67-.62c-2.81-2.58-18.46-17.14-33.05-30.76-14.54,13.56-30.19,28.12-33.05,30.76l-.68.62-.59-.7Z" fill="#9d2235"/>
          <path d="M233.85,180.09c1.14,1.2,4.59,4.09,8.25,7.82-.19.26-.4.54-.6.84-.92,1.31-2,3.01-3.12,5.01-2.79,5.01-5.81,11.92-7.15,19.4-.4,2.24-.66,4.54-.71,6.85-.39,17.48,2.15,26.28,6.41,33.47.58.98,1.19,1.93,1.83,2.86-2.39,2.93-4.18,2.74-7.58,6.76-2.92-2.68-19.19-17.82-33.65-31.31-14.46,13.49-30.73,28.63-33.65,31.31-3.39-4.02-5.18-3.83-7.58-6.76.64-.94,1.25-1.88,1.83-2.86,4.26-7.19,6.81-15.99,6.41-33.47-.05-2.31-.31-4.61-.71-6.85-1.35-7.48-4.36-14.39-7.15-19.4-1.43-1.86-3.53-5.59-3.72-5.85,3.65-3.72,7.1-6.61,8.25-7.82.26.28.53.58.8.9,4.94,5.79,10.98,17.64,12.56,34.67.68,7.34.54,15.65-.88,24.84.88-.83,7.54-7.36,16.12-15.92,2.45-2.45,5.06-5.06,7.73-7.75,2.67,2.69,5.28,5.3,7.73,7.75,8.58,8.56,15.24,15.09,16.12,15.92-1.42-9.2-1.57-17.5-.88-24.84,1.58-17.02,7.62-28.88,12.56-34.67.27-.32.54-.62.8-.9M161.21,177.52l-1.28,1.35c-.4.42-1.19,1.14-2.18,2.05-1.6,1.45-3.78,3.45-6.04,5.75l-1.06,1.08.88,1.18c.07.11.22.36.41.69.76,1.28,2.16,3.64,3.27,5.11,2.39,4.32,5.51,11.04,6.9,18.75.41,2.27.64,4.48.69,6.58.42,18.74-2.72,26.71-6.17,32.53-.54.91-1.12,1.81-1.77,2.77l-.74,1.09.83,1.02c1.27,1.56,2.42,2.36,3.53,3.14,1.18.82,2.4,1.67,4.06,3.64l1.18,1.4,1.35-1.24c2.74-2.51,18-16.72,32.46-30.2,14.45,13.48,29.72,27.68,32.46,30.2l1.35,1.24,1.18-1.4c1.66-1.97,2.88-2.82,4.06-3.64,1.11-.78,2.26-1.58,3.53-3.14l.83-1.02-.74-1.09c-.65-.95-1.23-1.86-1.77-2.77-3.45-5.82-6.59-13.79-6.17-32.53.05-2.1.28-4.31.69-6.58,1.4-7.78,4.56-14.55,6.96-18.86.99-1.78,2.03-3.46,3.02-4.86.2-.28.39-.55.57-.8l.9-1.21-1.06-1.08c-2.26-2.3-4.44-4.29-6.04-5.75-1-.91-1.78-1.62-2.18-2.05l-1.28-1.35-1.28,1.36c-.28.3-.57.62-.86.96-2.54,2.98-10.99,14.36-12.97,35.65-.6,6.49-.53,13.27.23,20.2-2.96-2.91-7.43-7.33-12.47-12.36-2.45-2.44-5.05-5.05-7.72-7.74l-1.25-1.26-1.25,1.26c-2.67,2.69-5.27,5.3-7.72,7.74-5.03,5.02-9.51,9.45-12.47,12.36.75-6.93.83-13.7.23-20.2-1.98-21.28-10.43-32.66-12.97-35.64-.29-.34-.58-.66-.86-.96l-1.27-1.36h0Z" fill="#eaaa00"/>
        </g>
        <g>
          <path d="M195.04,209.82c-2.88,0-5.28-.07-7.14-.21-3.46-.26-6.42-2.54-7.56-5.82-7.18-20.67-11.3-27.03-13.49-28.71l-.85-.66.81-.7c1.92-1.67,4.38-3.99,6.54-6.04,1.07-1.01,2.08-1.97,2.94-2.77l1.52-1.41-.05,2.07c-.06,2.52,4.26,19.1,9.2,31.63.98,2.49,3.25,4.17,5.9,4.38.92.07,1.99.11,3.3.11,1.24,0,2.52-.03,3.77-.06.84-.02,1.66-.04,2.45-.05,1.64-.02,5.55-.48,6.6-4.29l8.35-33.4,1.09,1.01c2.45,2.27,6.79,6.19,9.81,8.81l.81.7-.85.66c-4.11,3.16-8.84,18.3-11.97,28.31-1.09,3.48-4.27,5.92-7.91,6.08-3.48.15-8.6.34-13.28.34h0Z" fill="#eaaa00"/>
          <path d="M217.83,165.56c2.61,2.42,6.95,6.32,9.83,8.83-4.31,3.32-9.03,18.38-12.28,28.75-.98,3.14-3.82,5.32-7.1,5.47-3.69.16-8.68.34-13.24.34-2.6,0-5.07-.06-7.07-.2-3.11-.23-5.77-2.28-6.8-5.23-3.54-10.19-9.42-25.76-13.79-29.12,2.88-2.51,6.89-6.41,9.51-8.83-.06,2.91,4.44,19.74,9.26,31.98,1.1,2.78,3.67,4.7,6.65,4.94,1.04.08,2.19.11,3.37.11,2.07,0,4.26-.09,6.22-.11,3.48-.04,6.52-1.58,7.44-4.94l8-31.98M178.74,161.46l-3.04,2.82c-.86.8-1.87,1.76-2.95,2.77-2.16,2.04-4.61,4.36-6.52,6.02l-1.62,1.41,1.7,1.31c1.72,1.32,5.71,6.76,13.2,28.31,1.25,3.61,4.52,6.12,8.33,6.4,1.88.14,4.3.21,7.2.21,4.69,0,9.83-.18,13.32-.34,4.01-.18,7.51-2.87,8.7-6.7,2.91-9.31,7.79-24.89,11.67-27.88l1.7-1.31-1.62-1.41c-3.02-2.63-7.35-6.53-9.79-8.79l-2.18-2.02-.72,2.88-8,31.98c-.84,3.08-3.97,3.58-5.75,3.61-.79.01-1.61.03-2.45.05-1.24.03-2.52.06-3.74.06s-2.34-.03-3.23-.11c-2.32-.18-4.3-1.65-5.16-3.83-4.91-12.44-9.2-28.83-9.14-31.29l.09-4.15h0Z" fill="#9d2235"/>
        </g>
      </g>
    </g>
  </g>
</svg>