<?xml version="1.0" encoding="UTF-8"?>
<svg id="Layer_2" data-name="Layer 2" xmlns="http://www.w3.org/2000/svg" xmlns:xlink="http://www.w3.org/1999/xlink" viewBox="0 0 248.04 217.08">
  <defs>
    <clipPath id="clippath">
      <path d="M192.43,7.41c-2-.6-3.45-1.56-3.9-2.49l-2.05,5.81c3.83,1.35,7.86,2.85,12.22,4.5,1.81.53,2.98.43,3.18-.27.44-1.48-3.25-5.69-9.45-7.55Z" fill="#eaaa00"/>
    </clipPath>
    <clipPath id="clippath-1">
      <path d="M221.91,21.12l9.88-8.51c-1.69.39-5.67.96-10.12-.82-5.64-2.25-19.66-6.68-27.47-8.18-3.58-.69-5.11-.19-5.38.47l-.04.12c-.15.8,1.19,2.07,3.76,2.84,2.79.84,5.4,2.25,7.35,3.98,1.74,1.55,2.65,3.1,2.37,4.06,0,.02-.02.04-.03.07l.11.03-2.32,8.7c2.78.93,18.12,5.97,28.64,7.12l-6.88-9.75.13-.12Z" fill="#eaaa00"/>
    </clipPath>
    <clipPath id="clippath-2">
      <path d="M59.32,5.13c-.56.86-1.92,1.73-3.77,2.28-6.2,1.86-9.89,6.07-9.45,7.55.21.7,1.37.8,3.2.27,4.02-1.52,7.75-2.91,11.3-4.18h-.03s-1.25-5.92-1.25-5.92Z" fill="#9d2235"/>
    </clipPath>
    <clipPath id="clippath-3">
      <path d="M26.3,11.79c-4.44,1.78-8.43,1.2-10.12.82l10.02,8.62-6.88,9.75c10.95-1.2,26.85-6.6,28.62-7.21l-2.29-8.61.1-.03s-.02-.05-.03-.07c-.55-1.86,3.58-6.2,9.71-8.04,2.26-.68,3.57-1.74,3.75-2.53l-.13-.6c-.46-.56-2.03-.91-5.28-.29-7.77,1.49-21.81,5.92-27.48,8.18Z" fill="#eaaa00"/>
    </clipPath>
  </defs>
  <g id="Layer_1-2" data-name="Layer 1">
    <g>
      <g>
        <path d="M168.32,31.47c-2.91-.06-3.93-1.2-5.55-3.78-3.34-5.31-10.68-11.27-15.7-12.75-1.4-.41-2.73-.75-3.06-.81l-7.65-1.35,7.53-3.19c1.19-.5,2.62-.76,4.27-.76,4.34,0,9.98,1.81,15.1,4.83,1.82,1.08,13.85,9.09,13.6,12.93-.2,3.03-5.54,4.88-8.38,4.88h-.16Z" fill="#9d2235"/>
        <path d="M148.16,10.86c3.9,0,9.15,1.64,14.07,4.55,5.67,3.35,12.71,9.52,12.61,11.05-.08,1.28-3.74,2.98-6.35,2.98-.04,0-.08,0-.12,0-1.85-.04-2.35-.4-3.88-2.84-3.62-5.76-11.33-11.99-16.84-13.61-1.3-.38-2.78-.77-3.28-.86l-.91-.16,1.22-.52c.95-.4,2.13-.6,3.47-.6M148.16,6.8h0c-1.92,0-3.62.31-5.06.92l-1.22.52-12.61,5.34,13.48,2.4.91.16c.26.05,1.47.35,2.84.76,4.55,1.34,11.48,7,14.55,11.88,1.71,2.72,3.23,4.65,7.23,4.73h.21c3.57,0,10.1-2.26,10.4-6.78.13-1.94-.75-3.99-5.51-8.16-2.82-2.47-6.21-4.96-9.08-6.65-5.5-3.25-11.38-5.11-16.14-5.11h0Z" fill="#eaaa00"/>
      </g>
      <g>
        <path d="M2.03,161.18c-.06-6,2.41-13.93,5.52-17.7.37-.45.69-.97.76-1.12,1.33-3.63,15.19-5.99,15.33-6.01,1.82-.3,4.55-.83,6.09-1.19,4.64-1.08,7.17-1.43,10.4-1.43.57,0,1.17.01,1.79.03.88.03,1.58.05,2.12.05.64,0,.95-.03,1.09-.05.85-.78,2.15-1.13,3.09-1.13,2.2,0,11.46,1.15,16.32,1.96l5.35.89,4.12,3.26c.64.5,3.84,3.04,4.26,3.48l.94.96-.5,1.3c-.59,1.41-2.07,1.41-3.51,1.41-.81,0-1.88-.03-3.28-.09-23.91-1.04-25.86-1.18-27.29-2.89-.42.07-1.03.2-1.59.32-1.67.35-4.07.68-5.46.75-1.25.06-2.6.4-3.22.68-3.29,1.49-16.15,4.15-20.53,4.26l-1.01.02-1.59,2.89c-2.45,4.43-2.92,5.49-4.22,9.44l-4.83,14.67-.15-14.78Z" fill="#9d2235"/>
        <path d="M48.22,134.67c1.92,0,10.92,1.09,15.99,1.94l4.83.81,3.71,2.94c2.04,1.62,3.87,3.1,4.07,3.3.15.15-.38.23-1.61.23-.78,0-1.84-.03-3.19-.09-23-1-25.09-1.2-26-2.39-.29-.38-.44-.56-.93-.56-.44,0-1.14.14-2.46.42-1.55.33-3.87.64-5.14.71-1.36.07-2.99.42-3.96.86-3.04,1.37-15.67,3.98-19.75,4.08l-2.17.05-2.16,3.92c-2.51,4.56-3.02,5.7-4.37,9.79l-1,3.03-.03-2.52c-.06-5.52,2.24-12.98,5.05-16.38.47-.57.96-1.32,1.08-1.67.48-1.32,7.42-3.71,13.77-4.75,1.86-.3,4.66-.85,6.23-1.22,4.36-1.02,6.82-1.38,9.94-1.38.55,0,1.12.01,1.72.03.91.03,1.63.05,2.2.05,1.58,0,2.02-.14,2.42-.54.35-.35,1.14-.63,1.75-.63M48.22,130.61c-1.34,0-2.75.44-3.83,1.17-.09,0-.21,0-.34,0-.47,0-1.1-.01-2.06-.05-.65-.02-1.27-.03-1.86-.03-3.37,0-6.11.38-10.86,1.49-1.47.34-4.2.88-5.96,1.16-3.24.53-6.8,1.42-9.75,2.44-4.28,1.48-6.3,2.82-7.1,4.73-.08.14-.28.44-.48.68C2.56,146.34-.07,154.69,0,161.2l.03,2.52.25,24.5,7.66-23.27,1-3.03c1.26-3.83,1.68-4.77,4.07-9.1l1.03-1.87c4.78-.17,17.68-2.86,21.16-4.43.39-.17,1.49-.45,2.49-.5,1.48-.07,4.01-.42,5.77-.79.2-.04.41-.08.61-.13,1.55,1.08,3.6,1.36,6.28,1.6,3.54.33,9.49.61,21.48,1.14,1.43.06,2.53.09,3.37.09,1.49,0,4.27,0,5.38-2.65.64-1.53.3-3.29-.87-4.48-.12-.13-.52-.53-4.44-3.64l-3.71-2.94-.82-.65-1.03-.17-4.83-.81c-4.99-.83-14.31-1.99-16.66-1.99h0Z" fill="#eaaa00"/>
      </g>
      <g>
        <path d="M213.31,191.25c1.56-3.18,2.45-5.9,3.18-9.73.22-1.13.44-2.3.59-3.05-3.39-2.21-12.66-14.39-15.35-19.35-.48-.89-.94-1.7-1.29-2.31-1.55.73-4.07.86-9.31.86-2.11,0-4.72-.03-7.99-.07-11.2-.16-13-.27-16-.98-3.67-.87-7.45-1.76-7.22-5.13.18-2.49,2.28-4.88,4.9-5.55,1.09-.28,5.51-.85,9.12-1.24,4.92-.53,9.43-.8,13.41-.8,5.39,0,9.85.5,13.26,1.47,1.23.35,3.04.87,3.31,2.82.21.13.6.35,1.3.69,3.13,1.54,8.31,6.45,9.72,9.21.25.5,1.1,1.59,1.81,2.25,2.21,2.07,5.55,6.56,7.15,9.61,1.32,2.53,1.48,3.27,1.21,5.67-.83,7.63-3.47,13.98-7.64,18.37l-11.43,12.04,7.25-14.78Z" fill="#9d2235"/>
        <path d="M187.36,145.93c5.19,0,9.46.47,12.7,1.39,1.57.45,1.87.67,1.87,1.37s.46,1.06,2.4,2.01c2.71,1.33,7.6,5.95,8.81,8.32.39.77,1.4,2.03,2.23,2.81,2.06,1.93,5.24,6.2,6.73,9.07,1.14,2.18,1.21,2.52,1,4.51-.79,7.23-3.21,13.1-7.09,17.19l-2.27,2.4,1.4-2.85c1.65-3.36,2.59-6.22,3.35-10.24.31-1.61.63-3.28.73-3.72.12-.6-.09-.92-.89-1.33-2.3-1.19-11.85-13.26-14.8-18.7-.9-1.66-1.86-3.32-2.12-3.68-.23-.31-.35-.46-.5-.46-.16,0-.34.17-.69.52-.82.82-2.37,1.1-9.08,1.1-2.1,0-4.7-.03-7.95-.07-10.96-.16-12.76-.26-15.56-.92-4.48-1.06-5.75-1.73-5.66-3.01.11-1.61,1.62-3.28,3.38-3.73.84-.22,4.82-.75,8.83-1.18,4.88-.53,9.29-.79,13.19-.79M187.36,141.87v4.06-4.06c-4.04,0-8.63.27-13.63.81-2.62.28-7.97.92-9.41,1.29-3.48.9-6.17,4-6.41,7.37-.36,5.09,4.92,6.34,8.78,7.25,3.33.79,5.54.88,16.44,1.03,3.59.05,6.06.07,8.01.07,3.86,0,6.45-.06,8.35-.46.15.27.31.56.47.85,2.39,4.42,10.47,15.33,14.9,19.2-.11.58-.24,1.22-.36,1.85-.7,3.68-1.52,6.17-3.01,9.21l-1.4,2.85-11.71,23.87,18.3-19.29,2.27-2.4c4.47-4.71,7.3-11.47,8.18-19.55.32-2.95-.02-4.11-1.43-6.83-1.71-3.28-5.17-7.93-7.56-10.16-.59-.55-1.24-1.42-1.39-1.7-1.62-3.16-7.08-8.36-10.63-10.11-.17-.09-.32-.16-.45-.22-.89-2.38-3.42-3.11-4.5-3.41-3.59-1.03-8.24-1.55-13.82-1.55h0Z" fill="#eaaa00"/>
      </g>
      <g>
        <path d="M35.92,197.1c-.85,0-1.37-.29-3.17-2.23-4.62-4.96-7.01-10.29-7.98-17.83l-.5-3.85,1.31-2.79c1.27-2.71,4.87-7.64,7.26-9.95.42-.41.74-.81.88-1.02.63-3.36,7.16-8.97,10.45-10.52.3-.14.52-.25.68-.34.06-.43.22-.86.48-1.24.86-1.28,2.78-2.57,10.94-3.3,1.49-.13,3.02-.2,4.67-.2,4.03,0,8.95.38,16.47,1.27,6.76.8,8.26,1.09,10.22,4.59l1.69,3.03-2.08,1.69c-1.66,1.34-7.42,2.56-9.95,2.93-2.07.31-10.56.42-15.77.42-2.56,0-8.7-.03-10.45-.27-.47-.07-1.38-.23-2.25-.62-.27.47-1.62,2.89-1.62,2.89-3.1,5.52-11.11,16.01-14.56,18.74.07.51.2,1.25.28,1.72.67,3.87,1.97,7.91,3.57,11.08,1.4,2.78,2.04,4.05.87,5.21l-.59.58h-.84Z" fill="#9d2235"/>
        <path d="M60.95,145.86c4,0,8.97.4,16.23,1.25,6.73.8,7.26,1.01,8.68,3.57l.86,1.54-.76.61c-.9.73-5.27,1.95-8.97,2.5-1.69.25-9.03.4-15.47.4-4.7,0-8.93-.08-10.17-.25-1.09-.15-2.07-.53-2.46-.96-.23-.25-.36-.46-.52-.46-.34,0-.85.99-2.94,4.71-3.3,5.88-11.99,16.97-14.44,18.42-.56.33-.56.58-.07,3.38.71,4.04,2.08,8.31,3.75,11.64.76,1.5,1.32,2.79,1.26,2.85,0,0,0,0-.01,0-.12,0-.85-.69-1.69-1.58-4.31-4.62-6.54-9.62-7.45-16.71l-.42-3.26,1.06-2.25c1.18-2.51,4.6-7.2,6.83-9.35.8-.77,1.45-1.67,1.45-1.98,0-1.84,5.75-7.5,9.34-9.18,1.47-.69,1.99-1.11,1.86-1.52-.46-1.48,2.83-2.57,9.55-3.18,1.4-.13,2.86-.19,4.49-.19M60.95,141.8s0,0,0,0c-1.72,0-3.3.07-4.85.21-8.51.76-11.13,2.23-12.44,4.2-.2.3-.37.62-.5.95-2.84,1.41-9.96,6.83-11.29,11.37-.11.13-.26.29-.43.46-2.58,2.49-6.31,7.62-7.69,10.55l-1.06,2.25-.5,1.07.15,1.17.42,3.26c1.02,7.89,3.64,13.73,8.51,18.95,1.66,1.78,2.78,2.88,4.66,2.88h1.69l1.2-1.2c2.18-2.18.99-4.54-.51-7.53-1.48-2.95-2.75-6.88-3.38-10.51-.03-.15-.06-.36-.1-.59,4.2-3.93,11.43-13.67,14.16-18.52l.7-1.25c.04-.07.07-.13.11-.2.38.09.73.15,1.02.19,1.71.24,6.77.29,10.72.29,4.87,0,13.73-.09,16.07-.44.08-.01,8.33-1.26,10.92-3.36l.76-.61,2.66-2.15-1.67-2.98-.86-1.54c-2.53-4.53-5.04-4.83-11.75-5.62-7.59-.9-12.59-1.28-16.71-1.28h0Z" fill="#eaaa00"/>
      </g>
      <g>
        <path d="M185.01,129.46c3.69-3.52,12.1-9.12,15.08-9.12.26,0,.51.03.75.09,1.77-.43,8.98-4.29,11.31-6.46,2.64-2.46,9.88-7.97,12.3-9.35.29-.16,1.58-.88,2.72-1.1.38-.44,1.09-1.53,2.13-3.26,2.5-4.18,3.2-5.59,4.96-10.1l5.86-15.05-1.1,16.15c-.4,5.9-2.61,12.24-5.77,16.54-.29.39-.5.71-.64.93-.07.54-.31,1.07-.56,1.56-1.22,2.36-12.77,11.68-15.78,13.03-.49.22-1.55.87-2.24,1.42-2.07,1.64-5.77,3.5-8.23,4.14-.71.19-1.52.65-1.71.82-.89.9-2.43,1.61-5.17,2.37-4.18,1.16-10.78,2.66-13.07,2.98l-7.84,1.09,7.02-6.69Z" fill="#9d2235"/>
        <path d="M237.19,88.22l-.2,2.9c-.37,5.48-2.47,11.51-5.38,15.48-.7.95-1.17,1.73-1.05,1.73s-.02.46-.31,1.03c-.93,1.8-11.99,10.84-14.81,12.11-.69.31-1.9,1.07-2.67,1.68-1.85,1.47-5.29,3.2-7.48,3.77-.96.25-2.15.86-2.64,1.36-.61.62-1.97,1.2-4.27,1.84-4.07,1.13-10.6,2.62-12.81,2.93l-1.6.22,2.46-2.34c4-3.81,11.69-8.56,13.68-8.56.14,0,.26.02.34.08.05.03.14.05.24.05,1.76,0,10.21-4.57,12.86-7.04,2.51-2.34,9.65-7.77,11.93-9.08.85-.49,1.9-.89,2.31-.89.59,0,1.33-.95,3.27-4.19,2.57-4.29,3.3-5.77,5.11-10.41l1.04-2.67M243.04,62.01l-9.63,24.73-1.04,2.67c-1.72,4.42-2.35,5.71-4.8,9.8-.8,1.34-1.29,2.09-1.59,2.52-1.07.33-2.04.84-2.53,1.12-2.56,1.46-9.91,7.04-12.68,9.63-1.92,1.79-7.94,5.08-10.1,5.85-.19-.02-.38-.03-.57-.03h0c-4.09,0-13.04,6.4-16.48,9.68l-2.46,2.34-9.13,8.7,12.49-1.74,1.6-.22c2.64-.37,9.45-1.96,13.33-3.04,3.04-.84,4.79-1.66,5.97-2.79.18-.12.6-.32.89-.4,2.74-.71,6.69-2.7,8.98-4.52.58-.46,1.5-1.02,1.81-1.16,3.17-1.42,15.2-10.96,16.75-13.95.18-.35.5-.96.68-1.72.1-.14.21-.31.35-.5,3.38-4.6,5.74-11.34,6.16-17.61l.2-2.9,1.8-26.48h0Z" fill="#eaaa00"/>
      </g>
      <g>
        <path d="M56.3,121.01c-.18-.01-.5-.03-2.7-.74-.64-.21-6.17-2.04-7.5-4.09-.14-.12-.48-.35-.83-.49-3.29-1.32-6.24-6.64-7.46-11.22-.32-1.19-.87-3.26-.28-4.77-1.73-2.66-3.89-8.36-4.45-10.2-.53-1.74-.81-3.7-.77-5.24.04-1.14.03-3.95-.02-6.15-.05-2.43.11-5.41.36-6.8.01-.08,1.62-8.25,3.39-9.34l.49-.3.64-.02c.59,0,1.15.25,1.55.69.79.87.72,1.58.28,6.25-.07.72,0,3.95.22,7.42.33,5.32.36,5.35.83,5.85,2.48,2.63,7.97,15.09,8.16,18.52.03.61.32,1.7.6,2.23.46.89,1.11,2.55,1.5,3.78.04.12.07.22.1.31,1.95.25,5.64,1.22,7.34,1.91.87.35,1.53,1.05,1.85,1.98.42,1.22.21,2.72-.58,4.1-.07.18-.25,1.1-.25,2.12,0,1.58-.02,4.22-2.31,4.22h-.15Z" fill="#9d2235"/>
        <path d="M37.17,63.66c.21,0,.16.95-.19,4.72-.09.93,0,4.41.22,7.74.37,5.92.4,6.07,1.38,7.12,2.18,2.31,7.44,14.24,7.61,17.24.05.89.42,2.27.82,3.05.4.78,1.02,2.34,1.37,3.46.37,1.18.67,1.76.91,1.76.04,0,.07-.01.11-.04.04-.03.12-.04.25-.04,1.12,0,5.42,1.04,7.34,1.82.94.38,1.06,1.8.27,3.19-.29.5-.51,1.86-.52,3.11,0,1.22-.13,2.21-.28,2.21h0c-.15-.01-1.15-.3-2.22-.65-3-.97-6.01-2.51-6.43-3.28-.2-.38-1-.95-1.77-1.26-2.26-.9-5.03-5.27-6.25-9.86-.66-2.47-.63-3.67.1-3.95.53-.2.52-.28-.14-.74-.83-.58-3.58-6.64-4.71-10.35-.46-1.52-.72-3.27-.68-4.59.04-1.17.03-3.99-.02-6.25s.1-5.14.33-6.39c.49-2.71,2.03-7.72,2.46-7.98.02-.01.05-.02.06-.02M37.17,59.6c-.77,0-1.53.22-2.2.63-1.37.85-1.97,2.14-2.95,5.33-.6,1.94-1.11,3.96-1.37,5.38-.31,1.74-.44,5.01-.39,7.2.05,2.18.06,4.94.02,6.04-.05,1.75.26,3.96.85,5.9.02.08,2.01,6.19,4.22,9.94-.31,1.94.23,4,.49,4.96,1.31,4.91,4.58,10.95,8.66,12.59.05.02.1.05.15.08,1.75,2.18,5.86,3.76,8.31,4.55,2.43.78,2.81.81,3.18.84h.15s.15.01.15.01c.38,0,3.71-.12,4.22-4.2.07-.58.11-1.29.12-2.04,0-.59.08-1.14.14-1.4.95-1.82,1.17-3.8.58-5.49-.51-1.48-1.58-2.62-3-3.19-1.43-.58-4.31-1.4-6.56-1.83-.41-1.16-.93-2.43-1.33-3.21-.14-.28-.36-1.1-.38-1.42-.21-3.95-5.74-16.54-8.63-19.72-.12-.79-.23-2.68-.36-4.66-.23-3.73-.27-6.57-.23-7.11.48-5.07.59-6.27-.8-7.8-.78-.86-1.89-1.35-3.05-1.35h0Z" fill="#eaaa00"/>
      </g>
      <g>
        <path d="M243.87,165.88c-1.69,0-2.06-1.29-2.96-4.41-.38-1.33-1.88-4.9-3.5-8.1l-2.24-4.43-1.17-.03c-2.67-.06-12.34-1.85-16.4-2.94-1.31-.35-3.03-.97-3.92-1.41-.47-.23-1.56-.53-3.1-.6-1.5-.07-3.91-.36-5.49-.67-.59-.12-1.29-.25-1.68-.3-1.55,1.41-4.07,1.78-14.75,2.23-4.5.19-10.42.45-13.16.58-1.29.06-2.35.09-3.17.09-1.42,0-2.89,0-3.46-1.43l-.51-1.29,1.03-.99c.79-.74,7.68-5.89,8.64-6.39,1.89-.98,18.2-3.17,21.41-3.17,1.12,0,2.47.4,3.3.98.07.05.24.17,1.72.17.47,0,1.01-.01,1.67-.03.26,0,.54-.01.83-.01,3.63,0,10.07.7,12.32,1.83.2.1.87.27,1.27.27,2.49,0,9.19,1.56,13.09,2.85,3.82,1.26,4.5,1.54,6.23,3.82,1.97,2.61,4.02,7.06,4.98,10.81.02.1,1.98,10.05.65,11.77l-.61.79-1.03.02Z" fill="#9d2235"/>
        <path d="M199.44,134.67c.69,0,1.65.28,2.13.61.56.4,1.18.54,2.89.54.48,0,1.05-.01,1.73-.03.25,0,.5-.01.77-.01,4,0,9.8.8,11.41,1.61.53.27,1.51.48,2.19.48,2.05,0,8.37,1.39,12.45,2.74,3.7,1.22,3.91,1.35,5.24,3.11,1.8,2.38,3.75,6.63,4.63,10.09.64,2.5,1.38,10.04.98,10.04-.09,0-.54-1.32-1.01-2.94-.46-1.61-2.1-5.42-3.64-8.45l-2.79-5.52-2.39-.05c-2.34-.05-11.66-1.73-15.92-2.87-1.17-.31-2.77-.89-3.54-1.27-.89-.44-2.33-.74-3.92-.81-1.38-.06-3.71-.35-5.18-.64-1.18-.23-1.85-.36-2.29-.36-.52,0-.74.17-1.13.53-1.04.96-3.79,1.31-13.48,1.72-4.5.19-10.43.45-13.17.58-1.27.06-2.31.09-3.08.09-1.12,0-1.68-.06-1.55-.19.76-.71,7.51-5.72,8.19-6.07,1.35-.7,16.96-2.94,20.47-2.94M199.44,130.61c-2.82,0-19.83,2.1-22.34,3.4-1.19.62-8.3,5.96-9.1,6.71l-2.01,1.89,1,2.61c1.07,2.71,3.85,2.71,5.34,2.71.85,0,1.95-.03,3.27-.09,2.73-.13,8.62-.39,13.14-.58,9.52-.39,13.02-.7,15.19-2.11.27.05.55.11.76.15,1.67.33,4.21.64,5.79.71,1.34.06,2.12.3,2.28.39,1.15.57,3.07,1.23,4.29,1.55,4.23,1.13,13.94,2.93,16.84,3.01l1.69,3.34c1.54,3.05,3.01,6.53,3.36,7.74.91,3.15,1.69,5.88,4.91,5.88h1.99l1.25-1.59c1.02-1.31,1.14-2.58.68-7.15-.1-1-.47-4.41-.97-6.36-1.02-3.98-3.21-8.72-5.33-11.53-2.07-2.74-3.2-3.2-7.21-4.52-4.12-1.36-11.02-2.95-13.73-2.95-.09,0-.32-.05-.44-.09-2.71-1.31-9.35-2-13.15-2-.3,0-.6,0-.88.01-.63.02-1.16.03-1.61.03s-.74-.01-.9-.02c-1.15-.69-2.72-1.13-4.12-1.13h0Z" fill="#eaaa00"/>
      </g>
      <g>
        <path d="M62.72,102.55c-1.02,0-1.79-.51-2.94-1.29l-.63-.42c-4.78-3.14-10.41-9.67-12.31-14.26l-2.05-4.94c-3.22-4.48-3.82-12.04-1.07-17.86.59-1.25,2.05-3.3,3.33-4.66.05-.05,5.1-5.33,7.62-5.33.9,0,1.68.5,2.03,1.29.16.25.74,1.03,1.59,2.02,4.2,4.9,5.95,10.22,4.82,14.59-.05.17-.08.33-.12.46.48.28,1.19.76,2.34,1.6l.55.41,2.98-3.85,1.69,5.77c.33,1.14.64,1.85.87,2.28.42-.48,1.04-1.01,1.95-1.01,2.05,0,2.33,2,2.58,3.77.04.33.47,1.45,1.02,2.31,1.02,1.58,2.17,3.38.48,4.6-.08.05-1.2.85-2.5,1.76-2.8,1.97-6.82,6.25-8.27,8.81l-.44.78c-1.02,1.84-1.76,3.17-3.51,3.17Z" fill="#9d2235"/>
        <path d="M54.66,55.83c.1,0,.16.03.19.11.08.25.94,1.37,1.9,2.49,3.77,4.4,5.36,9.03,4.39,12.76-.43,1.64-.44,2.09-.07,2.32.25.16.56.29.68.29.13,0,1.19.72,2.37,1.59l2.15,1.58,1.76-2.27.57,1.96c.82,2.79,1.75,4.21,2.74,4.21.44,0,.9-.29,1.36-.87.31-.39.51-.61.66-.61.25,0,.37.59.57,2.02.1.75.7,2.16,1.32,3.13.62.97,1.07,1.81,1,1.86-.07.05-1.19.84-2.48,1.74-3.03,2.13-7.29,6.67-8.87,9.47-1.17,2.06-1.54,2.92-2.18,2.92-.5,0-1.15-.51-2.46-1.37-4.4-2.9-9.82-9.15-11.55-13.34l-.56-1.34.9.23c.11.03.21.04.32.04.65,0,1.39-.6,3.69-2.83,1.71-1.65,3.51-3.27,3.99-3.6.48-.32.68-.59.43-.59-.98,0-3.36,1.53-5.52,3.56l-2.28,2.13-1.62-1.24c-4.16-3.18-5.36-11.51-2.52-17.52.51-1.07,1.84-2.93,2.97-4.14,2.17-2.32,5.33-4.69,6.14-4.69M54.66,51.77c-3.34,0-8.17,4.98-9.1,5.97-1.24,1.32-2.9,3.53-3.68,5.18-3.06,6.47-2.42,14.63,1.13,19.73l1.39,3.37.56,1.34c2.03,4.9,8.01,11.85,13.07,15.18.22.15.43.29.62.41,1.25.84,2.43,1.63,4.07,1.63,2.94,0,4.18-2.24,5.28-4.21.13-.23.27-.49.43-.77,1.28-2.27,5.15-6.38,7.67-8.15,1.31-.92,2.45-1.72,2.53-1.78.5-.37,2.83-2.31.96-5.79-.24-.44-.56-.99-.92-1.55-.35-.55-.65-1.3-.73-1.56-.24-1.69-.81-5.45-4.58-5.45-.32,0-.62.03-.9.09l-.55-1.86-2.24-7.63-4.21,5.43c-.07-.05-.13-.09-.2-.14.84-4.81-1.11-10.37-5.45-15.44-.68-.79-1.18-1.44-1.37-1.72-.71-1.39-2.17-2.3-3.79-2.3h0Z" fill="#eaaa00"/>
      </g>
      <g>
        <path d="M62.92,135.2c-1,0-2.57-.35-6.34-1.22-9.81-2.25-11.83-3.02-12.91-4.17-.14-.11-.99-.57-1.91-.85-2.62-.82-6.16-2.82-7.89-4.47-.26-.25-.6-.46-.75-.53-2.46-.51-8.27-5.2-10.68-7.23-5.72-4.8-7.05-6.44-7.23-7.84-.15-.33-.58-1.09-1.23-2.03-2.97-4.34-5.25-11.73-5.17-16.83l.19-13.29,4.65,13.31c1.08,3.1,3.46,7.92,5.65,11.44.77,1.24,1.17,1.79,1.37,2.02,3.95.76,15.39,10.79,15.51,10.9,1.33,1.19,2.98,2.31,4.11,2.78,1.31.55,3.36,1.61,4.66,2.4,1.31.8,1.68.87,1.76.88.2-.04.43-.07.68-.07,3.3,0,11.05,4.84,15.52,9.01,1.86,1.74,2.99,2.79,2.37,4.36-.17.43-.74,1.44-2.35,1.44Z" fill="#9d2235"/>
        <path d="M10.85,88.22l.87,2.48c1.13,3.25,3.56,8.18,5.84,11.84,1.46,2.35,1.99,2.94,2.67,2.94,1.46,0,8.73,5.2,14.58,10.42,1.51,1.35,3.33,2.57,4.68,3.14,1.21.51,3.19,1.53,4.4,2.26,1.38.84,2.16,1.17,2.82,1.17.13,0,.26-.01.38-.04.09-.02.19-.03.29-.03,2.42,0,9.69,4.32,14.14,8.47,1.7,1.59,2.43,2.28,1.41,2.28-.79,0-2.63-.42-5.89-1.17-8.21-1.89-11.11-2.76-11.89-3.59-.39-.42-1.65-1.05-2.79-1.4-2.3-.72-5.59-2.57-7.09-4-.54-.51-1.31-.98-1.72-1.05-1.22-.19-5.27-2.99-9.81-6.8-4.56-3.82-6.53-5.83-6.53-6.67,0-.28-.7-1.54-1.56-2.8-2.72-3.98-4.88-11-4.82-15.65l.03-1.83M7.13,65.24l-.34,22.92-.03,1.83c-.08,5.45,2.35,13.36,5.53,18,.45.66.78,1.21.96,1.53.43,2.07,2.37,4.13,7.88,8.75,5.21,4.36,8.97,6.9,11.2,7.56.05.04.11.08.14.11,1.95,1.86,5.77,4.03,8.68,4.94.54.17,1.04.41,1.27.54,1.57,1.49,4.26,2.36,13.7,4.53,4.1.94,5.58,1.27,6.8,1.27,2.33,0,3.72-1.41,4.24-2.72,1.13-2.86-.91-4.76-2.87-6.59-4.19-3.91-12.62-9.56-16.91-9.56-.15,0-.3,0-.44.02-.18-.09-.48-.25-.94-.54-1.38-.84-3.54-1.95-4.93-2.53-.76-.32-2.2-1.22-3.55-2.43-2.89-2.58-6.27-5.3-9.28-7.44-3.35-2.39-5.19-3.37-6.41-3.76-.18-.27-.44-.67-.82-1.27-2.12-3.42-4.42-8.07-5.46-11.04l-.87-2.48-7.56-21.64h0Z" fill="#eaaa00"/>
      </g>
      <g>
        <path d="M179.7,212.15c-1.5,0-2.74-.25-3.94-1.44-1.42-1.42-2.15-3.56-2.1-6.17.09-4.93,2.86-10.77,6.89-14.51l.53-.49c-1.94-3.36-1.18-11.7.86-17.24-1.46-.23-3.64-.52-6.26-.74-5.39-.46-9.99-1.88-12.96-4.01-.31-.22-.54-.37-.71-.47-.19.04-.39.07-.6.07-1.69,0-3.74-1.57-5.17-2.88-1.64-1.51-4.04-2.54-6.43-2.75-1.85-.16-3.27-.59-4.23-1.28l-.4.22c-2.35,1.3-4.97,1.77-12.71,2.27-2.55.16-5.27.25-8.08.25-6.92,0-16.49-.56-20.67-2.15-.23-.09-.78-.3-1.03-.36-.08.03-.17.08-.28.14-.94.47-2.71.86-3.97,1-2.43.27-3.75.87-5.46,2.47-3.26,3.05-4.76,3.05-5.25,3.05-.2,0-.39-.02-.57-.06-2.86,2.49-9.31,4.49-15.25,4.68-2.03.07-3.74.31-4.09.43-.09.03-.18.07-.28.09.08.23.15.45.19.66.04.2.21.8.4,1.25.81,1.96,1.33,5.68,1.33,9.48,0,2.89-.15,4.2-.97,5.77l-.07.14,1.08,1.15c3.67,3.93,6.34,9.87,6.34,14.14,0,2.36-1.14,5.46-3.26,6.55-.92.47-1.9.71-2.92.71-1.35,0-2.79-.4-4.52-1.27-6.11-3.05-11.49-12.07-11.51-19.3,0-.52,0-1.28.25-2.05-1.26-.94-1.32-2.05-1.32-4.03,0-2.29.68-6.35,2.22-8.66-.44-.87-.44-2.01-.44-3.13,0-3.77,1.67-8.58,4.4-10.27,0-.05-.01-.11-.02-.17-.18-1.61-.18-3.03,1.71-4.06.81-.44,1.88-.67,3.2-.67,1.53,0,3.13.3,4.45.83.62-1.21,1.69-2.33,2.96-2.97,1.9-.97,6.73-2.03,9.23-2.03.97,0,2.72.17,4.02.39.7.12,1.42.24,1.96.32.39-.57.83-1.58.83-1.98,0-.67.18-1.41.55-2.01-5.04-2.57-14.69-9.62-22.29-16.31-4.62-4.07-8.5-6.98-11.54-8.65-3.53-1.94-4.72-2.59-4.27-4.38.44-1.73,2.11-1.73,3.88-1.74,2.6,0,3.27-.61,3.41-.79.29-.37.14-1.2.02-1.67-.49-1.96-.53-3.04,1.28-4.46l.03-.02c0-.06-.02-.14-.03-.23-.19-1.17-.75-4.72,2.41-6.58.09-.05.15-.09.21-.13,0-.06,0-.15,0-.25,0-1.8.32-4.34,3.05-5.65.23-.11.28-.16.29-.16.04-.05.17-.26.46-1.21.74-2.47,1.57-4.56,4.24-5.09.43-.93,1.47-2.25,2.05-2.92.53-.61.88-1.08,1.05-1.32.48-1.6,2.71-1.6,3.5-1.6l.97.02.33-.61c1.01-1.86,1.82-3.33,3.78-3.33.54,0,1.06.13,1.63.28.34.09.54.13.66.15.12-.13.35-.43.76-1.07,1.29-2.01,1.72-2.68,2.93-2.68.39,0,.58.03,2.16.69.36.15.6.24.76.29.08-.12.2-.3.36-.58,1.03-1.81,1.15-1.96,1.22-2.05l.61-.8,1.07-.02c.2,0,.74,0,2.37.62.15.06.29.1.41.14.21-.29.48-.68.77-1.13,1.3-2.03,1.87-2.86,3.1-2.86.49,0,.72,0,2.79,1.26-.82-1.22-1.45-2.58-1.45-3.79,0-2.27,2.29-4.59,4.53-4.59s3.04,1.5,4.13,3.58c.17.33.32.59.44.8.22-.07.46-.1.7-.1.97,0,1.98.53,3.62,1.88.36.29.68.54.94.72.15-.09.31-.19.48-.3l2.32-1.58,3.46,1.84.4-.21c1.52-.77,2.13-.77,2.36-.77h.85l.44.41c.18.09.52.25.96.43.18.08.3.12.37.15.2-.08.54-.25.66-.32l2.45-1.25,2.33,1.31c.28.16.56.29.78.38.27-.18.64-.45,1.04-.79,1.88-1.63,2.28-1.92,3.1-1.92.38,0,.71.1,1.04.28.15-.28.32-.65.54-1.12.73-1.64,1.57-3.49,4.02-3.49.26,0,.55.02.88.06,2.04.24,3.57,2.62,3.57,4.59,0,1.5-.47,2.65-1.31,3.8,1.09-.57,1.89-.98,2.8-.98,1.79,0,2.57,1.41,3.39,2.9.13.23.38.56.58.79.16-.05.33-.11.41-.14.87-.31,1.44-.5,2.05-.5.97,0,1.74.47,2.3,1.41.32.54.9,1.5,1.18,1.79.4-.01,1-.13,1.64-.27.28-.06.61-.12.98-.12,1.67,0,2.52,1.21,3.35,2.38l.5.71,3.88-.4,2.02,3.04c.2.3.51.76.71,1.03.07,0,.14,0,.21-.02.25-.02.47-.03.67-.03,1.72,0,2.6.78,3.85,2.07.81.84,1.96,2.25,2.48,3.21.19.35.45.59.71.68,2.48.82,3.26,2.81,4.01,5.32.32,1.05.48,1.13.59,1.19,1.89.98,2.85,2.56,2.87,4.7,0,1.09.04,1.11.7,1.54,2.05,1.34,2.15,2.26,2.15,4.97,0,.7.01,1.18.04,1.45,1.61,1.24,1.41,2.75,1.23,4.09-.1.73-.13,1.69.26,2.15.24.27.96.74,3.1.77,1.41.02,3.35.05,3.79,1.84.45,1.83-1.23,2.74-3.17,3.79-3.37,1.82-6.83,4.35-11.95,8.74-7.61,6.53-18.12,14.31-22.06,16.32-.2.1-.45.22-.73.36.41.58.69,1.29.87,1.9.16.53.68,1.46,1.06,1.89l.25.29,1.25-.27c1.32-.28,2.75-.41,4.37-.41.62,0,1.28.02,1.97.06,6.27.37,10.08,2.02,11.34,4.92,1.18-.41,2.75-.65,3.94-.71.42-.02.79-.04,1.13-.04,1.33,0,2.81.15,3.79,1.3.94,1.1.84,2.51.69,3.47,0,.01,0,.03,0,.04,3.03,2.21,4.78,8.8,4.27,11.91-.1.62-.28,1.12-.5,1.52,1.48,1.99,2.1,5.04,2.37,7.37.31,2.77-.38,4.37-1.37,5.3.17.85.1,1.87.01,3.12-.66,9.46-8.88,19.47-15.97,19.47Z" fill="#9d2235"/>
        <path d="M142.56,69.82c.19,0,.4.02.64.04.86.1,1.78,1.44,1.78,2.58,0,1.35-.49,2.29-2.07,3.94-1.12,1.17-1.21,1.4-.76,1.85.51.5,1.04.75,1.7.75.72,0,1.58-.29,2.7-.89.96-.51,1.53-.8,1.95-.8.58,0,.9.55,1.61,1.85.27.49.8,1.17,1.18,1.52.33.3.54.45.86.45.3,0,.7-.13,1.4-.38.71-.25,1.11-.38,1.37-.38s.39.14.56.42c1.26,2.1,1.73,2.78,2.92,2.78.51,0,1.16-.13,2.06-.32.22-.05.4-.08.56-.08.55,0,.86.35,1.69,1.52l1.18,1.68,1.92-.2,1.92-.2,1.34,2.02c1.08,1.62,1.33,1.94,2.17,1.94.17,0,.36-.01.59-.03.19-.01.36-.02.52-.02.87,0,1.26.28,2.39,1.45.82.84,1.79,2.09,2.16,2.78.44.8,1.1,1.38,1.86,1.63,1.33.44,1.89,1.27,2.71,3.98.42,1.41.82,2.01,1.6,2.41,1.22.63,1.76,1.52,1.77,2.9,0,1.72.35,2.4,1.62,3.23,1.2.79,1.23.85,1.23,3.27,0,2.12.11,2.54.76,3,.66.47.73.75.53,2.27-.48,3.59,1.14,5.16,5.35,5.22,2.54.04,2.49.3-.32,1.81-3.51,1.89-7.07,4.49-12.31,8.99-7.44,6.39-17.87,14.11-21.66,16.05-2.62,1.33-13,5.76-15.22,6.49-1.18.39-3.9,1.02-6.04,1.41-3.47.63-4.77,1.01-3.6,1.01.36,0,.95-.04,1.79-.11,6.58-.61,9.51-1.3,13.7-3.22,3.93-1.81,6.17-2.63,7.18-2.63.15,0,.28.02.38.06.27.1.69.85.93,1.66s.91,2,1.48,2.65l1.04,1.18,2.42-.51c1.17-.25,2.46-.37,3.94-.37.59,0,1.2.02,1.85.06,5.7.33,9.1,1.78,9.75,4.15.19.68.39,1.3.44,1.37,0,0,.02.01.05.01.17,0,.76-.22,1.4-.53.78-.38,2.42-.71,3.87-.79.37-.02.71-.03,1.02-.03,2.25,0,2.77.6,2.48,2.42-.19,1.16-.09,1.41.69,1.93,2.84,1.86,4.94,10.8,2.68,11.39-.62.16-.58.27.37,1.22,1.15,1.15,2.01,3.63,2.38,6.85.27,2.35-.26,3.66-1.65,4.1-.69.22-.7.27-.13.68.52.38.58.86.42,3.26-.58,8.33-7.92,17.58-13.95,17.58-1.27,0-1.85-.2-2.5-.85-3.33-3.33-.88-12.55,4.74-17.76l1.84-1.71-.8-1.08c-1.91-2.58-.89-12.75,1.78-17.78.17-.31-4.21-1.01-8.89-1.4-4.97-.42-9.3-1.74-11.94-3.64-.92-.66-1.56-.99-1.9-.99-.1,0-.17.03-.22.08-.08.08-.21.13-.37.13-.74,0-2.22-.9-3.79-2.35-1.96-1.81-4.79-3.03-7.63-3.27-1.49-.13-2.62-.45-3.26-.93l-.99-.73-1.54.85c-2.02,1.12-4.54,1.55-11.86,2.02-2.57.17-5.28.24-7.96.24-8.44,0-16.67-.77-19.95-2.02-.9-.34-1.39-.51-1.8-.51-.36,0-.66.12-1.14.36-.61.3-2.09.66-3.28.8-2.86.32-4.6,1.11-6.63,3-1.7,1.59-3.13,2.5-3.86,2.5-.2,0-.35-.07-.43-.21-.08-.13-.17-.2-.29-.2-.21,0-.51.21-1,.68-2.35,2.25-8.6,4.17-14.17,4.35-1.96.06-4.08.31-4.72.55-.45.17-1.04.27-1.52.27-.2,0-.38-.02-.52-.05-.28-.07-.49-.11-.62-.11-.39,0-.23.33.45,1.25.39.53.76,1.28.84,1.68.07.39.3,1.14.52,1.66.7,1.7,1.18,5.23,1.18,8.71,0,2.77-.14,3.69-.74,4.83l-.74,1.42,2.06,2.2c3.29,3.51,5.79,9.03,5.79,12.75,0,1.97-.99,4.14-2.16,4.75-.63.32-1.27.49-1.98.49-1.03,0-2.2-.35-3.61-1.06-5.47-2.74-10.37-10.97-10.39-17.49,0-1.26.17-1.79.7-2.16.67-.47.65-.52-.53-1.08-1.22-.58-1.24-.62-1.23-2.82,0-3.46,1.42-7.85,2.68-8.34.73-.28.64-.72-.2-.94-.62-.16-.71-.49-.71-2.52,0-3.67,1.77-7.8,3.71-8.69.74-.34.82-.56.66-1.97-.16-1.4-.08-1.65.66-2.05.52-.28,1.32-.42,2.23-.42,1.27,0,2.74.27,3.89.77,1.09.48,1.59.7,1.82.7.2,0,.19-.17.19-.5,0-1.12,1.12-2.67,2.43-3.33,1.6-.82,6.17-1.81,8.31-1.81h.01c.84,0,2.49.17,3.66.36,1.17.2,2.43.4,2.79.44.01,0,.03,0,.04,0,.81,0,2.33-2.66,2.33-4.11,0-.55.23-1.09.52-1.2.08-.03.18-.04.3-.04,1.01,0,3.62.92,7.43,2.62,2.07.93,4.84,1.82,6.94,2.24,2.91.58,7.05,1.08,8.48,1.08.38,0,.57-.04.5-.11-.11-.12-1.96-.54-4.09-.92-2.14-.39-4.73-.96-5.77-1.26-2.42-.72-10.34-4.02-14.5-6.04-4.71-2.29-14.66-9.54-22.23-16.21-4.75-4.19-8.72-7.15-11.91-8.9-4.1-2.25-4.12-2.3-1.35-2.31,4.49-.02,6.23-1.63,5.39-4.98-.39-1.54-.37-1.64.57-2.37.86-.67.94-.93.75-2.17-.37-2.32.07-3.71,1.43-4.51,1.05-.62,1.21-.9,1.21-2.13,0-2.07.54-3.17,1.89-3.81,1-.48,1.3-.91,1.81-2.62.79-2.65,1.36-3.42,2.69-3.69.7-.14,1.2-.52,1.41-1.06.18-.46.97-1.6,1.77-2.52.8-.92,1.45-1.81,1.45-1.97,0-.15.67-.25,1.55-.25.1,0,.2,0,.31,0l1.86.05.93-1.7c.95-1.74,1.28-2.27,1.99-2.27.29,0,.63.08,1.11.21.54.15.96.23,1.32.23.89,0,1.39-.54,2.35-2.02.62-.96,1.17-1.75,1.22-1.75s.67.24,1.38.53c.78.33,1.34.51,1.79.51.75,0,1.2-.5,1.87-1.66.53-.93,1.02-1.75,1.08-1.83,0-.01.03-.02.06-.02.21,0,.89.2,1.64.49.67.26,1.36.41,1.74.41.12,0,.21-.01.26-.05.22-.13.95-1.11,1.62-2.16s1.3-1.92,1.39-1.92.94.48,1.9,1.07c1.14.7,1.79,1.02,2.43,1.02.48,0,.95-.18,1.6-.52l1.09-.56-1.25-1.3c-1.4-1.46-2.39-3.24-2.39-4.26,0-1.16,1.36-2.56,2.5-2.56.9,0,1.17.29,2.33,2.49.91,1.73,1.51,2.49,1.98,2.49.37,0,.67-.16.67-.36,0-.23.1-.35.3-.35.4,0,1.19.48,2.33,1.42.95.78,1.91,1.42,2.14,1.42s1-.4,1.72-.89l1.31-.89,1.65.88,1.65.88,1.35-.69c.64-.33,1.23-.55,1.43-.55.03,0,.05,0,.06.02.08.08.71.39,1.4.67.52.22.84.33,1.17.33.4,0,.81-.18,1.57-.56l1.49-.76,1.39.78c.76.43,1.63.78,1.94.78s1.29-.64,2.2-1.42c.9-.78,1.7-1.42,1.78-1.42s.39.26.7.57c.21.21.41.32.62.32.58,0,1.19-.89,2.11-2.94.82-1.82,1.18-2.29,2.17-2.29M142.56,65.76h0c-3.53,0-4.91,2.57-5.72,4.34-1.55.04-2.47.82-4.23,2.34l-.95-.54-1.89-1.06-1.94.98-1.29.66c-.13-.06-.24-.11-.31-.14-.67-.43-1.44-.66-2.25-.66-.36,0-1.15,0-2.73.73l-1.45-.77-2.16-1.15-2.03,1.38-.55.38c-1.45-1.17-2.75-1.97-4.2-2.12-1.11-2.09-2.45-4.3-5.74-4.3s-6.56,3.22-6.56,6.62c0,.18,0,.37.03.55-1.87.28-2.9,1.79-4.02,3.54-1.16-.36-1.69-.36-1.97-.36-1.31,0-2.52.59-3.3,1.62-.11.14-.21.28-.83,1.33-.89-.35-1.38-.48-2.05-.48-2.27,0-3.25,1.46-4.56,3.49-.45-.1-.92-.17-1.43-.17-2.92,0-4.27,2.07-5.3,3.92-.57,0-1.08.05-1.52.12-1.81.29-2.94,1.28-3.48,2.45-.15.21-.45.59-.85,1.06-.33.38-1.21,1.43-1.88,2.52-3.29,1.14-4.23,4.29-4.81,6.24-.04.14-.08.25-.11.35-2.29,1.26-3.54,3.41-3.74,6.39-1.61,1.23-3.1,3.42-2.73,7.25-1.82,1.88-1.62,3.73-1.17,5.6-.33.05-.79.09-1.43.1-1.75,0-5.01.02-5.84,3.27-.35,1.4-.2,3.41,2.53,5.12.62.39,1.48.86,2.72,1.54,2.91,1.6,6.67,4.42,11.18,8.39,6.97,6.14,15.7,12.61,21.14,15.74-.04.26-.07.52-.08.8-.14-.02-.28-.05-.43-.07-1.2-.2-3.12-.42-4.33-.42-2.55,0-7.84,1.06-10.18,2.25-1.02.52-2.05,1.35-2.88,2.38-1.16-.3-2.41-.46-3.62-.46-1.66,0-3.06.31-4.17.91-2.61,1.43-2.9,3.6-2.84,5.11-2.31,2.12-4.31,6.18-4.31,11.16,0,.79,0,1.85.26,2.9-1.59,3.01-2.03,7.13-2.04,8.88,0,1.92.1,3.45,1.13,4.72-.06.55-.06,1.02-.06,1.36.02,8.03,5.81,17.7,12.63,21.11,2.03,1.01,3.75,1.48,5.43,1.48,1.35,0,2.64-.32,3.85-.94,2.99-1.55,4.36-5.42,4.36-8.36,0-4.73-2.9-11.26-6.89-15.52l-.15-.16c.56-1.52.67-3.05.67-5.52,0-3.03-.35-7.09-1.3-9.78.54-.05,1.15-.09,1.79-.11,5.21-.17,12.01-1.8,15.82-4.62,1.3-.01,3.22-.46,6.57-3.6,1.39-1.3,2.31-1.71,4.3-1.94.95-.11,2.77-.42,4.13-.97.06.02.13.05.2.08,4.43,1.68,13.95,2.28,21.39,2.28,2.85,0,5.62-.08,8.22-.25,7-.45,10.24-.87,12.95-2.2,1.11.52,2.46.84,4.09.98,1.93.17,3.93,1.02,5.23,2.22,2.46,2.27,4.67,3.42,6.55,3.42.03,0,.06,0,.08,0,.01,0,.03.02.04.03,3.26,2.34,8.22,3.9,13.97,4.39,1.41.12,2.68.26,3.76.39-.54,1.97-.95,4.14-1.17,6.37-.37,3.65-.18,6.56.54,8.7-4.12,4.1-6.92,10.22-7.02,15.45-.06,3.18.87,5.82,2.7,7.65,1.8,1.8,3.73,2.04,5.38,2.04,8.89,0,17.33-11.74,18-21.36.06-.87.12-1.75.07-2.6.95-1.28,1.61-3.23,1.27-6.18-.25-2.24-.83-5.1-2.11-7.35.1-.31.17-.64.23-.98.55-3.35-1-9.86-4.14-13.06.05-1.09-.12-2.65-1.27-4-1.72-2.01-4.34-2.01-5.33-2.01-.38,0-.78.01-1.25.04-.81.04-1.85.17-2.87.38-2.05-2.7-6.13-4.24-12.18-4.59-.73-.04-1.43-.06-2.09-.06-1.75,0-3.3.15-4.75.45-.11-.2-.2-.39-.24-.51-.04-.14-.09-.28-.14-.43,5.02-2.89,14.95-10.45,21.44-16.02,5-4.29,8.36-6.75,11.59-8.49,1.99-1.07,5-2.7,4.18-6.06-.81-3.32-4.26-3.37-5.73-3.39-.7,0-1.15-.07-1.42-.13,0-.13.02-.29.04-.49.17-1.26.46-3.46-1.25-5.29,0-.14,0-.31,0-.51,0-2.9-.13-4.66-2.84-6.52h0c-.01-2.68-1.23-4.86-3.46-6.21-.02-.07-.05-.16-.08-.26-.83-2.77-1.85-5.35-4.97-6.53-.65-1.12-1.84-2.59-2.72-3.5-1.14-1.17-2.54-2.63-5.16-2.68-.02-.03-.04-.05-.05-.08l-1.34-2.02-1.36-2.04-2.44.25-1.48.15c-.91-1.28-2.28-2.98-4.82-2.98-.56,0-1.04.09-1.4.16-.07.01-.16.03-.27.06-.15-.24-.29-.48-.38-.63-1.25-2.08-3.07-2.39-4.04-2.39-.57,0-1.1.1-1.62.25-.81-1.4-2.02-3.07-4.3-3.28.02-.26.04-.53.04-.81,0-2.89-2.16-6.23-5.37-6.61-.42-.05-.78-.07-1.11-.07h0Z" fill="#eaaa00"/>
      </g>
      <g>
        <path d="M79.09,31.47c-2.84,0-8.18-1.85-8.38-4.88-.25-3.84,11.78-11.86,13.6-12.93,5.12-3.02,10.77-4.83,15.1-4.83,1.64,0,3.08.26,4.27.76l7.53,3.19-7.66,1.35c-.33.06-1.65.4-3.06.81-5.02,1.48-12.36,7.43-15.7,12.75-1.62,2.58-2.64,3.72-5.55,3.78h-.17Z" fill="#9d2235"/>
        <path d="M99.42,10.86c1.34,0,2.52.19,3.47.6l1.22.52-.91.16c-.5.09-1.97.47-3.28.86-5.51,1.62-13.22,7.85-16.84,13.61-1.53,2.43-2.03,2.8-3.88,2.84-.04,0-.08,0-.12,0-2.61,0-6.26-1.7-6.35-2.98-.1-1.54,6.93-7.7,12.61-11.05,4.92-2.91,10.17-4.55,14.07-4.55M99.42,6.8c-4.75,0-10.63,1.86-16.14,5.11-2.87,1.69-6.27,4.18-9.08,6.65-4.76,4.18-5.64,6.22-5.51,8.16.3,4.51,6.83,6.78,10.4,6.78h.21c4-.09,5.52-2.02,7.23-4.74,3.07-4.88,10-10.54,14.55-11.88,1.37-.4,2.58-.71,2.84-.76l.9-.16,13.48-2.4-12.61-5.34-1.22-.52c-1.44-.61-3.14-.92-5.06-.92h0Z" fill="#eaaa00"/>
      </g>
      <g>
        <path d="M189.1,116.73c.15-1.46.11-1.53-.24-2.1-.7-1.14-1.36-2.49-.89-3.89.44-1.33,1.62-1.94,2.47-2.28.87-.35,2.26-.75,3.16-.91.6-.11,1.6-.41,2.1-.64.5-.23,1.14-.49,1.85-.53.31-1.09.88-2.57,1.37-3.52.38-.76.62-1.65.63-1.89,0-3.56,5.42-15.75,7.95-18.63.71-.8.72-.82,1.01-4,.19-2.02.29-6.23.23-9.19-.1-4.56-.09-5.44.72-6.27l.6-.61.91-.02c1.78,0,2.17,1.28,3.46,5.5.97,3.18,1.06,4.02,1.14,11.2.09,7.52.09,7.81-1.08,11.34-.66,1.98-1.66,4.47-2.69,6.65-.57,1.21-1.03,2.13-1.46,2.82.52,1.08.28,2.18-.15,4.07-1.01,4.48-4.38,11.17-8.07,12.06-.12.05-.7.41-1.11.83-1.48,1.51-6.27,3.7-8.63,4.17l-3.78.76.51-4.89Z" fill="#9d2235"/>
        <path d="M210.96,64.27c.24,0,.7,1.38,1.52,4.06.9,2.95.97,3.65,1.05,10.63.09,7.45.08,7.48-.98,10.68-1.35,4.07-4.04,9.79-4.61,9.79-.27,0-.2.26.2.7.6.66.6.84.06,3.24-1.08,4.78-4.33,9.99-6.57,10.54-.52.13-1.46.75-2.08,1.38-1.1,1.12-5.42,3.17-7.58,3.6l-1.07.21.22-2.15c.19-1.82.11-2.34-.53-3.38-1.13-1.84-1-2.57.6-3.21.75-.3,1.99-.66,2.76-.79.77-.14,1.94-.5,2.59-.8.51-.24.89-.35,1.2-.35.23,0,.42.06.61.18.14.09.26.14.35.14.27,0,.42-.39.71-1.51.25-.97.83-2.51,1.3-3.44.47-.92.85-2.18.85-2.79,0-2.82,5.08-14.61,7.45-17.31,1.08-1.23,1.18-1.57,1.51-5.15.2-2.11.3-6.35.24-9.42-.07-3.25-.06-4.83.2-4.83M210.96,60.21c-1.1,0-2.18.45-2.95,1.24-1.43,1.46-1.4,2.92-1.3,7.74.06,2.9-.04,7.01-.22,8.96-.07.76-.2,2.12-.3,2.6-.04.05-.11.13-.21.25-2.79,3.18-8.28,15.53-8.45,19.79-.05.23-.21.74-.42,1.15-.38.74-.79,1.74-1.12,2.69-.42.13-.8.29-1.13.44-.32.15-1.15.41-1.61.49-1.05.19-2.54.61-3.56,1.02-1.89.76-3.12,1.94-3.64,3.53-.82,2.49.52,4.66,1.09,5.59,0,0,.01.02.02.03,0,.14-.02.39-.07.8l-.22,2.15-.57,5.49,5.41-1.08,1.07-.21c2.46-.49,7.72-2.75,9.68-4.73.13-.13.34-.29.47-.37,4.59-1.41,8.16-8.66,9.25-13.5.35-1.57.66-2.93.38-4.27.38-.69.73-1.44,1.09-2.19,1.06-2.25,2.1-4.82,2.78-6.87,1.28-3.85,1.27-4.46,1.18-12-.08-7.15-.16-8.26-1.23-11.77-.42-1.38-.76-2.46-1.05-3.24-.33-.91-1.35-3.69-4.36-3.69h0Z" fill="#eaaa00"/>
      </g>
      <g>
        <path d="M182.44,100.74c-2.54-4.63-5.9-8.49-9.48-10.88-1.15-.77-2.15-1.43-2.49-1.65l-.71-.3-.29-.89c-.31-.96,0-1.53,1.35-3.78.54-.9.91-1.8.99-2.1.03-.61.17-1.51.41-2.14.55-1.39,1.49-1.68,2.18-1.68.88,0,1.45.47,1.94.98.24-.43.5-1.02.71-1.73.43-1.49,1.03-3.53,2.99-3.53.93,0,1.57.53,1.99,1,.17-.13.35-.27.55-.42.52-.41,1.4-1.03,2.26-1.48-1.52-4.46.5-10.62,5.2-15.46.29-.3.52-.57.67-.77-.04-.49.1-.88.26-1.18l.58-1.04,1.26-.03c.77,0,1.41.33,3.35,1.56,6.54,4.13,9.7,9.58,9.64,16.65-.04,4.75-1.29,8.26-3.92,11.04-.18.19-.35.37-.52.54.02.03.04.07.06.1.73,1.22.16,2.29-.98,4.42-2.54,4.77-8.85,11.34-13.5,14.05l-2.91,1.69-1.62-2.96Z" fill="#9d2235"/>
        <path d="M192.82,55.68c.22,0,.91.39,2.27,1.25,5.93,3.75,8.75,8.57,8.69,14.91-.03,4.23-1.09,7.26-3.36,9.66-.99,1.05-1.92,1.9-2.08,1.9s-1.43-1.06-2.83-2.35c-2.34-2.14-4.27-3.35-5.38-3.35-.24,0,.33.5,1.25,1.11.93.61,2.5,2.04,3.49,3.17,1.68,1.91,2.68,2.66,3.65,2.66.17,0,.34-.02.51-.07.2-.05.35-.08.47-.08.45,0,.22.52-.83,2.5-2.35,4.42-8.44,10.74-12.74,13.25l-1.11.65-.62-1.13c-2.68-4.89-6.3-9.03-10.13-11.59-1.42-.95-2.63-1.75-2.68-1.77s.47-.98,1.16-2.12,1.26-2.49,1.28-2.99c.01-.5.14-1.2.28-1.55.1-.26.18-.4.29-.4.14,0,.35.21.75.67.43.5,1.02.91,1.3.91.8,0,1.94-1.71,2.55-3.79.42-1.43.7-2.07,1.05-2.07.21,0,.44.24.73.68.32.5.74.9.92.9s1.15-.65,2.15-1.44c1-.79,2.28-1.53,2.82-1.64.98-.2.99-.22.46-1.24-1.9-3.68-.06-9.66,4.38-14.23.89-.91,1.5-1.83,1.37-2.05-.14-.23-.17-.36-.05-.36M192.82,51.62c-1.5,0-2.89.81-3.62,2.11-.15.28-.37.75-.47,1.37-.05.05-.09.1-.15.15-4.7,4.83-6.94,10.95-6.08,15.9-.17.11-.33.22-.47.33-.62-.32-1.28-.48-2-.48-3.07,0-4.23,2.7-4.76,4.37-.27-.06-.57-.09-.88-.09h0c-.68,0-2.98.21-4.07,2.97-.31.79-.48,1.76-.54,2.49-.11.29-.37.86-.72,1.44-1.39,2.3-2.15,3.57-1.55,5.45l.57,1.76,1.4.6c.38.25,1.22.8,2.33,1.55,3.26,2.18,6.48,5.88,8.83,10.17l.62,1.13,2,3.66,3.6-2.1,1.11-.65c4.91-2.86,11.58-9.8,14.27-14.85.94-1.77,1.79-3.35,1.47-5.01,2.76-3.11,4.07-6.95,4.11-12.02.06-7.72-3.5-13.9-10.58-18.38-2.01-1.27-3.03-1.88-4.44-1.88h0Z" fill="#eaaa00"/>
      </g>
      <g>
        <path d="M15.34,12.17l.02.02h0s-.03-.02-.03-.02Z" fill="#eaaa00"/>
        <g>
          <path d="M192.43,7.41c-2-.6-3.45-1.56-3.9-2.49l-2.05,5.81c3.83,1.35,7.86,2.85,12.22,4.5,1.81.53,2.98.43,3.18-.27.44-1.48-3.25-5.69-9.45-7.55Z" fill="#eaaa00"/>
          <g clip-path="url(#clippath)">
            <g>
              <polygon points="202.74 39.33 209.1 43.16 218.02 28.39 209.8 27.64 202.74 39.33" fill="#eaaa00"/>
              <polygon points="196.34 35.46 202.74 39.33 209.8 27.64 201.52 26.88 196.34 35.46"/>
              <polygon points="214.5 19.87 208.09 16 206.23 19.09 214.5 19.87"/>
              <polygon points="206.23 19.09 208.09 16 208.09 16 201.74 12.16 198 18.35 206.23 19.09" fill="#eaaa00"/>
              <polygon points="193.3 26.13 189.98 31.62 196.34 35.46 196.34 35.46 201.52 26.88 193.3 26.13" fill="#eaaa00"/>
              <polygon points="198 18.35 201.74 12.16 195.33 8.29 189.73 17.57 198 18.35"/>
              <polygon points="185.02 25.37 183.58 27.75 189.98 31.62 193.3 26.13 185.02 25.37"/>
              <polygon points="189.73 17.57 195.33 8.29 188.98 4.45 181.54 16.77 189.73 17.57" fill="#eaaa00"/>
              <polygon points="178.67 24.79 183.58 27.75 185.02 25.37 178.67 24.79" fill="#eaaa00"/>
              <polygon points="188.98 4.45 182.58 .59 173.28 15.99 181.54 16.77 188.98 4.45"/>
              <polygon points="206.23 19.09 201.52 26.88 209.8 27.64 214.5 19.87 206.23 19.09" fill="#eaaa00"/>
              <polygon points="214.5 19.87 214.5 19.87 209.8 27.64 209.8 27.64 218.02 28.39 220.85 23.7 214.5 19.87"/>
              <polygon points="198 18.35 193.3 26.13 201.52 26.88 206.23 19.09 198 18.35"/>
              <polygon points="189.73 17.57 185.02 25.37 193.3 26.13 198 18.35 189.73 17.57" fill="#eaaa00"/>
              <polygon points="189.73 17.57 181.54 16.77 177.23 23.92 178.67 24.79 185.02 25.37 189.73 17.57"/>
              <polygon points="173.28 15.99 170.82 20.05 177.23 23.92 181.54 16.77 173.28 15.99" fill="#eaaa00"/>
            </g>
          </g>
        </g>
        <g>
          <path d="M221.91,21.12l9.88-8.51c-1.69.39-5.67.96-10.12-.82-5.64-2.25-19.66-6.68-27.47-8.18-3.58-.69-5.11-.19-5.38.47l-.04.12c-.15.8,1.19,2.07,3.76,2.84,2.79.84,5.4,2.25,7.35,3.98,1.74,1.55,2.65,3.1,2.37,4.06,0,.02-.02.04-.03.07l.11.03-2.32,8.7c2.78.93,18.12,5.97,28.64,7.12l-6.88-9.75.13-.12Z" fill="#eaaa00"/>
          <g clip-path="url(#clippath-1)">
            <g>
              <polygon points="222.4 30.16 229.76 31.17 232.11 14.07 224.27 16.63 222.4 30.16" fill="#eaaa00"/>
              <polygon points="214.99 29.13 222.4 30.15 224.27 16.63 216.36 19.21 214.99 29.13"/>
              <polygon points="225.51 7.63 218.1 6.61 217.61 10.18 225.51 7.63"/>
              <polygon points="217.61 10.18 218.1 6.61 218.1 6.61 210.74 5.6 209.75 12.77 217.61 10.18" fill="#eaaa00"/>
              <polygon points="208.51 21.77 207.64 28.12 214.99 29.13 214.99 29.13 216.36 19.21 208.51 21.77" fill="#eaaa00"/>
              <polygon points="209.75 12.77 210.74 5.6 203.33 4.58 201.85 15.32 209.75 12.77"/>
              <polygon points="200.61 24.34 200.23 27.1 207.64 28.12 208.51 21.77 200.61 24.34"/>
              <polygon points="201.85 15.32 203.33 4.58 195.98 3.56 194.01 17.81 201.85 15.32" fill="#eaaa00"/>
              <polygon points="194.55 26.32 200.23 27.1 200.61 24.34 194.55 26.32" fill="#eaaa00"/>
              <polygon points="195.98 3.56 188.57 2.54 186.11 20.37 194.01 17.81 195.98 3.56"/>
              <polygon points="217.61 10.18 216.36 19.21 224.27 16.63 225.51 7.63 217.61 10.18" fill="#eaaa00"/>
              <polygon points="225.51 7.63 225.51 7.63 224.27 16.63 224.27 16.63 232.11 14.07 232.86 8.65 225.51 7.63"/>
              <polygon points="209.75 12.77 208.51 21.77 216.36 19.21 217.61 10.18 209.75 12.77"/>
              <polygon points="201.85 15.32 200.61 24.34 208.51 21.77 209.75 12.77 201.85 15.32" fill="#eaaa00"/>
              <polygon points="201.85 15.32 194.01 17.81 192.87 26.09 194.55 26.32 200.61 24.34 201.85 15.32"/>
              <polygon points="186.11 20.37 185.46 25.07 192.87 26.09 194.01 17.81 186.11 20.37" fill="#eaaa00"/>
            </g>
          </g>
        </g>
        <path d="M199.64,23.75l2.15-8.07c-.48.31-1.41.45-3.22-.07C171.27,5.26,156.88.98,123.99.39c-32.86.58-47.25,4.86-74.56,15.21-1.8.53-2.74.39-3.22.09l2.12,7.96h0s.05.2.05.2h0s0,0,0,0c0,.01.3,1.23,1.46,5.56.38,1.44.84,2.23,1.53,2.63,1.37.79,3.79.14,8.62-1.16l1.6-.43c1.74-.47,3.5-.95,5.29-1.43,18.25-4.96,38.94-10.57,57.11-10.57h0c18.16,0,38.85,5.62,57.1,10.57,1.79.48,3.55.96,5.29,1.43l1.65.44c4.8,1.29,7.21,1.94,8.57,1.15.69-.4,1.15-1.18,1.53-2.62,1.14-4.28,1.16-5.5,1.16-5.51v-.27s.26.09.26.09c0,0,.03.01.07.02Z" fill="#eaaa00"/>
        <g>
          <path d="M59.32,5.13c-.56.86-1.92,1.73-3.77,2.28-6.2,1.86-9.89,6.07-9.45,7.55.21.7,1.37.8,3.2.27,4.02-1.52,7.75-2.91,11.3-4.18h-.03s-1.25-5.92-1.25-5.92Z" fill="#9d2235"/>
          <g clip-path="url(#clippath-2)">
            <path d="M61.13,9.64c-.56.86-1.92,1.73-3.77,2.28-6.2,1.86-9.89,6.07-9.45,7.55.21.7,1.37.8,3.2.27,4.02-1.52,7.75-2.91,11.3-4.18h-.03s-1.25-5.92-1.25-5.92Z" fill="#fffed7"/>
          </g>
        </g>
        <g>
          <path d="M26.3,11.79c-4.44,1.78-8.43,1.2-10.12.82l10.02,8.62-6.88,9.75c10.95-1.2,26.85-6.6,28.62-7.21l-2.29-8.61.1-.03s-.02-.05-.03-.07c-.55-1.86,3.58-6.2,9.71-8.04,2.26-.68,3.57-1.74,3.75-2.53l-.13-.6c-.46-.56-2.03-.91-5.28-.29-7.77,1.49-21.81,5.92-27.48,8.18Z" fill="#eaaa00"/>
          <g clip-path="url(#clippath-3)">
            <rect id="rect58354" x="11.49" y="8.59" width="25.06" height="13.2" transform="translate(-3.64 8.66) rotate(-19.03)" fill="#fffed7"/>
            <path id="path58356" d="M42.15,29.32l-4.13-11.98-24.3,8.38.99,2.87c.77,2.25,3.45,3.79,7.77,4.23,1.24.13,2.52.15,3.77-.01,4.48-.55,10.7-1.61,15.9-3.49Z" fill="#9d2235" fill-rule="evenodd"/>
            <rect id="rect58358" x="35.59" y="2.83" width="27.31" height="10.35" transform="translate(.08 16.49) rotate(-19.03)" fill="#9d2235"/>
            <path id="path58360" d="M68.52,24.02l-5.3-15.37-25.2,8.69,4.1,11.9.03.08c4.41-1.26,19.54-4.83,26.38-5.29Z" fill="#fffed7" fill-rule="evenodd"/>
            <path id="path58362" d="M38.02,17.34l-2.98-8.66.03.08c1.05-.36,2.04.12,2.37,1.09,1.09.26,1.68,1.22,1.51,2.28-.09.49-.34.84-.69,1.15l-.03-.08.75,2.17,2.1-.72.03.08c.04-.47.14-.94.48-1.25.7-.87,1.86-.9,2.7-.3.97-.34,2.07.2,2.43,1.25l-.1-.05-8.58,2.96h0Z" fill="#fffed7" fill-rule="evenodd"/>
            <path id="path58364" d="M38.02,17.34l-8.65,2.98.1.05c-.44-1.02.13-2.02,1.1-2.35.18-1.06,1.19-1.78,2.2-1.5.49.11.91.31,1.15.69l-.03-.08,2.1-.72-.64-2.12.03.08c-.46-.01-.86-.16-1.25-.48-.79-.72-.9-1.86-.22-2.73-.33-.97.2-2.06,1.17-2.4l-.03-.08,2.98,8.66Z" fill="#9d2235" fill-rule="evenodd"/>
            <path id="path58366" d="M38.02,17.34l2.98,8.66c-.97.33-2.04-.12-2.37-1.09-.96-.21-1.68-1.22-1.48-2.2.12-.48.32-.91.7-1.13l-.03-.08-.73-2.12-2.13.65.03.08c-.03.47-.15.88-.48,1.25-.65.77-1.85.92-2.65.2-1.05.36-2.07-.2-2.4-1.17l-.1-.05,8.65-2.98h0Z" fill="#fffed7" fill-rule="evenodd"/>
            <path id="path58368" d="M38.02,17.34l8.58-2.96.1.05c.34.97-.12,2.04-1.09,2.37-.28,1.01-1.22,1.68-2.28,1.5-.49-.09-.83-.34-1.13-.7l-.03-.08-2.19.76.72,2.1.03.1c.46.01.95.11,1.25.46.84.62.92,1.85.27,2.62.33.97-.2,2.07-1.25,2.43l-2.99-8.66h0Z" fill="#9d2235" fill-rule="evenodd"/>
          </g>
        </g>
        <path d="M232.71,12.34l-.19-.33s-4.98,1.71-10.69-.58c-5.65-2.26-19.71-6.7-27.55-8.2-3.16-.61-5.27-.36-5.77.63h-.02s-.05.14-.05.14c0,.03-.03.05-.04.08,0,.01,0,.02,0,.03l-2.29,6.5C166.12,3.57,151.52.5,123.99,0c-27.94.49-42.55,3.65-63.04,10.93l-1.36-6.42c.02-.15.02-.3-.01-.45-.03-.1-.08-.19-.14-.29h0s0,0,0,0c-.57-.92-2.65-1.13-5.73-.55-7.79,1.5-21.86,5.94-27.55,8.2-5.71,2.29-10.64.6-10.69.58l-.1.17h0s-.09.16-.09.16l10.4,8.96-7.17,10.17.43-.04c10.92-1.09,27.12-6.58,29.11-7.26.13.5.51,1.99,1.41,5.36.41,1.55.93,2.41,1.71,2.86.47.27,1.03.39,1.74.39,1.55,0,3.79-.6,7.18-1.52l1.6-.43c1.74-.47,3.5-.95,5.29-1.43,18.23-4.95,38.89-10.56,57.01-10.56h0c18.11,0,38.77,5.61,57,10.56,1.79.49,3.55.96,5.29,1.43l1.65.44c4.9,1.32,7.37,1.98,8.87,1.11.79-.46,1.3-1.31,1.71-2.86.88-3.3,1.1-4.79,1.16-5.34,2.18.74,18.5,6.16,29.37,7.25l.43.04-7.17-10.17,10.4-8.96ZM199.31,23.91s-.02,1.23-1.16,5.51c-.38,1.44-.84,2.22-1.53,2.62-1.37.79-3.78.14-8.57-1.15l-1.65-.44c-1.74-.47-3.51-.95-5.29-1.43-18.25-4.96-38.94-10.57-57.1-10.57h0c-18.17,0-38.86,5.62-57.11,10.57-1.78.49-3.55.96-5.29,1.43l-1.6.43c-4.83,1.3-7.25,1.95-8.62,1.16-.69-.4-1.15-1.18-1.53-2.63-1.16-4.33-1.46-5.55-1.46-5.56h0s0,0,0,0l-.05-.2h0s-2.12-7.96-2.12-7.96c.49.31,1.42.44,3.22-.09C76.74,5.25,91.13.97,123.99.39c32.89.59,47.28,4.86,74.58,15.21,1.81.53,2.74.39,3.22.07l-2.15,8.07s-.07-.02-.07-.02l-.26-.09v.27ZM49.3,15.23c-1.82.53-2.99.43-3.2-.27-.44-1.48,3.25-5.69,9.45-7.55,1.84-.55,3.21-1.42,3.77-2.28l1.25,5.93h.03c-3.56,1.26-7.29,2.65-11.3,4.17ZM59.06,3.9l.13.6c-.18.79-1.49,1.85-3.75,2.53-6.13,1.84-10.27,6.18-9.71,8.04,0,.02.02.05.03.07l-.1.03,2.29,8.61c-1.78.61-17.68,6.02-28.62,7.21l6.88-9.75-10.02-8.62c1.69.39,5.68.96,10.12-.82,5.67-2.26,19.71-6.69,27.48-8.18,3.25-.63,4.82-.28,5.28.29ZM201.88,14.96c-.21.7-1.37.8-3.18.27-4.36-1.65-8.39-3.15-12.22-4.5l2.05-5.81c.45.93,1.91,1.89,3.9,2.49,6.2,1.86,9.89,6.07,9.45,7.55ZM200.01,23.87l2.32-8.7-.11-.03s.02-.04.03-.07c.28-.96-.62-2.51-2.37-4.06-1.95-1.73-4.56-3.15-7.35-3.98-2.57-.77-3.91-2.03-3.76-2.84l.04-.12c.27-.66,1.8-1.15,5.38-.47,7.81,1.5,21.84,5.93,27.47,8.18,4.45,1.78,8.43,1.2,10.12.82l-9.88,8.51-.13.12,6.88,9.75c-10.53-1.15-25.86-6.18-28.64-7.12Z"/>
      </g>
      <g>
        <path d="M181.46,72.92c-.23-.1-.7-.32-3.34-2.89-4.36-4.24-11.77-15.68-19.62-27.79-3.71-5.73-7.52-10.5-12.35-15.45-5.3-5.44-6.4-6.68-7.3-8.26-.49-.85-1.09-1.9-.42-3.06.24-.41.82-1.1,2.06-1.1.09,0,.19,0,.31.01,1,.06,3.57,1.18,4.63,1.66,1.56.71,2.8,1.12,3.19,1.21h.04c1.52,0,2.44.96,3,1.68.52.66.73.66.93.66.1,0,.21,0,.33-.03.36-.05.68-.1.99-.1.53,0,2.23.17,2.46,2.35.05.13.19.42.36.63.09.11.14.18.18.21.08.02.26.05.62.08,2.05.21,2.91.66,3.62,2.78.1.3.42.75.82,1.02,1.13.76,4.71,1.87,6.19,1.92h.23c2.04,0,4.29-.81,5.21-1.56.72-.59,2.1-1.58,3.25-1.58h.16c4.11.28,11.58,13.86,11.65,13.99,1.85,3.42,4.9,10.93,5.01,13.37l.12,2.69-4.65,1.96c-1.39.62-2.03,4.92-2.42,7.48-.31,2.08-.58,3.87-1.17,5.12-.81,1.74-1.62,3.18-3.18,3.18h-.44l-.46-.2Z" fill="#9d2235"/>
        <path d="M140.48,16.4c.06,0,.12,0,.19,0,.4.02,2.16.69,3.91,1.48,1.72.78,3.46,1.39,3.93,1.39,0,0,.02,0,.03,0,.04,0,.07,0,.1,0,.52,0,.9.25,1.4.89.79,1.01,1.53,1.45,2.53,1.45.2,0,.41-.02.63-.05.31-.05.53-.07.69-.07.37,0,.41.15.45.6.03.38.38,1.1.77,1.61.62.79.92.94,2.19,1.07,1.42.14,1.49.19,1.9,1.41.26.77.88,1.57,1.62,2.06,1.43.96,5.39,2.2,7.25,2.26.1,0,.2,0,.3,0,2.28,0,5.08-.86,6.5-2.03.76-.62,1.63-1.12,1.97-1.12,0,0,.01,0,.02,0,1.56.1,6.54,6.54,10.01,12.93,2.03,3.74,4.69,10.71,4.77,12.49l.06,1.28-3.35,1.41c-3.7,1.65-3.28,10.72-4.64,13.61-.62,1.33-1.08,2.01-1.34,2.01-.02,0-.04,0-.06-.01-.21-.09-1.45-1.22-2.77-2.5-4.16-4.05-11.46-15.28-19.33-27.44-3.79-5.85-7.67-10.7-12.6-15.76-5.12-5.26-6.2-6.47-7-7.86-.54-.94-.59-1.12-.12-1.12M140.48,12.34c-2.34,0-3.44,1.48-3.81,2.11-1.26,2.17-.13,4.14.41,5.08,1.08,1.88,2.49,3.42,7.61,8.67,4.73,4.86,8.46,9.53,12.1,15.14,7.91,12.21,15.38,23.74,19.91,28.14,2.89,2.81,3.44,3.06,3.92,3.28.55.25,1.13.38,1.74.38,2.98,0,4.25-2.72,5.02-4.35.71-1.52,1-3.44,1.34-5.68.25-1.67.77-5.08,1.46-6.02l3.09-1.31,2.6-1.1-.13-2.82-.06-1.28c-.14-3.03-3.53-11.06-5.26-14.24-1.75-3.23-3.96-6.65-6.08-9.37-3.52-4.55-5.44-5.56-7.24-5.67h-.13s-.15,0-.15,0c-1.36,0-2.89.69-4.54,2.05-.54.44-2.37,1.11-3.92,1.11-.05,0-.11,0-.16,0-1.16-.04-4.35-1.07-5.13-1.58-.01,0-.04-.04-.06-.06-.98-2.83-2.57-3.7-4.79-4.01-.59-2.31-2.51-3.36-4.33-3.36-.28,0-.54.02-.8.05-.57-.71-1.91-2.16-4.2-2.26-.45-.13-1.45-.5-2.64-1.03-3.87-1.75-4.94-1.81-5.35-1.84-.16,0-.3-.01-.43-.01h0Z" fill="#eaaa00"/>
      </g>
      <g>
        <path d="M65.22,73.11c-1.56,0-2.36-1.44-3.18-3.18-.58-1.25-.85-3.04-1.17-5.12-.39-2.57-1.03-6.86-2.46-7.5l-4.61-1.95.12-2.69c.11-2.44,3.16-9.95,5.01-13.37.07-.14,7.55-13.72,11.66-13.99h.15c1.16,0,2.53.99,3.25,1.58.92.75,3.17,1.57,5.21,1.57h.23c1.47-.06,5.06-1.17,6.19-1.92.41-.27.72-.72.82-1.02.71-2.12,1.57-2.57,3.62-2.78.36-.04.53-.07.62-.08.03-.04.09-.1.18-.21.17-.21.31-.5.36-.63.23-2.18,1.93-2.36,2.46-2.36.31,0,.63.04.99.1.12.02.23.03.33.03.2,0,.41,0,.93-.66.56-.72,1.48-1.68,3-1.68h.04c.39-.09,1.62-.5,3.19-1.21,1.06-.48,3.63-1.6,4.63-1.66.12,0,.22-.01.31-.01,1.24,0,1.82.69,2.06,1.1.67,1.16.07,2.21-.42,3.06-.91,1.58-2,2.82-7.3,8.26-4.83,4.96-8.63,9.72-12.35,15.45-7.85,12.11-15.26,23.55-19.62,27.79-2.64,2.57-3.12,2.78-3.34,2.89l-.4.18h-.5Z" fill="#9d2235"/>
        <path d="M107.09,16.4c.47,0,.41.18-.12,1.12-.79,1.38-1.87,2.6-7,7.86-4.93,5.06-8.8,9.91-12.6,15.76-7.88,12.16-15.17,23.39-19.33,27.44-1.31,1.28-2.56,2.4-2.77,2.5-.02,0-.04.01-.06.01-.26,0-.72-.68-1.34-2.01-1.35-2.88-.94-11.96-4.64-13.61l-3.35-1.41.06-1.28c.08-1.78,2.74-8.75,4.77-12.49,3.46-6.39,8.45-12.83,10.01-12.93,0,0,.01,0,.02,0,.33,0,1.21.5,1.96,1.12,1.42,1.17,4.21,2.03,6.5,2.03.1,0,.2,0,.3,0,1.85-.07,5.81-1.3,7.24-2.26.74-.49,1.36-1.28,1.62-2.06.41-1.21.48-1.26,1.9-1.41,1.27-.13,1.57-.28,2.19-1.07.39-.51.74-1.23.77-1.61.04-.45.08-.6.45-.6.16,0,.38.03.69.07.22.03.43.05.63.05,1,0,1.74-.44,2.53-1.45.5-.65.88-.89,1.4-.89.03,0,.07,0,.1,0,0,0,.02,0,.03,0,.47,0,2.22-.62,3.93-1.39,1.75-.79,3.51-1.46,3.91-1.48.07,0,.14,0,.19,0M107.09,12.34h0c-.13,0-.27,0-.43.01-.41.02-1.48.09-5.35,1.84-1.19.54-2.19.9-2.64,1.04-1.61.07-3.02.83-4.2,2.26-.26-.03-.52-.05-.8-.05-1.83,0-3.75,1.05-4.33,3.36-2.22.31-3.81,1.18-4.79,4.01-.02.03-.05.06-.07.07-.77.5-3.96,1.53-5.12,1.57-.05,0-.11,0-.16,0-1.55,0-3.38-.67-3.92-1.11-1.65-1.36-3.18-2.05-4.54-2.05h-.29c-1.8.13-3.71,1.14-7.23,5.68-2.11,2.73-4.32,6.14-6.08,9.37-1.73,3.19-5.12,11.21-5.26,14.24l-.06,1.28-.13,2.82,2.6,1.1,3.09,1.31c.7.94,1.21,4.35,1.46,6.02.34,2.23.63,4.16,1.34,5.67.76,1.63,2.04,4.35,5.02,4.35.61,0,1.19-.13,1.74-.38.48-.22,1.02-.46,3.91-3.28,4.53-4.4,12-15.93,19.91-28.14,3.64-5.61,7.37-10.28,12.1-15.14,5.12-5.26,6.53-6.79,7.61-8.67.54-.95,1.67-2.92.41-5.08-.37-.64-1.48-2.11-3.81-2.11h0Z" fill="#eaaa00"/>
      </g>
      <g>
        <path d="M64.5,17.34c.01-1.04-.12-1.78-.26-1.93-.03-.04-.04-.11.05-.14.45-.16.91-.31,1.36-.46.07-.02.1.03.06.1-.16.3-.34,1-.38,2.12-.09,2.18-.16,4.36-.2,6.53-.37.13-.75.27-1.12.4-.9-.98-1.81-1.95-2.72-2.92-.08,1.34-.16,2.68-.22,4.02-.37.14-.73.28-1.1.43-1.48-1.58-2.99-3.15-4.53-4.69-.65-.66-1.26-1.22-1.69-1.42-.07-.03-.07-.1,0-.13.73-.3,1.46-.6,2.2-.89.12-.05.14-.03.15.07.09.34.61.94,1.26,1.61,1.05,1.11,2.1,2.23,3.13,3.35.05-1,.1-2,.16-3-.38-.4-.76-.79-1.15-1.19-.65-.65-1.22-1.27-1.6-1.48-.09-.04-.07-.1.01-.13.66-.26,1.33-.51,1.99-.75.11-.04.12-.02.16.06.06.31.39.75.91,1.31.02-.85-.14-1.4-.27-1.54-.04-.04-.04-.11.05-.14.37-.13.73-.27,1.1-.4.07-.02.1.03.06.1-.17.3-.28.94-.37,2.14-.01.14-.02.29-.03.43.99,1.04,1.97,2.09,2.94,3.15,0-1.53,0-3.07.03-4.6Z" fill="#9d2235"/>
        <path d="M68.73,22.31c-.46.15-.92.31-1.38.46-.08.03-.09-.03-.05-.1.15-.3.31-.94.44-2.14.25-2.22.53-4.45.84-6.68.43-.14.86-.27,1.29-.4,1.41,1.67,2.79,3.35,4.14,5.05.55.7,1.12,1.31,1.5,1.56.06.05.08.14,0,.16-.75.21-1.49.43-2.23.66-.13.04-.15,0-.18-.1-.06-.33-.5-.95-1.11-1.69-.15-.18-.3-.36-.45-.54-.96.29-1.91.6-2.87.91-.03.25-.05.51-.08.76-.11,1.07.06,1.8.21,1.96.03.04.02.11-.08.15ZM68.74,18.83c.8-.26,1.61-.52,2.42-.76-.68-.83-1.36-1.66-2.05-2.48-.13,1.08-.25,2.17-.37,3.25Z" fill="#9d2235"/>
        <path d="M76.62,19.9c-.12.03-.13-.03-.11-.09.11-.24.03-.87-.18-1.64-.41-1.48-.82-2.95-1.23-4.43-.22-.77-.48-1.36-.7-1.5-.05-.04-.07-.1.05-.13.78-.22,1.57-.43,2.36-.64.12-.03.13.03.11.09-.12.24-.04.87.17,1.64.46,1.72.92,3.44,1.37,5.16.09.35.12.36.44.28.33-.09.65-.17.98-.26.97-.25,1.67-1.08,1.93-1.51.08-.11.26-.12.26-.04,0,.47.01.94.02,1.41.01.21-.13.25-.2.27-1.76.43-3.51.9-5.26,1.38Z" fill="#9d2235"/>
        <path d="M88.08,8.85c.15-.03.27-.05.32.16.09.39.17.77.26,1.16-.04.03-.13.08-.2.04-.48-.23-1.3-.56-1.96-.42-.41.09-.83.17-1.24.26.4,1.87.81,3.75,1.21,5.62.2.92.43,1.38.65,1.53.05.04.06.1-.05.13-.8.17-1.59.35-2.39.53-.11.03-.13-.04-.1-.09.13-.24.15-.74-.06-1.66-.43-1.87-.85-3.74-1.28-5.6-.41.09-.82.19-1.24.29-.65.16-1.27.8-1.6,1.21-.05.07-.15.06-.2.05-.09-.39-.17-.77-.26-1.16-.04-.21.09-.24.21-.28,2.63-.64,5.26-1.23,7.91-1.76Z" fill="#9d2235"/>
        <path d="M95.26,7.57c.2-.03.27-.03.3.17.06.35.12.7.18,1.06-.03.04-.16.08-.23.04-.37-.27-1.25-.5-1.96-.38-.54.09-1.08.18-1.62.28.18,1.01.36,2.02.54,3.04.53-.09,1.06-.18,1.58-.27.54-.09,1.06-.43,1.21-.48.04,0,.07.01.09.02.06.36.12.72.17,1.08-.01.02-.04.03-.08.04-.16,0-.67-.16-1.29-.06-.53.09-1.05.18-1.58.27.16.92.32,1.83.49,2.75.06.35.08.38.4.32.4-.07.8-.14,1.2-.21.97-.16,1.74-.97,2-1.29.08-.1.25-.1.26-.02-.03.46-.05.91-.08,1.37-.02.21-.16.25-.23.25-1.84.29-3.67.61-5.5.95-.12.02-.12-.04-.1-.1.13-.23.11-.86-.05-1.65-.28-1.51-.57-3.01-.85-4.52-.15-.79-.36-1.4-.57-1.55-.05-.04-.06-.11.06-.13,1.88-.36,3.76-.68,5.65-.98Z" fill="#9d2235"/>
        <path d="M98.4,13.49c-.19-1.81-.39-3.62-.58-5.43-.12-.16-.43-.56-.61-.67-.06-.04-.06-.11.02-.12.71-.1,1.42-.2,2.13-.3.2-.03.21-.03.32.15,1.21,1.82,2.39,3.66,3.54,5.5.6-1.92,1.23-3.84,1.88-5.76.2-.57.25-.61.55-.63.6-.06,1.2-.12,1.8-.17.08,0,.1.05.06.11-.21.31-.18,1.04-.08,1.89.17,1.44.35,2.88.52,4.32.13,1.02.26,1.43.45,1.61.04.05.05.11-.05.12-.76.07-1.52.14-2.28.22-.1,0-.11-.05-.08-.11.13-.22.2-.65.07-1.66-.2-1.53-.4-3.07-.6-4.6-.76,2.21-1.49,4.43-2.18,6.65-.15.07-.81.15-.89.11-1.22-1.96-2.47-3.9-3.75-5.83.16,1.5.33,3,.5,4.5.1.9.32,1.42.44,1.61.05.06.05.11-.04.12-.38.05-.76.11-1.14.16-.07.01-.08-.04-.07-.11.07-.22.15-.81.05-1.68Z" fill="#9d2235"/>
        <path d="M115.42,5.53c.21-.01.28,0,.28.2.02.36.04.71.06,1.07-.04.04-.16.06-.23.01-.34-.31-1.18-.63-1.9-.59-.55.03-1.09.06-1.64.1.07,1.03.13,2.05.2,3.08.53-.03,1.07-.07,1.6-.1.55-.03,1.09-.31,1.25-.35.04,0,.07.02.08.03.02.36.04.73.05,1.09-.01.01-.04.03-.08.03-.16-.02-.65-.24-1.27-.2-.53.03-1.06.06-1.59.1.06.93.12,1.86.18,2.78.02.36.03.38.36.36.4-.03.81-.05,1.21-.07.97-.05,1.83-.77,2.12-1.06.09-.09.26-.08.26.01-.08.45-.15.9-.23,1.35-.05.21-.19.23-.25.23-1.85.08-3.71.2-5.56.34-.12,0-.12-.05-.09-.11.15-.22.2-.85.14-1.65-.12-1.53-.23-3.06-.35-4.59-.06-.8-.2-1.43-.39-1.61-.04-.05-.05-.11.07-.12,1.9-.15,3.8-.26,5.71-.35Z" fill="#9d2235"/>
        <path d="M121.89,13.43c-.8,0-1.6.02-2.41.04-.12,0-.12-.06-.08-.11.16-.21.28-.71.26-1.64-.01-.49-.02-.99-.03-1.48-.68-1.05-1.37-2.1-2.07-3.14-.59-.85-.94-1.25-1.25-1.51-.06-.04-.07-.11.05-.12.89-.04,1.79-.07,2.68-.09.11,0,.11.05.11.11,0,.37.22.73.67,1.45.49.78.97,1.57,1.45,2.36.44-.8.89-1.59,1.34-2.38.5-.89.58-1.29.49-1.48-.02-.06-.01-.12.09-.12.52,0,1.04,0,1.56,0,.08,0,.1.08.03.12-.26.2-.68.6-1.22,1.47-.66,1.07-1.31,2.15-1.94,3.22,0,.51.01,1.03.02,1.54.01.93.15,1.44.32,1.63.04.05.04.12-.08.11Z" fill="#9d2235"/>
        <path d="M131.58,5.5c.21,0,.27.02.26.23-.01.36-.02.71-.03,1.07-.04.04-.16.04-.23-.01-.31-.33-1.12-.73-1.84-.76-.55-.02-1.09-.03-1.64-.05-.02,1.03-.05,2.06-.07,3.08.53.01,1.07.03,1.6.04.55.02,1.11-.22,1.28-.23.04,0,.07.03.08.04-.01.37-.03.73-.04,1.09-.01.01-.04.02-.08.02-.16-.03-.62-.29-1.25-.31-.53-.02-1.06-.03-1.59-.04-.02.93-.04,1.86-.07,2.79,0,.36,0,.38.33.39.4.01.81.02,1.21.04.97.03,1.9-.6,2.21-.87.1-.08.26-.05.26.04-.12.44-.23.88-.35,1.32-.06.2-.21.21-.27.21-1.85-.08-3.71-.13-5.57-.15-.12,0-.12-.06-.08-.12.17-.2.27-.83.28-1.63.02-1.53.04-3.07.06-4.6,0-.8-.08-1.44-.25-1.63-.04-.05-.04-.12.08-.11,1.9.02,3.81.07,5.71.15Z" fill="#9d2235"/>
        <path d="M140.54,14.29c-.54-.05-1.06-.18-1.5-.47-.61-.37-1.17-1.08-1.54-1.7-.34-.56-.61-1.09-.87-1.61-.32,0-.85-.05-1.12-.09-.04.55-.07,1.09-.11,1.64-.05.79-.01,1.44.14,1.64.04.05.03.12-.08.11-.76-.05-1.52-.1-2.29-.14-.12,0-.11-.07-.07-.12.18-.19.31-.81.35-1.61.08-1.53.17-3.06.25-4.59.04-.8-.02-1.43-.18-1.64-.04-.05-.03-.12.09-.11,1.27.07,2.54.15,3.8.24,1.27.09,3.2.61,3.03,2.43-.12,1.27-1.25,1.78-1.89,2,.24.46.57,1.03,1.02,1.75.81,1.25,1.32,1.82,1.75,2.18.08.06.08.14,0,.14-.16,0-.43,0-.77-.04ZM135.54,9.85c.23.05.62.09,1.09.11.91.05,1.61-.34,1.73-1.78.11-1.36-.73-1.75-1.46-1.8-.37-.03-.75-.05-1.12-.08-.08,1.18-.15,2.36-.23,3.55Z" fill="#9d2235"/>
        <path d="M152.06,7.64c-.03-.06,0-.12.05-.11.45.07.9.14,1.35.22.05,0,.06.07,0,.12-.18.19-.43.68-.58,1.58-.19,1.18-.38,2.36-.57,3.53-.27,1.65-1.43,2.74-3.88,2.39-2.83-.39-3.41-1.95-3.24-3.32.15-1.22.3-2.44.44-3.66.1-.79.08-1.44-.07-1.65-.03-.06-.02-.12.09-.1.8.1,1.6.2,2.39.3.12.02.12.08.07.13-.2.18-.35.8-.46,1.58-.16,1.21-.32,2.42-.48,3.62-.15,1.18.34,2.05,1.83,2.26,1.45.21,2.35-.35,2.57-1.77.18-1.15.36-2.29.54-3.44.15-.92.04-1.48-.05-1.68Z" fill="#9d2235"/>
        <path d="M155.4,8.88c-.09-.12-.46-.66-.56-.78-.02-.03-.01-.1.06-.11.7.12,1.4.25,2.1.37.2.04.23.06.34.21,1.24,2.06,2.43,4.14,3.57,6.22.26-1.23.53-2.46.79-3.69.19-.91.12-1.47.04-1.69-.03-.06,0-.12.05-.11.45.1.9.19,1.35.29.04,0,.05.08-.01.12-.19.18-.47.65-.66,1.55-.45,2.06-.9,4.12-1.35,6.17-.11.02-.86-.15-.94-.22-1.32-2.43-2.71-4.84-4.16-7.24-.27,1.49-.54,2.98-.81,4.48-.17.92-.09,1.47-.01,1.68.03.06,0,.12-.05.11-.43-.08-.87-.16-1.3-.23-.04,0-.05-.07,0-.12.18-.19.44-.67.6-1.58.32-1.81.64-3.63.96-5.45Z" fill="#9d2235"/>
        <path d="M165.72,16.72c-.19.78-.25,1.42-.13,1.65.03.06.01.12-.1.09-.76-.19-1.52-.37-2.28-.54-.12-.03-.1-.09-.05-.13.21-.16.45-.75.62-1.53.35-1.49.69-2.99,1.04-4.48.18-.78.23-1.43.1-1.65-.03-.06-.01-.12.11-.09.8.18,1.59.37,2.39.57.12.03.1.09.05.13-.22.15-.46.74-.65,1.52-.36,1.49-.73,2.98-1.09,4.47Z" fill="#9d2235"/>
        <path d="M176.74,13.14c.14.04.26.08.21.29-.11.38-.21.76-.32,1.14-.05.01-.15,0-.2-.06-.31-.43-.9-1.11-1.54-1.29-.41-.12-.82-.24-1.22-.35-.52,1.84-1.05,3.69-1.57,5.53-.26.91-.27,1.42-.14,1.66.02.06.01.12-.11.09-.79-.22-1.58-.44-2.37-.66-.11-.03-.1-.09-.05-.13.23-.15.49-.58.73-1.49.5-1.85,1-3.7,1.51-5.55-.41-.11-.82-.22-1.23-.33-.65-.17-1.5.11-1.98.32-.08.03-.16-.02-.2-.05.11-.38.21-.76.32-1.14.07-.21.19-.18.32-.14,2.62.67,5.23,1.39,7.83,2.18Z" fill="#9d2235"/>
        <path d="M183.74,15.41c.19.07.25.1.19.3-.11.34-.23.68-.34,1.02-.05.02-.17,0-.22-.08-.2-.41-.88-1.03-1.57-1.26-.53-.18-1.05-.35-1.58-.52-.32.98-.64,1.96-.95,2.93.51.17,1.03.34,1.54.51.53.18,1.14.12,1.31.15.04.01.05.05.07.06-.12.35-.24.69-.36,1.04-.02,0-.05,0-.08,0-.15-.07-.53-.46-1.12-.66-.51-.17-1.02-.34-1.53-.51-.29.88-.57,1.77-.86,2.65-.11.34-.11.37.21.47.39.13.78.26,1.17.39.94.31,2.01-.03,2.39-.19.11-.05.27.03.24.11-.24.39-.48.78-.72,1.17-.12.18-.26.14-.32.12-1.78-.62-3.56-1.2-5.35-1.76-.11-.03-.09-.1-.04-.13.22-.15.5-.71.74-1.48.46-1.46.91-2.93,1.37-4.39.24-.77.34-1.4.22-1.64-.03-.06,0-.12.11-.09,1.84.57,3.67,1.17,5.5,1.81Z" fill="#9d2235"/>
        <path d="M182.9,23.57c.23-.13.53-.69.8-1.45.52-1.44,1.04-2.89,1.56-4.33.27-.75.4-1.39.29-1.63-.02-.06,0-.12.12-.08,1.32.47,2.63.96,3.94,1.46,2.97,1.15,3.67,3.34,2.85,5.28-.92,2.2-2.97,3.35-5.78,2.26-1.24-.48-2.49-.94-3.74-1.39-.12-.04-.09-.1-.04-.13ZM185.45,23.98c.38.14.76.29,1.14.43,1.73.66,2.96-.47,3.74-2.41.66-1.64.53-3.35-1.27-4.04-.48-.19-.97-.37-1.46-.55-.77,2.06-1.53,4.12-2.3,6.17-.08.21-.1.3.15.4Z" fill="#9d2235"/>
      </g>
    </g>
  </g>
</svg>