<?xml version="1.0" encoding="UTF-8"?>
<svg id="Layer_2" data-name="Layer 2" xmlns="http://www.w3.org/2000/svg" viewBox="0 0 1347.48 83.5">
  <g id="Layer_1-2" data-name="Layer 1">
    <g>
      <path d="M100.7,20.39c3.33-9.88,4.36-17.32,3.59-19.24-.13-.51,0-1.15.9-1.15h13.34c.64,0,.77.64.26,1.15-2.31,2.31-5.9,8.46-9.75,18.98l-22.32,61.44h-11.54l-14.88-37.07-15.65,37.07h-11.42L9.76,20.78C6.42,12.18,3.22,4.62.27,1.15-.25.64.01,0,.78,0h21.93c1.15,0,1.28.26,1.03,1.15-.38,3.59,2.05,11.03,5.39,19.75l16.16,42.84,11.54-27.71-6.16-15.26c-3.46-8.46-6.41-16.29-8.98-19.62-.64-.64-.26-1.15.51-1.15h19.75c1.03,0,1.15.26,1.15,1.15-.51,3.08,1.03,8.46,3.72,15.52,2.95-7.95,3.33-13.72,2.57-15.52-.26-.51,0-1.15.9-1.15h10.9c.64,0,.77.64.26,1.15-2.44,2.31-5.39,7.95-10,18.98l-1.67,3.98,16.16,39.89,14.75-43.61Z" fill="#9d2235"/>
      <path d="M123.78,81.45h-14.11c-.77,0-.77-.64-.13-1.15,2.31-2.44,5.77-7.95,10.65-18.98L147.25,0h12.57l23.86,60.67c3.21,8.34,6.93,15.78,9.75,19.24.38.64.38,1.54-.51,1.54h-22.7c-1.28,0-1.41-.38-1.41-1.54.38-3.33-2.05-10.65-5.52-19.5l-2.57-6.54h-28.86l-2.95,7.05c-4.23,9.88-4.87,17.44-3.98,19.37.13.51-.13,1.15-1.15,1.15ZM134.3,48.23h24.24l-11.54-30.01-12.7,30.01Z" fill="#9d2235"/>
      <path d="M204.2,81.45c-1.15,0-1.15-.64-.77-1.15,1.67-2.05,2.57-8.34,2.57-16.42V17.57c0-8.08-.9-14.49-2.57-16.42-.38-.51-.38-1.15.77-1.15h22.83c1.15,0,1.15.64.77,1.15-1.67,2.05-2.44,8.34-2.44,16.42v53.74c0,3.59.26,3.85,3.46,3.85h9.88c9.75,0,18.34-6.41,21.81-10,1.03-.9,2.69-.51,2.57.26l-3.08,13.85c-.38,2.05-1.8,2.18-2.57,2.18h-53.23Z" fill="#9d2235"/>
      <path d="M335.54,0c1.41,0,2.56,0,2.69,2.18l.26,11.93c-.38.26-1.28.51-1.92,0-3.98-3.21-11.03-8.08-17.32-8.08h-11.93v57.85c0,9.49,1.28,14.49,3.08,16.42.38.51.38,1.15-.77,1.15h-23.99c-1.15,0-1.15-.64-.77-1.15,1.8-2.05,3.08-6.93,3.08-16.42V6.03h-11.93c-6.29,0-13.34,4.87-17.32,8.08-.64.51-1.54.26-1.92,0l.26-11.93c.13-2.18,1.28-2.18,2.57-2.18h75.93Z" fill="#9d2235"/>
      <path d="M404.02,0c1.92,0,2.57.13,2.57,2.18l.13,10.77c-.38.38-1.54.51-2.18,0-3.08-3.21-10.9-6.93-17.7-6.93h-15.52v31.04h15.39c5.26,0,10.65-2.57,12.18-2.82.38,0,.64.26.77.39v11.03c-.13.13-.38.26-.77.26-1.54-.26-6.16-2.69-12.18-2.69h-15.39v28.09c0,3.59.13,3.85,3.33,3.85h11.93c9.62,0,18.34-6.8,21.29-9.62.9-.9,2.57-.64,2.57.26l-2.82,13.47c-.51,2.05-1.92,2.18-2.57,2.18h-54.9c-1.15,0-1.15-.64-.77-1.15,1.67-2.05,2.57-8.34,2.57-16.42V17.57c0-8.08-.9-14.49-2.57-16.42-.38-.51-.38-1.15.77-1.15h53.87Z" fill="#9d2235"/>
      <path d="M425.18,63.62l1.92-54.9c-.9-1.8-3.21-6.16-4.75-7.57-.51-.51-.38-1.15.38-1.15h20.27q1.92,0,2.82,1.92l27.06,59.39,23.99-55.54c2.44-5.52,2.95-5.77,5.77-5.77h17.06c.77,0,.9.64.51,1.15-2.18,2.95-2.57,10.26-2.31,18.85l1.28,43.74c.38,10.39,1.28,14.62,2.95,16.55.38.51.38,1.15-.64,1.15h-22.58c-1.03,0-1.03-.64-.64-1.15,1.54-2.05,2.56-6.29,2.31-16.55l-1.28-46.69-27.96,64.13c-1.54.51-8.08.51-8.85,0l-28.6-63.11-1.28,45.53c-.26,9.11,1.15,14.62,2.05,16.67.38.64.38,1.15-.51,1.15h-11.29c-.77,0-.77-.51-.51-1.15,1.03-2.05,2.57-7.82,2.82-16.67Z" fill="#9d2235"/>
      <path d="M594.74,0c1.92,0,2.57.13,2.57,2.18l.13,10.77c-.38.38-1.54.51-2.18,0-3.08-3.21-10.9-6.93-17.7-6.93h-15.52v31.04h15.39c5.26,0,10.65-2.57,12.18-2.82.38,0,.64.26.77.39v11.03c-.13.13-.38.26-.77.26-1.54-.26-6.16-2.69-12.18-2.69h-15.39v28.09c0,3.59.13,3.85,3.33,3.85h11.93c9.62,0,18.34-6.8,21.29-9.62.9-.9,2.57-.64,2.57.26l-2.82,13.47c-.51,2.05-1.92,2.18-2.57,2.18h-54.9c-1.15,0-1.15-.64-.77-1.15,1.67-2.05,2.57-8.34,2.57-16.42V17.57c0-8.08-.9-14.49-2.57-16.42-.38-.51-.38-1.15.77-1.15h53.87Z" fill="#9d2235"/>
      <path d="M654.89,81.45h-23.73c-1.15,0-1.15-.64-.77-1.15,1.67-2.05,2.95-7.05,2.95-16.42v-14.88l-18.98-32.19c-5.26-8.72-8.47-12.96-11.29-15.65-.51-.38-.64-1.15.51-1.15h25.27c1.03,0,1.03.51,1.03,1.15,0,3.72,1.92,7.44,6.03,14.75l13.47,23.99,13.08-23.86c4.87-8.98,5.52-12.96,4.75-14.88-.13-.64-.13-1.15.9-1.15h14.75c.77,0,.9.77.26,1.15-2.44,2.05-6.41,6.03-11.54,14.88l-18.85,32.32v15.52c0,9.36,1.28,14.49,2.95,16.42.38.51.38,1.15-.77,1.15Z" fill="#9d2235"/>
      <path d="M746.98,0c1.92,0,2.57.13,2.57,2.18l.13,10.77c-.38.38-1.54.51-2.18,0-3.08-3.21-10.9-6.93-17.7-6.93h-15.52v31.04h15.39c5.26,0,10.65-2.57,12.18-2.82.38,0,.64.26.77.39v11.03c-.13.13-.38.26-.77.26-1.54-.26-6.16-2.69-12.18-2.69h-15.39v28.09c0,3.59.13,3.85,3.33,3.85h11.93c9.62,0,18.34-6.8,21.29-9.62.9-.9,2.57-.64,2.57.26l-2.82,13.47c-.51,2.05-1.92,2.18-2.57,2.18h-54.9c-1.15,0-1.15-.64-.77-1.15,1.67-2.05,2.57-8.34,2.57-16.42V17.57c0-8.08-.9-14.49-2.57-16.42-.38-.51-.38-1.15.77-1.15h53.87Z" fill="#9d2235"/>
      <path d="M838.94,82.09c-5.39,0-10.52-.77-15.13-3.33-6.29-3.21-12.31-9.88-16.42-15.78-3.72-5.39-6.67-10.52-9.62-15.52-3.08.26-8.21.13-10.9-.13v16.55c0,7.95.77,14.49,2.44,16.42.38.51.38,1.15-.77,1.15h-22.57c-1.15,0-1.15-.64-.77-1.15,1.67-2.05,2.57-8.34,2.57-16.42V17.57c0-8.08-.9-14.37-2.57-16.42-.38-.51-.38-1.15.77-1.15h35.91c11.93,0,30.53,3.46,30.53,21.8,0,12.83-10.39,18.98-16.42,21.68,2.69,4.36,6.29,9.88,11.29,16.67,8.98,11.8,14.49,17.06,19.11,20.14.9.51.9,1.28.13,1.41-1.54.26-4.23.38-7.57.38ZM786.87,41.56c2.31.38,6.03.51,10.52.38,8.85-.13,15.26-4.62,15.26-19.24,0-13.72-8.21-16.93-15.14-16.93h-10.65v35.79Z" fill="#9d2235"/>
      <path d="M940.91,1.15c-.38-.51-.26-1.15.26-1.15h12.83c.51,0,.64.64.26,1.15-1.41,2.18-2.95,7.44-2.95,16.67v36.04c0,16.8-9.49,29.63-33.99,29.63-28.22,0-35.66-15.01-35.66-28.86V17.57c0-8.08-.9-14.49-2.57-16.42-.38-.51-.38-1.15.77-1.15h22.7c1.15,0,1.15.64.77,1.15-1.67,2.05-2.31,8.46-2.31,16.42v36.81c0,11.93,5.9,20.01,20.65,20.01s22.19-7.05,22.19-21.55V17.83c0-9.36-1.8-14.75-2.95-16.67Z" fill="#eaaa00"/>
      <path d="M973.86,7.95c-1.03-1.03-5.39-5.77-6.41-6.8-.26-.26-.26-1.03.38-1.15h20.01c1.92,0,2.31.13,3.46,1.41l45.02,54.38V17.83c0-9.36-1.8-14.75-2.95-16.67-.38-.51-.26-1.15.26-1.15h12.95c.38,0,.64.64.13,1.15-1.41,2.18-2.95,7.44-2.95,16.67v63.62c-1.03.38-8.59.38-9.49-.13l-52.84-63.49v45.79c0,9.36,1.67,14.75,2.82,16.67.38.51.26,1.15-.26,1.15h-12.95c-.38,0-.64-.64-.26-1.15,1.41-2.18,3.08-7.44,3.08-16.67V7.95Z" fill="#eaaa00"/>
      <path d="M1085.83,63.88c0,8.08.9,14.49,2.56,16.42.38.51.38,1.15-.77,1.15h-22.96c-1.15,0-1.15-.64-.77-1.15,1.67-2.05,2.57-8.34,2.57-16.42V17.57c0-8.08-.9-14.49-2.57-16.42-.38-.51-.38-1.15.77-1.15h22.96c1.15,0,1.15.64.77,1.15-1.67,2.05-2.56,8.34-2.56,16.42v46.3Z" fill="#eaaa00"/>
      <path d="M1177.92,0c1.41,0,2.56,0,2.69,2.18l.26,11.93c-.38.26-1.28.51-1.92,0-3.98-3.21-11.03-8.08-17.32-8.08h-11.93v57.85c0,9.49,1.28,14.49,3.08,16.42.38.51.38,1.15-.77,1.15h-23.99c-1.15,0-1.15-.64-.77-1.15,1.8-2.05,3.08-6.93,3.08-16.42V6.03h-11.93c-6.29,0-13.34,4.87-17.32,8.08-.64.51-1.54.26-1.92,0l.26-11.93c.13-2.18,1.28-2.18,2.57-2.18h75.93Z" fill="#eaaa00"/>
      <path d="M1246.41,0c1.92,0,2.57.13,2.57,2.18l.13,10.77c-.38.38-1.54.51-2.18,0-3.08-3.21-10.9-6.93-17.7-6.93h-15.52v31.04h15.39c5.26,0,10.65-2.57,12.18-2.82.38,0,.64.26.77.39v11.03c-.13.13-.38.26-.77.26-1.54-.26-6.16-2.69-12.18-2.69h-15.39v28.09c0,3.59.13,3.85,3.33,3.85h11.93c9.62,0,18.34-6.8,21.29-9.62.9-.9,2.57-.64,2.57.26l-2.82,13.47c-.51,2.05-1.92,2.18-2.57,2.18h-54.9c-1.15,0-1.15-.64-.77-1.15,1.67-2.05,2.57-8.34,2.57-16.42V17.57c0-8.08-.9-14.49-2.57-16.42-.38-.51-.38-1.15.77-1.15h53.87Z" fill="#eaaa00"/>
      <path d="M1264.62,80.29c1.67-2.05,2.57-8.34,2.57-16.42V17.57c0-8.08-.9-14.49-2.57-16.42-.38-.51-.38-1.15.77-1.15h38.99c29.37,0,43.1,17.44,43.1,38.74,0,23.99-13.98,42.71-43.35,42.71h-38.74c-1.15,0-1.15-.64-.77-1.15ZM1289.25,75.29h11.8c17.96,0,24.88-15.26,24.88-36.3,0-17.83-6.93-33.22-24.88-33.22h-14.49v66.31c0,2.31.13,3.21,2.69,3.21Z" fill="#eaaa00"/>
    </g>
  </g>
</svg>