<?xml version="1.0" encoding="UTF-8"?>
<svg id="Layer_2" data-name="Layer 2" xmlns="http://www.w3.org/2000/svg" viewBox="0 0 1352.59 88.61">
  <g id="Layer_1-2" data-name="Layer 1">
    <g>
      <polygon points="140.71 48.23 157.38 48.23 149.44 27.59 140.71 48.23" fill="none"/>
      <path d="M1325.93,41.55c0-9.22-2.18-30.67-22.33-30.67h-11.94v63.76c0,.14,0,.4,0,.65.04,0,.09,0,.13,0h11.8c18.46,0,22.33-18.35,22.33-33.75Z" fill="none"/>
      <path d="M800.07,10.88h-8.09v30.96c2.06.16,4.77.2,7.89.11,11.27-.16,12.78-8.53,12.78-16.69,0-9.54-4.23-14.38-12.58-14.38Z" fill="none"/>
      <path d="M123.15,5.51c1-1,1.33-2.43.83-3.64-.48-1.16-1.59-1.88-2.89-1.88h-13.34c-1.15,0-2.14.46-2.79,1.29-.65.83-.86,1.94-.58,3.04l.09.29c.37,1.27-.31,7.71-3.62,17.51l-12.55,37.09-13.18-32.54,1.26-3.01c4.42-10.55,7.32-16.14,9.46-18.17,1-1,1.33-2.43.83-3.64-.48-1.16-1.59-1.88-2.89-1.88h-10.9c-1.31,0-2.43.58-3.06,1.61-.58.94-.64,2.09-.18,3.12.2.58.27,2.67-.42,6.08-.74-2.58-1.26-5.14-1-6.67l.03-.42c0-2.36-1.35-3.71-3.71-3.71h-19.75c-1.45,0-2.67.75-3.16,1.95-.47,1.14-.21,2.4.7,3.41,1.96,2.61,4.42,8.71,7.03,15.16.5,1.24,1.01,2.5,1.53,3.77l5.77,14.29-8.67,20.8-13.89-36.83c-1.37-3.59-5.51-14.42-5.25-18.39.16-.63.35-1.82-.46-2.89-.96-1.27-2.51-1.27-3.09-1.27H3.34C1.93,0,.74.75.24,1.97-.25,3.13.02,4.44.92,5.42c2.78,3.31,6.11,11.37,9.01,18.83l24.1,62.43h14.86l13.9-32.92,13.21,32.92h15.06l22.93-63.11c3.79-10.35,7.21-16.11,9.16-18.06ZM89.28,84.13h-11.54l-14.88-37.07-15.65,37.07h-11.42L12.32,23.33C8.98,14.74,5.77,7.17,2.82,3.71c-.51-.51-.26-1.15.51-1.15h21.93c1.15,0,1.28.26,1.03,1.15-.38,3.59,2.05,11.03,5.39,19.75l16.16,42.84,11.54-27.71-6.16-15.26c-3.46-8.46-6.41-16.29-8.98-19.62-.64-.64-.26-1.15.51-1.15h19.75c1.03,0,1.15.26,1.15,1.15-.51,3.08,1.03,8.47,3.72,15.52,2.95-7.95,3.33-13.72,2.57-15.52-.26-.51,0-1.15.9-1.15h10.9c.64,0,.77.64.26,1.15-2.44,2.31-5.39,7.95-10,18.98l-1.67,3.98,16.16,39.89,14.75-43.61c3.33-9.88,4.36-17.32,3.59-19.24-.13-.51,0-1.15.9-1.15h13.34c.64,0,.77.64.26,1.15-2.31,2.31-5.9,8.47-9.75,18.98l-22.32,61.44Z" fill="#eaaa00"/>
      <path d="M197.97,80.85c-2.58-3.17-6.17-10.28-9.35-18.56L164.12,0h-15.97l-27.74,62.83c-5.07,11.47-8.26,16.21-10.07,18.16-1.11.98-1.53,2.33-1.09,3.57.42,1.21,1.6,1.99,2.98,1.99h14.11c1.7,0,2.63-.86,3.02-1.37.65-.83.87-1.91.61-2.96l-.15-.42c-.4-1.12-.19-7.55,4-17.34l2.29-5.49h25.42l1.93,4.92c1.43,3.64,5.77,14.73,5.36,18.27l-.02.29c0,3.38,2.16,4.09,3.96,4.09h22.7c1.23,0,2.31-.61,2.88-1.62.63-1.11.56-2.56-.18-3.79l-.21-.3ZM195.47,84h-22.7c-1.28,0-1.41-.38-1.41-1.54.38-3.33-2.05-10.65-5.52-19.5l-2.57-6.54h-28.86l-2.95,7.05c-4.23,9.88-4.87,17.44-3.98,19.37.13.51-.13,1.15-1.15,1.15h-14.11c-.77,0-.77-.64-.13-1.15,2.31-2.44,5.77-7.95,10.65-18.98L149.81,2.55h12.57l23.86,60.67c3.21,8.34,6.93,15.78,9.75,19.24.38.64.38,1.54-.51,1.54Z" fill="#eaaa00"/>
      <path d="M136.86,50.78h24.24l-11.54-30.01-12.7,30.01ZM140.71,48.23l8.73-20.64,7.94,20.64h-16.67Z" fill="#eaaa00"/>
      <path d="M266.52,65.15c-1.56-.87-3.72-.6-5.14.64l-.16.15c-3.3,3.43-11.23,9.22-19.97,9.22h-9.88c-.35,0-.65,0-.89-.01-.02-.47-.02-1.03-.02-1.28V20.13c0-9.88,1.17-13.96,1.86-14.81l.06-.08c.81-1.08.97-2.38.42-3.47-.27-.53-1.12-1.77-3.24-1.77h-22.83c-2.12,0-2.97,1.24-3.23,1.77-.55,1.09-.39,2.39.42,3.47l.11.14c.54.62,1.94,4.49,1.94,14.75v46.3c0,9.77-1.3,13.96-2.05,14.88-.81,1.08-.97,2.38-.42,3.47.27.53,1.12,1.77,3.24,1.77h53.23c2.68,0,4.57-1.59,5.06-4.18l3.08-13.85.03-.13c.22-1.3-.42-2.57-1.63-3.24ZM262.55,81.82c-.38,2.05-1.8,2.18-2.57,2.18h-53.23c-1.15,0-1.15-.64-.77-1.15,1.67-2.05,2.57-8.34,2.57-16.42V20.13c0-8.08-.9-14.49-2.57-16.42-.38-.51-.38-1.15.77-1.15h22.83c1.15,0,1.15.64.77,1.15-1.67,2.05-2.44,8.34-2.44,16.42v53.74c0,3.59.26,3.85,3.46,3.85h9.88c9.75,0,18.34-6.41,21.81-10,1.03-.9,2.69-.51,2.57.26l-3.08,13.85Z" fill="#eaaa00"/>
      <path d="M338.09,0h-75.93c-1.2,0-4.84,0-5.12,4.68l-.29,13.33,1.17.78c1.25.83,3.33,1.15,4.94-.14,3.48-2.81,10.15-7.51,15.71-7.51h9.38v55.29c0,10.78-1.71,13.9-2.45,14.74l-.12.15c-.81,1.08-.97,2.38-.42,3.47.27.53,1.12,1.77,3.24,1.77h23.99c2.12,0,2.97-1.24,3.24-1.77.55-1.09.39-2.39-.42-3.47l-.18-.21c-.56-.6-2.39-3.44-2.39-14.68V11.14h9.38c5.56,0,12.23,4.71,15.72,7.52,1.6,1.28,3.68.96,4.93.13l1.17-.78-.29-13.43c-.27-4.58-3.88-4.58-5.24-4.58ZM339.12,16.66c-3.98-3.21-11.03-8.08-17.32-8.08h-11.93v57.85c0,9.49,1.28,14.49,3.08,16.42.38.51.38,1.15-.77,1.15h-23.99c-1.15,0-1.15-.64-.77-1.15,1.8-2.05,3.08-6.93,3.08-16.42V8.58h-11.93c-6.28,0-13.34,4.87-17.32,8.08-.64.51-1.54.26-1.92,0l.26-11.93c.13-2.18,1.28-2.18,2.56-2.18h75.93c1.41,0,2.57,0,2.69,2.18l.26,11.93c-.38.26-1.28.51-1.92,0Z" fill="#eaaa00"/>
      <path d="M413.43,65.3c-1.59-.66-3.57-.25-4.77.95-3.46,3.31-11.47,8.91-19.53,8.91h-11.93c-.3,0-.55,0-.76,0-.02-.44-.02-.96-.02-1.29v-25.54h12.84c3.96,0,7.26,1.18,9.45,1.95.98.35,1.68.6,2.32.7l.42.04c1.01,0,1.92-.36,2.57-1l.75-.75v-13.14l-.74-.75c-.75-.75-1.62-1.14-2.58-1.14l-.42.03c-.64.11-1.43.38-2.53.76-2.34.81-5.88,2.03-9.24,2.03h-12.84V11.14h12.97c6.41,0,13.45,3.63,15.86,6.14l.25.22c1.6,1.28,4.2,1.19,5.58-.19l.76-.76-.14-11.82c0-4.73-3.59-4.73-5.12-4.73h-53.87c-2.12,0-2.97,1.24-3.23,1.77-.55,1.09-.39,2.39.42,3.47l.11.14c.54.62,1.94,4.49,1.94,14.75v46.3c0,9.77-1.3,13.96-2.05,14.88-.81,1.08-.97,2.38-.42,3.47.27.53,1.11,1.77,3.24,1.77h54.9c2.51,0,4.4-1.54,5.06-4.21l2.88-13.73v-.26c0-1.35-.81-2.52-2.11-3.06ZM410.17,81.82c-.51,2.05-1.92,2.18-2.57,2.18h-54.9c-1.15,0-1.15-.64-.77-1.15,1.67-2.05,2.57-8.34,2.57-16.42V20.13c0-8.08-.9-14.49-2.57-16.42-.38-.51-.38-1.15.77-1.15h53.87c1.92,0,2.57.13,2.57,2.18l.13,10.77c-.38.38-1.54.51-2.18,0-3.08-3.21-10.9-6.93-17.7-6.93h-15.52v31.04h15.39c5.26,0,10.65-2.57,12.19-2.82.38,0,.64.26.77.38v11.03c-.13.13-.38.26-.77.26-1.54-.26-6.16-2.69-12.19-2.69h-15.39v28.09c0,3.59.13,3.85,3.33,3.85h11.93c9.62,0,18.34-6.8,21.29-9.62.9-.9,2.57-.64,2.57.26l-2.82,13.47Z" fill="#eaaa00"/>
      <path d="M526.64,81.17c-1.66-1.92-2.12-9.46-2.33-14.95l-1.28-43.74c-.35-11.77.79-15.88,1.8-17.25.79-1.06.94-2.4.39-3.5-.54-1.09-1.65-1.74-2.95-1.74h-17.06c-4.41,0-5.54,1.48-8.12,7.31l-21.7,50.26-24.69-54.17c-1.23-2.63-2.05-3.4-5.14-3.4h-20.27c-1.37,0-2.53.73-3.02,1.91-.5,1.21-.19,2.59.82,3.6l.08.08c.78.71,2.38,3.29,3.9,6.25l-1.9,54.24v.02c-.26,8.82-1.78,14.06-2.55,15.61l-.09.19c-.63,1.58-.25,2.67.18,3.31.34.5,1.14,1.34,2.7,1.34h11.29c1.85,0,2.66-1.09,2.93-1.56.32-.57.72-1.74-.12-3.29-.36-.89-2.07-5.62-1.79-15.47l.97-34.48,24.34,53.69.61.41c.91.6,3.11.81,5.33.81,2.48,0,4.98-.26,5.74-.51l1.08-.36,23.84-54.67.97,35.23c.2,8.06-.4,13.09-1.8,14.95-.82,1.09-.98,2.4-.43,3.49.26.53,1.09,1.75,3.11,1.75h22.57c2.02,0,2.85-1.22,3.11-1.75.55-1.1.39-2.4-.43-3.49l-.11-.14ZM524.07,84h-22.57c-1.03,0-1.03-.64-.64-1.15,1.54-2.05,2.57-6.29,2.31-16.55l-1.28-46.69-27.96,64.13c-1.54.51-8.08.51-8.85,0l-28.6-63.11-1.28,45.53c-.26,9.11,1.15,14.62,2.05,16.67.39.64.39,1.15-.51,1.15h-11.29c-.77,0-.77-.51-.51-1.15,1.03-2.05,2.57-7.82,2.82-16.67l1.92-54.9c-.9-1.8-3.21-6.16-4.75-7.57-.51-.51-.38-1.15.39-1.15h20.27q1.92,0,2.82,1.92l27.06,59.39,23.99-55.54c2.44-5.52,2.95-5.77,5.77-5.77h17.06c.77,0,.9.64.51,1.15-2.18,2.95-2.57,10.26-2.31,18.85l1.28,43.74c.38,10.39,1.28,14.62,2.95,16.55.38.51.38,1.15-.64,1.15Z" fill="#eaaa00"/>
      <path d="M604.15,65.3c-1.59-.66-3.57-.25-4.77.95-3.46,3.31-11.47,8.91-19.53,8.91h-11.93c-.3,0-.55,0-.77,0-.02-.44-.02-.96-.02-1.29v-25.54h12.84c3.96,0,7.26,1.18,9.45,1.95.97.35,1.68.6,2.32.7l.42.04c1.01,0,1.92-.36,2.57-1l.75-.75v-13.14l-.74-.75c-.75-.75-1.62-1.14-2.58-1.14l-.42.03c-.64.11-1.43.38-2.53.76-2.34.81-5.88,2.03-9.24,2.03h-12.84V11.14h12.97c6.41,0,13.45,3.63,15.86,6.14l.25.22c1.6,1.28,4.21,1.19,5.58-.19l.76-.76-.14-11.82c0-4.73-3.59-4.73-5.12-4.73h-53.87c-2.12,0-2.97,1.24-3.23,1.77-.55,1.09-.39,2.39.42,3.47l.11.14c.54.62,1.94,4.49,1.94,14.75v46.3c0,9.77-1.3,13.96-2.05,14.88-.81,1.08-.97,2.38-.42,3.47.27.53,1.12,1.77,3.24,1.77h54.9c2.51,0,4.4-1.54,5.06-4.21l2.88-13.73v-.26c0-1.35-.81-2.52-2.11-3.06ZM600.89,81.82c-.51,2.05-1.92,2.18-2.57,2.18h-54.9c-1.15,0-1.15-.64-.77-1.15,1.67-2.05,2.57-8.34,2.57-16.42V20.13c0-8.08-.9-14.49-2.57-16.42-.38-.51-.38-1.15.77-1.15h53.87c1.92,0,2.57.13,2.57,2.18l.13,10.77c-.38.38-1.54.51-2.18,0-3.08-3.21-10.9-6.93-17.7-6.93h-15.52v31.04h15.39c5.26,0,10.65-2.57,12.19-2.82.38,0,.64.26.77.38v11.03c-.13.13-.38.26-.77.26-1.54-.26-6.16-2.69-12.19-2.69h-15.39v28.09c0,3.59.13,3.85,3.33,3.85h11.93c9.62,0,18.34-6.8,21.29-9.62.9-.9,2.57-.64,2.57.26l-2.82,13.47Z" fill="#eaaa00"/>
      <path d="M685.41,0h-14.75c-1.51,0-2.36.65-2.8,1.19-.97,1.18-.69,2.56-.6,3.02l.13.45c.16.4.7,2.92-4.61,12.7l-10.87,19.82-11.21-19.97c-3.96-7.06-5.7-10.47-5.7-13.5,0-3.44-2.74-3.71-3.58-3.71h-25.27c-1.9,0-2.95,1.1-3.29,2.13-.41,1.23.03,2.61,1.09,3.5,2.87,2.76,6.1,7.27,10.77,15.03l18.63,31.59v14.18c0,11.02-1.82,14.12-2.44,14.88-.81,1.08-.97,2.38-.42,3.47.27.53,1.12,1.77,3.24,1.77h23.73c2.12,0,2.97-1.24,3.24-1.77.55-1.09.39-2.39-.42-3.47l-.11-.14c-.39-.45-2.33-3.26-2.33-14.75v-14.83l18.51-31.73c3.74-6.46,7.3-11.08,10.87-14.11,1.15-.81,1.68-2.18,1.32-3.48-.38-1.36-1.63-2.27-3.11-2.27ZM685.67,3.71c-2.44,2.05-6.41,6.03-11.54,14.88l-18.85,32.32v15.52c0,9.36,1.28,14.49,2.95,16.42.38.51.38,1.15-.77,1.15h-23.73c-1.15,0-1.15-.64-.77-1.15,1.67-2.05,2.95-7.05,2.95-16.42v-14.88l-18.98-32.19c-5.26-8.72-8.47-12.96-11.29-15.65-.51-.38-.64-1.15.51-1.15h25.27c1.03,0,1.03.51,1.03,1.15,0,3.72,1.92,7.44,6.03,14.75l13.47,23.99,13.08-23.86c4.87-8.98,5.52-12.96,4.75-14.88-.13-.64-.13-1.15.9-1.15h14.75c.77,0,.9.77.26,1.15Z" fill="#eaaa00"/>
      <path d="M756.39,65.3c-1.59-.66-3.57-.25-4.77.95-3.46,3.31-11.47,8.91-19.53,8.91h-11.93c-.3,0-.55,0-.76,0-.02-.44-.02-.96-.02-1.29v-25.54h12.84c3.96,0,7.26,1.18,9.45,1.95.98.35,1.68.6,2.32.7l.42.04c1.01,0,1.92-.36,2.57-1l.75-.75v-13.14l-.74-.75c-.75-.75-1.62-1.14-2.58-1.14l-.42.03c-.64.11-1.43.38-2.53.76-2.34.81-5.88,2.03-9.24,2.03h-12.84V11.14h12.97c6.41,0,13.45,3.63,15.86,6.14l.25.22c1.6,1.28,4.2,1.19,5.58-.19l.76-.76-.14-11.82c0-4.73-3.59-4.73-5.12-4.73h-53.87c-2.12,0-2.97,1.24-3.23,1.77-.55,1.09-.39,2.39.42,3.47l.11.14c.54.62,1.94,4.49,1.94,14.75v46.3c0,9.77-1.3,13.96-2.05,14.88-.81,1.08-.97,2.38-.42,3.47.27.53,1.11,1.77,3.24,1.77h54.9c2.51,0,4.4-1.54,5.06-4.21l2.88-13.73v-.26c0-1.35-.81-2.52-2.11-3.06ZM753.13,81.82c-.51,2.05-1.92,2.18-2.57,2.18h-54.9c-1.15,0-1.15-.64-.77-1.15,1.67-2.05,2.57-8.34,2.57-16.42V20.13c0-8.08-.9-14.49-2.57-16.42-.38-.51-.38-1.15.77-1.15h53.87c1.92,0,2.57.13,2.57,2.18l.13,10.77c-.38.38-1.54.51-2.18,0-3.08-3.21-10.9-6.93-17.7-6.93h-15.52v31.04h15.39c5.26,0,10.65-2.57,12.19-2.82.38,0,.64.26.77.38v11.03c-.13.13-.38.26-.77.26-1.54-.26-6.16-2.69-12.19-2.69h-15.39v28.09c0,3.59.13,3.85,3.33,3.85h11.93c9.62,0,18.34-6.8,21.29-9.62.9-.9,2.57-.64,2.57.26l-2.82,13.47Z" fill="#eaaa00"/>
      <path d="M850.3,80.68c-5.06-3.39-10.75-9.41-18.41-19.49-3.51-4.76-6.69-9.4-9.67-14.11,10.02-5.27,15.3-13.08,15.3-22.73,0-15.25-12.37-24.36-33.08-24.36h-35.91c-2.12,0-2.97,1.24-3.23,1.77-.55,1.09-.39,2.39.42,3.47l.06.08c.69.85,1.99,5.04,1.99,14.81v46.3c0,9.77-1.3,13.96-2.05,14.88-.81,1.08-.97,2.38-.42,3.47.27.53,1.12,1.77,3.24,1.77h22.57c2.12,0,2.97-1.24,3.24-1.77.55-1.09.39-2.39-.42-3.47l-.11-.14c-.5-.58-1.81-4.37-1.81-14.75v-13.82c2.22.1,4.81.13,6.94.04l.18.3c2.65,4.5,5.39,9.16,8.76,14.04,2.51,3.61,9.22,12.45,17.27,16.55,4.49,2.49,9.69,3.66,16.38,3.66,2.49,0,5.9-.07,7.99-.42,1.38-.23,2.42-1.22,2.65-2.51.25-1.39-.46-2.75-1.84-3.58ZM849.07,84.26c-1.54.26-4.23.38-7.57.38-5.39,0-10.52-.77-15.14-3.33-6.29-3.21-12.31-9.88-16.42-15.78-3.72-5.39-6.67-10.52-9.62-15.52-3.08.26-8.21.13-10.9-.13v16.55c0,7.95.77,14.49,2.44,16.42.38.51.38,1.15-.77,1.15h-22.57c-1.15,0-1.15-.64-.77-1.15,1.67-2.05,2.56-8.34,2.56-16.42V20.13c0-8.08-.9-14.37-2.56-16.42-.38-.51-.38-1.15.77-1.15h35.91c11.93,0,30.53,3.46,30.53,21.8,0,12.83-10.39,18.98-16.42,21.68,2.69,4.36,6.29,9.88,11.29,16.67,8.98,11.8,14.49,17.06,19.11,20.14.9.51.9,1.28.13,1.41Z" fill="#eaaa00"/>
      <path d="M815.21,25.26c0-13.72-8.21-16.93-15.14-16.93h-10.65v35.79c2.31.38,6.03.51,10.52.38,8.85-.13,15.26-4.62,15.26-19.24ZM799.87,41.94c-3.12.09-5.83.05-7.89-.11V10.88h8.09c8.35,0,12.58,4.84,12.58,14.38,0,8.16-1.51,16.52-12.78,16.69Z" fill="#eaaa00"/>
      <path d="M956.55,0h-12.83c-1.15,0-2.19.64-2.7,1.66-.54,1.08-.42,2.38.3,3.43.97,1.68,2.54,6.69,2.54,15.29v35.02c0,12.78-6.42,19-19.64,19-12.18,0-18.1-5.71-18.1-17.46V20.13c0-12.31,1.56-14.59,1.74-14.81l.06-.08c.81-1.08.97-2.38.42-3.47-.27-.53-1.12-1.77-3.24-1.77h-22.7c-2.12,0-2.97,1.24-3.23,1.77-.55,1.09-.39,2.39.42,3.47l.11.14c.54.62,1.94,4.49,1.94,14.75v37.07c0,8.7,2.76,16.1,7.98,21.42,6.52,6.63,16.69,10,30.23,10,23.22,0,36.54-11.73,36.54-32.18V20.38c0-10.59,2.03-14.47,2.51-15.24.75-1.07.88-2.39.33-3.48-.51-1.02-1.55-1.66-2.7-1.66ZM956.8,3.71c-1.41,2.18-2.95,7.44-2.95,16.67v36.04c0,16.8-9.49,29.63-33.99,29.63-28.22,0-35.66-15.01-35.66-28.86V20.13c0-8.08-.9-14.49-2.57-16.42-.38-.51-.38-1.15.77-1.15h22.7c1.15,0,1.15.64.77,1.15-1.67,2.05-2.31,8.47-2.31,16.42v36.81c0,11.93,5.9,20.01,20.65,20.01s22.19-7.05,22.19-21.55V20.38c0-9.36-1.8-14.75-2.95-16.67-.38-.51-.26-1.15.26-1.15h12.83c.51,0,.64.64.26,1.15Z" fill="#9d2235"/>
      <path d="M1049.15,0h-12.96c-1.15,0-2.19.64-2.7,1.66-.54,1.08-.42,2.38.3,3.44.97,1.68,2.54,6.69,2.54,15.29v30.88l-40.5-48.92-.07-.08c-1.74-1.93-2.86-2.26-5.36-2.26h-20.01l-.5.05c-1.19.24-2.1,1.07-2.45,2.22-.35,1.16-.05,2.43.76,3.25.48.48,1.84,1.93,3.15,3.34.95,1.02,1.86,1.99,2.52,2.69v54.64c0,10.42-2.14,14.45-2.64,15.25-.71,1.03-.83,2.37-.28,3.46.52,1.03,1.53,1.68,2.65,1.68h12.95c1.16,0,2.19-.64,2.7-1.66.54-1.08.42-2.38-.3-3.43-.92-1.6-2.42-6.53-2.42-15.29V27.44l48.62,58.42.4.23c.92.53,3.64.73,6.24.73,2.42,0,4.75-.18,5.42-.43l1.66-.62V20.38c0-10.22,1.89-14.19,2.46-15.15.79-.97,1-2.26.54-3.38-.47-1.13-1.54-1.85-2.73-1.85ZM1049.28,3.71c-1.41,2.18-2.95,7.44-2.95,16.67v63.62c-1.03.38-8.59.38-9.49-.13l-52.85-63.49v45.79c0,9.36,1.67,14.75,2.82,16.67.38.51.26,1.15-.26,1.15h-12.95c-.38,0-.64-.64-.26-1.15,1.41-2.18,3.08-7.44,3.08-16.67V10.51c-1.03-1.03-5.39-5.77-6.41-6.8-.26-.26-.26-1.03.38-1.15h20.01c1.92,0,2.31.13,3.46,1.41l45.02,54.38V20.38c0-9.36-1.8-14.75-2.95-16.67-.38-.51-.26-1.15.26-1.15h12.96c.38,0,.64.64.13,1.15Z" fill="#9d2235"/>
      <path d="M1092.89,81.17c-.54-.62-1.94-4.49-1.94-14.75V20.13c0-9.77,1.3-13.96,1.99-14.81l.06-.08c.81-1.08.97-2.38.42-3.47-.27-.53-1.12-1.77-3.23-1.77h-22.96c-2.12,0-2.97,1.24-3.23,1.77-.55,1.09-.39,2.39.42,3.47l.11.14c.54.62,1.94,4.49,1.94,14.75v46.3c0,9.77-1.3,13.96-2.05,14.88-.81,1.08-.97,2.38-.42,3.47.27.53,1.12,1.77,3.24,1.77h22.96c2.12,0,2.97-1.24,3.24-1.77.55-1.09.39-2.39-.42-3.47l-.11-.14ZM1090.19,84h-22.96c-1.15,0-1.15-.64-.77-1.15,1.67-2.05,2.57-8.34,2.57-16.42V20.13c0-8.08-.9-14.49-2.57-16.42-.38-.51-.38-1.15.77-1.15h22.96c1.15,0,1.15.64.77,1.15-1.67,2.05-2.57,8.34-2.57,16.42v46.3c0,8.08.9,14.49,2.57,16.42.38.51.38,1.15-.77,1.15Z" fill="#9d2235"/>
      <path d="M1180.48,0h-75.93c-1.2,0-4.84,0-5.12,4.68l-.29,13.33,1.17.78c1.25.83,3.33,1.15,4.94-.14,3.48-2.81,10.15-7.51,15.71-7.51h9.38v55.29c0,10.78-1.71,13.9-2.45,14.74l-.12.15c-.81,1.08-.97,2.38-.42,3.47.27.53,1.12,1.77,3.24,1.77h23.99c2.12,0,2.97-1.24,3.24-1.77.55-1.09.39-2.39-.42-3.47l-.18-.21c-.56-.6-2.39-3.44-2.39-14.68V11.14h9.38c5.56,0,12.23,4.71,15.72,7.52,1.6,1.28,3.68.96,4.93.13l1.17-.78-.29-13.43c-.27-4.58-4.01-4.58-5.24-4.58ZM1181.51,16.66c-3.98-3.21-11.03-8.08-17.32-8.08h-11.93v57.85c0,9.49,1.28,14.49,3.08,16.42.38.51.38,1.15-.77,1.15h-23.99c-1.15,0-1.15-.64-.77-1.15,1.8-2.05,3.08-6.93,3.08-16.42V8.58h-11.93c-6.28,0-13.34,4.87-17.32,8.08-.64.51-1.54.26-1.92,0l.26-11.93c.13-2.18,1.28-2.18,2.56-2.18h75.93c1.41,0,2.57,0,2.69,2.18l.26,11.93c-.38.26-1.28.51-1.92,0Z" fill="#9d2235"/>
      <path d="M1255.82,65.3c-1.59-.66-3.57-.25-4.77.95-3.46,3.31-11.47,8.91-19.53,8.91h-11.93c-.3,0-.55,0-.77,0-.02-.44-.02-.96-.02-1.29v-25.54h12.84c3.96,0,7.26,1.18,9.45,1.95.98.35,1.68.6,2.32.7l.42.04c1.01,0,1.92-.36,2.57-1l.75-.75v-13.15l-.74-.75c-.75-.75-1.62-1.14-2.58-1.14l-.42.03c-.64.11-1.43.38-2.53.76-2.34.81-5.88,2.03-9.24,2.03h-12.84V11.14h12.97c6.42,0,13.45,3.63,15.86,6.14l.25.22c1.6,1.28,4.2,1.19,5.58-.19l.76-.76-.14-11.82c0-4.73-3.59-4.73-5.12-4.73h-53.87c-2.12,0-2.97,1.24-3.24,1.77-.54,1.09-.39,2.39.42,3.47l.11.14c.54.62,1.94,4.49,1.94,14.75v46.3c0,9.77-1.3,13.96-2.05,14.88-.81,1.08-.97,2.38-.42,3.47.27.53,1.12,1.77,3.24,1.77h54.9c2.51,0,4.4-1.54,5.06-4.21l2.88-13.73v-.26c0-1.34-.81-2.52-2.11-3.06ZM1252.56,81.82c-.51,2.05-1.92,2.18-2.57,2.18h-54.9c-1.15,0-1.15-.64-.77-1.15,1.67-2.05,2.56-8.34,2.56-16.42V20.13c0-8.08-.9-14.49-2.56-16.42-.38-.51-.38-1.15.77-1.15h53.87c1.92,0,2.57.13,2.57,2.18l.13,10.77c-.39.38-1.54.51-2.18,0-3.08-3.21-10.9-6.93-17.7-6.93h-15.52v31.04h15.39c5.26,0,10.65-2.57,12.19-2.82.38,0,.64.26.77.38v11.03c-.13.13-.38.26-.77.26-1.54-.26-6.16-2.69-12.19-2.69h-15.39v28.09c0,3.59.13,3.85,3.33,3.85h11.93c9.62,0,18.34-6.8,21.29-9.62.9-.9,2.56-.64,2.56.26l-2.82,13.47Z" fill="#9d2235"/>
      <path d="M1306.94,0h-38.99c-2.12,0-2.97,1.24-3.24,1.77-.54,1.09-.39,2.39.42,3.47l.11.14c.54.62,1.94,4.49,1.94,14.75v46.3c0,9.77-1.3,13.96-1.99,14.81l-.06.08c-.81,1.08-.97,2.38-.42,3.47.27.53,1.12,1.77,3.24,1.77h38.74c28.32,0,45.91-17.34,45.91-45.27,0-19.96-11.99-41.29-45.65-41.29ZM1306.68,84h-38.74c-1.15,0-1.15-.64-.77-1.15,1.67-2.05,2.56-8.34,2.56-16.42V20.13c0-8.08-.9-14.49-2.56-16.42-.38-.51-.38-1.15.77-1.15h38.99c29.37,0,43.1,17.44,43.1,38.74,0,23.99-13.98,42.71-43.35,42.71Z" fill="#9d2235"/>
      <path d="M1328.49,41.55c0-17.83-6.93-33.22-24.88-33.22h-14.49v66.31c0,2.31.13,3.21,2.69,3.21h11.8c17.96,0,24.88-15.26,24.88-36.3ZM1291.67,75.29c0-.25,0-.51,0-.65V10.88h11.94c20.15,0,22.33,21.45,22.33,30.67,0,15.39-3.87,33.75-22.33,33.75h-11.8s-.09,0-.13,0Z" fill="#9d2235"/>
      <path d="M121.09,2.55h-13.34c-.9,0-1.03.64-.9,1.15.77,1.92-.26,9.36-3.59,19.24l-14.75,43.61-16.16-39.89,1.67-3.98c4.62-11.03,7.57-16.67,10-18.98.51-.51.38-1.15-.26-1.15h-10.9c-.9,0-1.15.64-.9,1.15.77,1.8.38,7.57-2.57,15.52-2.69-7.05-4.23-12.44-3.72-15.52,0-.9-.13-1.15-1.15-1.15h-19.75c-.77,0-1.15.51-.51,1.15,2.57,3.33,5.52,11.16,8.98,19.62l6.16,15.26-11.54,27.71L31.68,23.46c-3.33-8.72-5.77-16.16-5.39-19.75.26-.9.13-1.15-1.03-1.15H3.34c-.77,0-1.03.64-.51,1.15,2.95,3.46,6.16,11.03,9.49,19.62l23.47,60.8h11.42l15.65-37.07,14.88,37.07h11.54l22.32-61.44c3.85-10.52,7.44-16.67,9.75-18.98.51-.51.38-1.15-.26-1.15Z" fill="#9d2235"/>
      <path d="M186.24,63.22L162.38,2.55h-12.57l-27.06,61.31c-4.87,11.03-8.34,16.55-10.65,18.98-.64.51-.64,1.15.13,1.15h14.11c1.03,0,1.28-.64,1.15-1.15-.9-1.92-.26-9.49,3.98-19.37l2.95-7.05h28.86l2.57,6.54c3.46,8.85,5.9,16.16,5.52,19.5,0,1.15.13,1.54,1.41,1.54h22.7c.9,0,.9-.9.51-1.54-2.82-3.46-6.54-10.9-9.75-19.24ZM136.86,50.78l12.7-30.01,11.54,30.01h-24.24Z" fill="#9d2235"/>
      <path d="M263.06,67.71c-3.46,3.59-12.06,10-21.81,10h-9.88c-3.21,0-3.46-.26-3.46-3.85V20.13c0-8.08.77-14.37,2.44-16.42.39-.51.39-1.15-.77-1.15h-22.83c-1.15,0-1.15.64-.77,1.15,1.67,1.92,2.57,8.34,2.57,16.42v46.3c0,8.08-.9,14.37-2.57,16.42-.38.51-.38,1.15.77,1.15h53.23c.77,0,2.18-.13,2.57-2.18l3.08-13.85c.13-.77-1.54-1.15-2.57-.26Z" fill="#9d2235"/>
      <path d="M338.09,2.55h-75.93c-1.28,0-2.44,0-2.56,2.18l-.26,11.93c.38.26,1.28.51,1.92,0,3.98-3.21,11.03-8.08,17.32-8.08h11.93v57.85c0,9.49-1.28,14.37-3.08,16.42-.38.51-.38,1.15.77,1.15h23.99c1.15,0,1.15-.64.77-1.15-1.8-1.92-3.08-6.93-3.08-16.42V8.58h11.93c6.29,0,13.34,4.87,17.32,8.08.64.51,1.54.26,1.92,0l-.26-11.93c-.13-2.18-1.28-2.18-2.69-2.18Z" fill="#9d2235"/>
      <path d="M410.43,68.1c-2.95,2.82-11.67,9.62-21.29,9.62h-11.93c-3.21,0-3.33-.26-3.33-3.85v-28.09h15.39c6.03,0,10.65,2.44,12.19,2.69.38,0,.64-.13.77-.26v-11.03c-.13-.13-.38-.38-.77-.38-1.54.26-6.93,2.82-12.19,2.82h-15.39V8.58h15.52c6.8,0,14.62,3.72,17.7,6.93.64.51,1.8.38,2.18,0l-.13-10.77c0-2.05-.64-2.18-2.57-2.18h-53.87c-1.15,0-1.15.64-.77,1.15,1.67,1.92,2.57,8.34,2.57,16.42v46.3c0,8.08-.9,14.37-2.57,16.42-.38.51-.38,1.15.77,1.15h54.9c.64,0,2.05-.13,2.57-2.18l2.82-13.47c0-.9-1.67-1.15-2.57-.26Z" fill="#9d2235"/>
      <path d="M521.76,66.3l-1.28-43.74c-.26-8.59.13-15.9,2.31-18.85.38-.51.26-1.15-.51-1.15h-17.06c-2.82,0-3.33.26-5.77,5.77l-23.99,55.54-27.06-59.39q-.9-1.92-2.82-1.92h-20.27c-.77,0-.9.64-.39,1.15,1.54,1.41,3.85,5.77,4.75,7.57l-1.92,54.9c-.26,8.85-1.8,14.62-2.82,16.67-.26.64-.26,1.15.51,1.15h11.29c.9,0,.9-.51.51-1.15-.9-2.05-2.31-7.57-2.05-16.67l1.28-45.53,28.6,63.11c.77.51,7.31.51,8.85,0l27.96-64.13,1.28,46.69c.26,10.26-.77,14.49-2.31,16.55-.38.51-.38,1.15.64,1.15h22.57c1.03,0,1.03-.64.64-1.15-1.67-1.92-2.57-6.16-2.95-16.55Z" fill="#9d2235"/>
      <path d="M601.15,68.1c-2.95,2.82-11.67,9.62-21.29,9.62h-11.93c-3.21,0-3.33-.26-3.33-3.85v-28.09h15.39c6.03,0,10.65,2.44,12.19,2.69.38,0,.64-.13.77-.26v-11.03c-.13-.13-.38-.38-.77-.38-1.54.26-6.93,2.82-12.19,2.82h-15.39V8.58h15.52c6.8,0,14.62,3.72,17.7,6.93.64.51,1.8.38,2.18,0l-.13-10.77c0-2.05-.64-2.18-2.57-2.18h-53.87c-1.15,0-1.15.64-.77,1.15,1.67,1.92,2.57,8.34,2.57,16.42v46.3c0,8.08-.9,14.37-2.57,16.42-.38.51-.38,1.15.77,1.15h54.9c.64,0,2.05-.13,2.57-2.18l2.82-13.47c0-.9-1.67-1.15-2.57-.26Z" fill="#9d2235"/>
      <path d="M685.41,2.55h-14.75c-1.03,0-1.03.51-.9,1.15.77,1.92.13,5.9-4.75,14.88l-13.08,23.86-13.47-23.99c-4.1-7.31-6.03-11.03-6.03-14.75,0-.64,0-1.15-1.03-1.15h-25.27c-1.15,0-1.03.77-.51,1.15,2.82,2.69,6.03,6.93,11.29,15.65l18.98,32.19v14.88c0,9.36-1.28,14.37-2.95,16.42-.38.51-.38,1.15.77,1.15h23.73c1.15,0,1.15-.64.77-1.15-1.67-1.92-2.95-7.05-2.95-16.42v-15.52l18.85-32.32c5.13-8.85,9.11-12.83,11.54-14.88.64-.38.51-1.15-.26-1.15Z" fill="#9d2235"/>
      <path d="M753.39,68.1c-2.95,2.82-11.67,9.62-21.29,9.62h-11.93c-3.21,0-3.33-.26-3.33-3.85v-28.09h15.39c6.03,0,10.65,2.44,12.19,2.69.38,0,.64-.13.77-.26v-11.03c-.13-.13-.38-.38-.77-.38-1.54.26-6.93,2.82-12.19,2.82h-15.39V8.58h15.52c6.8,0,14.62,3.72,17.7,6.93.64.51,1.8.38,2.18,0l-.13-10.77c0-2.05-.64-2.18-2.57-2.18h-53.87c-1.15,0-1.15.64-.77,1.15,1.67,1.92,2.57,8.34,2.57,16.42v46.3c0,8.08-.9,14.37-2.57,16.42-.38.51-.38,1.15.77,1.15h54.9c.64,0,2.05-.13,2.57-2.18l2.82-13.47c0-.9-1.67-1.15-2.57-.26Z" fill="#9d2235"/>
      <path d="M848.94,82.85c-4.62-3.08-10.13-8.34-19.11-20.14-5-6.8-8.59-12.31-11.29-16.67,6.03-2.69,16.42-8.85,16.42-21.68,0-18.34-18.6-21.8-30.53-21.8h-35.91c-1.15,0-1.15.64-.77,1.15,1.67,2.05,2.56,8.34,2.56,16.42v46.3c0,8.08-.9,14.37-2.56,16.42-.38.51-.38,1.15.77,1.15h22.57c1.15,0,1.15-.64.77-1.15-1.67-1.92-2.44-8.47-2.44-16.42v-16.55c2.69.26,7.82.38,10.9.13,2.95,5,5.9,10.13,9.62,15.52,4.1,5.9,10.13,12.57,16.42,15.78,4.62,2.57,9.75,3.33,15.14,3.33,3.33,0,6.03-.13,7.57-.38.77-.13.77-.9-.13-1.41ZM789.43,44.11V8.33h10.65c6.93,0,15.14,3.21,15.14,16.93,0,14.62-6.41,19.11-15.26,19.24-4.49.13-8.21,0-10.52-.38Z" fill="#9d2235"/>
      <path d="M956.55,2.55h-12.83c-.51,0-.64.64-.26,1.15,1.15,1.92,2.95,7.31,2.95,16.67v35.02c0,14.49-7.82,21.55-22.19,21.55s-20.65-8.08-20.65-20.01V20.13c0-7.95.64-14.37,2.31-16.42.38-.51.38-1.15-.77-1.15h-22.7c-1.15,0-1.15.64-.77,1.15,1.67,1.92,2.57,8.34,2.57,16.42v37.07c0,13.85,7.44,28.86,35.66,28.86,24.5,0,33.99-12.83,33.99-29.63V20.38c0-9.24,1.54-14.49,2.95-16.67.38-.51.26-1.15-.26-1.15Z" fill="#eaaa00"/>
      <path d="M1049.15,2.55h-12.96c-.51,0-.64.64-.26,1.15,1.15,1.92,2.95,7.31,2.95,16.67v37.97l-45.02-54.38c-1.15-1.28-1.54-1.41-3.46-1.41h-20.01c-.64.13-.64.9-.38,1.15,1.03,1.03,5.39,5.77,6.41,6.8v55.67c0,9.24-1.67,14.49-3.08,16.67-.38.51-.13,1.15.26,1.15h12.95c.51,0,.64-.64.26-1.15-1.15-1.92-2.82-7.31-2.82-16.67V20.38l52.85,63.49c.9.51,8.47.51,9.49.13V20.38c0-9.24,1.54-14.49,2.95-16.67.51-.51.26-1.15-.13-1.15Z" fill="#eaaa00"/>
      <path d="M1088.39,66.43V20.13c0-8.08.9-14.37,2.57-16.42.38-.51.38-1.15-.77-1.15h-22.96c-1.15,0-1.15.64-.77,1.15,1.67,1.92,2.57,8.34,2.57,16.42v46.3c0,8.08-.9,14.37-2.57,16.42-.38.51-.38,1.15.77,1.15h22.96c1.15,0,1.15-.64.77-1.15-1.67-1.92-2.57-8.34-2.57-16.42Z" fill="#eaaa00"/>
      <path d="M1180.48,2.55h-75.93c-1.28,0-2.44,0-2.56,2.18l-.26,11.93c.38.26,1.28.51,1.92,0,3.98-3.21,11.03-8.08,17.32-8.08h11.93v57.85c0,9.49-1.28,14.37-3.08,16.42-.38.51-.38,1.15.77,1.15h23.99c1.15,0,1.15-.64.77-1.15-1.8-1.92-3.08-6.93-3.08-16.42V8.58h11.93c6.29,0,13.34,4.87,17.32,8.08.64.51,1.54.26,1.92,0l-.26-11.93c-.13-2.18-1.28-2.18-2.69-2.18Z" fill="#eaaa00"/>
      <path d="M1252.82,68.1c-2.95,2.82-11.67,9.62-21.29,9.62h-11.93c-3.21,0-3.33-.26-3.33-3.85v-28.09h15.39c6.03,0,10.65,2.44,12.19,2.69.38,0,.64-.13.77-.26v-11.03c-.13-.13-.38-.38-.77-.38-1.54.26-6.93,2.82-12.19,2.82h-15.39V8.58h15.52c6.8,0,14.62,3.72,17.7,6.93.64.51,1.8.38,2.18,0l-.13-10.77c0-2.05-.64-2.18-2.57-2.18h-53.87c-1.15,0-1.15.64-.77,1.15,1.67,1.92,2.56,8.34,2.56,16.42v46.3c0,8.08-.9,14.37-2.56,16.42-.38.51-.38,1.15.77,1.15h54.9c.64,0,2.05-.13,2.57-2.18l2.82-13.47c0-.9-1.67-1.15-2.56-.26Z" fill="#eaaa00"/>
      <path d="M1306.94,2.55h-38.99c-1.15,0-1.15.64-.77,1.15,1.67,1.92,2.56,8.34,2.56,16.42v46.3c0,8.08-.9,14.37-2.56,16.42-.38.51-.38,1.15.77,1.15h38.74c29.37,0,43.35-18.73,43.35-42.71,0-21.29-13.72-38.74-43.1-38.74ZM1289.11,74.64V8.33h14.49c17.96,0,24.88,15.39,24.88,33.22,0,21.04-6.93,36.3-24.88,36.3h-11.8c-2.57,0-2.69-.9-2.69-3.21Z" fill="#eaaa00"/>
    </g>
  </g>
</svg>