<?xml version="1.0" encoding="UTF-8"?>
<svg id="Layer_2" data-name="Layer 2" xmlns="http://www.w3.org/2000/svg" viewBox="0 0 1731.27 70.25">
  <g id="Layer_1-2" data-name="Layer 1">
    <g>
      <path d="M71.51,23.94l-21.4,40.35c-3.04,5.59-3.41,5.95-4.13,5.95-.97,0-1.22-.37-4.14-6.08L19.22,18.96C14.11,8.75,10.95,3.65,2.55,3.65c-1.58,0-2.55-.49-2.55-1.22s.85-1.22,2.55-1.22c6.44,0,10.7.36,17.51.36,6.08,0,16.66-.36,22.74-.36,1.22,0,2.31.36,2.31,1.22s-1.46,1.22-2.19,1.22c-5.84.12-8.15,1.34-8.15,4.01,0,1.95,1.09,4.5,2.92,7.9l13.62,28.32,15.32-29.05c-3.41-6.08-6.2-11.18-13.01-11.18-1.46,0-2.43-.49-2.43-1.22s.85-1.22,2.55-1.22c5.11,0,15.32.36,20.8.36,7.54,0,9.85-.36,17.39-.36,1.82,0,2.55.49,2.55,1.22,0,.49-.97,1.22-2.55,1.22-5.59,0-7.66,1.58-7.66,4.38,0,2.07,1.22,4.86,2.8,8.02l14.84,27.22,15.2-28.56c1.34-2.55,2.55-4.98,2.55-6.81,0-2.55-2.19-4.25-8.76-4.25-2.92,0-2.92-2.43,0-2.43,5.11,0,13.01.36,18.12.36s9.12-.36,14.47-.36c1.46,0,2.19.49,2.19,1.22s-.97,1.22-2.43,1.22c-7.42,0-12.4,4.5-17.39,13.61l-25.17,46.79c-2.92,6.2-3.16,6.2-3.89,6.2-.85,0-.97,0-3.89-6.2l-21.4-40.11Z"/>
      <path d="M160.75,12.88c0-2.8-.36-4.38-.97-5.59-1.58-2.8-6.45-3.77-9.12-3.77-1.7,0-2.67-.49-2.67-1.22,0-.61.97-1.09,2.43-1.09,4.99,0,10.46.24,19.82.24s14.84-.24,19.82-.24c1.58,0,2.55.49,2.55,1.09,0,.73-1.09,1.22-2.67,1.22-2.67,0-7.66.97-9.24,3.77-.61,1.22-.97,2.8-.97,5.59v44.36c0,2.92.36,4.5.97,5.71,1.58,2.8,6.57,3.77,9.24,3.77,1.58,0,2.67.49,2.67,1.22,0,.61-.97,1.09-2.55,1.09-4.99,0-10.46-.24-19.82-.24s-14.84.24-19.82.24c-1.46,0-2.43-.49-2.43-1.09,0-.73.97-1.22,2.67-1.22,2.67,0,7.54-.97,9.12-3.77.61-1.22.97-2.8.97-5.71V12.88Z"/>
      <path d="M236.51,49.34c0,11.55.36,13.61,17.39,13.61h10.21c10.95,0,19.09-4.62,23.96-18.11.73-2.19,2.92-1.95,2.43.24l-3.89,15.8c-1.46,5.23-2.55,8.14-8.88,8.14h-28.82c-4.74,0-15.69-.24-20.8-.24-6.93,0-15.93.24-22.86.24-1.46,0-2.43-.61-2.43-1.09,0-.61.97-1.34,2.55-1.34,8.39,0,12.16-4.5,12.16-12.64V16.53c0-4.13-.49-6.44-1.46-8.02-1.95-3.4-7.42-4.86-10.7-4.86-1.83,0-3.16-.37-3.16-1.22s1.09-1.22,2.92-1.22c7.05,0,15.2.36,22.13.36s14.11-.36,21.52-.36c1.83,0,2.8.36,2.8,1.22s-1.22,1.22-3.04,1.22c-3.28,0-8.88,1.46-10.82,4.86-.73,1.58-1.22,3.89-1.22,8.02v32.81Z"/>
      <path d="M372.45,19.69c.12,2.19-2.07,2.43-2.67.24-3.16-10.57-15.93-13.25-29.07-13.25-7.9,0-21.28,1.22-21.28,8.75,0,15.92,59.83,4.25,59.83,32.81,0,17.5-21.4,22-40.86,22s-25.42-3.77-30.04-4.62c-2.67-.49-1.83.97-3.04.97-.85,0-1.58-.49-1.94-3.89l-1.83-16.89c-.12-.97.36-1.58,1.22-1.58s.97.73,1.34,1.58c6.57,15.43,22.74,17.74,34.29,17.74s25.05-1.82,25.05-10.21c0-17.99-59.83-2.92-59.83-32.45,0-17.74,21.41-20.9,37.09-20.9,13.13,0,17.63,1.34,26.02,3.28,2.43.61,1.83-.97,3.04-.97.73,0,1.22.24,1.58,4.5l1.09,12.88Z"/>
      <path d="M432.76,69.03c-5.11,0-11.07-.24-18.85-.24-9.24,0-14.71.24-19.58.24-1.7,0-2.55-.49-2.55-1.09,0-.73.85-1.22,2.55-1.22,2.67,0,7.66-.97,9.24-3.77.61-1.22.97-2.8.97-5.59V13c0-2.92-.36-4.5-.97-5.71-1.58-2.8-6.57-3.77-9.24-3.77-1.7,0-2.55-.49-2.55-1.22,0-.61.85-1.09,2.55-1.09,4.86,0,10.34.24,19.7.24,4.5,0,11.19-.24,16.54-.24h33.81c7.18,0,7.18-1.22,8.63-1.22,1.34,0,1.58.49,1.22,2.92l-1.95,15.07c-.24,2.19-2.07,2.31-2.31,0-1.82-10.33-6.44-10.33-17.27-10.33h-20.92c-6.32,0-8.27,1.46-8.27,7.29v13.73c0,1.34.36,1.7,1.83,1.7h20.19c6.93,0,10.46-4.25,10.58-8.14,0-1.58.61-2.31,1.22-2.31s1.09.73,1.09,2.31c0,2.92-.24,7.9-.24,11.3s.24,8.26.24,11.3c0,1.7-.48,2.31-1.09,2.31s-1.22-.49-1.22-2.31c0-3.89-3.65-8.02-10.58-8.02h-20.19c-1.58,0-1.83.49-1.83,1.7v11.79c0,9.97,2.67,12.28,14.11,12.28h10.34c15.93,0,22.99-5.1,27.12-14.1.85-1.82,3.04-1.34,2.43.73l-3.41,11.18c-2.43,8.14-3.41,8.63-11.07,8.63h-30.28Z"/>
      <path d="M526.99,49.59c0-3.4-.49-4.13-2.8-6.93l-18-22.12c-7.42-9.11-15.57-16.89-22.62-17.01-1.82,0-3.16-.24-3.16-1.34,0-.61,1.09-.97,2.92-.97,7.18,0,11.31.24,18.85.24,9,0,15.2-.24,20.92-.24,1.83,0,2.8.36,2.8,1.09,0,.97-1.22,1.22-2.67,1.22-3.89,0-5.84.97-5.84,3.04,0,1.7,1.46,4.13,4.01,7.41l18.48,22.85,19.46-23.21c2.31-2.67,3.41-4.98,3.41-6.56,0-2.31-2.19-3.52-6.08-3.52-1.58,0-2.55-.36-2.55-1.22s1.09-1.09,2.55-1.09c5.96,0,9.36.24,14.96.24,5.11,0,9.24-.24,14.35-.24,1.94,0,2.8.24,2.8,1.09,0,.97-1.09,1.22-2.92,1.22-6.2.12-8.88,2.31-18.85,14.34l-20.19,24.31c-1.83,2.19-1.95,2.8-1.95,7.17v4.25c0,4.25.49,6.44,1.34,8.14,1.82,3.52,7.42,4.86,10.82,4.86,1.82,0,3.16.37,3.16,1.22s-1.09,1.22-2.92,1.22c-7.18,0-14.23-.24-21.28-.24s-14.11.24-21.53.24c-1.82,0-2.92-.36-2.92-1.22s1.34-1.22,3.16-1.22c3.41,0,8.88-1.46,10.82-4.86.97-1.7,1.46-3.89,1.46-8.14v-4.01Z"/>
      <path d="M677.17,23.94l-21.41,40.35c-3.04,5.59-3.4,5.95-4.13,5.95-.97,0-1.22-.37-4.13-6.08l-22.62-45.21c-5.11-10.21-8.27-15.31-16.66-15.31-1.58,0-2.55-.49-2.55-1.22s.85-1.22,2.55-1.22c6.45,0,10.7.36,17.51.36,6.08,0,16.66-.36,22.74-.36,1.22,0,2.31.36,2.31,1.22s-1.46,1.22-2.19,1.22c-5.84.12-8.15,1.34-8.15,4.01,0,1.95,1.09,4.5,2.92,7.9l13.62,28.32,15.32-29.05c-3.41-6.08-6.2-11.18-13.01-11.18-1.46,0-2.43-.49-2.43-1.22s.85-1.22,2.55-1.22c5.11,0,15.32.36,20.8.36,7.54,0,9.85-.36,17.39-.36,1.82,0,2.55.49,2.55,1.22,0,.49-.97,1.22-2.55,1.22-5.6,0-7.66,1.58-7.66,4.38,0,2.07,1.22,4.86,2.8,8.02l14.84,27.22,15.2-28.56c1.34-2.55,2.55-4.98,2.55-6.81,0-2.55-2.19-4.25-8.76-4.25-2.92,0-2.92-2.43,0-2.43,5.11,0,13.01.36,18.12.36s9.12-.36,14.47-.36c1.46,0,2.19.49,2.19,1.22s-.97,1.22-2.43,1.22c-7.42,0-12.4,4.5-17.39,13.61l-25.17,46.79c-2.92,6.2-3.16,6.2-3.89,6.2-.85,0-.97,0-3.89-6.2l-21.4-40.11Z"/>
      <path d="M811.29,49.34h-43.9l-3.65,5.47c-1.09,1.58-3.65,5.47-3.65,8.14,0,2.07,1.34,3.77,5.72,3.77,1.58,0,2.55.49,2.55,1.09s-.85,1.22-2.43,1.22c-5.11,0-10.09-.24-14.96-.24-5.11,0-10.34.24-15.45.24-1.58,0-2.43-.61-2.43-1.22,0-.49.85-1.09,2.43-1.09,7.42-.12,11.07-3.04,18.85-14.34l30.28-44.24c-1.7-2.92-6.45-4.62-9.49-4.62-1.58,0-2.55-.61-2.55-1.22s.97-1.09,2.43-1.09h15.81c7.54,0,10.95,1.95,14.11,6.81l29.07,43.75c3.77,5.71,10.58,14.95,16.78,14.95,1.58,0,2.43.61,2.43,1.34,0,.61-.85.97-2.43.97-6.2,0-12.4-.24-18.61-.24s-12.65.24-19.09.24c-1.58,0-2.31-.36-2.31-1.09,0-.49.73-1.22,2.31-1.22,2.55,0,5.84-.61,5.84-3.65,0-1.46-.73-3.28-4.01-8.26l-3.65-5.47ZM771.88,42.54h34.9l-17.39-26.5-17.51,26.5Z"/>
      <path d="M858.21,3.65c-1.82-.12-3.28-.24-3.28-1.22,0-.85,1.22-1.22,2.92-1.22,7.78,0,13.99.24,22.25.24,7.54,0,14.71-.24,26.27-.24,13.13,0,39.28.24,39.28,19.32,0,11.79-9.37,16.65-20.07,18.72,2.67,1.09,4.62,3.28,7.3,6.68,10.58,14.1,18,20.78,28.58,20.78,3.4,0,3.16,2.07.36,2.43-2.31.24-5.47.49-12.89.49-16.9,0-22.25-.12-41.35-25.89-2.55-2.92-5.72-3.16-7.91-3.16h-9c-1.46,0-1.7.37-1.7,1.82v11.18c0,11.91,6.32,12.76,12.16,13,1.83.12,3.28.24,3.28,1.22,0,.85-1.22,1.22-2.92,1.22-7.54,0-14.59-.24-21.65-.24s-14.84.24-22.38.24c-1.7,0-2.92-.36-2.92-1.22,0-.97,1.46-1.09,3.28-1.22,5.72-.36,12.16-.85,12.16-13V16.53c0-11.91-5.96-12.64-11.8-12.88ZM907.34,35.25c9.73,0,17.63-4.62,17.63-14.71,0-11.55-7.9-13.98-17.63-13.98h-8.03c-9.85,0-10.34.12-10.34,9.97v17.14c0,1.09.36,1.58,1.7,1.58h16.66Z"/>
      <path d="M968.13,3.65c-1.82-.12-3.28-.24-3.28-1.22,0-.85,1.22-1.22,2.92-1.22,7.78,0,13.99.24,22.25.24,7.54,0,14.71-.24,26.27-.24,13.13,0,39.28.24,39.28,19.32,0,11.79-9.37,16.65-20.07,18.72,2.68,1.09,4.62,3.28,7.3,6.68,10.58,14.1,18,20.78,28.58,20.78,3.41,0,3.16,2.07.36,2.43-2.31.24-5.47.49-12.89.49-16.9,0-22.25-.12-41.35-25.89-2.55-2.92-5.72-3.16-7.91-3.16h-9c-1.46,0-1.7.37-1.7,1.82v11.18c0,11.91,6.32,12.76,12.16,13,1.83.12,3.28.24,3.28,1.22,0,.85-1.22,1.22-2.92,1.22-7.54,0-14.59-.24-21.65-.24s-14.84.24-22.38.24c-1.7,0-2.92-.36-2.92-1.22,0-.97,1.46-1.09,3.28-1.22,5.72-.36,12.16-.85,12.16-13V16.53c0-11.91-5.96-12.64-11.8-12.88ZM1017.26,35.25c9.73,0,17.63-4.62,17.63-14.71,0-11.55-7.9-13.98-17.63-13.98h-8.03c-9.85,0-10.34.12-10.34,9.97v17.14c0,1.09.36,1.58,1.7,1.58h16.66Z"/>
      <path d="M1089,12.88c0-2.8-.36-4.38-.97-5.59-1.58-2.8-6.45-3.77-9.12-3.77-1.7,0-2.67-.49-2.67-1.22,0-.61.97-1.09,2.43-1.09,4.99,0,10.46.24,19.82.24s14.84-.24,19.82-.24c1.58,0,2.55.49,2.55,1.09,0,.73-1.09,1.22-2.68,1.22-2.67,0-7.66.97-9.24,3.77-.61,1.22-.97,2.8-.97,5.59v44.36c0,2.92.36,4.5.97,5.71,1.58,2.8,6.57,3.77,9.24,3.77,1.58,0,2.68.49,2.68,1.22,0,.61-.97,1.09-2.55,1.09-4.99,0-10.46-.24-19.82-.24s-14.84.24-19.82.24c-1.46,0-2.43-.49-2.43-1.09,0-.73.97-1.22,2.67-1.22,2.67,0,7.54-.97,9.12-3.77.61-1.22.97-2.8.97-5.71V12.88Z"/>
      <path d="M1185.67,0c32.84,0,55.45,12.28,55.45,34.39,0,18.6-15.81,35.85-54.48,35.85-31.25,0-55.45-11.3-55.45-34.39,0-18.84,15.93-35.85,54.48-35.85ZM1153.69,33.91c0,17.5,11.43,30.99,32.96,30.99,16.54,0,31.98-7.9,31.98-28.56,0-17.5-11.19-30.99-32.71-30.99-16.54,0-32.23,7.9-32.23,28.56Z"/>
      <path d="M1253.4,3.65c-1.82-.12-3.28-.24-3.28-1.22,0-.85,1.22-1.22,2.92-1.22,7.78,0,13.98.24,22.25.24,7.54,0,14.71-.24,26.27-.24,13.13,0,39.28.24,39.28,19.32,0,11.79-9.36,16.65-20.06,18.72,2.67,1.09,4.62,3.28,7.3,6.68,10.58,14.1,18,20.78,28.58,20.78,3.41,0,3.16,2.07.37,2.43-2.31.24-5.47.49-12.89.49-16.9,0-22.25-.12-41.35-25.89-2.55-2.92-5.71-3.16-7.9-3.16h-9c-1.46,0-1.7.37-1.7,1.82v11.18c0,11.91,6.32,12.76,12.16,13,1.82.12,3.28.24,3.28,1.22,0,.85-1.22,1.22-2.92,1.22-7.54,0-14.59-.24-21.65-.24s-14.84.24-22.37.24c-1.7,0-2.92-.36-2.92-1.22,0-.97,1.46-1.09,3.28-1.22,5.72-.36,12.16-.85,12.16-13V16.53c0-11.91-5.96-12.64-11.8-12.88ZM1302.53,35.25c9.73,0,17.63-4.62,17.63-14.71,0-11.55-7.91-13.98-17.63-13.98h-8.03c-9.85,0-10.34.12-10.34,9.97v17.14c0,1.09.36,1.58,1.7,1.58h16.66Z"/>
      <path d="M1434.58,19.69c.12,2.19-2.07,2.43-2.67.24-3.16-10.57-15.93-13.25-29.07-13.25-7.9,0-21.28,1.22-21.28,8.75,0,15.92,59.83,4.25,59.83,32.81,0,17.5-21.4,22-40.86,22s-25.42-3.77-30.04-4.62c-2.67-.49-1.82.97-3.04.97-.85,0-1.58-.49-1.95-3.89l-1.83-16.89c-.12-.97.37-1.58,1.22-1.58s.97.73,1.34,1.58c6.57,15.43,22.74,17.74,34.29,17.74s25.05-1.82,25.05-10.21c0-17.99-59.83-2.92-59.83-32.45,0-17.74,21.4-20.9,37.09-20.9,13.13,0,17.63,1.34,26.03,3.28,2.43.61,1.82-.97,3.04-.97.73,0,1.22.24,1.58,4.5l1.09,12.88Z"/>
      <path d="M1517.38,40.59c-1.09,0-1.34.61-1.34,1.7v14.95c0,2.92.36,4.5.97,5.71,1.58,2.8,6.57,3.77,9.24,3.77,1.58,0,2.68.49,2.68,1.22,0,.61-.97,1.09-2.55,1.09-4.99,0-10.34-.24-19.7-.24s-14.96.24-19.94.24c-1.46,0-2.43-.49-2.43-1.09,0-.73.97-1.22,2.67-1.22,2.67,0,7.54-.97,9.12-3.77.61-1.22.97-2.8.97-5.71V13c0-2.92-.36-4.5-.97-5.71-1.58-2.8-6.57-3.77-9.24-3.77-1.7,0-2.55-.49-2.55-1.22,0-.61.85-1.09,2.55-1.09,4.86,0,10.34.24,19.7.24,4.5,0,9-.24,14.35-.24h35.63c7.18,0,6.93-1.22,8.51-1.22,1.34,0,1.7.49,1.34,2.92l-1.95,15.07c-.12,1.22-.73,1.58-1.22,1.58-.37,0-.85-.36-1.09-1.58-1.82-10.33-6.45-10.33-17.27-10.33h-23.23c-4.62,0-5.59,3.28-5.59,6.32v18.47c0,1.09.24,1.7,1.34,1.7h17.03c6.08,0,9.12-5.47,9.24-8.26.24-1.58.73-2.31,1.34-2.31.73,0,1.09.73,1.09,2.31,0,2.92-.24,8.02-.24,11.42s.24,8.87.24,11.79c0,1.58-.36,2.31-1.09,2.31-.61,0-1.09-.73-1.34-2.31-.12-2.8-3.04-8.51-9.24-8.51h-17.03Z"/>
      <path d="M1569.18,61.25c0-5.83,4.62-8.87,9.48-8.87s9.37,3.04,9.37,8.99-4.5,8.87-9.37,8.87-9.48-3.04-9.48-8.99Z"/>
      <path d="M1694.43,59.55c-1.09,3.77-1.46,4.62-5.6,6.56-6.93,3.28-23.59,4.13-31.01,4.13-24.81,0-57.64-8.39-57.64-35.12S1633.14,0,1657.83,0c10.95,0,19.34,1.7,31.13,4.13,2.19.61,2.67-.85,4.01-.85.73,0,1.22.73,1.22,2.43v17.99c0,1.94-1.7,1.94-2.19.36-4.13-14.95-21.28-18.72-34.17-18.72-17.76,0-34.54,8.75-34.54,29.78s14.11,29.78,34.54,29.78c18.12,0,32.84-9.11,38.18-19.81.85-1.7,2.31-1.22,2.19.36l-3.77,14.1Z"/>
      <path d="M1712.42,61.25c0-5.83,4.62-8.87,9.48-8.87s9.37,3.04,9.37,8.99-4.5,8.87-9.37,8.87-9.48-3.04-9.48-8.99Z"/>
    </g>
  </g>
</svg>