<?xml version="1.0" encoding="UTF-8"?>
<svg id="Layer_2" data-name="Layer 2" xmlns="http://www.w3.org/2000/svg" viewBox="0 0 371.95 300">
  <g id="Layer_1-2" data-name="Layer 1">
    <g>
      <g>
        <g id="AylMWc">
          <path d="M246.22,83.35c9.5-4.26,21.03-11.81,24.89-22.22,1.06-2.86-4.41-9.89-2.34-15.35C272.3,36.52,329.95-.07,337.69,0c4.54.04,1.6,3,.93,4.76-4.78,12.68-32.96,63.17-43.93,66.97-4.37,1.52-13.81-4.22-17.75-2.28-3.35,1.65-16.68,15.54-19.79,19.37-3.1,3.81-.19,10.88-3.26,15.76-.43.69-10.46,10.99-11.3,11.67-5.91,4.75-13.43.98-16.22,3.16l-158.39,158.7c-6.11,7.92-.53,14.61-14.96,20.73-14.4,6.11-16.33-13.18-2.67-21.53,4.11-2.51,10.39-.86,13.65-5.86L221.13,114.17c2.4-3.26-1.89-10.99,2.65-16.23,1.23-1.42,4.05-1.88,5.34-3.26,2.2-2.34,3.19-5.6,5.44-7.35,2.45-1.9,8.31-2.48,11.65-3.98Z"/>
        </g>
        <g id="AylMWc-2" data-name="AylMWc">
          <path d="M125.55,94.6c-4.26-9.5-11.81-21.03-22.22-24.89-2.86-1.06-9.89,4.41-15.35,2.34-9.26-3.52-45.84-61.17-45.78-68.91.04-4.54,3-1.6,4.76-.93,12.68,4.78,63.17,32.96,66.97,43.93,1.52,4.37-4.22,13.81-2.28,17.75,1.65,3.35,15.54,16.68,19.37,19.79,3.81,3.1,10.88.19,15.76,3.26.69.43,10.99,10.46,11.67,11.3,4.75,5.91.98,13.43,3.16,16.22l158.7,158.39c7.92,6.11,14.61.53,20.73,14.96,6.11,14.4-13.18,16.33-21.53,2.67-2.51-4.11-.86-10.39-5.86-13.65L156.36,119.69c-3.26-2.4-10.99,1.89-16.23-2.65-1.42-1.23-1.88-4.05-3.26-5.34-2.34-2.2-5.6-3.19-7.35-5.44-1.9-2.45-2.48-8.31-3.98-11.65Z"/>
        </g>
      </g>
      <g>
        <path d="M70.09,155.27l-20.34,39.7c-2.94,5.64-3.55,6.62-4.29,6.62-.98,0-1.47-.98-4.29-6.62l-21.93-45.21c-5.64-11.39-8.45-15.68-17.15-15.68-1.22,0-2.08-.37-2.08-1.1,0-.61.61-.98,2.08-.98,6.13,0,10.42.37,16.79.37,5.39,0,15.56-.37,21.08-.37,1.1,0,1.96.24,1.96.98s-1.1,1.1-1.96,1.1c-6.49.12-9.07,1.47-9.07,4.41,0,1.96,1.23,4.53,2.94,8.09l15.68,33.57,16.42-32.84c-3.43-6.98-6.37-13.23-14.09-13.23-1.23,0-2.08-.37-2.08-1.1,0-.61.61-.98,2.08-.98,5.27,0,13.72.37,19.11.37,6.74,0,9.8-.37,16.42-.37,1.47,0,2.08.37,2.08,1.1,0,.37-.86.98-2.08.98-6,0-8.21,1.59-8.21,4.66,0,2.08.98,4.9,2.7,8.33l16.66,32.47,16.79-33.33c1.47-2.94,2.2-5.27,2.2-7.11,0-3.43-2.82-5.02-9.07-5.02-2.45,0-2.45-2.08,0-2.08,4.53,0,11.89.37,16.91.37s9.56-.37,14.7-.37c1.22,0,1.96.37,1.96.98,0,.74-.98,1.1-2.08,1.1-6.86,0-11.89,3.43-17.4,14.34l-23.65,46.07c-2.82,6.25-3.31,7.11-4.17,7.11s-1.35-.86-4.29-7.11l-20.34-39.21Z"/>
        <path d="M300.03,155.27l-20.34,39.7c-2.94,5.64-3.55,6.62-4.29,6.62-.98,0-1.47-.98-4.29-6.62l-21.93-45.21c-5.64-11.39-8.46-15.68-17.15-15.68-1.23,0-2.08-.37-2.08-1.1,0-.61.61-.98,2.08-.98,6.13,0,10.41.37,16.79.37,5.39,0,15.56-.37,21.08-.37,1.1,0,1.96.24,1.96.98s-1.1,1.1-1.96,1.1c-6.49.12-9.07,1.47-9.07,4.41,0,1.96,1.23,4.53,2.94,8.09l15.68,33.57,16.42-32.84c-3.43-6.98-6.37-13.23-14.09-13.23-1.22,0-2.08-.37-2.08-1.1,0-.61.61-.98,2.08-.98,5.27,0,13.72.37,19.12.37,6.74,0,9.8-.37,16.42-.37,1.47,0,2.08.37,2.08,1.1,0,.37-.86.98-2.08.98-6,0-8.21,1.59-8.21,4.66,0,2.08.98,4.9,2.69,8.33l16.66,32.47,16.79-33.33c1.47-2.94,2.2-5.27,2.2-7.11,0-3.43-2.82-5.02-9.07-5.02-2.45,0-2.45-2.08,0-2.08,4.53,0,11.89.37,16.91.37s9.56-.37,14.7-.37c1.22,0,1.96.37,1.96.98,0,.74-.98,1.1-2.08,1.1-6.86,0-11.89,3.43-17.4,14.34l-23.65,46.07c-2.82,6.25-3.31,7.11-4.16,7.11s-1.35-.86-4.29-7.11l-20.34-39.21Z"/>
        <g>
          <path d="M134.59,259.64c-.58,0-.75.33-.75.92v10.43c0,2.34.17,3.5.67,4.42,1.08,1.92,4.34,2.67,6.17,2.75,1,0,1.84.17,1.84.67,0,.42-.67.67-1.67.67-3.42,0-7.09-.17-12.18-.17s-8.76.17-12.18.17c-1,0-1.67-.25-1.67-.67,0-.5.83-.67,1.84-.67,1.83-.08,5-.83,6.09-2.75.5-.92.67-2.09.67-4.42v-29.53c0-2.34-.17-3.59-.67-4.51-1.08-1.92-4.34-2.67-6.17-2.67-1.25,0-1.75-.17-1.75-.67s.5-.67,1.75-.67c3.34,0,6.92.17,11.93.17,3.17,0,6.42-.17,9.93-.17h24.11c4.75,0,4.92-.83,5.76-.83.67,0,.92.33.67,1.59l-1.25,10.51c-.08.67-.42.92-.75.92-.17,0-.5-.17-.58-.92-1.08-7.51-4.67-7.51-12.43-7.51h-15.18c-4.25,0-4.92,1.67-4.92,5.17v13.01c0,.58.17.92.75.92h12.93c3.5,0,5.76-3.17,5.84-5.67.08-.83.33-1.34.83-1.34s.67.5.67,1.34c0,2-.17,5.34-.17,7.51s.17,5.67.17,7.76c0,.83-.17,1.42-.67,1.42s-.75-.58-.83-1.42c-.08-2.42-2.09-5.76-5.84-5.76h-12.93Z"/>
          <path d="M171.04,274.91c0-3.25,2.5-5.17,5.59-5.17s5.42,1.92,5.42,5.26-2.42,5.17-5.42,5.17-5.59-1.92-5.59-5.26Z"/>
          <path d="M253.05,272.16c-1.17,3.67-1.58,4.51-4.17,5.67-4.09,1.84-12.93,2.5-20.11,2.5-16.35,0-37.71-5.92-37.71-24.11s21.52-24.11,37.71-24.11c6.92,0,12.68,1.08,20.61,3.25,1.75.58,2.17-.42,3-.42.42,0,.75.42.75,1.42v12.35c0,1.17-1.08,1.17-1.34.25-2.67-10.43-13.1-13.77-23.02-13.77-12.68,0-24.86,6.17-24.86,21.02s11.18,21.02,24.86,21.02c12.68,0,22.19-6.92,25.36-13.77.5-1.08,1.5-.75,1.33.25l-2.42,8.43Z"/>
          <path d="M266.14,274.91c0-3.25,2.5-5.17,5.59-5.17s5.42,1.92,5.42,5.26-2.42,5.17-5.42,5.17-5.59-1.92-5.59-5.26Z"/>
        </g>
      </g>
    </g>
  </g>
</svg>