<?xml version="1.0" encoding="UTF-8"?>
<svg id="Layer_2" data-name="Layer 2" xmlns="http://www.w3.org/2000/svg" viewBox="0 0 244.22 300">
  <g id="Layer_1-2" data-name="Layer 1">
    <g id="FTxFn2.tif">
      <g>
        <path d="M244.06,300c-10.21-3.58-19.92-8.37-29.05-14.16-21.09-13.37-38.71-31.89-61.58-42.49,11.5-.25,20.42,7.55,30.36,11.98,11,4.9,23.28,7.44,35.29,5.24l3.1-.73c-14.26,1.02-28.73-2.44-40.92-9.78-3.2-1.92-6.18-4.19-9.44-6.03-13.21-7.48-28.69-11.29-43.94-10.76-5.21.18-10.42,1.02-15.62,1.26-3.8.17-7.59.05-11.4.32-13,.91-25.78,3.68-38.36,6.87l5.07-3.75c17.81-15.29,22.92-42.08,14.26-63.64-1.31-3.27-3.13-6.31-4.52-9.54-6.7-15.57-6.87-33.92-.52-49.64,1.33-3.3,3.09-6.37,4.69-9.53-5.55,6.15-9.68,13.65-11.72,21.72-4.08,16.09-.24,33.23,8.32,47.14-7.01,26.19-22.79,49.7-44.19,66.22-7.03,5.43-14.56,9.73-22.22,14.19-3.86,2.25-7.72,4.56-11.66,6.62.12-.18.34-.2.47-.35,5.62-6.63,10.8-13.67,15.18-21.19,7.94-13.64,13.48-28.73,16.15-44.33l13.51-8.52-12.5,2.89c.21-3.47.75-6.92.94-10.39.4-7.2.15-14.86-.63-22.04-.37-3.4-.98-6.77-1.55-10.14l19.52-6.5-20.31,2.81c-2.54-13.73-2.9-27.65-.76-41.46,1.14-7.38,3.05-14.66,5.54-21.68l31,9-28.13-16.33c5.62-13.02,13.62-25.46,23.43-35.71.43-.45,2.69-2.83,2.98-2.97.12-.06.23-.1.37-.08l9.7,5.63-5.59-9.11-.05-.57c11.77-10.36,25.6-18.64,40.47-23.76.94-.32,5.3-1.9,5.92-1.73l8.69,21.57-2.9-23.14c16.44-4.06,33.79-4.43,50.43-1.35,2.35.43,4.67.98,6.99,1.53l-5.14,29.21,12.92-26.86,31.14,10.29c-4.83,1.04-9.56,3.09-13.74,5.72-15.91,10.02-24.06,28.68-20.59,47.29.28,1.52.72,3,1.04,4.5-24.59-11.07-54.71-8.08-76.4,7.89,4.53-1.96,9.08-3.77,13.87-5.04,29.2-7.69,67.2.71,86.75,24.73,1.41,1.74,2.68,3.6,3.9,5.48l-32.02,4.6,49.31,1.71c.33,4.36.24,8.71.37,13.06.51,16.38.06,33.28,4.24,49.21,2.11,8.03,5.25,15.64,9.06,23l-6.83,5.51c-.52.04-2.5-3.25-2.83-3.84-3.19-5.61-5.33-12.81-6.86-19.08-3.18-13.01-4.62-26.54-5.74-39.89l-36.57-14.22,31.64,17.66-45.32-13.67c2.79,10.03,9.43,18.33,19.18,22.23,8.26,3.3,17.13,5.7,25.43,8.94.27.11,1.07.33,1.15.57,1.5,23.23,4.93,46.28,9.94,68.97,5.08,23,11.7,45.61,17.42,68.44h-.16ZM173.75,33.25c.11-.22-.1-.42-.15-.31-.11.22.1.42.15.31ZM107.97,81.69c-.22-.11-.42.1-.31.15.22.11.42-.1.31-.15ZM165.47,96.38c-6.21-1.04-12.37-2.68-18.67-3.13-26.24-1.84-60.77,14.86-58.2,45.39.79,9.4,5.42,18.47,12.65,24.46-.16-3.27-.97-6.51-1.25-9.77-2.43-28.23,17.54-53.39,45.72-56.78,6.43-.77,12.76.22,19.2-.02.19,0,.58.12.54-.15Z" fill="#b30007"/>
        <path d="M173.75,33.25c-.05.11-.27-.09-.15-.31.05-.11.27.09.15.31Z" fill="#b30007"/>
        <path d="M107.97,81.69c.11.05-.09.27-.31.15-.11-.05.09-.27.31-.15Z" fill="#b30007"/>
        <path d="M216.87,144.51c.11.05-.09.27-.31.15-.11-.05.09-.27.31-.15Z" fill="#b30007"/>
      </g>
    </g>
  </g>
</svg>