<?xml version="1.0" encoding="UTF-8"?>
<svg id="Layer_2" data-name="Layer 2" xmlns="http://www.w3.org/2000/svg" xmlns:xlink="http://www.w3.org/1999/xlink" viewBox="0 0 331.42 331.42">
  <defs>
    <clipPath id="clippath">
      <path d="M165.71,165.71l-74.78-74.78c19.82-19.82,46.74-30.97,74.78-30.97s54.95,11.15,74.78,30.97l-74.78,74.78Z"/>
    </clipPath>
    <clipPath id="clippath-1">
      <path d="M165.71,165.71l74.78,74.78c-19.82,19.82-46.74,30.97-74.78,30.97-28.04,0-54.95-11.15-74.78-30.97l74.78-74.78Z"/>
    </clipPath>
  </defs>
  <g id="Layer_1-2" data-name="Layer 1">
    <g>
      <g>
        <path d="M165.71,330.52C74.83,330.52.9,256.59.9,165.71S74.83.9,165.71.9s164.81,73.93,164.81,164.81-73.93,164.81-164.81,164.81Z"/>
        <path d="M165.71,1.8c90.53,0,163.91,73.39,163.91,163.91s-73.39,163.91-163.91,163.91S1.8,256.24,1.8,165.71,75.18,1.8,165.71,1.8M165.71,0c-44.26,0-85.88,17.24-117.18,48.54C17.24,79.83,0,121.45,0,165.71s17.24,85.88,48.54,117.18c31.3,31.3,72.91,48.54,117.18,48.54s85.88-17.24,117.18-48.54c31.3-31.3,48.54-72.91,48.54-117.18s-17.24-85.88-48.54-117.18C251.59,17.24,209.97,0,165.71,0h0Z"/>
      </g>
      <path d="M14.06,211.98c1.64,5.08,3.83,11.1,5.01,13.11.17.29.27.46,2.91-.33,1.44-.43,3.08-1,4.27-1.48,1.08-.44,2.9-1.31,2.91-2.25,0-.55-.7-3.17-1.36-5.35-1-3.27-1.16-4.18-.81-4.41.56-.36.9-.47,1.19-.38.87.28,1.93,2.57,3.69,7,1.53,3.82,2.41,6.43,2.55,7.09-.31.24-1.26.82-2.55,1.46-7.55,3.77-9.09,5.27-9.09,6.38,0,2.41,7.43,15.76,10.33,18.55l1.98,1.91,2.43-1.2c1.22-.6,2.99-1.77,3.94-2.61l1.95-1.71-5.1-9.57,2.49-1.52,1.33,2.02c5.92,8.94,6.78,11.1,6.9,11.58-3.03,2.08-10.23,7.85-10.23,9.01s5.72,8.01,7.47,10.07c2.8,3.29,7.65,8.8,8.66,8.8.72,0,3.73-2.98,4.64-3.89l4.03-4.07-7.88-7.95.85-.71c.49-.41.93-.72,1.15-.86.58.48,2.56,2.37,5.46,5.28l5.18,5.21-2.2,2.56c-1.36,1.58-3.44,4.09-4.63,5.59l-2.41,3.03,2.91,2.63c3.71,3.36,7.52,6.29,12.74,9.82l4.8,3.24,1.95-2.25c1.76-2.03,3.72-5.29,3.72-6.73,0-.58-.47-1.27-1.1-1.61-.41-.22-2.07-1.44-3.9-2.9l-2.75-2.21,1.77-2.22,6.23,4.02c.44.29.86.55,1.25.81,2.69,1.73,4.17,2.68,4.54,3.53.32.73-.14,1.59-1.32,3.61-.16.28-.33.57-.51.89-1.07,1.87-2.33,4.38-2.82,5.61-.9,2.29-.95,2.53.47,3.64.82.64,20,10.56,20.9,10.56.31,0,.48,0,1.6-2.72.63-1.54,1.33-3.43,1.87-5.05.73-2.2.75-2.55-.49-3.59-.64-.54-2.7-1.62-4.69-2.46-1.89-.8-3.2-1.56-3.45-1.82-.02-.21.08-.9.39-1.64l.42-1.01,14.61,6.2-.66,2.19c-.52,1.71-1.26,4.38-1.95,6.94-1.19,4.45-1.18,4.46-.86,4.68,2.3,1.63,19.58,5.89,23.5,5.89.21,0,.39-.01.52-.04.09-.02.36-.07.5-.3.45-.73,1.34-5.19,1.71-8.18l.28-2.18-5.87-1.28c-1.22-.27-4.4-.96-4.87-1.39.15-.43.27-1.01.28-1.37,0-.51.06-.75.2-.86.6-.48,3.5.11,8.58,1.21,4.69,1.01,7.74,1.83,8.43,2.11.04.64-.1,3.1-.48,6.72-.61,5.72-.6,6.97.11,7.4.55.34,4.59.82,6.64,1.03,7.91.79,9.22.88,14.02.98l4.57.09v-11.23l-3.46-.36c-1.71-.18-4.31-.33-5.8-.33-1.02,0-1.99,0-2.16-.17-.09-.09-.08-.5-.08-.77,0-.7.16-1.4.28-1.66.46-.21,3.04-.63,8.58-1.02,4.2-.29,8.97-.7,9.67-.87.25-.06.4-.07.46-.04.24.15.47,1.38.61,2.11l1.3,6.74c.45,2.33.76,4.11.77,4.31,0,.19.09.36.26.48,1.4,1.01,15.31-1.33,21.24-3.31l3.47-1.16-.26-3.18c-.19-2.38-1.34-7-2.75-7-.34,0-2.91.41-5.15.8-2.28.39-4.2.68-4.67.24-.2-.19-.24-.62-.14-1.5.08-.76.58-1.01,7.21-2.72l7.06-1.82.52,1.02c.36.72,1.05,2.53,1.54,4.03.5,1.54,1.33,3.6,1.85,4.58.58,1.09.88,2,.88,2.18,0,.59.46,1.07,1.03,1.07,2.26,0,17.73-5.79,19.7-7.37.38-.3,1.07-.69,1.51-.85.61-.22,1.23-.79,1.43-1.32.4-1.04-3.14-8.55-3.98-9.07-.77-.47-7.19,2.08-8.92,2.97-.5.26-1.19.59-1.51.44-.31-.14-.52-.87-.65-1.4-.2-.81.03-1.05,6.69-4.37l6.88-3.44,3.11,4.85c1.62,2.54,3.64,5.48,4.19,5.94.93.78,1.83.4,4.36-.98,3.31-1.8,12.61-8.16,15.31-10.47l1.93-1.65-1.61-2.33c-.77-1.12-2.25-2.93-3.29-4.03-1.56-1.65-2.15-2.27-3.35-1.22-.47.41-2.45,1.85-4.31,3.15l-3.13,2.17-.91-1.14c-.51-.64-.81-1.14-.91-1.38,1.2-1.09,10-7.64,11.53-8.59.54.51,2.22,2.31,4.63,5.05,1.43,1.63,4.84,5.42,5.58,5.42.21,0,.77,0,9.22-8.75,8.45-8.74,8.45-9.33,8.45-9.52,0-1.05-4.27-4.66-6.16-5.77l-1.79-1.05-7.68,7.01-2.2-2.11,2.19-2.5c1.36-1.55,3.76-4.22,5.36-5.96l2.65-2.88,2.7,1.84c1.66,1.13,4.34,2.87,5.97,3.87l3.26,2.01,1.97-2.23c3.77-4.28,11.93-17.07,11.43-18.94-.06-.21-.2-.36-.38-.42-.2-.07-1.19-.64-2.33-1.43-.93-.64-2.63-1.4-3.8-1.86-2.8-1.1-3.03-.79-3.2-.56-.07.1-1.84,2.77-2.76,4.16-1.28,1.94-2.29,3.45-2.65,3.98-.23-.09-.65-.3-1.24-.67l-1.17-.74,7.62-13.49,3.78,1.59c2.28.96,5.19,2.22,6.5,2.8,2.66,1.19,2.9.93,3.06.75.62-.67,4.62-9.16,5.85-12.26.66-1.67,1.49-4.2,2.17-6.6,1.17-4.16.92-4.33.67-4.52-.95-.7-5.72-2.31-7.51-2.53-2.28-.29-2.51-.15-3.5,2.09-.52,1.17-1.33,3.3-1.81,4.76-.47,1.42-.89,2.15-1.33,2.28-.32.1-.8-.1-1.46-.6-.62-.47-.62-.7,1.33-7.17,1.2-3.97,2.13-6.63,2.4-7.17.46-.07,2.29.11,5.29.74,2.98.63,6.07,1.05,7.04.96,1.7-.16,2.1-.67,2.69-2.46,1.71-5.23,3.64-16.65,3.27-19.4-.28-2.09-.59-2.48-2.41-2.98-2.36-.66-7.04-.8-7.93.28-.44.54-1.13,3.41-1.48,5.21q-.79,4.03-1.83,4.03c-.66,0-1.2-.19-1.34-.31-.17-1.01.48-9.73,1.13-14.21l.19-1.32,13.89.63.48-1.7c.52-1.87.5-16.04-.03-20.49l-.45-3.77h-11.43l.68,12.05h-3.09l-.25-2.5c-.16-1.58-.43-5.24-.6-8.16l-.29-4.89,3.83-.56c2.35-.34,5.46-.98,6.94-1.42l3-.89-.35-3.32c-.66-6.37-4.24-19.51-5.89-20.53-.77-.48-6.78.85-8.62,1.56l-1.69.65,2.81,10.85-.69.26c-.77.29-1.21.33-1.59.13-1.28-.67-2.36-4.54-4.37-12.58-.22-.9-.24-.95,3.05-2.35,2-.85,4.9-2.11,6.47-2.8l3.18-1.42-1.08-3.53c-1.12-3.67-8.21-18.59-9.49-19.08-.59-.22-1.82.01-2.68.36-1.09.43-2.82,1.42-3.98,2.14-2.69,1.67-2.67,1.98-2.66,2.24.02.34,1.57,3.59,2.23,4.98l2,4.14-1.2.64c-.7.37-1.25.55-1.48.59-.88-1.24-6.47-11.48-7.15-13.1.53-.46,2.6-1.89,5.75-3.83,6.21-3.84,6.21-4.29,6.21-4.51,0-.63-3.87-6.01-7.12-10.4-1.18-1.6-7.13-9.61-8-10.16-.27-.17-.58-.03-.88.14-1.33.78-7.41,6.06-7.38,7.12.02.7,2.76,4.42,3.07,4.85l2.75,3.72-.92.93c-.56.57-1.07.77-1.22.77-.9-.7-8.81-10.25-9.78-11.78.43-.56,2.15-2.45,4.84-5.15l5.32-5.35-3.03-3.11c-2.95-3.03-11.48-10.45-14.26-12.41-1.67-1.17-1.97-1.26-3.4-.25-.75.53-2.24,2.29-3.41,4l-2.25,3.32,1.72,1.46c2.84,2.41,5.98,5.52,6.49,6.24-.12.2-.45.63-.98,1.13l-.88.83-5.79-4.65c-3.26-2.62-5.37-4.46-5.89-5,.32-.63,1.63-2.76,3.68-5.85.42-.63.79-1.18,1.13-1.68,1.53-2.24,2.29-3.37,2.08-4.44-.22-1.08-1.38-1.84-3.7-3.34-.51-.33-1.08-.7-1.72-1.13-2.85-1.89-14.83-8.9-15.68-8.9-.26,0-.62,0-2.47,3.58-.81,1.57-1.82,3.72-2.02,4.63-.4,1.89.03,2.16,4.15,4.68,2.15,1.32,3.6,2.26,4.06,2.59-.16.64-1.03,1.91-1.39,2.09-1.18-.3-12.05-5.62-13.18-6.46-.09-.31.13-1.56,1.67-5.63.26-.7.51-1.34.73-1.92,2.23-5.86,2.37-6.21-.33-7.35-.23-.1-.48-.2-.75-.33-4.95-2.22-11.23-4.41-15.63-5.44-.7-.16-4.21-.98-4.47-.98-1.07,0-2.41,4.48-2.67,5.69-.29,1.31-.64,2.79-.78,3.24-.11.35-.08.67.07.95.19.35.55.6,1.12.76.62.18,2.96,1.01,5.21,1.84l3.69,1.37-.37,1.05c-.26.75-.72,1.16-.86,1.17-1.04,0-13.08-3.22-14.47-3.86-.07-.44.04-2.06.42-4.22.42-2.33.9-5.38,1.07-6.8l.36-2.95-2.54-.64c-3.51-.88-8.74-1.76-13.66-2.3-5.41-.6-8.44-.61-9.01-.04-.26.26-.45,2.06-.56,5.37l-.19,5.25h1.79c1.65.03,8.07,1.16,9.09,1.55.02.22,0,.75-.15,1.45l-.27,1.22-4.72-.28c-2.8-.17-6.25-.42-7.7-.57l-2.24-.23V7.09l-6.84.37c-5.72.31-11.54.85-17.31,1.62-2.04.27-2.25.53-2.25,2.73,0,1.15.28,3.45.62,5.12l.69,3.35,10.68-.56.24,1.2c.14.73.11,1.32.05,1.52-1.31.5-13.43,2.06-15.14,1.95-.24-.61-.93-3.02-1.81-6.64l-1.7-6.99-2.95.32c-3.19.35-12.44,2.77-17.37,4.55l-4.02,1.45.37,2.4c.35,2.29,2.67,7.69,4.01,7.69.5,0,3.49-.75,5.26-1.23l4.08-1.09.23,1.07c.17.75.1,1.39.03,1.52-.38.23-3.11,1.33-7.45,2.84l-6.8,2.38-1.09-2.49c-.69-1.58-2.04-4.48-3.01-6.46l-1.91-3.91-2.19.6c-1.8.5-6.97,3.11-10.85,5.19-1.99,1.07-8.52,4.62-9.11,5.58-.64,1.04,1.61,4.88,3.02,7.08.75,1.18,1.23,1.95,1.3,2.07l.06.16.18.07c.21.08.32.12,5.34-2.41,2.47-1.24,4.27-1.96,4.84-2.08.16.27.44.82.7,1.43.24.57.28.67-.24,1.12-.7.61-2.24,1.52-5.37,3.35-3.61,2.12-6.07,3.4-6.66,3.63-.47-.37-2.13-2.25-4.35-5.2-1.91-2.54-4.32-5.57-4.95-5.57-1.72,0-16.08,11.44-17.94,13.88l-1.49,1.95,2.98,3.98c.67.9,2.89,3.83,3.4,4.02.18.07.66.25,4.5-3,2.65-2.24,4.11-3.48,4.71-3.42.25.02.51.33.91.82l.82,1.02-11.4,10.34-4.56-4.55c-.51-.51-5.01-4.97-6-4.97-1.51,0-11.07,11.14-13.84,15.21l-2.74,4.04,2.35,2.18c1.17,1.08,3.03,2.43,4.14,2.99l2.26,1.16,1.86-2.12c.91-1.03,2.54-2.82,3.64-4l1.72-1.83,2.08,1.84-3.86,5.15c-2.27,3.02-4.45,6-4.87,6.63l-.52.79-5.52-3.34c-1.4-.85-6.02-3.61-6.55-3.61-.3,0-1.09,0-5.59,7.75-2.03,3.49-4.74,8.55-5.71,11.31-.73,2.07-.68,2.36.73,3.83,1.07,1.12,6.51,3.61,7.66,3.51.26-.02.39-.15.46-.25.09-.14,2.41-4.49,2.51-4.68,1.18-2.21,2.11-3.93,2.4-4.45.59.18,2.14,1.09,2.52,1.48-.24.67-1.49,3.46-3.18,7.01l-3.09,6.49-6.2-2.16c-6.82-2.38-7.28-1.92-7.45-1.75-1.52,1.53-7.09,19.73-7.09,23.19,0,.38.29.71,1.79,1.28,1.25.47,7.66,2.45,8.47,1.54.42-.48,1.79-4.91,1.85-5.09.76-2.46,1.3-4.09,1.46-4.51.51-.09,2.22.6,2.45.99-.06,1.18-2.76,12.86-3.32,14.41-.6.05-2.77-.07-5.91-.46-2.96-.37-6.42-.69-7.09-.59-1.11.16-1.52,1.18-2.02,3.39-.89,3.94-2.09,16.8-1.81,19.38.25,2.28.41,2.43,3,2.74,1.35.16,3.73.16,5.31,0l3.19-.33.05-3.2c.02-1.54.19-3.91.37-5.28.13-1,.23-1.73.42-1.96.13-.16.46-.17,1.23-.17h1.31l-.13,5.33c-.08,3.17-.25,6.89-.4,8.27l-.23,2.18-6.38.49c-2.58.2-6.96.59-7.36.99-.17.17-.49.49.17,8.2.39,4.57.92,8.92,1.33,11.08.8,4.16,1.52,5.37,4.75,5.37,1.95,0,6.15-1.32,6.83-2.32.39-.57.02-2.85-.02-3.11-.21-1.29-.48-3.51-.6-4.95l-.18-2.17h1.46c.77,0,1.31.09,1.53.16.15,1.04.91,5.3,1.23,7.01.65,3.55,1.13,6.4,1.22,7.13-.5.29-2.53.99-6.53,1.93-6.99,1.64-7.14,1.77-7.22,1.84-.24.21-.82.71,2.55,11.15ZM29.89,198.66c-.16-.88-1.03-5.77-1.94-10.88l-1.72-9.66-4.55.18c-3.19.13-4.78.19-5.59,1.14-.82.96-.63,2.63-.24,5.95l.03.22c.3,2.55.34,4.54.24,4.84-.11.3-.71.51-1.37.48-.67-.02-1.24-.27-1.33-.58-.46-1.53-1.23-7.24-1.59-11.76-.21-2.71-.25-4.23.14-4.48.34-.16,2.97-.39,6.81-.39h6.74s.34-8.33.34-8.33c.18-4.35.46-9.51.62-11.5.03-.36.06-.68.09-.97.31-3.21-.07-3.26-4.68-3.87-.48-.06-1.01-.13-1.6-.21-3.12-.43-4.14-.37-4.53.27-.3.49-.59,2.69-.72,4.05l-.09.95c-.29,3.26-.44,4.9-.72,5.67-.19.53-.35.54-1.29.53h-.27c-1.54,0-1.54-.16-1.54-.48,0-1.6,1.35-14.63,1.72-16.72.74.02,3,.25,6.27.72,2.27.32,6.75.86,7.42.61.24-.09.96-.37,2.07-5.27.59-2.58,1.67-7.22,2.41-10.35,1.19-5,1.34-6.03.42-6.61-1.16-.74-6.18-2.16-7.9-2.24h-.21c-1.64-.11-1.7.11-3.3,5.54l-.26.88c-.47,1.59-.78,2.63-1.08,3.03-.17.23-.32.25-1.12.18-.65-.06-.94-.11-1.02-.25-.14-.25-.11-1.01-.09-1.97.07-2.42,1.85-8.69,3.65-12.92l.79-1.84,5.93,2.11c2.21.79,6.53,2.27,7.06,2.27.8,0,1.81-2.36,2.2-3.38.66-1.7,2.62-5.98,4.36-9.53.54-1.09,3.22-6.58,3.22-7.12,0-.27,0-.68-4.19-2.84-.95-.49-4.12-2.09-4.96-2.09-.89,0-2.74,3.32-3.49,4.75-2.41,4.59-2.79,4.62-4.38,4.01-.29-.11-.52-.42-.52-.61,0-1.4,6.75-13.75,7.97-14.64.53.1,2.92,1.28,6.15,3.3,6.12,3.83,6.55,3.34,6.75,3.1.26-.29,1.73-2.39,3-4.26,1.41-2.07,4.24-5.89,6.31-8.51,3.87-4.9,3.85-5.15,3.83-5.33-.02-.2-.04-.42-3.67-3.55-1.07-.92-3.61-3.09-4.07-3.25-.62-.21-1.88,1.07-2.58,1.85l-.09.1c-3.59,4.07-5.23,5.92-5.94,5.92h0c-.24,0-.51-.29-.97-.79l-.02-.03c-.37-.41-.53-.61-.53-.76,0-.19.24-.58.57-1.1,1.16-1.81,7.24-9,9.16-10.83l1.25-1.2,10.26,10.25,5.82-5.43c3.04-2.83,6.81-6.26,8.41-7.65l3.22-2.78-3.13-3.96c-1.12-1.42-3.15-3.8-4.15-3.8-.87,0-3.73,2.19-5.13,3.34l-3.56,2.95-.81-1.1c-.53-.72-.87-1.34-.97-1.58.89-1.02,8.1-6.82,11.71-9.32l1.37-.95.93.88c.63.59,2.58,3.12,4.27,5.51,3.26,4.64,3.77,4.64,3.94,4.64.14,0,.4,0,9.3-5.26,1.48-.87,8.86-5.25,9.33-5.7.21-.2.45-.44-1.1-3.94-.67-1.51-1.67-3.56-2.28-4.36l-1.15-1.51-4.99,2.26c-2.84,1.29-4.83,2.05-5.1,2.08-.11,0-.45-.25-.77-.82-.3-.53-.33-.92-.29-.98.7-.81,12.92-7.6,14.9-8.32.35.67,1.32,2.82,2.67,6,.83,1.95,2.82,6.52,3.48,6.78.68.26,4.63-1.22,5.41-1.52,2.5-.95,6.17-2.22,8.2-2.83,6.58-1.96,7.75-2.47,7.75-4.44,0-1.27-2.01-7.85-2.75-8.59-.17-.17-.4-.4-4.82.93-4.38,1.31-5.88,1.49-6.18.72-.5-1.3-.31-1.76,1-2.43,1.19-.62,12.79-3.81,14.79-4.1.22.8.83,3.32,1.57,6.53.72,3.13,1.63,6.91,1.91,7.19.18.18.35.35,10.53-.97,1.02-.13,10.04-1.31,10.96-1.67.52-.2,1.07-.84,1.28-1.49.28-.87-.47-8.71-1.07-9.31-.14-.14-.33-.33-5.86.11-2.63.21-3.92.3-4.58.22-.44-.05-.45-.1-.57-.58-.14-.55-.18-1.39-.1-1.84.14-.73,3.01-1,12.16-1.5l5.43-.3v14.87l7.3.34c3.79.18,8.69.46,10.92.64l4.44.36.65-3.94c.33-1.98.59-4.27.59-5.12,0-2.11-.82-2.2-6.14-2.8-4.71-.53-4.87-.89-4.87-2.52,0-.32,0-1.08.16-1.24.06-.06.24-.09.53-.09,1.5,0,14.43,2.05,16.34,2.57-.04.71-.39,3.06-1.08,6.44-.51,2.51-1.32,6.8-1.01,7.31.34.54,3.28,1.28,4.17,1.5,2,.48,6.43,1.63,9.88,2.56,3.06.83,6.63,1.71,7.21,1.71.84,0,1.58-1.14,2.82-4.35.17-.43,1.62-4.25,1.34-4.98-.28-.72-4.13-2.1-5.31-2.51-2.6-.9-4.35-1.61-4.78-1.84-.02-.22,0-.76.12-1.41.1-.54.18-.82.3-.88.23-.11.95,0,1.64.09,2.24.31,13.16,4.23,14.58,5.07-.14.65-.9,2.91-2.21,6.17-.26.64-2.51,6.27-2.51,6.78,0,.25,0,.71,7.14,4.29,3.8,1.91,8.07,4.15,9.51,5.01.82.49,2.78,1.61,3.21,1.61,0,0,0,0,0,0,.26,0,.66,0,2.87-4.01,2.76-5.02,2.48-5.48,2.36-5.67-.36-.59-4.63-3.11-4.81-3.22-1.99-1.18-3.55-2.11-4.16-2.47.13-.27.38-.73.74-1.33l.79-1.29,4.01,2.17c4.82,2.6,9.94,5.87,10.83,6.7-.35.62-1.63,2.62-3.61,5.55-1.43,2.11-3.83,5.73-3.83,6.2,0,.25,0,.37,2.67,2.63,1.63,1.38,3.78,3.14,6.06,4.97l8.88,7.1,3.6-3.93c.56-.62,3.38-3.71,3.54-4.09.11-.28.25-.62-4.27-4.49-2.15-1.83-3.55-3.2-3.92-3.66.16-.32.46-.92.76-1.51.26-.53.53-.9.69-1.07,1.65,1.16,12.12,10.32,13.04,11.43.33.4-1.1,1.85-4.65,5.17l-5.64,5.28,2.6,2.94c1.27,1.44,4.46,5.3,7.11,8.6,1.28,1.6,2.55,3.11,3.56,4.25,1.69,1.91,1.89,1.91,2.11,1.91.58,0,2.76-1.57,4.48-2.88,3.83-2.92,3.83-3.36,3.83-3.57,0-.55-2.3-3.67-3.28-4.98l-2.97-3.94,2.31-2.22.93,1.13c.67.82,3.13,4.15,5.48,7.43l4.01,5.59-5.5,3.45c-3.41,2.13-5.98,3.69-6.24,3.81-.14.05-.25.16-.3.3-.21.59,1.02,2.75,1.77,3.98,1.17,1.92,3.61,6.31,5.43,9.79,2.95,5.64,3.76,6.55,4.58,6.28.48-.16,2.89-1.23,4.94-2.18l4.55-2.1-2.47-4.93c-1.39-2.77-2.19-4.76-2.22-5.08,0-.4,1.05-1.26,1.9-1.35,1.12,1.26,7.2,13.52,7.25,14.65,0,.93-.52,1.33-6.45,3.78-.91.38-5.49,2.28-5.79,2.59-.22.22-.38.38,2.4,10.49,1.25,4.55,2.82,10.05,3.17,10.41.7.7,7.42-1.06,8.64-1.57,2.34-.98,2.23-1.77.71-7.65l-1.07-4.11,1.39-.43c.83-.25,1.45-.3,1.67-.27.62,1.45,3.83,14.95,3.83,16.15,0,.58-.42.75-5.27,1.49-.86.13-1.64.24-2.33.34-5.85.85-6.2.9-5.86,5.01.04.44.08.93.11,1.49.18,2.71.46,7.24.63,10.09.45,7.52.71,7.81,6.95,7.81h5.26l-.72-12.05h3.19l.27,2.75c.17,1.72.36,5.54.41,8.51.07,3.43.01,5.24-.46,5.57-.07.04-.9.43-7.3.16l-7.24-.31-.33,6.08c-.17,3.1-.66,7.97-1.09,10.84-.25,1.64-.76,5.5-.24,6.03.68.68,8.83,2.21,9.8,1.84.73-.28,1.24-2.75,1.53-4.77l.07-.51c.38-2.58.59-4.01.9-4.62.21-.41.41-.45,1.47-.44h.19c1.54,0,1.54.01,1.54.77,0,1.28-1.15,7.67-2.32,12.89l-.07.32c-.31,1.38-.49,2.21-.96,2.5-.71.44-2.56,0-6.25-.9l-.61-.15c-4.53-1.09-6.44-1.24-7.31-.55-.34.27-.51.65-.51,1.14-.02.44-1.15,4.37-2.73,9.33-1.12,3.49-2.77,8.9-2.77,9.49,0,.26,0,.58,2.22,1.85.06.04,6.55,3.67,7.55,3.09.4-.24,1.41-3.09,2.18-5.45.96-2.94,1.54-4.4,2.22-4.72.36-.17.84-.1,1.85.29.74.29.68,1.2-1.17,6.06-2.54,6.66-4.23,9.43-4.78,9.71,0,0,0,0-.01,0-.44,0-2.51-.67-5.29-1.95-2.76-1.27-5.3-2.39-5.8-2.55-1.52-.51-2.51.75-4.74,4.79-1.02,1.85-3.16,5.6-4.76,8.35-1.03,1.76-2.98,5.28-2.97,5.99,0,.28.19.58.62,1,1.54,1.5,6.32,4.5,7.66,4.45.35,0,1.16-.03,3.96-4.47,1.43-2.26,2.63-3.77,2.98-4.04.7.09,2.18,1.25,2.3,1.63-.42,1.26-7.73,12.39-8.76,13.32-.53.48-.98.3-6-3.23-5.8-4.07-6.15-4.05-6.28-4.04-.14,0-.52.04-2.8,2.89-1.19,1.48-4.38,5.06-7.11,7.97-5.09,5.42-5.09,5.81-5.09,5.96s0,.55,3.73,4.32l3.91,3.94,4.15-4.05c2.2-2.15,3.92-3.49,4.31-3.63.24.03.85.37,1.31.88.38.42.45.5-.06,1.19-.7.95-2.4,2.65-5.49,5.75l-6.16,6.18-4.35-4.93c-3.18-3.59-5.01-5.42-5.46-5.42-.57,0-3.77,2.44-5.12,3.49-3.46,2.69-7.86,5.96-12.07,8.98-.11.08-.18.2-.2.34-.09.83,3.44,6.21,4.43,7.3.6.65,1.62,1.34,2.33,1.34.77,0,3.2-1.55,4.64-2.59,4-2.88,4.4-2.71,5.47-1.53.22.25.53.59.55.67-.04.12-.46.45-.79.71-.68.53-3.89,2.76-7.17,4.97-.38.26-.74.5-1.08.73-2.6,1.76-4.03,2.73-4.94,2.53-.86-.19-1.66-1.49-3.1-3.87-.19-.32-.4-.66-.62-1.02-3.13-5.11-3.8-5.99-4.63-5.99-.01,0-.02,0-.03,0-.52.01-8.33,3.92-9.89,4.71-8.15,4.09-9.52,5.11-9.64,5.98-.15,1.03,2.59,8.26,3.26,9,.24.26.35.38,5.7-2.03,2.45-1.1,4.4-1.95,5.02-2.19.15.2.43.63.75,1.25.62,1.2.51,1.47.28,1.75-.82.8-14.05,6.12-15.23,6.12-.7,0-1.7-2.74-3.55-8.48-.01-.04-1.17-3.61-1.59-4.08-.15-.16-.54-.6-8.01,1.45-3.97,1.09-8.42,2.23-9.93,2.55l-.22.05c-4.32.9-4.45,1.12-3.5,5.85l.05.24c.04.18.86,4.3,1.43,4.87.21.21.63.63,5.91-.07,2.7-.36,4.66-.58,5.19-.12.21.18.29.55.3,1.31,0,.9-.98,1.32-8.43,2.71-3.86.72-7.45,1.4-8.01,1.52-.19.04-.25.03-.27.02-.35-.24-.69-2.65-1.06-5.2-.41-2.86-1.11-6.36-1.54-7.26-.92-1.9-1.62-1.87-10.54-.94-3,.31-7.62.57-10.29.57-.38,0-.73,0-1.06,0-4.38-.03-4.57.17-5,5.23-.03.38-.07.8-.11,1.24l-.04.39c-.18,1.93-.27,3,.35,3.72.74.86,2.25.95,5.88,1.15l5.08.29v3.02l-3.44-.06c-2.13-.04-5.99-.28-8.6-.54-2.57-.25-4.41-.59-4.88-.76-.08-.57.03-2.94.5-6.38.04-.26.86-6.43.63-7.12-.08-.23-.29-.33-.55-.43-1.42-.55-7.44-1.94-12.44-3-10.54-2.24-11-1.98-11.18-1.88-.97.55-2.67,7.61-2.51,8.95.21,1.88,1.24,2.24,7.51,3.63q2.7.6,2.83,1.92c.11,1.17-.13,1.4-.38,1.5-1.24.16-15.19-3.03-16.32-3.74-.39-.24.72-3.8,1.31-5.71,2.41-7.73,2.6-8.36-1.1-9.67-1.44-.51-5.96-2.35-10.06-4.11-7.54-3.22-7.71-3.22-7.8-3.22-.29,0-.43,0-1.59,2.29-.66,1.31-1.46,3.01-2.19,4.66l-1.41,3.19,3.17,1.46c1.55.71,3.9,1.68,5.26,2.16,1.15.41,1.87.79,2.12.98-.08.31-.32,1.03-.66,1.85l-.55,1.31-5-2.34c-6.88-3.22-9.91-5.08-10.4-5.63.23-.54,1.36-2.6,3.16-5.61.55-.92,3.32-5.56,3.32-6.19,0-.64-2.22-2.18-4.08-3.35-2.14-1.34-6.1-3.97-8.83-5.85-.85-.58-5.11-3.5-5.78-3.5-1.14,0-6.21,7.01-6.21,8.07,0,.96,3.75,3.89,4.17,4.22,2.09,1.62,3.47,2.85,3.81,3.25-.1.22-.38.71-.82,1.24l-.7.86-2.61-1.72c-1.61-1.06-4.88-3.49-7.28-5.4-2.71-2.16-4.04-3.33-3.79-3.76.22-.38,2.2-2.74,4.71-5.52l4.55-5.06-7.93-7.96c-2.03-2.04-4.01-3.97-5.55-5.43-2.52-2.37-2.69-2.37-2.9-2.37-.84,0-7.19,5.57-7.74,6.42-.16.25-.55.85,3.55,4.99l3.55,3.59-2.44,2.44-3.3-3.48c-3.16-3.33-7.16-8.41-7.8-9.6.62-.48,2.52-1.91,5.02-3.79.05-.04,5.18-3.9,5.53-4.47.15-.24.26-.43-1.23-3.04-.89-1.55-2.1-3.52-3.43-5.56-2.74-4.21-5.38-8.35-5.9-9.25-.4-.69-1.15-1.85-1.72-1.85-.79,0-5.79,2.65-7.26,3.69-.76.53-1.56,1.48-1.56,2.19s1.58,3.56,2.64,5.29c2.37,3.86,2.34,3.89,1.74,4.34l-.16.12c-.79.59-1.31.99-1.67.91-.64-.13-1.57-1.76-3.41-5.01l-1-1.75c-2.23-3.92-3.34-5.89-3.76-6.93-.29-.74-.24-.77.23-1.07.06-.04.13-.08.19-.12.6-.4,3.44-1.9,6.2-3.29,2-1.01,5.35-2.81,5.35-3.62,0-.59-1.31-3.79-2.01-5.4-1.09-2.51-2.66-6.52-3.52-8.94-1.95-5.54-2.31-6.23-5.16-5.78-2.4.38-7.2,2.2-7.2,3.58,0,.53.7,3.05,1.35,5.17l1.25,4.01-.91.74c-.72.59-1.28.85-1.65.77-.26-.05-.5-.28-.72-.71-.55-1.03-4.18-12.51-4.69-14.8l-.23-1.04,14.07-3.29-.36-2Z" fill="#b30007"/>
      <g>
        <path d="M165.71,298.8c-73.38,0-133.09-59.7-133.09-133.09S92.33,32.62,165.71,32.62s133.09,59.7,133.09,133.09-59.7,133.09-133.09,133.09Z"/>
        <path d="M165.71,33.52c73.01,0,132.19,59.18,132.19,132.19s-59.18,132.19-132.19,132.19S33.52,238.72,33.52,165.71,92.71,33.52,165.71,33.52M165.71,31.73c-35.79,0-69.44,13.94-94.74,39.24s-39.24,58.95-39.24,94.74,13.94,69.44,39.24,94.74,58.95,39.24,94.74,39.24,69.44-13.94,94.74-39.24,39.24-58.95,39.24-94.74-13.94-69.44-39.24-94.74-58.95-39.24-94.74-39.24h0Z"/>
      </g>
      <g>
        <path d="M46.45,218.11c-.18-.34-.22-.49-.02-.59.11-.06.34.02.8.17l7.35,2.64,2.11-6.71c.1-.36.18-.48.28-.53.09-.05.24.14.38.41l5.18,10.17c.31.61.6.71.67.84.05.09-.08.21-.48.51l-2.25,1.68c-.31.23-.32-.2-.13-.39,1.44-1.46.52-3.27-.56-5.39l-1.61-3.16-1.66,5.5c-.04.19-.1.32-.19.36-.11.06-.29.03-.56-.08l-6.34-2.29,3.02,5.93c.81,1.59,1.83,2.8,3.66,2.57.22-.04.35.04.39.11.09.17-.17.28-.29.32l-2.46.63c-.65.16-1.11-.59-1.21-.78l-6.06-11.91Z" fill="#b30007"/>
        <path d="M65.65,246.62c-.69.49-.56,1.25-.03,1.98.16.23.17.38.08.44-.05.04-.23-.02-.36-.21-.51-.71-1.05-1.49-1.88-2.64-.84-1.17-1.56-2.13-1.96-2.69-.15-.21-.15-.39-.1-.43.09-.06.26,0,.41.21.58.85,1.13,1.17,1.88.63l4.72-3.4c.31-.22.84-.58.08-1.62l-3.22-4.47c-.71-.99-1.22-.6-1.53-.38l-4.72,3.4c-.76.54-.64,1.14-.02,2,.15.21.17.38.08.44-.05.04-.23-.02-.38-.23-.4-.56-1.09-1.54-1.93-2.71-.83-1.15-1.4-1.9-1.91-2.62-.14-.19-.14-.38-.09-.41.09-.06.25-.02.41.21.5.73,1.19,1.1,1.87.61l5.12-3.68c1.06-.77.39-1.55.11-2.06-.12-.2-.17-.35-.07-.42.07-.05.24.01.38.2.51.71,1.03,1.5,1.86,2.65.94,1.31,1.41,1.89,1.8,2.43l3.14,4.35c.39.54.79,1.17,1.73,2.48.83,1.15,1.41,1.89,1.93,2.6.14.19.14.38.07.42-.09.06-.21,0-.34-.15-.41-.42-.93-1.4-2.03-.6l-5.12,3.68Z" fill="#b30007"/>
        <path d="M77.1,257.42l-4.32-4.36-.72.14c-.29.04-.53.16-.69.32-.32.31-.33.81.2,1.34.2.2.29.38.2.47-.11.1-.27.03-.47-.17-.62-.62-1.19-1.27-1.8-1.88-.62-.63-1.28-1.24-1.9-1.86-.21-.21-.27-.37-.17-.47.09-.09.24-.03.45.19.72.73,1.4.88,3.78.48l6.93-1.18c.1-.62-.23-1.1-.59-1.47-.33-.33-.14-.71.27-.3l1.74,1.75c1,1.01,1.24,1.46,1.06,2.39l-1.33,6.69c-.22,1.13-.61,2.99.19,3.8.24.24.27.37.17.47-.08.07-.2.07-.45-.19-.77-.78-1.51-1.59-2.28-2.36-.77-.78-1.58-1.54-2.37-2.34-.2-.2-.27-.33-.17-.44.11-.1.26-.04.47.17.27.28.91.79,1.27.44.15-.15.29-.43.39-.9l.15-.75ZM71.5,248.48c.48-.63,1.93-2.45,2.32-2.71.65-.43,1.3-.44,1.85.4.47.71.24,1.33-.42,1.77-.51.33-2.68.78-3.48.97-.26.07-.47-.2-.27-.43ZM74.04,252.82l3.32,3.36.85-4.16-4.17.81Z" fill="#b30007"/>
        <path d="M87.59,260.28c.31-.4.42-.66.45-.91.08-.71-.61-1.21-.96-1.56-.35-.32-.13-.61.28-.29.85.65,1.57,1.26,2.6,2.04.72.55,1.54,1.13,2.44,1.82l.26.2c2.11,1.62,5.18,4.24,3.65,6.24-1.54,2.01-4.97-.21-7.08-1.83l-1-.77c-.22-.17-.32-.11-.47.09l-.93,1.21c-.31.4-.42.66-.47.89-.08.6.5,1.15.88,1.5.23.2.34.34.26.44-.09.12-.28.05-.49-.11-.9-.69-1.76-1.4-2.66-2.09-.89-.68-1.83-1.35-2.73-2.04-.2-.16-.32-.32-.23-.44.08-.1.26-.02.49.14.6.38,1.11.67,1.68.46.23-.09.45-.27.76-.67l3.29-4.3ZM89.95,265.39c1.55,1.19,2.74,1.3,3.52.27.78-1.02.36-2.12-1.19-3.31l-.37-.29c-1.04-.8-1.06-.81-1.79.15l-1.42,1.85c-.14.19-.13.27.08.43l1.18.9Z" fill="#b30007"/>
        <path d="M102.65,269.81l-1.68-.99c-1.31-.77-1.79-.46-3.26.51-.24.2-.6.01-.36-.28l1.86-2.19c.27-.33.38-.44.51-.36.17.1.3.42.78.7l8.25,4.85c.48.28.83.24,1,.34.13.08.09.23-.07.62l-1.04,2.65c-.14.36-.48.18-.39-.13.14-1.76.17-2.33-1.14-3.1l-1.68-.99-3.2,5.43c-.26.44-.34.71-.36.94-.02.55.65,1.14,1.05,1.38.26.15.36.31.3.42-.05.09-.24.08-.48-.06-.98-.58-1.94-1.19-2.92-1.77-.96-.57-2-1.13-2.98-1.7-.24-.14-.33-.29-.27-.38.06-.11.26-.09.5.05.41.24,1.27.55,1.74.26.2-.13.39-.33.65-.77l3.2-5.43Z" fill="#b30007"/>
        <path d="M116.82,283.47l-5.63-2.44-.62.4c-.25.15-.43.34-.52.56-.18.41,0,.87.69,1.17.26.11.41.25.36.36-.06.14-.24.13-.5.02-.81-.35-1.58-.73-2.37-1.07-.81-.35-1.65-.67-2.46-1.02-.28-.12-.39-.24-.33-.37.05-.12.21-.12.49,0,.95.41,1.63.29,3.69-.96l5.99-3.68c-.13-.61-.62-.94-1.1-1.14-.43-.19-.39-.61.14-.38l2.27.98c1.3.56,1.69.89,1.88,1.82l1.27,6.7c.21,1.13.55,3,1.59,3.45.32.14.39.24.33.37-.04.1-.15.14-.49,0-1-.43-1.99-.91-3-1.34-1-.43-2.05-.84-3.07-1.28-.26-.11-.38-.21-.32-.35s.22-.13.5-.01c.35.15,1.14.4,1.34-.07.08-.19.1-.51.03-.98l-.14-.75ZM112.25,280.35l4.33,1.87-.77-4.18-3.57,2.3Z" fill="#b30007"/>
        <path d="M140.43,290.48c-.14.71-.13,1.12-.06,1.41.22.65,1.14,1.09,1.71,1.2.32.06.51.17.49.31s-.21.17-.53.11c-1.28-.25-2.49-.56-3.71-.8-1.2-.24-2.62-.45-3.84-.7-.32-.06-.49-.16-.46-.31.03-.14.27-.16.59-.1.57.11,1.57.05,2.02-.46.22-.24.38-.61.52-1.32l1.26-6.39c.28-1.39-.23-2.29-1.68-2.58-.27-.05-.42-.21-.4-.32.02-.08.21-.15.46-.1,1.2.24,2.75.59,3.95.82.88.18,2.79.51,3.61.67l4.99.99c1.09.22,1.19.75,1.26,1.69l.14,2.83c.01.39-.38.36-.43-.04-.39-2.47-1.64-3.54-3.54-3.91l-1.77-.35c-2.95-.58-3.08-.24-3.47,1.73l-1.11,5.6Z" fill="#b30007"/>
        <path d="M159.96,285.93c4.48.22,8.03,1.91,7.87,5.14-.12,2.47-2.35,5.07-8.27,4.79-4.35-.21-7.99-1.85-7.83-5.21.12-2.56,2.39-5.01,8.22-4.72ZM155.31,290.51c-.12,2.49,1.42,4.32,4.32,4.46,2.06.1,4.48-.67,4.63-3.69.12-2.49-1.4-4.32-4.3-4.46-2.06-.1-4.5.67-4.65,3.69Z" fill="#b30007"/>
        <path d="M175.19,292.84c-.05-.53-.12-.62-.53-1.03l-2.92-2.87c-.85-.83-2.36-2.16-3.53-2.05-.28.03-.46-.04-.47-.19,0-.08.16-.18.43-.21.92-.09,1.67-.11,2.59-.2,1.64-.16,2.77-.3,3.84-.4.3-.03.41.05.42.15.01.13-.15.23-.36.25-.62.06-.88.25-.85.55.02.21.2.49.53.8l2.92,2.89,1.94-2.69c.53-.73.73-1.22.7-1.53-.03-.36-.39-.47-.86-.43-.26.02-.41-.05-.43-.17-.01-.13.13-.2.39-.23.83-.08,1.46-.09,2.31-.18.77-.07,1.51-.18,2.28-.26.28-.03.41.05.42.15,0,.11-.13.22-.41.25-.88.08-1.27.44-3.06,2.97l-1.98,2.82c-.3.43-.3.5-.22,1.32l.05.48c.05.51.14.77.26.97.3.46,1.19.55,1.66.5.3-.03.48.04.49.17.01.11-.15.21-.43.23-1.13.11-2.25.17-3.38.28-1.11.1-2.26.26-3.39.36-.28.03-.46-.04-.47-.15-.01-.13.17-.23.45-.26.47-.04,1.31-.29,1.54-.8.11-.22.15-.5.1-1.01l-.05-.48Z" fill="#b30007"/>
        <path d="M185.8,289.27c-.26-.75-1-2.95-1-3.42,0-.78.34-1.32,1.35-1.33.85,0,1.25.52,1.25,1.32,0,.61-.81,2.67-1.09,3.44-.08.25-.42.28-.5,0ZM189.67,285.82c-.1-.5-.22-.75-.39-.93-.37-.42-1.25-.42-1.71-.32-.27.06-.48.01-.5-.11-.02-.1.13-.22.4-.28,1.11-.23,2.24-.41,3.33-.64,1.11-.23,2.2-.49,3.33-.72.27-.06.46,0,.48.1.03.12-.13.24-.42.3-.46.09-1.27.43-1.45.96-.06.23-.07.51.03,1.01l1.08,5.3c.1.5.22.75.37.94.37.42,1.25.42,1.71.32.29-.06.48-.01.5.11.02.1-.13.22-.4.28-1.11.23-2.22.41-3.33.64-1.09.22-2.22.5-3.33.72-.27.06-.46,0-.48-.1-.03-.12.15-.25.42-.3.46-.09,1.27-.43,1.45-.96.08-.23.09-.51,0-1.01l-1.08-5.3Z" fill="#b30007"/>
        <path d="M209.26,285.08c1.02.78,2.6,1.85,3.71,1.52.29-.09.48-.06.52.08.03.1-.11.21-.4.31-1.02.33-2.08.62-3.12.96-1.06.34-2.09.72-3.15,1.06-.29.09-.45.08-.49-.04-.03-.1.08-.25.36-.34.41-.13.94-.37.79-.85-.06-.2-.26-.47-.65-.77l-3.86-3.09-1.26,4.27c-.18.57-.23,1.05-.12,1.37.13.4.49.55,1.17.34.27-.08.48-.06.51.06.03.08-.11.23-.35.31-.84.27-1.57.46-2.38.72-.84.27-1.54.54-2.38.81-.27.08-.45.08-.47,0-.07-.13.09-.29.35-.38,1.21-.39,1.55-.85,2.23-3.16l2.22-7.67c.08-.31.15-.45.25-.48.08-.03.2.07.44.26l6.07,4.74Z" fill="#b30007"/>
        <path d="M216.03,285.65c-.8.37-1.21.44-1.34.17-.1-.21-.01-.65.25-1.3l1.92-4.8-4.85-1.49c-.56-.19-.82-.34-.89-.5-.1-.21.2-.39.66-.61l7.76-3.58c.53-.24.77-.59.96-.68.16-.07.3-.02.5.26l1.31,1.91c.16.25.01.48-.28.27-1.33-.99-1.46-1.05-3.19-.25l-3.37,1.55,4.34,1.42c.14.05.43.06.26.46l-1.96,4.98,4.97-2.29c1.58-.73,1.55-1.91,1.51-3.19-.02-.29.28-.36.34-.09.61,2.91.62,3.35-.27,3.76l-8.63,3.98Z" fill="#b30007"/>
        <path d="M234.25,276.23c-.84.52-1.52.89-2.47,1.47-.82.51-2.04,1.31-2.86,1.82-.24.15-.41.15-.47.06-.06-.09.02-.26.25-.41.79-.48,1.4-1.16.67-2.35l-2.84-4.61c-.73-1.19-1.62-.94-2.4-.46-.24.15-.44.15-.49.06-.06-.09.05-.25.28-.4.93-.57,1.96-1.16,2.91-1.74,1.04-.64,1.84-1.18,2.7-1.71l3.21-1.98c.79-.48,1.28-1.04,1.51-1.18.15-.09.26-.06.31.06l1.08,2.37c.15.33-.15.49-.38.21-.88-1.17-1.9-.59-3.95.67l-1.22.75c-1.21.74-1.33.95-.61,2.12l.69,1.12c.11.18.21.22.43.08l2.21-1.36c.79-.48,1.18-1.15.8-1.76-.28-.45.07-.66.36-.2.28.45.49.87.8,1.37s.64.95.91,1.4c.24.4-.11.59-.35.21-.38-.61-1.18-.61-1.97-.13l-2.21,1.36c-.22.13-.24.22-.12.42l.8,1.3c.68,1.1,1.07.96,3.26-.4,1.86-1.15,3.29-2.18,2.9-4.37-.07-.4.28-.49.37-.1l.59,2.42c.19.75.13.91-.67,1.41l-4.04,2.49Z" fill="#b30007"/>
        <path d="M236.76,260.87c-.65.5-1.56.4-2.04-.22-.49-.64-.35-1.55.3-2.04.61-.47,1.53-.37,2.02.27.48.62.33,1.53-.28,2ZM239.37,263.75c-.31-.4-.53-.58-.76-.67-.52-.22-1.3.17-1.68.46-.22.17-.43.22-.5.12-.06-.08.02-.26.24-.43.9-.69,1.83-1.35,2.72-2.03.9-.69,1.76-1.4,2.68-2.11.22-.17.41-.21.47-.12.08.1,0,.27-.25.46-.37.29-.95.94-.88,1.5.04.23.16.49.47.89l3.3,4.3c.31.4.53.58.74.68.52.22,1.3-.17,1.68-.46.24-.18.43-.22.5-.12.06.08-.02.26-.24.43-.9.69-1.81,1.34-2.72,2.03-.89.68-1.78,1.42-2.68,2.11-.22.17-.41.21-.47.12-.08-.1.02-.29.25-.46.37-.29.95-.94.88-1.5-.03-.25-.14-.5-.45-.91l-3.3-4.3ZM239.93,258.44c-.63.48-1.53.37-2-.25-.49-.64-.36-1.53.27-2.02.65-.5,1.54-.38,2.03.25.48.62.35,1.52-.29,2.01Z" fill="#b30007"/>
        <path d="M256.8,247.13l1.81,7.33c.06.28.21.56.42.74.3.27.74.31,1.25-.27.18-.21.36-.31.46-.23.09.08.06.25-.13.46-.58.66-1.21,1.31-1.77,1.93-.58.66-1.15,1.36-1.75,2.04v.02c-.4.4-.64.13-.27-.28.82-.93.82-1.54.27-3.88l-2.52-10.4c-.1-.4-.14-.58-.05-.68.07-.08.25-.06.6-.01l10.92,1.44c1.12.1,2.56.14,3.27-.63.2-.23.38-.3.49-.2.08.07.01.24-.17.45-.73.82-1.48,1.61-2.21,2.43-.74.84-1.45,1.7-2.19,2.54-.2.22-.35.3-.44.21-.22-.2.98-1.11.38-1.64-.16-.14-.47-.27-.95-.33l-7.43-1.04Z" fill="#b30007"/>
        <path d="M269.38,242.16c-.82-.59-.78-1.56-.27-2.26.5-.7,1.39-1.03,2.24-.43.82.59.79,1.55.29,2.24s-1.41,1.05-2.25.44Z" fill="#b30007"/>
        <path d="M267.97,227.31c-.53.04-1.07.67-1.3,1.06-.15.26-.31.37-.42.3-.09-.05-.08-.24.05-.47.44-.76.96-1.57,1.79-3,.83-1.43,1.28-2.29,1.72-3.05.14-.24.3-.35.39-.29.11.06.09.27-.05.51-.24.41-.51,1.22-.26,1.71,2.21-3.08,4.79-4.59,7.24-3.16,2.01,1.17,3.02,3.77,1.01,8.06h.12c.56,0,1.15-.67,1.39-1.08.14-.24.31-.37.42-.3.09.05.08.24-.06.49-.44.76-.96,1.57-1.79,3s-1.28,2.29-1.72,3.05c-.13.22-.29.33-.38.28-.11-.06-.1-.25.05-.51.24-.41.52-1.24.24-1.72l-.08-.12c-2.14,3-4.75,4.76-7.35,3.25-2.05-1.19-3-3.76-1.03-8ZM275.47,231.42l-6.47-3.77c-.39,1.46-.11,3.04,1.78,4.14,1.66.97,3.36.83,4.69-.37ZM270.71,224.79l6.47,3.76c.35-1.44.07-3.02-1.82-4.11-1.65-.96-3.34-.82-4.65.35Z" fill="#b30007"/>
        <path d="M282.06,221.04c-.92-.42-1.06-1.39-.7-2.17s1.17-1.28,2.11-.84c.92.42,1.07,1.37.71,2.15s-1.18,1.3-2.12.86Z" fill="#b30007"/>
      </g>
      <g>
        <path d="M47.19,125.36l5.35,5.91c.74.83.78.91.73,1.03-.06.16-.13.18-1.24.33l-8.75,1.13c-1.98.25-3,.48-3.5,1.88-.09.26-.23.4-.35.35-.12-.04-.15-.21-.05-.5.38-1.07.69-1.76,1.09-2.89.36-1.01.93-2.79,1.28-3.8.07-.2.2-.36.34-.31s.11.31.07.43c-.32.98-.26,1.43.18,1.59.32.11.8.08,1.47-.02l5.45-.62-3.86-4.24c-1.2.21-2.2.38-2.6,1.51-.09.24-.22.38-.34.33-.12-.04-.15-.21-.05-.5.3-.85.97-2.53,1.29-3.44.45-1.25.52-1.66.97-2.91.11-.3.23-.4.35-.35.08.03.14.23.05.5-.33.93-.19,1.37.26,1.53.34.12.87.08,1.48,0l5.34-.88-3.78-4.19c-.34-.37-.67-.71-.97-.82-.42-.15-.83.12-1.21,1.21-.17.49-.57.34-.4-.14.3-.85.83-2.14,1.13-2.99.3-.85.48-1.54.8-2.43.09-.24.21-.34.33-.29.12.04.14.23.06.48-.44,1.23,0,2.32,1.2,3.68l6.18,6.91c.84.85.83.89.79,1.01-.05.14-.06.16-1.25.29l-7.84,1.22Z" fill="#b30007"/>
        <path d="M52.39,108.48c-.43-.23-.7-.3-.94-.31-.56.02-1.11.69-1.34,1.11-.14.26-.3.38-.41.32-.09-.05-.09-.24.03-.47.41-.78.91-1.61,1.68-3.07s1.2-2.33,1.61-3.11c.13-.25.29-.36.38-.31.11.06.1.27-.04.52-.22.42-.49,1.27-.19,1.75.14.19.35.38.78.61l6.81,3.64c.45.24.72.31.96.32.56-.02,1.12-.71,1.35-1.13.13-.25.3-.38.41-.32.09.05.09.24-.04.49-.41.78-.91,1.61-1.68,3.07s-1.19,2.33-1.61,3.11c-.12.23-.28.34-.37.29-.11-.06-.11-.25.04-.52.22-.42.48-1.25.18-1.73-.14-.19-.35-.38-.8-.62l-6.81-3.64Z" fill="#b30007"/>
        <path d="M65.21,99.32c1.65,1.15,1.98,1.31,3.7-1.16l1.03-1.48c1.11-1.58,1.27-3.22-.16-5.27-.24-.32.02-.62.28-.33l1.86,2.14c.6.73.9,1.18.26,2.1l-2.91,4.17c-.48.69-1.62,2.24-2.14,2.98-.7,1-1.58,2.33-2.28,3.33-.15.21-.33.29-.4.24-.09-.06-.09-.27.07-.5.85-1.21.59-2.21-.57-3.02l-5.34-3.74c-.59-.41-.97-.57-1.29-.59-.68-.06-1.44.59-1.78,1.06-.18.26-.37.42-.49.34s-.06-.28.12-.54c.71-1.02,1.59-2.16,2.29-3.16.71-1.02,1.37-2.08,2.12-3.15.18-.26.33-.37.46-.28s.05.3-.13.56c-.33.47-.69,1.43-.4,2.05.15.26.43.56,1.02.98l4.68,3.28Z" fill="#b30007"/>
        <path d="M77.43,76.65c.29.25.06.56-.29.37-1.72-.86-3.61.46-5.2,2.14-.96,1.01-2.43,2.88-1.47,3.78,2.01,1.9,7.79-7.16,11.4-3.75,2.21,2.09.19,5.37-2.17,7.87-2.31,2.45-3.56,2.81-4.23,3.3-.39.29-.1.35-.25.51-.1.11-.25.15-.73-.21l-2.36-1.79c-.14-.1-.16-.24-.05-.34s.21-.04.36.02c2.75,1,5-.8,6.4-2.28,1.44-1.53,2.81-3.43,1.74-4.43-2.28-2.15-7.62,7.32-11.36,3.79-2.25-2.12-.05-5.24,1.85-7.25,1.59-1.68,2.31-2.1,3.57-2.95.37-.24.1-.35.25-.51.09-.09.18-.13.76.33l1.76,1.4Z" fill="#b30007"/>
        <path d="M92.15,75.35c-.71.56-1.56,1.17-2.64,2.02-1.28,1.01-2.02,1.64-2.69,2.17-.24.19-.41.21-.47.13-.08-.1-.01-.26.22-.44.37-.29.96-.97.88-1.52-.05-.23-.17-.49-.47-.87l-4.77-6.07c-.31-.4-.53-.58-.75-.68-.52-.21-1.32.2-1.69.49-.24.19-.41.21-.49.11-.07-.08,0-.24.24-.43.67-.53,1.46-1.09,2.76-2.11.62-.49,1.53-1.25,2.27-1.83l4.69-3.68c1-.78.86-.95,1.07-1.11.19-.15.27-.11.48.27l1.35,2.27c.2.33-.04.54-.32.25-1.36-1.21-2-.71-3.51.47l-2.9,2.28c-.88.69-.99,1.1-.36,1.9l1.48,1.88c.14.18.23.19.44.03l2.8-2.2c.96-.75.99-1.72.59-2.27-.17-.22-.16-.38-.08-.45.08-.07.23-.02.4.2.31.4.82,1.11,1.18,1.57s.92,1.1,1.25,1.52c.18.23.18.37.1.44-.08.07-.22.07-.42-.18-.42-.53-1.37-.7-2.33.05l-2.8,2.2c-.22.17-.2.27-.07.43l1.27,1.61c1.07,1.36,1.69,1.39,3.28.14l1.43-1.13c2.21-1.74,2.64-3.2,2.25-4.88-.08-.34.28-.51.42-.17l.73,1.9c.54,1.38.45,1.55-.61,2.39l-4.2,3.3Z" fill="#b30007"/>
        <path d="M104.66,62.8c-.29-.52-.43-.59-1.02-.81l-4.65-1.81c-1.92-.75-3.83-1.23-4.93-.64-.28.16-.51.24-.6.07-.05-.09.09-.24.37-.4,1.11-.62,1.76-.94,2.93-1.58,1.39-.77,2.32-1.35,3.2-1.84.28-.16.46-.18.52-.07.08.15-.08.29-.31.42-.6.33-.82.65-.64.96.14.26.58.5,1.25.78l4.79,1.88,1.03-5.2c.13-.61.1-1.05-.03-1.29-.2-.35-.64-.35-1.24-.01-.24.14-.42.17-.5.04-.07-.13.08-.26.3-.39.92-.51,1.46-.77,2.33-1.25.79-.44,1.4-.83,2.19-1.27.3-.17.45-.2.52-.08.08.15-.07.28-.35.44-.95.55-1.17,1.11-1.69,3.8l-1.05,5.43c-.1.49-.06.59.31,1.26l.36.65c.36.65.62.94.9,1.12.58.38,1.56.1,2.08-.19.28-.16.52-.22.59-.09s-.07.28-.35.44c-1.11.62-2.21,1.19-3.3,1.79s-2.15,1.25-3.3,1.89c-.28.16-.48.2-.55.07-.07-.13.1-.3.38-.46.52-.29,1.24-.99,1.26-1.67,0-.34-.11-.72-.47-1.36l-.34-.61Z" fill="#b30007"/>
        <path d="M128.95,47.5l-1.58,7.81c-.23,1.09-.28,1.17-.4,1.2-.16.05-.22,0-1-.8l-6.1-6.38c-1.38-1.44-2.17-2.13-3.58-1.7-.27.08-.46.05-.49-.07-.04-.12.08-.25.37-.33,1.09-.33,1.83-.48,2.98-.83,1.03-.31,2.8-.91,3.82-1.22.21-.06.41-.06.45.08.04.14-.19.28-.31.31-.98.32-1.31.64-1.17,1.08.1.32.41.69.89,1.17l3.73,4.02,1.13-5.62c-.88-.84-1.61-1.55-2.76-1.2-.25.07-.44.04-.47-.08-.04-.12.08-.25.37-.33.86-.26,2.61-.72,3.53-1,1.27-.38,1.65-.56,2.92-.95.31-.09.46-.05.49.07.02.08-.1.25-.37.33-.94.29-1.21.65-1.07,1.12.1.34.45.75.88,1.19l3.88,3.78,1.13-5.53c.1-.49.18-.96.09-1.26-.13-.42-.58-.6-1.69-.26-.49.15-.62-.26-.12-.41.86-.26,2.22-.6,3.08-.86.86-.26,1.52-.52,2.43-.8.25-.07.39-.03.43.09.04.12-.1.25-.35.33-1.25.38-1.87,1.38-2.25,3.15l-1.9,9.08c-.18,1.18-.22,1.19-.35,1.23-.14.04-.16.05-.97-.83l-5.63-5.59Z" fill="#b30007"/>
        <path d="M154.52,46.9l-7.69.94-.52,1.02c-.16.3-.52,1.02-.47,1.48.04.36.31.62,1.08.53.28-.03.46.03.47.13.01.11-.12.23-.4.26-.89.11-1.77.17-2.63.28-.89.11-1.81.26-2.7.37-.28.03-.44-.05-.45-.16-.01-.08.13-.21.4-.24,1.3-.18,1.87-.76,3-2.88l4.38-8.29c-.36-.47-1.23-.66-1.76-.6-.28.03-.46-.05-.47-.16-.01-.11.15-.21.4-.24l2.77-.34c1.32-.16,1.96.1,2.61.88l6.01,6.94c.78.91,2.17,2.36,3.25,2.22.28-.03.44.05.45.18.01.11-.13.19-.41.22-1.09.13-2.18.22-3.26.36-1.11.13-2.21.31-3.34.45-.28.03-.41-.01-.43-.14-.01-.08.1-.23.38-.26.45-.05,1.01-.23.95-.75-.03-.25-.2-.55-.88-1.34l-.75-.87ZM147.48,46.56l6.11-.74-3.6-4.21-2.51,4.95Z" fill="#b30007"/>
        <path d="M164.39,38.13c-.32-.04-.58-.07-.57-.24,0-.15.23-.2.53-.18,1.37.08,2.46.18,3.92.26,1.33.07,2.59.1,4.63.21,2.31.13,6.92.43,6.73,3.74-.11,2.05-1.81,2.8-3.72,3.06.46.22.78.62,1.22,1.23,1.73,2.55,2.97,3.79,4.83,3.89.6.03.54.39.04.43-.41.02-.97.03-2.28-.04-2.98-.17-3.92-.24-7.03-4.9-.42-.53-.98-.6-1.36-.63l-1.59-.09c-.26-.01-.3.05-.32.3l-.11,1.94c-.11,2.07.99,2.28,2.02,2.38.32.04.58.07.57.24,0,.15-.23.2-.53.18-1.33-.07-2.57-.18-3.81-.25-1.24-.07-2.62-.1-3.94-.18-.3-.02-.51-.09-.5-.24,0-.17.27-.18.59-.18,1.01,0,2.15-.03,2.27-2.14l.36-6.44c.12-2.07-.93-2.25-1.95-2.35ZM172.74,44.1c1.71.1,3.15-.63,3.25-2.38.11-2.01-1.26-2.51-2.97-2.6l-1.41-.08c-1.74-.1-1.82-.08-1.92,1.63l-.17,2.98c-.01.19.05.28.28.29l2.93.16Z" fill="#b30007"/>
        <path d="M186.22,39.83c-.31-.09-.55-.17-.52-.34.03-.14.26-.16.55-.09,1.34.31,2.39.6,3.82.93,1.3.3,2.54.54,4.52,1,2.26.52,6.74,1.6,6,4.84-.46,2-2.26,2.45-4.18,2.37.42.29.67.74.99,1.42,1.27,2.81,2.28,4.24,4.1,4.66.59.13.46.48-.03.43-.41-.05-.96-.13-2.23-.43-2.91-.67-3.82-.91-6.09-6.03-.32-.6-.86-.76-1.23-.85l-1.55-.36c-.25-.06-.31,0-.36.24l-.44,1.89c-.47,2.02.59,2.42,1.58,2.69.31.09.55.17.52.34-.03.14-.26.16-.55.09-1.3-.3-2.5-.62-3.71-.9-1.21-.28-2.56-.55-3.86-.85-.29-.07-.49-.18-.45-.32.04-.17.29-.13.61-.08,1,.17,2.12.34,2.6-1.72l1.45-6.28c.47-2.02-.53-2.38-1.52-2.65ZM193.43,47.14c1.67.39,3.21-.08,3.61-1.79.45-1.96-.81-2.68-2.48-3.07l-1.38-.32c-1.69-.39-1.78-.39-2.17,1.28l-.67,2.9c-.04.19,0,.28.23.34l2.86.66Z" fill="#b30007"/>
        <path d="M207.91,47.21c.16-.46.19-.74.16-.97-.1-.55-.85-1-1.3-1.16-.28-.1-.42-.24-.37-.36.04-.1.23-.12.47-.04.83.29,1.72.66,3.28,1.21,1.56.55,2.48.84,3.31,1.13.26.09.4.23.36.33-.04.12-.25.13-.52.04-.44-.16-1.33-.29-1.76.07-.17.16-.32.4-.49.86l-2.58,7.27c-.17.48-.2.76-.17.99.1.55.87,1.01,1.32,1.16.26.09.42.24.37.36-.04.1-.23.12-.49.03-.83-.29-1.72-.66-3.28-1.21-1.56-.55-2.48-.84-3.31-1.13-.24-.09-.38-.22-.34-.32.04-.12.23-.14.52-.04.44.16,1.31.29,1.74-.08.17-.16.32-.4.49-.88l2.58-7.27Z" fill="#b30007"/>
        <path d="M226.29,52.68c5.13,2.69,7.68,6.44,5.89,9.85-1.5,2.87-5.37,4.23-11.41,1.06-4.89-2.56-7.76-6.29-5.89-9.85,1.52-2.9,5.39-4.22,11.41-1.06ZM218.56,55.29c-1.41,2.7-.71,5.71,2.65,7.48,2.59,1.35,5.64,1.4,7.31-1.78,1.41-2.7.75-5.69-2.61-7.46-2.59-1.36-5.68-1.42-7.34,1.76Z" fill="#b30007"/>
        <path d="M238.61,60.46c-.24-.21-.43-.39-.33-.52.09-.12.3-.04.54.15,1.08.84,1.92,1.55,3.07,2.44,1.05.82,2.08,1.56,3.68,2.81,1.83,1.42,5.44,4.29,3.41,6.91-1.26,1.62-3.08,1.27-4.79.4.26.44.29.95.3,1.71-.03,3.08.29,4.81,1.76,5.95.47.37.22.63-.21.37-.35-.22-.81-.53-1.85-1.33-2.35-1.83-3.09-2.43-3-8.04-.04-.68-.46-1.05-.76-1.29l-1.25-.97c-.2-.16-.28-.13-.43.07l-1.19,1.54c-1.27,1.64-.48,2.44.31,3.1.24.21.43.39.33.52-.09.12-.3.04-.54-.15-1.05-.82-2.01-1.61-2.99-2.38-.98-.76-2.09-1.57-3.14-2.39-.24-.18-.37-.37-.28-.48.1-.13.32,0,.59.19.83.57,1.78,1.2,3.08-.47l3.96-5.1c1.27-1.64.52-2.38-.27-3.05ZM242.08,70.13c1.35,1.05,2.95,1.27,4.03-.11,1.23-1.59.39-2.78-.96-3.83l-1.12-.87c-1.37-1.07-1.45-1.1-2.5.25l-1.83,2.36c-.12.15-.12.26.07.4l2.32,1.8Z" fill="#b30007"/>
        <path d="M261.98,85.26c-.26.28-.56.02-.35-.32.96-1.67-.24-3.63-1.82-5.32-.95-1.02-2.72-2.59-3.68-1.7-2.02,1.9,6.67,8.21,3.05,11.61-2.22,2.08-5.38-.14-7.72-2.64-2.3-2.46-2.59-3.72-3.03-4.42-.26-.4-.34-.12-.49-.28-.1-.11-.13-.26.26-.71l1.93-2.25c.11-.13.24-.14.35-.03.1.11.02.21-.04.36-1.17,2.68.49,5.04,1.88,6.53,1.44,1.53,3.25,3.01,4.32,2.01,2.29-2.14-6.84-8.05-3.09-11.56,2.25-2.11,5.24.27,7.13,2.29,1.58,1.69,1.96,2.43,2.72,3.74.22.39.34.12.49.28.09.09.12.18-.38.74l-1.5,1.67Z" fill="#b30007"/>
        <path d="M268.87,100.79c-.1-.16-.22-.14-.38-.04l-2.2,1.39c-.43.27-.63.47-.75.68-.26.5.07,1.33.32,1.73.15.24.18.44.07.51-.09.06-.25-.04-.4-.28-.47-.74-.94-1.56-1.82-2.96-.88-1.4-1.45-2.21-1.92-2.95-.14-.22-.16-.41-.07-.46.11-.07.27.03.43.29.25.4.85,1.03,1.41,1.01.24-.02.5-.12.93-.39l6.5-4.12c.43-.27.63-.47.75-.68.26-.5-.07-1.33-.32-1.73-.16-.25-.17-.43-.06-.49.09-.06.24.03.4.28.46.72.94,1.56,1.82,2.96.42.67.89,1.32,1.39,2.12l3.36,5.31c.68,1.07.83.92.98,1.16.13.2.09.3-.3.47l-2.4,1.11c-.19.1-.3.04-.35-.03-.03-.05-.03-.16.13-.31,1.35-1.23.91-1.92-.11-3.54l-2.19-3.46c-.44-.69-1.01-.53-1.46-.25l-2.72,1.72c-.16.1-.23.19-.12.36l1.61,2.54c.57.91,1.66.85,2.09.61.26-.11.41-.11.47-.02.07.11,0,.23-.24.38-.43.27-1.2.71-1.7,1.03s-1.28.86-1.71,1.13c-.23.15-.37.16-.44.05-.06-.09,0-.23.21-.41.4-.28.96-1.24.38-2.17l-1.61-2.54Z" fill="#b30007"/>
        <path d="M270.68,110.92c.9-.46,1.75.02,2.14.78.39.76.29,1.71-.63,2.19-.9.47-1.74,0-2.13-.76s-.3-1.73.62-2.21Z" fill="#b30007"/>
        <path d="M280.01,131.46c-.68.06-.84.06-1.43-.5-.98-.93-2.2-3.61-2.68-4.82-1.61-4.07-2.39-10,1.94-11.71,4.33-1.71,7.83,3.16,9.43,7.21.71,1.8.98,3.28,1.35,5.37.04.4.31.38.4.6.05.12-.04.25-.31.36l-2.91,1.15c-.31.12-.43-.16-.2-.34,2.15-1.64,1.65-4.69.81-6.81-1.15-2.91-3.66-5.11-7.06-3.76-3.25,1.28-3.9,4.22-2.57,7.57,1.18,2.97,3.61,4.81,5.69,5,.33.03.35.3.08.38l-2.53.28Z" fill="#b30007"/>
        <path d="M280.52,135.24c.98-.25,1.7.4,1.91,1.24.21.83-.1,1.73-1.1,1.99-.98.25-1.69-.38-1.91-1.21-.21-.83.09-1.75,1.1-2.01Z" fill="#b30007"/>
      </g>
      <circle cx="165.71" cy="165.71" r="105.75" fill="#b30007"/>
      <g>
        <path d="M165.71,165.71l-74.78-74.78c19.82-19.82,46.74-30.97,74.78-30.97s54.95,11.15,74.78,30.97l-74.78,74.78Z"/>
        <g clip-path="url(#clippath)">
          <g>
            <g>
              <polygon points="14.93 166.24 165.55 15.63 316.59 15.63 165.98 166.24 14.93 166.24" fill="#b30007"/>
              <path d="M315.32,16.16l-149.55,149.55H16.21L165.76,16.16h149.55M317.87,15.1h-152.54l-.31.31L15.46,164.96l-1.81,1.81h152.54l.31-.31L316.07,16.91l1.81-1.81h0Z" fill="#b30007"/>
            </g>
            <g>
              <polygon points="115.88 166.24 266.49 15.63 282.94 15.63 132.33 166.24 115.88 166.24"/>
              <path d="M281.67,16.16l-149.55,149.55h-14.96L266.71,16.16h14.96M284.22,15.1h-17.95l-.31.31L116.41,164.96l-1.81,1.81h17.95l.31-.31L282.42,16.91l1.81-1.81h0Z" fill="#b30007"/>
            </g>
            <g>
              <polygon points="149.53 166.24 300.14 15.63 316.59 15.63 165.98 166.24 149.53 166.24"/>
              <path d="M315.32,16.16l-149.55,149.55h-14.96L300.36,16.16h14.96M317.87,15.1h-17.95l-.31.31-149.55,149.55-1.81,1.81h17.95l.31-.31L316.07,16.91l1.81-1.81h0Z" fill="#b30007"/>
            </g>
            <g>
              <polygon points="48.58 166.24 199.19 15.63 215.65 15.63 65.03 166.24 48.58 166.24"/>
              <path d="M214.37,16.16L64.82,165.71h-14.96L199.41,16.16h14.96M216.92,15.1h-17.95l-.31.31L49.11,164.96l-1.81,1.81h17.95l.31-.31L215.12,16.91l1.81-1.81h0Z" fill="#b30007"/>
            </g>
            <g>
              <polygon points="14.93 166.24 165.54 15.63 182 15.63 31.38 166.24 14.93 166.24"/>
              <path d="M180.72,16.16L31.17,165.71h-14.96L165.76,16.16h14.96M183.27,15.1h-17.95l-.31.31L15.46,164.96l-1.81,1.81h17.95l.31-.31L181.47,16.91l1.81-1.81h0Z" fill="#b30007"/>
            </g>
            <g>
              <polygon points="82.23 166.24 232.84 15.63 249.29 15.63 98.68 166.24 82.23 166.24"/>
              <path d="M248.02,16.16L98.46,165.71h-14.96L233.06,16.16h14.96M250.57,15.1h-17.95l-.31.31L82.76,164.96l-1.81,1.81h17.95l.31-.31L248.77,16.91l1.81-1.81h0Z" fill="#b30007"/>
            </g>
          </g>
        </g>
      </g>
      <g>
        <path d="M165.71,165.71l74.78,74.78c-19.82,19.82-46.74,30.97-74.78,30.97-28.04,0-54.95-11.15-74.78-30.97l74.78-74.78Z"/>
        <g clip-path="url(#clippath-1)">
          <g>
            <g>
              <polygon points="14.83 315.79 165.44 165.18 316.49 165.18 165.88 315.79 14.83 315.79" fill="#b30007"/>
              <path d="M315.21,165.71l-149.55,149.55H16.1l149.55-149.55h149.55M317.76,164.65h-152.54l-.31.31L15.36,314.52l-1.81,1.81h152.54l.31-.31,149.55-149.55,1.81-1.81h0Z" fill="#b30007"/>
            </g>
            <g>
              <polygon points="48.48 315.79 199.09 165.18 215.54 165.18 64.93 315.79 48.48 315.79"/>
              <path d="M214.26,165.71l-149.55,149.55h-14.96l149.55-149.55h14.96M216.82,164.65h-17.95l-.31.31L49.01,314.52l-1.81,1.81h17.95l.31-.31,149.55-149.55,1.81-1.81h0Z" fill="#b30007"/>
            </g>
            <g>
              <polygon points="14.83 315.79 165.44 165.18 181.89 165.18 31.28 315.79 14.83 315.79"/>
              <path d="M180.61,165.71L31.06,315.26h-14.96l149.55-149.55h14.96M183.17,164.65h-17.95l-.31.31L15.36,314.52l-1.81,1.81h17.95l.31-.31,149.55-149.55,1.81-1.81h0Z" fill="#b30007"/>
            </g>
            <g>
              <polygon points="115.78 315.79 266.39 165.18 282.84 165.18 132.23 315.79 115.78 315.79"/>
              <path d="M281.56,165.71l-149.55,149.55h-14.96l149.55-149.55h14.96M284.12,164.65h-17.95l-.31.31-149.55,149.55-1.81,1.81h17.95l.31-.31,149.55-149.55,1.81-1.81h0Z" fill="#b30007"/>
            </g>
            <g>
              <polygon points="149.43 315.79 300.04 165.18 316.49 165.18 165.88 315.79 149.43 315.79"/>
              <path d="M315.21,165.71l-149.55,149.55h-14.96l149.55-149.55h14.96M317.76,164.65h-17.95l-.31.31-149.55,149.55-1.81,1.81h17.95l.31-.31,149.55-149.55,1.81-1.81h0Z" fill="#b30007"/>
            </g>
            <g>
              <polygon points="82.13 315.79 232.74 165.18 249.19 165.18 98.58 315.79 82.13 315.79"/>
              <path d="M247.91,165.71l-149.55,149.55h-14.96l149.55-149.55h14.96M250.47,164.65h-17.95l-.31.31-149.55,149.55-1.81,1.81h17.95l.31-.31,149.55-149.55,1.81-1.81h0Z" fill="#b30007"/>
            </g>
          </g>
        </g>
      </g>
      <g id="FTxFn2.tif">
        <g>
          <path d="M126.41,199.44c-2.3-.81-4.48-1.88-6.53-3.18-4.74-3.01-8.71-7.17-13.85-9.56,2.59-.06,4.59,1.7,6.83,2.69,2.47,1.1,5.23,1.67,7.94,1.18l.7-.16c-3.21.23-6.46-.55-9.2-2.2-.72-.43-1.39-.94-2.12-1.36-2.97-1.68-6.45-2.54-9.88-2.42-1.17.04-2.34.23-3.51.28-.85.04-1.71.01-2.56.07-2.92.2-5.8.83-8.63,1.55l1.14-.84c4.01-3.44,5.15-9.46,3.21-14.31-.3-.74-.7-1.42-1.02-2.15-1.51-3.5-1.54-7.63-.12-11.16.3-.74.69-1.43,1.05-2.14-1.25,1.38-2.18,3.07-2.64,4.88-.92,3.62-.05,7.47,1.87,10.6-1.58,5.89-5.13,11.18-9.94,14.89-1.58,1.22-3.28,2.19-5,3.19-.87.51-1.74,1.02-2.62,1.49.03-.04.08-.04.11-.08,1.26-1.49,2.43-3.07,3.41-4.76,1.79-3.07,3.03-6.46,3.63-9.97l3.04-1.92-2.81.65c.05-.78.17-1.56.21-2.34.09-1.62.03-3.34-.14-4.96-.08-.76-.22-1.52-.35-2.28l4.39-1.46-4.57.63c-.57-3.09-.65-6.22-.17-9.32.26-1.66.69-3.3,1.24-4.88l6.97,2.02-6.33-3.67c1.26-2.93,3.06-5.72,5.27-8.03.1-.1.6-.64.67-.67.03-.01.05-.02.08-.02l2.18,1.27-1.26-2.05v-.13c2.64-2.33,5.75-4.19,9.09-5.34.21-.07,1.19-.43,1.33-.39l1.95,4.85-.65-5.2c3.7-.91,7.6-1,11.34-.3.53.1,1.05.22,1.57.34l-1.16,6.57,2.9-6.04,7,2.31c-1.09.23-2.15.7-3.09,1.29-3.58,2.25-5.41,6.45-4.63,10.63.06.34.16.67.23,1.01-5.53-2.49-12.3-1.82-17.18,1.77,1.02-.44,2.04-.85,3.12-1.13,6.57-1.73,15.11.16,19.51,5.56.32.39.6.81.88,1.23l-7.2,1.03,11.09.38c.07.98.05,1.96.08,2.94.11,3.68.01,7.48.95,11.07.47,1.81,1.18,3.52,2.04,5.17l-1.54,1.24c-.12.01-.56-.73-.64-.86-.72-1.26-1.2-2.88-1.54-4.29-.71-2.93-1.04-5.97-1.29-8.97l-8.22-3.2,7.11,3.97-10.19-3.07c.63,2.26,2.12,4.12,4.31,5,1.86.74,3.85,1.28,5.72,2.01.06.02.24.07.26.13.34,5.22,1.11,10.41,2.24,15.51,1.14,5.17,2.63,10.26,3.92,15.39h-.04ZM110.6,139.46s-.02-.09-.03-.07c-.03.05.02.09.03.07ZM95.8,150.35s-.09.02-.07.03c.05.03.09-.02.07-.03ZM108.73,153.65c-1.4-.23-2.78-.6-4.2-.7-5.9-.41-13.67,3.34-13.09,10.21.18,2.11,1.22,4.15,2.85,5.5-.04-.73-.22-1.46-.28-2.2-.55-6.35,3.94-12.01,10.28-12.77,1.45-.17,2.87.05,4.32,0,.04,0,.13.03.12-.03Z"/>
          <path d="M110.6,139.46s-.06-.02-.03-.07c.01-.02.06.02.03.07Z"/>
          <path d="M95.8,150.35s-.02.06-.07.03c-.02-.01.02-.06.07-.03Z"/>
          <path d="M120.29,164.48s-.02.06-.07.03c-.02-.01.02-.06.07-.03Z"/>
        </g>
      </g>
      <g>
        <g>
          <g id="AylMWc">
            <path d="M235.63,153.78c1.7-.76,3.76-2.11,4.46-3.98.19-.51-.79-1.77-.42-2.75.63-1.66,10.95-8.21,12.34-8.2.81,0,.29.54.17.85-.86,2.27-5.9,11.31-7.86,11.99-.78.27-2.47-.76-3.18-.41-.6.29-2.99,2.78-3.54,3.47s-.03,1.95-.58,2.82c-.08.12-1.87,1.97-2.02,2.09-1.06.85-2.41.17-2.9.57l-28.36,28.41c-1.09,1.42-.09,2.62-2.68,3.71-2.58,1.09-2.92-2.36-.48-3.85.74-.45,1.86-.15,2.44-1.05l28.13-28.16c.43-.58-.34-1.97.47-2.91.22-.25.72-.34.96-.58.39-.42.57-1,.97-1.32.44-.34,1.49-.44,2.09-.71Z"/>
          </g>
          <g id="AylMWc-2" data-name="AylMWc">
            <path d="M214.02,155.79c-.76-1.7-2.11-3.76-3.98-4.46-.51-.19-1.77.79-2.75.42-1.66-.63-8.21-10.95-8.2-12.34,0-.81.54-.29.85-.17,2.27.86,11.31,5.9,11.99,7.86.27.78-.76,2.47-.41,3.18.29.6,2.78,2.99,3.47,3.54s1.95.03,2.82.58c.12.08,1.97,1.87,2.09,2.02.85,1.06.17,2.41.57,2.9l28.41,28.36c1.42,1.09,2.62.09,3.71,2.68,1.09,2.58-2.36,2.92-3.85.48-.45-.74-.15-1.86-1.05-2.44l-28.16-28.13c-.58-.43-1.97.34-2.91-.47-.25-.22-.34-.72-.58-.96-.42-.39-1-.57-1.32-.97-.34-.44-.44-1.49-.71-2.09Z"/>
          </g>
        </g>
        <g>
          <path d="M204.09,166.65l-3.64,7.11c-.53,1.01-.64,1.18-.77,1.18-.18,0-.26-.18-.77-1.18l-3.93-8.09c-1.01-2.04-1.51-2.81-3.07-2.81-.22,0-.37-.07-.37-.2,0-.11.11-.18.37-.18,1.1,0,1.86.07,3.01.07.97,0,2.79-.07,3.77-.07.2,0,.35.04.35.18,0,.13-.2.2-.35.2-1.16.02-1.62.26-1.62.79s.22.81.53,1.45l2.81,6.01,2.94-5.88c-.61-1.25-1.14-2.37-2.52-2.37-.22,0-.37-.07-.37-.2,0-.11.11-.18.37-.18.94,0,2.46.07,3.42.07,1.21,0,1.76-.07,2.94-.07.26,0,.37.07.37.2,0,.07-.15.18-.37.18-1.07,0-1.47.29-1.47.83s.18.88.48,1.49l2.98,5.81,3.01-5.97c.26-.53.39-.94.39-1.27,0-.61-.5-.9-1.62-.9-.44,0-.44-.37,0-.37.81,0,2.13.07,3.03.07s1.71-.07,2.63-.07c.22,0,.35.07.35.18,0,.13-.18.2-.37.2-1.23,0-2.13.61-3.12,2.57l-4.23,8.25c-.5,1.12-.59,1.27-.75,1.27s-.24-.15-.77-1.27l-3.64-7.02Z"/>
          <path d="M245.26,166.65l-3.64,7.11c-.53,1.01-.64,1.18-.77,1.18-.18,0-.26-.18-.77-1.18l-3.93-8.09c-1.01-2.04-1.51-2.81-3.07-2.81-.22,0-.37-.07-.37-.2,0-.11.11-.18.37-.18,1.1,0,1.86.07,3.01.07.97,0,2.79-.07,3.77-.07.2,0,.35.04.35.18s-.2.2-.35.2c-1.16.02-1.62.26-1.62.79s.22.81.53,1.45l2.81,6.01,2.94-5.88c-.61-1.25-1.14-2.37-2.52-2.37-.22,0-.37-.07-.37-.2s.11-.18.37-.18c.94,0,2.46.07,3.42.07,1.21,0,1.75-.07,2.94-.07.26,0,.37.07.37.2s-.15.18-.37.18c-1.07,0-1.47.29-1.47.83,0,.37.18.88.48,1.49l2.98,5.81,3.01-5.97c.26-.53.39-.94.39-1.27,0-.61-.5-.9-1.62-.9-.44,0-.44-.37,0-.37.81,0,2.13.07,3.03.07s1.71-.07,2.63-.07c.22,0,.35.07.35.18,0,.13-.18.2-.37.2-1.23,0-2.13.61-3.12,2.57l-4.23,8.25c-.5,1.12-.59,1.27-.75,1.27s-.24-.15-.77-1.27l-3.64-7.02Z"/>
          <g>
            <path d="M215.64,185.34c-.1,0-.13.06-.13.16v1.87c0,.42.03.63.12.79.19.34.78.48,1.11.49.18,0,.33.03.33.12s-.12.12-.3.12c-.61,0-1.27-.03-2.18-.03s-1.57.03-2.18.03c-.18,0-.3-.04-.3-.12,0-.09.15-.12.33-.12.33-.02.9-.15,1.09-.49.09-.16.12-.37.12-.79v-5.29c0-.42-.03-.64-.12-.81-.19-.34-.78-.48-1.11-.48-.22,0-.31-.03-.31-.12s.09-.12.31-.12c.6,0,1.24.03,2.14.03.57,0,1.15-.03,1.78-.03h4.32c.85,0,.88-.15,1.03-.15.12,0,.16.06.12.28l-.22,1.88c-.02.12-.07.16-.13.16-.03,0-.09-.03-.1-.16-.19-1.34-.84-1.34-2.23-1.34h-2.72c-.76,0-.88.3-.88.93v2.33c0,.1.03.16.13.16h2.32c.63,0,1.03-.57,1.05-1.02.01-.15.06-.24.15-.24s.12.09.12.24c0,.36-.03.96-.03,1.34s.03,1.02.03,1.39c0,.15-.03.25-.12.25s-.13-.1-.15-.25c-.01-.43-.37-1.03-1.05-1.03h-2.32Z"/>
            <path d="M222.17,188.07c0-.58.45-.93,1-.93s.97.34.97.94c0,.58-.43.93-.97.93s-1-.34-1-.94Z"/>
            <path d="M236.85,187.58c-.21.66-.28.81-.75,1.02-.73.33-2.32.45-3.6.45-2.93,0-6.75-1.06-6.75-4.32,0-3.26,3.85-4.32,6.75-4.32,1.24,0,2.27.19,3.69.58.31.1.39-.07.54-.07.07,0,.13.07.13.25v2.21c0,.21-.19.21-.24.04-.48-1.87-2.34-2.46-4.12-2.46-2.27,0-4.45,1.11-4.45,3.76,0,2.57,2,3.76,4.45,3.76,2.27,0,3.97-1.24,4.54-2.46.09-.19.27-.13.24.04l-.43,1.51Z"/>
            <path d="M239.19,188.07c0-.58.45-.93,1-.93s.97.34.97.94c0,.58-.43.93-.97.93s-1-.34-1-.94Z"/>
          </g>
        </g>
      </g>
    </g>
  </g>
</svg>