<?xml version="1.0" encoding="UTF-8"?>
<svg id="Layer_2" data-name="Layer 2" xmlns="http://www.w3.org/2000/svg" viewBox="0 0 820.63 160.28">
  <g id="Layer_1-2" data-name="Layer 1">
    <g>
      <g>
        <path d="M91.33,30.99l-27.34,51.53c-3.88,7.14-4.35,7.61-5.28,7.61-1.24,0-1.55-.47-5.28-7.76L24.54,24.63C18.02,11.59,13.98,5.07,3.26,5.07c-2.02,0-3.26-.62-3.26-1.55s1.09-1.55,3.26-1.55c8.23,0,13.67.47,22.37.47,7.77,0,21.28-.47,29.04-.47,1.55,0,2.95.47,2.95,1.55s-1.86,1.55-2.79,1.55c-7.46.15-10.41,1.71-10.41,5.12,0,2.48,1.4,5.74,3.73,10.09l17.4,36.17,19.57-37.1c-4.35-7.76-7.92-14.28-16.62-14.28-1.86,0-3.11-.62-3.11-1.55s1.09-1.55,3.26-1.55c6.52,0,19.57.47,26.56.47,9.63,0,12.58-.47,22.21-.47,2.33,0,3.26.62,3.26,1.55,0,.62-1.24,1.55-3.26,1.55-7.15,0-9.79,2.02-9.79,5.59,0,2.64,1.55,6.21,3.57,10.25l18.95,34.77,19.42-36.47c1.71-3.26,3.26-6.36,3.26-8.69,0-3.26-2.8-5.43-11.18-5.43-3.73,0-3.73-3.1,0-3.1,6.52,0,16.62.47,23.14.47s11.65-.47,18.48-.47c1.86,0,2.8.62,2.8,1.55s-1.24,1.55-3.1,1.55c-9.48,0-15.84,5.74-22.21,17.39l-32.15,59.76c-3.73,7.92-4.04,7.92-4.97,7.92-1.09,0-1.24,0-4.97-7.92l-27.33-51.22Z"/>
        <path d="M205.3,16.87c0-3.57-.47-5.59-1.24-7.14-2.02-3.57-8.23-4.81-11.65-4.81-2.17,0-3.42-.62-3.42-1.55,0-.78,1.24-1.4,3.11-1.4,6.37,0,13.36.31,25.31.31s18.95-.31,25.32-.31c2.02,0,3.26.62,3.26,1.4,0,.93-1.4,1.55-3.42,1.55-3.42,0-9.79,1.24-11.8,4.81-.78,1.55-1.24,3.57-1.24,7.14v56.65c0,3.73.47,5.74,1.24,7.3,2.02,3.57,8.38,4.81,11.8,4.81,2.02,0,3.42.62,3.42,1.55,0,.78-1.24,1.4-3.26,1.4-6.37,0-13.36-.31-25.32-.31s-18.95.31-25.31.31c-1.87,0-3.11-.62-3.11-1.4,0-.93,1.24-1.55,3.42-1.55,3.42,0,9.63-1.24,11.65-4.81.78-1.55,1.24-3.57,1.24-7.3V16.87Z"/>
        <path d="M302.05,63.43c0,14.75.47,17.39,22.21,17.39h13.05c13.98,0,24.38-5.9,30.6-23.13.93-2.8,3.73-2.49,3.1.31l-4.97,20.18c-1.86,6.68-3.26,10.4-11.34,10.4h-36.81c-6.06,0-20.03-.31-26.56-.31-8.85,0-20.35.31-29.2.31-1.86,0-3.11-.78-3.11-1.4,0-.78,1.24-1.71,3.26-1.71,10.72,0,15.53-5.74,15.53-16.14V21.52c0-5.28-.62-8.22-1.86-10.24-2.48-4.35-9.47-6.21-13.67-6.21-2.33,0-4.04-.47-4.04-1.55s1.4-1.55,3.73-1.55c9.01,0,19.42.47,28.27.47s18.02-.47,27.49-.47c2.33,0,3.57.47,3.57,1.55s-1.55,1.55-3.88,1.55c-4.19,0-11.34,1.86-13.82,6.21-.93,2.02-1.55,4.97-1.55,10.24v41.91Z"/>
        <path d="M475.68,25.56c.15,2.79-2.64,3.1-3.42.31-4.04-13.5-20.35-16.92-37.12-16.92-10.1,0-27.18,1.55-27.18,11.18,0,20.33,76.41,5.43,76.41,41.91,0,22.35-27.33,28.1-52.19,28.1s-32.46-4.81-38.36-5.9c-3.42-.62-2.33,1.24-3.88,1.24-1.09,0-2.02-.62-2.49-4.97l-2.33-21.57c-.16-1.24.47-2.02,1.55-2.02s1.24.93,1.71,2.02c8.38,19.71,29.04,22.66,43.8,22.66s32-2.33,32-13.04c0-22.97-76.41-3.73-76.41-41.44,0-22.66,27.33-26.7,47.37-26.7,16.77,0,22.52,1.71,33.24,4.19,3.1.78,2.33-1.24,3.88-1.24.93,0,1.56.31,2.02,5.74l1.4,16.46Z"/>
        <path d="M552.7,88.58c-6.52,0-14.14-.31-24.08-.31-11.8,0-18.79.31-25.01.31-2.17,0-3.26-.62-3.26-1.4,0-.93,1.09-1.55,3.26-1.55,3.42,0,9.79-1.24,11.8-4.81.78-1.55,1.24-3.57,1.24-7.14V17.02c0-3.72-.47-5.74-1.24-7.29-2.02-3.57-8.38-4.81-11.8-4.81-2.17,0-3.26-.62-3.26-1.55,0-.78,1.09-1.4,3.26-1.4,6.21,0,13.2.31,25.16.31,5.74,0,14.29-.31,21.12-.31h43.18c9.16,0,9.16-1.55,11.03-1.55,1.71,0,2.02.62,1.56,3.73l-2.49,19.25c-.31,2.79-2.64,2.95-2.95,0-2.33-13.19-8.23-13.19-22.06-13.19h-26.72c-8.08,0-10.56,1.86-10.56,9.31v17.54c0,1.71.47,2.17,2.33,2.17h25.78c8.85,0,13.36-5.43,13.51-10.4,0-2.02.78-2.95,1.55-2.95s1.4.93,1.4,2.95c0,3.72-.31,10.09-.31,14.43s.31,10.56.31,14.44c0,2.17-.62,2.95-1.4,2.95s-1.55-.62-1.55-2.95c0-4.97-4.66-10.25-13.51-10.25h-25.78c-2.02,0-2.33.62-2.33,2.17v15.06c0,12.73,3.42,15.68,18.02,15.68h13.2c20.35,0,29.36-6.52,34.64-18.01,1.09-2.33,3.88-1.71,3.1.93l-4.35,14.28c-3.1,10.4-4.35,11.02-14.13,11.02h-38.67Z"/>
        <path d="M673.05,63.74c0-4.35-.62-5.28-3.57-8.85l-22.99-28.25c-9.47-11.64-19.88-21.57-28.89-21.73-2.33,0-4.04-.31-4.04-1.71,0-.78,1.4-1.24,3.73-1.24,9.16,0,14.44.31,24.07.31,11.5,0,19.42-.31,26.72-.31,2.33,0,3.57.47,3.57,1.4,0,1.24-1.56,1.55-3.42,1.55-4.97,0-7.45,1.24-7.45,3.88,0,2.17,1.86,5.28,5.13,9.47l23.61,29.18,24.85-29.65c2.95-3.41,4.35-6.36,4.35-8.38,0-2.95-2.79-4.5-7.77-4.5-2.02,0-3.26-.47-3.26-1.55s1.4-1.4,3.26-1.4c7.61,0,11.96.31,19.1.31,6.52,0,11.8-.31,18.33-.31,2.49,0,3.57.31,3.57,1.4,0,1.24-1.4,1.55-3.73,1.55-7.92.15-11.34,2.95-24.08,18.32l-25.78,31.04c-2.33,2.79-2.49,3.57-2.49,9.16v5.43c0,5.43.62,8.22,1.71,10.4,2.33,4.5,9.48,6.21,13.82,6.21,2.33,0,4.04.47,4.04,1.55s-1.4,1.55-3.73,1.55c-9.16,0-18.17-.31-27.18-.31s-18.02.31-27.49.31c-2.33,0-3.73-.47-3.73-1.55s1.71-1.55,4.04-1.55c4.35,0,11.34-1.86,13.82-6.21,1.24-2.17,1.86-4.97,1.86-10.4v-5.12Z"/>
      </g>
      <g>
        <path d="M64.29,118.65l-19.24,36.28c-2.73,5.03-3.06,5.35-3.72,5.35-.88,0-1.1-.33-3.72-5.46l-20.33-40.65c-4.59-9.18-7.44-13.77-14.98-13.77-1.42,0-2.3-.44-2.3-1.09s.77-1.09,2.3-1.09c5.79,0,9.62.33,15.74.33,5.47,0,14.98-.33,20.45-.33,1.09,0,2.08.33,2.08,1.09s-1.31,1.09-1.97,1.09c-5.25.11-7.32,1.2-7.32,3.61,0,1.75.98,4.04,2.62,7.1l12.24,25.46,13.78-26.11c-3.06-5.46-5.57-10.05-11.7-10.05-1.31,0-2.19-.44-2.19-1.09s.77-1.09,2.3-1.09c4.59,0,13.78.33,18.7.33,6.78,0,8.86-.33,15.63-.33,1.64,0,2.3.44,2.3,1.09,0,.44-.87,1.09-2.3,1.09-5.03,0-6.89,1.42-6.89,3.93,0,1.86,1.1,4.37,2.52,7.21l13.34,24.47,13.66-25.68c1.2-2.3,2.3-4.48,2.3-6.12,0-2.29-1.97-3.82-7.87-3.82-2.62,0-2.62-2.19,0-2.19,4.59,0,11.7.33,16.29.33s8.2-.33,13.01-.33c1.31,0,1.97.44,1.97,1.09s-.88,1.09-2.19,1.09c-6.67,0-11.15,4.04-15.63,12.24l-22.63,42.07c-2.62,5.57-2.84,5.57-3.5,5.57-.77,0-.87,0-3.5-5.57l-19.24-36.06Z"/>
        <path d="M184.87,141.49h-39.47l-3.28,4.92c-.98,1.42-3.28,4.92-3.28,7.32,0,1.86,1.2,3.39,5.14,3.39,1.42,0,2.3.44,2.3.98s-.77,1.09-2.19,1.09c-4.59,0-9.07-.22-13.45-.22-4.59,0-9.29.22-13.88.22-1.42,0-2.19-.55-2.19-1.09,0-.44.77-.98,2.19-.98,6.67-.11,9.95-2.73,16.95-12.89l27.22-39.77c-1.53-2.62-5.79-4.15-8.53-4.15-1.42,0-2.3-.55-2.3-1.09s.88-.98,2.19-.98h14.21c6.78,0,9.84,1.75,12.68,6.12l26.13,39.34c3.39,5.13,9.51,13.44,15.09,13.44,1.42,0,2.19.55,2.19,1.2,0,.55-.77.87-2.19.87-5.58,0-11.15-.22-16.73-.22s-11.37.22-17.16.22c-1.42,0-2.08-.33-2.08-.98,0-.44.65-1.09,2.08-1.09,2.3,0,5.25-.55,5.25-3.28,0-1.31-.65-2.95-3.61-7.43l-3.28-4.92ZM149.44,135.37h31.38l-15.63-23.82-15.74,23.82Z"/>
        <path d="M227.05,100.4c-1.64-.11-2.95-.22-2.95-1.09,0-.77,1.09-1.09,2.62-1.09,7,0,12.57.22,20.01.22,6.78,0,13.23-.22,23.62-.22,11.81,0,35.31.22,35.31,17.37,0,10.6-8.42,14.97-18.04,16.83,2.4.98,4.15,2.95,6.56,6.01,9.51,12.67,16.18,18.68,25.69,18.68,3.06,0,2.84,1.86.33,2.19-2.08.22-4.92.44-11.59.44-15.2,0-20.01-.11-37.17-23.27-2.3-2.62-5.14-2.84-7.11-2.84h-8.09c-1.31,0-1.53.33-1.53,1.64v10.05c0,10.71,5.69,11.47,10.93,11.69,1.64.11,2.95.22,2.95,1.09,0,.77-1.09,1.09-2.62,1.09-6.78,0-13.12-.22-19.46-.22s-13.34.22-20.12.22c-1.53,0-2.62-.33-2.62-1.09,0-.87,1.31-.98,2.95-1.09,5.14-.33,10.93-.76,10.93-11.69v-33.33c0-10.71-5.36-11.36-10.61-11.58ZM271.22,128.81c8.75,0,15.85-4.15,15.85-13.22,0-10.38-7.11-12.57-15.85-12.57h-7.22c-8.86,0-9.29.11-9.29,8.96v15.41c0,.98.33,1.42,1.53,1.42h14.98Z"/>
        <path d="M325.88,100.4c-1.64-.11-2.95-.22-2.95-1.09,0-.77,1.09-1.09,2.62-1.09,7,0,12.57.22,20.01.22,6.78,0,13.23-.22,23.62-.22,11.81,0,35.31.22,35.31,17.37,0,10.6-8.42,14.97-18.04,16.83,2.41.98,4.15,2.95,6.56,6.01,9.51,12.67,16.18,18.68,25.69,18.68,3.06,0,2.84,1.86.33,2.19-2.08.22-4.92.44-11.59.44-15.2,0-20.01-.11-37.17-23.27-2.3-2.62-5.14-2.84-7.11-2.84h-8.09c-1.31,0-1.53.33-1.53,1.64v10.05c0,10.71,5.69,11.47,10.93,11.69,1.64.11,2.95.22,2.95,1.09,0,.77-1.09,1.09-2.62,1.09-6.78,0-13.12-.22-19.46-.22s-13.34.22-20.12.22c-1.53,0-2.62-.33-2.62-1.09,0-.87,1.31-.98,2.95-1.09,5.14-.33,10.93-.76,10.93-11.69v-33.33c0-10.71-5.36-11.36-10.61-11.58ZM370.05,128.81c8.75,0,15.85-4.15,15.85-13.22,0-10.38-7.11-12.57-15.85-12.57h-7.22c-8.86,0-9.29.11-9.29,8.96v15.41c0,.98.33,1.42,1.53,1.42h14.98Z"/>
        <path d="M434.54,108.71c0-2.51-.33-3.93-.87-5.03-1.42-2.51-5.8-3.39-8.2-3.39-1.53,0-2.4-.44-2.4-1.09,0-.55.87-.98,2.19-.98,4.48,0,9.4.22,17.82.22s13.34-.22,17.82-.22c1.42,0,2.3.44,2.3.98,0,.65-.98,1.09-2.41,1.09-2.4,0-6.89.87-8.31,3.39-.55,1.09-.87,2.51-.87,5.03v39.88c0,2.62.33,4.04.87,5.14,1.42,2.51,5.9,3.39,8.31,3.39,1.42,0,2.41.44,2.41,1.09,0,.55-.88.98-2.3.98-4.48,0-9.4-.22-17.82-.22s-13.34.22-17.82.22c-1.31,0-2.19-.44-2.19-.98,0-.66.87-1.09,2.4-1.09,2.4,0,6.78-.87,8.2-3.39.55-1.09.87-2.51.87-5.14v-39.88Z"/>
        <path d="M521.45,97.12c29.52,0,49.85,11.04,49.85,30.92,0,16.72-14.21,32.23-48.98,32.23-28.1,0-49.85-10.16-49.85-30.92,0-16.94,14.32-32.23,48.98-32.23ZM492.7,127.61c0,15.74,10.28,27.86,29.63,27.86,14.87,0,28.75-7.1,28.75-25.68,0-15.73-10.06-27.86-29.41-27.86-14.87,0-28.97,7.1-28.97,25.68Z"/>
        <path d="M582.34,100.4c-1.64-.11-2.95-.22-2.95-1.09,0-.77,1.09-1.09,2.62-1.09,7,0,12.57.22,20.01.22,6.78,0,13.23-.22,23.62-.22,11.81,0,35.31.22,35.31,17.37,0,10.6-8.42,14.97-18.04,16.83,2.4.98,4.15,2.95,6.56,6.01,9.51,12.67,16.18,18.68,25.69,18.68,3.06,0,2.84,1.86.33,2.19-2.08.22-4.92.44-11.59.44-15.2,0-20.01-.11-37.17-23.27-2.29-2.62-5.14-2.84-7.11-2.84h-8.09c-1.31,0-1.53.33-1.53,1.64v10.05c0,10.71,5.69,11.47,10.93,11.69,1.64.11,2.95.22,2.95,1.09,0,.77-1.09,1.09-2.62,1.09-6.78,0-13.12-.22-19.46-.22s-13.34.22-20.12.22c-1.53,0-2.62-.33-2.62-1.09,0-.87,1.31-.98,2.95-1.09,5.14-.33,10.93-.76,10.93-11.69v-33.33c0-10.71-5.36-11.36-10.61-11.58ZM626.51,128.81c8.74,0,15.85-4.15,15.85-13.22,0-10.38-7.11-12.57-15.85-12.57h-7.22c-8.86,0-9.29.11-9.29,8.96v15.41c0,.98.33,1.42,1.53,1.42h14.98Z"/>
        <path d="M745.23,114.83c.11,1.97-1.86,2.18-2.4.22-2.84-9.51-14.32-11.91-26.13-11.91-7.11,0-19.13,1.09-19.13,7.87,0,14.31,53.79,3.82,53.79,29.5,0,15.74-19.24,19.78-36.74,19.78s-22.85-3.39-27-4.15c-2.4-.44-1.64.87-2.73.87-.77,0-1.42-.44-1.75-3.5l-1.64-15.19c-.11-.87.33-1.42,1.1-1.42s.87.65,1.2,1.42c5.9,13.88,20.45,15.95,30.83,15.95s22.52-1.64,22.52-9.18c0-16.17-53.79-2.62-53.79-29.17,0-15.95,19.24-18.8,33.34-18.8,11.81,0,15.85,1.2,23.4,2.95,2.19.55,1.64-.87,2.73-.87.66,0,1.09.22,1.42,4.04l.98,11.58Z"/>
      </g>
      <g>
        <path d="M801.44,138.46c0,.71.39.87,1.1.87h9.68c1.89,0,2.91-.24,3.7-.63,1.81-1.02,2.44-4.25,2.44-5.98,0-1.02.31-1.73.79-1.73.39,0,.71.63.71,1.65,0,3.23-.16,6.69-.16,12.75s.16,9.68.16,12.91c0,.94-.31,1.57-.71,1.57-.47,0-.79-.63-.79-1.73,0-1.73-.63-4.88-2.44-5.9-.79-.39-1.81-.63-3.7-.63h-28.64c-1.89,0-2.91.24-3.7.63-1.81,1.02-2.44,4.25-2.44,5.98,0,1.1-.32,1.65-.79,1.65-.39,0-.71-.55-.71-1.65,0-3.15.16-6.69.16-12.75,0-2.91-.16-5.83-.16-9.29v-23.06c0-4.64-.79-4.49-.79-5.51,0-.87.32-1.1,1.89-.87l9.75,1.26c.79.08,1.02.47,1.02.79,0,.24-.24.55-1.02.71-6.69,1.18-6.69,4.17-6.69,11.18v15.04c0,2.99,2.12,3.62,4.09,3.62h11.96c.71,0,1.1-.16,1.1-.87v-11.02c0-3.94-3.54-5.9-5.35-5.98-1.02-.16-1.5-.47-1.5-.86,0-.47.47-.71,1.5-.71,1.89,0,5.19.16,7.39.16s5.74-.16,7.63-.16c1.02,0,1.5.24,1.5.71,0,.39-.47.71-1.5.86-1.81.08-5.51,1.97-5.51,5.98v11.02Z"/>
        <path d="M814.81,104.93c-3.78,0-5.74-2.99-5.74-6.14s1.97-6.06,5.82-6.06,5.74,2.91,5.74,6.06-1.97,6.14-5.82,6.14Z"/>
        <path d="M813.71,23.84c2.44.71,2.99.94,4.25,3.62,2.12,4.49,2.67,15.27,2.67,20.07,0,16.06-5.43,37.31-22.74,37.31s-22.74-21.33-22.74-37.31c0-7.09,1.1-12.52,2.68-20.15.39-1.42-.55-1.73-.55-2.6,0-.47.47-.79,1.57-.79h11.64c1.26,0,1.26,1.1.24,1.42-9.68,2.68-12.12,13.78-12.12,22.12,0,11.49,5.66,22.36,19.27,22.36s19.28-9.13,19.28-22.36c0-11.73-5.9-21.26-12.82-24.72-1.1-.55-.79-1.5.24-1.42l9.13,2.44Z"/>
        <path d="M814.81,12.2c-3.78,0-5.74-2.99-5.74-6.14s1.97-6.06,5.82-6.06,5.74,2.91,5.74,6.06-1.97,6.14-5.82,6.14Z"/>
      </g>
    </g>
  </g>
</svg>