<?xml version="1.0" encoding="UTF-8"?>
<svg id="Layer_2" data-name="Layer 2" xmlns="http://www.w3.org/2000/svg" viewBox="0 0 561.85 182.52">
  <defs>
    <style>
      .cls-1, .cls-2 {
        fill: none;
      }

      .cls-3 {
        fill: #538cc9;
      }

      .cls-4 {
        fill: #468943;
      }

      .cls-5 {
        fill: #fff;
      }

      .cls-2 {
        stroke: #fff;
        stroke-linecap: round;
        stroke-linejoin: round;
      }

      .cls-6 {
        fill: #b02127;
      }

      .cls-7 {
        fill: #ee6730;
      }
    </style>
  </defs>
  <g id="Layer_1-2" data-name="Layer 1">
    <g>
      <g>
        <path class="cls-1" d="M135.18,121.92c.38.01.75.03,1.12.03,16.93,0,30.7-13.77,30.7-30.7s-13.77-30.7-30.7-30.7c-.37,0-.75.02-1.12.03-4.57,13.94-15.61,24.97-29.54,29.54-.01.38-.03.75-.03,1.12s.02.75.03,1.12c13.94,4.57,24.97,15.61,29.54,29.54Z"/>
        <path class="cls-1" d="M47.34,60.59c-.38-.01-.75-.03-1.12-.03-16.93,0-30.7,13.77-30.7,30.7s13.77,30.7,30.7,30.7c.37,0,.75-.02,1.12-.03,4.57-13.94,15.61-24.97,29.54-29.54.01-.38.03-.75.03-1.12s-.02-.75-.03-1.12c-13.94-4.57-24.97-15.61-29.54-29.54Z"/>
        <path class="cls-1" d="M121.92,47.34c.01-.38.03-.75.03-1.12,0-16.93-13.77-30.7-30.7-30.7s-30.7,13.77-30.7,30.7c0,.37.02.75.03,1.12,13.94,4.57,24.97,15.61,29.54,29.54.38.01.75.03,1.12.03s.75-.02,1.12-.03c4.57-13.94,15.61-24.97,29.54-29.54Z"/>
        <path class="cls-1" d="M92.38,105.63c-.38-.01-.75-.03-1.12-.03s-.75.02-1.12.03c-4.57,13.94-15.61,24.97-29.54,29.54-.01.38-.03.75-.03,1.12,0,16.93,13.77,30.7,30.7,30.7s30.7-13.77,30.7-30.7c0-.37-.02-.75-.03-1.12-13.94-4.57-24.97-15.61-29.54-29.54Z"/>
        <path class="cls-3" d="M137.42,48.44c-.37,0-.75-.03-1.12-.03-.19,0-.38.01-.56.01-.56,0-1.13.02-1.69.04-1.86.1-3.68.33-5.47.66-.43.08-.86.15-1.28.24-.73.16-1.45.33-2.17.53h0c-.59.16-1.17.34-1.75.52-.32.1-.64.2-.96.31-.27.09-.54.19-.81.29-.62.23-1.23.46-1.83.71-.86.36-1.71.75-2.55,1.17-.83.42-1.65.86-2.45,1.33-.8.47-1.59.96-2.36,1.48-1.15.78-2.26,1.61-3.33,2.49-1.07.88-2.09,1.81-3.07,2.79-.65.65-1.28,1.33-1.89,2.02-.3.35-.6.7-.9,1.05-.88,1.07-1.71,2.18-2.49,3.33-.52.77-1.01,1.55-1.48,2.36-1.25,2.15-2.32,4.42-3.19,6.78,1.36-.22,2.7-.52,4.01-.92.9-.27,1.78-.58,2.65-.93.37-.15.74-.31,1.11-.47,1.64-.74,3.2-1.62,4.67-2.62,2.23-3.14,4.97-5.88,8.11-8.11,1.02-.73,2.08-1.4,3.18-2.01.82-.46,1.66-.88,2.52-1.27,1.43-.65,2.92-1.19,4.45-1.64.7-.21,1.41-.39,2.13-.55,1.22-.27,2.46-.48,3.72-.62.59-.06,1.19-.11,1.79-.15.58-.03,1.17-.05,1.76-.05.04,0,.08,0,.13,0,18.79,0,34.07,15.28,34.07,34.07s-15.28,34.07-34.07,34.07c-.05,0-.1,0-.16,0,.27,1.12.51,2.24.7,3.37.29,1.72.49,3.45.58,5.17,0,.07,0,.14,0,.21,23.11-.6,41.72-19.57,41.72-42.82s-18.61-42.22-41.72-42.82Z"/>
        <path class="cls-5" d="M137.45,45.07C136.83,20.11,116.36,0,91.26,0s-45.58,20.11-46.19,45.07C20.11,45.68,0,66.16,0,91.26s20.11,45.58,45.07,46.19c.62,24.95,21.09,45.07,46.19,45.07s45.58-20.11,46.19-45.07c24.95-.62,45.07-21.09,45.07-46.19s-20.11-45.58-45.07-46.19ZM134.1,136.3c0,.38-.02.75-.03,1.12-.6,23.11-19.57,41.72-42.82,41.72s-42.22-18.61-42.82-41.72c.07,0,.14,0,.21,0,1.73-.09,3.46-.29,5.17-.58,1.13-.19,2.25-.43,3.37-.7,0,.05,0,.1,0,.16,0,18.79,15.28,34.07,34.07,34.07s34.07-15.29,34.07-34.07c0-.04,0-.08,0-.13,0-.59-.02-1.18-.05-1.76-.03-.6-.08-1.2-.15-1.79-.14-1.26-.35-2.5-.62-3.72-.16-.72-.35-1.43-.55-2.13-.45-1.53-.99-3.01-1.64-4.45-.39-.86-.82-1.7-1.27-2.52-.61-1.1-1.28-2.16-2.01-3.18-2.23-3.14-4.97-5.88-8.11-8.11-1-1.47-1.88-3.03-2.62-4.67-.17-.37-.32-.73-.47-1.11-.35-.87-.66-1.76-.93-2.65-.4-1.32-.7-2.65-.92-4.01,11.81,4.34,21.18,13.72,25.51,25.54.21.58.41,1.17.6,1.76.18.58.36,1.16.52,1.75.31,1.13.55,2.28.77,3.45.33,1.79.56,3.61.66,5.47.03.56.04,1.12.04,1.69,0,.19.01.37.01.56ZM48.41,46.22c0-.38.02-.75.03-1.12.6-23.11,19.57-41.72,42.82-41.72s42.22,18.61,42.82,41.72c-.07,0-.14,0-.21,0-1.73.09-3.46.29-5.17.58-1.13.19-2.25.43-3.37.7,0-.05,0-.1,0-.16,0-1.76-.13-3.49-.39-5.18-.26-1.69-.64-3.34-1.14-4.94-2.33-7.46-7.16-13.83-13.5-18.12-1.36-.92-2.79-1.74-4.28-2.46-4.47-2.16-9.47-3.36-14.76-3.36s-10.29,1.21-14.76,3.36c-1.49.72-2.92,1.54-4.28,2.46-6.35,4.29-11.17,10.66-13.5,18.12-.5,1.6-.88,3.25-1.14,4.94-.26,1.69-.39,3.42-.39,5.18,0,.04,0,.08,0,.13,0,.58.02,1.15.05,1.72,0,.01,0,.03,0,.04.03.6.08,1.2.15,1.79.14,1.26.35,2.5.62,3.72.02.1.04.2.06.29.14.62.31,1.23.49,1.84.45,1.53.99,3.01,1.64,4.45.39.86.82,1.7,1.27,2.52.61,1.1,1.28,2.16,2.01,3.18,2.23,3.14,4.97,5.88,8.11,8.11,1,1.47,1.88,3.03,2.62,4.67.17.37.32.73.47,1.11.35.87.66,1.76.93,2.65.4,1.32.7,2.65.92,4.01-11.81-4.34-21.18-13.72-25.51-25.54-.21-.58-.41-1.17-.6-1.76-.18-.58-.36-1.16-.52-1.75-.31-1.13-.55-2.28-.77-3.45-.06-.31-.12-.62-.18-.93-.24-1.49-.4-3-.48-4.53-.03-.56-.04-1.13-.04-1.69,0-.19-.01-.37-.01-.56ZM119.04,65.9c1.47-1,3.03-1.88,4.67-2.62.37-.17.73-.32,1.11-.47.87-.35,1.76-.66,2.65-.93,1.32-.4,2.65-.7,4.01-.92-4.34,11.81-13.72,21.18-25.54,25.51-.58.21-1.17.41-1.76.6-.58.18-1.16.36-1.75.52-1.13.31-2.28.55-3.45.77-.68.13-1.37.23-2.07.33-1.12.15-2.25.27-3.4.33-.37.02-.75.02-1.13.03,0-.07,0-.14,0-.2-.03-.48-.07-.97-.11-1.45-.05-.56-.1-1.12-.17-1.68,0-.01,0-.02,0-.03-.08-.62-.15-1.23-.25-1.84,0-.06-.02-.11-.03-.17-.16-.94-.35-1.88-.57-2.81-.04-.19-.09-.37-.14-.56.05,0,.1,0,.16,0,.04,0,.08,0,.13,0,.59,0,1.18-.02,1.76-.05.6-.03,1.2-.08,1.79-.15,1.26-.14,2.5-.35,3.72-.62.72-.16,1.43-.35,2.13-.55,1.53-.45,3.01-.99,4.45-1.64.86-.39,1.7-.82,2.52-1.27,1.1-.61,2.16-1.28,3.18-2.01,3.14-2.23,5.88-4.97,8.11-8.11ZM103.04,98.66c.16.72.35,1.43.55,2.13.45,1.53.99,3.01,1.64,4.45.39.86.82,1.7,1.27,2.52.61,1.1,1.28,2.16,2.01,3.18,2.23,3.14,4.97,5.88,8.11,8.11,1,1.47,1.88,3.03,2.62,4.67.17.37.32.73.47,1.11.35.87.66,1.76.93,2.65.4,1.32.7,2.65.92,4.01-11.81-4.34-21.18-13.72-25.51-25.54-.21-.58-.41-1.17-.6-1.76-.18-.58-.36-1.16-.52-1.75-.31-1.13-.55-2.28-.77-3.45-.13-.68-.23-1.37-.33-2.07-.15-1.12-.27-2.25-.33-3.4-.02-.37-.02-.75-.03-1.13.07,0,.14,0,.21,0,.48-.03.97-.07,1.45-.11.56-.05,1.12-.1,1.68-.17.01,0,.02,0,.03,0,.62-.08,1.23-.15,1.84-.25.06,0,.11-.02.17-.03.94-.16,1.88-.35,2.81-.57.19-.04.37-.09.56-.13,0,.05,0,.1,0,.16,0,.04,0,.08,0,.13,0,.59.02,1.18.05,1.76.03.6.08,1.2.15,1.79.14,1.26.35,2.5.62,3.72ZM121.96,136.3c0,16.93-13.77,30.7-30.7,30.7s-30.7-13.77-30.7-30.7c0-.37.02-.74.03-1.12,13.94-4.57,24.97-15.61,29.54-29.54.38-.01.75-.03,1.12-.03s.75.02,1.12.03c4.57,13.94,15.61,24.97,29.54,29.54.01.38.03.75.03,1.12ZM63.48,116.62c-1.47,1-3.03,1.88-4.67,2.62-.37.17-.73.32-1.11.47-.87.35-1.76.66-2.65.93-1.32.4-2.65.7-4.01.92,4.34-11.81,13.72-21.18,25.54-25.51.58-.21,1.17-.41,1.76-.6.58-.18,1.16-.36,1.75-.52,1.13-.31,2.28-.55,3.45-.77.68-.13,1.37-.23,2.07-.33,1.12-.15,2.25-.27,3.4-.33.37-.02.75-.02,1.13-.03,0,.07,0,.14,0,.2.03.48.07.97.11,1.45.05.56.1,1.12.17,1.68,0,.01,0,.02,0,.03.08.62.15,1.23.25,1.84,0,.06.02.11.03.17.16.94.35,1.88.57,2.81.04.19.09.37.14.56-.05,0-.1,0-.16,0-.04,0-.08,0-.13,0-.59,0-1.18.02-1.76.05-.6.03-1.2.08-1.79.15-1.26.14-2.5.35-3.72.62-.72.16-1.43.35-2.13.55-1.53.45-3.01.99-4.45,1.64-.86.39-1.7.82-2.52,1.27-1.1.61-2.16,1.28-3.18,2.01-3.14,2.23-5.88,4.97-8.11,8.11ZM79.47,83.86c-.16-.72-.35-1.43-.55-2.13-.45-1.53-.99-3.01-1.64-4.45-.39-.86-.82-1.7-1.27-2.52-.61-1.1-1.28-2.16-2.01-3.18-2.23-3.14-4.97-5.88-8.11-8.11-1-1.47-1.88-3.03-2.62-4.67-.17-.37-.32-.73-.47-1.11-.35-.87-.66-1.76-.93-2.65-.4-1.32-.71-2.65-.92-4.01,11.81,4.34,21.18,13.72,25.51,25.54.21.58.41,1.17.6,1.76.18.58.36,1.16.52,1.75.31,1.13.55,2.28.77,3.45.13.68.23,1.37.33,2.07.15,1.12.27,2.25.33,3.4.02.37.02.75.03,1.13-.07,0-.14,0-.21,0-.48.03-.97.07-1.45.11-.56.05-1.12.1-1.68.17-.01,0-.02,0-.03,0-.62.08-1.23.15-1.84.25-.06,0-.11.02-.17.03-.94.16-1.88.35-2.81.57-.19.04-.37.09-.56.13,0-.05,0-.1,0-.16,0-.04,0-.08,0-.13,0-.59-.02-1.18-.05-1.76-.03-.6-.08-1.2-.15-1.79-.14-1.26-.35-2.5-.62-3.72ZM76.92,91.26c0,.37-.02.75-.03,1.12-13.94,4.57-24.97,15.61-29.54,29.54-.38.01-.75.03-1.12.03-16.93,0-30.7-13.77-30.7-30.7s13.77-30.7,30.7-30.7c.37,0,.74.02,1.12.03,4.57,13.94,15.61,24.97,29.54,29.54.01.38.03.75.03,1.12ZM105.6,91.26c0-.37.02-.75.03-1.12,13.94-4.57,24.97-15.61,29.54-29.54.38-.01.75-.03,1.12-.03,16.93,0,30.7,13.77,30.7,30.7s-13.77,30.7-30.7,30.7c-.37,0-.75-.02-1.12-.03-4.57-13.94-15.61-24.97-29.54-29.54-.01-.38-.03-.75-.03-1.12ZM91.26,76.92c-.37,0-.75-.02-1.12-.03-4.57-13.94-15.61-24.97-29.54-29.54-.01-.38-.03-.75-.03-1.12,0-16.93,13.77-30.7,30.7-30.7s30.7,13.77,30.7,30.7c0,.37-.02.75-.03,1.12-13.94,4.57-24.97,15.61-29.54,29.54-.38.01-.75.03-1.12.03ZM45.1,48.44c0,.07,0,.14,0,.21.09,1.73.29,3.46.58,5.17.19,1.13.43,2.25.7,3.37-.05,0-.1,0-.16,0-18.79,0-34.07,15.28-34.07,34.07s15.28,34.07,34.07,34.07c.04,0,.08,0,.13,0,.59,0,1.18-.02,1.76-.05.6-.03,1.2-.08,1.79-.15,1.26-.14,2.5-.35,3.72-.62.72-.16,1.43-.35,2.13-.55,1.53-.45,3.01-.99,4.45-1.64.86-.39,1.7-.82,2.52-1.27,1.1-.61,2.16-1.28,3.18-2.01,3.14-2.23,5.88-4.97,8.11-8.11,1.47-1,3.03-1.88,4.67-2.62.37-.17.73-.32,1.11-.47.87-.35,1.76-.66,2.65-.93,1.32-.4,2.65-.7,4.01-.92-4.34,11.81-13.73,21.18-25.54,25.51-.58.21-1.17.41-1.76.6-.58.18-1.16.36-1.75.52-1.13.31-2.28.55-3.45.77-1.79.33-3.61.56-5.47.66-.56.03-1.13.04-1.69.04-.19,0-.37.01-.56.01-.38,0-.75-.02-1.12-.03-23.11-.6-41.72-19.57-41.72-42.82s18.61-42.22,41.72-42.82ZM137.42,134.07c0-.07,0-.14,0-.21-.09-1.73-.29-3.46-.58-5.17-.19-1.13-.43-2.25-.7-3.37.05,0,.1,0,.16,0,18.79,0,34.07-15.28,34.07-34.07s-15.28-34.07-34.07-34.07c-.04,0-.08,0-.13,0-.59,0-1.18.02-1.76.05-.6.03-1.2.08-1.79.15-1.26.14-2.5.35-3.72.62-.72.16-1.43.35-2.13.55-1.53.45-3.01.99-4.45,1.64-.86.39-1.7.82-2.52,1.27-1.1.61-2.16,1.28-3.18,2.01-3.14,2.23-5.88,4.97-8.11,8.11-1.47,1-3.03,1.88-4.67,2.62-.37.17-.73.32-1.11.47-.87.35-1.76.66-2.65.93-1.32.4-2.65.7-4.01.92.87-2.37,1.94-4.64,3.19-6.78.47-.8.96-1.59,1.48-2.36.78-1.15,1.61-2.26,2.49-3.33.29-.36.59-.71.9-1.05.61-.69,1.24-1.37,1.89-2.02.98-.98,2-1.91,3.07-2.79,1.07-.88,2.18-1.71,3.33-2.49.77-.52,1.55-1.01,2.36-1.48.8-.47,1.62-.91,2.45-1.33.83-.42,1.68-.81,2.55-1.17.6-.25,1.21-.49,1.83-.71.27-.1.53-.2.81-.29.32-.11.64-.21.96-.31.58-.18,1.16-.36,1.75-.52.06-.59.11-1.18.15-1.77,0-.02,0-.04,0-.05,0,.02,0,.04,0,.05-.03.59-.08,1.19-.15,1.77.72-.19,1.44-.37,2.17-.53.42-.09.85-.16,1.28-.24,1.79-.33,3.61-.56,5.47-.66.56-.03,1.12-.04,1.69-.04.19,0,.37-.01.56-.01.38,0,.75.02,1.12.03,23.11.6,41.72,19.57,41.72,42.82s-18.61,42.22-41.72,42.82Z"/>
        <path class="cls-2" d="M121.61,51.02c-.62.23-1.23.46-1.83.71"/>
        <path class="cls-2" d="M117.24,52.9c-.83.42-1.65.86-2.45,1.33"/>
        <path class="cls-2" d="M106.02,60.98c-.65.65-1.28,1.33-1.89,2.02"/>
        <path class="cls-2" d="M114.78,54.23c-.8.47-1.59.96-2.36,1.48"/>
        <path class="cls-2" d="M103.23,64.06c-.88,1.07-1.71,2.18-2.49,3.33"/>
        <path class="cls-2" d="M100.74,67.39c-.52.77-1.01,1.55-1.48,2.36"/>
        <path class="cls-6" d="M45.1,134.07c.37,0,.75.03,1.12.03.19,0,.37-.01.56-.01.57,0,1.13-.02,1.69-.04,1.86-.1,3.68-.33,5.47-.66,1.16-.21,2.32-.46,3.45-.77.59-.16,1.17-.34,1.75-.52.59-.19,1.18-.39,1.76-.6,11.81-4.32,21.2-13.7,25.54-25.51-1.36.22-2.7.52-4.01.92-.9.27-1.78.58-2.65.93-.37.15-.74.31-1.11.47-1.64.74-3.2,1.62-4.67,2.62-2.23,3.14-4.97,5.88-8.11,8.11-1.02.73-2.08,1.4-3.18,2.01-.82.46-1.66.88-2.52,1.27-1.43.65-2.92,1.19-4.45,1.64-.7.21-1.41.39-2.13.55-1.22.27-2.46.48-3.72.62-.59.06-1.19.11-1.79.15-.58.03-1.17.05-1.76.05-.04,0-.08,0-.13,0-18.79,0-34.07-15.28-34.07-34.07s15.28-34.07,34.07-34.07c.05,0,.1,0,.16,0-.27-1.12-.51-2.24-.7-3.37-.29-1.72-.49-3.45-.58-5.17,0-.07,0-.14,0-.21-23.11.6-41.72,19.57-41.72,42.82s18.61,42.22,41.72,42.82Z"/>
        <path class="cls-4" d="M127.3,49.37c-.73.16-1.45.33-2.17.53h0c.72-.19,1.44-.37,2.17-.53Z"/>
        <path class="cls-4" d="M48.96,53.01c.05.31.12.62.18.93.21,1.16.46,2.32.77,3.45.16.59.34,1.17.52,1.75.19.59.39,1.18.6,1.76,4.32,11.81,13.7,21.2,25.51,25.54-.22-1.36-.52-2.7-.92-4.01-.27-.9-.58-1.78-.93-2.65-.15-.37-.31-.74-.47-1.11-.74-1.64-1.62-3.2-2.62-4.67-3.14-2.23-5.88-4.97-8.11-8.11-.73-1.02-1.4-2.08-2.01-3.18-.46-.82-.88-1.66-1.27-2.52-.65-1.43-1.19-2.92-1.64-4.45-.18-.61-.35-1.22-.49-1.84-.02-.1-.04-.19-.06-.29-.27-1.22-.48-2.46-.62-3.72-.06-.59-.11-1.19-.15-1.79,0-.01,0-.03,0-.04-.03-.57-.05-1.15-.05-1.72,0-.04,0-.08,0-.13,0-1.76.13-3.49.39-5.18.26-1.69.64-3.34,1.14-4.94,2.33-7.46,7.16-13.83,13.5-18.12,1.36-.92,2.79-1.74,4.28-2.46,4.47-2.16,9.48-3.36,14.76-3.36s10.29,1.21,14.76,3.36c1.49.72,2.92,1.54,4.28,2.46,6.35,4.29,11.17,10.66,13.5,18.12.5,1.6.88,3.25,1.14,4.94.26,1.69.39,3.42.39,5.18,0,.05,0,.1,0,.16,1.12-.27,2.24-.51,3.37-.7,1.72-.29,3.45-.49,5.17-.58.07,0,.14,0,.21,0-.6-23.11-19.57-41.72-42.82-41.72s-42.22,18.61-42.82,41.72c0,.37-.03.75-.03,1.12,0,.19.01.37.01.56,0,.57.02,1.13.04,1.69.08,1.53.24,3.05.48,4.53Z"/>
        <path class="cls-2" d="M121.61,51.02c.27-.1.53-.2.81-.29"/>
        <path class="cls-6" d="M80.29,91.13s0,.08,0,.13c0,.05,0,.1,0,.16.19-.05.37-.09.56-.13.93-.22,1.87-.41,2.81-.57.06,0,.11-.02.17-.03.61-.1,1.23-.18,1.84-.25.01,0,.02,0,.03,0,.56-.07,1.12-.12,1.68-.17.48-.04.97-.09,1.45-.11.07,0,.14,0,.21,0-.01-.38-.01-.75-.03-1.13-.06-1.15-.18-2.28-.33-3.4-.09-.69-.2-1.38-.33-2.07-.21-1.16-.46-2.32-.77-3.45-.16-.59-.34-1.17-.52-1.75-.19-.59-.39-1.18-.6-1.76-4.32-11.81-13.7-21.2-25.51-25.54.22,1.36.52,2.7.92,4.01.27.9.58,1.78.93,2.65.15.37.31.74.47,1.11.74,1.64,1.62,3.2,2.62,4.67,3.14,2.23,5.88,4.97,8.11,8.11.73,1.02,1.4,2.08,2.01,3.18.46.82.88,1.66,1.27,2.52.65,1.43,1.19,2.92,1.64,4.45.21.7.39,1.41.55,2.13.27,1.22.48,2.46.62,3.72.06.59.11,1.19.15,1.79.03.58.05,1.17.05,1.76Z"/>
        <path class="cls-2" d="M125.28,48.13s0-.04,0-.05"/>
        <path class="cls-2" d="M125.13,49.9c.06-.59.11-1.18.15-1.77"/>
        <path class="cls-2" d="M57.24,48.11s0-.03,0-.04"/>
        <path class="cls-2" d="M58.01,53.62c.02.1.04.2.06.29"/>
        <path class="cls-4" d="M105.23,77.28c-1.43.65-2.92,1.19-4.45,1.64-.7.21-1.41.39-2.13.55-1.22.27-2.46.48-3.72.62-.59.06-1.19.11-1.79.15-.58.03-1.17.05-1.76.05-.04,0-.08,0-.13,0-.05,0-.1,0-.16,0,.05.19.09.37.14.56.22.93.41,1.87.57,2.81,0,.06.02.11.03.17.1.61.18,1.23.25,1.84,0,.01,0,.02,0,.03.07.56.12,1.12.17,1.68.04.48.09.97.11,1.45,0,.07,0,.14,0,.2.38-.01.75-.01,1.13-.03,1.15-.06,2.28-.18,3.4-.33.69-.09,1.38-.2,2.07-.33,1.16-.21,2.32-.46,3.45-.77.59-.16,1.17-.34,1.75-.52.59-.19,1.18-.39,1.76-.6,11.81-4.32,21.2-13.7,25.54-25.51-1.36.22-2.7.52-4.01.92-.9.27-1.78.58-2.65.93-.37.15-.74.31-1.11.47-1.64.74-3.2,1.62-4.67,2.62-2.23,3.14-4.97,5.88-8.11,8.11-1.02.73-2.08,1.4-3.18,2.01-.82.46-1.66.88-2.52,1.27Z"/>
        <path class="cls-7" d="M77.28,105.23c1.43-.65,2.92-1.19,4.45-1.64.7-.21,1.41-.39,2.13-.55,1.22-.27,2.46-.48,3.72-.62.59-.06,1.19-.11,1.79-.15.58-.03,1.17-.05,1.76-.05.04,0,.08,0,.13,0,.05,0,.1,0,.16,0-.05-.19-.09-.37-.14-.56-.22-.93-.41-1.87-.57-2.81,0-.06-.02-.11-.03-.17-.1-.61-.18-1.23-.25-1.84,0-.01,0-.02,0-.03-.07-.56-.12-1.12-.17-1.68-.04-.48-.09-.97-.11-1.45,0-.07,0-.14,0-.2-.38.01-.75.01-1.13.03-1.15.06-2.28.18-3.4.33-.69.09-1.38.2-2.07.33-1.16.21-2.32.46-3.45.77-.59.16-1.17.34-1.75.52-.59.19-1.18.39-1.76.6-11.81,4.32-21.2,13.7-25.54,25.51,1.36-.22,2.7-.52,4.01-.92.9-.27,1.78-.58,2.65-.93.37-.15.74-.31,1.11-.47,1.64-.74,3.2-1.62,4.67-2.62,2.23-3.14,4.97-5.88,8.11-8.11,1.02-.73,2.08-1.4,3.18-2.01.82-.46,1.66-.88,2.52-1.27Z"/>
        <path class="cls-7" d="M133.39,128.58c-.21-1.16-.46-2.32-.77-3.45-.16-.59-.34-1.17-.52-1.75-.19-.59-.39-1.18-.6-1.76-4.32-11.81-13.7-21.2-25.51-25.54.22,1.36.52,2.7.92,4.01.27.9.58,1.78.93,2.65.15.37.31.74.47,1.11.74,1.64,1.62,3.2,2.62,4.67,3.14,2.23,5.88,4.97,8.11,8.11.73,1.02,1.4,2.08,2.01,3.18.46.82.88,1.66,1.27,2.52.65,1.43,1.19,2.92,1.64,4.45.21.7.39,1.41.55,2.13.27,1.22.48,2.46.62,3.72.06.59.11,1.19.15,1.79.03.58.05,1.17.05,1.76,0,.04,0,.08,0,.13,0,18.79-15.28,34.07-34.07,34.07s-34.07-15.29-34.07-34.07c0-.05,0-.1,0-.16-1.12.27-2.24.51-3.37.7-1.72.29-3.45.49-5.17.58-.07,0-.14,0-.21,0,.6,23.11,19.57,41.72,42.82,41.72s42.22-18.61,42.82-41.72c.01-.37.03-.75.03-1.12,0-.19-.01-.37-.01-.56,0-.57-.02-1.13-.04-1.69-.1-1.86-.33-3.68-.66-5.47Z"/>
        <path class="cls-3" d="M102.23,91.39s0-.08,0-.13c0-.05,0-.1,0-.16-.19.05-.37.09-.56.13-.93.22-1.87.41-2.81.57-.06,0-.11.02-.17.03-.61.1-1.23.18-1.84.25-.01,0-.02,0-.03,0-.56.07-1.12.12-1.68.17-.48.04-.97.09-1.45.11-.07,0-.14,0-.21,0,.01.38.01.75.03,1.13.06,1.15.18,2.28.33,3.4.09.69.2,1.38.33,2.07.21,1.16.46,2.32.77,3.45.16.59.34,1.17.52,1.75.19.59.39,1.18.6,1.76,4.32,11.81,13.7,21.2,25.51,25.54-.22-1.36-.52-2.7-.92-4.01-.27-.9-.58-1.78-.93-2.65-.15-.37-.31-.74-.47-1.11-.74-1.64-1.62-3.2-2.62-4.67-3.14-2.23-5.88-4.97-8.11-8.11-.73-1.02-1.4-2.08-2.01-3.18-.46-.82-.88-1.66-1.27-2.52-.65-1.43-1.19-2.92-1.64-4.45-.21-.7-.39-1.41-.55-2.13-.27-1.22-.48-2.46-.62-3.72-.06-.59-.11-1.19-.15-1.79-.03-.58-.05-1.17-.05-1.76Z"/>
      </g>
      <g>
        <g>
          <polygon points="199.76 108.41 208.36 108.41 208.36 93.05 228.23 93.05 228.23 85.4 208.36 85.4 208.36 77.03 233.65 77.03 233.65 69.32 199.76 69.32 199.76 108.41"/>
          <polygon points="245.25 92.66 264.68 92.66 264.68 85.01 245.25 85.01 245.25 77.03 270.82 77.03 270.82 69.32 236.65 69.32 236.65 108.41 271.05 108.41 271.05 100.7 245.25 100.7 245.25 92.66"/>
          <g>
            <rect class="cls-1" x="282.65" y="77.31" width="21.27" height="23.12"/>
            <path d="M274.05,69.32v39.08h32.61l5.86-5.86v-27.36l-5.86-5.86h-32.61ZM303.92,100.42h-21.27v-23.12h21.27v23.12Z"/>
          </g>
          <polygon points="324.12 92.66 343.55 92.66 343.55 85.01 324.12 85.01 324.12 77.03 349.69 77.03 349.69 69.32 315.52 69.32 315.52 108.41 349.92 108.41 349.92 100.7 324.12 100.7 324.12 92.66"/>
          <g>
            <rect class="cls-1" x="361.52" y="77.08" width="19.26" height="9.32"/>
            <path d="M383.52,94.17l5.86-5.86v-13.12l-5.86-5.86h-30.6v39.08h8.6v-14.24h12.84l7.43,14.24h9.1l-7.48-14.24h.11ZM380.78,86.41h-19.26v-9.32h19.26v9.32Z"/>
          </g>
          <g>
            <polygon class="cls-1" points="409.8 93.89 424.1 93.89 416.95 78.53 409.8 93.89"/>
            <path d="M413.04,69.32l-19.15,39.08h9.16l3.18-6.81h21.44l3.18,6.81h9.38l-19.09-39.08h-8.1ZM409.8,93.89l7.15-15.36,7.15,15.36h-14.29Z"/>
          </g>
          <polygon points="429.23 77.31 443.92 77.31 443.92 108.41 452.51 108.41 452.51 77.31 467.14 77.31 467.14 69.32 429.23 69.32 429.23 77.31"/>
          <rect x="470.14" y="69.32" width="8.6" height="39.08"/>
          <g>
            <rect class="cls-1" x="490.34" y="77.31" width="21.66" height="23.12"/>
            <path d="M487.61,69.32l-5.86,5.86v27.36l5.86,5.86h27.14l5.86-5.86v-27.36l-5.86-5.86h-27.14ZM512.01,100.42h-21.66v-23.12h21.66v23.12Z"/>
          </g>
          <polygon points="553.64 69.32 553.64 95.29 531.64 69.32 523.6 69.32 523.6 108.41 531.81 108.41 531.81 82.39 553.92 108.41 561.85 108.41 561.85 69.32 553.64 69.32"/>
        </g>
        <g>
          <polygon class="cls-1" points="253.38 34.8 253.38 34.8 253.38 34.8 253.38 34.8"/>
          <polygon class="cls-1" points="254.19 31.51 254.19 31.51 254.19 31.51 254.19 31.51"/>
          <polygon class="cls-1" points="253.39 33.95 253.39 33.95 253.39 33.95 253.39 33.95"/>
          <path class="cls-1" d="M242.81,44.59h14.46v-14.62h-14.46v14.62ZM243.51,41.26s.02.06.03.09c.17.11.32.2.49.29-.14-.25-.17-.52-.16-.71-.1-.18-.03-.32.02-.36.05-.05.13-.06.2-.03.1.05.2.18.19.34,0,.07-.03.12-.07.16,0,.07,0,.14.01.21,0,.11.01.13.02.2h0s0,0,0,0c.02.09.04.23.1.34l.52.21c-.17-.23-.24-.51-.24-.72-.11-.17-.07-.31-.02-.37.05-.06.12-.08.2-.06.1.03.21.15.22.31,0,.07-.01.13-.05.18.01.07.02.14.03.21q.02.1.04.2h0c.03.1.07.24.13.34l.55.13c-.19-.21-.29-.49-.32-.7-.13-.16-.1-.32-.05-.39.05-.06.12-.09.2-.07.12.03.21.15.24.28.02.11-.02.17-.04.2.02.06.04.12.06.2.04.13.04.14.06.2h0c.05.14.1.25.17.33l.57.05c-.05-.05-.1-.1-.15-.16-.09-.11-.2-.34-.25-.53-.14-.14-.13-.31-.08-.39.04-.07.11-.11.2-.09.12.02.22.12.26.25.03.1,0,.17-.01.2.03.07.05.14.08.21q.04.1.08.2h0c.05.09.11.22.2.32h.02s.01.03.01.03v-.03s.01.04.01.04v-.04s.01.04.01.04v-.04s.01,0,.01,0l.02.04v-.04s.01.04.01.04v-.04s.02.04.02.04v-.04s.02.04.02.04v-.04s.01.04.01.04v-.04s.02.04.02.04h0s-.01-.04-.01-.04h.01s0,0,0,0h.01s.06,0,.06,0h0c.12,0,.24,0,.35-.02-.24-.16-.4-.43-.47-.64-.16-.12-.17-.3-.13-.39.04-.08.1-.13.19-.12.12,0,.23.09.28.22.04.1.02.18,0,.21.03.06.06.12.1.19.01.03.04.08.1.19h0c.08.14.16.24.23.3.2-.03.39-.06.59-.11-.07-.03-.13-.08-.19-.13-.1-.08-.27-.29-.36-.48-.17-.1-.19-.28-.16-.37.03-.09.1-.14.18-.15.12,0,.24.07.3.19.05.1.04.17.03.21.04.06.08.13.12.19.06.1.08.12.12.18h0c.09.13.17.22.26.27.2-.05.39-.12.58-.19-.28-.1-.49-.34-.61-.55-.18-.08-.22-.26-.2-.36.02-.09.08-.16.17-.18.11-.02.24.04.31.16.06.09.05.17.05.21.05.06.1.12.14.18.02.03.07.08.14.16h0c.1.12.2.2.29.25.19-.08.38-.17.57-.27-.28-.07-.53-.29-.66-.48-.2-.06-.26-.23-.25-.34,0-.1.07-.18.16-.2.11-.03.24.01.33.12.07.09.07.17.07.21.06.06.11.12.16.17.08.08.1.11.16.15h0c.11.11.21.18.31.22.18-.11.37-.23.54-.35-.29-.04-.56-.23-.72-.41-.2-.04-.28-.21-.28-.31,0-.1.05-.19.14-.23.11-.05.24-.01.34.08.08.08.09.16.09.2.06.05.12.1.18.15q.09.07.17.14h0c.1.07.22.14.33.18.17-.13.35-.28.51-.43-.3,0-.59-.16-.76-.33-.2-.01-.3-.17-.31-.28-.01-.11.03-.2.12-.25.1-.06.24-.04.34.05.09.07.11.16.11.2.06.04.12.08.19.12.03.02.07.05.18.12h0c.13.08.25.13.35.15.16-.16.32-.34.47-.51-.33.04-.64-.11-.81-.23,0,0,0,0-.01,0-.19,0-.29-.15-.32-.25-.02-.11.01-.21.1-.27.1-.07.23-.07.34,0,.09.06.12.14.13.18.07.04.14.08.21.11q.09.05.2.1h0c.14.06.26.09.36.1.03-.04.06-.07.09-.11h0c.04-.06.09-.12.13-.18-.03-.08-.1-.18-.2-.31h0q-.07-.08-.16-.16c-.05-.05-.11-.1-.17-.16,0,0,0,0-.01,0-.18,0-.28-.13-.31-.21-.04-.11-.02-.22.06-.29.09-.08.22-.09.33-.04.09.04.15.12.18.22.17.12.41.36.47.67.13-.19.25-.39.36-.59-.04-.08-.12-.18-.24-.28h0s-.07-.06-.17-.15c-.06-.04-.13-.09-.19-.14-.18.02-.3-.1-.34-.17-.05-.1-.04-.21.03-.29.08-.09.2-.12.32-.07.1.03.16.1.2.19.19.11.45.33.54.61.1-.2.19-.41.27-.62-.05-.08-.14-.16-.27-.26h0c-.1-.08-.15-.1-.18-.12-.07-.05-.14-.09-.19-.12-.2.05-.33-.08-.38-.16-.05-.09-.05-.2.01-.27.07-.09.18-.13.3-.1.1.02.17.08.22.17.19.09.48.27.61.55.07-.21.14-.42.19-.63-.06-.08-.16-.15-.3-.23q-.1-.05-.2-.1c-.07-.03-.14-.06-.21-.1-.18.06-.33-.05-.38-.12-.06-.09-.07-.19-.02-.27.05-.09.17-.14.29-.13.1.01.18.06.24.15.21.07.51.23.67.48.05-.21.08-.42.11-.63-.07-.07-.18-.13-.32-.2-.09-.04-.19-.07-.21-.08-.08-.03-.15-.05-.21-.08-.18.09-.34-.01-.4-.08-.07-.08-.09-.18-.05-.27.04-.1.15-.15.27-.15.1,0,.18.04.25.12.2.05.52.16.71.41.02-.21.03-.42.03-.63-.08-.05-.18-.11-.34-.16h0c-.1-.03-.11-.03-.21-.06-.07-.01-.15-.03-.23-.05-.16.1-.33.02-.39-.04-.08-.07-.11-.17-.08-.26.03-.1.13-.16.24-.17.1,0,.19.02.26.09.22.03.54.12.75.33,0-.21-.02-.41-.04-.62-.09-.05-.2-.09-.35-.13h0s0,0,0,0c-.07-.02-.09-.02-.21-.04-.07,0-.15-.02-.23-.03-.15.11-.32.05-.39,0-.09-.06-.13-.16-.11-.25.02-.1.11-.17.22-.19.1-.02.19,0,.27.07.21,0,.54.06.77.25-.02-.13-.05-.27-.07-.4l.04-.02h-.04s0,0,0,0l-.04-.19c-.09-.04-.21-.07-.37-.09h0c-.08,0-.09,0-.21-.02-.08,0-.16,0-.22-.01-.13.13-.31.09-.39.05-.1-.05-.15-.14-.14-.24,0-.1.08-.18.19-.21.09-.03.19-.01.28.04.2-.01.52,0,.78.16l-.18-.54v-.03c-.1-.03-.21-.05-.38-.05h0c-.06,0-.07,0-.22,0-.07,0-.15.01-.23.02-.11.13-.29.11-.37.08-.11-.04-.17-.13-.17-.22,0-.09.06-.18.16-.22.09-.04.18-.03.28.01.17-.03.5-.05.79.08l-.25-.5-.02-.03s-.17-.03-.37-.01h0s0,0,0,0c-.08,0-.08,0-.21.03-.08.01-.15.02-.21.03-.06.09-.16.13-.26.13-.04,0-.08,0-.12-.02-.1-.04-.17-.11-.18-.2,0-.08.04-.15.11-.2h1.76c-.07.05-.13.1-.17.15l.29.58c.12-.25.4-.37.52-.41.01-.04.04-.1.12-.12.1-.03.3.01.41.22,0,.02.02.04.02.06.03.1,0,.18-.06.23-.04.03-.08.04-.13.04s-.1-.02-.15-.04c-.06.02-.12.05-.18.07-.12.05-.13.05-.17.07h0c-.1.06-.19.11-.25.17l.21.61c.16-.25.45-.34.58-.37.02-.04.05-.09.14-.11.11-.03.3.04.38.26,0,.02,0,.02,0,.03.02.11,0,.21-.08.26-.03.02-.07.03-.12.03-.06,0-.12-.02-.18-.06-.05.02-.11.03-.18.06-.09.03-.1.03-.18.05h0c-.12.05-.22.1-.28.15h0s-.01,0-.01,0c0,0,0,0-.01.01h0s-.01,0-.01,0h0s.04,0,.04,0l-.04.02h.04s.01.04.01.04l-.04.02h.04s0,.01,0,.01l-.04.03h.04s0,.02,0,.02l-.04.02h.04s0,.03,0,.03c.03.14.06.28.08.43.16-.2.41-.3.64-.33.02-.03.07-.09.16-.1.12-.02.3.07.35.3v.03c.01.11-.03.21-.12.25-.03.02-.06.02-.1.02-.06,0-.13-.03-.19-.07-.06.01-.13.02-.2.04-.1.02-.14.03-.19.04h0s0,0,0,0c-.13.03-.23.07-.3.12.02.22.04.44.05.66.22-.22.55-.26.68-.27.03-.03.08-.09.17-.09.12,0,.3.09.32.33h0s0,.03,0,.03c0,.12-.07.21-.16.24-.03,0-.05.01-.08.01-.07,0-.14-.03-.2-.09-.07,0-.14.01-.21.02q-.09,0-.2.03h0s0,0,0,0c-.14.03-.25.06-.32.1,0,.22-.01.45-.04.67.25-.2.58-.21.72-.21.03-.03.09-.08.18-.08.07,0,.14.04.19.09.04.05.1.13.09.27h0s0,.03,0,.03c-.02.12-.09.21-.2.23-.02,0-.04,0-.06,0-.08,0-.15-.04-.21-.12-.06,0-.12,0-.21,0,0,0-.11,0-.21,0h0s0,0,0,0c-.13.01-.25.03-.33.07-.03.22-.07.45-.12.67.28-.18.6-.16.76-.14.03-.03.1-.07.19-.06.07,0,.13.05.18.11.04.05.08.14.06.28-.03.14-.12.23-.23.25-.01,0-.02,0-.04,0-.08,0-.16-.05-.22-.13-.07,0-.14-.01-.22-.02q-.09,0-.21-.01h-.01c-.14,0-.26.01-.35.04-.06.22-.13.45-.2.66.3-.15.64-.11.78-.08.04-.02.11-.06.2-.04.07.01.13.06.17.12.03.06.07.15.03.29-.05.14-.16.23-.27.23,0,0,0,0,0,0-.09,0-.18-.06-.23-.16-.06,0-.13-.02-.21-.03-.03,0-.07-.01-.2-.03h0c-.15-.02-.27-.02-.36,0-.09.22-.18.44-.29.65.32-.12.65-.05.8,0,.04-.02.12-.05.21-.03.07.02.12.07.16.14.03.06.05.16,0,.29-.07.13-.18.21-.29.21,0,0-.01,0-.02,0-.09,0-.17-.07-.21-.17-.06-.01-.13-.03-.21-.06-.11-.03-.15-.04-.21-.05h0c-.15-.03-.27-.04-.36-.03-.11.21-.24.42-.37.62.35-.09.68.02.81.07.04-.02.13-.04.21,0,.06.03.12.08.14.15.02.06.03.16-.04.3-.08.11-.19.18-.29.18-.02,0-.03,0-.05,0-.09-.02-.16-.09-.19-.19-.06-.02-.13-.05-.21-.08q-.09-.03-.2-.07h0c-.16-.04-.28-.06-.37-.06h0c-.04.05-.07.1-.11.15h0s-.03.03-.03.03c0,0,0,0,0,0l-.02.03h0s-.04.06-.06.08c.03.1.09.2.17.32h0q.08.11.13.17s.1.1.14.16c.04,0,.1,0,.16.03.06.03.1.1.11.17.01.06,0,.16-.09.28-.02.02-.03.04-.05.05-.07.06-.15.08-.23.08-.05,0-.09-.01-.13-.03-.09-.05-.13-.14-.12-.25-.15-.17-.27-.43-.27-.43-.02-.07-.05-.17-.05-.29-.04.05-.08.09-.12.14h0s0,0,0,0c-.12.13-.24.26-.37.39.02.09.07.2.14.33h0c.07.12.09.15.11.18.04.07.08.12.12.17.04,0,.1,0,.17.05.06.04.09.11.1.18,0,.06-.01.16-.12.26-.02.01-.04.03-.05.04-.06.04-.13.06-.2.06s-.12-.02-.17-.05c-.08-.06-.11-.14-.09-.25-.13-.17-.22-.43-.23-.47-.02-.09-.02-.17-.02-.26-.04.04-.08.08-.12.11h.03s-.04,0-.04,0c-.13.11-.26.22-.4.33.01.09.05.19.11.33h0q.05.11.1.19c.04.06.07.12.11.18.04,0,.1.02.15.07.05.05.08.12.08.19,0,.06-.03.15-.14.23-.02.01-.04.03-.06.03-.05.02-.1.03-.16.03-.08,0-.16-.03-.21-.07-.07-.06-.09-.15-.06-.24-.11-.18-.18-.44-.18-.48,0-.09,0-.17,0-.25-.19.13-.38.26-.57.37,0,.09.03.2.08.33.02.05.03.09.08.19.03.06.06.12.09.18.04,0,.1.03.14.08.05.05.07.12.06.19,0,.06-.04.14-.16.21-.02,0-.04.02-.06.02-.04.01-.08.02-.12.02-.1,0-.19-.04-.25-.11-.06-.07-.07-.15-.03-.23-.1-.19-.14-.44-.14-.47,0-.09.01-.18.03-.26-.2.11-.4.2-.6.29,0,.08,0,.19.04.32h0s0,.01,0,.01c.03.1.05.16.06.18.03.06.05.13.07.19.03.01.09.04.13.09.05.06.06.13.05.19-.01.05-.06.13-.18.18h-.03s-.07.02-.1.02c-.11,0-.22-.05-.28-.13-.05-.07-.06-.15-.02-.23-.07-.18-.09-.43-.09-.51,0-.07.02-.14.05-.2-.2.08-.41.15-.62.21-.01.08-.01.18.01.31.01.06.02.09.04.19.02.06.04.12.05.19.03.02.09.05.12.11.04.06.05.13.03.19-.02.05-.07.12-.2.15h-.03s-.03,0-.05,0c-.13,0-.26-.07-.32-.17-.04-.07-.03-.15.01-.22-.06-.18-.06-.41-.04-.5.01-.07.04-.13.07-.19-.21.05-.42.09-.63.12-.02.08-.03.18-.02.3h0s0,.01,0,.01c.01.11.02.14.02.17.01.07.02.13.03.18.03.02.09.06.12.12.03.06.04.13,0,.19-.02.05-.08.1-.21.12h-.01s-.01,0-.02,0h0c-.15,0-.31-.09-.35-.21-.03-.07-.01-.14.04-.2-.04-.18-.02-.4,0-.48.02-.06.05-.12.08-.17-.13.01-.26.02-.38.03h0s-.06,0-.06,0h-.03s0,0,0,0h-.07s-.01-.04-.01-.04v.04s-.07,0-.07,0h0s-.04.13-.05.28h0c0,.1,0,.1,0,.18,0,.06.01.12.02.18.03.02.07.06.1.13.03.06.02.13,0,.18-.03.04-.08.09-.2.09,0,0,0,0-.01,0h-.01s-.01,0-.02,0c-.16-.02-.3-.13-.33-.26-.02-.07,0-.13.05-.17-.03-.16,0-.39.12-.56.01-.02.03-.03.04-.04l-.56-.04h-.08s-.05.13-.07.24h0s0,0,0,0c0,.04,0,.05,0,.17,0,.07,0,.12,0,.17.03.02.07.07.09.14.02.06.01.13-.02.17-.02.03-.07.06-.16.06-.02,0-.04,0-.07,0-.02,0-.04-.01-.06-.02-.15-.05-.27-.18-.27-.3,0-.06.02-.1.07-.13,0-.16.03-.37.17-.52.01-.01.03-.02.04-.04l-.55-.12-.06-.02c-.04.06-.07.14-.09.23h0c-.01.09-.02.09-.02.16,0,.05,0,.11-.02.16.02.03.06.08.07.14.02.06,0,.12-.04.16-.02.02-.06.04-.11.04-.03,0-.07,0-.12-.02-.02,0-.04-.02-.06-.03-.15-.08-.25-.22-.24-.33,0-.05.03-.09.08-.11,0-.08.02-.17.06-.25.04-.1.11-.18.19-.23l-.53-.2-.06-.03s-.07.12-.1.2h0s-.02.05-.04.15c0,.05-.02.1-.03.15.02.03.05.08.06.14.01.06,0,.12-.05.14-.02.01-.04.02-.08.02s-.09-.01-.15-.04c-.03-.02-.06-.04-.1-.07-.12-.11-.18-.24-.15-.34.01-.04.04-.07.09-.08.01-.08.04-.16.08-.23.05-.08.12-.14.2-.18-.19-.1-.35-.19-.52-.31v-.41Z"/>
          <polygon class="cls-1" points="290.09 23.56 288.3 23.56 289.2 25.41 290.09 23.56"/>
          <polygon class="cls-1" points="246.98 42.4 246.98 42.4 246.98 42.41 246.98 42.4"/>
          <polygon class="cls-1" points="251.13 41 251.13 41 251.13 41 251.13 41"/>
          <polygon class="cls-1" points="286.9 25.86 287.94 28.02 288.98 25.86 287.94 23.71 286.9 25.86"/>
          <polygon class="cls-1" points="287.57 23.56 285.79 23.56 286.68 25.41 287.57 23.56"/>
          <polygon class="cls-1" points="277.51 23.56 275.73 23.56 276.62 25.41 277.51 23.56"/>
          <polygon class="cls-1" points="280.03 23.56 278.25 23.56 279.14 25.41 280.03 23.56"/>
          <polygon class="cls-1" points="254.56 32.64 254.56 32.64 254.56 32.64 254.56 32.64"/>
          <polygon class="cls-1" points="254.59 32.75 254.59 32.75 254.59 32.75 254.59 32.75"/>
          <polygon class="cls-1" points="285.06 23.56 283.28 23.56 284.17 25.41 285.06 23.56"/>
          <polygon class="cls-1" points="282.54 23.56 280.76 23.56 281.65 25.41 282.54 23.56"/>
          <polygon class="cls-1" points="243.87 42.68 243.87 42.68 243.86 42.68 243.87 42.68"/>
          <polygon class="cls-1" points="279.14 26.32 278.1 28.48 279.14 30.63 280.18 28.48 279.14 26.32"/>
          <polygon class="cls-1" points="285.43 28.02 286.46 25.87 285.42 23.71 284.39 25.86 285.43 28.02"/>
          <polygon class="cls-1" points="280.4 28.02 281.43 25.87 280.39 23.71 279.36 25.86 280.4 28.02"/>
          <polygon class="cls-1" points="282.91 28.02 283.95 25.86 282.91 23.71 281.87 25.86 282.91 28.02"/>
          <polygon class="cls-1" points="277.88 23.71 276.84 25.86 277.88 28.02 278.92 25.86 277.88 23.71"/>
          <polygon class="cls-1" points="283.14 33.7 284.18 35.85 285.22 33.7 284.18 31.54 283.14 33.7"/>
          <polygon class="cls-1" points="285.65 28.48 286.69 30.63 287.72 28.48 286.68 26.32 285.65 28.48"/>
          <polygon class="cls-1" points="281.89 36.31 282.93 38.47 283.96 36.31 282.92 34.15 281.89 36.31"/>
          <polygon class="cls-1" points="284.39 31.09 285.43 33.24 286.47 31.09 285.43 28.93 284.39 31.09"/>
          <polygon class="cls-1" points="284.17 30.63 285.21 28.48 284.17 26.32 283.13 28.48 284.17 30.63"/>
          <polygon class="cls-1" points="281.66 31.54 280.62 33.7 281.67 35.85 282.7 33.7 281.66 31.54"/>
          <polygon class="cls-1" points="281.88 31.09 282.92 33.24 283.96 31.09 282.91 28.93 281.88 31.09"/>
          <polygon class="cls-1" points="281.66 30.63 282.7 28.48 281.65 26.32 280.62 28.48 281.66 30.63"/>
          <polygon class="cls-1" points="280.4 28.93 279.36 31.09 280.41 33.24 281.44 31.09 280.4 28.93"/>
          <polygon class="cls-4" points="216.82 30.67 217.64 30.67 217.64 29.9 218.91 29.9 218.91 29.08 217.64 29.08 217.64 28.05 218.91 28.05 218.91 27.23 217.64 27.23 217.64 26.21 218.91 26.21 218.91 25.39 217.64 25.39 217.64 24.37 218.91 24.37 218.91 23.55 217.64 23.55 217.64 22.77 216.82 22.77 216.82 23.55 215.55 23.55 215.55 24.37 216.82 24.37 216.82 25.39 215.55 25.39 215.55 26.21 216.82 26.21 216.82 27.23 215.55 27.23 215.55 28.05 216.82 28.05 216.82 29.08 215.55 29.08 215.55 29.9 216.82 29.9 216.82 30.67"/>
          <path class="cls-6" d="M243.84,42.16c-.04.07-.07.16-.08.23-.04.01-.07.04-.09.08-.03.09.03.23.15.34.04.04.07.05.1.07.06.03.11.04.15.04s.06-.01.08-.02c.04-.03.06-.08.05-.14,0-.06-.04-.11-.06-.14.01-.05.02-.1.03-.15.02-.1.03-.11.04-.14h0c.03-.08.07-.15.1-.2l.06.03.53.2c-.08.05-.15.13-.19.23-.04.08-.05.17-.06.25-.05.02-.08.06-.08.11-.01.11.09.26.24.33.02,0,.04.02.06.03.05.02.08.02.12.02.06,0,.09-.02.11-.04.04-.04.05-.09.04-.16-.02-.06-.05-.11-.07-.14,0-.05.01-.11.02-.16,0-.07,0-.07.02-.16h0c.02-.09.05-.18.09-.23l.06.02.55.12s-.03.02-.04.04c-.14.15-.18.36-.17.52-.05.03-.07.08-.07.13,0,.12.12.25.27.3.02,0,.04.01.06.02.03,0,.05,0,.07,0,.08,0,.13-.03.16-.06.04-.04.04-.11.02-.17-.02-.07-.07-.11-.09-.14,0-.05,0-.1,0-.17,0-.12,0-.13,0-.17h0s0,0,0,0c.01-.11.03-.19.07-.25h.08s.56.05.56.05c-.01.01-.03.03-.04.04-.13.18-.15.4-.12.56-.05.05-.07.11-.05.17.03.12.18.24.33.26,0,0,.01,0,.02,0h.01s0,0,.01,0c.12,0,.18-.05.2-.09.03-.05.04-.12,0-.18-.03-.06-.07-.1-.1-.13,0-.06,0-.12-.02-.18,0-.07,0-.08,0-.18h0c0-.15.02-.23.05-.29h0s.07.01.07.01v-.04s.01.04.01.04h.07s0,0,0,0h.03s.06,0,.06,0h0c.13,0,.26-.02.38-.03-.03.05-.06.11-.08.17-.03.08-.05.3,0,.48-.05.06-.06.13-.04.2.05.12.2.21.35.21h0s.01,0,.02,0h.01c.13-.02.18-.07.21-.12.03-.06.03-.12,0-.19-.04-.06-.09-.1-.12-.12,0-.05-.02-.11-.03-.18,0-.03-.01-.06-.02-.17h0s0-.01,0-.01c-.01-.12,0-.22.02-.3.21-.03.42-.07.63-.12-.03.06-.05.12-.07.19-.02.09-.02.31.04.5-.05.07-.05.15-.01.22.06.1.19.17.32.17.02,0,.03,0,.05,0h.03c.13-.04.18-.11.2-.16.02-.06.01-.13-.03-.19-.04-.06-.09-.09-.12-.11-.01-.06-.03-.13-.05-.19-.02-.1-.03-.13-.04-.19-.02-.13-.03-.23-.01-.31.21-.06.42-.13.62-.21-.02.06-.04.13-.05.2,0,.08.01.33.09.51-.04.08-.04.16.02.23.06.08.17.13.28.13.03,0,.07,0,.1-.01h.03c.12-.06.17-.13.18-.19.02-.06,0-.13-.05-.19-.04-.05-.1-.08-.13-.09-.02-.06-.05-.13-.07-.19,0-.02-.03-.07-.06-.18h0s0-.01,0-.01c-.04-.13-.05-.24-.04-.32.2-.09.4-.18.6-.29-.02.08-.03.16-.03.26,0,.03.04.28.14.47-.03.08-.02.17.03.23.06.07.15.11.25.11.04,0,.08,0,.12-.02.02,0,.04-.02.06-.02.12-.07.15-.15.16-.21,0-.07-.01-.14-.06-.19-.05-.05-.11-.07-.14-.08-.03-.06-.06-.12-.09-.18-.05-.1-.06-.13-.08-.19-.05-.13-.07-.24-.08-.33.2-.11.39-.24.57-.37-.01.08-.02.17,0,.25,0,.04.07.3.18.48-.03.09,0,.18.06.24.05.05.13.07.21.07.05,0,.11-.01.16-.03.02,0,.04-.02.06-.03.11-.08.14-.17.14-.23,0-.07-.03-.14-.08-.19-.05-.05-.11-.06-.15-.07-.03-.06-.07-.12-.11-.18q-.04-.08-.1-.18h0c-.06-.14-.1-.25-.11-.33.14-.11.27-.22.4-.33h.04s-.03,0-.03,0c.04-.04.08-.08.12-.11,0,.08,0,.17.02.26,0,.04.1.3.23.47-.02.1.01.19.09.25.05.03.11.05.17.05.07,0,.13-.02.2-.06.02-.01.04-.03.05-.04.1-.1.12-.19.12-.26,0-.07-.04-.14-.1-.18-.06-.04-.13-.05-.17-.05-.03-.05-.07-.11-.12-.17-.02-.03-.04-.05-.11-.17h0c-.08-.14-.12-.25-.14-.34.13-.13.25-.26.37-.39h0s0,0,0,0c.04-.05.08-.09.12-.14,0,.12.03.22.05.29,0,0,.12.26.27.43,0,.11.03.2.12.25.04.02.09.03.13.03.08,0,.16-.03.23-.08.02-.01.03-.03.05-.05.09-.12.1-.22.09-.28-.01-.07-.06-.13-.11-.17-.06-.04-.12-.04-.16-.03-.04-.06-.09-.11-.14-.16q-.05-.06-.13-.17h0c-.08-.12-.14-.23-.17-.32.02-.03.04-.06.06-.08h0s.02-.03.02-.03c0,0,0,0,0,0l.03-.03h0c.04-.05.07-.1.11-.15h0c.09,0,.21.02.37.06h0q.12.04.2.07c.07.03.14.06.21.08.03.1.1.17.19.19.02,0,.03,0,.05,0,.11,0,.21-.06.29-.18.08-.13.07-.23.04-.3-.02-.07-.08-.13-.14-.15-.09-.04-.17,0-.21,0-.12-.05-.45-.17-.81-.07.13-.2.26-.41.37-.62.09-.01.22,0,.36.03h0c.06.01.09.02.21.05.08.02.15.04.21.06.04.1.12.16.21.17,0,0,.01,0,.02,0,.11,0,.22-.08.29-.21.06-.14.04-.23,0-.29-.03-.07-.09-.12-.16-.14-.09-.03-.17,0-.21.03-.15-.05-.48-.12-.8,0,.1-.21.2-.43.29-.65.09-.02.22-.02.36,0h0c.13.02.17.02.2.03.08.01.15.03.21.03.05.1.14.16.23.16,0,0,0,0,0,0,.11,0,.22-.09.27-.23.04-.14,0-.24-.03-.29-.04-.06-.1-.11-.17-.12-.09-.02-.17.02-.2.04-.14-.03-.48-.08-.78.08.08-.22.14-.44.2-.66.09-.03.21-.04.35-.04h.01q.12,0,.21.01c.08,0,.15.02.22.02.06.08.14.13.22.13.01,0,.02,0,.04,0,.11-.02.2-.11.23-.25.02-.14-.02-.23-.06-.28-.05-.06-.11-.1-.18-.11-.09-.01-.16.03-.19.06-.15-.02-.48-.03-.76.14.05-.22.09-.45.12-.67.08-.04.2-.06.33-.07h0s0,0,0,0c.1,0,.2,0,.21,0,.08,0,.15,0,.21,0,.06.07.14.12.21.12.02,0,.04,0,.06,0,.1-.03.18-.11.2-.23,0,0,0-.02,0-.02h0c0-.15-.05-.24-.09-.29-.05-.05-.12-.09-.19-.09-.09,0-.15.05-.18.08-.14,0-.47,0-.72.21.02-.22.03-.45.04-.67.07-.04.18-.07.32-.1h0s0,0,0,0q.11-.02.2-.03c.07,0,.14,0,.21-.02.06.06.13.09.2.09.03,0,.05,0,.08-.01.09-.04.15-.13.16-.24,0,0,0-.01,0-.02h0c-.02-.25-.2-.35-.32-.35-.09,0-.14.06-.17.09-.14,0-.46.05-.68.27,0-.22-.02-.44-.05-.66.07-.05.17-.09.3-.12h0s0,0,0,0c.06-.02.09-.02.19-.04.07-.01.14-.02.2-.04.06.05.13.07.19.07.03,0,.07,0,.1-.02.08-.04.13-.14.12-.25v-.03c-.06-.23-.24-.32-.36-.3-.09.01-.13.07-.16.1-.23.03-.48.13-.64.33-.02-.15-.05-.3-.08-.43v-.04s-.05.01-.05.01h0l.04-.02v-.03s-.05,0-.05,0l.04-.03h0s-.04-.01-.04-.01l.04-.02v-.05s-.05.01-.05.01h0l.04-.02h-.04s0,0,0,0h.01s0,0,0,0c0,0,0,0,.01-.01h.01s0,0,0,0c.06-.05.16-.1.28-.15h0c.07-.03.09-.03.18-.06.07-.02.13-.04.18-.06.06.04.12.06.18.06.04,0,.08-.01.12-.03.08-.05.11-.15.08-.26,0,0,0-.02,0-.03-.08-.22-.27-.29-.38-.26-.09.02-.12.08-.14.11-.13.03-.42.13-.58.37l-.21-.61c.06-.06.15-.11.25-.17h0s.05-.03.17-.08c.06-.02.13-.04.18-.07.05.03.11.04.15.04s.09-.01.13-.04c.06-.05.09-.14.06-.23,0-.02-.01-.04-.02-.06-.11-.21-.3-.25-.41-.22-.08.03-.11.09-.12.12-.12.04-.39.16-.52.41l-.29-.58s.09-.1.17-.15h-1.76c-.07.05-.12.12-.11.2,0,.09.07.17.18.2.04.01.08.02.12.02.1,0,.21-.04.26-.13.06,0,.13-.02.21-.03.12-.02.12-.02.21-.03h0s0,0,0,0c.2-.02.33,0,.37.01l.02.03.25.5c-.29-.14-.61-.11-.79-.08-.1-.04-.19-.05-.28-.01-.1.04-.16.12-.16.22,0,.1.07.18.17.22.08.03.26.05.37-.08.07,0,.15-.01.23-.02.14,0,.15,0,.22,0h0c.17,0,.29.03.37.05v.03s.19.54.19.54c-.26-.16-.59-.18-.78-.16-.09-.05-.18-.07-.28-.04-.11.03-.18.11-.19.21,0,.09.05.19.14.24.08.04.26.08.39-.05.06,0,.14,0,.22.01.12,0,.13,0,.21.01h0c.16.02.28.05.37.09l.04.19h0s.04,0,.04,0l-.04.02c.03.13.05.26.07.4-.24-.19-.57-.24-.77-.25-.08-.06-.17-.08-.27-.07-.11.02-.2.09-.22.19-.02.09.02.19.11.25.07.05.24.11.39,0,.08.01.16.02.23.03.12.02.15.02.21.04h0s0,0,0,0c.15.03.26.07.35.13.02.2.04.41.04.62-.21-.21-.53-.3-.75-.33-.08-.07-.16-.1-.26-.09-.12,0-.21.08-.24.17-.03.09,0,.19.08.26.07.06.23.13.39.04.08.02.16.04.23.05.11.03.11.03.21.06h0c.16.06.27.11.34.17,0,.21-.01.42-.03.63-.19-.25-.51-.36-.71-.41-.07-.08-.15-.12-.25-.12-.12,0-.22.05-.27.15-.04.09-.02.19.05.27.06.07.22.16.4.08.06.02.13.05.21.08.02,0,.12.04.21.08.15.06.25.13.32.2-.03.21-.07.42-.11.63-.16-.25-.46-.41-.67-.48-.06-.08-.14-.13-.24-.15-.12-.02-.23.03-.29.13-.05.08-.04.19.02.27.05.07.2.18.38.12.07.04.15.07.21.1q.1.05.2.1c.14.08.24.15.3.23-.05.21-.12.42-.19.63-.13-.28-.42-.46-.61-.55-.05-.09-.12-.15-.22-.17-.12-.03-.24,0-.3.1-.06.08-.06.18-.01.27.04.08.18.21.38.16.06.04.12.08.19.12.03.02.07.04.18.12h0c.13.1.22.18.27.26-.08.21-.18.41-.27.62-.09-.28-.35-.5-.54-.61-.04-.1-.1-.16-.2-.19-.12-.04-.25-.02-.32.07-.07.08-.08.19-.03.29.04.08.15.2.34.17.06.05.13.1.19.14.11.08.12.1.17.14h0c.12.11.19.2.24.29-.11.2-.23.4-.36.59-.06-.31-.3-.54-.47-.67-.02-.1-.08-.17-.18-.22-.12-.05-.25-.04-.33.04-.08.07-.1.18-.06.29.03.08.13.21.31.21,0,0,0,0,.01,0,.06.06.12.11.17.16q.08.08.16.16h0c.11.14.17.23.2.31-.04.06-.09.12-.13.18h0s-.06.08-.09.11c-.1,0-.22-.04-.36-.1h0q-.11-.05-.2-.1c-.06-.04-.13-.08-.21-.11-.01-.04-.04-.12-.13-.18-.11-.07-.24-.07-.34,0-.09.06-.13.16-.1.27.02.1.13.25.32.25,0,0,0,0,.01,0,.17.12.48.27.81.23-.15.18-.31.35-.47.51-.1-.02-.22-.07-.35-.14h0c-.11-.07-.15-.1-.18-.12-.07-.05-.13-.09-.19-.12,0-.04-.02-.13-.11-.2-.1-.08-.24-.1-.34-.05-.09.05-.14.14-.12.25.01.11.11.27.31.28.18.16.46.33.76.33-.16.15-.34.29-.51.43-.12-.04-.23-.11-.33-.18h0q-.09-.07-.17-.14c-.05-.05-.11-.1-.18-.15,0-.04-.02-.12-.09-.2-.1-.1-.23-.13-.34-.08-.09.04-.14.12-.14.23,0,.11.08.28.28.31.16.18.42.37.72.41-.18.12-.36.24-.54.35-.09-.04-.2-.11-.31-.21h0c-.05-.05-.08-.08-.16-.16-.05-.05-.1-.11-.16-.17,0-.04,0-.12-.07-.21-.09-.11-.21-.16-.33-.12-.09.03-.15.1-.16.2,0,.1.05.28.25.34.14.19.38.41.66.48-.19.1-.38.19-.57.27-.09-.05-.19-.13-.29-.24h0c-.07-.09-.11-.14-.14-.17-.04-.06-.09-.12-.14-.18,0-.04,0-.12-.05-.21-.07-.12-.2-.18-.31-.16-.09.02-.15.08-.17.18-.02.1.02.28.2.36.12.2.33.44.61.55-.19.07-.39.14-.58.19-.08-.06-.17-.15-.26-.26h0c-.04-.07-.06-.09-.12-.19-.04-.06-.08-.13-.12-.19,0-.04.02-.11-.03-.21-.06-.12-.18-.2-.3-.19-.09,0-.16.06-.18.15-.03.09,0,.27.16.37.09.18.26.4.36.48.06.05.12.09.19.13-.19.04-.39.08-.59.11-.08-.07-.15-.17-.23-.3h0c-.06-.11-.08-.16-.1-.19-.04-.08-.07-.14-.1-.19.01-.03.04-.11,0-.21-.05-.13-.16-.22-.28-.22-.09,0-.16.04-.19.12-.04.09-.04.26.13.39.07.21.23.48.47.64-.12.01-.24.02-.35.02h0s-.06,0-.06,0h0s-.01,0-.01,0h0s0,0,0,0h-.01s.01.04.01.04h0s-.02-.04-.02-.04v.04s-.01-.04-.01-.04v.04s-.02-.04-.02-.04v.04s-.02-.04-.02-.04v.04s-.01-.04-.01-.04v.04s-.02-.04-.02-.04h-.01s0,.04,0,.04v-.04s-.01.04-.01.04v-.04s-.01.03-.01.03v-.03s-.03,0-.03,0c-.09-.09-.15-.22-.2-.31h0q-.04-.1-.08-.2c-.02-.07-.05-.14-.08-.21.02-.03.04-.1.01-.2-.04-.13-.14-.24-.26-.25-.08-.01-.15.02-.2.09-.05.08-.06.25.08.39.05.19.16.42.25.53.05.06.1.11.15.16l-.57-.05c-.06-.08-.12-.19-.17-.32h0c-.02-.07-.03-.08-.06-.21-.02-.08-.04-.14-.06-.2.02-.03.05-.09.04-.2-.02-.14-.12-.25-.24-.28-.08-.02-.15,0-.2.07-.06.07-.09.23.05.39.03.21.13.49.32.7l-.55-.13c-.07-.11-.11-.24-.13-.34h0q-.02-.11-.04-.21c-.01-.07-.02-.14-.03-.21.04-.05.06-.11.05-.18-.01-.16-.12-.28-.22-.31-.08-.02-.15,0-.2.06-.05.06-.09.2.02.37,0,.2.07.49.24.72l-.52-.21c-.06-.12-.08-.25-.1-.34h0s0,0,0,0c-.01-.06-.01-.08-.02-.2,0-.07,0-.14-.01-.21.04-.04.07-.09.07-.16,0-.16-.09-.3-.19-.34-.07-.03-.14-.02-.2.03-.05.05-.12.18-.02.36-.01.19.02.47.16.71-.17-.09-.32-.18-.49-.29-.01-.03-.02-.06-.03-.09v.41c.18.11.33.21.52.31-.08.04-.15.1-.2.18ZM243.87,42.68s0,0,0,0c0,0,0,0,0,0h0ZM254.59,32.75h0s0,0,0,0h0ZM254.57,32.68h0,0ZM254.56,32.64h0s0,0,0,0h0ZM254.56,32.6h0,0ZM254.19,31.51s0,0,0,0h0s0,0,0,0ZM254.31,32.75h0,0ZM254.32,32.79h0,0ZM253.39,33.95s0,0,0,0h0s0,0,0,0ZM253.38,34.8s0,0,0,0h0s0,0,0,0ZM251.13,41s0,0,0,0h0ZM246.98,42.4h0s0,0,0,0h0Z"/>
          <polygon points="271.69 61.84 280.51 61.84 300.32 22.77 291.5 22.77 282.91 40.91 274.25 22.77 265.38 22.77 278.44 48.95 274.85 55.82 266.72 55.82 263.63 61.84 271.69 61.84"/>
          <polygon points="261.88 55.82 258.8 61.84 259.59 61.84 262.67 55.82 261.88 55.82"/>
          <polygon points="259.25 55.82 256.09 61.84 257.98 61.84 261.06 55.82 259.25 55.82"/>
          <polygon points="262.81 61.84 265.89 55.82 265.1 55.82 262.02 61.84 262.81 61.84"/>
          <polygon points="264.28 55.82 263.49 55.82 260.41 61.84 261.2 61.84 264.28 55.82"/>
          <polygon class="cls-3" points="261.88 55.82 261.06 55.82 261.06 55.82 257.98 61.84 257.98 61.84 258.8 61.84 258.8 61.84 261.88 55.82 261.88 55.82"/>
          <polygon class="cls-3" points="263.49 55.82 262.67 55.82 262.67 55.82 259.59 61.84 259.59 61.84 260.41 61.84 260.41 61.84 263.49 55.82 263.49 55.82"/>
          <polygon class="cls-3" points="261.2 61.84 262.02 61.84 262.02 61.84 265.1 55.82 265.1 55.82 264.28 55.82 264.28 55.82 261.2 61.84 261.2 61.84"/>
          <polygon class="cls-3" points="262.81 61.84 263.63 61.84 263.63 61.84 266.72 55.82 266.72 55.82 265.89 55.82 265.89 55.82 262.81 61.84 262.81 61.84"/>
          <polygon points="214.88 61.84 234.7 22.77 225.88 22.77 217.28 40.91 208.63 22.77 199.76 22.77 212.82 48.95 206.06 61.84 214.88 61.84"/>
          <path d="M265.36,46.66v-18.75l-5.13-5.13h-20.37l-5.14,5.13v18.75l5.14,5.14h20.37l5.13-5.14ZM257.27,44.59h-14.46v-14.62h14.46v14.62Z"/>
          <path class="cls-7" d="M275.29,23.56l1.11,2.3.22.45,1.04,2.16.22.45,1.04,2.16.22.45,1.04,2.16.22.45,1.04,2.16.22.45,1.04,2.16.22.45.22-.45,1.04-2.16.22-.45,1.04-2.16.22-.45,1.04-2.16.22-.45,1.04-2.16.22-.45,1.04-2.16.22-.45,1.11-2.3.16-.33.22-.46h-.22s0,0,0,0h-15.55s-.22,0-.22,0l.22.45.16.34ZM276.84,25.86l1.04-2.16,1.04,2.16-1.04,2.16-1.04-2.16ZM278.1,28.48l1.04-2.16,1.04,2.16-1.04,2.16-1.04-2.16ZM280.39,23.71l1.04,2.16-1.04,2.16-1.04-2.16,1.04-2.16ZM282.91,23.71l1.04,2.16-1.04,2.16-1.04-2.16,1.04-2.16ZM285.42,23.71l1.04,2.16-1.04,2.16-1.04-2.16,1.04-2.16ZM285.21,28.48l-1.04,2.16-1.04-2.16,1.04-2.16,1.04,2.16ZM283.96,31.09l-1.04,2.16-1.04-2.16,1.04-2.16,1.04,2.16ZM282.7,28.48l-1.04,2.16-1.04-2.16,1.04-2.16,1.04,2.16ZM279.36,31.09l1.04-2.16,1.04,2.16-1.04,2.16-1.04-2.16ZM280.62,33.7l1.04-2.16,1.04,2.16-1.04,2.16-1.04-2.16ZM282.93,38.47l-1.04-2.16,1.04-2.16,1.04,2.16-1.04,2.16ZM284.18,35.85l-1.04-2.16,1.04-2.16,1.04,2.16-1.04,2.16ZM285.43,33.24l-1.04-2.16,1.04-2.16,1.04,2.16-1.04,2.16ZM286.69,30.63l-1.04-2.16,1.04-2.16,1.04,2.16-1.04,2.16ZM287.94,28.02l-1.04-2.16,1.04-2.16,1.04,2.16-1.04,2.16ZM290.09,23.56l-.89,1.85-.89-1.85h1.78ZM287.57,23.56l-.89,1.85-.89-1.85h1.78ZM285.06,23.56l-.89,1.85-.89-1.85h1.78ZM282.54,23.56l-.89,1.85-.89-1.85h1.78ZM280.03,23.56l-.89,1.85-.89-1.85h1.78ZM277.51,23.56l-.89,1.85-.89-1.85h1.78Z"/>
        </g>
        <g>
          <g>
            <path d="M199.76,159.03v-27.36l5.86-5.86h26.36l5.86,5.86v9.1h-8.6v-6.98h-20.89v23.12h20.89v-6.98h8.6v9.1l-5.86,5.86h-26.36l-5.86-5.86Z"/>
            <path d="M240.84,159.03v-33.23h8.6v31.11h20.44v-31.11h8.6v33.23l-5.86,5.86h-25.91l-5.86-5.86Z"/>
            <path d="M281.48,125.8h30.6l5.86,5.86v13.35l-5.86,5.86h-22v14.02h-8.6v-39.09ZM309.35,143.11v-9.55h-19.27v9.55h19.27Z"/>
          </g>
          <path d="M344.99,120.89h7.48v48.92h-7.48v-48.92Z"/>
          <g>
            <path d="M379.52,150.09l28.26-12.96v-3.91h-19.55v7.65h-8.6v-9.21l5.86-5.86h25.02l5.86,5.86v10.11l-28.26,12.96v2.74h19.83v-7.65h8.6v15.08h-37.03v-14.8Z"/>
            <path d="M419.55,159.03v-7.71h8.6v6.2h18.43v-10h-21.56l-4.91-4.91v-16.81h34.34v7.37h-25.74v6.98h20.83l5.64,5.64v13.24l-5.86,5.86h-23.9l-5.86-5.86Z"/>
            <path d="M458.18,144.17h23.96v7.26h-23.96v-7.26Z"/>
            <path d="M485.14,150.09l28.26-12.96v-3.91h-19.55v7.65h-8.6v-9.21l5.86-5.86h25.02l5.86,5.86v10.11l-28.26,12.96v2.74h19.83v-7.65h8.6v15.08h-37.03v-14.8Z"/>
            <path d="M525.16,159.03v-27.36l5.86-5.86h24.74l5.86,5.86v6.87h-8.6v-5.36h-19.27v8.32h22.45l5.64,5.64v11.89l-5.86,5.86h-24.96l-5.86-5.86ZM553.25,157.52v-8.66h-19.49v8.66h19.49Z"/>
          </g>
        </g>
      </g>
    </g>
  </g>
</svg>