<?xml version="1.0" encoding="UTF-8"?>
<svg id="Layer_2" data-name="Layer 2" xmlns="http://www.w3.org/2000/svg" viewBox="0 0 600 600">
  <g id="Layer_1-2" data-name="Layer 1">
    <g>
      <rect width="600" height="600"/>
      <g>
        <path d="M98.44,300c0,36.72,19.33,70.08,50.27,88.55,2.1-32.7,14.65-63.56,36.04-88.55-21.39-24.99-33.94-55.86-36.04-88.55-30.94,18.48-50.27,51.83-50.27,88.55Z" fill="none"/>
        <path d="M201.64,196.8c-1.55,0-3.12.07-4.69.15-.08,1.57-.15,3.14-.15,4.69,0,24.81,8.78,48.31,24.81,67,10.16-6.16,20.97-11.09,32.32-14.71,3.62-11.34,8.56-22.16,14.71-32.32-18.7-16.04-42.19-24.82-67-24.82Z" fill="none"/>
        <path d="M300,98.44c-36.72,0-70.07,19.33-88.55,50.27,32.7,2.1,63.56,14.65,88.55,36.04,24.99-21.39,55.85-33.94,88.55-36.04-18.48-30.94-51.83-50.27-88.55-50.27Z" fill="none"/>
        <path d="M378.39,268.64c16.04-18.7,24.81-42.2,24.81-67,0-1.55-.07-3.12-.15-4.69-1.57-.08-3.14-.15-4.69-.15-24.8,0-48.3,8.78-67,24.82,6.16,10.16,11.09,20.98,14.71,32.32,11.34,3.62,22.16,8.56,32.32,14.71Z" fill="none"/>
        <path d="M436.66,436.66h0c-2.6.73-5.23,1.39-7.89,1.97,2.66-.58,5.29-1.24,7.89-1.97Z" fill="none"/>
        <path d="M221.61,331.36c-16.04,18.7-24.81,42.2-24.81,67,0,1.55.07,3.12.15,4.69,1.57.08,3.14.15,4.69.15,24.81,0,48.3-8.78,67-24.82-6.16-10.16-11.09-20.98-14.71-32.32-11.34-3.62-22.16-8.56-32.32-14.71Z" fill="none"/>
        <path d="M300,501.56c36.72,0,70.07-19.33,88.55-50.27-32.7-2.1-63.56-14.65-88.55-36.04-24.99,21.39-55.85,33.94-88.55,36.04,18.48,30.94,51.83,50.27,88.55,50.27Z" fill="none"/>
        <path d="M403.05,403.05c.08-1.57.15-3.14.15-4.69,0-24.81-8.78-48.31-24.81-67-10.16,6.16-20.97,11.09-32.32,14.71-3.62,11.34-8.56,22.16-14.71,32.32,18.7,16.04,42.19,24.82,67,24.82,1.55,0,3.12-.07,4.69-.15Z" fill="none"/>
        <path d="M501.56,300c0-36.72-19.33-70.08-50.27-88.55-2.1,32.7-14.65,63.56-36.04,88.55,21.39,24.99,33.94,55.86,36.04,88.55,30.94-18.48,50.27-51.83,50.27-88.55Z" fill="none"/>
        <path d="M295.3,295.31c-.08,1.57-.15,3.15-.15,4.69s.07,3.12.15,4.69c1.57.08,3.14.15,4.69.15s3.12-.07,4.69-.15c.08-1.57.15-3.15.15-4.69s-.07-3.12-.15-4.69c-1.57-.08-3.14-.15-4.69-.15s-3.12.07-4.69.15Z" fill="none"/>
        <path d="M247.13,309.86c-.7.42-1.4.84-2.09,1.27-3.07,1.94-6.03,4.03-8.88,6.27-2.69,2.12-5.26,4.37-7.73,6.75,7.1,4.16,14.58,7.73,22.4,10.62-.88-3.75-1.67-7.51-2.26-11.32-.58-3.72-.98-7.46-1.28-11.2-.06-.8-.12-1.6-.17-2.39Z" fill="#3f8e2d"/>
        <path d="M205.66,279.8c2.54-2.03,5.12-3.98,7.76-5.83-16.41-19.6-26.31-44.83-26.31-72.33,0-1.26.08-2.51.12-3.76-3.29.46-6.54,1.08-9.75,1.85-3.29.79-6.54,1.71-9.73,2.82-1.96.68-3.91,1.4-5.82,2.2-1.28.54-2.51,1.16-3.77,1.74,1.11,32.78,13.41,62.75,33.17,86.27,2.26-2.33,4.61-4.55,7-6.73,2.38-2.16,4.83-4.24,7.33-6.24Z" fill="#3f8e2d"/>
        <path d="M189.44,148.93c1.99-.16,3.99-.34,5.99-.42,1.55-.06,3.33-.12,5.15-.14,19.06-35.44,56.45-59.62,99.43-59.62s80.36,24.18,99.43,59.62c.87,1.62,1.7,3.25,2.49,4.92.77,1.62,1.57,3.24,2.27,4.9,1.34,3.2,2.48,6.5,3.52,9.84,1.03,3.29,1.91,6.64,2.63,10.05.69,3.25,1.29,6.53,1.7,9.88.2,1.63.33,3.28.46,4.93.13,1.63.21,3.27.27,4.91.05,1.27.12,2.54.12,3.83,0,27.49-9.9,52.71-26.29,72.31-1.04,1.25-2.11,2.48-3.2,3.68-1.1,1.21-2.22,2.4-3.37,3.56-2.35,2.37-4.84,4.58-7.4,6.73-2.59,2.18-5.28,4.24-8.07,6.18-3,2.09-6.06,4.1-9.25,5.9-.67.38-1.36.71-2.04,1.08-1.04.56-2.08,1.13-3.15,1.66-.59.29-1.18.57-1.77.85-1.25.6-2.51,1.17-3.79,1.73-.37.16-.73.35-1.11.51-3.2,1.34-6.5,2.48-9.84,3.52-3.29,1.03-6.64,1.91-10.05,2.63-3.25.69-6.53,1.29-9.88,1.7-1.63.2-3.28.33-4.94.46-1.63.13-3.27.21-4.91.27-1.27.05-2.54.12-3.83.12s-2.51-.08-3.76-.12c.46,3.29,1.08,6.54,1.85,9.75.79,3.29,1.71,6.54,2.82,9.73,0,.02.02.04.03.07.56,1.61,1.17,3.2,1.81,4.77.13.32.24.66.37.98.52,1.25,1.12,2.51,1.71,3.77.33-.01.67-.01,1-.03,2.8-.11,5.58-.31,8.34-.59.86-.09,1.69-.23,2.54-.33,3.61-.43,7.18-.99,10.7-1.69,1-.2,2.01-.35,3-.57,2.66-.58,5.29-1.24,7.89-1.97,1.85-.52,3.68-1.08,5.5-1.67,1.88-.61,3.73-1.25,5.57-1.94,0,0,.02,0,.03,0,7.75-2.88,15.18-6.44,22.23-10.57,1.43-.84,2.86-1.7,4.26-2.59,1.39-.88,2.78-1.78,4.14-2.71,2.69-1.84,5.28-3.8,7.83-5.82,2.53-2.01,5-4.1,7.39-6.27,2.39-2.17,4.74-4.4,6.98-6.72,1.12-1.17,2.2-2.37,3.28-3.57,1.08-1.21,2.14-2.43,3.19-3.68,19.75-23.52,32.04-53.48,33.16-86.25.05-1.62.12-3.23.12-4.86,0-.14-.01-.28-.01-.43,0-1.81-.06-3.61-.14-5.4-.15-3.67-.49-7.29-.92-10.89-.87-7.38-2.27-14.6-4.23-21.59-.52-1.85-1.08-3.68-1.67-5.5-.61-1.88-1.26-3.74-1.94-5.58-20.1-54-72.14-92.57-133.05-92.57s-113.09,38.68-133.13,92.79c7.42-1.75,14.97-2.93,22.56-3.55Z" fill="#3f8e2d"/>
        <path d="M433.13,447.52c-7.42,1.75-14.97,2.93-22.56,3.55-1.99.16-3.99.34-5.99.42-1.55.06-3.33.12-5.15.14-19.06,35.44-56.45,59.62-99.43,59.62s-80.36-24.18-99.43-59.62c-.87-1.62-1.7-3.26-2.49-4.92-.77-1.62-1.57-3.24-2.27-4.9-1.34-3.2-2.48-6.5-3.52-9.84-1.03-3.29-1.91-6.64-2.63-10.05-.69-3.25-1.29-6.54-1.7-9.88-.2-1.63-.33-3.29-.46-4.94-.13-1.63-.21-3.27-.27-4.91-.05-1.27-.12-2.54-.12-3.83,0-27.49,9.9-52.71,26.29-72.31,1.04-1.25,2.11-2.48,3.2-3.68,1.1-1.21,2.22-2.4,3.37-3.56,2.35-2.37,4.84-4.58,7.4-6.73,2.59-2.18,5.28-4.24,8.07-6.18,3-2.09,6.06-4.1,9.25-5.9.67-.38,1.36-.71,2.04-1.08,1.04-.56,2.08-1.13,3.14-1.66.59-.29,1.18-.57,1.77-.85,1.25-.6,2.51-1.17,3.79-1.73.37-.16.73-.35,1.11-.51,3.2-1.34,6.5-2.48,9.84-3.52,3.29-1.03,6.64-1.91,10.05-2.63,3.25-.69,6.53-1.29,9.88-1.7,1.63-.2,3.28-.33,4.94-.46,1.63-.13,3.27-.21,4.91-.27,1.27-.05,2.54-.12,3.83-.12s2.51.08,3.76.12c-.46-3.29-1.08-6.54-1.85-9.75-.79-3.29-1.71-6.54-2.82-9.73,0-.02-.02-.04-.03-.07-.56-1.61-1.17-3.2-1.81-4.78-.13-.32-.24-.66-.37-.98-.52-1.25-1.12-2.51-1.71-3.77-.33.01-.67.01-1,.03-3.67.15-7.29.49-10.89.92-3.61.43-7.18.99-10.7,1.69-3.68.72-7.32,1.54-10.89,2.54-1.85.52-3.68,1.08-5.5,1.67-1.88.61-3.73,1.25-5.57,1.94-7.76,2.88-15.2,6.45-22.25,10.58-1.43.84-2.86,1.7-4.26,2.59-1.39.88-2.78,1.78-4.14,2.71-2.69,1.84-5.28,3.8-7.83,5.82-2.53,2.01-5,4.1-7.39,6.27-2.39,2.17-4.74,4.4-6.98,6.72-1.12,1.17-2.2,2.37-3.28,3.57-1.08,1.21-2.14,2.43-3.19,3.68-19.75,23.52-32.04,53.48-33.16,86.25-.05,1.62-.12,3.23-.12,4.86,0,.14.01.28.01.43,0,1.81.06,3.61.14,5.4.15,3.67.49,7.29.92,10.89.87,7.38,2.27,14.6,4.23,21.59.52,1.85,1.08,3.68,1.67,5.5.61,1.88,1.26,3.73,1.94,5.58,20.1,54,72.14,92.57,133.05,92.57s113.09-38.68,133.13-92.79Z" fill="#ff671f"/>
        <path d="M441.83,393.5c-1.11-32.78-13.41-62.75-33.17-86.27-2.26,2.33-4.61,4.55-7,6.73-2.38,2.16-4.83,4.24-7.33,6.24-2.54,2.03-5.12,3.98-7.76,5.83,16.41,19.6,26.31,44.83,26.31,72.33,0,1.26-.08,2.51-.12,3.76,3.29-.46,6.54-1.08,9.75-1.85,3.29-.79,6.54-1.71,9.73-2.82,1.96-.68,3.91-1.4,5.82-2.2,1.28-.54,2.51-1.16,3.77-1.74Z" fill="#ff671f"/>
        <path d="M352.87,290.14c.7-.42,1.4-.84,2.09-1.27,3.07-1.94,6.03-4.03,8.88-6.27,2.69-2.12,5.26-4.37,7.73-6.75-7.1-4.16-14.58-7.73-22.4-10.62.88,3.75,1.67,7.51,2.26,11.32.58,3.72.98,7.46,1.28,11.2.06.8.12,1.6.17,2.39Z" fill="#ff671f"/>
        <path d="M287.75,247.29c.8-.06,1.6-.12,2.39-.17-.42-.7-.84-1.4-1.27-2.09-1.94-3.07-4.03-6.03-6.27-8.88-2.12-2.69-4.37-5.26-6.75-7.73-4.16,7.1-7.73,14.58-10.62,22.4,3.75-.88,7.51-1.67,11.32-2.26,3.72-.58,7.46-.98,11.2-1.28Z" fill="#658dc6"/>
        <path d="M447.52,166.87c1.75,7.42,2.93,14.97,3.55,22.56.16,1.99.34,3.99.42,5.99.06,1.55.12,3.33.14,5.15,35.44,19.06,59.62,56.45,59.62,99.43s-24.18,80.37-59.62,99.43c-1.62.87-3.26,1.7-4.92,2.49-1.62.77-3.24,1.57-4.9,2.27-3.2,1.34-6.5,2.48-9.84,3.52-3.29,1.03-6.64,1.91-10.05,2.63-3.25.69-6.54,1.29-9.88,1.7-1.63.2-3.28.33-4.94.46-1.63.13-3.27.21-4.91.27-1.27.05-2.54.12-3.83.12-27.49,0-52.7-9.9-72.3-26.29-1.25-1.04-2.48-2.11-3.68-3.2-1.21-1.1-2.4-2.22-3.56-3.37-2.37-2.35-4.58-4.84-6.73-7.4-2.18-2.59-4.24-5.28-6.18-8.07-2.09-3-4.1-6.06-5.9-9.25-.38-.67-.71-1.36-1.08-2.04-.56-1.04-1.13-2.08-1.66-3.14-.29-.59-.57-1.18-.86-1.77-.6-1.25-1.17-2.51-1.73-3.79-.16-.37-.35-.73-.51-1.11-1.34-3.2-2.48-6.5-3.52-9.84-1.03-3.29-1.91-6.64-2.63-10.05-.69-3.25-1.29-6.54-1.7-9.88-.2-1.63-.33-3.29-.46-4.94-.13-1.63-.21-3.27-.27-4.91-.05-1.27-.12-2.54-.12-3.83s.08-2.51.12-3.76c-3.29.46-6.54,1.08-9.75,1.85-3.29.79-6.54,1.71-9.73,2.82-.02,0-.04.02-.07.03-1.61.56-3.2,1.17-4.78,1.81-.32.13-.66.24-.98.37-1.25.52-2.51,1.12-3.77,1.71.01.33.01.67.03,1,.15,3.67.49,7.29.92,10.89.43,3.61.99,7.18,1.69,10.7.72,3.68,1.54,7.32,2.54,10.89.52,1.85,1.08,3.68,1.67,5.5.61,1.87,1.25,3.73,1.94,5.57,2.88,7.76,6.45,15.2,10.58,22.25.84,1.43,1.7,2.86,2.59,4.26.88,1.39,1.78,2.78,2.71,4.13,1.38,2.01,2.8,3.98,4.28,5.91.5.65,1.03,1.27,1.54,1.92,2.01,2.53,4.1,5,6.27,7.39,2.17,2.39,4.4,4.74,6.72,6.98,1.17,1.12,2.37,2.2,3.57,3.28,1.21,1.08,2.43,2.14,3.68,3.18,23.52,19.75,53.48,32.04,86.25,33.16,1.62.05,3.23.12,4.86.12.14,0,.28-.01.43-.01,1.81,0,3.61-.06,5.4-.14,3.67-.15,7.29-.49,10.89-.92,1.89-.22,3.79-.44,5.66-.73,2.71-.43,5.39-.94,8.05-1.53,2.66-.58,5.29-1.24,7.89-1.97,1.85-.52,3.68-1.08,5.5-1.67,1.88-.61,3.73-1.26,5.58-1.94,54-20.1,92.58-72.14,92.58-133.05s-38.68-113.09-92.79-133.13Z" fill="#658dc6"/>
        <path d="M444.43,155.57c-19.95-62.42-78.57-105.57-144.43-105.57s-124.48,43.15-144.43,105.57c-62.42,19.95-105.57,78.57-105.57,144.43s43.15,124.48,105.57,144.43c19.95,62.42,78.57,105.57,144.43,105.57s124.48-43.15,144.43-105.57c62.42-19.95,105.57-78.57,105.57-144.43s-43.15-124.48-105.57-144.43ZM447.74,433.05c-1.84.69-3.7,1.33-5.58,1.94-1.82.59-3.65,1.15-5.5,1.67h0c-2.6.73-5.23,1.39-7.89,1.97-2.66.58-5.34,1.09-8.05,1.53-1.87.3-3.76.51-5.66.73-3.59.43-7.21.77-10.89.92-1.79.07-3.59.13-5.4.14-.14,0-.28.01-.43.01-1.63,0-3.24-.07-4.86-.12-32.78-1.11-62.74-13.4-86.25-33.16-1.24-1.04-2.47-2.1-3.68-3.18-1.2-1.08-2.41-2.16-3.57-3.28-2.33-2.24-4.55-4.59-6.72-6.98-2.17-2.39-4.26-4.85-6.27-7.39-.51-.64-1.05-1.26-1.54-1.92-1.48-1.93-2.9-3.9-4.28-5.91-.93-1.36-1.83-2.74-2.71-4.13-.89-1.4-1.75-2.82-2.59-4.26-4.14-7.06-7.7-14.49-10.58-22.25-.68-1.84-1.33-3.7-1.94-5.57-.59-1.82-1.15-3.65-1.67-5.5-1-3.57-1.82-7.21-2.54-10.89-.69-3.52-1.26-7.09-1.69-10.7-.43-3.59-.77-7.21-.92-10.89-.01-.33-.01-.67-.03-1,1.26-.59,2.52-1.19,3.77-1.71.32-.14.66-.24.98-.37,1.58-.64,3.17-1.25,4.78-1.81.02,0,.04-.02.07-.03,3.18-1.11,6.43-2.03,9.73-2.82,3.21-.77,6.46-1.39,9.75-1.85-.04,1.25-.12,2.5-.12,3.76s.08,2.55.12,3.83c.06,1.65.14,3.28.27,4.91.13,1.65.26,3.3.46,4.94.41,3.35,1.01,6.63,1.7,9.88.72,3.41,1.61,6.76,2.63,10.05,1.04,3.34,2.18,6.64,3.52,9.84.16.38.34.74.51,1.11.55,1.28,1.13,2.54,1.73,3.79.28.59.56,1.19.86,1.77.53,1.06,1.1,2.1,1.66,3.14.37.68.7,1.37,1.08,2.04,1.8,3.2,3.81,6.26,5.9,9.25,1.94,2.78,4,5.47,6.18,8.07,2.15,2.55,4.37,5.05,6.73,7.4,1.16,1.15,2.35,2.27,3.56,3.37,1.2,1.1,2.43,2.16,3.68,3.2,19.6,16.39,44.81,26.29,72.3,26.29,1.29,0,2.55-.08,3.83-.12,1.65-.06,3.29-.14,4.91-.27,1.65-.13,3.3-.26,4.94-.46,3.35-.41,6.63-1.01,9.88-1.7,3.41-.72,6.76-1.61,10.05-2.63,3.34-1.04,6.64-2.18,9.84-3.52,1.67-.7,3.28-1.49,4.9-2.27,1.66-.79,3.3-1.62,4.92-2.49,35.44-19.06,59.62-56.45,59.62-99.43s-24.18-80.37-59.62-99.43c-.02-1.82-.08-3.6-.14-5.15-.08-2-.26-3.99-.42-5.99-.61-7.6-1.8-15.14-3.55-22.56,54.11,20.04,92.79,72.14,92.79,133.13s-38.58,112.95-92.58,133.05ZM166.95,447.74c-.69-1.84-1.33-3.7-1.94-5.58-.59-1.82-1.15-3.65-1.67-5.5-1.96-6.99-3.36-14.21-4.23-21.59-.43-3.59-.77-7.21-.92-10.89-.07-1.79-.13-3.59-.14-5.4,0-.14-.01-.28-.01-.43,0-1.63.07-3.24.12-4.86,1.11-32.78,13.4-62.74,33.16-86.25,1.04-1.24,2.1-2.47,3.19-3.68,1.08-1.2,2.16-2.41,3.28-3.57,2.24-2.33,4.59-4.55,6.98-6.72,2.39-2.17,4.85-4.26,7.39-6.27,2.55-2.02,5.14-3.98,7.83-5.82,1.36-.93,2.74-1.83,4.14-2.71,1.4-.89,2.82-1.75,4.26-2.59,7.06-4.14,14.49-7.7,22.25-10.58,1.84-.68,3.7-1.33,5.57-1.94,1.82-.59,3.65-1.15,5.5-1.67,3.57-1,7.21-1.82,10.89-2.54,3.52-.69,7.09-1.26,10.7-1.69,3.59-.43,7.21-.77,10.89-.92.33-.01.67-.01,1-.03.59,1.26,1.19,2.52,1.71,3.77.14.32.24.66.37.98.64,1.58,1.25,3.17,1.81,4.78,0,.02.02.04.03.07,1.11,3.18,2.03,6.43,2.82,9.73.77,3.21,1.39,6.46,1.85,9.75-1.25-.04-2.5-.12-3.76-.12s-2.55.08-3.83.12c-1.65.06-3.28.14-4.91.27-1.65.13-3.3.26-4.94.46-3.35.41-6.63,1.01-9.88,1.7-3.41.72-6.76,1.61-10.05,2.63-3.34,1.04-6.64,2.18-9.84,3.52-.38.16-.74.34-1.11.51-1.28.55-2.54,1.13-3.79,1.73-.59.28-1.19.56-1.77.85-1.06.53-2.1,1.1-3.14,1.66-.68.36-1.37.7-2.04,1.08-3.2,1.8-6.26,3.81-9.25,5.9-2.78,1.94-5.47,4-8.07,6.18-2.55,2.15-5.05,4.37-7.4,6.73-1.15,1.16-2.27,2.35-3.37,3.56-1.1,1.2-2.16,2.43-3.2,3.68-16.39,19.6-26.29,44.81-26.29,72.31,0,1.29.08,2.55.12,3.83.06,1.65.14,3.28.27,4.91.13,1.65.26,3.3.46,4.94.41,3.35,1.01,6.63,1.7,9.88.72,3.41,1.61,6.76,2.63,10.05,1.04,3.34,2.18,6.64,3.52,9.84.7,1.67,1.49,3.28,2.27,4.9.79,1.66,1.62,3.3,2.49,4.92,19.06,35.44,56.45,59.62,99.43,59.62s80.36-24.18,99.43-59.62c1.82-.02,3.6-.08,5.15-.14,2-.08,3.99-.26,5.99-.42,7.6-.61,15.14-1.8,22.56-3.55-20.04,54.11-72.14,92.79-133.13,92.79s-112.95-38.58-133.05-92.57ZM59.69,300c0-60.91,38.58-112.95,92.57-133.05,1.84-.69,3.7-1.33,5.58-1.94,1.82-.59,3.65-1.15,5.5-1.67,6.99-1.96,14.21-3.36,21.59-4.23,3.59-.43,7.21-.77,10.89-.92,1.79-.07,3.59-.13,5.4-.14.14,0,.28-.01.43-.01,1.63,0,3.24.07,4.86.12,32.78,1.11,62.74,13.4,86.25,33.16,1.24,1.04,2.47,2.1,3.67,3.18,1.2,1.08,2.41,2.16,3.57,3.28,2.33,2.24,4.55,4.59,6.72,6.98,2.17,2.39,4.26,4.85,6.27,7.39,2.02,2.55,3.98,5.14,5.82,7.83.93,1.36,1.83,2.74,2.71,4.13.89,1.4,1.75,2.82,2.59,4.26,4.14,7.06,7.7,14.49,10.58,22.25.68,1.84,1.33,3.7,1.94,5.58.59,1.82,1.15,3.65,1.67,5.5,1,3.57,1.82,7.21,2.54,10.89.69,3.52,1.26,7.09,1.69,10.7.43,3.59.77,7.21.92,10.89.01.33.01.67.03,1-1.26.59-2.52,1.19-3.77,1.71-.32.14-.66.24-.98.37-1.58.64-3.17,1.25-4.78,1.81-.02,0-.04.02-.07.03-3.18,1.11-6.43,2.03-9.73,2.82-3.21.77-6.46,1.39-9.75,1.85.04-1.25.12-2.5.12-3.76s-.08-2.55-.12-3.83c-.06-1.65-.14-3.29-.27-4.91-.13-1.65-.26-3.3-.46-4.94-.41-3.35-1.01-6.63-1.7-9.88-.38-1.81-.76-3.63-1.23-5.41-.42-1.57-.92-3.1-1.4-4.65-.28-.9-.51-1.82-.82-2.71-.82-2.42-1.72-4.79-2.7-7.13-.16-.38-.34-.74-.51-1.11-.55-1.28-1.13-2.54-1.73-3.79-.28-.59-.56-1.19-.85-1.77-.53-1.06-1.1-2.1-1.66-3.14-.37-.68-.7-1.37-1.08-2.04-1.8-3.2-3.81-6.26-5.9-9.25-1.94-2.78-4-5.47-6.18-8.07-2.15-2.55-4.37-5.05-6.73-7.4-1.16-1.15-2.35-2.27-3.56-3.37-1.2-1.1-2.43-2.16-3.68-3.2-19.6-16.39-44.81-26.29-72.3-26.29-1.29,0-2.55.08-3.83.12-1.65.06-3.28.14-4.91.27-1.65.13-3.3.26-4.94.46-3.35.41-6.63,1.01-9.88,1.7-3.41.72-6.76,1.61-10.05,2.63-3.34,1.04-6.64,2.18-9.84,3.52-1.67.7-3.28,1.49-4.9,2.27-1.66.79-3.3,1.62-4.92,2.49-35.44,19.06-59.62,56.45-59.62,99.43s24.18,80.37,59.62,99.43c.02,1.82.08,3.6.14,5.15.08,2,.26,3.99.42,5.99.61,7.6,1.8,15.14,3.55,22.56-54.11-20.04-92.79-72.14-92.79-133.13ZM300,59.69c60.91,0,112.95,38.58,133.05,92.57.69,1.84,1.33,3.7,1.94,5.58.59,1.82,1.15,3.65,1.67,5.5,1.96,6.99,3.36,14.21,4.23,21.59.43,3.59.77,7.21.92,10.89.07,1.79.13,3.59.14,5.4,0,.14.01.28.01.43,0,1.63-.07,3.24-.12,4.86-1.11,32.78-13.4,62.74-33.16,86.25-1.04,1.24-2.1,2.47-3.19,3.68-1.08,1.2-2.16,2.41-3.28,3.57-2.24,2.33-4.59,4.55-6.98,6.72-2.39,2.17-4.85,4.26-7.39,6.27-2.55,2.02-5.14,3.98-7.83,5.82-1.36.93-2.74,1.83-4.14,2.71-1.4.89-2.82,1.75-4.26,2.59-7.05,4.13-14.47,7.69-22.23,10.57,0,0-.02,0-.03,0-1.84.68-3.7,1.33-5.57,1.94-1.82.59-3.65,1.15-5.5,1.67-2.6.73-5.23,1.39-7.89,1.97-.99.22-2,.37-3,.57-3.52.69-7.09,1.26-10.7,1.69-.85.1-1.69.24-2.54.33-2.76.28-5.54.47-8.34.59-.33.01-.67.01-1,.03-.59-1.26-1.19-2.52-1.71-3.77-.14-.32-.24-.66-.37-.98-.64-1.58-1.24-3.17-1.81-4.77,0-.02-.02-.04-.03-.07-1.11-3.18-2.03-6.43-2.82-9.73-.77-3.21-1.39-6.46-1.85-9.75,1.25.04,2.5.12,3.76.12s2.55-.08,3.83-.12c1.65-.06,3.29-.14,4.91-.27,1.65-.13,3.3-.26,4.94-.46,3.35-.41,6.63-1.01,9.88-1.7,3.41-.72,6.76-1.61,10.05-2.63,3.34-1.04,6.64-2.18,9.84-3.52.38-.16.74-.34,1.11-.51,1.28-.55,2.54-1.13,3.79-1.73.59-.28,1.19-.56,1.77-.85,1.06-.53,2.1-1.1,3.15-1.66.68-.36,1.37-.7,2.04-1.08,3.2-1.8,6.26-3.81,9.25-5.9,2.78-1.94,5.47-4,8.07-6.18,2.55-2.15,5.05-4.37,7.4-6.73,1.15-1.16,2.27-2.35,3.37-3.56,1.1-1.2,2.16-2.43,3.2-3.68,16.39-19.6,26.29-44.81,26.29-72.31,0-1.29-.08-2.55-.12-3.83-.06-1.65-.14-3.29-.27-4.91-.13-1.65-.26-3.3-.46-4.93-.41-3.35-1.01-6.63-1.7-9.88-.72-3.41-1.61-6.76-2.63-10.05-1.04-3.34-2.18-6.64-3.52-9.84-.7-1.67-1.49-3.28-2.27-4.9-.79-1.66-1.62-3.3-2.49-4.92-19.06-35.44-56.45-59.62-99.43-59.62s-80.36,24.18-99.43,59.62c-1.82.02-3.6.08-5.15.14-2,.08-3.99.26-5.99.42-7.6.61-15.14,1.8-22.56,3.55,20.04-54.11,72.14-92.79,133.13-92.79ZM250.84,334.77c-7.81-2.89-15.3-6.46-22.4-10.62,2.46-2.37,5.04-4.63,7.73-6.75,2.84-2.24,5.8-4.33,8.88-6.27.69-.43,1.39-.85,2.09-1.27.05.8.1,1.6.17,2.39.3,3.75.7,7.49,1.28,11.2.6,3.8,1.38,7.57,2.26,11.32ZM300,415.25c24.99,21.39,55.86,33.94,88.55,36.04-18.48,30.94-51.83,50.27-88.55,50.27s-70.07-19.33-88.55-50.27c32.7-2.1,63.56-14.65,88.55-36.04ZM206.5,441.84c-.58-1.25-1.21-2.48-1.74-3.77-.8-1.91-1.52-3.86-2.2-5.82-1.11-3.18-2.03-6.43-2.82-9.73-.77-3.21-1.39-6.46-1.85-9.75,1.25.04,2.5.12,3.76.12,27.51,0,52.73-9.91,72.33-26.31,1.85,2.65,3.8,5.23,5.83,7.76,2,2.5,4.08,4.95,6.24,7.33,2.17,2.39,4.4,4.74,6.73,7-23.52,19.76-53.48,32.06-86.27,33.17ZM201.64,403.2c-1.55,0-3.12-.07-4.69-.15-.08-1.57-.15-3.14-.15-4.69,0-24.81,8.78-48.31,24.81-67,10.16,6.16,20.97,11.09,32.32,14.71,3.62,11.34,8.56,22.16,14.71,32.32-18.7,16.04-42.19,24.82-67,24.82ZM221.61,268.64c-16.04-18.7-24.81-42.2-24.81-67,0-1.55.07-3.12.15-4.69,1.57-.08,3.14-.15,4.69-.15,24.81,0,48.3,8.78,67,24.82-6.16,10.16-11.09,20.98-14.71,32.32-11.34,3.62-22.16,8.56-32.32,14.71ZM184.75,300c-21.39,24.99-33.94,55.86-36.04,88.55-30.94-18.48-50.27-51.83-50.27-88.55s19.33-70.08,50.27-88.55c2.1,32.7,14.65,63.56,36.04,88.55ZM158.17,206.5c1.25-.58,2.48-1.21,3.77-1.74,1.91-.8,3.86-1.52,5.82-2.2,3.18-1.11,6.43-2.03,9.73-2.82,3.21-.77,6.46-1.39,9.75-1.85-.04,1.25-.12,2.5-.12,3.76,0,27.51,9.91,52.73,26.31,72.33-2.65,1.85-5.23,3.8-7.76,5.83-2.5,2-4.95,4.08-7.33,6.24-2.39,2.17-4.74,4.4-7,6.73-19.76-23.52-32.06-53.48-33.17-86.27ZM275.85,228.44c2.37,2.46,4.63,5.04,6.75,7.73,2.24,2.84,4.33,5.8,6.27,8.88.44.69.85,1.39,1.27,2.09-.8.05-1.6.1-2.39.17-3.75.3-7.49.7-11.2,1.28-3.8.6-7.57,1.38-11.32,2.26,2.89-7.81,6.46-15.3,10.62-22.4ZM349.16,265.23c7.81,2.89,15.3,6.46,22.4,10.62-2.46,2.37-5.04,4.63-7.73,6.75-2.84,2.24-5.8,4.33-8.88,6.27-.69.43-1.39.85-2.09,1.27-.05-.8-.1-1.6-.17-2.39-.3-3.75-.7-7.49-1.28-11.2-.6-3.8-1.38-7.57-2.26-11.32ZM300,184.75c-24.99-21.39-55.86-33.94-88.55-36.04,18.48-30.94,51.83-50.27,88.55-50.27s70.08,19.33,88.55,50.27c-32.7,2.1-63.56,14.65-88.55,36.04ZM393.5,158.16c.58,1.25,1.21,2.48,1.74,3.77.8,1.91,1.52,3.86,2.2,5.82,1.11,3.18,2.03,6.43,2.82,9.73.77,3.21,1.39,6.46,1.85,9.75-1.25-.04-2.5-.12-3.76-.12-27.51,0-52.73,9.91-72.33,26.31-1.85-2.65-3.8-5.23-5.83-7.76-2-2.5-4.08-4.95-6.24-7.33-2.17-2.39-4.4-4.74-6.73-7,23.52-19.76,53.48-32.06,86.27-33.17ZM398.36,196.8c1.55,0,3.12.07,4.69.15.08,1.57.15,3.14.15,4.69,0,24.81-8.78,48.31-24.81,67-10.16-6.16-20.97-11.09-32.32-14.71-3.62-11.34-8.56-22.16-14.71-32.32,18.7-16.04,42.19-24.82,67-24.82ZM304.84,300c0,1.55-.07,3.12-.15,4.69-1.57.08-3.14.15-4.69.15s-3.12-.07-4.69-.15c-.08-1.57-.15-3.15-.15-4.69s.07-3.12.15-4.69c1.57-.08,3.14-.15,4.69-.15s3.12.07,4.69.15c.08,1.57.15,3.15.15,4.69ZM432.24,397.45c-3.18,1.11-6.43,2.03-9.73,2.82-3.21.77-6.46,1.39-9.75,1.85.04-1.25.12-2.5.12-3.76,0-27.51-9.91-52.73-26.31-72.33,2.65-1.85,5.23-3.8,7.76-5.83,2.5-2,4.95-4.08,7.33-6.24,2.39-2.17,4.74-4.4,7-6.73,19.76,23.52,32.06,53.48,33.17,86.27-1.25.58-2.48,1.21-3.77,1.74-1.91.8-3.86,1.52-5.82,2.2ZM309.86,352.87c.8-.05,1.6-.1,2.39-.17,3.75-.3,7.49-.7,11.2-1.28,3.8-.6,7.57-1.38,11.32-2.26-2.89,7.81-6.46,15.3-10.62,22.4-2.37-2.46-4.63-5.04-6.75-7.73-2.24-2.84-4.33-5.8-6.27-8.88-.44-.69-.85-1.39-1.27-2.09ZM346.07,346.07c11.34-3.62,22.16-8.56,32.32-14.71,16.04,18.7,24.81,42.2,24.81,67,0,1.55-.07,3.12-.15,4.69-1.57.08-3.15.15-4.69.15-24.8,0-48.3-8.78-67-24.82,6.16-10.16,11.09-20.98,14.71-32.32ZM415.25,300c21.39-24.99,33.94-55.86,36.04-88.55,30.94,18.48,50.27,51.83,50.27,88.55s-19.33,70.08-50.27,88.55c-2.1-32.7-14.65-63.56-36.04-88.55Z" fill="#fff"/>
        <path d="M320.2,205.66c2.03,2.54,3.98,5.12,5.83,7.76,19.6-16.41,44.83-26.31,72.33-26.31,1.26,0,2.51.08,3.76.12-.46-3.29-1.08-6.54-1.85-9.75-.79-3.29-1.71-6.54-2.82-9.73-.68-1.96-1.4-3.91-2.2-5.82-.54-1.29-1.16-2.51-1.74-3.77-32.78,1.11-62.75,13.41-86.27,33.17,2.33,2.26,4.55,4.61,6.73,7,2.16,2.38,4.24,4.83,6.24,7.33Z" fill="#658dc6"/>
        <path d="M279.8,394.34c-2.03-2.54-3.98-5.12-5.83-7.76-19.6,16.41-44.83,26.31-72.33,26.31-1.26,0-2.51-.08-3.76-.12.46,3.29,1.08,6.54,1.85,9.75.79,3.29,1.71,6.54,2.82,9.73.68,1.96,1.4,3.91,2.2,5.82.54,1.29,1.16,2.51,1.74,3.77,32.78-1.11,62.75-13.41,86.27-33.17-2.33-2.26-4.55-4.61-6.73-7-2.16-2.38-4.24-4.83-6.24-7.33Z" fill="#ba0c2f"/>
        <path d="M324.15,371.56c4.16-7.1,7.73-14.58,10.62-22.4-3.75.88-7.51,1.67-11.32,2.26-3.72.58-7.46.98-11.2,1.28-.8.06-1.6.12-2.39.17.42.7.84,1.4,1.27,2.09,1.94,3.07,4.03,6.03,6.27,8.88,2.12,2.69,4.37,5.26,6.75,7.73Z" fill="#ba0c2f"/>
        <path d="M316.71,342.53c3.61-.43,7.18-.99,10.7-1.69,1-.2,2.01-.35,3-.57-.99.22-2.01.37-3,.57-3.52.69-7.09,1.26-10.7,1.69Z" fill="#ba0c2f"/>
        <path d="M148.51,404.58c-.06-1.55-.12-3.33-.14-5.15-35.44-19.06-59.62-56.45-59.62-99.43s24.18-80.37,59.62-99.43c1.62-.87,3.25-1.7,4.92-2.49,1.62-.77,3.24-1.57,4.9-2.27,3.2-1.34,6.5-2.48,9.84-3.52,3.29-1.03,6.64-1.91,10.05-2.63,3.25-.69,6.54-1.29,9.88-1.7,1.63-.2,3.29-.33,4.94-.46,1.63-.13,3.27-.21,4.91-.27,1.27-.05,2.54-.12,3.83-.12,27.49,0,52.7,9.9,72.3,26.29,1.25,1.04,2.48,2.11,3.68,3.2,1.21,1.1,2.4,2.22,3.56,3.37,2.37,2.35,4.58,4.84,6.73,7.4,2.18,2.59,4.24,5.28,6.18,8.07,2.09,3,4.1,6.06,5.9,9.25.38.67.71,1.36,1.08,2.04.56,1.04,1.13,2.08,1.66,3.14.29.59.57,1.18.85,1.77.6,1.25,1.17,2.51,1.73,3.79.16.37.35.73.51,1.11.98,2.34,1.88,4.72,2.7,7.13.3.89.54,1.81.82,2.71.48,1.54.99,3.08,1.4,4.65.47,1.78.85,3.59,1.23,5.41.69,3.25,1.29,6.54,1.7,9.88.2,1.63.33,3.28.46,4.94.13,1.63.21,3.27.27,4.91.05,1.27.12,2.54.12,3.83s-.08,2.51-.12,3.76c3.29-.46,6.54-1.08,9.75-1.85,3.29-.79,6.54-1.71,9.73-2.82.02,0,.04-.02.07-.03,1.61-.56,3.2-1.17,4.78-1.81.32-.13.66-.24.98-.37,1.25-.52,2.51-1.12,3.77-1.71-.01-.33-.01-.67-.03-1-.15-3.67-.49-7.29-.92-10.89-.43-3.61-.99-7.18-1.69-10.7-.72-3.68-1.54-7.32-2.54-10.89-.52-1.85-1.08-3.68-1.67-5.5-.61-1.88-1.25-3.73-1.94-5.58-2.88-7.76-6.45-15.2-10.58-22.25-.84-1.43-1.7-2.86-2.59-4.26-.88-1.39-1.78-2.78-2.71-4.13-1.84-2.69-3.8-5.28-5.82-7.83-2.01-2.53-4.1-5-6.27-7.39-2.17-2.39-4.4-4.74-6.72-6.98-1.17-1.12-2.37-2.2-3.57-3.28-1.21-1.08-2.43-2.14-3.67-3.18-23.52-19.75-53.48-32.04-86.25-33.16-1.62-.05-3.23-.12-4.86-.12-.14,0-.28.01-.43.01-1.81,0-3.61.06-5.4.14-3.67.15-7.29.49-10.89.92-7.38.87-14.6,2.27-21.59,4.23-1.85.52-3.68,1.08-5.5,1.67-1.88.61-3.73,1.26-5.58,1.94-54,20.1-92.57,72.14-92.57,133.05s38.68,113.09,92.79,133.13c-1.75-7.42-2.93-14.97-3.55-22.56-.16-1.99-.34-3.99-.42-5.99Z" fill="#ba0c2f"/>
      </g>
    </g>
  </g>
</svg>