<?xml version="1.0" encoding="UTF-8"?>
<svg id="Layer_2" data-name="Layer 2" xmlns="http://www.w3.org/2000/svg" viewBox="0 0 600 600">
  <g id="Layer_1-2" data-name="Layer 1">
    <g>
      <rect width="600" height="600"/>
      <g>
        <polygon points="316.61 242.45 316.62 242.44 316.61 242.44 316.61 242.45" fill="none"/>
        <polygon points="320.63 226.08 320.63 226.08 320.63 226.08 320.63 226.08" fill="none"/>
        <polygon points="316.65 238.25 316.65 238.24 316.65 238.24 316.65 238.25" fill="none"/>
        <path d="M264.07,291.15h71.87v-72.7h-71.87v72.7ZM267.56,274.6c.04.15.09.31.14.46.84.55,1.57.99,2.42,1.45-.69-1.24-.86-2.6-.79-3.55-.48-.92-.16-1.58.09-1.8.27-.25.63-.3.98-.13.49.23.97.88.95,1.7-.01.34-.13.61-.34.81.03.34.04.69.06,1.02.05.56.06.66.11.98v.04s0,0,0,0c.09.47.22,1.14.5,1.71l2.6,1.06c-.83-1.14-1.17-2.54-1.19-3.56-.56-.84-.33-1.54-.1-1.83.25-.31.61-.41,1-.29.5.16,1.04.75,1.09,1.56.02.35-.07.65-.26.88.06.34.11.69.16,1.04q.09.49.21,1v.03c.14.47.35,1.15.67,1.68l2.75.67c-.97-1.05-1.46-2.45-1.59-3.5-.66-.78-.5-1.59-.23-1.94.24-.31.6-.42.99-.33.57.15,1.05.72,1.17,1.4.09.52-.09.84-.18.98.09.29.18.61.29,1,.18.64.2.69.31.99v.05c.25.65.53,1.2.84,1.6l2.84.26c-.26-.23-.51-.48-.74-.77-.43-.55-.99-1.67-1.24-2.62-.72-.7-.65-1.52-.41-1.92.21-.35.56-.53.97-.47.58.08,1.11.6,1.29,1.26.14.49.01.82-.07.99.14.34.26.7.38,1.04q.19.48.41.97v.02c.24.44.58,1.09,1.01,1.55h.09s.06.15.06.15v-.15s.06.21.06.21v-.21s.06.21.06.21v-.21s.05,0,.05,0l.08.21v-.21s.07.21.07.21v-.21s.09.21.09.21v-.21s.08.21.08.21v-.21s.06.21.06.21v-.21s.08.21.08.21h0s-.06-.21-.06-.21h.05s0,0,0,0h.06s.32-.03.32-.03h0c.58-.01,1.17-.05,1.76-.1-1.19-.81-1.98-2.14-2.34-3.2-.82-.61-.83-1.48-.64-1.92.18-.4.51-.62.95-.61.59.01,1.15.46,1.4,1.11.2.52.08.89.02,1.05.15.28.31.59.5.97.07.15.19.38.49.92l.02.03c.38.65.77,1.14,1.15,1.47.97-.14,1.95-.32,2.92-.54-.32-.17-.64-.37-.94-.62-.5-.41-1.32-1.46-1.77-2.38-.85-.52-.95-1.38-.8-1.84.14-.43.48-.71.91-.75.58-.05,1.18.33,1.49.95.24.47.18.85.14,1.03.21.32.41.65.59.97.32.5.39.61.61.89l.03.05c.43.57.87,1.03,1.28,1.31.97-.27,1.94-.59,2.89-.94-1.37-.52-2.45-1.7-3.03-2.71-.92-.41-1.11-1.28-1.02-1.78.09-.47.41-.8.86-.88.57-.11,1.2.21,1.56.78.29.45.27.84.25,1.03.24.3.47.61.69.91.12.14.33.41.68.81l.03.03c.51.57.99.98,1.43,1.22.95-.41,1.9-.86,2.82-1.35-1.41-.36-2.61-1.43-3.3-2.38-.98-.3-1.27-1.17-1.22-1.69.05-.5.34-.87.79-1.01.56-.17,1.2.07,1.63.61.34.43.36.83.35,1.02.28.28.55.58.79.84.41.42.52.53.78.76l.04.04c.54.48,1.06.84,1.53,1.03.92-.54,1.83-1.12,2.7-1.74-1.45-.19-2.77-1.14-3.56-2.03-1-.18-1.38-1.03-1.39-1.56,0-.52.26-.94.71-1.13.54-.22,1.19-.06,1.67.42.38.39.45.8.46,1,.31.25.61.52.88.76q.43.36.87.68l.02.02c.48.32,1.07.7,1.65.88.87-.67,1.72-1.38,2.54-2.13-1.49,0-2.92-.81-3.79-1.63-1.01-.07-1.47-.87-1.54-1.41-.06-.54.17-1,.62-1.25.51-.28,1.18-.19,1.69.23.45.37.54.81.57,1,.28.18.6.39.94.62.16.11.35.25.91.58l.04.02c.66.38,1.25.62,1.74.71.82-.81,1.61-1.67,2.36-2.55-1.63.22-3.2-.52-4.03-1.15-.02,0-.04,0-.06,0-.95,0-1.46-.73-1.58-1.24-.12-.54.07-1.04.51-1.34.49-.34,1.15-.33,1.69.02.46.3.61.7.66.9.36.18.71.38,1.03.55q.47.24,1,.48l.03.02c.69.29,1.3.45,1.79.48.14-.18.29-.37.43-.56h0c.22-.29.43-.58.64-.88-.17-.4-.48-.87-1.01-1.53l-.02-.02q-.37-.39-.78-.79c-.25-.22-.56-.5-.85-.79-.02,0-.04,0-.05,0-.89,0-1.37-.64-1.52-1.04-.2-.54-.08-1.08.31-1.44.43-.39,1.07-.47,1.65-.2.46.21.75.58.87,1.07.83.62,2.04,1.8,2.33,3.33.63-.96,1.23-1.95,1.77-2.95-.21-.42-.6-.87-1.18-1.4l-.03-.02c-.25-.22-.33-.29-.86-.7-.29-.2-.62-.44-.93-.69-.9.12-1.47-.48-1.67-.86-.26-.5-.21-1.06.13-1.45.38-.43.99-.57,1.6-.36.48.17.81.49.99.96.96.57,2.24,1.64,2.71,3.05.49-1,.96-2.03,1.36-3.07-.26-.4-.7-.81-1.36-1.28l-.04-.03c-.52-.36-.74-.48-.89-.57-.37-.23-.69-.43-.97-.61-.98.26-1.65-.39-1.87-.78-.26-.46-.24-.97.06-1.37.33-.44.9-.62,1.5-.48.49.11.85.4,1.09.85.94.43,2.38,1.32,3.03,2.73.36-1.03.69-2.08.96-3.13-.32-.38-.8-.75-1.49-1.14q-.48-.26-1-.51c-.33-.14-.7-.3-1.06-.48-.92.32-1.63-.24-1.89-.59-.31-.43-.35-.93-.1-1.35.27-.46.82-.7,1.42-.62.49.06.89.31,1.17.72,1.05.35,2.53,1.13,3.32,2.39.23-1.05.42-2.1.56-3.15-.36-.35-.88-.66-1.6-.98-.46-.21-.95-.37-1.04-.4-.4-.14-.76-.27-1.06-.39-.88.44-1.67-.05-1.97-.37-.36-.39-.46-.89-.26-1.33.22-.48.74-.75,1.33-.75.49.01.91.21,1.25.6,1,.23,2.58.8,3.54,2.01.1-1.05.16-2.09.17-3.13-.38-.27-.91-.52-1.71-.82h0c-.52-.15-.53-.16-1.07-.29-.35-.07-.75-.15-1.12-.25-.8.48-1.62.09-1.95-.19-.41-.35-.57-.83-.42-1.29.16-.49.63-.82,1.22-.86.49-.04.92.12,1.3.46,1.08.13,2.67.58,3.72,1.63-.03-1.03-.1-2.06-.22-3.07-.43-.26-.99-.47-1.74-.63h0s-.04,0-.04,0c-.34-.08-.46-.1-1.06-.18-.36-.04-.76-.08-1.15-.14-.73.55-1.58.25-1.94,0-.45-.3-.66-.78-.56-1.24.1-.49.52-.85,1.09-.96.48-.09.93.02,1.34.33,1.03.02,2.66.28,3.85,1.23-.11-.67-.23-1.33-.37-1.98l.19-.12-.2.05h0s-.22-.92-.22-.92c-.43-.21-1.02-.36-1.82-.44h-.05c-.4-.05-.43-.05-1.05-.08-.42-.02-.79-.03-1.11-.05-.65.64-1.55.43-1.94.23-.49-.26-.76-.71-.71-1.18.05-.48.42-.87.96-1.03.46-.13.93-.07,1.37.19.97-.06,2.59.01,3.89.82l-.88-2.66-.06-.16c-.42-.14-1-.22-1.85-.27h-.02c-.32,0-.36,0-1.07.03-.37.03-.75.07-1.12.09-.56.65-1.45.54-1.85.38-.52-.2-.85-.63-.85-1.1,0-.46.31-.88.82-1.08.44-.17.9-.16,1.38.05.86-.14,2.49-.27,3.91.41l-1.23-2.5-.08-.14c-.23-.05-.84-.16-1.86-.07h-.04s0,0,0,0c-.4.04-.42.04-1.02.13-.4.06-.75.12-1.06.16-.29.46-.81.65-1.32.65-.21,0-.42-.03-.61-.1-.51-.18-.85-.57-.89-1.02-.03-.39.18-.74.55-.99h8.74c-.37.24-.65.49-.83.72l1.45,2.88c.62-1.25,1.97-1.84,2.57-2.05.06-.18.21-.48.61-.61.52-.17,1.49.06,2.02,1.09.04.1.08.2.11.29.13.47.02.91-.3,1.16-.18.14-.4.21-.64.21s-.49-.07-.76-.2c-.28.12-.59.23-.91.33-.6.24-.64.26-.84.36l-.04.02c-.47.26-.94.54-1.23.82l1.04,3.04c.79-1.22,2.23-1.69,2.89-1.84.08-.18.27-.47.7-.57.54-.13,1.5.19,1.89,1.3.02.08.04.12.04.16.12.53-.04,1.03-.42,1.28-.17.11-.37.17-.58.17-.28,0-.59-.1-.89-.3-.25.08-.54.17-.91.28-.44.13-.51.15-.87.27l-.05.02c-.62.22-1.09.46-1.4.72h0s-.05.04-.05.04c-.02.02-.04.03-.06.05h-.01s-.06.02-.06.02h0s.19-.04.19-.04l-.19.11h0l.2-.05.06.23-.19.09h.21s.01.05.01.05l-.18.13.2-.05.04.17-.19.12h0l.2-.05.04.22c.15.68.29,1.42.4,2.16.79-.98,2.04-1.48,3.16-1.62.11-.17.33-.46.77-.52.58-.09,1.5.33,1.75,1.49l.02.16c.05.56-.19,1.04-.61,1.26-.15.08-.32.12-.49.12-.3,0-.62-.13-.93-.36-.3.07-.63.12-1,.18-.51.1-.67.13-.95.21h-.04s0,0,0,0c-.64.17-1.14.37-1.48.61.12,1.08.2,2.18.24,3.29,1.11-1.09,2.71-1.3,3.41-1.34.13-.16.4-.43.85-.45.58-.03,1.47.46,1.58,1.66v.06s0,.07,0,.11c-.02.57-.33,1.04-.79,1.21-.13.05-.26.07-.39.07-.34,0-.68-.16-.99-.44-.33.05-.68.07-1.04.09q-.43.05-.99.13h-.02s0,0,0,0c-.7.16-1.22.3-1.59.49-.01,1.11-.07,2.22-.17,3.33,1.26-1,2.9-1.07,3.6-1.04.15-.15.46-.39.91-.38.33.01.68.18.94.45.22.24.49.67.46,1.37v.05s-.01.08-.02.11c-.1.59-.47,1.04-.97,1.16-.09.02-.19.03-.28.03-.39,0-.76-.2-1.06-.57-.28.01-.62.02-1.02.03-.01,0-.55,0-1.02.04h-.03s-.03,0-.03,0c-.67.05-1.24.17-1.65.35-.15,1.11-.35,2.23-.59,3.34,1.38-.88,3-.81,3.76-.71.16-.13.5-.36.96-.3.33.04.67.24.9.54.2.26.41.71.3,1.41-.17.69-.61,1.16-1.15,1.24-.06,0-.12.01-.18.01-.41,0-.8-.23-1.09-.64-.34-.01-.7-.06-1.08-.1q-.44-.03-1.03-.05h-.05c-.69-.02-1.28.05-1.72.19-.29,1.11-.62,2.22-1,3.3,1.51-.76,3.17-.53,3.88-.37.18-.12.55-.32,1.01-.22.33.07.65.3.84.62.17.28.33.76.13,1.45-.26.69-.77,1.12-1.35,1.14-.01,0-.03,0-.04,0-.47,0-.89-.29-1.14-.78-.28-.04-.62-.09-1.04-.16-.16-.03-.34-.07-1-.15h-.05c-.74-.08-1.35-.08-1.81.02-.43,1.09-.91,2.17-1.42,3.22,1.6-.61,3.22-.25,3.96-.01.19-.1.59-.27,1.04-.13.33.1.62.36.78.7.14.3.24.79-.04,1.46-.34.64-.88,1.02-1.43,1.02-.03,0-.06,0-.1,0-.47-.04-.85-.36-1.06-.85-.32-.07-.67-.17-1.06-.29-.57-.15-.73-.19-1.02-.24h-.05c-.73-.15-1.34-.2-1.8-.15-.57,1.05-1.19,2.08-1.84,3.08,1.75-.47,3.4.1,4,.36.21-.09.63-.22,1.07-.04.32.13.58.41.7.75.11.31.16.82-.22,1.48-.39.56-.92.88-1.45.88-.08,0-.17,0-.25-.02-.46-.09-.79-.44-.93-.94-.32-.1-.66-.24-1.03-.39q-.42-.15-1.01-.34h0c-.8-.2-1.37-.32-1.84-.32h0c-.18.25-.37.5-.55.75h0s-.13.17-.13.17c0,0,0,0,0,0l-.12.15h0c-.11.14-.21.28-.32.41.15.48.43,1,.86,1.59l.02.02q.39.51.66.83c.23.25.48.52.69.81.19-.02.5,0,.81.17.29.17.5.48.56.83.06.32.03.82-.44,1.4-.08.08-.17.18-.25.24-.34.28-.74.42-1.13.42-.24,0-.46-.05-.66-.17-.42-.24-.63-.68-.59-1.22-.76-.84-1.34-2.15-1.34-2.16-.12-.35-.24-.85-.26-1.43-.2.23-.39.47-.59.69h.02s-.03,0-.03,0c-.59.67-1.21,1.32-1.84,1.94.09.46.33,1,.71,1.63l.03.05c.36.56.45.69.55.82.22.33.42.61.58.86.19,0,.52.03.82.25.28.2.46.53.48.88.02.31-.06.78-.57,1.28-.09.07-.19.15-.27.2-.3.19-.64.29-.97.29s-.61-.09-.85-.26c-.38-.28-.55-.72-.46-1.22-.66-.87-1.1-2.15-1.15-2.36-.09-.44-.12-.87-.1-1.28-.2.19-.41.38-.61.56h.14s-.19.05-.19.05c-.65.57-1.32,1.12-1.99,1.64.06.43.25.95.53,1.64h0q.26.53.48.92c.18.28.37.59.53.89.19.03.49.1.75.33.26.23.41.57.4.92-.01.3-.14.73-.69,1.14-.09.06-.2.12-.29.16-.25.11-.52.17-.78.17-.39,0-.77-.13-1.04-.37-.34-.31-.45-.74-.32-1.21-.57-.91-.89-2.19-.92-2.4-.05-.44-.03-.86.03-1.26-.92.65-1.88,1.28-2.85,1.85,0,.44.13.99.38,1.64.1.26.16.42.39.93.15.3.31.61.44.92.18.05.47.15.71.4.25.26.37.6.32.94-.04.28-.22.69-.81,1.03-.1.05-.21.1-.3.12-.19.06-.39.09-.58.09-.49,0-.94-.19-1.23-.54-.28-.34-.34-.76-.17-1.16-.48-.94-.67-2.18-.68-2.34,0-.45.05-.88.16-1.27-.98.52-1.98,1.01-2.99,1.44-.03.42.03.95.22,1.61v.05s.01,0,.01,0c.15.51.25.78.28.88.13.31.25.63.35.93.17.07.45.2.67.47.23.28.31.63.23.95-.07.27-.28.63-.89.88l-.16.05c-.16.04-.33.06-.5.06-.56,0-1.1-.24-1.39-.64-.26-.35-.28-.76-.08-1.15-.36-.9-.47-2.12-.42-2.54.04-.35.12-.69.24-1-1.02.38-2.05.73-3.08,1.02-.07.4-.05.92.06,1.56.05.29.09.45.21.93.09.29.19.62.26.93.17.08.43.24.62.53.2.3.25.64.14.94-.09.25-.34.58-.97.74l-.16.03c-.08.01-.17.02-.25.02-.66,0-1.32-.33-1.59-.83-.2-.36-.17-.74.06-1.08-.28-.91-.28-2.04-.19-2.47.07-.33.19-.64.34-.93-1.04.24-2.09.45-3.14.6-.11.39-.14.88-.08,1.49v.06s0,0,0,0c.06.54.09.72.12.84.06.35.1.65.13.9.15.1.42.29.6.6.17.31.19.65.05.93-.12.23-.39.52-1.04.59h-.06s-.07,0-.1,0h0c-.76,0-1.52-.45-1.75-1.05-.14-.35-.07-.71.18-.99-.19-.91-.08-1.99.04-2.38.1-.31.25-.58.42-.84-.64.06-1.28.11-1.91.14h0s-.27.01-.27.01h-.16s0,0,0,0h-.34s-.07-.2-.07-.2v.21s-.37,0-.37,0l-.03-.06c-.12.29-.19.73-.24,1.46h0c.01.5.01.51.04.88.03.28.07.6.08.89.14.12.37.32.5.62.14.31.12.65-.05.9-.13.2-.42.43-1.02.43-.02,0-.03,0-.05,0h-.06s-.07-.01-.1-.02c-.77-.11-1.49-.67-1.64-1.28-.08-.32.01-.63.26-.85-.13-.8-.03-1.93.61-2.81.06-.08.13-.14.2-.21l-2.77-.21-.4-.05c-.16.3-.27.71-.33,1.25h0s0,.04,0,.04c-.02.2-.03.25-.05.84,0,.32-.02.6-.03.82.13.12.36.36.47.69.11.32.07.63-.11.85-.12.15-.35.3-.77.3-.11,0-.22,0-.35-.03-.1-.02-.21-.05-.3-.08-.75-.27-1.33-.92-1.35-1.51-.01-.28.11-.52.33-.67-.05-.78.15-1.82.86-2.57.06-.06.12-.12.19-.18l-2.75-.61-.32-.09c-.18.28-.32.71-.45,1.15h0c-.07.43-.08.45-.12.78-.02.27-.04.55-.08.8.11.14.3.39.37.69.08.32.02.61-.18.79-.11.1-.29.2-.57.2-.16,0-.35-.03-.57-.1-.09-.04-.2-.08-.28-.12-.72-.38-1.24-1.11-1.19-1.66.02-.26.17-.46.41-.57.02-.4.1-.85.28-1.26.21-.5.54-.9.95-1.16l-2.63-1.02-.29-.14c-.19.23-.37.6-.52.98v.02c-.06.15-.08.22-.2.71-.04.25-.08.51-.15.74.1.15.25.41.3.71.05.31-.04.57-.24.72-.09.07-.22.12-.41.12s-.44-.06-.75-.22c-.15-.09-.3-.17-.5-.35-.6-.53-.9-1.22-.75-1.67.07-.2.22-.34.43-.39.06-.38.19-.79.41-1.15.25-.41.58-.71.98-.89-.94-.5-1.73-.96-2.6-1.53v-2.06Z" fill="none"/>
        <polygon points="499.11 186.58 490.25 186.58 494.69 195.77 499.11 186.58" fill="none"/>
        <polygon points="284.79 280.25 284.78 280.26 284.79 280.3 284.79 280.25" fill="none"/>
        <polygon points="305.44 273.27 305.44 273.27 305.44 273.27 305.44 273.27" fill="none"/>
        <polygon points="483.28 198.03 488.46 208.76 493.61 198.03 488.43 187.31 483.28 198.03" fill="none"/>
        <polygon points="486.6 186.58 477.75 186.58 482.19 195.77 486.6 186.58" fill="none"/>
        <polygon points="436.59 186.58 427.74 186.58 432.18 195.77 436.59 186.58" fill="none"/>
        <polygon points="449.09 186.58 440.24 186.58 444.68 195.77 449.09 186.58" fill="none"/>
        <rect x="156.16" y="394.76" width="13.89" height="6.72" fill="none"/>
        <rect x="89.55" y="394.76" width="13.89" height="6.88" fill="none"/>
        <rect x="121.4" y="394.92" width="15.62" height="16.67" fill="none"/>
        <polygon points="322.5 231.72 322.5 231.72 322.5 231.72 322.5 231.72" fill="none"/>
        <polygon points="322.63 232.27 322.63 232.27 322.63 232.28 322.63 232.27" fill="none"/>
        <polygon points="474.1 186.58 465.25 186.58 469.69 195.77 474.1 186.58" fill="none"/>
        <polygon points="461.6 186.58 452.74 186.58 457.18 195.77 461.6 186.58" fill="none"/>
        <polygon points="269.31 281.64 269.31 281.64 269.3 281.63 269.31 281.64" fill="none"/>
        <polygon points="444.68 200.29 439.53 211.01 444.71 221.74 449.86 211.01 444.68 200.29" fill="none"/>
        <rect x="388.59" y="394.76" width="13.89" height="6.72" fill="none"/>
        <polygon points="475.95 208.76 481.1 198.03 475.93 187.31 470.78 198.03 475.95 208.76" fill="none"/>
        <polygon points="450.95 208.76 456.1 198.03 450.92 187.31 445.77 198.03 450.95 208.76" fill="none"/>
        <polygon points="423.91 406.87 434.22 406.87 429.06 395.8 423.91 406.87" fill="none"/>
        <polygon points="463.45 208.76 468.6 198.03 463.42 187.31 458.27 198.03 463.45 208.76" fill="none"/>
        <polygon points="438.42 187.31 433.27 198.03 438.44 208.76 443.59 198.03 438.42 187.31" fill="none"/>
        <rect x="493.87" y="394.92" width="15.62" height="16.67" fill="none"/>
        <polygon points="464.57 236.98 469.75 247.7 474.9 236.98 469.72 226.25 464.57 236.98" fill="none"/>
        <polygon points="477.04 211.01 482.22 221.74 487.37 211.01 482.19 200.29 477.04 211.01" fill="none"/>
        <polygon points="458.34 249.96 463.52 260.68 468.66 249.96 463.49 239.24 458.34 249.96" fill="none"/>
        <rect x="323.83" y="394.92" width="15.34" height="16.67" fill="none"/>
        <polygon points="470.81 223.99 475.99 234.72 481.14 224 475.96 213.27 470.81 223.99" fill="none"/>
        <polygon points="469.72 221.74 474.87 211.01 469.69 200.29 464.54 211.01 469.72 221.74" fill="none"/>
        <polygon points="457.22 226.25 452.07 236.98 457.25 247.7 462.4 236.98 457.22 226.25" fill="none"/>
        <polygon points="458.3 223.99 463.48 234.72 468.63 224 463.45 213.27 458.3 223.99" fill="none"/>
        <polygon points="457.21 221.74 462.36 211.01 457.19 200.29 452.04 211.01 457.21 221.74" fill="none"/>
        <polygon points="450.95 213.27 445.8 223.99 450.98 234.72 456.13 224 450.95 213.27" fill="none"/>
        <polygon points="56.36 400.35 56.36 394.59 70.53 394.59 70.53 397.78 76.73 397.78 76.73 393.39 72.5 389.16 54.39 389.16 50.16 393.39 50.16 401.92 54.15 405.91 70.69 405.91 70.69 411.9 56.2 411.9 56.2 408.52 50 408.52 50 413.11 54.23 417.34 72.66 417.34 76.89 413.11 76.89 404.34 72.91 400.35 56.36 400.35" fill="#fff"/>
        <path d="M83.35,389.16v28.18h6.2v-10.1h15.86l4.22-4.23v-9.62l-4.22-4.23h-22.06ZM103.44,401.64h-13.89v-6.88h13.89v6.88Z" fill="#fff"/>
        <path d="M119.43,389.16l-4.22,4.23v19.72l4.22,4.23h19.56l4.22-4.23v-19.72l-4.22-4.23h-19.56ZM137.02,411.58h-15.62v-16.67h15.62v16.67Z" fill="#fff"/>
        <path d="M172.02,407.07l4.22-4.23v-9.46l-4.22-4.23h-22.06v28.18h6.2v-10.26h9.26l5.36,10.26h6.56l-5.4-10.26h.08ZM170.05,401.48h-13.89v-6.72h13.89v6.72Z" fill="#fff"/>
        <polygon points="180.25 394.92 190.84 394.92 190.84 417.34 197.03 417.34 197.03 394.92 207.58 394.92 207.58 389.16 180.25 389.16 180.25 394.92" fill="#fff"/>
        <polygon points="217.74 400.35 217.74 394.59 231.91 394.59 231.91 397.78 238.11 397.78 238.11 393.39 233.89 389.16 215.77 389.16 211.54 393.39 211.54 401.92 215.53 405.91 232.07 405.91 232.07 411.9 217.58 411.9 217.58 408.52 211.38 408.52 211.38 413.11 215.61 417.34 234.05 417.34 238.27 413.11 238.27 404.34 234.29 400.35 217.74 400.35" fill="#fff"/>
        <polygon points="258.38 417.34 264.58 417.34 264.58 406.27 278.91 406.27 278.91 400.75 264.58 400.75 264.58 394.72 282.82 394.72 282.82 389.16 258.38 389.16 258.38 417.34" fill="#fff"/>
        <polygon points="293.54 405.99 307.55 405.99 307.55 400.47 293.54 400.47 293.54 394.72 311.98 394.72 311.98 389.16 287.34 389.16 287.34 417.34 312.14 417.34 312.14 411.78 293.54 411.78 293.54 405.99" fill="#fff"/>
        <path d="M317.63,389.16v28.18h23.51l4.22-4.23v-19.72l-4.22-4.23h-23.51ZM339.16,411.58h-15.34v-16.67h15.34v16.67Z" fill="#fff"/>
        <polygon points="358.3 405.99 372.31 405.99 372.31 400.47 358.3 400.47 358.3 394.72 376.74 394.72 376.74 389.16 352.1 389.16 352.1 417.34 376.9 417.34 376.9 411.78 358.3 411.78 358.3 405.99" fill="#fff"/>
        <path d="M404.45,407.07l4.22-4.23v-9.46l-4.22-4.23h-22.06v28.18h6.2v-10.26h9.26l5.36,10.26h6.56l-5.39-10.26h.08ZM402.48,401.48h-13.89v-6.72h13.89v6.72Z" fill="#fff"/>
        <path d="M426.24,389.16l-13.81,28.18h6.6l2.29-4.91h15.46l2.29,4.91h6.76l-13.77-28.18h-5.84ZM423.91,406.87l5.15-11.07,5.15,11.07h-10.3Z" fill="#fff"/>
        <polygon points="442.56 394.92 453.15 394.92 453.15 417.34 459.35 417.34 459.35 394.92 469.9 394.92 469.9 389.16 442.56 389.16 442.56 394.92" fill="#fff"/>
        <rect x="474.66" y="389.16" width="6.2" height="28.18" fill="#fff"/>
        <path d="M491.89,389.16l-4.23,4.23v19.72l4.23,4.23h19.56l4.22-4.23v-19.72l-4.22-4.23h-19.56ZM509.49,411.58h-15.62v-16.67h15.62v16.67Z" fill="#fff"/>
        <polygon points="544.08 407.88 528.22 389.16 522.43 389.16 522.43 417.34 528.34 417.34 528.34 398.58 544.28 417.34 550 417.34 550 389.16 544.08 389.16 544.08 407.88" fill="#fff"/>
        <polygon points="134.83 221.92 138.9 221.92 138.9 218.07 145.23 218.07 145.23 214 138.9 214 138.9 208.91 145.23 208.91 145.23 204.84 138.9 204.84 138.9 199.74 145.23 199.74 145.23 195.67 138.9 195.67 138.9 190.58 145.23 190.58 145.23 186.51 138.9 186.51 138.9 182.66 134.83 182.66 134.83 186.51 128.5 186.51 128.5 190.58 134.83 190.58 134.83 195.67 128.5 195.67 128.5 199.74 134.83 199.74 134.83 204.84 128.5 204.84 128.5 208.91 134.83 208.91 134.83 214 128.5 214 128.5 218.07 134.83 218.07 134.83 221.92" fill="#3f8e2d"/>
        <path d="M269.18,279.07c-.22.36-.35.77-.41,1.15-.21.05-.36.19-.43.39-.15.45.15,1.14.75,1.67.2.18.35.27.5.35.32.16.56.22.75.22s.32-.06.41-.12c.2-.15.29-.41.24-.72-.05-.29-.2-.55-.3-.71.06-.23.1-.49.15-.74.12-.5.14-.56.19-.71v-.02c.16-.38.33-.75.53-.98l.29.14,2.63,1.02c-.41.27-.73.66-.95,1.16-.18.42-.26.86-.28,1.26-.24.11-.38.31-.41.57-.05.56.47,1.29,1.19,1.66.08.04.19.09.28.12.23.07.42.1.57.1.28,0,.46-.1.57-.2.2-.18.26-.47.18-.79-.08-.3-.26-.55-.37-.69.04-.25.06-.53.08-.8.04-.33.04-.34.12-.78h0c.12-.44.27-.87.45-1.15l.32.09,2.75.61c-.07.06-.13.11-.19.18-.71.74-.91,1.79-.86,2.57-.22.15-.35.39-.33.67.02.59.6,1.24,1.35,1.51.08.03.2.06.3.08.13.02.25.03.35.03.42,0,.65-.15.77-.3.18-.22.22-.53.11-.85-.11-.33-.34-.57-.47-.69.02-.23.02-.5.03-.82.02-.58.02-.63.05-.84v-.04s0,0,0,0c.06-.54.17-.95.33-1.25l.4.05,2.77.21c-.06.07-.14.13-.2.21-.64.88-.74,2-.61,2.81-.24.22-.34.53-.26.85.15.61.87,1.17,1.64,1.28.03,0,.07,0,.1.01h.06s.03,0,.05,0c.6,0,.89-.23,1.02-.43.17-.25.18-.59.05-.9-.13-.3-.36-.51-.5-.62,0-.29-.05-.61-.08-.89-.02-.36-.02-.38-.04-.88h0c.05-.74.12-1.17.24-1.46l.03.06h.37s0-.21,0-.21l.07.21h.34s0,0,0,0h.16s.27,0,.27,0h0c.63-.04,1.27-.09,1.91-.15-.17.25-.32.53-.42.84-.13.38-.23,1.47-.04,2.38-.25.28-.32.64-.18.99.24.6.99,1.05,1.75,1.05h0s.06,0,.1,0h.06c.64-.08.92-.37,1.04-.6.14-.28.12-.61-.05-.93-.17-.32-.45-.51-.6-.6-.03-.25-.08-.55-.13-.9-.02-.13-.06-.3-.12-.84h0s0-.07,0-.07c-.06-.61-.03-1.1.08-1.49,1.05-.15,2.1-.35,3.14-.6-.15.28-.27.59-.34.93-.09.43-.09,1.56.19,2.47-.23.34-.26.73-.06,1.08.27.5.93.83,1.59.83.08,0,.17,0,.25-.02l.16-.03c.63-.16.88-.5.97-.74.11-.3.06-.65-.14-.94-.19-.28-.45-.44-.62-.53-.07-.31-.17-.64-.26-.93-.12-.49-.16-.64-.21-.93-.12-.64-.13-1.16-.06-1.56,1.03-.29,2.06-.64,3.08-1.02-.12.31-.2.64-.24,1-.05.42.06,1.64.42,2.54-.2.39-.18.8.08,1.15.3.4.84.64,1.39.64.17,0,.34-.02.5-.06l.16-.05c.61-.25.82-.62.89-.88.08-.32,0-.67-.23-.95-.21-.27-.5-.4-.67-.47-.1-.31-.22-.62-.35-.93-.04-.1-.13-.37-.28-.88h0s-.01-.06-.01-.06c-.19-.66-.25-1.19-.22-1.61,1.01-.43,2.01-.92,2.99-1.44-.11.4-.16.82-.16,1.27,0,.16.2,1.41.68,2.34-.17.4-.11.82.17,1.16.29.35.74.54,1.23.54.19,0,.39-.03.58-.09.09-.03.2-.08.3-.12.59-.33.76-.74.81-1.03.05-.34-.07-.68-.32-.94-.24-.25-.53-.35-.71-.4-.12-.31-.28-.62-.44-.92-.23-.5-.3-.67-.39-.93-.25-.65-.37-1.2-.38-1.64.97-.57,1.92-1.19,2.85-1.85-.07.4-.08.82-.03,1.26.02.2.35,1.49.92,2.4-.13.46-.02.9.32,1.21.27.25.65.37,1.04.37.26,0,.53-.06.78-.17.09-.04.19-.1.29-.16.55-.41.68-.85.69-1.14.01-.35-.14-.69-.4-.92-.26-.23-.57-.3-.75-.33-.16-.31-.35-.61-.53-.89q-.22-.39-.48-.91h0c-.29-.7-.48-1.22-.53-1.65.68-.52,1.34-1.07,1.99-1.64l.19-.06h-.14c.21-.17.41-.36.61-.55-.02.41,0,.84.1,1.28.04.21.49,1.49,1.15,2.36-.09.51.07.95.46,1.22.24.17.54.26.85.26.33,0,.67-.1.97-.29.08-.05.18-.13.27-.2.52-.5.6-.97.57-1.28-.03-.35-.21-.68-.48-.88-.31-.22-.64-.25-.82-.25-.16-.25-.35-.53-.58-.86-.09-.13-.19-.26-.55-.82l-.03-.05c-.38-.63-.62-1.17-.71-1.63.63-.62,1.24-1.27,1.84-1.94h.03s-.02,0-.02,0c.2-.23.4-.46.59-.69.02.58.14,1.08.26,1.43,0,.01.58,1.32,1.34,2.16-.05.54.17.99.59,1.22.2.11.43.17.66.17.38,0,.79-.14,1.13-.42.08-.06.17-.16.25-.24.47-.58.5-1.08.44-1.4-.06-.35-.27-.66-.56-.83-.3-.18-.62-.18-.81-.17-.22-.29-.47-.56-.69-.81q-.26-.32-.66-.83l-.02-.02c-.42-.58-.7-1.11-.86-1.59.11-.14.21-.28.32-.42h0s.12-.15.12-.15c0,0,0,0,0,0l.13-.17h0c.19-.25.37-.5.55-.75h0c.46,0,1.04.12,1.84.31h0q.59.19,1.01.35c.37.15.71.29,1.03.39.14.5.47.85.93.94.08.02.17.02.25.02.52,0,1.06-.32,1.45-.88.38-.66.33-1.16.22-1.48-.12-.35-.38-.63-.7-.75-.44-.18-.85-.05-1.07.04-.6-.26-2.26-.83-4-.36.66-1,1.28-2.04,1.84-3.08.47-.05,1.08,0,1.8.13h.05c.29.07.46.11,1.02.26.39.12.74.22,1.06.29.2.5.59.82,1.06.85.03,0,.06,0,.1,0,.56,0,1.09-.38,1.43-1.02.28-.67.18-1.17.04-1.46-.16-.34-.45-.6-.78-.7-.46-.14-.85.03-1.04.13-.74-.23-2.36-.6-3.96.01.52-1.05,1-2.13,1.42-3.22.46-.1,1.07-.11,1.81-.02h.05c.66.09.84.12,1,.15.42.07.76.13,1.04.16.26.49.67.78,1.14.78.01,0,.03,0,.04,0,.57-.02,1.08-.45,1.35-1.14.2-.69.04-1.17-.13-1.45-.19-.32-.51-.55-.84-.62-.46-.1-.83.11-1.01.22-.72-.15-2.37-.38-3.88.37.38-1.09.72-2.2,1-3.3.44-.14,1.03-.21,1.72-.2h.05q.59.03,1.03.06c.38.05.74.09,1.08.1.28.41.67.64,1.09.64.06,0,.12,0,.18-.01.54-.09.99-.56,1.15-1.24.11-.69-.1-1.15-.3-1.41-.23-.3-.56-.5-.9-.54-.46-.05-.8.17-.96.3-.76-.1-2.39-.17-3.76.71.24-1.1.44-2.22.59-3.34.42-.18.98-.3,1.65-.35h.03s.03,0,.03,0c.47-.04,1.01-.04,1.02-.04.4,0,.74-.01,1.02-.03.31.37.68.57,1.06.57.09,0,.19-.01.28-.03.5-.13.87-.57.97-1.16,0-.03.01-.08.01-.11v-.05c.03-.7-.23-1.13-.46-1.37-.25-.27-.6-.44-.94-.45-.44,0-.76.24-.91.38-.71-.02-2.34.04-3.6,1.04.1-1.11.16-2.23.17-3.33.37-.19.89-.33,1.59-.49h0s.02,0,.02,0q.57-.08.99-.13c.36-.02.71-.04,1.04-.09.31.29.65.44.99.44.13,0,.26-.02.39-.07.46-.18.76-.64.79-1.21,0-.03,0-.07,0-.11v-.06c-.11-1.2-1-1.69-1.58-1.66-.45.02-.72.29-.85.45-.7.04-2.29.25-3.41,1.34-.03-1.1-.11-2.2-.24-3.29.34-.24.84-.44,1.48-.61h0s.04,0,.04,0c.27-.08.44-.11.95-.21.37-.05.71-.11,1-.18.3.23.62.36.93.36.17,0,.34-.04.49-.12.42-.22.66-.7.61-1.26l-.02-.16c-.25-1.16-1.17-1.58-1.75-1.49-.44.06-.67.35-.77.52-1.12.14-2.37.64-3.16,1.62-.12-.74-.25-1.47-.4-2.16l-.04-.22-.2.05h0l.19-.12-.04-.17-.2.05.18-.13v-.05s-.23,0-.23,0l.19-.09-.06-.23-.2.05h0l.19-.11-.19.05h0s.06-.04.06-.04h.01s.04-.02.06-.04l.05-.03h0c.31-.27.78-.51,1.4-.73l.05-.02c.36-.12.43-.14.87-.27.37-.11.67-.2.91-.28.3.19.61.3.89.3.21,0,.41-.06.58-.17.38-.26.54-.75.42-1.28,0-.03-.02-.08-.04-.16-.4-1.11-1.35-1.43-1.89-1.3-.43.1-.61.39-.7.57-.66.16-2.1.62-2.89,1.84l-1.04-3.04c.29-.28.76-.56,1.23-.82l.04-.02c.2-.1.24-.12.84-.36.32-.11.63-.21.91-.33.27.13.53.2.76.2s.46-.07.64-.21c.32-.25.43-.69.3-1.16-.02-.08-.07-.19-.11-.29-.54-1.03-1.51-1.26-2.02-1.09-.4.13-.55.43-.61.61-.61.21-1.96.8-2.57,2.05l-1.45-2.88c.18-.24.46-.48.83-.72h-8.74c-.37.24-.58.6-.55.99.03.45.37.84.89,1.02.19.06.4.1.61.1.5,0,1.02-.2,1.32-.65.31-.04.66-.1,1.06-.16.6-.09.62-.09,1.02-.13h0s.04,0,.04,0c1.02-.09,1.63.02,1.86.07l.08.14,1.23,2.5c-1.43-.67-3.05-.55-3.91-.41-.48-.21-.94-.23-1.38-.05-.5.2-.82.61-.82,1.08,0,.48.33.9.85,1.1.4.16,1.29.27,1.85-.38.37-.02.75-.05,1.12-.09.71-.03.75-.04,1.07-.03h.02c.84.05,1.43.13,1.85.27l.06.16.88,2.66c-1.3-.8-2.92-.88-3.89-.82-.45-.26-.91-.33-1.37-.19-.54.15-.91.55-.96,1.03-.05.47.22.92.71,1.18.39.2,1.29.41,1.94-.23.32.02.69.04,1.11.05.61.03.64.03,1.05.07h.05c.79.1,1.39.24,1.82.45l.22.92h0s.2-.05.2-.05l-.19.12c.14.65.26,1.31.37,1.98-1.19-.95-2.82-1.21-3.85-1.23-.41-.3-.86-.41-1.34-.33-.57.1-.99.47-1.09.96-.1.46.12.94.56,1.24.36.24,1.21.54,1.94,0,.39.06.8.1,1.15.14.6.09.73.11,1.06.18h.04s0,0,0,0c.75.16,1.31.36,1.74.63.11,1,.18,2.03.22,3.07-1.05-1.05-2.64-1.49-3.72-1.63-.37-.34-.81-.5-1.3-.46-.59.05-1.06.38-1.22.86-.15.46,0,.94.42,1.29.33.28,1.15.67,1.95.19.38.1.77.18,1.12.25.53.14.55.14,1.07.29h0c.8.3,1.33.55,1.71.82-.01,1.04-.07,2.08-.17,3.13-.96-1.22-2.54-1.79-3.54-2.01-.33-.38-.75-.59-1.25-.6-.59,0-1.11.27-1.33.75-.2.44-.1.94.26,1.33.3.32,1.09.81,1.97.37.31.12.66.24,1.06.39.09.03.57.2,1.04.4.73.32,1.25.63,1.6.98-.14,1.05-.33,2.11-.56,3.15-.79-1.26-2.27-2.03-3.32-2.39-.29-.42-.68-.66-1.17-.72-.6-.08-1.15.16-1.42.62-.25.42-.21.93.1,1.35.26.35.97.91,1.89.59.36.18.73.34,1.06.48q.51.25,1,.51c.69.39,1.17.76,1.49,1.14-.27,1.05-.6,2.1-.96,3.13-.66-1.41-2.09-2.3-3.03-2.73-.24-.45-.6-.74-1.09-.85-.6-.14-1.17.05-1.5.48-.3.4-.32.91-.06,1.37.22.39.89,1.04,1.87.78.27.18.6.38.97.61.16.09.37.22.89.57l.04.03c.66.47,1.1.88,1.36,1.28-.41,1.04-.87,2.06-1.36,3.07-.47-1.42-1.75-2.48-2.71-3.05-.18-.47-.51-.8-.99-.96-.62-.21-1.23-.07-1.6.36-.34.39-.39.95-.13,1.45.2.38.77.98,1.67.86.31.25.64.49.93.69.53.41.61.48.86.7l.03.02c.59.53.97.98,1.18,1.4-.55,1-1.14,1.99-1.77,2.95-.29-1.53-1.5-2.71-2.33-3.33-.12-.5-.41-.86-.87-1.07-.58-.27-1.23-.19-1.65.2-.39.36-.51.9-.31,1.44.15.4.63,1.04,1.52,1.04.02,0,.04,0,.05,0,.28.29.59.56.85.79q.41.4.78.79l.02.02c.54.66.85,1.13,1.01,1.53-.21.29-.42.59-.64.88h0c-.14.19-.29.37-.43.56-.5-.02-1.1-.18-1.79-.48l-.03-.02q-.53-.24-1-.48c-.31-.18-.67-.38-1.03-.55-.06-.2-.2-.61-.66-.9-.54-.35-1.2-.36-1.69-.02-.44.3-.63.81-.51,1.34.11.51.62,1.24,1.58,1.24.02,0,.04,0,.06,0,.83.62,2.4,1.37,4.03,1.15-.75.89-1.54,1.74-2.36,2.55-.49-.09-1.08-.32-1.74-.71l-.04-.02c-.55-.33-.74-.47-.91-.58-.35-.23-.66-.44-.94-.62-.03-.19-.12-.62-.57-1-.51-.42-1.18-.51-1.69-.23-.45.24-.68.71-.62,1.25.06.54.52,1.34,1.54,1.41.88.82,2.3,1.62,3.79,1.63-.82.75-1.67,1.46-2.54,2.13-.57-.18-1.16-.56-1.65-.88l-.02-.02q-.43-.33-.87-.68c-.27-.24-.57-.51-.88-.76-.01-.2-.08-.61-.46-1-.47-.48-1.13-.65-1.67-.42-.45.19-.72.61-.71,1.13,0,.53.39,1.38,1.39,1.56.79.89,2.11,1.84,3.56,2.03-.88.62-1.78,1.2-2.7,1.74-.46-.19-.98-.55-1.53-1.03l-.04-.04c-.26-.23-.37-.34-.78-.76-.24-.26-.51-.56-.79-.84,0-.2-.01-.6-.35-1.02-.43-.54-1.07-.77-1.63-.61-.45.13-.75.51-.79,1.01-.05.52.24,1.39,1.22,1.69.69.96,1.9,2.03,3.3,2.38-.92.49-1.87.94-2.82,1.35-.44-.24-.92-.65-1.43-1.22l-.03-.03c-.35-.4-.56-.67-.68-.81-.22-.3-.45-.62-.69-.91.03-.19.04-.58-.25-1.03-.37-.58-1-.89-1.56-.78-.44.08-.77.41-.86.88-.1.5.1,1.37,1.02,1.78.58,1.01,1.66,2.19,3.03,2.71-.95.36-1.92.67-2.89.94-.41-.29-.85-.74-1.28-1.31l-.03-.05c-.21-.28-.28-.39-.61-.89-.18-.31-.39-.65-.59-.97.05-.19.1-.56-.14-1.03-.31-.62-.91-1-1.49-.95-.43.04-.77.32-.91.75-.15.47-.04,1.33.8,1.84.45.92,1.27,1.96,1.77,2.38.3.25.61.46.94.62-.97.22-1.95.4-2.92.54-.38-.33-.77-.82-1.15-1.47l-.02-.03c-.31-.54-.42-.77-.49-.92-.19-.38-.35-.69-.5-.97.06-.16.18-.53-.02-1.05-.25-.65-.81-1.09-1.4-1.11-.44,0-.78.21-.95.61-.19.44-.18,1.31.64,1.92.36,1.06,1.16,2.39,2.34,3.2-.59.05-1.18.09-1.76.11h0s-.32.02-.32.02h0s-.06,0-.06,0h0s0,0,0,0h-.05s.06.19.06.19h0s-.09-.19-.09-.19v.21s-.06-.21-.06-.21v.21s-.08-.21-.08-.21v.21s-.09-.21-.09-.21v.21s-.07-.21-.07-.21v.21s-.08-.21-.08-.21h-.05s0,.21,0,.21l-.06-.21v.21s-.06-.21-.06-.21v.15s-.06-.15-.06-.15h-.09c-.43-.46-.77-1.11-1-1.55v-.02q-.23-.49-.42-.97c-.12-.34-.24-.7-.38-1.04.08-.16.2-.5.07-.99-.18-.66-.71-1.18-1.29-1.26-.41-.06-.76.12-.97.47-.24.4-.31,1.23.41,1.92.25.96.81,2.08,1.24,2.62.23.29.48.55.74.77l-2.84-.26c-.31-.4-.59-.95-.83-1.6v-.05c-.12-.3-.14-.35-.32-.99-.11-.39-.2-.71-.29-1,.1-.14.27-.45.18-.98-.12-.68-.6-1.26-1.17-1.4-.39-.1-.75.02-.99.33-.28.35-.44,1.16.23,1.94.13,1.05.62,2.45,1.59,3.5l-2.75-.67c-.33-.54-.53-1.22-.67-1.68v-.03q-.12-.5-.21-1c-.05-.35-.1-.71-.16-1.04.19-.24.28-.53.26-.88-.05-.81-.59-1.4-1.09-1.56-.38-.12-.74-.02-1,.29-.23.29-.46.99.1,1.83.02,1.02.36,2.42,1.19,3.56l-2.6-1.06c-.27-.57-.41-1.25-.5-1.71h0s0-.04,0-.04c-.05-.32-.06-.42-.11-.98-.01-.33-.03-.68-.06-1.02.21-.2.33-.47.34-.81.03-.81-.46-1.47-.95-1.7-.35-.16-.71-.12-.98.13-.25.22-.57.89-.09,1.8-.07.94.1,2.31.79,3.55-.85-.46-1.58-.9-2.42-1.45-.06-.15-.1-.3-.14-.46v2.06c.87.57,1.66,1.03,2.6,1.53-.4.18-.73.48-.98.89ZM269.31,281.64s0,0,0,0c0,0,0,0,0,0h0ZM322.63,232.27h0s0,0,0,0h0ZM322.55,231.91h0,0ZM322.5,231.72h0s0,0,0,0h0ZM322.46,231.54h0,0ZM320.63,226.08s0,0,0,0h0s0,0,0,0ZM321.24,232.25h0,0ZM321.29,232.45h0,0ZM316.65,238.25s0,0,0,0h0s0,0,0,0ZM316.61,242.45s0,0,0,0h0s0,0,0,0ZM305.44,273.27s0,0,0,0h0ZM284.79,280.25v.05s-.01-.04-.01-.04h.01Z" fill="#ba0c2f"/>
        <polygon points="407.65 376.9 451.49 376.9 550 182.66 506.14 182.66 463.42 272.84 420.4 182.66 376.29 182.66 441.23 312.8 423.34 346.94 382.91 346.94 367.59 376.9 407.65 376.9" fill="#fff"/>
        <polygon points="358.87 346.94 343.54 376.9 347.48 376.9 362.8 346.94 358.87 346.94" fill="#fff"/>
        <polygon points="345.77 346.94 330.09 376.9 339.47 376.9 354.79 346.94 345.77 346.94" fill="#fff"/>
        <polygon points="363.51 376.9 378.83 346.94 374.9 346.94 359.58 376.9 363.51 376.9" fill="#fff"/>
        <polygon points="370.82 346.94 366.88 346.94 351.56 376.9 355.5 376.9 370.82 346.94" fill="#fff"/>
        <polygon points="358.87 346.94 354.79 346.94 354.79 346.94 339.47 376.9 339.47 376.9 343.54 376.9 343.54 376.9 358.87 346.94 358.87 346.94" fill="#658dc6"/>
        <polygon points="366.88 346.94 362.8 346.94 362.8 346.94 347.48 376.9 347.48 376.9 351.56 376.9 351.56 376.9 366.88 346.94 366.88 346.94" fill="#658dc6"/>
        <polygon points="355.5 376.9 359.58 376.9 359.58 376.9 374.9 346.94 374.9 346.94 370.82 346.94 370.82 346.94 355.5 376.9 355.5 376.9" fill="#658dc6"/>
        <polygon points="363.51 376.9 367.59 376.9 367.59 376.9 382.91 346.94 382.91 346.94 378.83 346.94 378.83 346.94 363.51 376.9 363.51 376.9" fill="#658dc6"/>
        <polygon points="125.21 376.9 223.73 182.66 179.88 182.66 137.14 272.84 94.13 182.66 50 182.66 114.94 312.8 81.36 376.9 125.21 376.9" fill="#fff"/>
        <path d="M376.17,301.42v-93.24l-25.51-25.52h-101.29l-25.53,25.52v93.24l25.53,25.53h101.29l25.51-25.53ZM335.95,291.15h-71.87v-72.7h71.87v72.7Z" fill="#fff"/>
        <path d="M425.56,186.58l5.53,11.45,1.09,2.26,5.18,10.72,1.09,2.26,5.18,10.72,1.09,2.26,5.18,10.72,1.09,2.26,5.18,10.72,1.09,2.26,5.18,10.72,1.09,2.26,1.09-2.26,5.15-10.72,1.09-2.26,5.15-10.72,1.09-2.26,5.15-10.72,1.09-2.26,5.15-10.72,1.09-2.26,5.15-10.72,1.09-2.26,5.5-11.45.8-1.66,1.09-2.26h-1.09s0,0,0,0h-77.32s-1.09,0-1.09,0l1.09,2.25.8,1.67ZM433.27,198.03l5.15-10.72,5.18,10.72-5.15,10.72-5.18-10.72ZM439.53,211.01l5.15-10.72,5.18,10.72-5.15,10.72-5.18-10.72ZM450.92,187.31l5.18,10.72-5.15,10.72-5.18-10.72,5.15-10.72ZM463.42,187.31l5.18,10.72-5.15,10.72-5.18-10.72,5.15-10.72ZM475.93,187.31l5.18,10.72-5.15,10.72-5.18-10.72,5.15-10.72ZM474.87,211.01l-5.15,10.72-5.18-10.72,5.15-10.72,5.18,10.72ZM468.63,224l-5.15,10.72-5.18-10.72,5.15-10.72,5.18,10.72ZM462.36,211.01l-5.15,10.72-5.18-10.72,5.15-10.72,5.18,10.72ZM445.8,223.99l5.15-10.72,5.18,10.72-5.15,10.72-5.18-10.72ZM452.07,236.98l5.15-10.72,5.18,10.72-5.15,10.72-5.18-10.72ZM463.52,260.68l-5.18-10.72,5.15-10.72,5.18,10.72-5.15,10.72ZM469.75,247.7l-5.18-10.72,5.15-10.72,5.18,10.72-5.15,10.72ZM475.99,234.72l-5.18-10.72,5.15-10.72,5.18,10.72-5.15,10.72ZM482.22,221.74l-5.18-10.72,5.15-10.72,5.18,10.72-5.15,10.72ZM488.46,208.76l-5.18-10.72,5.15-10.72,5.18,10.72-5.15,10.72ZM499.11,186.58l-4.42,9.19-4.44-9.19h8.85ZM486.6,186.58l-4.42,9.19-4.44-9.19h8.85ZM474.1,186.58l-4.41,9.19-4.44-9.19h8.85ZM461.6,186.58l-4.42,9.19-4.44-9.19h8.85ZM449.09,186.58l-4.41,9.19-4.44-9.19h8.85ZM436.59,186.58l-4.42,9.19-4.44-9.19h8.85Z" fill="#ff671f"/>
      </g>
    </g>
  </g>
</svg>