<?xml version="1.0" encoding="UTF-8"?>
<svg id="Layer_2" data-name="Layer 2" xmlns="http://www.w3.org/2000/svg" viewBox="0 0 429.89 317.44">
  <g id="Layer_1-2" data-name="Layer 1">
    <g>
      <g>
        <path d="M23.49,4.36h382.92c10.56,0,19.13,8.57,19.13,19.13v270.47c0,10.56-8.57,19.13-19.13,19.13H23.49c-10.56,0-19.13-8.57-19.13-19.13V23.49C4.36,12.93,12.93,4.36,23.49,4.36Z"/>
        <path d="M406.4,8.72c8.12,0,14.77,6.65,14.77,14.77v270.47c0,8.12-6.65,14.77-14.77,14.77H23.49c-8.12,0-14.77-6.65-14.77-14.77V23.49c0-8.12,6.65-14.77,14.77-14.77h382.92M406.4,0H23.49C10.54,0,0,10.54,0,23.49v270.47c0,12.95,10.54,23.49,23.49,23.49h382.92c12.95,0,23.49-10.54,23.49-23.49V23.49c0-12.95-10.54-23.49-23.49-23.49h0Z" fill="#fff"/>
      </g>
      <g>
        <path d="M21.45,211.51h28.66l5.05,5.05v9.08l-4.09,3.33,4.09,3.33v9.49l-5.05,5.05h-28.66v-35.32ZM47.38,225.59v-7.37h-18.16v7.37h18.16ZM47.38,240.12v-7.82h-18.16v7.82h18.16Z" fill="#ee6730"/>
        <path d="M76.04,211.51h7.32l17.26,35.32h-8.48l-2.87-6.16h-19.37l-2.88,6.16h-8.27l17.31-35.32ZM86.03,233.71l-6.46-13.88-6.46,13.88h12.92Z" fill="#ee6730"/>
        <path d="M103.7,241.54v-5.75h7.77v4.24h18.16v-7.52h-20.73l-5-4.99v-10.7l5.3-5.3h22.7l5.3,5.3v5.5h-7.77v-3.99h-17.76v7.22h20.74l5,4.99v11l-5.3,5.3h-23.11l-5.3-5.3Z" fill="#ee6730"/>
        <path d="M145.47,211.51h7.77v17.05l18.06-17.05h9.74l-13.68,12.92,14.38,22.4h-8.83l-11.1-17.46-8.58,8.17v9.28h-7.77v-35.32Z" fill="#ee6730"/>
        <path d="M186.89,211.51h30.88v6.96h-23.11v7.22h17.56v6.91h-17.56v7.27h23.31v6.96h-31.08v-35.32Z" fill="#ee6730"/>
        <path d="M235.18,218.73h-13.27v-7.22h34.26v7.22h-13.22v28.1h-7.77v-28.1Z" fill="#ee6730"/>
        <path d="M262.02,211.51h28.66l5.05,5.05v9.08l-4.09,3.33,4.09,3.33v9.49l-5.05,5.05h-28.66v-35.32ZM287.96,225.59v-7.37h-18.16v7.37h18.16ZM287.96,240.12v-7.82h-18.16v7.82h18.16Z" fill="#ee6730"/>
        <path d="M316.62,211.51h7.32l17.26,35.32h-8.48l-2.87-6.16h-19.37l-2.88,6.16h-8.27l17.31-35.32ZM326.61,233.71l-6.46-13.88-6.46,13.88h12.92Z" fill="#ee6730"/>
        <path d="M346.18,211.51h7.77v28.2h22.2v7.11h-29.97v-35.32Z" fill="#ee6730"/>
        <path d="M381.7,211.51h7.77v28.2h22.2v7.11h-29.97v-35.32Z" fill="#ee6730"/>
        <path d="M30.91,255.48h7.32l17.26,35.32h-8.48l-2.87-6.16h-19.37l-2.88,6.16h-8.27l17.31-35.32ZM40.9,277.68l-6.46-13.88-6.46,13.88h12.92Z" fill="#ee6730"/>
        <path d="M58.56,285.5v-5.75h7.77v4.24h18.16v-7.52h-20.73l-5-4.99v-10.7l5.3-5.3h22.7l5.3,5.3v5.5h-7.77v-3.99h-17.76v7.22h20.74l5,4.99v11l-5.3,5.3h-23.11l-5.3-5.3Z" fill="#ee6730"/>
        <path d="M99.48,285.5v-5.75h7.77v4.24h18.16v-7.52h-20.73l-5-4.99v-10.7l5.3-5.3h22.7l5.3,5.3v5.5h-7.77v-3.99h-17.76v7.22h20.74l5,4.99v11l-5.3,5.3h-23.11l-5.3-5.3Z" fill="#ee6730"/>
        <path d="M141.11,285.5v-24.72l5.3-5.3h24.52l5.3,5.3v24.72l-5.3,5.3h-24.52l-5.3-5.3ZM168.45,283.58v-20.89h-19.58v20.89h19.58Z" fill="#ee6730"/>
        <path d="M184.5,285.5v-24.72l5.3-5.3h23.82l5.3,5.3v8.23h-7.77v-6.31h-18.87v20.89h18.87v-6.31h7.77v8.23l-5.3,5.3h-23.82l-5.3-5.3Z" fill="#ee6730"/>
        <path d="M227.28,255.48h7.77v35.32h-7.77v-35.32Z" fill="#ee6730"/>
        <path d="M257.46,255.48h7.32l17.26,35.32h-8.48l-2.87-6.16h-19.37l-2.88,6.16h-8.27l17.31-35.32ZM267.45,277.68l-6.46-13.88-6.46,13.88h12.92Z" fill="#ee6730"/>
        <path d="M291.16,262.69h-13.27v-7.22h34.26v7.22h-13.22v28.1h-7.77v-28.1Z" fill="#ee6730"/>
        <path d="M318.1,255.48h7.77v35.32h-7.77v-35.32Z" fill="#ee6730"/>
        <path d="M334.4,285.5v-24.72l5.3-5.3h24.52l5.3,5.3v24.72l-5.3,5.3h-24.52l-5.3-5.3ZM361.75,283.58v-20.89h-19.58v20.89h19.58Z" fill="#ee6730"/>
        <path d="M377.94,255.48h7.27l19.88,23.46v-23.46h7.41v35.32h-7.16l-19.98-23.51v23.51h-7.42v-35.32Z" fill="#ee6730"/>
      </g>
      <g>
        <g>
          <rect x="233.56" y="180.53" width="11.38" height="12.36" fill="none"/>
          <polygon points="307.81 189.4 315.45 189.4 311.63 181.19 307.81 189.4" fill="none"/>
          <rect x="359.71" y="180.53" width="11.59" height="12.36" fill="none"/>
          <rect x="83.39" y="180.53" width="11.59" height="12.36" fill="none"/>
          <polygon points="35.13 184.57 35.13 180.29 45.64 180.29 45.64 182.65 50.24 182.65 50.24 179.4 47.11 176.26 33.67 176.26 30.53 179.4 30.53 185.73 33.49 188.69 45.76 188.69 45.76 193.14 35.01 193.14 35.01 190.63 30.41 190.63 30.41 194.03 33.55 197.17 47.23 197.17 50.36 194.03 50.36 187.52 47.41 184.57 35.13 184.57" fill="#fff"/>
          <path d="M55.15,176.26v20.9h4.6v-7.5h11.77l3.13-3.14v-7.14l-3.13-3.14h-16.37ZM70.06,185.52h-10.3v-5.11h10.3v5.11Z" fill="#fff"/>
          <path d="M81.92,176.26l-3.13,3.14v14.63l3.13,3.14h14.51l3.13-3.14v-14.63l-3.13-3.14h-14.51ZM94.97,192.9h-11.59v-12.36h11.59v12.36Z" fill="#fff"/>
          <path d="M120.94,189.55l3.13-3.14v-7.02l-3.13-3.14h-16.37v20.9h4.6v-7.61h6.87l3.97,7.61h4.87l-4-7.61h.06ZM119.48,185.4h-10.3v-4.99h10.3v4.99Z" fill="#fff"/>
          <polygon points="127.04 180.53 134.9 180.53 134.9 197.17 139.49 197.17 139.49 180.53 147.32 180.53 147.32 176.26 127.04 176.26 127.04 180.53" fill="#fff"/>
          <polygon points="154.86 184.57 154.86 180.29 165.37 180.29 165.37 182.65 169.97 182.65 169.97 179.4 166.83 176.26 153.39 176.26 150.26 179.4 150.26 185.73 153.22 188.69 165.49 188.69 165.49 193.14 154.74 193.14 154.74 190.63 150.14 190.63 150.14 194.03 153.27 197.17 166.95 197.17 170.09 194.03 170.09 187.52 167.13 184.57 154.86 184.57" fill="#fff"/>
          <polygon points="185.01 197.17 189.61 197.17 189.61 188.95 200.24 188.95 200.24 184.86 189.61 184.86 189.61 180.38 203.13 180.38 203.13 176.26 185.01 176.26 185.01 197.17" fill="#fff"/>
          <polygon points="211.09 188.75 221.48 188.75 221.48 184.65 211.09 184.65 211.09 180.38 224.77 180.38 224.77 176.26 206.49 176.26 206.49 197.17 224.89 197.17 224.89 193.05 211.09 193.05 211.09 188.75" fill="#fff"/>
          <path d="M228.96,176.26v20.9h17.44l3.13-3.14v-14.63l-3.13-3.14h-17.44ZM244.94,192.9h-11.38v-12.36h11.38v12.36Z" fill="#fff"/>
          <polygon points="259.13 188.75 269.53 188.75 269.53 184.65 259.13 184.65 259.13 180.38 272.81 180.38 272.81 176.26 254.53 176.26 254.53 197.17 272.93 197.17 272.93 193.05 259.13 193.05 259.13 188.75" fill="#fff"/>
          <path d="M293.37,189.55l3.13-3.14v-7.02l-3.13-3.14h-16.37v20.9h4.6v-7.61h6.87l3.97,7.61h4.87l-4-7.61h.06ZM291.91,185.4h-10.3v-4.99h10.3v4.99Z" fill="#fff"/>
          <path d="M309.54,176.26l-10.24,20.9h4.9l1.7-3.64h11.47l1.7,3.64h5.02l-10.21-20.9h-4.33ZM307.81,189.4l3.82-8.21,3.82,8.21h-7.64Z" fill="#fff"/>
          <polygon points="321.65 180.53 329.5 180.53 329.5 197.17 334.1 197.17 334.1 180.53 341.92 180.53 341.92 176.26 321.65 176.26 321.65 180.53" fill="#fff"/>
          <rect x="345.46" y="176.26" width="4.6" height="20.9" fill="#fff"/>
          <path d="M358.24,176.26l-3.14,3.14v14.63l3.14,3.14h14.51l3.13-3.14v-14.63l-3.13-3.14h-14.51ZM371.29,192.9h-11.59v-12.36h11.59v12.36Z" fill="#fff"/>
          <polygon points="396.96 176.26 396.96 190.15 385.19 176.26 380.89 176.26 380.89 197.17 385.28 197.17 385.28 183.25 397.11 197.17 401.35 197.17 401.35 176.26 396.96 176.26" fill="#fff"/>
        </g>
        <g>
          <g>
            <rect x="93.35" y="23.07" width="3.02" height="29.12" fill="#468943"/>
            <g>
              <rect x="93.35" y="41.63" width="3.02" height="12.41" transform="translate(47.03 142.69) rotate(-90)" fill="#468943"/>
              <rect x="93.35" y="34.83" width="3.02" height="12.41" transform="translate(53.83 135.89) rotate(-90)" fill="#468943"/>
              <rect x="93.35" y="28.03" width="3.02" height="12.41" transform="translate(60.63 129.09) rotate(-90)" fill="#468943"/>
              <rect x="93.35" y="21.23" width="3.02" height="12.41" transform="translate(67.43 122.29) rotate(-90)" fill="#468943"/>
            </g>
          </g>
          <polygon points="232.57 59.46 232.57 59.46 232.57 59.46 232.57 59.46" fill="none"/>
          <polygon points="193.11 96.5 193.11 96.5 193.11 96.49 193.11 96.5" fill="none"/>
          <polygon points="232.54 59.33 232.54 59.33 232.54 59.33 232.54 59.33" fill="none"/>
          <polygon points="232.67 59.87 232.67 59.87 232.67 59.87 232.67 59.87" fill="none"/>
          <polygon points="232.66 59.82 232.66 59.82 232.66 59.82 232.66 59.82" fill="none"/>
          <polygon points="232.61 59.61 232.61 59.61 232.61 59.61 232.61 59.61" fill="none"/>
          <polygon points="228.23 64.31 228.23 64.3 228.23 64.3 228.23 64.31" fill="none"/>
          <polygon points="231.67 60 231.67 60 231.67 60 231.67 60" fill="none"/>
          <polygon points="228.21 67.42 228.21 67.42 228.21 67.42 228.21 67.42" fill="none"/>
          <polygon points="219.91 90.29 219.91 90.29 219.91 90.29 219.91 90.29" fill="none"/>
          <path d="M189.23,103.55h53.32v-53.93h-53.32v53.93ZM191.81,91.27c.03.11.06.23.1.34.62.41,1.16.74,1.8,1.08-.51-.92-.64-1.93-.59-2.63-.36-.68-.12-1.17.07-1.34.2-.18.47-.22.73-.1.36.17.72.65.7,1.26,0,.25-.1.45-.25.6.02.25.03.51.04.76.03.42.04.49.08.73v.03s0,0,0,0c.07.35.17.85.37,1.27l1.93.79c-.62-.85-.87-1.89-.88-2.64-.42-.62-.24-1.14-.07-1.36.19-.23.45-.3.74-.21.37.12.77.55.81,1.16.02.26-.05.48-.19.65.05.25.08.51.12.77q.07.37.16.74v.02c.11.35.26.85.5,1.25l2.04.49c-.72-.78-1.08-1.82-1.18-2.6-.49-.58-.37-1.18-.17-1.44.18-.23.45-.32.73-.24.42.11.78.54.87,1.04.07.39-.07.62-.14.73.06.22.13.46.21.75.14.47.15.51.23.74v.04c.19.48.4.89.62,1.19l2.11.2c-.2-.17-.38-.36-.55-.57-.32-.4-.73-1.24-.92-1.95-.53-.52-.48-1.13-.3-1.43.16-.26.42-.39.72-.35.43.06.82.44.96.93.1.36.01.61-.05.73.1.25.19.52.28.77q.14.36.31.72v.02c.18.33.43.81.75,1.15h.07s.04.11.04.11v-.11s.04.15.04.15v-.15s.04.15.04.15v-.15s.04,0,.04,0l.06.15v-.15s.05.15.05.15v-.15s.07.15.07.15v-.15s.06.15.06.15v-.15s.04.15.04.15h0v-.15s.06.15.06.15h0s-.04-.15-.04-.15h.04s0,0,0,0h.04s.24-.02.24-.02h0c.43,0,.87-.03,1.31-.07-.88-.6-1.47-1.59-1.74-2.38-.61-.45-.62-1.1-.47-1.42.13-.3.38-.46.71-.46.43.01.85.34,1.04.82.15.39.06.66.02.78.11.21.23.44.37.72.05.11.14.28.37.68l.02.02c.29.48.57.85.85,1.09.72-.1,1.45-.24,2.17-.4-.24-.12-.47-.28-.69-.46-.37-.31-.98-1.08-1.31-1.76-.63-.38-.71-1.02-.6-1.37.1-.32.35-.53.68-.56.43-.04.87.25,1.11.71.18.35.14.63.1.77.15.23.3.49.44.72.24.37.29.45.45.66l.02.04c.32.43.64.76.95.97.72-.2,1.44-.44,2.15-.7-1.02-.39-1.82-1.26-2.24-2.01-.68-.31-.83-.95-.75-1.32.07-.35.31-.59.64-.65.42-.08.89.15,1.16.58.21.34.2.62.18.77.18.22.35.46.51.68.09.11.25.31.5.6l.02.02c.38.42.74.72,1.06.9.71-.3,1.41-.64,2.1-1-1.04-.27-1.94-1.06-2.45-1.77-.73-.22-.94-.86-.91-1.25.03-.37.25-.65.59-.75.42-.12.89.05,1.21.45.25.32.27.61.26.76.21.21.41.43.59.62.3.31.39.39.58.57l.03.03c.4.36.79.62,1.13.77.68-.4,1.35-.83,2-1.29-1.08-.14-2.06-.84-2.64-1.5-.74-.14-1.03-.76-1.03-1.16,0-.38.19-.7.53-.84.4-.17.89-.04,1.24.31.28.29.33.59.34.74.23.18.45.39.65.57q.32.26.64.51h.02c.36.25.79.53,1.22.66.64-.5,1.28-1.03,1.88-1.58-1.11,0-2.16-.6-2.81-1.21-.75-.05-1.09-.65-1.14-1.04-.05-.4.13-.75.46-.93.38-.21.87-.14,1.26.17.34.28.4.6.42.74.21.13.44.29.7.46.12.08.26.18.67.43h.03c.49.3.93.47,1.29.54.6-.6,1.19-1.24,1.75-1.89-1.21.16-2.38-.39-2.99-.85-.02,0-.03,0-.05,0-.71,0-1.09-.54-1.17-.92-.09-.4.05-.77.38-1,.36-.25.85-.24,1.25.01.34.22.45.52.49.67.27.13.53.28.76.41q.35.18.74.36h.02c.52.23.96.35,1.33.37.11-.14.21-.28.32-.41h0c.16-.22.32-.43.48-.65-.12-.3-.35-.65-.75-1.13h-.01q-.27-.3-.58-.6c-.19-.17-.42-.37-.63-.58-.01,0-.03,0-.04,0-.66,0-1.02-.48-1.13-.77-.15-.4-.06-.8.23-1.07.32-.29.8-.35,1.23-.15.34.16.56.43.65.8.61.46,1.51,1.33,1.73,2.47.47-.71.91-1.44,1.32-2.19-.16-.31-.44-.65-.88-1.04l-.02-.02c-.18-.17-.24-.21-.64-.52-.21-.15-.46-.33-.69-.51-.67.09-1.09-.36-1.24-.64-.19-.37-.16-.79.09-1.08.28-.32.73-.42,1.19-.27.35.12.6.36.73.71.71.42,1.66,1.21,2.01,2.26.37-.74.71-1.51,1.01-2.28-.19-.29-.52-.6-1.01-.95l-.03-.02c-.39-.26-.55-.36-.66-.43-.28-.17-.51-.32-.72-.45-.73.19-1.22-.29-1.38-.58-.19-.34-.17-.72.05-1.01.24-.32.67-.46,1.11-.36.36.08.63.3.81.63.7.32,1.76.98,2.25,2.03.27-.77.51-1.54.71-2.32-.24-.28-.59-.55-1.11-.85q-.36-.19-.74-.38c-.24-.1-.52-.22-.79-.36-.68.24-1.21-.18-1.4-.44-.23-.32-.26-.69-.08-1,.2-.34.61-.52,1.05-.46.36.05.66.23.87.54.78.26,1.88.84,2.46,1.77.17-.78.31-1.56.41-2.34-.27-.26-.65-.49-1.19-.73-.34-.15-.7-.28-.77-.3-.3-.11-.56-.2-.79-.29-.65.32-1.24-.04-1.46-.28-.27-.29-.34-.66-.19-.99.16-.36.55-.56.98-.56.37,0,.68.16.92.44.74.17,1.91.59,2.63,1.49.07-.78.12-1.55.12-2.32-.28-.2-.68-.39-1.27-.61h0c-.38-.11-.4-.12-.79-.22-.26-.05-.55-.11-.83-.19-.59.35-1.2.07-1.44-.14-.3-.26-.42-.62-.31-.96.12-.36.46-.61.9-.64.36-.03.68.09.96.34.8.1,1.98.43,2.76,1.21-.02-.77-.07-1.53-.16-2.28-.32-.2-.73-.35-1.29-.47h0s-.03,0-.03,0c-.25-.06-.34-.07-.79-.14-.26-.03-.57-.06-.85-.11-.54.41-1.17.18-1.44,0-.33-.22-.49-.58-.42-.92.08-.36.39-.63.81-.71.35-.06.69.02.99.24.76.02,1.98.21,2.86.91-.08-.5-.17-.99-.27-1.47l.14-.09h0s-.15.04-.15.04h0s-.16-.68-.16-.68c-.32-.16-.76-.27-1.35-.33h-.03c-.3-.03-.32-.04-.78-.06-.31-.01-.58-.03-.82-.04-.48.48-1.15.32-1.44.17-.36-.19-.56-.52-.53-.87.04-.36.31-.65.71-.76.34-.1.69-.05,1.02.14.72-.05,1.92,0,2.89.61l-.65-1.97-.05-.12c-.31-.1-.74-.17-1.37-.2h-.02c-.24,0-.27,0-.8.02-.27.03-.56.05-.83.06-.42.48-1.08.4-1.38.28-.39-.15-.63-.46-.63-.82,0-.34.23-.65.6-.8.33-.13.67-.12,1.02.04.64-.1,1.84-.2,2.9.3l-.91-1.85-.06-.1c-.17-.04-.63-.12-1.38-.05h-.03s0,0,0,0c-.3.03-.31.03-.76.1-.3.05-.56.09-.79.12-.22.34-.6.49-.98.49-.16,0-.31-.03-.45-.07-.38-.13-.63-.42-.66-.75-.02-.29.13-.55.41-.73h6.48c-.28.18-.48.36-.62.54l1.07,2.13c.46-.92,1.46-1.36,1.91-1.52.05-.14.16-.36.45-.46.38-.13,1.1.04,1.5.81.03.07.06.15.08.21.1.35.01.67-.23.86-.13.11-.3.16-.48.16s-.37-.06-.56-.15c-.21.09-.44.17-.67.25-.44.18-.48.19-.62.27h-.03c-.35.21-.7.41-.91.62l.77,2.26c.59-.91,1.66-1.25,2.15-1.37.06-.13.2-.35.52-.42.4-.09,1.11.14,1.41.96.02.06.03.09.03.12.09.4-.03.76-.31.95-.13.09-.27.13-.43.13-.21,0-.44-.08-.66-.22-.18.06-.4.12-.68.2-.33.09-.38.11-.65.2l-.03.02c-.46.16-.81.34-1.04.54h0s-.04.03-.04.03c-.01.01-.03.03-.04.04h0s-.05.02-.05.02h0s.14-.03.14-.03l-.14.08s0,0,0,0l.15-.04.04.17-.14.07h.16s0,.04,0,.04l-.14.1.15-.04.03.13-.14.09h0s.15-.04.15-.04l.03.16c.11.51.21,1.05.3,1.6.59-.73,1.52-1.1,2.35-1.21.08-.13.25-.34.57-.38.43-.06,1.11.24,1.3,1.1l.02.12c.04.42-.14.77-.45.94-.11.06-.24.09-.36.09-.22,0-.46-.09-.69-.26-.22.05-.47.09-.74.13-.38.07-.5.1-.7.16h-.03s0,0,0,0c-.47.12-.84.27-1.1.45.09.8.15,1.62.17,2.44.83-.81,2.01-.97,2.53-.99.1-.12.29-.32.63-.34.43-.02,1.09.34,1.17,1.23v.04s0,.06,0,.08c-.02.42-.24.77-.59.9-.09.04-.19.05-.29.05-.25,0-.51-.12-.73-.33-.24.03-.5.05-.77.07q-.32.03-.74.09h-.02s0,0,0,0c-.52.12-.91.22-1.18.36,0,.82-.05,1.65-.13,2.47.94-.74,2.15-.79,2.67-.77.11-.11.34-.29.67-.29.25,0,.5.13.69.34.17.18.36.5.34,1.01v.04s-.01.06-.01.08c-.07.44-.35.77-.72.86-.07.02-.14.03-.21.03-.29,0-.56-.15-.79-.43-.21,0-.46.01-.76.02-.01,0-.41,0-.76.03h-.02s-.02,0-.02,0c-.5.04-.92.13-1.23.26-.11.83-.26,1.66-.43,2.47,1.02-.65,2.23-.6,2.79-.53.12-.1.37-.27.71-.23.25.03.5.18.66.4.15.19.3.53.22,1.05-.13.51-.45.86-.86.92-.04,0-.09.01-.13.01-.31,0-.6-.17-.81-.47-.25,0-.52-.04-.8-.08q-.33-.02-.77-.04h-.04c-.51-.01-.95.04-1.27.14-.21.82-.46,1.64-.75,2.45,1.12-.56,2.35-.39,2.88-.28.13-.09.41-.24.75-.17.25.05.48.22.62.46.13.21.24.56.1,1.08-.19.51-.57.83-1,.85-.01,0-.02,0-.03,0-.35,0-.66-.22-.85-.58-.21-.03-.46-.07-.77-.12-.12-.02-.25-.05-.74-.11h-.04c-.55-.06-1-.06-1.34.02-.32.81-.67,1.61-1.06,2.39,1.19-.45,2.39-.18,2.94,0,.14-.08.44-.2.77-.1.24.07.46.27.58.52.1.22.18.59-.03,1.08-.25.48-.65.76-1.06.76-.02,0-.05,0-.07,0-.35-.03-.63-.27-.79-.63-.24-.05-.5-.13-.78-.22-.42-.11-.54-.14-.76-.18h-.03c-.54-.11-.99-.15-1.34-.11-.42.78-.88,1.54-1.37,2.29,1.3-.35,2.52.08,2.97.27.16-.06.46-.16.79-.03.24.09.43.3.52.56.08.23.12.61-.16,1.1-.29.42-.69.65-1.07.65-.06,0-.12,0-.18-.02-.34-.07-.59-.32-.69-.7-.24-.07-.49-.17-.76-.29q-.31-.11-.75-.25h0c-.6-.15-1.02-.23-1.36-.23h0c-.13.19-.27.37-.41.56h0s-.1.13-.1.13c0,0,0,0,0,0l-.09.11h0c-.08.1-.16.21-.24.31.11.35.32.74.63,1.18v.02q.31.38.5.61c.17.18.35.39.51.6.14-.01.37,0,.6.12.21.12.37.35.42.61.04.23.02.61-.33,1.04-.06.06-.13.13-.18.18-.25.21-.55.31-.84.31-.18,0-.34-.04-.49-.12-.31-.18-.47-.5-.44-.91-.56-.62-.99-1.59-1-1.6-.09-.26-.18-.63-.2-1.06-.15.17-.29.35-.44.51h.02s-.02,0-.02,0c-.44.5-.9.98-1.36,1.44.07.34.24.74.53,1.21l.02.04c.26.42.34.52.4.61.17.24.31.45.43.64.14,0,.38.03.61.19.21.15.34.39.36.65.02.23-.04.58-.43.95-.07.05-.14.11-.2.15-.23.14-.48.21-.72.21s-.45-.06-.63-.19c-.28-.2-.41-.53-.34-.91-.49-.64-.82-1.59-.85-1.75-.07-.33-.09-.64-.07-.95-.15.14-.3.28-.46.42h.1s-.14.03-.14.03c-.48.42-.98.83-1.48,1.22.04.32.18.7.4,1.21h0q.2.39.36.68c.13.21.27.43.39.66.14.02.36.08.56.25.19.17.3.42.29.68,0,.22-.1.54-.51.85-.07.04-.15.09-.21.12-.18.09-.38.13-.58.13-.29,0-.57-.09-.77-.28-.25-.23-.33-.55-.24-.89-.42-.67-.66-1.63-.68-1.78-.04-.32-.02-.64.02-.93-.69.49-1.39.95-2.11,1.37,0,.33.1.73.28,1.21.07.19.12.31.29.69.11.22.23.46.33.68.13.04.35.11.53.3.19.19.27.45.23.7-.03.21-.16.51-.6.76-.07.03-.16.07-.22.09-.14.05-.29.07-.43.07-.36,0-.7-.14-.91-.4-.21-.25-.25-.56-.12-.86-.35-.69-.5-1.62-.5-1.74,0-.34.04-.65.12-.94-.73.39-1.47.75-2.22,1.07-.03.31.02.7.16,1.19v.04s0,0,0,0c.11.38.18.58.21.65.09.23.19.46.26.69.13.05.34.15.5.35.17.21.23.47.17.71-.05.2-.21.47-.66.65l-.12.04c-.12.03-.25.05-.37.05-.41,0-.82-.17-1.03-.47-.19-.26-.21-.56-.06-.85-.27-.67-.35-1.57-.31-1.88.03-.26.09-.51.18-.74-.75.29-1.52.54-2.29.76-.05.3-.04.68.05,1.16.04.22.06.33.16.69.07.22.14.46.19.69.12.06.32.18.46.39.15.22.19.48.1.7-.07.18-.25.43-.72.55l-.12.02c-.06,0-.12.01-.18.01-.49,0-.98-.25-1.18-.62-.15-.26-.13-.55.05-.8-.21-.67-.21-1.51-.14-1.83.05-.25.14-.48.25-.69-.77.18-1.55.33-2.33.44-.08.29-.1.65-.06,1.1v.04s0,0,0,0c.05.4.07.53.09.62.04.26.08.48.1.67.11.07.32.21.44.45.13.23.14.48.04.69-.09.17-.29.38-.77.44h-.05s-.05,0-.07,0h0c-.57,0-1.13-.34-1.3-.78-.1-.26-.05-.52.13-.73-.14-.67-.06-1.48.03-1.76.08-.23.19-.43.31-.62-.47.05-.95.08-1.42.1h0s-.2.01-.2.01h-.12s0,0,0,0h-.25s-.05-.15-.05-.15v.15s-.27,0-.27,0l-.02-.05c-.09.22-.14.54-.18,1.08h0c.01.37.01.38.03.65.03.21.05.44.06.66.11.09.27.24.37.46.1.23.09.48-.03.67-.1.15-.31.32-.76.32-.01,0-.02,0-.04,0h-.04s-.05,0-.08-.01c-.57-.08-1.11-.5-1.22-.95-.06-.24.01-.47.19-.63-.09-.6-.02-1.43.46-2.08.04-.06.1-.11.14-.16l-2.06-.15-.29-.04c-.12.22-.2.53-.24.92h0s0,.03,0,.03c-.02.15-.02.19-.03.62,0,.24-.01.44-.02.61.09.09.27.27.35.51.08.24.05.47-.08.63-.09.11-.26.22-.57.22-.08,0-.16,0-.26-.02-.07-.02-.16-.04-.22-.06-.56-.2-.99-.68-1-1.12,0-.21.08-.38.25-.5-.04-.58.11-1.35.64-1.9.04-.05.09-.09.14-.13l-2.04-.45-.24-.07c-.14.21-.24.53-.33.86h0c-.06.32-.06.33-.09.58-.01.2-.03.4-.06.59.08.1.22.29.28.51.06.24.01.45-.13.59-.08.08-.21.15-.42.15-.12,0-.26-.02-.43-.08-.07-.03-.15-.06-.21-.09-.53-.28-.92-.82-.88-1.23.02-.19.12-.34.3-.42.01-.3.08-.63.21-.94.16-.37.4-.67.7-.86l-1.95-.75-.22-.1c-.14.17-.27.44-.39.72v.02c-.04.11-.06.16-.15.53-.03.18-.06.38-.11.55.07.11.19.31.22.52.04.23-.03.42-.18.53-.07.05-.17.09-.3.09s-.32-.04-.56-.16c-.11-.07-.22-.13-.37-.26-.44-.39-.67-.9-.56-1.24.05-.15.17-.25.32-.29.04-.28.14-.59.3-.86.18-.3.43-.52.73-.66-.7-.37-1.28-.71-1.93-1.13v-1.52Z" fill="none"/>
          <polygon points="231.19 55.28 231.19 55.28 231.19 55.28 231.19 55.28" fill="none"/>
          <polygon points="231.64 59.85 231.64 59.85 231.64 59.85 231.64 59.85" fill="none"/>
          <polygon points="204.6 95.46 204.59 95.47 204.6 95.5 204.6 95.46" fill="none"/>
          <path d="M193.01,94.59c-.16.27-.26.57-.3.86-.16.04-.27.14-.32.29-.11.33.11.84.56,1.24.15.13.26.2.37.26.23.12.42.16.56.16s.24-.04.3-.09c.15-.11.21-.3.18-.53-.03-.22-.15-.41-.22-.52.05-.17.08-.36.11-.55.09-.37.1-.41.14-.53v-.02c.12-.28.25-.55.39-.72l.22.1,1.95.75c-.3.2-.54.49-.7.86-.13.31-.2.64-.21.94-.18.08-.28.23-.3.42-.04.41.35.96.88,1.23.06.03.14.06.21.09.17.06.31.08.43.08.21,0,.34-.07.42-.15.15-.13.19-.35.13-.59-.06-.22-.19-.41-.28-.51.03-.19.04-.4.06-.59.03-.25.03-.25.09-.58h0c.09-.33.2-.65.33-.85l.24.07,2.04.45s-.1.08-.14.13c-.53.55-.67,1.33-.64,1.9-.17.11-.26.29-.25.5.02.44.45.92,1,1.12.06.02.15.04.22.06.1.02.18.02.26.02.31,0,.48-.11.57-.22.14-.16.17-.39.08-.63-.08-.24-.26-.42-.35-.51.01-.17.02-.37.02-.61.01-.43.02-.47.03-.62v-.03s0,0,0,0c.04-.4.13-.7.24-.92l.29.04,2.06.15c-.05.05-.1.1-.14.16-.48.65-.55,1.49-.46,2.08-.18.17-.25.39-.19.63.11.45.65.87,1.22.95.02,0,.05,0,.08,0h.04s.02,0,.04,0c.45,0,.66-.17.76-.32.12-.19.14-.43.03-.67-.1-.22-.27-.38-.37-.46,0-.22-.04-.45-.06-.66-.02-.27-.02-.28-.03-.65h0c.03-.55.09-.87.18-1.08l.02.05h.28s0-.16,0-.16l.05.15h.25s0,0,0,0h.12s.2,0,.2,0h0c.47-.03.94-.06,1.42-.11-.13.19-.24.39-.31.62-.09.28-.17,1.09-.03,1.76-.19.21-.24.47-.13.73.18.44.74.78,1.3.78h0s.05,0,.07,0h.05c.48-.06.68-.27.77-.44.11-.21.09-.46-.04-.69-.13-.23-.33-.38-.44-.45-.02-.19-.06-.41-.1-.67-.02-.09-.04-.22-.09-.62h0s0-.05,0-.05c-.04-.45-.02-.81.06-1.1.78-.11,1.56-.26,2.33-.44-.11.21-.2.44-.25.69-.07.32-.06,1.16.14,1.83-.17.25-.19.54-.05.8.2.37.69.62,1.18.62.06,0,.12,0,.18-.01l.12-.02c.47-.12.65-.37.72-.55.09-.22.05-.48-.1-.7-.14-.21-.34-.33-.46-.39-.05-.23-.12-.47-.19-.69-.09-.36-.12-.48-.16-.69-.09-.48-.1-.86-.05-1.16.77-.21,1.53-.47,2.29-.76-.09.23-.15.48-.18.74-.03.31.05,1.22.31,1.88-.15.29-.13.6.06.85.22.3.62.47,1.03.47.12,0,.25-.02.37-.05l.12-.04c.45-.18.61-.46.66-.65.06-.24,0-.5-.17-.71-.16-.2-.37-.3-.5-.35-.07-.23-.17-.46-.26-.69-.03-.08-.1-.28-.21-.65h0s-.01-.04-.01-.04c-.14-.49-.19-.88-.16-1.19.75-.32,1.49-.68,2.22-1.07-.08.29-.12.61-.12.94,0,.12.15,1.04.5,1.74-.13.29-.08.61.12.86.21.26.55.4.91.4.14,0,.29-.02.43-.07.07-.02.15-.06.22-.09.44-.25.57-.55.6-.76.04-.25-.05-.5-.23-.7-.18-.19-.39-.26-.53-.3-.09-.23-.21-.46-.33-.68-.17-.37-.22-.5-.29-.69-.18-.48-.28-.89-.28-1.21.72-.42,1.43-.89,2.11-1.37-.05.3-.06.61-.02.93.02.15.26,1.1.68,1.78-.1.34-.01.67.24.89.2.18.48.28.77.28.19,0,.39-.04.58-.13.06-.03.14-.08.21-.12.41-.3.5-.63.51-.85,0-.26-.1-.52-.29-.68-.2-.17-.42-.22-.56-.25-.12-.23-.26-.46-.39-.66q-.16-.29-.36-.67h0c-.21-.52-.35-.91-.4-1.22.5-.39,1-.79,1.48-1.22l.14-.04h-.1c.15-.13.3-.27.46-.41-.02.31,0,.62.07.95.03.16.36,1.1.85,1.75-.07.37.05.7.34.91.18.13.4.19.63.19.24,0,.49-.07.72-.21.06-.04.14-.1.2-.15.38-.37.44-.72.43-.95-.02-.26-.15-.51-.36-.65-.23-.16-.47-.18-.61-.19-.12-.19-.26-.4-.43-.64-.07-.09-.14-.19-.4-.61l-.02-.04c-.28-.47-.46-.87-.53-1.21.47-.46.92-.94,1.36-1.44h.02s-.02,0-.02,0c.15-.17.29-.34.44-.51.02.43.11.8.2,1.06,0,0,.43.98,1,1.6-.03.4.12.73.44.91.15.08.32.12.49.12.29,0,.59-.11.84-.31.06-.05.12-.12.18-.18.35-.43.37-.8.33-1.04-.05-.26-.2-.49-.42-.61-.23-.13-.46-.14-.6-.12-.16-.21-.35-.41-.51-.6q-.2-.23-.49-.61v-.02c-.33-.43-.54-.82-.65-1.18.08-.1.16-.2.24-.31h0s.09-.11.09-.11c0,0,0,0,0,0l.1-.13h0c.14-.19.28-.37.41-.56h0c.34,0,.77.09,1.36.23h0q.43.14.75.26c.27.11.53.22.76.29.11.37.35.63.69.7.06.01.12.02.18.02.39,0,.78-.24,1.07-.65.28-.49.24-.86.16-1.1-.09-.26-.28-.47-.52-.56-.33-.13-.63-.04-.79.03-.45-.19-1.67-.62-2.97-.27.49-.74.95-1.51,1.37-2.29.35-.04.8,0,1.34.1h.03c.22.05.34.08.76.19.29.09.55.16.78.22.15.37.44.61.79.63.02,0,.05,0,.07,0,.41,0,.81-.28,1.06-.76.21-.5.13-.87.03-1.08-.12-.25-.33-.44-.58-.52-.34-.1-.63.02-.77.1-.55-.17-1.75-.45-2.94,0,.38-.78.74-1.58,1.06-2.39.34-.07.79-.08,1.34-.02h.04c.49.06.62.09.74.11.31.05.56.09.77.12.19.36.5.58.85.58.01,0,.02,0,.03,0,.42-.02.8-.34,1-.85.15-.51.03-.87-.1-1.08-.14-.24-.38-.41-.62-.46-.34-.07-.62.08-.75.17-.53-.11-1.76-.28-2.88.28.28-.81.53-1.63.75-2.45.33-.1.76-.15,1.27-.15h.04q.44.02.77.05c.28.03.55.07.8.08.21.3.5.47.81.47.04,0,.09,0,.13-.01.4-.06.73-.41.86-.92.08-.52-.08-.85-.22-1.05-.17-.22-.42-.37-.66-.4-.34-.04-.59.13-.71.23-.57-.07-1.77-.12-2.79.53.18-.82.32-1.65.43-2.47.31-.13.73-.22,1.23-.26h.02s.02,0,.02,0c.35-.03.75-.03.76-.03.3,0,.55,0,.76-.02.23.27.5.43.79.43.07,0,.14,0,.21-.03.37-.09.65-.42.72-.86,0-.03,0-.06.01-.08v-.04c.02-.52-.17-.84-.34-1.01-.19-.2-.45-.33-.69-.34-.33,0-.56.18-.67.29-.52-.02-1.74.03-2.67.77.08-.82.12-1.65.13-2.47.27-.14.66-.25,1.18-.36h0s.02,0,.02,0q.42-.06.74-.09c.27-.01.53-.03.77-.07.23.21.48.33.73.33.1,0,.2-.02.29-.05.34-.13.57-.47.59-.9,0-.02,0-.05,0-.08v-.04c-.08-.89-.74-1.26-1.17-1.23-.33.02-.53.22-.63.34-.52.03-1.7.18-2.53.99-.02-.82-.08-1.63-.17-2.44.26-.18.62-.33,1.1-.45h0s.03,0,.03,0c.2-.06.32-.08.7-.16.28-.04.53-.08.74-.13.22.17.46.26.69.26.13,0,.25-.03.36-.09.31-.16.49-.52.45-.94l-.02-.12c-.19-.86-.87-1.17-1.3-1.1-.33.05-.5.26-.57.38-.83.11-1.76.48-2.35,1.21-.09-.55-.19-1.09-.3-1.6l-.03-.16-.15.04h0s.14-.09.14-.09l-.03-.13-.15.04.14-.1v-.04s-.17,0-.17,0l.14-.07-.04-.17-.15.04s0,0,0,0l.14-.08-.14.03h0s.05-.03.05-.03h0s.03-.02.04-.03l.04-.02h0c.23-.2.58-.38,1.04-.54l.03-.02c.27-.09.32-.11.65-.2.27-.08.49-.15.68-.2.22.14.45.22.66.22.16,0,.31-.04.43-.13.28-.19.4-.55.31-.95,0-.03-.01-.06-.03-.12-.29-.82-1-1.06-1.41-.96-.32.07-.45.29-.52.42-.49.12-1.56.46-2.15,1.37l-.77-2.26c.22-.21.56-.42.91-.61h.03c.15-.09.18-.1.62-.28.24-.08.47-.16.67-.25.2.1.39.15.56.15s.34-.05.48-.16c.24-.19.32-.51.23-.86-.02-.06-.05-.14-.08-.21-.4-.76-1.12-.93-1.5-.81-.3.1-.41.32-.45.46-.45.16-1.45.59-1.91,1.52l-1.07-2.13c.13-.17.34-.35.62-.54h-6.48c-.27.18-.43.44-.41.73.02.33.28.62.66.75.14.05.29.07.45.07.37,0,.76-.15.98-.49.23-.03.49-.07.79-.12.45-.07.46-.07.76-.1h0s.03,0,.03,0c.75-.07,1.21.01,1.38.05l.06.1.91,1.85c-1.06-.5-2.26-.41-2.9-.3-.35-.16-.7-.17-1.02-.04-.37.15-.61.46-.6.8,0,.35.24.67.63.82.3.12.96.2,1.38-.28.27-.01.56-.04.83-.06.53-.03.56-.03.8-.02h.02c.63.03,1.06.1,1.37.2l.05.12.65,1.97c-.96-.6-2.16-.65-2.89-.61-.33-.19-.67-.24-1.02-.14-.4.11-.68.41-.71.76-.04.35.17.68.53.87.29.15.96.31,1.44-.17.24.01.51.03.82.04.45.02.48.02.78.05h.03c.59.07,1.03.18,1.35.34l.16.68h0s.15-.04.15-.04h0s-.14.09-.14.09c.1.48.19.98.27,1.47-.88-.71-2.09-.9-2.86-.91-.3-.22-.64-.3-.99-.24-.42.08-.74.35-.81.71-.07.34.09.7.42.92.27.18.9.4,1.44,0,.29.05.59.08.85.11.45.07.54.08.79.14h.03s0,0,0,0c.56.12.97.27,1.29.47.09.75.14,1.51.16,2.28-.78-.78-1.96-1.11-2.76-1.21-.28-.25-.6-.37-.96-.34-.44.03-.79.28-.9.64-.11.34,0,.7.31.96.24.21.85.5,1.44.14.28.07.57.13.83.19.4.1.41.1.79.22h0c.59.22.99.41,1.27.61,0,.77-.05,1.55-.12,2.32-.71-.9-1.89-1.33-2.63-1.49-.25-.29-.56-.43-.92-.44-.43,0-.82.2-.98.56-.15.33-.08.7.19.99.22.24.81.6,1.46.28.23.09.49.18.79.29.07.02.43.15.77.3.54.23.92.47,1.19.73-.1.78-.25,1.56-.41,2.34-.58-.94-1.68-1.51-2.46-1.77-.21-.31-.51-.49-.87-.54-.44-.06-.85.12-1.05.46-.18.31-.16.69.08,1,.19.26.72.68,1.4.44.26.13.54.25.79.36q.38.19.74.38c.51.29.87.56,1.11.85-.2.78-.44,1.56-.71,2.32-.49-1.05-1.55-1.71-2.25-2.03-.18-.33-.45-.55-.81-.63-.44-.1-.87.03-1.11.36-.22.29-.24.67-.05,1.01.16.29.66.77,1.38.58.2.13.44.28.72.45.12.07.28.16.66.43l.03.02c.49.35.81.66,1.01.95-.3.77-.65,1.53-1.01,2.28-.35-1.05-1.3-1.84-2.01-2.26-.13-.35-.38-.59-.73-.71-.46-.16-.91-.06-1.19.27-.25.29-.29.71-.09,1.08.15.28.57.73,1.24.64.23.19.48.36.69.51.39.31.45.35.64.52l.02.02c.44.39.72.73.88,1.04-.4.74-.85,1.48-1.32,2.19-.22-1.14-1.12-2.01-1.73-2.47-.09-.37-.31-.64-.65-.8-.43-.2-.91-.14-1.23.15-.29.27-.38.67-.23,1.07.11.29.47.77,1.13.77.01,0,.03,0,.04,0,.21.21.44.42.63.58q.3.3.58.59h.01c.4.5.63.85.75,1.15-.16.22-.31.44-.48.65h0c-.11.14-.21.28-.32.41-.37-.02-.82-.14-1.33-.35h-.02q-.39-.19-.74-.37c-.23-.13-.5-.28-.76-.41-.04-.15-.15-.45-.49-.67-.4-.26-.89-.26-1.25-.01-.33.23-.47.6-.38,1,.08.38.46.92,1.17.92.02,0,.03,0,.05,0,.62.46,1.78,1.01,2.99.85-.56.66-1.15,1.29-1.75,1.89-.36-.06-.8-.24-1.29-.52h-.03c-.41-.26-.55-.36-.67-.44-.26-.17-.49-.33-.7-.46-.02-.14-.09-.46-.42-.74-.38-.31-.87-.38-1.26-.17-.33.18-.5.53-.46.93.05.4.39.99,1.14,1.04.65.61,1.71,1.21,2.81,1.21-.61.55-1.24,1.08-1.88,1.58-.43-.13-.86-.42-1.22-.65h-.02q-.32-.25-.64-.52c-.2-.18-.42-.38-.65-.57-.01-.15-.06-.45-.34-.74-.35-.36-.84-.48-1.24-.31-.33.14-.53.45-.53.84,0,.4.29,1.02,1.03,1.16.58.66,1.56,1.37,2.64,1.5-.65.46-1.32.89-2,1.29-.34-.14-.73-.41-1.13-.77l-.03-.03c-.19-.17-.28-.26-.58-.57-.17-.19-.38-.42-.59-.62,0-.15-.01-.44-.26-.76-.32-.4-.79-.57-1.21-.45-.33.1-.55.38-.59.75-.04.39.18,1.03.91,1.25.51.71,1.41,1.5,2.45,1.77-.69.36-1.39.7-2.1,1-.33-.18-.68-.48-1.06-.9l-.02-.02c-.26-.3-.42-.49-.5-.6-.16-.22-.34-.46-.51-.68.02-.14.03-.43-.18-.77-.27-.43-.74-.66-1.16-.58-.33.06-.57.31-.64.65-.07.37.07,1.01.75,1.32.43.75,1.23,1.63,2.24,2.01-.71.27-1.43.5-2.15.7-.31-.21-.63-.55-.95-.97l-.02-.04c-.16-.21-.21-.29-.45-.66-.14-.23-.29-.48-.44-.72.03-.14.07-.42-.1-.77-.23-.46-.67-.74-1.11-.71-.32.03-.57.23-.68.56-.11.35-.03.98.6,1.37.34.68.94,1.46,1.31,1.76.22.18.45.34.69.46-.72.17-1.44.3-2.17.4-.28-.24-.57-.61-.85-1.09l-.02-.02c-.23-.4-.31-.57-.37-.68-.14-.28-.26-.51-.37-.72.05-.12.13-.4-.02-.78-.19-.48-.6-.81-1.04-.82-.33,0-.58.16-.71.46-.14.33-.13.97.47,1.42.27.79.86,1.78,1.74,2.38-.44.04-.87.07-1.31.08h0s-.24.01-.24.01h0s-.04,0-.04,0h0s0,0,0,0h-.04s.04.14.04.14h0s-.07-.14-.07-.14v.15h0l-.04-.15v.15s-.06-.15-.06-.15v.15s-.07-.15-.07-.15v.15s-.05-.15-.05-.15v.15s-.06-.15-.06-.15h-.04s0,.15,0,.15l-.04-.15v.15s-.04-.15-.04-.15v.11s-.04-.11-.04-.11h-.07c-.32-.34-.57-.82-.74-1.15v-.02q-.17-.37-.31-.72c-.09-.25-.18-.52-.28-.77.06-.12.15-.37.05-.73-.14-.49-.53-.88-.96-.93-.31-.04-.57.09-.72.35-.17.29-.23.91.3,1.43.19.71.6,1.54.92,1.95.17.21.35.41.55.57l-2.11-.2c-.23-.3-.43-.7-.61-1.19v-.04c-.09-.22-.1-.26-.24-.74-.08-.29-.15-.53-.21-.75.07-.1.2-.34.14-.73-.09-.5-.44-.93-.87-1.04-.29-.07-.55.02-.73.24-.21.26-.33.86.17,1.44.1.78.46,1.82,1.18,2.6l-2.04-.49c-.24-.4-.39-.9-.5-1.25v-.02q-.09-.37-.16-.74c-.04-.26-.07-.53-.12-.77.14-.18.21-.39.19-.65-.04-.6-.44-1.04-.81-1.16-.28-.09-.55-.01-.74.21-.17.21-.34.74.07,1.36.02.76.27,1.79.88,2.64l-1.93-.79c-.2-.42-.3-.93-.37-1.27h0s0-.03,0-.03c-.04-.23-.04-.31-.08-.73,0-.24-.02-.51-.04-.76.16-.15.24-.35.25-.6.02-.6-.34-1.09-.7-1.26-.26-.12-.53-.09-.73.1-.18.17-.43.66-.07,1.34-.05.7.07,1.72.59,2.63-.63-.34-1.18-.67-1.8-1.08-.04-.11-.08-.23-.1-.34v1.52c.65.42,1.23.77,1.93,1.13-.29.14-.54.36-.73.66ZM193.11,96.5s0,0,0,0c0,0,0,0,0,0h0ZM232.67,59.87h0s0,0,0,0h0ZM232.66,59.82h0s0,0,0,0h0ZM232.61,59.61h0s0,0,0,0h0ZM232.57,59.46h0s0,0,0,0h0ZM232.54,59.33h0s0,0,0,0h0ZM231.19,55.28s0,0,0,0h0s0,0,0,0ZM231.64,59.85h0s0,0,0,0h0ZM231.67,60h0s0,0,0,0h0ZM228.23,64.31s0,0,0,0h0s0,0,0,0ZM228.21,67.42s0,0,0,0h0s0,0,0,0ZM219.91,90.29s0,0,0,0c0,0,0,0,0,0h0ZM204.6,95.46v.04s0-.03,0-.03h0Z" fill="#b02127" stroke="#b02127" stroke-linejoin="round" stroke-width=".31"/>
          <polygon points="295.75 167.17 328.26 167.17 401.35 23.07 368.81 23.07 337.12 89.97 305.2 23.07 272.48 23.07 320.65 119.61 307.39 144.94 277.39 144.94 266.03 167.17 295.75 167.17" fill="#fff"/>
          <polygon points="259.55 144.94 248.19 167.17 251.11 167.17 262.47 144.94 259.55 144.94" fill="#fff"/>
          <polygon points="249.84 144.94 238.2 167.17 245.16 167.17 256.53 144.94 249.84 144.94" fill="#fff"/>
          <polygon points="263 167.17 274.37 144.94 271.45 144.94 260.08 167.17 263 167.17" fill="#fff"/>
          <polygon points="268.42 144.94 265.5 144.94 254.13 167.17 257.05 167.17 268.42 144.94" fill="#fff"/>
          <polygon points="259.55 144.94 256.53 144.94 256.53 144.94 245.16 167.17 245.16 167.17 248.19 167.17 248.19 167.17 259.55 144.94 259.55 144.94" fill="#538cc9"/>
          <polygon points="265.5 144.94 262.47 144.94 262.47 144.94 251.11 167.17 251.11 167.17 254.13 167.17 254.13 167.17 265.5 144.94 265.5 144.94" fill="#538cc9"/>
          <polygon points="257.05 167.17 260.08 167.17 260.08 167.17 271.45 144.94 271.45 144.94 268.42 144.94 268.42 144.94 257.05 167.17 257.05 167.17" fill="#538cc9"/>
          <polygon points="263 167.17 266.03 167.17 266.03 167.17 277.39 144.94 277.39 144.94 274.37 144.94 274.37 144.94 263 167.17 263 167.17" fill="#538cc9"/>
          <polygon points="86.21 167.17 159.3 23.07 126.76 23.07 95.06 89.97 63.15 23.07 30.41 23.07 78.59 119.61 53.68 167.17 86.21 167.17" fill="#fff"/>
          <path d="M272.39,111.17V42l-18.92-18.93h-75.15l-18.94,18.93v69.17l18.94,18.94h75.15l18.92-18.94ZM242.55,103.55h-53.32v-53.93h53.32v53.93Z" fill="#fff"/>
          <g>
            <polygon points="318.57 26.52 314.75 34.47 318.59 42.43 322.41 34.47 318.57 26.52" fill="none"/>
            <polygon points="323.22 36.15 319.4 44.1 323.24 52.06 327.06 44.1 323.22 36.15" fill="none"/>
            <polygon points="327.87 45.78 324.05 53.73 327.89 61.69 331.71 53.73 327.87 45.78" fill="none"/>
            <polygon points="345.04 25.98 338.47 25.98 341.77 32.8 345.04 25.98" fill="none"/>
            <polygon points="335.77 25.98 329.2 25.98 332.49 32.8 335.77 25.98" fill="none"/>
            <polygon points="326.49 25.98 319.92 25.98 323.21 32.8 326.49 25.98" fill="none"/>
            <polygon points="333.35 72.99 337.19 80.95 341.01 72.99 337.17 65.04 333.35 72.99" fill="none"/>
            <polygon points="342.6 53.73 346.44 61.69 350.26 53.73 346.42 45.78 342.6 53.73" fill="none"/>
            <polygon points="347.22 44.1 351.07 52.06 354.89 44.1 351.05 36.15 347.22 44.1" fill="none"/>
            <polygon points="337.97 63.36 341.81 71.32 345.63 63.36 341.79 55.41 337.97 63.36" fill="none"/>
            <polygon points="351.85 34.47 355.69 42.43 359.51 34.47 355.67 26.52 351.85 34.47" fill="none"/>
            <polygon points="354.32 25.98 347.75 25.98 351.04 32.8 354.32 25.98" fill="none"/>
            <polygon points="332.52 55.41 328.7 63.36 332.54 71.32 336.36 63.36 332.52 55.41" fill="none"/>
            <polygon points="310.65 25.98 313.94 32.8 317.21 25.98 310.65 25.98" fill="none"/>
            <polygon points="363.59 25.98 357.03 25.98 360.32 32.8 363.59 25.98" fill="none"/>
            <polygon points="350.24 34.47 346.4 26.52 342.57 34.47 346.42 42.43 350.24 34.47" fill="none"/>
            <polygon points="340.96 34.47 337.12 26.52 333.3 34.47 337.14 42.43 340.96 34.47" fill="none"/>
            <polygon points="331.69 34.47 327.84 26.52 324.02 34.47 327.86 42.43 331.69 34.47" fill="none"/>
            <polygon points="337.95 44.1 341.79 52.06 345.61 44.1 341.77 36.15 337.95 44.1" fill="none"/>
            <polygon points="333.32 53.73 337.16 61.69 340.99 53.73 337.14 45.78 333.32 53.73" fill="none"/>
            <polygon points="332.49 36.15 328.67 44.1 332.51 52.06 336.34 44.1 332.49 36.15" fill="none"/>
            <polygon points="308.44 23.07 308.44 23.07 308.44 23.07 308.44 23.07" fill="#ee6730"/>
            <polygon points="365.8 23.07 365.8 23.07 365.8 23.07 365.8 23.07" fill="#ee6730"/>
            <polygon points="317.21 25.98 317.91 24.53 318.57 24.84 319.22 24.52 319.92 25.98 326.49 25.98 327.19 24.53 327.84 24.84 328.5 24.52 329.2 25.98 335.77 25.98 336.46 24.53 337.12 24.84 337.77 24.52 338.47 25.98 345.04 25.98 345.74 24.53 346.39 24.84 347.05 24.52 347.75 25.98 354.32 25.98 355.01 24.53 355.67 24.84 356.32 24.52 357.03 25.98 363.59 25.98 364.99 23.07 309.24 23.07 310.65 25.98 317.21 25.98" fill="#ee6730"/>
            <polygon points="359.51 34.47 355.69 42.43 356.5 44.1 360.32 36.15 359.51 34.47" fill="#ee6730"/>
            <polygon points="337.19 80.95 338 82.62 341.82 74.67 341.01 72.99 337.19 80.95" fill="#ee6730"/>
            <polygon points="346.44 61.69 347.25 63.36 351.07 55.41 350.26 53.73 346.44 61.69" fill="#ee6730"/>
            <polygon points="366.6 23.07 365.8 23.07 365.8 24.75 366.6 23.07" fill="#ee6730"/>
            <polygon points="351.07 52.06 351.87 53.73 355.7 45.78 354.89 44.1 351.07 52.06" fill="#ee6730"/>
            <polygon points="341.81 71.32 342.62 72.99 346.44 65.04 345.63 63.36 341.81 71.32" fill="#ee6730"/>
            <polygon points="360.32 32.8 361.13 34.47 365.21 25.98 363.59 25.98 360.32 32.8" fill="#ee6730"/>
            <polygon points="365.21 25.98 365.8 24.75 365.8 23.07 365.8 23.07 364.99 23.07 363.59 25.98 365.21 25.98" fill="#ee6730"/>
            <polygon points="346.42 42.43 347.22 44.1 351.05 36.15 350.24 34.47 346.42 42.43" fill="#ee6730"/>
            <polygon points="337.16 61.69 337.97 63.36 341.79 55.41 340.99 53.73 337.16 61.69" fill="#ee6730"/>
            <polygon points="351.85 34.47 355.67 26.52 355.41 25.98 354.32 25.98 351.04 32.8 351.85 34.47" fill="#ee6730"/>
            <polygon points="341.79 52.06 342.6 53.73 346.42 45.78 345.61 44.1 341.79 52.06" fill="#ee6730"/>
            <polygon points="336.36 63.36 332.54 71.32 333.35 72.99 337.17 65.04 336.36 63.36" fill="#ee6730"/>
            <polygon points="355.02 25.16 355.67 24.84 355.01 24.53 354.32 25.98 355.41 25.98 355.02 25.16" fill="#ee6730"/>
            <polygon points="337.95 44.1 341.77 36.15 340.96 34.47 337.14 42.43 337.95 44.1" fill="#ee6730"/>
            <polygon points="336.34 44.1 332.51 52.06 333.32 53.73 337.14 45.78 336.34 44.1" fill="#ee6730"/>
            <polygon points="342.57 34.47 346.4 26.52 346.13 25.98 345.04 25.98 341.77 32.8 342.57 34.47" fill="#ee6730"/>
            <polygon points="331.71 53.73 327.89 61.69 328.7 63.36 332.52 55.41 331.71 53.73" fill="#ee6730"/>
            <polygon points="345.74 25.16 346.39 24.84 345.74 24.53 345.04 25.98 346.13 25.98 345.74 25.16" fill="#ee6730"/>
            <polygon points="333.3 34.47 337.12 26.52 336.86 25.98 335.77 25.98 332.49 32.8 333.3 34.47" fill="#ee6730"/>
            <polygon points="328.67 44.1 332.49 36.15 331.69 34.47 327.86 42.43 328.67 44.1" fill="#ee6730"/>
            <polygon points="327.06 44.1 323.24 52.06 324.05 53.73 327.87 45.78 327.06 44.1" fill="#ee6730"/>
            <polygon points="336.46 25.16 337.12 24.84 336.46 24.53 335.77 25.98 336.86 25.98 336.46 25.16" fill="#ee6730"/>
            <polygon points="324.02 34.47 327.84 26.52 327.58 25.98 326.49 25.98 323.21 32.8 324.02 34.47" fill="#ee6730"/>
            <polygon points="322.41 34.47 318.59 42.43 319.4 44.1 323.22 36.15 322.41 34.47" fill="#ee6730"/>
            <polygon points="327.19 25.16 327.84 24.84 327.19 24.53 326.49 25.98 327.58 25.98 327.19 25.16" fill="#ee6730"/>
            <polygon points="318.31 25.98 317.21 25.98 313.94 32.8 314.75 34.47 318.57 26.52 318.31 25.98" fill="#ee6730"/>
            <polygon points="317.91 25.16 318.57 24.84 317.91 24.53 317.21 25.98 318.31 25.98 317.91 25.16" fill="#ee6730"/>
            <polygon points="328.7 63.36 327.89 65.04 331.73 72.99 332.54 71.32 328.7 63.36" fill="#ee6730"/>
            <polygon points="333.35 72.99 332.54 74.67 336.38 82.62 337.19 80.95 333.35 72.99" fill="#ee6730"/>
            <polygon points="307.63 23.07 308.44 24.74 308.44 23.07 307.63 23.07" fill="#ee6730"/>
            <polygon points="314.75 34.47 313.94 36.15 317.78 44.1 318.59 42.43 314.75 34.47" fill="#ee6730"/>
            <polygon points="324.05 53.73 323.24 55.41 327.08 63.36 327.89 61.69 324.05 53.73" fill="#ee6730"/>
            <polygon points="310.65 25.98 309.03 25.98 313.13 34.47 313.94 32.8 310.65 25.98" fill="#ee6730"/>
            <polygon points="319.4 44.1 318.59 45.78 322.43 53.73 323.24 52.06 319.4 44.1" fill="#ee6730"/>
            <polygon points="309.24 23.07 308.44 23.07 308.44 23.07 308.44 24.74 309.03 25.98 310.65 25.98 309.24 23.07" fill="#ee6730"/>
            <polygon points="336.38 82.62 337.19 84.3 338 82.62 337.19 80.95 336.38 82.62" fill="#ee6730"/>
            <polygon points="332.54 71.32 331.73 72.99 332.54 74.67 333.35 72.99 332.54 71.32" fill="#ee6730"/>
            <polygon points="327.89 61.69 327.08 63.36 327.89 65.04 328.7 63.36 327.89 61.69" fill="#ee6730"/>
            <polygon points="323.24 52.06 322.43 53.73 323.24 55.41 324.05 53.73 323.24 52.06" fill="#ee6730"/>
            <polygon points="318.59 42.43 317.78 44.1 318.59 45.78 319.4 44.1 318.59 42.43" fill="#ee6730"/>
            <polygon points="313.94 32.8 313.13 34.47 313.94 36.15 314.75 34.47 313.94 32.8" fill="#ee6730"/>
            <polygon points="328.67 44.1 327.87 45.78 331.71 53.73 332.51 52.06 328.67 44.1" fill="#ee6730"/>
            <polygon points="324.02 34.47 323.22 36.15 327.06 44.1 327.86 42.43 324.02 34.47" fill="#ee6730"/>
            <polygon points="337.17 65.04 341.01 72.99 341.81 71.32 337.97 63.36 337.17 65.04" fill="#ee6730"/>
            <polygon points="318.57 26.52 322.41 34.47 323.21 32.8 319.92 25.98 318.83 25.98 318.57 26.52" fill="#ee6730"/>
            <polygon points="333.32 53.73 332.52 55.41 336.36 63.36 337.16 61.69 333.32 53.73" fill="#ee6730"/>
            <polygon points="318.83 25.98 319.92 25.98 319.22 24.52 318.57 24.84 319.22 25.15 318.83 25.98" fill="#ee6730"/>
            <polygon points="341.01 72.99 341.82 74.67 342.62 72.99 341.81 71.32 341.01 72.99" fill="#ee6730"/>
            <polygon points="336.36 63.36 337.17 65.04 337.97 63.36 337.16 61.69 336.36 63.36" fill="#ee6730"/>
            <polygon points="332.51 52.06 331.71 53.73 332.52 55.41 333.32 53.73 332.51 52.06" fill="#ee6730"/>
            <polygon points="327.86 42.43 327.06 44.1 327.87 45.78 328.67 44.1 327.86 42.43" fill="#ee6730"/>
            <polygon points="323.21 32.8 322.41 34.47 323.22 36.15 324.02 34.47 323.21 32.8" fill="#ee6730"/>
            <polygon points="318.31 25.98 318.57 26.52 318.83 25.98 318.31 25.98" fill="#ee6730"/>
            <polygon points="318.31 25.98 318.83 25.98 319.22 25.15 318.57 24.84 317.91 25.16 318.31 25.98" fill="#ee6730"/>
            <polygon points="337.14 45.78 340.99 53.73 341.79 52.06 337.95 44.1 337.14 45.78" fill="#ee6730"/>
            <polygon points="341.79 55.41 345.63 63.36 346.44 61.69 342.6 53.73 341.79 55.41" fill="#ee6730"/>
            <polygon points="327.84 26.52 331.69 34.47 332.49 32.8 329.2 25.98 328.1 25.98 327.84 26.52" fill="#ee6730"/>
            <polygon points="336.34 44.1 337.14 42.43 333.3 34.47 332.49 36.15 336.34 44.1" fill="#ee6730"/>
            <polygon points="328.1 25.98 329.2 25.98 328.5 24.52 327.84 24.84 328.5 25.15 328.1 25.98" fill="#ee6730"/>
            <polygon points="345.63 63.36 346.44 65.04 347.25 63.36 346.44 61.69 345.63 63.36" fill="#ee6730"/>
            <polygon points="340.99 53.73 341.79 55.41 342.6 53.73 341.79 52.06 340.99 53.73" fill="#ee6730"/>
            <polygon points="337.95 44.1 337.14 42.43 336.34 44.1 337.14 45.78 337.95 44.1" fill="#ee6730"/>
            <polygon points="333.3 34.47 332.49 32.8 331.69 34.47 332.49 36.15 333.3 34.47" fill="#ee6730"/>
            <polygon points="327.58 25.98 327.84 26.52 328.1 25.98 327.58 25.98" fill="#ee6730"/>
            <polygon points="327.58 25.98 328.1 25.98 328.5 25.15 327.84 24.84 327.19 25.16 327.58 25.98" fill="#ee6730"/>
            <polygon points="337.12 26.52 340.96 34.47 341.77 32.8 338.47 25.98 337.38 25.98 337.12 26.52" fill="#ee6730"/>
            <polygon points="346.42 45.78 350.26 53.73 351.07 52.06 347.22 44.1 346.42 45.78" fill="#ee6730"/>
            <polygon points="345.61 44.1 346.42 42.43 342.57 34.47 341.77 36.15 345.61 44.1" fill="#ee6730"/>
            <polygon points="337.38 25.98 338.47 25.98 337.77 24.52 337.12 24.84 337.77 25.15 337.38 25.98" fill="#ee6730"/>
            <polygon points="350.26 53.73 351.07 55.41 351.87 53.73 351.07 52.06 350.26 53.73" fill="#ee6730"/>
            <polygon points="345.61 44.1 346.42 45.78 347.22 44.1 346.42 42.43 345.61 44.1" fill="#ee6730"/>
            <polygon points="342.57 34.47 341.77 32.8 340.96 34.47 341.77 36.15 342.57 34.47" fill="#ee6730"/>
            <polygon points="336.86 25.98 337.12 26.52 337.38 25.98 336.86 25.98" fill="#ee6730"/>
            <polygon points="336.86 25.98 337.38 25.98 337.77 25.15 337.12 24.84 336.46 25.16 336.86 25.98" fill="#ee6730"/>
            <polygon points="351.05 36.15 354.89 44.1 355.69 42.43 351.85 34.47 351.05 36.15" fill="#ee6730"/>
            <polygon points="346.4 26.52 350.24 34.47 351.04 32.8 347.75 25.98 346.65 25.98 346.4 26.52" fill="#ee6730"/>
            <polygon points="346.65 25.98 347.75 25.98 347.05 24.52 346.39 24.84 347.05 25.15 346.65 25.98" fill="#ee6730"/>
            <polygon points="354.89 44.1 355.7 45.78 356.5 44.1 355.69 42.43 354.89 44.1" fill="#ee6730"/>
            <polygon points="350.24 34.47 351.05 36.15 351.85 34.47 351.04 32.8 350.24 34.47" fill="#ee6730"/>
            <polygon points="346.13 25.98 346.4 26.52 346.65 25.98 346.13 25.98" fill="#ee6730"/>
            <polygon points="346.13 25.98 346.65 25.98 347.05 25.15 346.39 24.84 345.74 25.16 346.13 25.98" fill="#ee6730"/>
            <polygon points="357.03 25.98 355.93 25.98 355.67 26.52 359.51 34.47 360.32 32.8 357.03 25.98" fill="#ee6730"/>
            <polygon points="355.93 25.98 357.03 25.98 356.32 24.52 355.67 24.84 356.33 25.15 355.93 25.98" fill="#ee6730"/>
            <polygon points="359.51 34.47 360.32 36.15 361.13 34.47 360.32 32.8 359.51 34.47" fill="#ee6730"/>
            <polygon points="355.67 26.52 355.93 25.98 355.41 25.98 355.67 26.52" fill="#ee6730"/>
            <polygon points="355.41 25.98 355.93 25.98 356.33 25.15 355.67 24.84 355.02 25.16 355.41 25.98" fill="#ee6730"/>
          </g>
        </g>
      </g>
    </g>
  </g>
</svg>