<?xml version="1.0" encoding="UTF-8"?>
<svg id="Layer_2" data-name="Layer 2" xmlns="http://www.w3.org/2000/svg" viewBox="0 0 442.71 317.71">
  <g id="Layer_1-2" data-name="Layer 1">
    <g>
      <g>
        <path d="M23.84,4.43h395.02c10.72,0,19.42,8.7,19.42,19.42v270.02c0,10.72-8.7,19.42-19.42,19.42H23.84c-10.72,0-19.42-8.7-19.42-19.42V23.84C4.43,13.13,13.13,4.43,23.84,4.43Z"/>
        <path d="M418.86,8.85c8.24,0,14.99,6.75,14.99,14.99v270.02c0,8.24-6.75,14.99-14.99,14.99H23.84c-8.24,0-14.99-6.75-14.99-14.99V23.84c0-8.24,6.75-14.99,14.99-14.99h395.02M418.86,0H23.84C10.7,0,0,10.7,0,23.84v270.02c0,13.15,10.7,23.84,23.84,23.84h395.02c13.15,0,23.84-10.7,23.84-23.84V23.84c0-13.15-10.7-23.84-23.84-23.84h0Z" fill="#fff"/>
      </g>
      <g>
        <g>
          <path d="M100.8,214.16h7.77v13.92h19.07v-13.92h7.77v35.32h-7.77v-13.98h-19.07v13.98h-7.77v-35.32Z" fill="#538cc9"/>
          <path d="M143.83,244.19v-24.72l5.3-5.3h24.52l5.3,5.3v24.72l-5.3,5.3h-24.52l-5.3-5.3ZM171.18,242.27v-20.89h-19.58v20.89h19.58Z" fill="#538cc9"/>
          <path d="M187.23,244.19v-24.72l5.3-5.3h23.82l5.3,5.3v8.23h-7.77v-6.31h-18.87v20.89h18.87v-6.31h7.77v8.23l-5.3,5.3h-23.82l-5.3-5.3Z" fill="#538cc9"/>
          <path d="M229.91,214.16h7.77v17.05l18.06-17.05h9.74l-13.68,12.92,14.38,22.4h-8.83l-11.1-17.46-8.58,8.17v9.28h-7.77v-35.32Z" fill="#538cc9"/>
          <path d="M271.34,214.16h30.88v6.96h-23.11v7.22h17.56v6.91h-17.56v7.27h23.31v6.96h-31.08v-35.32Z" fill="#538cc9"/>
          <path d="M320.73,235.86l-15.9-21.7h8.98l10.9,14.98,10.9-14.98h8.78l-15.89,21.7v13.62h-7.77v-13.62Z" fill="#538cc9"/>
          <path d="M105.54,258.13h7.77v28.2h22.2v7.11h-29.97v-35.32Z" fill="#538cc9"/>
          <path d="M141.06,258.13h30.88v6.96h-23.11v7.22h17.56v6.91h-17.56v7.27h23.31v6.96h-31.08v-35.32Z" fill="#538cc9"/>
          <path d="M192.52,258.13h7.32l17.26,35.32h-8.48l-2.87-6.16h-19.37l-2.88,6.16h-8.27l17.31-35.32ZM202.51,280.33l-6.46-13.88-6.46,13.88h12.92Z" fill="#538cc9"/>
          <path d="M220.63,288.15v-24.72l5.3-5.3h24.27l5.3,5.3v6.31h-7.77v-4.54h-19.33v21.19h19.33v-6.36h-11.25v-6.56h19.02v14.68l-5.3,5.3h-24.27l-5.3-5.3Z" fill="#538cc9"/>
          <path d="M263.62,288.15v-30.02h7.77v28.1h18.47v-28.1h7.77v30.02l-5.3,5.3h-23.41l-5.3-5.3Z" fill="#538cc9"/>
          <path d="M306.15,258.13h30.88v6.96h-23.11v7.22h17.56v6.91h-17.56v7.27h23.31v6.96h-31.08v-35.32Z" fill="#538cc9"/>
        </g>
        <g>
          <g>
            <rect x="239.17" y="182.64" width="11.47" height="12.46" fill="none"/>
            <polygon points="313.99 191.58 321.69 191.58 317.84 183.3 313.99 191.58" fill="none"/>
            <rect x="366.29" y="182.64" width="11.68" height="12.46" fill="none"/>
            <rect x="87.83" y="182.64" width="11.68" height="12.46" fill="none"/>
            <polygon points="39.21 186.7 39.21 182.4 49.8 182.4 49.8 184.78 54.44 184.78 54.44 181.49 51.28 178.33 37.73 178.33 34.57 181.49 34.57 187.88 37.55 190.85 49.92 190.85 49.92 195.34 39.09 195.34 39.09 192.81 34.45 192.81 34.45 196.24 37.61 199.4 51.4 199.4 54.56 196.24 54.56 189.68 51.58 186.7 39.21 186.7" fill="#fff"/>
            <path d="M59.38,178.33v21.07h4.64v-7.55h11.86l3.16-3.16v-7.19l-3.16-3.16h-16.49ZM74.4,187.66h-10.38v-5.15h10.38v5.15Z" fill="#fff"/>
            <path d="M86.36,178.33l-3.16,3.16v14.75l3.16,3.16h14.63l3.16-3.16v-14.75l-3.16-3.16h-14.63ZM99.51,195.1h-11.68v-12.46h11.68v12.46Z" fill="#fff"/>
            <path d="M125.68,191.73l3.16-3.16v-7.07l-3.16-3.16h-16.49v21.07h4.64v-7.67h6.92l4,7.67h4.91l-4.03-7.67h.06ZM124.2,187.54h-10.38v-5.03h10.38v5.03Z" fill="#fff"/>
            <polygon points="131.83 182.64 139.74 182.64 139.74 199.4 144.38 199.4 144.38 182.64 152.26 182.64 152.26 178.33 131.83 178.33 131.83 182.64" fill="#fff"/>
            <polygon points="159.86 186.7 159.86 182.4 170.45 182.4 170.45 184.78 175.09 184.78 175.09 181.49 171.93 178.33 158.38 178.33 155.22 181.49 155.22 187.88 158.2 190.85 170.57 190.85 170.57 195.34 159.74 195.34 159.74 192.81 155.1 192.81 155.1 196.24 158.26 199.4 172.05 199.4 175.21 196.24 175.21 189.68 172.23 186.7 159.86 186.7" fill="#fff"/>
            <polygon points="190.24 199.4 194.88 199.4 194.88 191.12 205.59 191.12 205.59 187 194.88 187 194.88 182.49 208.51 182.49 208.51 178.33 190.24 178.33 190.24 199.4" fill="#fff"/>
            <polygon points="216.52 190.91 227 190.91 227 186.79 216.52 186.79 216.52 182.49 230.31 182.49 230.31 178.33 211.89 178.33 211.89 199.4 230.43 199.4 230.43 195.25 216.52 195.25 216.52 190.91" fill="#fff"/>
            <path d="M234.53,178.33v21.07h17.58l3.16-3.16v-14.75l-3.16-3.16h-17.58ZM250.63,195.1h-11.47v-12.46h11.47v12.46Z" fill="#fff"/>
            <polygon points="264.94 190.91 275.41 190.91 275.41 186.79 264.94 186.79 264.94 182.49 278.72 182.49 278.72 178.33 260.3 178.33 260.3 199.4 278.84 199.4 278.84 195.25 264.94 195.25 264.94 190.91" fill="#fff"/>
            <path d="M299.44,191.73l3.16-3.16v-7.07l-3.16-3.16h-16.49v21.07h4.64v-7.67h6.92l4,7.67h4.91l-4.03-7.67h.06ZM297.97,187.54h-10.38v-5.03h10.38v5.03Z" fill="#fff"/>
            <path d="M315.73,178.33l-10.32,21.07h4.94l1.72-3.67h11.56l1.72,3.67h5.06l-10.29-21.07h-4.36ZM313.99,191.58l3.85-8.28,3.85,8.28h-7.7Z" fill="#fff"/>
            <polygon points="327.93 182.64 335.85 182.64 335.85 199.4 340.48 199.4 340.48 182.64 348.37 182.64 348.37 178.33 327.93 178.33 327.93 182.64" fill="#fff"/>
            <rect x="351.93" y="178.33" width="4.63" height="21.07" fill="#fff"/>
            <path d="M364.81,178.33l-3.16,3.16v14.75l3.16,3.16h14.63l3.16-3.16v-14.75l-3.16-3.16h-14.63ZM377.97,195.1h-11.68v-12.46h11.68v12.46Z" fill="#fff"/>
            <polygon points="403.83 178.33 403.83 192.33 391.97 178.33 387.64 178.33 387.64 199.4 392.07 199.4 392.07 185.38 403.98 199.4 408.25 199.4 408.25 178.33 403.83 178.33" fill="#fff"/>
          </g>
          <g>
            <g>
              <rect x="97.87" y="23.96" width="3.04" height="29.35" fill="#468943"/>
              <g>
                <rect x="97.87" y="42.66" width="3.04" height="12.5" transform="translate(50.49 148.3) rotate(-90)" fill="#468943"/>
                <rect x="97.87" y="35.8" width="3.04" height="12.5" transform="translate(57.34 141.45) rotate(-90)" fill="#468943"/>
                <rect x="97.87" y="28.95" width="3.04" height="12.5" transform="translate(64.19 134.6) rotate(-90)" fill="#468943"/>
                <rect x="97.87" y="22.1" width="3.04" height="12.5" transform="translate(71.04 127.75) rotate(-90)" fill="#468943"/>
              </g>
            </g>
            <polygon points="238.18 60.63 238.18 60.63 238.18 60.63 238.18 60.63" fill="none"/>
            <polygon points="198.41 97.95 198.41 97.95 198.4 97.95 198.41 97.95" fill="none"/>
            <polygon points="238.14 60.5 238.14 60.5 238.14 60.5 238.14 60.5" fill="none"/>
            <polygon points="238.27 61.05 238.27 61.05 238.27 61.05 238.27 61.05" fill="none"/>
            <polygon points="238.26 60.99 238.26 60.99 238.26 60.99 238.26 60.99" fill="none"/>
            <polygon points="238.21 60.78 238.21 60.78 238.21 60.78 238.21 60.78" fill="none"/>
            <polygon points="233.8 65.51 233.8 65.51 233.8 65.51 233.8 65.51" fill="none"/>
            <polygon points="237.27 61.17 237.27 61.17 237.27 61.17 237.27 61.17" fill="none"/>
            <polygon points="233.77 68.66 233.78 68.65 233.77 68.65 233.77 68.66" fill="none"/>
            <polygon points="225.42 91.7 225.42 91.7 225.42 91.7 225.42 91.7" fill="none"/>
            <path d="M194.5,105.06h53.73v-54.35h-53.73v54.35ZM197.1,92.69c.03.12.06.23.11.34.63.41,1.17.74,1.81,1.08-.52-.92-.64-1.95-.59-2.65-.36-.68-.12-1.18.07-1.35.2-.18.47-.22.73-.1.37.17.73.66.71,1.27,0,.26-.1.46-.25.6.02.25.03.52.04.77.04.42.04.5.08.73v.03s0,0,0,0c.07.35.17.85.37,1.28l1.94.79c-.62-.86-.87-1.9-.89-2.66-.42-.63-.25-1.15-.07-1.37.19-.23.46-.31.74-.21.38.12.78.56.82,1.17.02.26-.05.48-.19.66.05.25.08.52.12.78q.07.37.16.74v.02c.11.35.26.86.5,1.26l2.05.5c-.72-.78-1.09-1.83-1.19-2.62-.5-.58-.38-1.19-.17-1.45.18-.23.45-.32.74-.25.43.11.79.54.87,1.05.07.39-.07.63-.14.73.06.22.13.46.22.75.14.48.15.52.23.74v.04c.19.49.4.9.63,1.2l2.12.2c-.2-.17-.38-.36-.55-.58-.32-.41-.74-1.25-.92-1.96-.54-.52-.48-1.14-.31-1.44.16-.27.42-.39.73-.35.43.06.83.45.96.94.1.37.01.62-.05.74.1.25.2.52.28.77q.14.36.31.73v.02c.18.33.43.81.75,1.16h.07s.04.11.04.11v-.12s.04.16.04.16v-.16s.04.16.04.16v-.16s.04,0,.04,0l.06.15v-.16s.05.15.05.15v-.16s.07.15.07.15v-.16s.06.15.06.15v-.16s.04.15.04.15h0v-.16s.06.15.06.15h0s-.04-.15-.04-.15h.04s0,0,0,0h.04s.24-.02.24-.02h0c.44,0,.88-.03,1.32-.07-.89-.6-1.48-1.6-1.75-2.39-.61-.46-.62-1.1-.48-1.43.13-.3.38-.47.71-.46.44.01.86.34,1.05.83.15.39.06.67.02.79.11.21.23.44.37.72.05.11.14.29.37.69l.02.02c.29.48.58.85.86,1.1.73-.1,1.46-.24,2.18-.4-.24-.12-.48-.28-.7-.47-.37-.31-.99-1.09-1.32-1.78-.63-.39-.71-1.03-.6-1.38.1-.32.36-.53.68-.56.44-.04.88.25,1.11.71.18.35.14.63.1.77.16.24.31.49.44.72.24.37.29.45.45.67l.02.04c.32.43.65.77.96.98.72-.2,1.45-.44,2.16-.71-1.02-.39-1.83-1.27-2.26-2.03-.69-.31-.83-.96-.76-1.33.07-.35.31-.6.64-.66.42-.08.9.16,1.17.59.22.34.2.63.18.77.18.22.35.46.52.68.09.11.25.31.51.61l.02.02c.38.42.74.73,1.07.91.71-.3,1.42-.64,2.11-1.01-1.05-.27-1.95-1.07-2.47-1.78-.73-.22-.95-.87-.91-1.26.03-.37.26-.65.59-.75.42-.13.9.05,1.22.45.25.32.27.62.26.77.21.21.41.43.59.63.3.31.39.4.58.57l.03.03c.41.36.8.63,1.14.77.69-.4,1.36-.84,2.02-1.3-1.09-.14-2.07-.85-2.66-1.52-.75-.14-1.03-.77-1.04-1.17,0-.39.19-.7.53-.84.4-.17.89-.04,1.25.32.29.29.33.59.34.74.23.19.46.39.66.57q.32.27.65.51h.02c.36.25.8.54,1.23.67.65-.5,1.29-1.03,1.9-1.59-1.12,0-2.18-.6-2.84-1.22-.76-.05-1.1-.65-1.15-1.05-.05-.4.13-.75.46-.93.38-.21.88-.14,1.27.17.34.28.41.6.43.75.21.14.45.29.71.46.12.08.26.18.68.43h.03c.5.3.94.48,1.3.54.61-.61,1.2-1.25,1.76-1.91-1.22.16-2.4-.39-3.02-.86-.02,0-.03,0-.05,0-.71,0-1.09-.54-1.18-.93-.09-.4.05-.78.38-1,.36-.25.86-.25,1.26.01.35.22.46.52.5.68.27.13.53.28.77.41q.35.18.75.36h.02c.52.23.97.35,1.34.37.11-.14.22-.28.32-.42h0c.16-.22.32-.44.48-.66-.12-.3-.36-.65-.76-1.14h-.01q-.27-.3-.58-.61c-.19-.17-.42-.37-.63-.59-.01,0-.03,0-.04,0-.66,0-1.03-.48-1.14-.78-.15-.4-.06-.8.23-1.08.32-.29.8-.35,1.24-.15.34.16.56.43.65.8.62.46,1.52,1.34,1.74,2.49.47-.72.92-1.45,1.33-2.21-.16-.31-.45-.65-.88-1.05l-.02-.02c-.18-.17-.24-.21-.64-.52-.22-.15-.46-.33-.7-.52-.68.09-1.1-.36-1.25-.64-.2-.38-.16-.79.1-1.09.28-.33.74-.43,1.2-.27.36.12.6.36.74.72.72.43,1.68,1.22,2.03,2.28.37-.75.71-1.52,1.02-2.29-.19-.3-.52-.61-1.02-.96l-.03-.02c-.39-.27-.55-.36-.67-.43-.28-.17-.52-.32-.72-.45-.73.19-1.23-.3-1.39-.58-.19-.34-.18-.73.05-1.02.25-.33.68-.47,1.12-.36.36.09.64.3.82.64.7.32,1.78.99,2.27,2.04.27-.77.51-1.56.72-2.34-.24-.28-.6-.56-1.11-.85q-.36-.19-.75-.38c-.24-.1-.53-.23-.79-.36-.69.24-1.22-.18-1.41-.44-.23-.32-.26-.7-.08-1.01.2-.34.61-.52,1.06-.47.37.05.66.23.88.54.78.26,1.89.84,2.48,1.79.17-.78.31-1.57.42-2.36-.27-.26-.65-.5-1.2-.73-.35-.15-.71-.28-.78-.3-.3-.11-.57-.2-.8-.29-.65.33-1.25-.04-1.47-.28-.27-.29-.35-.67-.2-1,.16-.36.55-.56.99-.56.37,0,.68.16.93.45.75.17,1.93.59,2.65,1.51.07-.78.12-1.57.13-2.34-.28-.2-.68-.39-1.28-.61h0c-.39-.11-.4-.12-.8-.22-.26-.05-.56-.11-.84-.19-.6.36-1.21.07-1.46-.14-.31-.26-.42-.62-.31-.96.12-.36.47-.61.91-.64.36-.03.69.09.97.34.81.1,2,.43,2.78,1.21-.02-.77-.08-1.54-.16-2.29-.32-.2-.74-.35-1.3-.47h0s-.03,0-.03,0c-.25-.06-.35-.07-.8-.14-.27-.03-.57-.06-.86-.11-.54.41-1.18.19-1.45,0-.33-.23-.5-.58-.42-.93.08-.36.39-.64.82-.71.36-.06.69.02,1,.24.77.02,1.99.21,2.88.92-.08-.5-.17-1-.27-1.48l.14-.09h0s-.15.04-.15.04h0s-.16-.69-.16-.69c-.32-.16-.77-.27-1.36-.33h-.03c-.3-.03-.32-.04-.78-.06-.31-.01-.59-.03-.83-.04-.49.48-1.16.32-1.45.17-.36-.19-.57-.53-.53-.88.04-.36.31-.65.72-.77.35-.1.69-.05,1.03.15.73-.05,1.94,0,2.91.61l-.66-1.99-.05-.12c-.31-.1-.75-.17-1.38-.2h-.02c-.24,0-.27,0-.8.02-.28.03-.56.05-.84.07-.42.49-1.09.4-1.39.29-.39-.15-.64-.47-.64-.82,0-.35.23-.66.61-.81.33-.13.67-.12,1.03.04.64-.11,1.86-.2,2.93.3l-.92-1.87-.06-.11c-.17-.04-.63-.12-1.39-.05h-.03s0,0,0,0c-.3.03-.31.03-.76.1-.3.05-.56.09-.79.12-.22.34-.61.49-.98.49-.16,0-.32-.03-.46-.07-.38-.13-.64-.42-.66-.76-.02-.29.13-.56.41-.74h6.53c-.28.18-.49.36-.62.54l1.08,2.15c.46-.93,1.47-1.37,1.92-1.53.05-.14.16-.36.46-.46.39-.13,1.11.04,1.51.81.03.07.06.15.08.22.1.35.01.68-.23.87-.13.11-.3.16-.48.16s-.37-.06-.57-.15c-.21.09-.44.17-.68.25-.45.18-.48.19-.63.27h-.03c-.35.21-.7.41-.92.63l.78,2.27c.59-.91,1.67-1.26,2.16-1.38.06-.13.2-.35.52-.43.41-.09,1.12.14,1.42.97.02.06.03.09.03.12.09.4-.03.77-.31.96-.13.09-.28.13-.44.13-.21,0-.44-.08-.67-.22-.18.06-.4.12-.68.21-.33.1-.38.11-.65.2l-.04.02c-.46.17-.81.35-1.04.54h0s-.04.03-.04.03c-.01.01-.03.03-.04.04h0s-.05.02-.05.02h0s.14-.03.14-.03l-.14.08s0,0,0,0l.15-.04.04.17-.14.07h.16s0,.04,0,.04l-.14.1.15-.04.03.13-.14.09h0s.15-.04.15-.04l.03.16c.11.51.22,1.06.3,1.61.59-.73,1.53-1.11,2.37-1.21.08-.13.25-.34.58-.39.43-.06,1.12.24,1.31,1.11l.02.12c.04.42-.14.78-.45.94-.11.06-.24.09-.37.09-.23,0-.47-.09-.69-.27-.22.05-.47.09-.75.13-.38.07-.5.1-.71.16h-.03s0,0,0,0c-.48.12-.85.28-1.11.45.09.81.15,1.63.18,2.46.83-.82,2.03-.97,2.55-1,.1-.12.3-.32.63-.34.43-.02,1.1.35,1.18,1.24v.04s0,.06,0,.08c-.02.43-.24.78-.59.91-.09.04-.19.05-.29.05-.25,0-.51-.12-.74-.33-.24.04-.51.05-.78.07q-.32.03-.74.1h-.02s0,0,0,0c-.52.12-.91.22-1.19.36,0,.83-.05,1.66-.13,2.49.94-.75,2.17-.8,2.69-.78.11-.11.35-.29.68-.29.25,0,.51.13.7.34.17.18.36.5.35,1.02v.04s-.01.06-.01.09c-.07.44-.35.77-.73.87-.07.02-.14.03-.21.03-.29,0-.57-.15-.8-.43-.21,0-.46.01-.77.02-.01,0-.41,0-.76.03h-.02s-.02,0-.02,0c-.5.04-.92.13-1.23.26-.11.83-.26,1.67-.44,2.49,1.03-.66,2.24-.61,2.81-.53.12-.1.37-.27.72-.23.25.03.5.18.67.4.15.19.3.53.22,1.05-.13.51-.46.87-.86.93-.04,0-.09.01-.13.01-.31,0-.6-.18-.81-.48-.25,0-.52-.04-.8-.08q-.33-.02-.77-.04h-.04c-.51-.01-.95.04-1.28.14-.22.83-.47,1.66-.75,2.47,1.13-.57,2.37-.4,2.9-.28.13-.09.41-.24.75-.17.25.05.48.23.63.46.13.21.25.57.1,1.09-.19.52-.58.84-1.01.86-.01,0-.02,0-.03,0-.35,0-.66-.22-.86-.58-.21-.03-.46-.07-.78-.12-.12-.02-.25-.05-.75-.11h-.04c-.55-.06-1.01-.06-1.35.02-.32.81-.68,1.62-1.06,2.4,1.19-.46,2.4-.18,2.96,0,.15-.08.44-.2.78-.1.25.07.46.27.58.52.1.22.18.59-.03,1.09-.25.48-.65.76-1.07.76-.02,0-.05,0-.07,0-.35-.03-.64-.27-.79-.64-.24-.05-.5-.13-.79-.22-.42-.11-.55-.14-.76-.18h-.03c-.54-.12-1-.15-1.35-.11-.42.78-.89,1.55-1.38,2.3,1.31-.35,2.54.08,2.99.27.16-.06.47-.16.8-.03.24.1.43.31.52.56.08.23.12.61-.17,1.1-.29.42-.69.66-1.08.66-.06,0-.12,0-.19-.02-.34-.07-.59-.33-.7-.7-.24-.07-.49-.18-.77-.29q-.32-.11-.76-.26h0c-.6-.15-1.03-.24-1.37-.24h0c-.14.19-.27.38-.41.56h0s-.1.13-.1.13c0,0,0,0,0,0l-.09.11h0c-.08.1-.16.21-.24.31.11.36.32.75.64,1.19v.02q.31.38.5.62c.17.18.36.39.52.6.14-.01.38,0,.6.13.22.13.37.36.42.62.04.24.02.61-.33,1.04-.06.06-.13.13-.18.18-.25.21-.56.32-.84.32-.18,0-.35-.04-.5-.12-.32-.18-.47-.51-.44-.91-.57-.63-1-1.6-1-1.61-.09-.26-.18-.63-.2-1.07-.15.17-.29.35-.44.52h.02s-.02,0-.02,0c-.44.5-.9.98-1.37,1.45.07.34.25.75.53,1.22l.02.04c.27.42.34.52.41.61.17.24.31.46.43.64.14,0,.39.03.62.19.21.15.34.4.36.66.02.23-.04.58-.43.95-.07.05-.14.11-.2.15-.23.14-.48.21-.72.21s-.45-.06-.63-.19c-.29-.21-.41-.54-.34-.91-.49-.65-.82-1.61-.86-1.76-.07-.33-.09-.65-.07-.96-.15.14-.3.28-.46.42h.1s-.14.03-.14.03c-.48.43-.98.83-1.49,1.22.04.32.18.71.4,1.22h0q.2.4.36.69c.13.21.28.44.39.67.14.02.36.08.56.25.2.17.31.43.3.69,0,.22-.1.55-.51.85-.07.04-.15.09-.22.12-.19.09-.39.13-.58.13-.3,0-.58-.1-.78-.28-.25-.23-.34-.55-.24-.9-.43-.68-.67-1.64-.69-1.79-.04-.33-.02-.64.03-.94-.69.49-1.4.96-2.13,1.38,0,.33.1.74.28,1.22.07.2.12.32.29.69.12.22.24.46.33.69.14.04.35.11.53.3.19.2.27.45.24.7-.03.21-.16.52-.6.77-.07.03-.16.07-.23.09-.14.05-.29.07-.44.07-.36,0-.71-.14-.92-.4-.21-.25-.25-.57-.13-.86-.36-.7-.5-1.63-.51-1.75,0-.34.04-.65.12-.95-.73.39-1.48.76-2.24,1.08-.03.31.02.71.16,1.2v.04s0,0,0,0c.12.38.18.58.21.66.09.23.19.47.26.7.13.05.34.15.5.35.17.21.23.47.17.71-.05.2-.21.47-.67.66l-.12.04c-.12.03-.25.05-.37.05-.42,0-.82-.18-1.04-.48-.19-.26-.21-.57-.06-.86-.27-.67-.35-1.58-.32-1.9.03-.27.09-.51.18-.75-.76.29-1.53.55-2.3.76-.05.3-.04.69.05,1.17.04.22.06.33.16.7.07.22.14.46.19.7.12.06.32.18.46.39.15.22.19.48.1.71-.07.19-.25.43-.73.56l-.12.02c-.06,0-.12.01-.19.01-.49,0-.98-.25-1.19-.62-.15-.27-.13-.56.05-.81-.21-.68-.21-1.53-.14-1.85.05-.25.14-.48.25-.69-.78.18-1.56.34-2.35.45-.08.29-.1.66-.06,1.11v.05s0,0,0,0c.05.41.07.53.09.63.04.26.08.49.1.68.11.07.32.21.45.45.13.23.14.49.04.69-.09.17-.29.39-.77.44h-.05s-.05,0-.07,0h0c-.57,0-1.13-.34-1.31-.78-.1-.26-.06-.53.13-.74-.14-.68-.06-1.49.03-1.78.08-.23.19-.44.32-.63-.48.05-.96.08-1.43.1h0s-.2.01-.2.01h-.12s0,0,0,0h-.25s-.05-.15-.05-.15v.16s-.27,0-.27,0l-.02-.05c-.09.22-.14.54-.18,1.09h0c.01.37.01.38.03.66.03.21.05.45.06.67.11.09.28.24.38.47.1.23.09.48-.03.67-.1.15-.31.32-.76.32-.01,0-.03,0-.04,0h-.04s-.05,0-.08-.01c-.58-.08-1.12-.5-1.23-.96-.06-.24.01-.47.19-.64-.1-.6-.02-1.44.46-2.1.04-.06.1-.11.15-.16l-2.07-.15-.3-.04c-.12.22-.2.53-.25.93h0s0,.03,0,.03c-.02.15-.02.19-.04.62,0,.24-.01.44-.03.61.1.09.27.27.35.52.08.24.05.47-.08.63-.09.11-.26.22-.58.22-.08,0-.17,0-.26-.02-.08-.02-.16-.04-.22-.06-.56-.2-1-.69-1.01-1.13,0-.21.08-.39.25-.5-.04-.58.11-1.36.64-1.92.05-.05.09-.09.14-.13l-2.06-.46-.24-.07c-.14.21-.24.53-.34.86h0c-.06.32-.06.33-.09.58-.01.2-.03.41-.06.6.09.11.22.29.28.52.06.24.01.46-.13.59-.08.08-.21.15-.42.15-.12,0-.26-.02-.43-.08-.07-.03-.15-.06-.21-.09-.54-.28-.93-.83-.89-1.24.02-.19.13-.34.3-.43.01-.3.08-.63.21-.94.16-.38.4-.67.71-.87l-1.97-.76-.22-.1c-.15.17-.27.44-.39.73v.02c-.04.11-.06.16-.15.53-.03.18-.06.38-.11.55.07.11.19.31.23.53.04.23-.03.43-.18.54-.07.05-.17.09-.31.09s-.33-.04-.56-.16c-.11-.07-.22-.13-.37-.27-.45-.4-.68-.91-.56-1.25.05-.15.17-.25.32-.29.04-.29.14-.59.31-.86.18-.3.44-.53.73-.66-.7-.37-1.29-.72-1.94-1.14v-1.54Z" fill="none"/>
            <polygon points="236.78 56.42 236.78 56.42 236.78 56.42 236.78 56.42" fill="none"/>
            <polygon points="237.23 61.03 237.23 61.03 237.23 61.03 237.23 61.03" fill="none"/>
            <polygon points="209.98 96.91 209.97 96.92 209.98 96.95 209.98 96.91" fill="none"/>
            <path d="M198.31,96.03c-.16.27-.26.58-.31.86-.16.04-.27.14-.32.29-.12.34.11.85.56,1.25.15.13.26.2.37.27.24.12.42.16.56.16s.24-.04.31-.09c.15-.11.21-.31.18-.54-.04-.22-.15-.41-.23-.53.05-.17.08-.37.11-.55.09-.37.1-.42.14-.53v-.02c.12-.28.25-.56.39-.73l.22.1,1.97.76c-.31.2-.55.49-.71.87-.13.31-.2.64-.21.94-.18.08-.29.23-.3.43-.04.42.35.96.89,1.24.06.03.14.06.21.09.17.06.31.08.43.08.21,0,.34-.07.42-.15.15-.14.2-.35.13-.59-.06-.23-.19-.41-.28-.52.03-.19.04-.4.06-.6.03-.25.03-.26.09-.58h0c.09-.33.2-.65.34-.86l.24.07,2.06.46s-.1.09-.14.13c-.53.56-.68,1.34-.64,1.92-.17.11-.26.29-.25.5.02.44.45.93,1.01,1.13.06.02.15.04.22.06.1.02.18.02.26.02.31,0,.49-.12.58-.22.14-.16.17-.39.08-.63-.08-.24-.26-.42-.35-.52.01-.17.02-.37.03-.61.01-.43.02-.47.04-.62v-.03s0,0,0,0c.04-.4.13-.71.25-.93l.3.04,2.07.15c-.05.05-.1.1-.15.16-.48.66-.55,1.5-.46,2.1-.18.17-.25.4-.19.64.11.46.65.88,1.23.96.02,0,.05,0,.08,0h.04s.03,0,.04,0c.45,0,.66-.17.76-.32.12-.19.14-.44.03-.67-.1-.22-.27-.38-.38-.47,0-.22-.04-.46-.06-.67-.02-.27-.02-.28-.03-.66h0c.04-.55.09-.87.18-1.09l.02.05h.28s0-.16,0-.16l.05.15h.25s0,0,0,0h.12s.2,0,.2,0h0c.47-.03.95-.07,1.43-.11-.13.19-.24.39-.32.63-.09.29-.17,1.1-.03,1.78-.19.21-.24.48-.13.74.18.45.74.78,1.31.78h0s.05,0,.07,0h.05c.48-.06.69-.28.77-.45.11-.21.09-.46-.04-.69-.13-.24-.33-.38-.45-.45-.02-.19-.06-.41-.1-.68-.02-.09-.04-.22-.09-.63h0s0-.05,0-.05c-.04-.46-.02-.82.06-1.11.78-.11,1.57-.26,2.35-.45-.11.21-.2.44-.25.69-.07.32-.06,1.17.14,1.85-.18.25-.19.54-.05.81.21.37.69.62,1.19.62.06,0,.12,0,.19-.01l.12-.02c.47-.12.66-.37.73-.56.09-.22.05-.48-.1-.71-.14-.21-.34-.33-.46-.39-.05-.23-.12-.48-.19-.7-.09-.36-.12-.48-.16-.7-.09-.48-.1-.87-.05-1.17.77-.22,1.54-.48,2.3-.76-.09.23-.15.48-.18.75-.03.32.05,1.23.32,1.9-.15.29-.13.6.06.86.22.3.62.48,1.04.48.12,0,.25-.02.37-.05l.12-.04c.46-.19.61-.46.67-.66.06-.24,0-.5-.17-.71-.16-.2-.37-.3-.5-.35-.07-.23-.17-.47-.26-.7-.03-.08-.1-.28-.21-.66h0s-.01-.04-.01-.04c-.14-.5-.19-.89-.16-1.2.76-.32,1.5-.69,2.24-1.08-.08.3-.12.61-.12.95,0,.12.15,1.05.51,1.75-.13.3-.08.61.13.86.21.26.56.4.92.4.14,0,.29-.02.44-.07.07-.02.15-.06.23-.09.44-.25.57-.55.6-.77.04-.25-.05-.51-.24-.7-.18-.19-.4-.26-.53-.3-.09-.23-.21-.46-.33-.69-.17-.38-.22-.5-.29-.69-.19-.49-.28-.9-.28-1.22.73-.43,1.44-.89,2.13-1.38-.05.3-.06.61-.03.94.02.15.26,1.11.69,1.79-.1.35-.01.67.24.9.2.18.48.28.78.28.2,0,.4-.04.58-.13.06-.03.14-.08.22-.12.41-.31.51-.63.51-.85,0-.26-.1-.52-.3-.69-.2-.17-.42-.23-.56-.25-.12-.23-.26-.46-.39-.67q-.16-.29-.36-.68h0c-.22-.52-.36-.91-.4-1.23.51-.39,1-.8,1.49-1.22l.14-.04h-.1c.16-.13.31-.27.46-.41-.02.31,0,.63.07.96.03.16.37,1.11.86,1.76-.07.38.05.71.34.91.18.13.4.19.63.19.24,0,.5-.07.72-.21.06-.04.14-.1.2-.15.39-.37.45-.72.43-.95-.02-.26-.15-.51-.36-.66-.23-.16-.48-.19-.62-.19-.12-.19-.26-.4-.43-.64-.07-.09-.14-.19-.41-.61l-.02-.04c-.29-.47-.46-.88-.53-1.22.47-.47.93-.95,1.37-1.45h.02s-.02,0-.02,0c.15-.17.3-.35.44-.52.02.43.11.81.2,1.07,0,0,.44.98,1,1.61-.03.41.12.74.44.91.15.08.32.12.5.12.29,0,.59-.11.84-.32.06-.05.13-.12.18-.18.35-.43.37-.81.33-1.04-.05-.26-.21-.49-.42-.62-.23-.13-.46-.14-.6-.13-.16-.21-.35-.42-.52-.6q-.2-.24-.49-.62v-.02c-.33-.44-.54-.83-.65-1.19.08-.1.16-.21.24-.31h0s.09-.11.09-.11c0,0,0,0,0,0l.1-.13h0c.14-.19.28-.37.41-.56h0c.35,0,.77.09,1.37.23h0q.44.14.76.26c.28.12.53.22.77.29.11.38.35.63.7.7.06.01.12.02.19.02.39,0,.79-.24,1.08-.66.28-.49.25-.87.17-1.1-.09-.26-.28-.47-.52-.56-.33-.13-.64-.04-.8.03-.45-.19-1.69-.62-2.99-.27.49-.75.95-1.52,1.38-2.3.35-.04.8,0,1.35.1h.03c.22.05.34.08.76.19.29.09.55.17.79.22.15.37.44.61.79.64.02,0,.05,0,.07,0,.42,0,.82-.28,1.07-.76.21-.5.13-.87.03-1.09-.12-.25-.33-.45-.58-.52-.34-.1-.64.02-.78.1-.56-.18-1.77-.45-2.96,0,.39-.79.74-1.59,1.06-2.4.35-.07.8-.08,1.35-.02h.04c.5.07.63.09.75.12.32.05.57.09.78.12.19.37.5.58.86.58.01,0,.02,0,.03,0,.43-.02.81-.34,1.01-.86.15-.52.03-.88-.1-1.09-.14-.24-.38-.41-.63-.46-.35-.07-.62.08-.75.17-.53-.12-1.77-.29-2.9.28.28-.81.54-1.64.75-2.47.33-.1.77-.15,1.28-.15h.04q.44.02.77.05c.28.04.55.07.8.08.21.3.5.48.81.48.04,0,.09,0,.13-.01.41-.06.74-.42.86-.93.08-.52-.08-.86-.22-1.05-.17-.22-.42-.37-.67-.4-.35-.04-.6.13-.72.23-.57-.07-1.79-.13-2.81.53.18-.82.33-1.66.44-2.49.31-.13.74-.22,1.23-.26h.02s.02,0,.02,0c.35-.03.75-.03.76-.03.3,0,.55,0,.77-.02.23.28.51.43.8.43.07,0,.14,0,.21-.03.37-.09.65-.43.73-.87,0-.03,0-.06.01-.09v-.04c.02-.52-.17-.84-.34-1.02-.19-.2-.45-.33-.7-.34-.33,0-.57.18-.68.29-.53-.02-1.75.03-2.69.78.08-.83.12-1.67.13-2.49.28-.14.67-.25,1.19-.36h0s.02,0,.02,0q.42-.06.74-.1c.27-.01.53-.03.78-.07.23.21.49.33.74.33.1,0,.2-.02.29-.05.35-.13.57-.48.59-.91,0-.02,0-.05,0-.08v-.04c-.08-.9-.75-1.26-1.18-1.24-.34.02-.54.22-.63.34-.52.03-1.71.19-2.55,1-.02-.82-.08-1.65-.18-2.46.26-.18.63-.33,1.11-.45h0s.03,0,.03,0c.21-.06.33-.08.71-.16.28-.04.53-.08.75-.13.23.17.47.27.69.27.13,0,.25-.03.37-.09.32-.16.49-.52.45-.94l-.02-.12c-.19-.87-.88-1.18-1.31-1.11-.33.05-.5.26-.58.39-.84.11-1.77.48-2.37,1.21-.09-.55-.19-1.1-.3-1.61l-.03-.16-.15.04h0s.14-.09.14-.09l-.03-.13-.15.04.14-.1v-.04s-.17,0-.17,0l.14-.07-.04-.17-.15.04s0,0,0,0l.14-.08-.14.03h0s.05-.03.05-.03h0s.03-.02.04-.03l.04-.02h0c.23-.2.58-.38,1.04-.55l.04-.02c.27-.09.32-.11.65-.2.28-.08.5-.15.68-.21.23.15.45.22.67.22.16,0,.31-.04.44-.13.28-.19.4-.56.31-.96,0-.03-.01-.06-.03-.12-.3-.83-1.01-1.07-1.42-.97-.32.07-.46.29-.52.43-.49.12-1.57.46-2.16,1.38l-.78-2.27c.22-.21.57-.42.92-.61h.03c.15-.09.18-.1.63-.28.24-.08.47-.16.68-.25.2.1.39.15.57.15s.35-.05.48-.16c.24-.19.32-.52.23-.87-.02-.06-.05-.14-.08-.22-.4-.77-1.13-.94-1.51-.81-.3.1-.41.32-.46.46-.45.16-1.46.6-1.92,1.53l-1.08-2.15c.13-.18.35-.36.62-.54h-6.53c-.27.18-.43.45-.41.74.03.34.28.63.66.76.14.05.3.07.46.07.38,0,.77-.15.98-.49.23-.03.5-.07.79-.12.45-.07.46-.07.76-.1h0s.03,0,.03,0c.76-.07,1.22.01,1.39.05l.06.11.92,1.87c-1.07-.5-2.28-.41-2.93-.3-.36-.16-.7-.17-1.03-.04-.38.15-.61.46-.61.81,0,.36.25.67.64.82.3.12.97.2,1.39-.29.27-.01.56-.04.84-.07.53-.03.56-.03.8-.02h.02c.63.03,1.07.1,1.38.2l.05.12.66,1.99c-.97-.6-2.18-.66-2.91-.61-.33-.2-.68-.24-1.03-.15-.41.12-.68.41-.72.77-.04.35.17.69.53.88.29.15.96.31,1.45-.17.24.01.52.03.83.04.46.02.48.02.78.05h.03c.59.07,1.04.18,1.36.34l.16.69h0s.15-.04.15-.04h0s-.14.09-.14.09c.11.48.19.98.27,1.48-.89-.71-2.11-.9-2.88-.92-.31-.23-.64-.31-1-.24-.43.08-.74.35-.82.71-.07.35.09.7.42.93.27.18.91.4,1.45,0,.29.05.59.08.86.11.45.07.54.08.8.14h.03s0,0,0,0c.56.12.98.27,1.3.47.09.75.14,1.52.16,2.29-.79-.78-1.97-1.12-2.78-1.21-.28-.26-.6-.37-.97-.34-.44.03-.79.28-.91.64-.11.34,0,.7.31.96.25.21.86.5,1.46.14.28.08.58.14.84.19.4.1.41.1.8.22h0c.59.22,1,.41,1.28.61,0,.77-.05,1.56-.13,2.34-.72-.91-1.9-1.34-2.65-1.51-.25-.29-.56-.44-.93-.45-.44,0-.83.2-.99.56-.15.33-.08.7.2,1,.22.24.82.61,1.47.28.23.09.49.18.8.29.07.02.43.15.78.3.54.24.93.47,1.2.73-.1.79-.25,1.57-.42,2.36-.59-.94-1.7-1.52-2.48-1.79-.21-.31-.51-.49-.88-.54-.45-.06-.86.12-1.06.47-.19.31-.16.69.08,1.01.19.26.72.68,1.41.44.27.13.55.25.79.36q.38.19.75.38c.52.29.88.57,1.11.85-.2.78-.45,1.57-.72,2.34-.49-1.05-1.57-1.72-2.27-2.04-.18-.34-.45-.55-.82-.64-.45-.1-.87.04-1.12.36-.22.3-.24.68-.05,1.02.16.29.66.78,1.39.58.2.13.45.28.72.45.12.07.28.16.67.43l.03.02c.49.35.82.66,1.02.96-.31.78-.65,1.54-1.02,2.29-.35-1.06-1.31-1.86-2.03-2.28-.14-.35-.38-.59-.74-.72-.46-.16-.92-.06-1.2.27-.25.29-.29.71-.1,1.09.15.29.58.73,1.25.64.23.19.48.37.7.52.4.31.46.36.64.52l.02.02c.44.39.72.73.88,1.05-.41.75-.86,1.49-1.33,2.21-.22-1.14-1.13-2.03-1.74-2.49-.09-.37-.31-.64-.65-.8-.43-.2-.92-.15-1.24.15-.3.27-.38.67-.23,1.08.11.3.47.78,1.14.78.01,0,.03,0,.04,0,.21.22.44.42.63.59q.31.3.58.59h.01c.4.5.63.86.76,1.15-.16.22-.32.44-.48.66h0c-.11.14-.21.28-.32.42-.37-.02-.82-.14-1.34-.36h-.02q-.4-.19-.75-.37c-.23-.13-.5-.28-.77-.41-.04-.15-.15-.45-.5-.68-.4-.26-.9-.27-1.26-.01-.33.23-.47.6-.38,1,.08.38.47.93,1.18.93.02,0,.03,0,.05,0,.62.46,1.8,1.02,3.02.86-.56.66-1.15,1.3-1.76,1.91-.37-.07-.81-.24-1.3-.53h-.03c-.41-.26-.56-.36-.68-.45-.26-.17-.49-.33-.71-.46-.02-.14-.09-.47-.43-.75-.38-.31-.88-.38-1.27-.17-.33.18-.51.53-.46.93.05.4.39,1,1.15,1.05.65.61,1.72,1.21,2.84,1.22-.61.56-1.25,1.09-1.9,1.59-.43-.13-.87-.42-1.23-.66h-.02q-.32-.26-.65-.52c-.2-.18-.43-.38-.66-.57-.01-.15-.06-.45-.34-.74-.35-.36-.84-.48-1.25-.32-.34.14-.53.46-.53.84,0,.4.29,1.03,1.04,1.17.59.67,1.58,1.38,2.66,1.52-.65.46-1.33.9-2.02,1.3-.35-.14-.74-.41-1.14-.77l-.03-.03c-.2-.17-.28-.26-.58-.57-.18-.2-.38-.42-.59-.63,0-.15-.01-.45-.26-.77-.32-.4-.8-.58-1.22-.45-.34.1-.56.38-.59.75-.04.39.18,1.04.91,1.26.52.71,1.42,1.52,2.47,1.78-.69.37-1.4.7-2.11,1.01-.33-.18-.69-.49-1.07-.91l-.02-.02c-.26-.3-.42-.5-.51-.61-.16-.22-.34-.46-.52-.68.02-.14.03-.44-.18-.77-.27-.43-.75-.66-1.17-.59-.33.06-.57.31-.64.66-.07.37.07,1.02.76,1.33.43.76,1.24,1.64,2.26,2.03-.71.27-1.44.5-2.16.71-.31-.21-.63-.55-.96-.98l-.02-.04c-.16-.21-.21-.29-.45-.67-.14-.24-.29-.49-.44-.72.03-.14.07-.42-.1-.77-.23-.46-.68-.75-1.11-.71-.32.03-.58.24-.68.56-.11.35-.03.99.6,1.38.34.69.95,1.47,1.32,1.78.22.19.46.34.7.47-.72.17-1.46.3-2.18.4-.28-.25-.57-.61-.86-1.1l-.02-.02c-.23-.4-.32-.58-.37-.69-.14-.28-.26-.51-.37-.72.05-.12.13-.4-.02-.79-.19-.49-.61-.82-1.05-.83-.33,0-.58.16-.71.46-.15.33-.13.98.48,1.43.27.79.87,1.79,1.75,2.39-.44.04-.88.07-1.32.08h0s-.24.01-.24.01h0s-.04,0-.04,0h0s0,0,0,0h-.04s.04.15.04.15h0s-.07-.14-.07-.14v.16h0l-.04-.15v.16s-.06-.15-.06-.15v.16s-.07-.15-.07-.15v.16s-.05-.15-.05-.15v.16s-.06-.15-.06-.15h-.04s0,.16,0,.16l-.04-.16v.16s-.04-.16-.04-.16v.12s-.04-.11-.04-.11h-.07c-.32-.35-.57-.83-.74-1.16v-.02q-.17-.37-.32-.73c-.09-.25-.18-.52-.28-.77.06-.12.15-.37.05-.74-.14-.5-.53-.88-.96-.94-.31-.04-.57.09-.73.35-.18.3-.23.92.31,1.44.19.72.6,1.55.92,1.96.17.22.36.41.55.58l-2.12-.2c-.23-.3-.44-.71-.62-1.2v-.04c-.09-.23-.1-.26-.24-.74-.08-.29-.15-.53-.22-.75.07-.1.2-.34.14-.73-.09-.51-.45-.94-.87-1.05-.29-.07-.56.02-.74.25-.21.27-.33.87.17,1.45.1.78.47,1.83,1.19,2.62l-2.05-.5c-.24-.4-.4-.91-.5-1.26v-.02q-.09-.38-.16-.74c-.04-.26-.08-.53-.12-.78.14-.18.21-.4.19-.66-.04-.61-.44-1.04-.82-1.17-.29-.09-.56-.01-.74.21-.17.21-.35.74.07,1.37.02.76.27,1.81.89,2.66l-1.94-.79c-.2-.43-.3-.93-.37-1.28h0s0-.03,0-.03c-.04-.24-.04-.31-.08-.73,0-.25-.02-.51-.04-.77.16-.15.24-.35.25-.6.02-.61-.34-1.1-.71-1.27-.26-.12-.53-.09-.73.1-.18.17-.43.66-.07,1.35-.05.71.07,1.73.59,2.65-.64-.34-1.18-.67-1.81-1.08-.04-.11-.08-.23-.11-.34v1.54c.65.42,1.24.77,1.94,1.14-.3.14-.55.36-.73.66ZM198.41,97.95s0,0,0,0c0,0,0,0,0,0h0ZM238.27,61.05h0s0,0,0,0h0ZM238.26,60.99h0s0,0,0,0h0ZM238.21,60.78h0s0,0,0,0h0ZM238.18,60.63h0s0,0,0,0h0ZM238.14,60.5h0s0,0,0,0h0ZM236.78,56.42s0,0,0,0h0s0,0,0,0ZM237.23,61.03h0s0,0,0,0h0ZM237.27,61.17h0s0,0,0,0h0ZM233.8,65.51s0,0,0,0h0s0,0,0,0ZM233.77,68.66s0,0,0,0h0s0,0,0,0ZM225.42,91.7s0,0,0,0c0,0,0,0,0,0h0ZM209.98,96.91v.04s0-.03,0-.03h0Z" fill="#b02127" stroke="#b02127" stroke-linejoin="round" stroke-width=".31"/>
            <polygon points="301.84 169.17 334.61 169.17 408.25 23.96 375.47 23.96 343.52 91.37 311.36 23.96 278.39 23.96 326.94 121.25 313.56 146.77 283.34 146.77 271.88 169.17 301.84 169.17" fill="#fff"/>
            <polygon points="265.36 146.77 253.91 169.17 256.85 169.17 268.3 146.77 265.36 146.77" fill="#fff"/>
            <polygon points="255.58 146.77 243.85 169.17 250.86 169.17 262.31 146.77 255.58 146.77" fill="#fff"/>
            <polygon points="268.84 169.17 280.29 146.77 277.35 146.77 265.89 169.17 268.84 169.17" fill="#fff"/>
            <polygon points="274.3 146.77 271.35 146.77 259.9 169.17 262.84 169.17 274.3 146.77" fill="#fff"/>
            <polygon points="265.36 146.77 262.31 146.77 262.31 146.77 250.86 169.17 250.86 169.17 253.91 169.17 253.91 169.17 265.36 146.77 265.36 146.77" fill="#538cc9"/>
            <polygon points="271.35 146.77 268.3 146.77 268.3 146.77 256.85 169.17 256.85 169.17 259.9 169.17 259.9 169.17 271.35 146.77 271.35 146.77" fill="#538cc9"/>
            <polygon points="262.84 169.17 265.89 169.17 265.89 169.17 277.35 146.77 277.35 146.77 274.3 146.77 274.3 146.77 262.84 169.17 262.84 169.17" fill="#538cc9"/>
            <polygon points="268.84 169.17 271.88 169.17 271.88 169.17 283.34 146.77 283.34 146.77 280.29 146.77 280.29 146.77 268.84 169.17 268.84 169.17" fill="#538cc9"/>
            <polygon points="90.68 169.17 164.33 23.96 131.55 23.96 99.6 91.37 67.44 23.96 34.45 23.96 83 121.25 57.9 169.17 90.68 169.17" fill="#fff"/>
            <path d="M278.3,112.74V43.04l-19.07-19.08h-75.73l-19.09,19.08v69.7l19.09,19.09h75.73l19.07-19.09ZM248.23,105.06h-53.73v-54.35h53.73v54.35Z" fill="#fff"/>
            <g>
              <polygon points="324.83 27.43 320.98 35.45 324.85 43.46 328.7 35.45 324.83 27.43" fill="none"/>
              <polygon points="329.52 37.14 325.67 45.15 329.54 53.17 333.39 45.15 329.52 37.14" fill="none"/>
              <polygon points="334.21 46.84 330.36 54.86 334.23 62.87 338.08 54.86 334.21 46.84" fill="none"/>
              <polygon points="351.51 26.89 344.89 26.89 348.21 33.76 351.51 26.89" fill="none"/>
              <polygon points="342.16 26.89 335.55 26.89 338.86 33.76 342.16 26.89" fill="none"/>
              <polygon points="332.82 26.89 326.2 26.89 329.52 33.76 332.82 26.89" fill="none"/>
              <polygon points="339.73 74.27 343.6 82.28 347.45 74.27 343.58 66.25 339.73 74.27" fill="none"/>
              <polygon points="349.05 54.86 352.92 62.87 356.77 54.86 352.9 46.84 349.05 54.86" fill="none"/>
              <polygon points="353.71 45.15 357.58 53.17 361.43 45.15 357.56 37.14 353.71 45.15" fill="none"/>
              <polygon points="344.39 64.56 348.26 72.58 352.11 64.56 348.24 56.55 344.39 64.56" fill="none"/>
              <polygon points="358.37 35.45 362.24 43.46 366.09 35.45 362.22 27.43 358.37 35.45" fill="none"/>
              <polygon points="360.86 26.89 354.24 26.89 357.56 33.76 360.86 26.89" fill="none"/>
              <polygon points="338.89 56.55 335.04 64.56 338.91 72.58 342.76 64.56 338.89 56.55" fill="none"/>
              <polygon points="316.85 26.89 320.17 33.76 323.47 26.89 316.85 26.89" fill="none"/>
              <polygon points="370.21 26.89 363.59 26.89 366.91 33.76 370.21 26.89" fill="none"/>
              <polygon points="356.75 35.45 352.88 27.43 349.03 35.45 352.9 43.46 356.75 35.45" fill="none"/>
              <polygon points="347.4 35.45 343.53 27.43 339.68 35.45 343.55 43.46 347.4 35.45" fill="none"/>
              <polygon points="338.05 35.45 334.18 27.43 330.33 35.45 334.2 43.46 338.05 35.45" fill="none"/>
              <polygon points="344.36 45.15 348.24 53.17 352.09 45.15 348.21 37.14 344.36 45.15" fill="none"/>
              <polygon points="339.7 54.86 343.57 62.87 347.42 54.86 343.55 46.84 339.7 54.86" fill="none"/>
              <polygon points="338.87 37.14 335.02 45.15 338.89 53.17 342.74 45.15 338.87 37.14" fill="none"/>
              <polygon points="314.62 23.96 314.62 23.96 314.62 23.96 314.62 23.96" fill="#ee6730"/>
              <polygon points="372.43 23.96 372.43 23.96 372.43 23.96 372.43 23.96" fill="#ee6730"/>
              <polygon points="323.47 26.89 324.17 25.42 324.83 25.74 325.49 25.42 326.2 26.89 332.82 26.89 333.52 25.42 334.18 25.74 334.84 25.42 335.55 26.89 342.16 26.89 342.87 25.42 343.53 25.74 344.19 25.42 344.89 26.89 351.51 26.89 352.21 25.42 352.87 25.74 353.53 25.42 354.24 26.89 360.86 26.89 361.56 25.42 362.22 25.74 362.88 25.42 363.59 26.89 370.21 26.89 371.61 23.96 315.44 23.96 316.85 26.89 323.47 26.89" fill="#ee6730"/>
              <polygon points="366.09 35.45 362.24 43.46 363.06 45.15 366.91 37.14 366.09 35.45" fill="#ee6730"/>
              <polygon points="343.6 82.28 344.41 83.97 348.26 75.96 347.45 74.27 343.6 82.28" fill="#ee6730"/>
              <polygon points="352.92 62.87 353.74 64.56 357.59 56.55 356.77 54.86 352.92 62.87" fill="#ee6730"/>
              <polygon points="373.24 23.96 372.43 23.96 372.43 25.65 373.24 23.96" fill="#ee6730"/>
              <polygon points="357.58 53.17 358.4 54.86 362.25 46.84 361.43 45.15 357.58 53.17" fill="#ee6730"/>
              <polygon points="348.26 72.58 349.07 74.27 352.92 66.25 352.11 64.56 348.26 72.58" fill="#ee6730"/>
              <polygon points="366.91 33.76 367.72 35.45 371.83 26.89 370.21 26.89 366.91 33.76" fill="#ee6730"/>
              <polygon points="371.83 26.89 372.43 25.65 372.43 23.96 372.43 23.96 371.61 23.96 370.21 26.89 371.83 26.89" fill="#ee6730"/>
              <polygon points="352.9 43.46 353.71 45.15 357.56 37.14 356.75 35.45 352.9 43.46" fill="#ee6730"/>
              <polygon points="343.57 62.87 344.39 64.56 348.24 56.55 347.42 54.86 343.57 62.87" fill="#ee6730"/>
              <polygon points="358.37 35.45 362.22 27.43 361.96 26.89 360.86 26.89 357.56 33.76 358.37 35.45" fill="#ee6730"/>
              <polygon points="348.24 53.17 349.05 54.86 352.9 46.84 352.09 45.15 348.24 53.17" fill="#ee6730"/>
              <polygon points="342.76 64.56 338.91 72.58 339.73 74.27 343.58 66.25 342.76 64.56" fill="#ee6730"/>
              <polygon points="361.56 26.06 362.22 25.74 361.56 25.42 360.86 26.89 361.96 26.89 361.56 26.06" fill="#ee6730"/>
              <polygon points="344.36 45.15 348.21 37.14 347.4 35.45 343.55 43.46 344.36 45.15" fill="#ee6730"/>
              <polygon points="342.74 45.15 338.89 53.17 339.7 54.86 343.55 46.84 342.74 45.15" fill="#ee6730"/>
              <polygon points="349.03 35.45 352.88 27.43 352.61 26.89 351.51 26.89 348.21 33.76 349.03 35.45" fill="#ee6730"/>
              <polygon points="338.08 54.86 334.23 62.87 335.04 64.56 338.89 56.55 338.08 54.86" fill="#ee6730"/>
              <polygon points="352.21 26.06 352.87 25.74 352.21 25.42 351.51 26.89 352.61 26.89 352.21 26.06" fill="#ee6730"/>
              <polygon points="339.68 35.45 343.53 27.43 343.27 26.89 342.16 26.89 338.86 33.76 339.68 35.45" fill="#ee6730"/>
              <polygon points="335.02 45.15 338.87 37.14 338.05 35.45 334.2 43.46 335.02 45.15" fill="#ee6730"/>
              <polygon points="333.39 45.15 329.54 53.17 330.36 54.86 334.21 46.84 333.39 45.15" fill="#ee6730"/>
              <polygon points="342.87 26.06 343.53 25.74 342.87 25.42 342.16 26.89 343.27 26.89 342.87 26.06" fill="#ee6730"/>
              <polygon points="330.33 35.45 334.18 27.43 333.92 26.89 332.82 26.89 329.52 33.76 330.33 35.45" fill="#ee6730"/>
              <polygon points="328.7 35.45 324.85 43.46 325.67 45.15 329.52 37.14 328.7 35.45" fill="#ee6730"/>
              <polygon points="333.52 26.06 334.18 25.74 333.52 25.42 332.82 26.89 333.92 26.89 333.52 26.06" fill="#ee6730"/>
              <polygon points="324.57 26.89 323.47 26.89 320.17 33.76 320.98 35.45 324.83 27.43 324.57 26.89" fill="#ee6730"/>
              <polygon points="324.17 26.06 324.83 25.74 324.17 25.42 323.47 26.89 324.57 26.89 324.17 26.06" fill="#ee6730"/>
              <polygon points="335.04 64.56 334.23 66.25 338.1 74.27 338.91 72.58 335.04 64.56" fill="#ee6730"/>
              <polygon points="339.73 74.27 338.92 75.96 342.79 83.97 343.6 82.28 339.73 74.27" fill="#ee6730"/>
              <polygon points="313.81 23.96 314.62 25.64 314.62 23.96 313.81 23.96" fill="#ee6730"/>
              <polygon points="320.98 35.45 320.17 37.14 324.04 45.15 324.85 43.46 320.98 35.45" fill="#ee6730"/>
              <polygon points="330.36 54.86 329.54 56.55 333.42 64.56 334.23 62.87 330.36 54.86" fill="#ee6730"/>
              <polygon points="316.85 26.89 315.22 26.89 319.36 35.45 320.17 33.76 316.85 26.89" fill="#ee6730"/>
              <polygon points="325.67 45.15 324.86 46.84 328.73 54.86 329.54 53.17 325.67 45.15" fill="#ee6730"/>
              <polygon points="315.44 23.96 314.62 23.96 314.62 23.96 314.62 25.64 315.22 26.89 316.85 26.89 315.44 23.96" fill="#ee6730"/>
              <polygon points="342.79 83.97 343.6 85.66 344.41 83.97 343.6 82.28 342.79 83.97" fill="#ee6730"/>
              <polygon points="338.91 72.58 338.1 74.27 338.92 75.96 339.73 74.27 338.91 72.58" fill="#ee6730"/>
              <polygon points="334.23 62.87 333.42 64.56 334.23 66.25 335.04 64.56 334.23 62.87" fill="#ee6730"/>
              <polygon points="329.54 53.17 328.73 54.86 329.54 56.55 330.36 54.86 329.54 53.17" fill="#ee6730"/>
              <polygon points="324.85 43.46 324.04 45.15 324.86 46.84 325.67 45.15 324.85 43.46" fill="#ee6730"/>
              <polygon points="320.17 33.76 319.36 35.45 320.17 37.14 320.98 35.45 320.17 33.76" fill="#ee6730"/>
              <polygon points="335.02 45.15 334.21 46.84 338.08 54.86 338.89 53.17 335.02 45.15" fill="#ee6730"/>
              <polygon points="330.33 35.45 329.52 37.14 333.39 45.15 334.2 43.46 330.33 35.45" fill="#ee6730"/>
              <polygon points="343.58 66.25 347.45 74.27 348.26 72.58 344.39 64.56 343.58 66.25" fill="#ee6730"/>
              <polygon points="324.83 27.43 328.7 35.45 329.52 33.76 326.2 26.89 325.1 26.89 324.83 27.43" fill="#ee6730"/>
              <polygon points="339.7 54.86 338.89 56.55 342.76 64.56 343.57 62.87 339.7 54.86" fill="#ee6730"/>
              <polygon points="325.1 26.89 326.2 26.89 325.49 25.42 324.83 25.74 325.49 26.06 325.1 26.89" fill="#ee6730"/>
              <polygon points="347.45 74.27 348.26 75.96 349.07 74.27 348.26 72.58 347.45 74.27" fill="#ee6730"/>
              <polygon points="342.76 64.56 343.58 66.25 344.39 64.56 343.57 62.87 342.76 64.56" fill="#ee6730"/>
              <polygon points="338.89 53.17 338.08 54.86 338.89 56.55 339.7 54.86 338.89 53.17" fill="#ee6730"/>
              <polygon points="334.2 43.46 333.39 45.15 334.21 46.84 335.02 45.15 334.2 43.46" fill="#ee6730"/>
              <polygon points="329.52 33.76 328.7 35.45 329.52 37.14 330.33 35.45 329.52 33.76" fill="#ee6730"/>
              <polygon points="324.57 26.89 324.83 27.43 325.1 26.89 324.57 26.89" fill="#ee6730"/>
              <polygon points="324.57 26.89 325.1 26.89 325.49 26.06 324.83 25.74 324.17 26.06 324.57 26.89" fill="#ee6730"/>
              <polygon points="343.55 46.84 347.42 54.86 348.24 53.17 344.36 45.15 343.55 46.84" fill="#ee6730"/>
              <polygon points="348.24 56.55 352.11 64.56 352.92 62.87 349.05 54.86 348.24 56.55" fill="#ee6730"/>
              <polygon points="334.18 27.43 338.05 35.45 338.86 33.76 335.55 26.89 334.44 26.89 334.18 27.43" fill="#ee6730"/>
              <polygon points="342.74 45.15 343.55 43.46 339.68 35.45 338.87 37.14 342.74 45.15" fill="#ee6730"/>
              <polygon points="334.44 26.89 335.55 26.89 334.84 25.42 334.18 25.74 334.84 26.06 334.44 26.89" fill="#ee6730"/>
              <polygon points="352.11 64.56 352.92 66.25 353.74 64.56 352.92 62.87 352.11 64.56" fill="#ee6730"/>
              <polygon points="347.42 54.86 348.24 56.55 349.05 54.86 348.24 53.17 347.42 54.86" fill="#ee6730"/>
              <polygon points="344.36 45.15 343.55 43.46 342.74 45.15 343.55 46.84 344.36 45.15" fill="#ee6730"/>
              <polygon points="339.68 35.45 338.86 33.76 338.05 35.45 338.87 37.14 339.68 35.45" fill="#ee6730"/>
              <polygon points="333.92 26.89 334.18 27.43 334.44 26.89 333.92 26.89" fill="#ee6730"/>
              <polygon points="333.92 26.89 334.44 26.89 334.84 26.06 334.18 25.74 333.52 26.06 333.92 26.89" fill="#ee6730"/>
              <polygon points="343.53 27.43 347.4 35.45 348.21 33.76 344.89 26.89 343.79 26.89 343.53 27.43" fill="#ee6730"/>
              <polygon points="352.9 46.84 356.77 54.86 357.58 53.17 353.71 45.15 352.9 46.84" fill="#ee6730"/>
              <polygon points="352.09 45.15 352.9 43.46 349.03 35.45 348.21 37.14 352.09 45.15" fill="#ee6730"/>
              <polygon points="343.79 26.89 344.89 26.89 344.19 25.42 343.53 25.74 344.19 26.06 343.79 26.89" fill="#ee6730"/>
              <polygon points="356.77 54.86 357.59 56.55 358.4 54.86 357.58 53.17 356.77 54.86" fill="#ee6730"/>
              <polygon points="352.09 45.15 352.9 46.84 353.71 45.15 352.9 43.46 352.09 45.15" fill="#ee6730"/>
              <polygon points="349.03 35.45 348.21 33.76 347.4 35.45 348.21 37.14 349.03 35.45" fill="#ee6730"/>
              <polygon points="343.27 26.89 343.53 27.43 343.79 26.89 343.27 26.89" fill="#ee6730"/>
              <polygon points="343.27 26.89 343.79 26.89 344.19 26.06 343.53 25.74 342.87 26.06 343.27 26.89" fill="#ee6730"/>
              <polygon points="357.56 37.14 361.43 45.15 362.24 43.46 358.37 35.45 357.56 37.14" fill="#ee6730"/>
              <polygon points="352.88 27.43 356.75 35.45 357.56 33.76 354.24 26.89 353.14 26.89 352.88 27.43" fill="#ee6730"/>
              <polygon points="353.14 26.89 354.24 26.89 353.53 25.42 352.87 25.74 353.53 26.06 353.14 26.89" fill="#ee6730"/>
              <polygon points="361.43 45.15 362.25 46.84 363.06 45.15 362.24 43.46 361.43 45.15" fill="#ee6730"/>
              <polygon points="356.75 35.45 357.56 37.14 358.37 35.45 357.56 33.76 356.75 35.45" fill="#ee6730"/>
              <polygon points="352.61 26.89 352.88 27.43 353.14 26.89 352.61 26.89" fill="#ee6730"/>
              <polygon points="352.61 26.89 353.14 26.89 353.53 26.06 352.87 25.74 352.21 26.06 352.61 26.89" fill="#ee6730"/>
              <polygon points="363.59 26.89 362.49 26.89 362.22 27.43 366.09 35.45 366.91 33.76 363.59 26.89" fill="#ee6730"/>
              <polygon points="362.49 26.89 363.59 26.89 362.88 25.42 362.22 25.74 362.88 26.06 362.49 26.89" fill="#ee6730"/>
              <polygon points="366.09 35.45 366.91 37.14 367.72 35.45 366.91 33.76 366.09 35.45" fill="#ee6730"/>
              <polygon points="362.22 27.43 362.49 26.89 361.96 26.89 362.22 27.43" fill="#ee6730"/>
              <polygon points="361.96 26.89 362.49 26.89 362.88 26.06 362.22 25.74 361.56 26.06 361.96 26.89" fill="#ee6730"/>
            </g>
          </g>
        </g>
      </g>
    </g>
  </g>
</svg>