<?xml version="1.0" encoding="UTF-8"?>
<svg id="Layer_2" data-name="Layer 2" xmlns="http://www.w3.org/2000/svg" viewBox="0 0 202.61 91.56">
  <defs>
    <style>
      .cls-1 {
        fill: none;
      }

      .cls-2 {
        fill: #ba0c2f;
      }

      .cls-3 {
        fill: #fff;
      }
    </style>
  </defs>
  <g id="Layer_1-2" data-name="Layer 1">
    <g>
      <g>
        <path class="cls-2" d="M12.1,90.49c-6.08,0-11.03-5.41-11.03-12.05V13.12C1.07,6.48,6.02,1.07,12.1,1.07h178.42c6.08,0,11.03,5.41,11.03,12.05v65.31c0,6.65-4.95,12.05-11.03,12.05H12.1Z"/>
        <path class="cls-3" d="M190.52,2.14c5.49,0,9.96,4.93,9.96,10.98v65.31c0,6.06-4.47,10.98-9.96,10.98H12.1c-5.49,0-9.96-4.93-9.96-10.98V13.12C2.14,7.07,6.61,2.14,12.1,2.14h178.42M190.52,0H12.1C5.43,0,0,5.89,0,13.12v65.31c0,7.24,5.43,13.12,12.1,13.12h178.42c6.67,0,12.1-5.89,12.1-13.12V13.12c0-7.24-5.43-13.12-12.1-13.12h0Z"/>
      </g>
      <g>
        <g>
          <g>
            <g>
              <polygon class="cls-3" points="92.83 43.44 95.12 43.44 95.12 39.36 100.4 39.36 100.4 37.33 95.12 37.33 95.12 35.11 101.83 35.11 101.83 33.06 92.83 33.06 92.83 43.44"/>
              <polygon class="cls-3" points="104.91 39.26 110.07 39.26 110.07 37.23 104.91 37.23 104.91 35.11 111.7 35.11 111.7 33.06 102.63 33.06 102.63 43.44 111.76 43.44 111.76 41.39 104.91 41.39 104.91 39.26"/>
              <g>
                <rect class="cls-1" x="114.84" y="35.18" width="5.65" height="6.14"/>
                <path class="cls-3" d="M112.56,33.06v10.38h8.66l1.56-1.56v-7.26l-1.56-1.56h-8.66ZM120.49,41.32h-5.65v-6.14h5.65v6.14Z"/>
              </g>
              <polygon class="cls-3" points="125.85 39.26 131.01 39.26 131.01 37.23 125.85 37.23 125.85 35.11 132.64 35.11 132.64 33.06 123.57 33.06 123.57 43.44 132.7 43.44 132.7 41.39 125.85 41.39 125.85 39.26"/>
              <g>
                <rect class="cls-1" x="135.78" y="35.12" width="5.11" height="2.48"/>
                <path class="cls-3" d="M141.62,39.66l1.56-1.56v-3.48l-1.56-1.56h-8.12v10.38h2.28v-3.78h3.41l1.97,3.78h2.42l-1.99-3.78h.03ZM140.89,37.6h-5.11v-2.48h5.11v2.48Z"/>
              </g>
              <g>
                <polygon class="cls-1" points="148.6 39.59 152.39 39.59 150.49 35.51 148.6 39.59"/>
                <path class="cls-3" d="M149.46,33.06l-5.08,10.38h2.43l.84-1.81h5.69l.84,1.81h2.49l-5.07-10.38h-2.15ZM148.6,39.59l1.9-4.08,1.9,4.08h-3.79Z"/>
              </g>
              <polygon class="cls-3" points="153.76 35.18 157.65 35.18 157.65 43.44 159.94 43.44 159.94 35.18 163.82 35.18 163.82 33.06 153.76 33.06 153.76 35.18"/>
              <rect class="cls-3" x="164.62" y="33.06" width="2.28" height="10.38"/>
              <g>
                <rect class="cls-1" x="169.98" y="35.18" width="5.75" height="6.14"/>
                <path class="cls-3" d="M169.25,33.06l-1.56,1.56v7.26l1.56,1.56h7.2l1.56-1.56v-7.26l-1.56-1.56h-7.2ZM175.73,41.32h-5.75v-6.14h5.75v6.14Z"/>
              </g>
              <polygon class="cls-3" points="186.78 33.06 186.78 39.96 180.94 33.06 178.81 33.06 178.81 43.44 180.99 43.44 180.99 36.53 186.86 43.44 188.96 43.44 188.96 33.06 186.78 33.06"/>
            </g>
            <g>
              <g>
                <polygon class="cls-3" points="128.17 22.16 128.17 20.04 133.39 20.04 133.39 21.21 135.68 21.21 135.68 19.59 134.12 18.04 127.45 18.04 125.89 19.59 125.89 22.73 127.36 24.2 133.45 24.2 133.45 26.41 128.11 26.41 128.11 25.17 125.83 25.17 125.83 26.85 127.39 28.41 134.18 28.41 135.73 26.85 135.73 23.62 134.27 22.16 128.17 22.16"/>
                <g>
                  <rect class="cls-1" x="138.81" y="20.1" width="5.11" height="2.54"/>
                  <path class="cls-3" d="M136.53,18.04v10.38h2.28v-3.72h5.84l1.56-1.56v-3.54l-1.56-1.56h-8.12ZM143.93,22.63h-5.11v-2.54h5.11v2.54Z"/>
                </g>
                <g>
                  <rect class="cls-1" x="149.29" y="20.16" width="5.75" height="6.14"/>
                  <path class="cls-3" d="M148.56,18.04l-1.56,1.56v7.26l1.56,1.56h7.2l1.56-1.56v-7.26l-1.56-1.56h-7.2ZM155.04,26.29h-5.75v-6.14h5.75v6.14Z"/>
                </g>
                <g>
                  <rect class="cls-1" x="160.4" y="20.1" width="5.11" height="2.48"/>
                  <path class="cls-3" d="M166.24,24.63l1.56-1.56v-3.48l-1.56-1.56h-8.12v10.38h2.28v-3.78h3.41l1.97,3.78h2.42l-1.99-3.78h.03ZM165.52,22.57h-5.11v-2.48h5.11v2.48Z"/>
                </g>
                <polygon class="cls-3" points="168.47 20.16 172.36 20.16 172.36 28.41 174.65 28.41 174.65 20.16 178.53 20.16 178.53 18.04 168.47 18.04 168.47 20.16"/>
                <polygon class="cls-3" points="187.49 22.16 181.4 22.16 181.4 20.04 186.62 20.04 186.62 21.21 188.9 21.21 188.9 19.59 187.35 18.04 180.68 18.04 179.12 19.59 179.12 22.73 180.59 24.2 186.68 24.2 186.68 26.41 181.34 26.41 181.34 25.17 179.06 25.17 179.06 26.85 180.62 28.41 187.41 28.41 188.96 26.85 188.96 23.62 187.49 22.16"/>
              </g>
              <g>
                <polygon class="cls-1" points="107.07 23.9 107.07 23.9 107.07 23.9 107.07 23.9"/>
                <polygon class="cls-1" points="107.29 23.03 107.29 23.03 107.29 23.03 107.29 23.03"/>
                <polygon class="cls-1" points="107.07 23.67 107.07 23.67 107.07 23.67 107.07 23.67"/>
                <polygon class="cls-1" points="105.37 25.92 105.37 25.92 105.37 25.92 105.37 25.92"/>
                <polygon class="cls-1" points="106.47 25.54 106.47 25.54 106.47 25.54 106.47 25.54"/>
                <polygon class="cls-1" points="107.39 23.33 107.39 23.33 107.39 23.33 107.39 23.33"/>
                <polygon class="cls-1" points="107.39 23.36 107.39 23.36 107.39 23.36 107.39 23.36"/>
                <polygon class="cls-1" points="104.54 25.99 104.54 25.99 104.54 25.99 104.54 25.99"/>
                <polygon class="cls-3" points="96.85 31.08 102.11 20.71 99.77 20.71 97.49 25.52 95.19 20.71 92.83 20.71 96.3 27.66 94.51 31.08 96.85 31.08"/>
                <g>
                  <polygon class="cls-3" points="110.26 29.1 109.33 31.08 109.57 31.08 110.5 29.1 110.26 29.1"/>
                  <polygon class="cls-3" points="109.79 29.1 108.85 31.08 109.09 31.08 110.02 29.1 109.79 29.1"/>
                  <polygon class="cls-3" points="109.31 29.1 108.38 31.08 108.61 31.08 109.55 29.1 109.31 29.1"/>
                  <polygon class="cls-3" points="108.83 29.1 107.9 31.08 108.13 31.08 109.07 29.1 108.83 29.1"/>
                  <polygon class="cls-3" points="117.19 20.71 114.91 25.52 112.61 20.71 110.26 20.71 113.72 27.66 112.97 29.1 110.74 29.1 109.81 31.08 111.93 31.08 114.27 31.08 119.53 20.71 117.19 20.71"/>
                </g>
                <g>
                  <polygon class="cls-1" points="115.65 22.93 115.9 22.39 115.64 21.86 115.39 22.39 115.65 22.93"/>
                  <polygon class="cls-1" points="115.27 22.14 115.53 21.61 115.27 21.08 115.02 21.61 115.27 22.14"/>
                  <polygon class="cls-1" points="114.91 22.93 115.16 22.39 114.9 21.86 114.65 22.39 114.91 22.93"/>
                  <polygon class="cls-1" points="115.02 23.18 115.28 23.71 115.53 23.17 115.28 22.64 115.02 23.18"/>
                  <polygon class="cls-1" points="116.02 22.14 116.27 21.61 116.01 21.08 115.76 21.61 116.02 22.14"/>
                  <polygon class="cls-1" points="114.53 22.14 114.79 21.61 114.53 21.08 114.28 21.61 114.53 22.14"/>
                  <polygon class="cls-1" points="113.79 22.14 114.05 21.61 113.79 21.08 113.54 21.61 113.79 22.14"/>
                  <polygon class="cls-1" points="116.38 21.36 116.59 20.92 116.17 20.92 116.38 21.36"/>
                  <polygon class="cls-1" points="114.16 21.36 114.37 20.92 113.95 20.92 114.16 21.36"/>
                  <polygon class="cls-1" points="113.63 20.92 113.21 20.92 113.42 21.36 113.63 20.92"/>
                  <polygon class="cls-1" points="114.9 21.36 115.11 20.92 114.69 20.92 114.9 21.36"/>
                  <polygon class="cls-1" points="114.91 23.42 114.66 23.96 114.91 24.49 115.16 23.96 114.91 23.42"/>
                  <polygon class="cls-1" points="115.64 21.36 115.85 20.92 115.43 20.92 115.64 21.36"/>
                  <polygon class="cls-1" points="114.17 22.93 114.42 22.39 114.16 21.86 113.91 22.39 114.17 22.93"/>
                  <polygon class="cls-1" points="114.28 23.18 114.54 23.71 114.79 23.18 114.54 22.64 114.28 23.18"/>
                  <path class="cls-3" d="M116.93,20.71h-4.05l.43.9.12.25.25.53.12.25.25.53.12.25.25.53.12.25.37.78h0s0,0,0,0l.37-.78.12-.25.25-.53.12-.25.25-.53.12-.25.25-.53.12-.25h0s.42-.9.42-.9ZM116.59,20.92l-.21.44-.21-.44h.42ZM113.79,21.08l.25.53-.25.53-.25-.53.25-.53ZM114.53,21.08l.25.53-.25.53-.25-.53.25-.53ZM115.27,21.08l.25.53-.25.53-.25-.53.25-.53ZM116.01,21.08l.25.53-.25.53-.25-.53.25-.53ZM115.9,22.39l-.25.53-.25-.53.25-.53.25.53ZM115.53,23.17l-.25.53-.25-.53.25-.53.25.53ZM115.16,22.39l-.25.53-.25-.53.25-.53.25.53ZM114.79,23.18l-.25.53-.25-.53.25-.53.25.53ZM114.42,22.39l-.25.53-.25-.53.25-.53.25.53ZM114.66,23.96l.25-.53.25.53-.25.53-.25-.53ZM115.85,20.92l-.21.44-.21-.44h.42ZM115.11,20.92l-.21.44-.21-.44h.42ZM114.37,20.92l-.21.44-.21-.44h.42ZM113.63,20.92l-.21.44-.21-.44h.42Z"/>
                </g>
                <polygon class="cls-3" points="97.84 21.25 97.84 21.06 97.58 21.06 97.58 20.71 97.39 20.71 97.39 21.06 97.14 21.06 97.14 21.25 97.39 21.25 97.39 21.46 97.14 21.46 97.14 21.65 97.39 21.65 97.39 21.87 97.14 21.87 97.14 22.05 97.39 22.05 97.39 22.27 97.14 22.27 97.14 22.46 97.39 22.46 97.39 22.81 97.58 22.81 97.58 22.46 97.84 22.46 97.84 22.27 97.58 22.27 97.58 22.05 97.84 22.05 97.84 21.87 97.58 21.87 97.58 21.65 97.84 21.65 97.84 21.46 97.58 21.46 97.58 21.25 97.84 21.25"/>
                <g>
                  <path class="cls-1" d="M107.75,22.62h-3.49v3.89h3.84v-3.89h-.36ZM105.61,25.02s-.09-.06-.14-.09c-.02.13-.04.26-.07.38.07.06.14.13.2.21l-.16.14s-.07-.08-.11-.12c-.04.12-.1.24-.16.35.05.07.09.15.15.25l-.19.11c-.03-.05-.06-.1-.08-.14-.02-.04-.05-.07-.07-.11-.04,0-.08,0-.12-.01-.06,0-.12-.01-.19-.03l.03-.22c.1.02.19.03.27.03.05-.1.1-.21.14-.31-.06,0-.12.01-.19.02v-.22c.08,0,.16-.01.26-.03.03-.11.05-.22.06-.34-.06.02-.12.04-.17.06l-.06-.21c.08-.03.17-.05.25-.09,0-.06,0-.13,0-.19,0-.05,0-.1-.01-.15-.05.03-.1.06-.15.09l-.1-.19c.08-.04.15-.09.23-.14-.02-.11-.05-.22-.08-.33-.04.04-.08.08-.13.12l-.14-.16c.07-.06.13-.12.19-.18-.04-.11-.1-.21-.15-.3-.03.05-.06.09-.09.14l-.18-.13c.05-.07.1-.14.14-.21.01-.02.03-.04.04-.07l.03-.05h.05s.04-.01.06-.01c.1-.01.2-.02.3-.03v.22s-.11,0-.17.01c.07.11.12.23.18.35.1,0,.2.02.3.04l-.04.21c-.06-.01-.12-.02-.17-.03.04.12.07.25.1.38.09.03.19.07.28.1l-.08.2c-.05-.02-.11-.04-.16-.06,0,.06,0,.11.01.17,0,.07,0,.15,0,.22.08.05.16.1.25.16l-.12.18ZM107.59,26.1s-.03.04-.04.07l-.03.05h-.05s-.04.01-.06.01c-.1.01-.2.02-.3.03v-.22s.11,0,.17-.01c-.07-.11-.12-.23-.18-.35-.1,0-.2-.02-.3-.04l.04-.21c.06.01.12.02.17.03-.04-.12-.07-.25-.09-.38-.09-.03-.18-.07-.28-.1l.08-.2c.05.02.11.04.16.06,0-.06,0-.11-.01-.17,0-.07,0-.15,0-.22-.08-.05-.16-.1-.25-.16l.12-.18s.09.06.14.09c.02-.13.04-.26.07-.38-.07-.06-.14-.13-.2-.21l.16-.14s.07.08.11.12c.04-.12.1-.24.16-.35-.05-.07-.09-.15-.15-.24l.19-.11c.03.05.06.1.08.14.02.04.05.07.07.11.04,0,.07,0,.11.01.06,0,.12.01.19.03l-.03.22c-.1-.02-.19-.03-.27-.03-.05.1-.1.21-.14.31.06,0,.12-.01.19-.02v.22c-.08,0-.16.01-.26.03-.03.11-.05.22-.06.34.06-.02.12-.04.17-.06l.06.21c-.08.02-.17.05-.25.09,0,.06,0,.13,0,.19,0,.05,0,.1.01.15.05-.03.1-.06.16-.09l.1.19c-.08.04-.15.09-.23.14.02.11.05.22.08.33.04-.04.08-.08.13-.12l.14.16c-.07.06-.13.12-.19.18.04.11.1.21.15.3.03-.05.06-.09.09-.14l.18.13c-.05.07-.1.14-.14.21Z"/>
                  <path class="cls-3" d="M107.46,25.9c-.06-.1-.11-.2-.15-.3.06-.06.12-.12.19-.18l-.14-.16s-.09.08-.13.12c-.03-.11-.06-.22-.08-.33.08-.05.15-.09.23-.14l-.1-.19c-.05.03-.1.06-.16.09,0-.05,0-.1-.01-.15,0-.06,0-.13,0-.19.08-.03.17-.06.25-.09l-.06-.21c-.06.02-.12.04-.17.06.01-.11.04-.23.06-.34.09-.01.18-.02.27-.03v-.22c-.07,0-.14,0-.2.02.04-.11.08-.21.14-.31.08,0,.17.02.27.03l.03-.22c-.07-.01-.13-.02-.19-.03-.04,0-.08,0-.11-.01-.02-.03-.05-.07-.07-.11-.03-.04-.05-.09-.08-.14l-.19.11c.05.1.1.17.15.24-.06.11-.11.23-.16.35-.04-.04-.08-.08-.11-.12l-.16.14c.07.07.14.15.2.21-.03.13-.06.25-.07.38-.05-.03-.09-.06-.14-.09l-.12.18c.08.06.16.11.25.16,0,.07,0,.15,0,.22,0,.06,0,.11.01.17-.05-.02-.11-.04-.16-.06l-.08.2c.09.04.18.07.28.1.02.13.06.25.09.38-.06,0-.11-.02-.17-.03l-.04.21c.1.02.2.03.3.04.05.12.11.24.18.35-.06,0-.12.01-.18.01v.22c.11,0,.22-.02.31-.03.02,0,.04,0,.06,0h.05s.03-.05.03-.05c.01-.02.03-.04.04-.07.05-.07.09-.15.14-.21l-.18-.13s-.06.09-.09.14Z"/>
                  <path class="cls-3" d="M105.49,24.47c0-.06,0-.11-.01-.17.05.02.11.04.16.06l.08-.2c-.09-.04-.18-.07-.28-.1-.02-.13-.06-.25-.1-.38.06,0,.11.02.17.03l.04-.21c-.1-.02-.2-.03-.3-.04-.05-.12-.11-.24-.18-.35.06,0,.12-.01.18-.01v-.22c-.11,0-.22.02-.31.03-.02,0-.04,0-.06,0h-.05s-.03.05-.03.05c-.01.02-.03.04-.04.07-.04.07-.09.15-.14.21l.18.13s.06-.09.09-.14c.06.1.11.2.15.3-.06.06-.12.12-.19.18l.14.16s.09-.08.13-.12c.03.11.06.22.08.33-.08.05-.15.09-.23.14l.1.19c.05-.03.1-.06.15-.09,0,.05,0,.1.01.15,0,.06,0,.13,0,.19-.08.03-.17.06-.25.09l.06.21c.06-.02.12-.04.17-.06-.01.12-.04.23-.06.34-.09.01-.18.02-.27.03v.22c.07,0,.13,0,.2-.02-.04.11-.09.21-.14.31-.08,0-.17-.02-.27-.03l-.03.22c.07.01.13.02.19.03.04,0,.08,0,.12.01.02.03.04.07.07.11.03.04.05.09.08.14l.19-.11c-.05-.1-.1-.18-.15-.25.06-.11.11-.23.16-.35.04.04.08.08.11.12l.16-.14c-.07-.08-.14-.15-.2-.21.03-.12.06-.25.07-.38.05.03.09.06.14.09l.12-.18c-.08-.06-.16-.11-.25-.16,0-.07,0-.15,0-.22Z"/>
                  <path class="cls-3" d="M110.05,21.87l-1.16-1.16h-5.41l-1.12,1.12-.24.24v4.98l.24.24,1.13,1.13h5.41l1.09-1.09.27-.27v-4.98l-.21-.21ZM108.11,26.51h-3.84v-3.89h3.84v3.89Z"/>
                </g>
              </g>
            </g>
          </g>
          <g>
            <path class="cls-3" d="M92.84,48.04h2.28v8.28h6.52v2.09h-8.8v-10.37Z"/>
            <path class="cls-3" d="M102.67,48.04h9.06v2.04h-6.78v2.12h5.15v2.03h-5.15v2.13h6.84v2.04h-9.12v-10.37Z"/>
            <path class="cls-3" d="M117.18,48.04h2.15l5.06,10.37h-2.49l-.84-1.81h-5.69l-.84,1.81h-2.43l5.08-10.37ZM120.11,54.56l-1.9-4.07-1.9,4.07h3.79Z"/>
            <path class="cls-3" d="M124.84,56.85v-7.26l1.55-1.55h7.12l1.56,1.55v1.85h-2.28v-1.33h-5.67v6.22h5.67v-1.87h-3.3v-1.93h5.58v4.31l-1.56,1.55h-7.12l-1.55-1.55Z"/>
            <path class="cls-3" d="M136.54,56.85v-8.81h2.28v8.25h5.42v-8.25h2.28v8.81l-1.55,1.55h-6.87l-1.56-1.55Z"/>
            <path class="cls-3" d="M148.04,48.04h9.06v2.04h-6.78v2.12h5.15v2.03h-5.15v2.13h6.84v2.04h-9.12v-10.37Z"/>
            <path class="cls-3" d="M92.84,63.16h8.41l1.48,1.48v2.67l-1.2.98,1.2.98v2.78l-1.48,1.48h-8.41v-10.37ZM100.45,67.29v-2.16h-5.33v2.16h5.33ZM100.45,71.55v-2.3h-5.33v2.3h5.33Z"/>
            <path class="cls-3" d="M108.27,63.16h2.15l5.06,10.37h-2.49l-.84-1.81h-5.69l-.84,1.81h-2.43l5.08-10.37ZM111.2,69.67l-1.9-4.07-1.9,4.07h3.79Z"/>
            <path class="cls-3" d="M115.79,71.97v-1.69h2.28v1.24h5.33v-2.21h-6.09l-1.47-1.47v-3.14l1.56-1.55h6.66l1.56,1.55v1.61h-2.28v-1.17h-5.21v2.12h6.09l1.47,1.47v3.23l-1.56,1.55h-6.78l-1.56-1.55Z"/>
            <path class="cls-3" d="M127.46,63.16h9.06v2.04h-6.78v2.12h5.15v2.03h-5.15v2.13h6.84v2.04h-9.12v-10.37Z"/>
            <path class="cls-3" d="M138,63.16h8.41l1.48,1.48v2.67l-1.2.98,1.2.98v2.78l-1.48,1.48h-8.41v-10.37ZM145.61,67.29v-2.16h-5.33v2.16h5.33ZM145.61,71.55v-2.3h-5.33v2.3h5.33Z"/>
            <path class="cls-3" d="M153.43,63.16h2.15l5.06,10.37h-2.49l-.84-1.81h-5.69l-.84,1.81h-2.43l5.08-10.37ZM156.37,69.67l-1.9-4.07-1.9,4.07h3.79Z"/>
            <path class="cls-3" d="M161.52,63.16h2.28v8.28h6.52v2.09h-8.8v-10.37Z"/>
            <path class="cls-3" d="M171.35,63.16h2.28v8.28h6.52v2.09h-8.8v-10.37Z"/>
          </g>
        </g>
        <g>
          <path class="cls-1" d="M47.28,23.74c-5.89,0-11.42,2.29-15.58,6.46-4.16,4.16-6.46,9.7-6.46,15.58,0,12.15,9.89,22.04,22.04,22.04,5.89,0,11.42-2.29,15.58-6.46,4.16-4.16,6.46-9.7,6.46-15.58,0-12.15-9.89-22.04-22.04-22.04ZM41.43,50.41c-.47-.33-.95-.65-1.43-.95-.17,1.33-.42,2.62-.75,3.89.66.62,1.41,1.36,2.07,2.13l-1.67,1.45c-.36-.41-.75-.82-1.14-1.21-.45,1.24-.98,2.45-1.59,3.6.48.72.96,1.52,1.51,2.5l-1.93,1.08c-.3-.53-.57-1-.84-1.43-.24-.39-.46-.74-.69-1.08-.37-.03-.77-.07-1.18-.12-.6-.07-1.22-.15-1.89-.26l.35-2.19c1.02.16,1.93.28,2.76.34.53-1.03,1.01-2.09,1.41-3.19-.63.08-1.25.14-1.9.17l-.11-2.21c.91-.04,1.78-.15,2.73-.29.29-1.12.51-2.27.66-3.44-.59.2-1.17.4-1.76.57l-.63-2.12c.86-.25,1.72-.56,2.58-.88.02-.64.03-1.29,0-1.94-.02-.52-.06-1.03-.1-1.54-.52.32-1.05.63-1.58.92l-1.07-1.94c.78-.42,1.55-.9,2.31-1.39-.21-1.14-.49-2.26-.84-3.34-.42.4-.85.81-1.32,1.21l-1.45-1.68c.7-.6,1.33-1.21,1.91-1.82-.46-1.07-.98-2.11-1.57-3.1-.31.49-.64.96-.96,1.43l-1.8-1.29c.5-.7.97-1.43,1.43-2.18.13-.22.27-.44.4-.66l.27-.46.53-.08c.2-.03.41-.05.61-.07,1.01-.13,2.04-.23,3.08-.28l.12,2.21c-.62.03-1.23.08-1.84.14.67,1.12,1.27,2.3,1.79,3.52,1,.09,1.99.22,3.04.42l-.42,2.18c-.6-.11-1.18-.2-1.76-.28.4,1.24.73,2.51.97,3.82.94.32,1.88.67,2.82,1.06l-.86,2.04c-.54-.23-1.08-.44-1.62-.64.05.57.1,1.15.12,1.73.03.75.02,1.49-.01,2.23.84.5,1.68,1.04,2.5,1.61l-1.27,1.82ZM61.6,61.33c-.13.22-.27.44-.41.66l-.27.46-.53.08c-.2.03-.41.05-.61.07-1.01.13-2.04.23-3.09.29l-.12-2.21c.62-.03,1.23-.08,1.84-.14-.67-1.12-1.27-2.3-1.79-3.52-.99-.09-1.99-.22-3.04-.42l.42-2.18c.6.11,1.18.2,1.75.28-.4-1.24-.73-2.51-.97-3.82-.94-.32-1.88-.67-2.82-1.06l.86-2.04c.54.23,1.08.44,1.62.64-.05-.57-.1-1.15-.12-1.73-.03-.75-.02-1.49.01-2.23-.84-.5-1.68-1.04-2.5-1.61l1.27-1.82c.47.33.95.64,1.43.95.16-1.32.41-2.62.75-3.89-.66-.62-1.4-1.36-2.07-2.12l1.67-1.45c.36.41.74.81,1.13,1.2.45-1.24.98-2.45,1.59-3.61-.47-.72-.95-1.51-1.5-2.48l1.93-1.08c.29.52.56.99.83,1.42.24.39.47.75.7,1.09.37.03.76.07,1.16.12.6.07,1.23.15,1.91.26l-.35,2.19c-1.03-.17-1.94-.28-2.78-.35-.54,1.03-1,2.1-1.4,3.2.63-.08,1.26-.14,1.91-.17l.11,2.21c-.91.04-1.78.15-2.73.29-.29,1.13-.51,2.27-.65,3.44.59-.21,1.18-.4,1.76-.57l.63,2.12c-.85.25-1.72.56-2.58.88-.02.64-.03,1.29,0,1.94.02.52.06,1.03.1,1.54.52-.32,1.05-.63,1.58-.92l1.06,1.94c-.77.42-1.55.9-2.31,1.39.21,1.14.5,2.26.85,3.34.42-.4.85-.81,1.31-1.21l1.45,1.68c-.69.6-1.32,1.21-1.91,1.82.46,1.07.98,2.11,1.57,3.1.31-.49.63-.96.96-1.43l1.8,1.29c-.5.69-.97,1.43-1.43,2.18Z"/>
          <path class="cls-3" d="M47.28,14.29c-8.41,0-16.32,3.28-22.27,9.22-5.95,5.95-9.22,13.85-9.22,22.27,0,17.36,14.13,31.49,31.49,31.49,8.41,0,16.32-3.28,22.27-9.22,5.95-5.95,9.22-13.86,9.22-22.27,0-17.36-14.13-31.49-31.49-31.49ZM64.38,62.88c-4.57,4.57-10.64,7.08-17.1,7.08-13.33,0-24.18-10.85-24.18-24.18,0-6.46,2.52-12.53,7.08-17.1,4.57-4.57,10.64-7.08,17.1-7.08,13.33,0,24.18,10.85,24.18,24.18,0,6.46-2.52,12.53-7.08,17.1Z"/>
          <path class="cls-2" d="M47.28,12.15c-8.98,0-17.43,3.5-23.78,9.85-6.35,6.35-9.85,14.8-9.85,23.78,0,18.54,15.09,33.63,33.63,33.63,8.98,0,17.43-3.5,23.78-9.85,6.35-6.35,9.85-14.8,9.85-23.78,0-18.54-15.09-33.63-33.63-33.63ZM47.28,77.27c-17.36,0-31.49-14.13-31.49-31.49,0-8.41,3.28-16.32,9.22-22.27,5.95-5.95,13.86-9.22,22.27-9.22,17.36,0,31.49,14.13,31.49,31.49,0,8.41-3.28,16.32-9.22,22.27-5.95,5.95-13.86,9.22-22.27,9.22Z"/>
          <path class="cls-2" d="M47.28,21.6c-6.46,0-12.53,2.51-17.1,7.08-4.57,4.57-7.08,10.64-7.08,17.1,0,13.33,10.85,24.18,24.18,24.18,6.46,0,12.53-2.51,17.1-7.08,4.57-4.57,7.08-10.64,7.08-17.1,0-13.33-10.85-24.18-24.18-24.18ZM47.28,67.82c-12.15,0-22.04-9.89-22.04-22.04,0-5.89,2.29-11.42,6.46-15.58,4.16-4.16,9.7-6.46,15.58-6.46,12.15,0,22.04,9.89,22.04,22.04,0,5.89-2.29,11.42-6.46,15.58-4.16,4.16-9.7,6.46-15.58,6.46Z"/>
          <path class="cls-3" d="M61.22,57.86c-.33.46-.65.94-.96,1.43-.59-.99-1.11-2.02-1.57-3.1.59-.61,1.22-1.22,1.91-1.82l-1.45-1.68c-.46.4-.89.8-1.31,1.21-.35-1.08-.64-2.2-.85-3.34.76-.49,1.54-.96,2.31-1.39l-1.06-1.94c-.53.29-1.05.6-1.58.92-.05-.51-.08-1.03-.1-1.54-.02-.65-.02-1.3,0-1.94.86-.33,1.73-.63,2.58-.88l-.63-2.12c-.58.17-1.17.37-1.76.57.14-1.17.36-2.32.65-3.44.95-.14,1.82-.25,2.73-.29l-.11-2.21c-.65.03-1.28.1-1.91.17.4-1.1.86-2.16,1.4-3.2.84.07,1.75.18,2.78.35l.35-2.19c-.68-.11-1.31-.19-1.91-.26-.4-.05-.79-.09-1.16-.12-.23-.34-.46-.7-.7-1.09-.26-.43-.53-.89-.83-1.42l-1.93,1.08c.55.97,1.02,1.76,1.5,2.48-.61,1.16-1.14,2.37-1.59,3.61-.39-.39-.77-.79-1.13-1.2l-1.67,1.45c.66.76,1.4,1.5,2.07,2.12-.34,1.27-.59,2.57-.75,3.89-.48-.31-.96-.62-1.43-.95l-1.27,1.82c.82.57,1.66,1.11,2.5,1.61-.03.74-.04,1.48-.01,2.23.02.58.06,1.16.12,1.73-.54-.2-1.08-.41-1.62-.64l-.86,2.04c.93.39,1.88.74,2.82,1.06.24,1.31.56,2.58.97,3.82-.57-.08-1.15-.16-1.75-.28l-.42,2.18c1.05.2,2.05.33,3.04.42.52,1.22,1.12,2.4,1.79,3.52-.61.06-1.22.11-1.84.14l.12,2.21c1.04-.05,2.08-.16,3.09-.29.2-.03.41-.04.61-.07l.53-.08.27-.46c.13-.22.27-.44.41-.66.46-.75.93-1.49,1.43-2.18l-1.8-1.29Z"/>
          <path class="cls-3" d="M40.21,44.75c-.02-.58-.06-1.16-.12-1.73.54.2,1.08.41,1.62.64l.86-2.04c-.94-.39-1.88-.74-2.82-1.06-.24-1.31-.56-2.58-.97-3.82.58.08,1.16.16,1.76.28l.42-2.18c-1.05-.2-2.05-.33-3.04-.42-.52-1.22-1.11-2.4-1.79-3.52.61-.06,1.22-.11,1.84-.14l-.12-2.21c-1.04.05-2.07.16-3.08.28-.2.03-.41.04-.61.07l-.53.08-.27.46c-.13.22-.27.44-.4.66-.46.75-.93,1.49-1.43,2.18l1.8,1.29c.33-.46.65-.94.96-1.43.59.99,1.11,2.02,1.57,3.1-.59.61-1.22,1.22-1.91,1.82l1.45,1.68c.46-.4.9-.8,1.32-1.21.35,1.08.63,2.2.84,3.34-.76.49-1.54.96-2.31,1.39l1.07,1.94c.53-.29,1.05-.6,1.58-.92.05.51.09,1.03.1,1.54.02.65.02,1.3,0,1.94-.86.33-1.73.63-2.58.88l.63,2.12c.58-.17,1.17-.37,1.76-.57-.15,1.17-.36,2.32-.66,3.44-.95.14-1.82.25-2.73.29l.11,2.21c.65-.03,1.27-.09,1.9-.17-.4,1.1-.87,2.17-1.41,3.19-.83-.07-1.74-.18-2.76-.34l-.35,2.19c.67.11,1.3.19,1.89.26.4.05.8.09,1.18.12.23.33.45.69.69,1.08.26.43.54.9.84,1.43l1.93-1.08c-.55-.98-1.03-1.78-1.51-2.5.61-1.16,1.14-2.36,1.59-3.6.39.39.78.79,1.14,1.21l1.67-1.45c-.66-.77-1.41-1.5-2.07-2.13.34-1.26.59-2.56.75-3.89.48.31.96.62,1.43.95l1.27-1.82c-.82-.57-1.66-1.11-2.5-1.61.03-.74.04-1.48.01-2.23Z"/>
        </g>
      </g>
    </g>
  </g>
</svg>